<svg width="44" height="44" viewBox="0 0 44 44" fill="none" xmlns="http://www.w3.org/2000/svg">
<circle cx="22" cy="22" r="22" fill="#0A0511"/>
<path d="M17 23.0005V27.0005M17 27.0005H27M17 27.0005V31.0005M27 27.0005V23.0005L22 18.0005M27 27.0005V31.0005M24.8 15.2006L13 27.0006M29.072 31.0006H14.928C14.4167 31.0006 13.9263 30.7974 13.5647 30.4359C13.2031 30.0743 13 29.5839 13 29.0726V22.2156C13 21.7036 13.203 21.2156 13.566 20.8506L20.636 13.7876C20.815 13.6085 21.0276 13.4664 21.2616 13.3695C21.4955 13.2725 21.7463 13.2227 21.9995 13.2227C22.2527 13.2227 22.5035 13.2725 22.7374 13.3695C22.9714 13.4664 23.184 13.6085 23.363 13.7876L30.434 20.8506C30.797 21.2126 31 21.7036 31 22.2156V29.0726C31 29.5839 30.7969 30.0743 30.4353 30.4359C30.0737 30.7974 29.5833 31.0006 29.072 31.0006Z" stroke="url(#paint0_linear_141_392)" stroke-width="2" stroke-linecap="round" stroke-linejoin="round"/>
<defs>
<linearGradient id="paint0_linear_141_392" x1="22" y1="13.2227" x2="3.729" y2="22.2909" gradientUnits="userSpaceOnUse">
<stop stop-color="#7646FF"/>
<stop offset="0.655" stop-color="#00AAFF"/>
<stop offset="0.69" stop-color="#2666C9"/>
<stop offset="1" stop-color="#472A99"/>
</linearGradient>
</defs>
</svg>
