<svg width="18" height="18" viewBox="0 0 18 18" fill="none" xmlns="http://www.w3.org/2000/svg">
<path d="M11.25 12.75C10.6504 13.2168 9.86271 13.5 8.99998 13.5C8.13733 13.5 7.34965 13.2168 6.75 12.75" stroke="white" stroke-opacity="0.7" stroke-width="1.5" stroke-linecap="round"/>
<path d="M1.76354 9.91012C1.49878 8.18715 1.3664 7.32572 1.69213 6.56203C2.01785 5.79834 2.74052 5.27582 4.18586 4.23079L5.26574 3.45C7.06372 2.15 7.96273 1.5 8.99998 1.5C10.0373 1.5 10.9363 2.15 12.7342 3.45L13.8142 4.23079C15.2595 5.27582 15.9822 5.79834 16.3079 6.56203C16.6336 7.32572 16.5013 8.18715 16.2364 9.91012L16.0107 11.3793C15.6354 13.8217 15.4477 15.0429 14.5717 15.7714C13.6958 16.5 12.4153 16.5 9.85408 16.5H8.14589C5.58476 16.5 4.30418 16.5 3.42825 15.7714C2.55232 15.0429 2.36465 13.8217 1.98932 11.3793L1.76354 9.91012Z" stroke="white" stroke-opacity="0.7" stroke-width="1.5" stroke-linejoin="round"/>
</svg>
