<svg width="18" height="18" viewBox="0 0 18 18" fill="none" xmlns="http://www.w3.org/2000/svg">
<path d="M11.25 13.125C11.25 13.125 11.625 13.125 12 13.875C12 13.875 13.1911 12 14.25 11.625" stroke="white" stroke-opacity="0.7" stroke-width="1.125" stroke-linecap="round" stroke-linejoin="round"/>
<path d="M16.5 12.75C16.5 14.821 14.821 16.5 12.75 16.5C10.679 16.5 9 14.821 9 12.75C9 10.679 10.679 9 12.75 9C14.821 9 16.5 10.679 16.5 12.75Z" stroke="white" stroke-opacity="0.7" stroke-width="1.125" stroke-linecap="round"/>
<path d="M11.2715 6.93353C10.8171 6.1511 9.96998 5.625 9 5.625C7.55025 5.625 6.375 6.80025 6.375 8.25C6.375 9.04928 6.73219 9.76508 7.29565 10.2465" stroke="white" stroke-opacity="0.7" stroke-width="1.125" stroke-linecap="round"/>
<path d="M16.488 8.055C16.47 7.65 16.1977 7.15635 15.5929 6.11401L14.1502 3.62716C13.5478 2.58898 13.2467 2.06988 12.7514 1.78494C12.2562 1.5 11.6551 1.5 10.453 1.5H7.54703C6.34487 1.5 5.7438 1.5 5.24855 1.78494C4.7533 2.06988 4.45214 2.58897 3.84983 3.62716L2.40706 6.114C1.80235 7.15635 1.5 7.67745 1.5 8.25C1.5 8.82255 1.80235 9.34365 2.40706 10.386L3.84983 12.8728C4.45214 13.911 4.7533 14.4302 5.24855 14.7151C5.715 14.94 5.99784 15 7.2 15" stroke="white" stroke-opacity="0.7" stroke-width="1.125" stroke-linecap="round"/>
</svg>
