<svg width="58" height="58" viewBox="0 0 58 58" fill="none" xmlns="http://www.w3.org/2000/svg">
<path d="M55.6663 25.6683C54.8511 19.8024 52.1299 14.3672 47.9218 10.1999C43.7137 6.03273 38.2522 3.36469 32.3786 2.6068C26.505 1.84891 20.5451 3.04323 15.417 6.00578C10.2889 8.96832 6.27717 13.5347 3.99967 19.0016M2.33301 5.66829V19.0016H15.6663M2.33301 32.3327C3.14821 38.1986 5.86945 43.6338 10.0775 47.801C14.2856 51.9682 19.7472 54.6363 25.6208 55.3942C31.4944 56.1521 37.4543 54.9577 42.5823 51.9952C47.7104 49.0326 51.7222 44.4662 53.9997 38.9993M55.6663 52.3327V38.9993H42.333M25.6663 28.9993C25.6663 29.8834 26.0175 30.7312 26.6427 31.3564C27.2678 31.9815 28.1156 32.3327 28.9997 32.3327C29.8837 32.3327 30.7316 31.9815 31.3567 31.3564C31.9818 30.7312 32.333 29.8834 32.333 28.9993C32.333 28.1153 31.9818 27.2674 31.3567 26.6423C30.7316 26.0172 29.8837 25.666 28.9997 25.666C28.1156 25.666 27.2678 26.0172 26.6427 26.6423C26.0175 27.2674 25.6663 28.1153 25.6663 28.9993Z" stroke="url(#paint0_linear_346_631)" stroke-width="3" stroke-linecap="round" stroke-linejoin="round"/>
<defs>
<linearGradient id="paint0_linear_346_631" x1="2.33301" y1="29.0005" x2="50.6914" y2="29.0005" gradientUnits="userSpaceOnUse">
<stop stop-color="#FF5B96"/>
<stop offset="0.7" stop-color="#FF93FF"/>
<stop offset="0.94" stop-color="#742998"/>
</linearGradient>
</defs>
</svg>
