<svg width="62" height="62" viewBox="0 0 62 62" fill="none" xmlns="http://www.w3.org/2000/svg">
<path d="M21 31L27.6667 37.6667L41 24.3333M1 31C1 34.9397 1.77597 38.8407 3.28361 42.4805C4.79125 46.1203 7.00104 49.4274 9.7868 52.2132C12.5726 54.999 15.8797 57.2087 19.5195 58.7164C23.1593 60.224 27.0603 61 31 61C34.9397 61 38.8407 60.224 42.4805 58.7164C46.1203 57.2087 49.4274 54.999 52.2132 52.2132C54.999 49.4274 57.2087 46.1203 58.7164 42.4805C60.224 38.8407 61 34.9397 61 31C61 27.0603 60.224 23.1593 58.7164 19.5195C57.2087 15.8797 54.999 12.5726 52.2132 9.7868C49.4274 7.00104 46.1203 4.79126 42.4805 3.28361C38.8407 1.77597 34.9397 1 31 1C27.0603 1 23.1593 1.77597 19.5195 3.28361C15.8797 4.79126 12.5726 7.00104 9.7868 9.7868C7.00104 12.5726 4.79125 15.8797 3.28361 19.5195C1.77597 23.1593 1 27.0603 1 31Z" stroke="url(#paint0_linear_346_626)" stroke-width="2" stroke-linecap="round" stroke-linejoin="round"/>
<defs>
<linearGradient id="paint0_linear_346_626" x1="1" y1="31" x2="55.4032" y2="31" gradientUnits="userSpaceOnUse">
<stop stop-color="#FF5B96"/>
<stop offset="0.7" stop-color="#FF93FF"/>
<stop offset="0.94" stop-color="#742998"/>
</linearGradient>
</defs>
</svg>
