<svg width="91" height="24" viewBox="0 0 91 24" fill="none" xmlns="http://www.w3.org/2000/svg">
<path fill-rule="evenodd" clip-rule="evenodd" d="M27.783 15.942C26.7938 15.942 25.8921 15.7866 25.0805 15.4745C24.2676 15.1637 23.5695 14.711 22.9823 14.1189C22.5124 13.644 22.1288 13.0902 21.8327 12.455L23.7866 10.5011C23.831 10.7281 23.8865 10.9452 23.9543 11.1499C24.1492 11.742 24.4243 12.2403 24.7783 12.6437C25.1323 13.047 25.5628 13.3492 26.0697 13.5503C26.5767 13.7513 27.1478 13.8525 27.783 13.8525C28.4306 13.8525 29.0104 13.7427 29.5235 13.5231C30.0366 13.3036 30.4646 12.9952 30.8063 12.598C31.148 12.2009 31.3688 11.7395 31.4662 11.2153H33.9406C33.8308 12.1676 33.4977 12.9989 32.9415 13.7069C32.3852 14.415 31.6685 14.9651 30.7878 15.3561C29.9083 15.7471 28.9067 15.942 27.783 15.942ZM21.2197 10.2692C21.1741 9.89302 21.1506 9.49954 21.1506 9.08879C21.1506 8.02553 21.3098 7.07329 21.6268 6.23082C21.9438 5.38836 22.3964 4.67047 22.9823 4.07717C23.5683 3.4851 24.2676 3.03241 25.0805 2.72158C25.8934 2.41074 26.7938 2.25409 27.783 2.25409C28.9067 2.25409 29.9083 2.44898 30.7878 2.83999C31.6673 3.231 32.379 3.77744 32.9229 4.48052C33.4669 5.18237 33.8061 6.01003 33.9406 6.96351H31.4662C31.3564 6.43805 31.1332 5.98043 30.7977 5.58941C30.4622 5.1984 30.0403 4.8925 29.5333 4.67294C29.0264 4.45338 28.443 4.3436 27.783 4.3436C26.9406 4.3436 26.2104 4.52369 25.5936 4.88386C24.9769 5.24404 24.5008 5.77814 24.164 6.48739C23.8285 7.1954 23.6595 8.06377 23.6595 9.09002C23.6595 9.49954 23.6867 9.88315 23.7397 10.2409L21.2185 10.2692H21.2197ZM40.1524 15.942C39.4197 15.942 38.7598 15.8285 38.1739 15.6028C37.588 15.3771 37.0773 15.044 36.6444 14.6037C36.2102 14.1646 35.8808 13.6329 35.6551 13.01C35.4294 12.3871 35.3159 11.684 35.3159 10.9032C35.3159 9.90165 35.5083 9.02218 35.8932 8.26483C36.278 7.50747 36.8306 6.9154 37.551 6.48739C38.2713 6.05937 39.1397 5.84598 40.1524 5.84598C40.8727 5.84598 41.5265 5.96192 42.1136 6.19382C42.6995 6.42571 43.204 6.76122 43.6258 7.20157C44.0477 7.64192 44.3746 8.16985 44.6065 8.78659C44.8383 9.40333 44.9543 10.1089 44.9543 10.9032C44.9543 11.8925 44.7619 12.7658 44.377 13.5231C43.9922 14.2805 43.442 14.8726 42.7279 15.3006C42.0137 15.7286 41.1552 15.942 40.1536 15.942H40.1524ZM40.1339 14.0548C40.6347 14.0548 41.075 13.9351 41.4537 13.6971C41.8324 13.459 42.1259 13.105 42.3332 12.6338C42.5404 12.1639 42.6452 11.5866 42.6452 10.902C42.6452 10.3889 42.5872 9.93372 42.4713 9.53654C42.3554 9.13936 42.1876 8.80632 41.968 8.53743C41.7485 8.26853 41.4858 8.06747 41.1798 7.93302C40.8739 7.79857 40.5323 7.73197 40.1536 7.73197C39.6528 7.73197 39.21 7.85161 38.8251 8.08967C38.4403 8.32773 38.1443 8.68174 37.9358 9.15293C37.7286 9.62289 37.625 10.2063 37.625 10.9032C37.625 11.4164 37.6829 11.8715 37.7989 12.2687C37.9148 12.6659 38.0826 12.9952 38.3034 13.2579C38.5229 13.5207 38.7894 13.7193 39.1002 13.8537C39.411 13.9882 39.7564 14.0548 40.1351 14.0548H40.1339ZM50.3039 15.942C49.718 15.942 49.1827 15.8347 48.7004 15.6213C48.2181 15.4079 47.8024 15.0872 47.4546 14.6592C47.1067 14.2312 46.8403 13.7032 46.6577 13.0742C46.4739 12.4451 46.3827 11.721 46.3827 10.9032C46.3827 9.79187 46.5442 8.8606 46.8687 8.10818C47.1931 7.35699 47.6507 6.79206 48.2427 6.41338C48.8348 6.0347 49.5231 5.84598 50.3039 5.84598C50.8417 5.84598 51.3203 5.92862 51.7421 6.09267C52.164 6.25796 52.5266 6.48615 52.8325 6.77972C53.1384 7.07329 53.3703 7.42113 53.5294 7.82448H53.6577L53.749 6.02853H55.9483V15.7767H53.6577V13.9623H53.5294C53.2975 14.5605 52.9004 15.0403 52.3379 15.4005C51.7754 15.7607 51.0982 15.9408 50.3039 15.9408V15.942ZM51.1649 14.0733C51.715 14.0733 52.1701 13.945 52.5303 13.6884C52.8905 13.4319 53.1631 13.0988 53.3456 12.6905C53.5294 12.281 53.6207 11.8505 53.6207 11.3991V10.3913C53.6207 9.92756 53.5294 9.48967 53.3456 9.08139C53.1619 8.67188 52.8905 8.34254 52.5303 8.09214C52.1701 7.84174 51.715 7.71716 51.1649 7.71716C50.6764 7.71716 50.2484 7.83311 49.882 8.065C49.5157 8.2969 49.2283 8.64844 49.0211 9.11839C48.8138 9.58835 48.7102 10.1841 48.7102 10.9045C48.7102 11.6014 48.8138 12.1873 49.0211 12.6634C49.2283 13.1395 49.5157 13.4935 49.882 13.7267C50.2484 13.9586 50.6764 14.0745 51.1649 14.0745V14.0733ZM58.4029 15.7767V2.41814H60.6935V15.7767H58.4029ZM67.2173 15.942C66.2281 15.942 65.3881 15.7372 64.6973 15.3277C64.0066 14.9182 63.4787 14.3385 63.1123 13.5873C62.746 12.8361 62.5622 11.9591 62.5622 10.9575C62.5622 9.91892 62.746 9.01848 63.1123 8.25496C63.4787 7.49144 64.0041 6.90183 64.6887 6.48615C65.3733 6.07047 66.1849 5.86325 67.1261 5.86325C68.2017 5.86325 69.0836 6.09884 69.7743 6.5688C70.4651 7.03875 70.9622 7.69003 71.2681 8.52016C71.574 9.35029 71.6776 10.3038 71.5789 11.3781H64.7985C64.7985 12.001 64.8996 12.524 65.1007 12.9446C65.3017 13.3665 65.583 13.6835 65.9432 13.8969C66.3033 14.1103 66.7276 14.2176 67.2173 14.2176C67.7909 14.2176 68.2683 14.0807 68.6469 13.8056C69.0256 13.5305 69.2698 13.1728 69.3796 12.7337H71.5234C71.4506 13.3936 71.2175 13.9647 70.8265 14.447C70.4355 14.9293 69.9285 15.2994 69.3056 15.5559C68.6827 15.8125 67.9858 15.9408 67.2173 15.9408V15.942ZM64.7985 10.152L64.5974 9.91399H69.5634L69.3439 10.1706C69.3685 9.57231 69.2883 9.08386 69.1058 8.70518C68.922 8.3265 68.6605 8.04527 68.3176 7.86271C67.9759 7.67893 67.5787 7.58765 67.1261 7.58765C66.6623 7.58765 66.2589 7.68509 65.9172 7.88122C65.5756 8.07734 65.3067 8.36721 65.1106 8.75205C64.9157 9.1369 64.8108 9.60439 64.7985 10.1545V10.152ZM77.0025 15.9605C76.1354 15.9605 75.3904 15.8236 74.7675 15.5485C74.1446 15.2734 73.6647 14.8923 73.3292 14.4026C72.9937 13.9142 72.826 13.3455 72.826 12.6979H75.0795C75.0919 13.2604 75.2806 13.6687 75.6469 13.9253C76.0133 14.1818 76.4894 14.3101 77.0765 14.3101C77.6501 14.3101 78.088 14.2028 78.3865 13.9894C78.6862 13.776 78.8355 13.4787 78.8355 13.1001C78.8355 12.7942 78.7676 12.5598 78.6344 12.3945C78.5 12.2292 78.2804 12.1009 77.9745 12.0097C77.6686 11.9184 77.2665 11.8357 76.7657 11.7617C75.9467 11.6396 75.2633 11.4719 74.7132 11.2572C74.1631 11.0439 73.7548 10.7466 73.4859 10.3679C73.217 9.98923 73.0825 9.48844 73.0825 8.86553C73.0825 8.25496 73.2478 7.72333 73.5771 7.27188C73.9065 6.82043 74.3715 6.46888 74.9697 6.21849C75.568 5.96809 76.2711 5.84351 77.0765 5.84351C77.8586 5.84351 78.5394 5.96809 79.1192 6.21849C79.6989 6.46888 80.1516 6.82289 80.4748 7.28175C80.7992 7.7406 80.9669 8.28703 80.9793 8.92227H78.7257C78.7257 8.5806 78.6554 8.30183 78.5148 8.08844C78.3741 7.87505 78.1756 7.7184 77.919 7.62095C77.6624 7.52351 77.3627 7.47417 77.021 7.47417C76.5079 7.47417 76.1045 7.58148 75.8122 7.79487C75.5186 8.0095 75.3719 8.29937 75.3719 8.66571C75.3719 8.93461 75.4483 9.1517 75.6013 9.31575C75.7542 9.48104 76.0009 9.61179 76.3438 9.70923C76.6855 9.80668 77.1259 9.89302 77.6637 9.96579C78.2496 10.0509 78.7602 10.1619 79.1932 10.2951C79.6274 10.4296 79.99 10.6097 80.2836 10.8354C80.5771 11.0611 80.7992 11.3424 80.9521 11.6779C81.1051 12.0134 81.1815 12.4204 81.1815 12.8965C81.1815 13.8735 80.8004 14.6283 80.0356 15.16C79.2721 15.6916 78.2619 15.9568 77.0025 15.9568V15.9605ZM82.1881 18.837V16.9497H83.2698C83.5634 16.9497 83.8076 16.9127 84.0025 16.84C84.1974 16.7672 84.3627 16.6512 84.4971 16.4921C84.6316 16.333 84.7414 16.132 84.8265 15.8877L85.3581 14.5136V15.5399L81.3814 6.02977H83.8915L85.8885 11.6002L86.2548 12.6992H86.3461L86.6754 11.6002L88.5627 6.02977H91L87.0603 16.4194C86.8407 17.0423 86.5681 17.5307 86.245 17.886C85.9206 18.24 85.5493 18.4879 85.1274 18.6285C84.7056 18.7691 84.227 18.8394 83.6892 18.8394H82.1868L82.1881 18.837Z" fill="white"/>
<path fill-rule="evenodd" clip-rule="evenodd" d="M6.00207 0.13815L0.133179 6.00827V12.0153H6.00207L18.0186 0L6.00207 0.13815Z" fill="#00AAFF"/>
<path fill-rule="evenodd" clip-rule="evenodd" d="M5.87012 12.0893L0 17.9594V23.9664H5.87012L17.8854 11.9511L5.87012 12.0893Z" fill="#7646FF"/>
<path fill-rule="evenodd" clip-rule="evenodd" d="M27.783 15.942C26.7938 15.942 25.8921 15.7866 25.0805 15.4745C24.2676 15.1637 23.5695 14.711 22.9823 14.1189C22.5124 13.644 22.1288 13.0902 21.8327 12.455L23.7866 10.5011C23.831 10.7281 23.8865 10.9452 23.9543 11.1499C24.1492 11.742 24.4243 12.2403 24.7783 12.6437C25.1323 13.047 25.5628 13.3492 26.0697 13.5503C26.5767 13.7513 27.1478 13.8525 27.783 13.8525C28.4306 13.8525 29.0104 13.7427 29.5235 13.5231C30.0366 13.3036 30.4646 12.9952 30.8063 12.598C31.148 12.2009 31.3688 11.7395 31.4662 11.2153H33.9406C33.8308 12.1676 33.4977 12.9989 32.9415 13.7069C32.3852 14.415 31.6685 14.9651 30.7878 15.3561C29.9083 15.7471 28.9067 15.942 27.783 15.942ZM21.2197 10.2692C21.1741 9.89302 21.1506 9.49954 21.1506 9.08879C21.1506 8.02553 21.3098 7.07329 21.6268 6.23082C21.9438 5.38836 22.3964 4.67047 22.9823 4.07717C23.5683 3.4851 24.2676 3.03241 25.0805 2.72158C25.8934 2.41074 26.7938 2.25409 27.783 2.25409C28.9067 2.25409 29.9083 2.44898 30.7878 2.83999C31.6673 3.231 32.379 3.77744 32.9229 4.48052C33.4669 5.18237 33.8061 6.01003 33.9406 6.96351H31.4662C31.3564 6.43805 31.1332 5.98043 30.7977 5.58941C30.4622 5.1984 30.0403 4.8925 29.5333 4.67294C29.0264 4.45338 28.443 4.3436 27.783 4.3436C26.9406 4.3436 26.2104 4.52369 25.5936 4.88386C24.9769 5.24404 24.5008 5.77814 24.164 6.48739C23.8285 7.1954 23.6595 8.06377 23.6595 9.09002C23.6595 9.49954 23.6867 9.88315 23.7397 10.2409L21.2185 10.2692H21.2197ZM40.1524 15.942C39.4197 15.942 38.7598 15.8285 38.1739 15.6028C37.588 15.3771 37.0773 15.044 36.6444 14.6037C36.2102 14.1646 35.8808 13.6329 35.6551 13.01C35.4294 12.3871 35.3159 11.684 35.3159 10.9032C35.3159 9.90165 35.5083 9.02218 35.8932 8.26483C36.278 7.50747 36.8306 6.9154 37.551 6.48739C38.2713 6.05937 39.1397 5.84598 40.1524 5.84598C40.8727 5.84598 41.5265 5.96192 42.1136 6.19382C42.6995 6.42571 43.204 6.76122 43.6258 7.20157C44.0477 7.64192 44.3746 8.16985 44.6065 8.78659C44.8383 9.40333 44.9543 10.1089 44.9543 10.9032C44.9543 11.8925 44.7619 12.7658 44.377 13.5231C43.9922 14.2805 43.442 14.8726 42.7279 15.3006C42.0137 15.7286 41.1552 15.942 40.1536 15.942H40.1524ZM40.1339 14.0548C40.6347 14.0548 41.075 13.9351 41.4537 13.6971C41.8324 13.459 42.1259 13.105 42.3332 12.6338C42.5404 12.1639 42.6452 11.5866 42.6452 10.902C42.6452 10.3889 42.5872 9.93372 42.4713 9.53654C42.3554 9.13936 42.1876 8.80632 41.968 8.53743C41.7485 8.26853 41.4858 8.06747 41.1798 7.93302C40.8739 7.79857 40.5323 7.73197 40.1536 7.73197C39.6528 7.73197 39.21 7.85161 38.8251 8.08967C38.4403 8.32773 38.1443 8.68174 37.9358 9.15293C37.7286 9.62289 37.625 10.2063 37.625 10.9032C37.625 11.4164 37.6829 11.8715 37.7989 12.2687C37.9148 12.6659 38.0826 12.9952 38.3034 13.2579C38.5229 13.5207 38.7894 13.7193 39.1002 13.8537C39.411 13.9882 39.7564 14.0548 40.1351 14.0548H40.1339ZM50.3039 15.942C49.718 15.942 49.1827 15.8347 48.7004 15.6213C48.2181 15.4079 47.8024 15.0872 47.4546 14.6592C47.1067 14.2312 46.8403 13.7032 46.6577 13.0742C46.4739 12.4451 46.3827 11.721 46.3827 10.9032C46.3827 9.79187 46.5442 8.8606 46.8687 8.10818C47.1931 7.35699 47.6507 6.79206 48.2427 6.41338C48.8348 6.0347 49.5231 5.84598 50.3039 5.84598C50.8417 5.84598 51.3203 5.92862 51.7421 6.09267C52.164 6.25796 52.5266 6.48615 52.8325 6.77972C53.1384 7.07329 53.3703 7.42113 53.5294 7.82448H53.6577L53.749 6.02853H55.9483V15.7767H53.6577V13.9623H53.5294C53.2975 14.5605 52.9004 15.0403 52.3379 15.4005C51.7754 15.7607 51.0982 15.9408 50.3039 15.9408V15.942ZM51.1649 14.0733C51.715 14.0733 52.1701 13.945 52.5303 13.6884C52.8905 13.4319 53.1631 13.0988 53.3456 12.6905C53.5294 12.281 53.6207 11.8505 53.6207 11.3991V10.3913C53.6207 9.92756 53.5294 9.48967 53.3456 9.08139C53.1619 8.67188 52.8905 8.34254 52.5303 8.09214C52.1701 7.84174 51.715 7.71716 51.1649 7.71716C50.6764 7.71716 50.2484 7.83311 49.882 8.065C49.5157 8.2969 49.2283 8.64844 49.0211 9.11839C48.8138 9.58835 48.7102 10.1841 48.7102 10.9045C48.7102 11.6014 48.8138 12.1873 49.0211 12.6634C49.2283 13.1395 49.5157 13.4935 49.882 13.7267C50.2484 13.9586 50.6764 14.0745 51.1649 14.0745V14.0733ZM58.4029 15.7767V2.41814H60.6935V15.7767H58.4029ZM67.2173 15.942C66.2281 15.942 65.3881 15.7372 64.6973 15.3277C64.0066 14.9182 63.4787 14.3385 63.1123 13.5873C62.746 12.8361 62.5622 11.9591 62.5622 10.9575C62.5622 9.91892 62.746 9.01848 63.1123 8.25496C63.4787 7.49144 64.0041 6.90183 64.6887 6.48615C65.3733 6.07047 66.1849 5.86325 67.1261 5.86325C68.2017 5.86325 69.0836 6.09884 69.7743 6.5688C70.4651 7.03875 70.9622 7.69003 71.2681 8.52016C71.574 9.35029 71.6776 10.3038 71.5789 11.3781H64.7985C64.7985 12.001 64.8996 12.524 65.1007 12.9446C65.3017 13.3665 65.583 13.6835 65.9432 13.8969C66.3033 14.1103 66.7276 14.2176 67.2173 14.2176C67.7909 14.2176 68.2683 14.0807 68.6469 13.8056C69.0256 13.5305 69.2698 13.1728 69.3796 12.7337H71.5234C71.4506 13.3936 71.2175 13.9647 70.8265 14.447C70.4355 14.9293 69.9285 15.2994 69.3056 15.5559C68.6827 15.8125 67.9858 15.9408 67.2173 15.9408V15.942ZM64.7985 10.152L64.5974 9.91399H69.5634L69.3439 10.1706C69.3685 9.57231 69.2883 9.08386 69.1058 8.70518C68.922 8.3265 68.6605 8.04527 68.3176 7.86271C67.9759 7.67893 67.5787 7.58765 67.1261 7.58765C66.6623 7.58765 66.2589 7.68509 65.9172 7.88122C65.5756 8.07734 65.3067 8.36721 65.1106 8.75205C64.9157 9.1369 64.8108 9.60439 64.7985 10.1545V10.152ZM77.0025 15.9605C76.1354 15.9605 75.3904 15.8236 74.7675 15.5485C74.1446 15.2734 73.6647 14.8923 73.3292 14.4026C72.9937 13.9142 72.826 13.3455 72.826 12.6979H75.0795C75.0919 13.2604 75.2806 13.6687 75.6469 13.9253C76.0133 14.1818 76.4894 14.3101 77.0765 14.3101C77.6501 14.3101 78.088 14.2028 78.3865 13.9894C78.6862 13.776 78.8355 13.4787 78.8355 13.1001C78.8355 12.7942 78.7676 12.5598 78.6344 12.3945C78.5 12.2292 78.2804 12.1009 77.9745 12.0097C77.6686 11.9184 77.2665 11.8357 76.7657 11.7617C75.9467 11.6396 75.2633 11.4719 74.7132 11.2572C74.1631 11.0439 73.7548 10.7466 73.4859 10.3679C73.217 9.98923 73.0825 9.48844 73.0825 8.86553C73.0825 8.25496 73.2478 7.72333 73.5771 7.27188C73.9065 6.82043 74.3715 6.46888 74.9697 6.21849C75.568 5.96809 76.2711 5.84351 77.0765 5.84351C77.8586 5.84351 78.5394 5.96809 79.1192 6.21849C79.6989 6.46888 80.1516 6.82289 80.4748 7.28175C80.7992 7.7406 80.9669 8.28703 80.9793 8.92227H78.7257C78.7257 8.5806 78.6554 8.30183 78.5148 8.08844C78.3741 7.87505 78.1756 7.7184 77.919 7.62095C77.6624 7.52351 77.3627 7.47417 77.021 7.47417C76.5079 7.47417 76.1045 7.58148 75.8122 7.79487C75.5186 8.0095 75.3719 8.29937 75.3719 8.66571C75.3719 8.93461 75.4483 9.1517 75.6013 9.31575C75.7542 9.48104 76.0009 9.61179 76.3438 9.70923C76.6855 9.80668 77.1259 9.89302 77.6637 9.96579C78.2496 10.0509 78.7602 10.1619 79.1932 10.2951C79.6274 10.4296 79.99 10.6097 80.2836 10.8354C80.5771 11.0611 80.7992 11.3424 80.9521 11.6779C81.1051 12.0134 81.1815 12.4204 81.1815 12.8965C81.1815 13.8735 80.8004 14.6283 80.0356 15.16C79.2721 15.6916 78.2619 15.9568 77.0025 15.9568V15.9605ZM82.1881 18.837V16.9497H83.2698C83.5634 16.9497 83.8076 16.9127 84.0025 16.84C84.1974 16.7672 84.3627 16.6512 84.4971 16.4921C84.6316 16.333 84.7414 16.132 84.8265 15.8877L85.3581 14.5136V15.5399L81.3814 6.02977H83.8915L85.8885 11.6002L86.2548 12.6992H86.3461L86.6754 11.6002L88.5627 6.02977H91L87.0603 16.4194C86.8407 17.0423 86.5681 17.5307 86.245 17.886C85.9206 18.24 85.5493 18.4879 85.1274 18.6285C84.7056 18.7691 84.227 18.8394 83.6892 18.8394H82.1868L82.1881 18.837Z" fill="white"/>
<path fill-rule="evenodd" clip-rule="evenodd" d="M6.00207 0.13815L0.133179 6.00827V12.0153H6.00207L18.0186 0L6.00207 0.13815Z" fill="#00AAFF"/>
<path fill-rule="evenodd" clip-rule="evenodd" d="M5.87012 12.0893L0 17.9594V23.9664H5.87012L17.8854 11.9511L5.87012 12.0893Z" fill="#7646FF"/>
<path fill-rule="evenodd" clip-rule="evenodd" d="M27.783 15.942C26.7938 15.942 25.8921 15.7866 25.0805 15.4745C24.2676 15.1637 23.5695 14.711 22.9823 14.1189C22.5124 13.644 22.1288 13.0902 21.8327 12.455L23.7866 10.5011C23.831 10.7281 23.8865 10.9452 23.9543 11.1499C24.1492 11.742 24.4243 12.2403 24.7783 12.6437C25.1323 13.047 25.5628 13.3492 26.0697 13.5503C26.5767 13.7513 27.1478 13.8525 27.783 13.8525C28.4306 13.8525 29.0104 13.7427 29.5235 13.5231C30.0366 13.3036 30.4646 12.9952 30.8063 12.598C31.148 12.2009 31.3688 11.7395 31.4662 11.2153H33.9406C33.8308 12.1676 33.4977 12.9989 32.9415 13.7069C32.3852 14.415 31.6685 14.9651 30.7878 15.3561C29.9083 15.7471 28.9067 15.942 27.783 15.942ZM21.2197 10.2692C21.1741 9.89302 21.1506 9.49954 21.1506 9.08879C21.1506 8.02553 21.3098 7.07329 21.6268 6.23082C21.9438 5.38836 22.3964 4.67047 22.9823 4.07717C23.5683 3.4851 24.2676 3.03241 25.0805 2.72158C25.8934 2.41074 26.7938 2.25409 27.783 2.25409C28.9067 2.25409 29.9083 2.44898 30.7878 2.83999C31.6673 3.231 32.379 3.77744 32.9229 4.48052C33.4669 5.18237 33.8061 6.01003 33.9406 6.96351H31.4662C31.3564 6.43805 31.1332 5.98043 30.7977 5.58941C30.4622 5.1984 30.0403 4.8925 29.5333 4.67294C29.0264 4.45338 28.443 4.3436 27.783 4.3436C26.9406 4.3436 26.2104 4.52369 25.5936 4.88386C24.9769 5.24404 24.5008 5.77814 24.164 6.48739C23.8285 7.1954 23.6595 8.06377 23.6595 9.09002C23.6595 9.49954 23.6867 9.88315 23.7397 10.2409L21.2185 10.2692H21.2197ZM40.1524 15.942C39.4197 15.942 38.7598 15.8285 38.1739 15.6028C37.588 15.3771 37.0773 15.044 36.6444 14.6037C36.2102 14.1646 35.8808 13.6329 35.6551 13.01C35.4294 12.3871 35.3159 11.684 35.3159 10.9032C35.3159 9.90165 35.5083 9.02218 35.8932 8.26483C36.278 7.50747 36.8306 6.9154 37.551 6.48739C38.2713 6.05937 39.1397 5.84598 40.1524 5.84598C40.8727 5.84598 41.5265 5.96192 42.1136 6.19382C42.6995 6.42571 43.204 6.76122 43.6258 7.20157C44.0477 7.64192 44.3746 8.16985 44.6065 8.78659C44.8383 9.40333 44.9543 10.1089 44.9543 10.9032C44.9543 11.8925 44.7619 12.7658 44.377 13.5231C43.9922 14.2805 43.442 14.8726 42.7279 15.3006C42.0137 15.7286 41.1552 15.942 40.1536 15.942H40.1524ZM40.1339 14.0548C40.6347 14.0548 41.075 13.9351 41.4537 13.6971C41.8324 13.459 42.1259 13.105 42.3332 12.6338C42.5404 12.1639 42.6452 11.5866 42.6452 10.902C42.6452 10.3889 42.5872 9.93372 42.4713 9.53654C42.3554 9.13936 42.1876 8.80632 41.968 8.53743C41.7485 8.26853 41.4858 8.06747 41.1798 7.93302C40.8739 7.79857 40.5323 7.73197 40.1536 7.73197C39.6528 7.73197 39.21 7.85161 38.8251 8.08967C38.4403 8.32773 38.1443 8.68174 37.9358 9.15293C37.7286 9.62289 37.625 10.2063 37.625 10.9032C37.625 11.4164 37.6829 11.8715 37.7989 12.2687C37.9148 12.6659 38.0826 12.9952 38.3034 13.2579C38.5229 13.5207 38.7894 13.7193 39.1002 13.8537C39.411 13.9882 39.7564 14.0548 40.1351 14.0548H40.1339ZM50.3039 15.942C49.718 15.942 49.1827 15.8347 48.7004 15.6213C48.2181 15.4079 47.8024 15.0872 47.4546 14.6592C47.1067 14.2312 46.8403 13.7032 46.6577 13.0742C46.4739 12.4451 46.3827 11.721 46.3827 10.9032C46.3827 9.79187 46.5442 8.8606 46.8687 8.10818C47.1931 7.35699 47.6507 6.79206 48.2427 6.41338C48.8348 6.0347 49.5231 5.84598 50.3039 5.84598C50.8417 5.84598 51.3203 5.92862 51.7421 6.09267C52.164 6.25796 52.5266 6.48615 52.8325 6.77972C53.1384 7.07329 53.3703 7.42113 53.5294 7.82448H53.6577L53.749 6.02853H55.9483V15.7767H53.6577V13.9623H53.5294C53.2975 14.5605 52.9004 15.0403 52.3379 15.4005C51.7754 15.7607 51.0982 15.9408 50.3039 15.9408V15.942ZM51.1649 14.0733C51.715 14.0733 52.1701 13.945 52.5303 13.6884C52.8905 13.4319 53.1631 13.0988 53.3456 12.6905C53.5294 12.281 53.6207 11.8505 53.6207 11.3991V10.3913C53.6207 9.92756 53.5294 9.48967 53.3456 9.08139C53.1619 8.67188 52.8905 8.34254 52.5303 8.09214C52.1701 7.84174 51.715 7.71716 51.1649 7.71716C50.6764 7.71716 50.2484 7.83311 49.882 8.065C49.5157 8.2969 49.2283 8.64844 49.0211 9.11839C48.8138 9.58835 48.7102 10.1841 48.7102 10.9045C48.7102 11.6014 48.8138 12.1873 49.0211 12.6634C49.2283 13.1395 49.5157 13.4935 49.882 13.7267C50.2484 13.9586 50.6764 14.0745 51.1649 14.0745V14.0733ZM58.4029 15.7767V2.41814H60.6935V15.7767H58.4029ZM67.2173 15.942C66.2281 15.942 65.3881 15.7372 64.6973 15.3277C64.0066 14.9182 63.4787 14.3385 63.1123 13.5873C62.746 12.8361 62.5622 11.9591 62.5622 10.9575C62.5622 9.91892 62.746 9.01848 63.1123 8.25496C63.4787 7.49144 64.0041 6.90183 64.6887 6.48615C65.3733 6.07047 66.1849 5.86325 67.1261 5.86325C68.2017 5.86325 69.0836 6.09884 69.7743 6.5688C70.4651 7.03875 70.9622 7.69003 71.2681 8.52016C71.574 9.35029 71.6776 10.3038 71.5789 11.3781H64.7985C64.7985 12.001 64.8996 12.524 65.1007 12.9446C65.3017 13.3665 65.583 13.6835 65.9432 13.8969C66.3033 14.1103 66.7276 14.2176 67.2173 14.2176C67.7909 14.2176 68.2683 14.0807 68.6469 13.8056C69.0256 13.5305 69.2698 13.1728 69.3796 12.7337H71.5234C71.4506 13.3936 71.2175 13.9647 70.8265 14.447C70.4355 14.9293 69.9285 15.2994 69.3056 15.5559C68.6827 15.8125 67.9858 15.9408 67.2173 15.9408V15.942ZM64.7985 10.152L64.5974 9.91399H69.5634L69.3439 10.1706C69.3685 9.57231 69.2883 9.08386 69.1058 8.70518C68.922 8.3265 68.6605 8.04527 68.3176 7.86271C67.9759 7.67893 67.5787 7.58765 67.1261 7.58765C66.6623 7.58765 66.2589 7.68509 65.9172 7.88122C65.5756 8.07734 65.3067 8.36721 65.1106 8.75205C64.9157 9.1369 64.8108 9.60439 64.7985 10.1545V10.152ZM77.0025 15.9605C76.1354 15.9605 75.3904 15.8236 74.7675 15.5485C74.1446 15.2734 73.6647 14.8923 73.3292 14.4026C72.9937 13.9142 72.826 13.3455 72.826 12.6979H75.0795C75.0919 13.2604 75.2806 13.6687 75.6469 13.9253C76.0133 14.1818 76.4894 14.3101 77.0765 14.3101C77.6501 14.3101 78.088 14.2028 78.3865 13.9894C78.6862 13.776 78.8355 13.4787 78.8355 13.1001C78.8355 12.7942 78.7676 12.5598 78.6344 12.3945C78.5 12.2292 78.2804 12.1009 77.9745 12.0097C77.6686 11.9184 77.2665 11.8357 76.7657 11.7617C75.9467 11.6396 75.2633 11.4719 74.7132 11.2572C74.1631 11.0439 73.7548 10.7466 73.4859 10.3679C73.217 9.98923 73.0825 9.48844 73.0825 8.86553C73.0825 8.25496 73.2478 7.72333 73.5771 7.27188C73.9065 6.82043 74.3715 6.46888 74.9697 6.21849C75.568 5.96809 76.2711 5.84351 77.0765 5.84351C77.8586 5.84351 78.5394 5.96809 79.1192 6.21849C79.6989 6.46888 80.1516 6.82289 80.4748 7.28175C80.7992 7.7406 80.9669 8.28703 80.9793 8.92227H78.7257C78.7257 8.5806 78.6554 8.30183 78.5148 8.08844C78.3741 7.87505 78.1756 7.7184 77.919 7.62095C77.6624 7.52351 77.3627 7.47417 77.021 7.47417C76.5079 7.47417 76.1045 7.58148 75.8122 7.79487C75.5186 8.0095 75.3719 8.29937 75.3719 8.66571C75.3719 8.93461 75.4483 9.1517 75.6013 9.31575C75.7542 9.48104 76.0009 9.61179 76.3438 9.70923C76.6855 9.80668 77.1259 9.89302 77.6637 9.96579C78.2496 10.0509 78.7602 10.1619 79.1932 10.2951C79.6274 10.4296 79.99 10.6097 80.2836 10.8354C80.5771 11.0611 80.7992 11.3424 80.9521 11.6779C81.1051 12.0134 81.1815 12.4204 81.1815 12.8965C81.1815 13.8735 80.8004 14.6283 80.0356 15.16C79.2721 15.6916 78.2619 15.9568 77.0025 15.9568V15.9605ZM82.1881 18.837V16.9497H83.2698C83.5634 16.9497 83.8076 16.9127 84.0025 16.84C84.1974 16.7672 84.3627 16.6512 84.4971 16.4921C84.6316 16.333 84.7414 16.132 84.8265 15.8877L85.3581 14.5136V15.5399L81.3814 6.02977H83.8915L85.8885 11.6002L86.2548 12.6992H86.3461L86.6754 11.6002L88.5627 6.02977H91L87.0603 16.4194C86.8407 17.0423 86.5681 17.5307 86.245 17.886C85.9206 18.24 85.5493 18.4879 85.1274 18.6285C84.7056 18.7691 84.227 18.8394 83.6892 18.8394H82.1868L82.1881 18.837Z" fill="white"/>
<path fill-rule="evenodd" clip-rule="evenodd" d="M6.00207 0.13815L0.133179 6.00827V12.0153H6.00207L18.0186 0L6.00207 0.13815Z" fill="#FF93FF"/>
<path fill-rule="evenodd" clip-rule="evenodd" d="M5.87012 12.0893L0 17.9594V23.9664H5.87012L17.8854 11.9511L5.87012 12.0893Z" fill="#FF5B96"/>
</svg>
