<svg width="30" height="30" viewBox="0 0 30 30" fill="none" xmlns="http://www.w3.org/2000/svg">
<rect width="30" height="30" rx="2" fill="url(#paint0_linear_92_444)"/>
<path d="M10 8.33317C10 9.25365 9.25383 9.99984 8.33335 9.99984C7.41288 9.99984 6.66669 9.25365 6.66669 8.33317C6.66669 7.4127 7.41288 6.6665 8.33335 6.6665C9.25383 6.6665 10 7.4127 10 8.33317Z" stroke="white" stroke-width="1.25"/>
<path d="M23.3333 8.33317C23.3333 9.25365 22.5872 9.99984 21.6667 9.99984C20.7462 9.99984 20 9.25365 20 8.33317C20 7.4127 20.7462 6.6665 21.6667 6.6665C22.5872 6.6665 23.3333 7.4127 23.3333 8.33317Z" stroke="white" stroke-width="1.25"/>
<path d="M23.3333 21.6667C23.3333 22.5872 22.5872 23.3333 21.6667 23.3333C20.7462 23.3333 20 22.5872 20 21.6667C20 20.7462 20.7462 20 21.6667 20C22.5872 20 23.3333 20.7462 23.3333 21.6667Z" stroke="white" stroke-width="1.25"/>
<path d="M10 21.6667C10 22.5872 9.25383 23.3333 8.33335 23.3333C7.41288 23.3333 6.66669 22.5872 6.66669 21.6667C6.66669 20.7462 7.41288 20 8.33335 20C9.25383 20 10 20.7462 10 21.6667Z" stroke="white" stroke-width="1.25"/>
<path d="M13.8748 12.0669L12.9675 12.5108C11.8225 13.0712 11.25 13.3513 11.25 13.7498C11.25 14.1483 11.8225 14.4285 12.9675 14.9888L13.8748 15.4328C14.4202 15.6997 14.6929 15.8332 15 15.8332C15.3071 15.8332 15.5798 15.6997 16.1252 15.4328L17.0324 14.9888C18.1775 14.4285 18.75 14.1483 18.75 13.7498C18.75 13.3513 18.1775 13.0712 17.0324 12.5108L16.1252 12.0669C15.5798 11.8 15.3071 11.6665 15 11.6665C14.6929 11.6665 14.4202 11.8 13.8748 12.0669Z" stroke="white" stroke-width="1.25" stroke-linecap="round" stroke-linejoin="round"/>
<path d="M18.75 16.25C18.75 16.6485 18.1775 16.9287 17.0324 17.489L16.1252 17.9329C15.5798 18.1998 15.3071 18.3333 15 18.3333C14.6929 18.3333 14.4202 18.1998 13.8748 17.9329L12.9675 17.489C11.8225 16.9287 11.25 16.6485 11.25 16.25" stroke="white" stroke-width="1.25" stroke-linecap="round" stroke-linejoin="round"/>
<defs>
<linearGradient id="paint0_linear_92_444" x1="0" y1="15" x2="27.2016" y2="15" gradientUnits="userSpaceOnUse">
<stop stop-color="#FF5B96"/>
<stop offset="0.7" stop-color="#FF93FF"/>
<stop offset="0.94" stop-color="#742998"/>
</linearGradient>
</defs>
</svg>
