<svg width="30" height="30" viewBox="0 0 30 30" fill="none" xmlns="http://www.w3.org/2000/svg">
<rect width="30" height="30" rx="2" fill="url(#paint0_linear_92_222)"/>
<path d="M8.15735 12.5309C7.56785 12.85 6.02225 13.5016 6.96363 14.3169C7.42348 14.7152 7.93565 15 8.57955 15H12.2538C12.8977 15 13.4099 14.7152 13.8698 14.3169C14.8111 13.5016 13.2655 12.85 12.676 12.5309C11.2937 11.7827 9.53968 11.7827 8.15735 12.5309Z" stroke="white" stroke-width="1.25"/>
<path d="M12.2917 8.56045C12.2917 9.60644 11.4522 10.4544 10.4167 10.4544C9.38115 10.4544 8.54169 9.60644 8.54169 8.56045C8.54169 7.51445 9.38115 6.6665 10.4167 6.6665C11.4522 6.6665 12.2917 7.51445 12.2917 8.56045Z" stroke="white" stroke-width="1.25"/>
<path d="M8.33331 17.5C8.33331 20.2642 10.569 22.5 13.3333 22.5L12.619 21.0714" stroke="white" stroke-width="1.25" stroke-linecap="round" stroke-linejoin="round"/>
<path d="M21.6667 12.5C21.6667 9.73572 19.4309 7.5 16.6667 7.5L17.3809 8.92858" stroke="white" stroke-width="1.25" stroke-linecap="round" stroke-linejoin="round"/>
<path d="M17.324 20.8644C16.7345 21.1835 15.1889 21.8351 16.1302 22.6504C16.5902 23.0487 17.1022 23.3335 17.7462 23.3335H21.4205C22.0644 23.3335 22.5765 23.0487 23.0364 22.6504C23.9777 21.8351 22.4322 21.1835 21.8427 20.8644C20.4603 20.1162 18.7063 20.1162 17.324 20.8644Z" stroke="white" stroke-width="1.25"/>
<path d="M21.4583 16.8939C21.4583 17.9399 20.6188 18.7879 19.5833 18.7879C18.5478 18.7879 17.7083 17.9399 17.7083 16.8939C17.7083 15.8479 18.5478 15 19.5833 15C20.6188 15 21.4583 15.8479 21.4583 16.8939Z" stroke="white" stroke-width="1.25"/>
<defs>
<linearGradient id="paint0_linear_92_222" x1="0" y1="15" x2="27.2016" y2="15" gradientUnits="userSpaceOnUse">
<stop stop-color="#FF5B96"/>
<stop offset="0.7" stop-color="#FF93FF"/>
<stop offset="0.94" stop-color="#742998"/>
</linearGradient>
</defs>
</svg>
