<svg width="30" height="30" viewBox="0 0 30 30" fill="none" xmlns="http://www.w3.org/2000/svg">
<rect width="30" height="30" rx="2" fill="url(#paint0_linear_92_362)"/>
<path d="M17.6461 23.3332V22.5096V22.4922C17.6504 22.0379 18.0228 21.6708 18.4834 21.6665L18.5459 21.6664C19.7389 21.6569 20.7638 20.8283 21.0072 19.6765L21.0161 19.6333L21.4487 17.4998L22.2331 17.1131C22.653 16.9061 22.8628 16.8026 22.9082 16.6128C22.9536 16.4231 22.8129 16.2379 22.5313 15.8677L20.9417 13.7776C20.7836 13.5696 20.7045 13.4656 20.6621 13.3556C20.6197 13.2456 20.6066 13.0896 20.5806 12.7778C20.2944 9.35574 17.3874 6.6665 13.8436 6.6665C10.11 6.6665 7.08331 9.65127 7.08331 13.3332C7.08331 15.6246 8.25555 17.6459 10.0409 18.8459M10.0409 18.8459V23.3332M10.0409 18.8459C10.5574 19.1931 11.1253 19.4715 11.731 19.6678" stroke="white" stroke-width="1.25" stroke-linecap="round" stroke-linejoin="round"/>
<path d="M16.6667 12.5L17.4333 13.1607C17.7555 13.4385 17.9167 13.5774 17.9167 13.75C17.9167 13.9226 17.7555 14.0615 17.4333 14.3392L16.6667 15" stroke="white" stroke-width="1.25" stroke-linecap="round" stroke-linejoin="round"/>
<path d="M10.8333 12.5L10.0667 13.1607C9.74445 13.4385 9.58331 13.5774 9.58331 13.75C9.58331 13.9226 9.74445 14.0615 10.0667 14.3392L10.8333 15" stroke="white" stroke-width="1.25" stroke-linecap="round" stroke-linejoin="round"/>
<path d="M14.5834 11.6665L12.9167 15.8332" stroke="white" stroke-width="1.25" stroke-linecap="round" stroke-linejoin="round"/>
<defs>
<linearGradient id="paint0_linear_92_362" x1="0" y1="15" x2="27.2016" y2="15" gradientUnits="userSpaceOnUse">
<stop stop-color="#FF5B96"/>
<stop offset="0.7" stop-color="#FF93FF"/>
<stop offset="0.94" stop-color="#742998"/>
</linearGradient>
</defs>
</svg>
