<svg width="30" height="30" viewBox="0 0 30 30" fill="none" xmlns="http://www.w3.org/2000/svg">
<rect width="30" height="30" rx="2" fill="url(#paint0_linear_92_348)"/>
<path d="M20.5134 21.6665H20.9219C21.8801 21.6665 22.6423 21.2299 23.3266 20.6195C25.065 19.0687 20.9784 17.4998 19.5834 17.4998M17.9167 9.22381C18.1059 9.18628 18.3024 9.1665 18.504 9.1665C20.0206 9.1665 21.25 10.2858 21.25 11.6665C21.25 13.0472 20.0206 14.1665 18.504 14.1665C18.3024 14.1665 18.1059 14.1468 17.9167 14.1092" stroke="white" stroke-width="1.25" stroke-linecap="round"/>
<path d="M8.73443 18.426C7.75195 18.9525 5.17595 20.0276 6.7449 21.3728C7.51133 22.03 8.36493 22.5 9.4381 22.5H15.5619C16.6351 22.5 17.4887 22.03 18.2551 21.3728C19.8241 20.0276 17.2481 18.9525 16.2656 18.426C13.9617 17.1913 11.0383 17.1913 8.73443 18.426Z" stroke="white" stroke-width="1.25"/>
<path d="M15.8334 11.2498C15.8334 13.0908 14.3409 14.5832 12.5 14.5832C10.6591 14.5832 9.16669 13.0908 9.16669 11.2498C9.16669 9.40889 10.6591 7.9165 12.5 7.9165C14.3409 7.9165 15.8334 9.40889 15.8334 11.2498Z" stroke="white" stroke-width="1.25"/>
<defs>
<linearGradient id="paint0_linear_92_348" x1="0" y1="15" x2="27.2016" y2="15" gradientUnits="userSpaceOnUse">
<stop stop-color="#FF5B96"/>
<stop offset="0.7" stop-color="#FF93FF"/>
<stop offset="0.94" stop-color="#742998"/>
</linearGradient>
</defs>
</svg>
