<svg width="30" height="30" viewBox="0 0 30 30" fill="none" xmlns="http://www.w3.org/2000/svg">
<rect width="30" height="30" rx="2" fill="url(#paint0_linear_92_354)"/>
<path d="M6.66669 12.1407C6.66669 11.1439 7.06867 10.533 7.90055 10.0701L11.3249 8.16437C13.1193 7.1658 14.0164 6.6665 15 6.6665C15.9836 6.6665 16.8808 7.1658 18.6751 8.16437L22.0995 10.0701C22.9314 10.533 23.3334 11.1439 23.3334 12.1407C23.3334 12.411 23.3334 12.5462 23.3039 12.6573C23.1488 13.241 22.6198 13.3332 22.1089 13.3332H7.89109C7.38025 13.3332 6.85129 13.241 6.6962 12.6573C6.66669 12.5462 6.66669 12.411 6.66669 12.1407Z" stroke="white" stroke-width="1.25"/>
<path d="M14.9965 10.8335H15.004" stroke="white" stroke-width="1.66667" stroke-linecap="round" stroke-linejoin="round"/>
<path d="M8.33331 13.3335V20.4168M11.6666 13.3335V20.4168" stroke="white" stroke-width="1.25"/>
<path d="M18.3333 13.3335V20.4168M21.6666 13.3335V20.4168" stroke="white" stroke-width="1.25"/>
<path d="M20.8334 20.4165H9.16669C7.78598 20.4165 6.66669 21.5358 6.66669 22.9165C6.66669 23.1466 6.85324 23.3332 7.08335 23.3332H22.9167C23.1468 23.3332 23.3334 23.1466 23.3334 22.9165C23.3334 21.5358 22.2141 20.4165 20.8334 20.4165Z" stroke="white" stroke-width="1.25"/>
<defs>
<linearGradient id="paint0_linear_92_354" x1="0" y1="15" x2="27.2016" y2="15" gradientUnits="userSpaceOnUse">
<stop stop-color="#FF5B96"/>
<stop offset="0.7" stop-color="#FF93FF"/>
<stop offset="0.94" stop-color="#742998"/>
</linearGradient>
</defs>
</svg>
