<svg width="91" height="24" viewBox="0 0 91 24" fill="none" xmlns="http://www.w3.org/2000/svg">
<path fill-rule="evenodd" clip-rule="evenodd" d="M27.783 15.9418C26.7938 15.9418 25.8921 15.7864 25.0805 15.4743C24.2676 15.1635 23.5695 14.7108 22.9823 14.1187C22.5124 13.6438 22.1288 13.09 21.8327 12.4548L23.7866 10.5009C23.831 10.7279 23.8865 10.945 23.9543 11.1497C24.1492 11.7418 24.4243 12.2401 24.7783 12.6435C25.1323 13.0468 25.5628 13.349 26.0697 13.5501C26.5767 13.7512 27.1478 13.8523 27.783 13.8523C28.4306 13.8523 29.0104 13.7425 29.5235 13.523C30.0366 13.3034 30.4646 12.995 30.8063 12.5979C31.148 12.2007 31.3688 11.7394 31.4662 11.2151H33.9406C33.8308 12.1674 33.4977 12.9987 32.9415 13.7068C32.3852 14.4148 31.6685 14.9649 30.7878 15.3559C29.9083 15.7469 28.9067 15.9418 27.783 15.9418ZM21.2197 10.269C21.1741 9.89284 21.1506 9.49936 21.1506 9.08861C21.1506 8.02535 21.3098 7.0731 21.6268 6.23064C21.9438 5.38817 22.3964 4.67029 22.9823 4.07699C23.5683 3.48492 24.2676 3.03223 25.0805 2.72139C25.8934 2.41056 26.7938 2.25391 27.783 2.25391C28.9067 2.25391 29.9083 2.4488 30.7878 2.83981C31.6673 3.23082 32.379 3.77725 32.9229 4.48033C33.4669 5.18218 33.8061 6.00985 33.9406 6.96333H31.4662C31.3564 6.43786 31.1332 5.98024 30.7977 5.58923C30.4622 5.19822 30.0403 4.89232 29.5333 4.67276C29.0264 4.4532 28.443 4.34342 27.783 4.34342C26.9406 4.34342 26.2104 4.52351 25.5936 4.88368C24.9769 5.24386 24.5008 5.77795 24.164 6.4872C23.8285 7.19522 23.6595 8.06359 23.6595 9.08984C23.6595 9.49936 23.6867 9.88297 23.7397 10.2407L21.2185 10.269H21.2197ZM40.1524 15.9418C39.4197 15.9418 38.7598 15.8283 38.1739 15.6026C37.588 15.3769 37.0773 15.0438 36.6444 14.6035C36.2102 14.1644 35.8808 13.6327 35.6551 13.0098C35.4294 12.3869 35.3159 11.6838 35.3159 10.9031C35.3159 9.90147 35.5083 9.022 35.8932 8.26465C36.278 7.50729 36.8306 6.91522 37.551 6.4872C38.2713 6.05919 39.1397 5.84579 40.1524 5.84579C40.8727 5.84579 41.5265 5.96174 42.1136 6.19364C42.6995 6.42553 43.204 6.76103 43.6258 7.20139C44.0477 7.64174 44.3746 8.16967 44.6065 8.78641C44.8383 9.40314 44.9543 10.1087 44.9543 10.9031C44.9543 11.8923 44.7619 12.7656 44.377 13.523C43.9922 14.2803 43.442 14.8724 42.7279 15.3004C42.0137 15.7284 41.1552 15.9418 40.1536 15.9418H40.1524ZM40.1339 14.0546C40.6347 14.0546 41.075 13.9349 41.4537 13.6969C41.8324 13.4588 42.1259 13.1048 42.3332 12.6336C42.5404 12.1637 42.6452 11.5864 42.6452 10.9018C42.6452 10.3887 42.5872 9.93354 42.4713 9.53636C42.3554 9.13918 42.1876 8.80614 41.968 8.53724C41.7485 8.26835 41.4858 8.06729 41.1798 7.93284C40.8739 7.79839 40.5323 7.73178 40.1536 7.73178C39.6528 7.73178 39.21 7.85143 38.8251 8.08949C38.4403 8.32755 38.1443 8.68156 37.9358 9.15275C37.7286 9.6227 37.625 10.2061 37.625 10.9031C37.625 11.4162 37.6829 11.8713 37.7989 12.2685C37.9148 12.6657 38.0826 12.995 38.3034 13.2578C38.5229 13.5205 38.7894 13.7191 39.1002 13.8535C39.411 13.988 39.7564 14.0546 40.1351 14.0546H40.1339ZM50.3039 15.9418C49.718 15.9418 49.1827 15.8345 48.7004 15.6211C48.2181 15.4077 47.8024 15.087 47.4546 14.659C47.1067 14.231 46.8403 13.703 46.6577 13.074C46.4739 12.4449 46.3827 11.7208 46.3827 10.9031C46.3827 9.79169 46.5442 8.86041 46.8687 8.10799C47.1931 7.3568 47.6507 6.79187 48.2427 6.41319C48.8348 6.03452 49.5231 5.84579 50.3039 5.84579C50.8417 5.84579 51.3203 5.92844 51.7421 6.09249C52.164 6.25778 52.5266 6.48597 52.8325 6.77954C53.1384 7.07311 53.3703 7.42095 53.5294 7.82429H53.6577L53.749 6.02835H55.9483V15.7765H53.6577V13.9621H53.5294C53.2975 14.5603 52.9004 15.0401 52.3379 15.4003C51.7754 15.7605 51.0982 15.9406 50.3039 15.9406V15.9418ZM51.1649 14.0731C51.715 14.0731 52.1701 13.9448 52.5303 13.6882C52.8905 13.4317 53.1631 13.0986 53.3456 12.6904C53.5294 12.2808 53.6207 11.8504 53.6207 11.3989V10.3912C53.6207 9.92737 53.5294 9.48949 53.3456 9.08121C53.1619 8.67169 52.8905 8.34235 52.5303 8.09196C52.1701 7.84156 51.715 7.71698 51.1649 7.71698C50.6764 7.71698 50.2484 7.83293 49.882 8.06482C49.5157 8.29672 49.2283 8.64826 49.0211 9.11821C48.8138 9.58817 48.7102 10.1839 48.7102 10.9043C48.7102 11.6012 48.8138 12.1871 49.0211 12.6632C49.2283 13.1393 49.5157 13.4934 49.882 13.7265C50.2484 13.9584 50.6764 14.0743 51.1649 14.0743V14.0731ZM58.4029 15.7765V2.41796H60.6935V15.7765H58.4029ZM67.2173 15.9418C66.2281 15.9418 65.3881 15.7371 64.6973 15.3275C64.0066 14.918 63.4787 14.3383 63.1123 13.5871C62.746 12.8359 62.5622 11.9589 62.5622 10.9573C62.5622 9.91874 62.746 9.0183 63.1123 8.25478C63.4787 7.49125 64.0041 6.90165 64.6887 6.48597C65.3733 6.07029 66.1849 5.86306 67.1261 5.86306C68.2017 5.86306 69.0836 6.09866 69.7743 6.56861C70.4651 7.03857 70.9622 7.68984 71.2681 8.51998C71.574 9.35011 71.6776 10.3036 71.5789 11.3779H64.7985C64.7985 12.0008 64.8996 12.5238 65.1007 12.9445C65.3017 13.3663 65.583 13.6833 65.9432 13.8967C66.3033 14.1101 66.7276 14.2174 67.2173 14.2174C67.7909 14.2174 68.2683 14.0805 68.6469 13.8054C69.0256 13.5304 69.2698 13.1727 69.3796 12.7335H71.5234C71.4506 13.3934 71.2175 13.9645 70.8265 14.4468C70.4355 14.9291 69.9285 15.2992 69.3056 15.5557C68.6827 15.8123 67.9858 15.9406 67.2173 15.9406V15.9418ZM64.7985 10.1519L64.5974 9.9138H69.5634L69.3439 10.1704C69.3685 9.57213 69.2883 9.08367 69.1058 8.705C68.922 8.32632 68.6605 8.04509 68.3176 7.86253C67.9759 7.67874 67.5787 7.58746 67.1261 7.58746C66.6623 7.58746 66.2589 7.68491 65.9172 7.88103C65.5756 8.07716 65.3067 8.36702 65.1106 8.75187C64.9157 9.13671 64.8108 9.6042 64.7985 10.1543V10.1519ZM77.0025 15.9603C76.1354 15.9603 75.3904 15.8234 74.7675 15.5483C74.1446 15.2733 73.6647 14.8921 73.3292 14.4024C72.9937 13.914 72.826 13.3453 72.826 12.6978H75.0795C75.0919 13.2602 75.2806 13.6685 75.6469 13.9251C76.0133 14.1816 76.4894 14.3099 77.0765 14.3099C77.6501 14.3099 78.088 14.2026 78.3865 13.9892C78.6862 13.7758 78.8355 13.4786 78.8355 13.0999C78.8355 12.794 78.7676 12.5596 78.6344 12.3943C78.5 12.229 78.2804 12.1008 77.9745 12.0095C77.6686 11.9182 77.2665 11.8356 76.7657 11.7616C75.9467 11.6394 75.2633 11.4717 74.7132 11.2571C74.1631 11.0437 73.7548 10.7464 73.4859 10.3677C73.217 9.98905 73.0825 9.48826 73.0825 8.86535C73.0825 8.25478 73.2478 7.72315 73.5771 7.2717C73.9065 6.82024 74.3715 6.4687 74.9697 6.2183C75.568 5.96791 76.2711 5.84333 77.0765 5.84333C77.8586 5.84333 78.5394 5.96791 79.1192 6.2183C79.6989 6.4687 80.1516 6.82271 80.4748 7.28156C80.7992 7.74042 80.9669 8.28685 80.9793 8.92209H78.7257C78.7257 8.58041 78.6554 8.30165 78.5148 8.08826C78.3741 7.87487 78.1756 7.71821 77.919 7.62077C77.6624 7.52332 77.3627 7.47399 77.021 7.47399C76.5079 7.47399 76.1045 7.5813 75.8122 7.79469C75.5186 8.00931 75.3719 8.29918 75.3719 8.66553C75.3719 8.93442 75.4483 9.15152 75.6013 9.31557C75.7542 9.48085 76.0009 9.6116 76.3438 9.70905C76.6855 9.80649 77.1259 9.89284 77.6637 9.96561C78.2496 10.0507 78.7602 10.1617 79.1932 10.2949C79.6274 10.4294 79.99 10.6095 80.2836 10.8352C80.5771 11.0609 80.7992 11.3422 80.9521 11.6777C81.1051 12.0132 81.1815 12.4202 81.1815 12.8964C81.1815 13.8733 80.8004 14.6282 80.0356 15.1598C79.2721 15.6914 78.2619 15.9566 77.0025 15.9566V15.9603ZM82.1881 18.8368V16.9496H83.2698C83.5634 16.9496 83.8076 16.9126 84.0025 16.8398C84.1974 16.767 84.3627 16.6511 84.4971 16.4919C84.6316 16.3328 84.7414 16.1318 84.8265 15.8875L85.3581 14.5134V15.5397L81.3814 6.02958H83.8915L85.8885 11.6L86.2548 12.699H86.3461L86.6754 11.6L88.5627 6.02958H91L87.0603 16.4192C86.8407 17.0421 86.5681 17.5305 86.245 17.8858C85.9206 18.2398 85.5493 18.4877 85.1274 18.6283C84.7056 18.7689 84.227 18.8393 83.6892 18.8393H82.1868L82.1881 18.8368Z" fill="white"/>
<path fill-rule="evenodd" clip-rule="evenodd" d="M6.00207 0.13815L0.133179 6.00827V12.0153H6.00207L18.0186 0L6.00207 0.13815Z" fill="#00AAFF"/>
<path fill-rule="evenodd" clip-rule="evenodd" d="M5.87012 12.0893L0 17.9594V23.9665H5.87012L17.8854 11.9512L5.87012 12.0893Z" fill="#7646FF"/>
<path fill-rule="evenodd" clip-rule="evenodd" d="M27.783 15.9418C26.7938 15.9418 25.8921 15.7864 25.0805 15.4743C24.2676 15.1635 23.5695 14.7108 22.9823 14.1187C22.5124 13.6438 22.1288 13.09 21.8327 12.4548L23.7866 10.5009C23.831 10.7279 23.8865 10.945 23.9543 11.1497C24.1492 11.7418 24.4243 12.2401 24.7783 12.6435C25.1323 13.0468 25.5628 13.349 26.0697 13.5501C26.5767 13.7512 27.1478 13.8523 27.783 13.8523C28.4306 13.8523 29.0104 13.7425 29.5235 13.523C30.0366 13.3034 30.4646 12.995 30.8063 12.5979C31.148 12.2007 31.3688 11.7394 31.4662 11.2151H33.9406C33.8308 12.1674 33.4977 12.9987 32.9415 13.7068C32.3852 14.4148 31.6685 14.9649 30.7878 15.3559C29.9083 15.7469 28.9067 15.9418 27.783 15.9418ZM21.2197 10.269C21.1741 9.89284 21.1506 9.49936 21.1506 9.08861C21.1506 8.02535 21.3098 7.0731 21.6268 6.23064C21.9438 5.38817 22.3964 4.67029 22.9823 4.07699C23.5683 3.48492 24.2676 3.03223 25.0805 2.72139C25.8934 2.41056 26.7938 2.25391 27.783 2.25391C28.9067 2.25391 29.9083 2.4488 30.7878 2.83981C31.6673 3.23082 32.379 3.77725 32.9229 4.48033C33.4669 5.18218 33.8061 6.00985 33.9406 6.96333H31.4662C31.3564 6.43786 31.1332 5.98024 30.7977 5.58923C30.4622 5.19822 30.0403 4.89232 29.5333 4.67276C29.0264 4.4532 28.443 4.34342 27.783 4.34342C26.9406 4.34342 26.2104 4.52351 25.5936 4.88368C24.9769 5.24386 24.5008 5.77795 24.164 6.4872C23.8285 7.19522 23.6595 8.06359 23.6595 9.08984C23.6595 9.49936 23.6867 9.88297 23.7397 10.2407L21.2185 10.269H21.2197ZM40.1524 15.9418C39.4197 15.9418 38.7598 15.8283 38.1739 15.6026C37.588 15.3769 37.0773 15.0438 36.6444 14.6035C36.2102 14.1644 35.8808 13.6327 35.6551 13.0098C35.4294 12.3869 35.3159 11.6838 35.3159 10.9031C35.3159 9.90147 35.5083 9.022 35.8932 8.26465C36.278 7.50729 36.8306 6.91522 37.551 6.4872C38.2713 6.05919 39.1397 5.84579 40.1524 5.84579C40.8727 5.84579 41.5265 5.96174 42.1136 6.19364C42.6995 6.42553 43.204 6.76103 43.6258 7.20139C44.0477 7.64174 44.3746 8.16967 44.6065 8.78641C44.8383 9.40314 44.9543 10.1087 44.9543 10.9031C44.9543 11.8923 44.7619 12.7656 44.377 13.523C43.9922 14.2803 43.442 14.8724 42.7279 15.3004C42.0137 15.7284 41.1552 15.9418 40.1536 15.9418H40.1524ZM40.1339 14.0546C40.6347 14.0546 41.075 13.9349 41.4537 13.6969C41.8324 13.4588 42.1259 13.1048 42.3332 12.6336C42.5404 12.1637 42.6452 11.5864 42.6452 10.9018C42.6452 10.3887 42.5872 9.93354 42.4713 9.53636C42.3554 9.13918 42.1876 8.80614 41.968 8.53724C41.7485 8.26835 41.4858 8.06729 41.1798 7.93284C40.8739 7.79839 40.5323 7.73178 40.1536 7.73178C39.6528 7.73178 39.21 7.85143 38.8251 8.08949C38.4403 8.32755 38.1443 8.68156 37.9358 9.15275C37.7286 9.6227 37.625 10.2061 37.625 10.9031C37.625 11.4162 37.6829 11.8713 37.7989 12.2685C37.9148 12.6657 38.0826 12.995 38.3034 13.2578C38.5229 13.5205 38.7894 13.7191 39.1002 13.8535C39.411 13.988 39.7564 14.0546 40.1351 14.0546H40.1339ZM50.3039 15.9418C49.718 15.9418 49.1827 15.8345 48.7004 15.6211C48.2181 15.4077 47.8024 15.087 47.4546 14.659C47.1067 14.231 46.8403 13.703 46.6577 13.074C46.4739 12.4449 46.3827 11.7208 46.3827 10.9031C46.3827 9.79169 46.5442 8.86041 46.8687 8.10799C47.1931 7.3568 47.6507 6.79187 48.2427 6.41319C48.8348 6.03452 49.5231 5.84579 50.3039 5.84579C50.8417 5.84579 51.3203 5.92844 51.7421 6.09249C52.164 6.25778 52.5266 6.48597 52.8325 6.77954C53.1384 7.07311 53.3703 7.42095 53.5294 7.82429H53.6577L53.749 6.02835H55.9483V15.7765H53.6577V13.9621H53.5294C53.2975 14.5603 52.9004 15.0401 52.3379 15.4003C51.7754 15.7605 51.0982 15.9406 50.3039 15.9406V15.9418ZM51.1649 14.0731C51.715 14.0731 52.1701 13.9448 52.5303 13.6882C52.8905 13.4317 53.1631 13.0986 53.3456 12.6904C53.5294 12.2808 53.6207 11.8504 53.6207 11.3989V10.3912C53.6207 9.92737 53.5294 9.48949 53.3456 9.08121C53.1619 8.67169 52.8905 8.34235 52.5303 8.09196C52.1701 7.84156 51.715 7.71698 51.1649 7.71698C50.6764 7.71698 50.2484 7.83293 49.882 8.06482C49.5157 8.29672 49.2283 8.64826 49.0211 9.11821C48.8138 9.58817 48.7102 10.1839 48.7102 10.9043C48.7102 11.6012 48.8138 12.1871 49.0211 12.6632C49.2283 13.1393 49.5157 13.4934 49.882 13.7265C50.2484 13.9584 50.6764 14.0743 51.1649 14.0743V14.0731ZM58.4029 15.7765V2.41796H60.6935V15.7765H58.4029ZM67.2173 15.9418C66.2281 15.9418 65.3881 15.7371 64.6973 15.3275C64.0066 14.918 63.4787 14.3383 63.1123 13.5871C62.746 12.8359 62.5622 11.9589 62.5622 10.9573C62.5622 9.91874 62.746 9.0183 63.1123 8.25478C63.4787 7.49125 64.0041 6.90165 64.6887 6.48597C65.3733 6.07029 66.1849 5.86306 67.1261 5.86306C68.2017 5.86306 69.0836 6.09866 69.7743 6.56861C70.4651 7.03857 70.9622 7.68984 71.2681 8.51998C71.574 9.35011 71.6776 10.3036 71.5789 11.3779H64.7985C64.7985 12.0008 64.8996 12.5238 65.1007 12.9445C65.3017 13.3663 65.583 13.6833 65.9432 13.8967C66.3033 14.1101 66.7276 14.2174 67.2173 14.2174C67.7909 14.2174 68.2683 14.0805 68.6469 13.8054C69.0256 13.5304 69.2698 13.1727 69.3796 12.7335H71.5234C71.4506 13.3934 71.2175 13.9645 70.8265 14.4468C70.4355 14.9291 69.9285 15.2992 69.3056 15.5557C68.6827 15.8123 67.9858 15.9406 67.2173 15.9406V15.9418ZM64.7985 10.1519L64.5974 9.9138H69.5634L69.3439 10.1704C69.3685 9.57213 69.2883 9.08367 69.1058 8.705C68.922 8.32632 68.6605 8.04509 68.3176 7.86253C67.9759 7.67874 67.5787 7.58746 67.1261 7.58746C66.6623 7.58746 66.2589 7.68491 65.9172 7.88103C65.5756 8.07716 65.3067 8.36702 65.1106 8.75187C64.9157 9.13671 64.8108 9.6042 64.7985 10.1543V10.1519ZM77.0025 15.9603C76.1354 15.9603 75.3904 15.8234 74.7675 15.5483C74.1446 15.2733 73.6647 14.8921 73.3292 14.4024C72.9937 13.914 72.826 13.3453 72.826 12.6978H75.0795C75.0919 13.2602 75.2806 13.6685 75.6469 13.9251C76.0133 14.1816 76.4894 14.3099 77.0765 14.3099C77.6501 14.3099 78.088 14.2026 78.3865 13.9892C78.6862 13.7758 78.8355 13.4786 78.8355 13.0999C78.8355 12.794 78.7676 12.5596 78.6344 12.3943C78.5 12.229 78.2804 12.1008 77.9745 12.0095C77.6686 11.9182 77.2665 11.8356 76.7657 11.7616C75.9467 11.6394 75.2633 11.4717 74.7132 11.2571C74.1631 11.0437 73.7548 10.7464 73.4859 10.3677C73.217 9.98905 73.0825 9.48826 73.0825 8.86535C73.0825 8.25478 73.2478 7.72315 73.5771 7.2717C73.9065 6.82024 74.3715 6.4687 74.9697 6.2183C75.568 5.96791 76.2711 5.84333 77.0765 5.84333C77.8586 5.84333 78.5394 5.96791 79.1192 6.2183C79.6989 6.4687 80.1516 6.82271 80.4748 7.28156C80.7992 7.74042 80.9669 8.28685 80.9793 8.92209H78.7257C78.7257 8.58041 78.6554 8.30165 78.5148 8.08826C78.3741 7.87487 78.1756 7.71821 77.919 7.62077C77.6624 7.52332 77.3627 7.47399 77.021 7.47399C76.5079 7.47399 76.1045 7.5813 75.8122 7.79469C75.5186 8.00931 75.3719 8.29918 75.3719 8.66553C75.3719 8.93442 75.4483 9.15152 75.6013 9.31557C75.7542 9.48085 76.0009 9.6116 76.3438 9.70905C76.6855 9.80649 77.1259 9.89284 77.6637 9.96561C78.2496 10.0507 78.7602 10.1617 79.1932 10.2949C79.6274 10.4294 79.99 10.6095 80.2836 10.8352C80.5771 11.0609 80.7992 11.3422 80.9521 11.6777C81.1051 12.0132 81.1815 12.4202 81.1815 12.8964C81.1815 13.8733 80.8004 14.6282 80.0356 15.1598C79.2721 15.6914 78.2619 15.9566 77.0025 15.9566V15.9603ZM82.1881 18.8368V16.9496H83.2698C83.5634 16.9496 83.8076 16.9126 84.0025 16.8398C84.1974 16.767 84.3627 16.6511 84.4971 16.4919C84.6316 16.3328 84.7414 16.1318 84.8265 15.8875L85.3581 14.5134V15.5397L81.3814 6.02958H83.8915L85.8885 11.6L86.2548 12.699H86.3461L86.6754 11.6L88.5627 6.02958H91L87.0603 16.4192C86.8407 17.0421 86.5681 17.5305 86.245 17.8858C85.9206 18.2398 85.5493 18.4877 85.1274 18.6283C84.7056 18.7689 84.227 18.8393 83.6892 18.8393H82.1868L82.1881 18.8368Z" fill="white"/>
<path fill-rule="evenodd" clip-rule="evenodd" d="M6.00207 0.13815L0.133179 6.00827V12.0153H6.00207L18.0186 0L6.00207 0.13815Z" fill="#00AAFF"/>
<path fill-rule="evenodd" clip-rule="evenodd" d="M5.87012 12.0893L0 17.9594V23.9665H5.87012L17.8854 11.9512L5.87012 12.0893Z" fill="#7646FF"/>
<path fill-rule="evenodd" clip-rule="evenodd" d="M27.783 15.9418C26.7938 15.9418 25.8921 15.7864 25.0805 15.4743C24.2676 15.1635 23.5695 14.7108 22.9823 14.1187C22.5124 13.6438 22.1288 13.09 21.8327 12.4548L23.7866 10.5009C23.831 10.7279 23.8865 10.945 23.9543 11.1497C24.1492 11.7418 24.4243 12.2401 24.7783 12.6435C25.1323 13.0468 25.5628 13.349 26.0697 13.5501C26.5767 13.7512 27.1478 13.8523 27.783 13.8523C28.4306 13.8523 29.0104 13.7425 29.5235 13.523C30.0366 13.3034 30.4646 12.995 30.8063 12.5979C31.148 12.2007 31.3688 11.7394 31.4662 11.2151H33.9406C33.8308 12.1674 33.4977 12.9987 32.9415 13.7068C32.3852 14.4148 31.6685 14.9649 30.7878 15.3559C29.9083 15.7469 28.9067 15.9418 27.783 15.9418ZM21.2197 10.269C21.1741 9.89284 21.1506 9.49936 21.1506 9.08861C21.1506 8.02535 21.3098 7.0731 21.6268 6.23064C21.9438 5.38817 22.3964 4.67029 22.9823 4.07699C23.5683 3.48492 24.2676 3.03223 25.0805 2.72139C25.8934 2.41056 26.7938 2.25391 27.783 2.25391C28.9067 2.25391 29.9083 2.4488 30.7878 2.83981C31.6673 3.23082 32.379 3.77725 32.9229 4.48033C33.4669 5.18218 33.8061 6.00985 33.9406 6.96333H31.4662C31.3564 6.43786 31.1332 5.98024 30.7977 5.58923C30.4622 5.19822 30.0403 4.89232 29.5333 4.67276C29.0264 4.4532 28.443 4.34342 27.783 4.34342C26.9406 4.34342 26.2104 4.52351 25.5936 4.88368C24.9769 5.24386 24.5008 5.77795 24.164 6.4872C23.8285 7.19522 23.6595 8.06359 23.6595 9.08984C23.6595 9.49936 23.6867 9.88297 23.7397 10.2407L21.2185 10.269H21.2197ZM40.1524 15.9418C39.4197 15.9418 38.7598 15.8283 38.1739 15.6026C37.588 15.3769 37.0773 15.0438 36.6444 14.6035C36.2102 14.1644 35.8808 13.6327 35.6551 13.0098C35.4294 12.3869 35.3159 11.6838 35.3159 10.9031C35.3159 9.90147 35.5083 9.022 35.8932 8.26465C36.278 7.50729 36.8306 6.91522 37.551 6.4872C38.2713 6.05919 39.1397 5.84579 40.1524 5.84579C40.8727 5.84579 41.5265 5.96174 42.1136 6.19364C42.6995 6.42553 43.204 6.76103 43.6258 7.20139C44.0477 7.64174 44.3746 8.16967 44.6065 8.78641C44.8383 9.40314 44.9543 10.1087 44.9543 10.9031C44.9543 11.8923 44.7619 12.7656 44.377 13.523C43.9922 14.2803 43.442 14.8724 42.7279 15.3004C42.0137 15.7284 41.1552 15.9418 40.1536 15.9418H40.1524ZM40.1339 14.0546C40.6347 14.0546 41.075 13.9349 41.4537 13.6969C41.8324 13.4588 42.1259 13.1048 42.3332 12.6336C42.5404 12.1637 42.6452 11.5864 42.6452 10.9018C42.6452 10.3887 42.5872 9.93354 42.4713 9.53636C42.3554 9.13918 42.1876 8.80614 41.968 8.53724C41.7485 8.26835 41.4858 8.06729 41.1798 7.93284C40.8739 7.79839 40.5323 7.73178 40.1536 7.73178C39.6528 7.73178 39.21 7.85143 38.8251 8.08949C38.4403 8.32755 38.1443 8.68156 37.9358 9.15275C37.7286 9.6227 37.625 10.2061 37.625 10.9031C37.625 11.4162 37.6829 11.8713 37.7989 12.2685C37.9148 12.6657 38.0826 12.995 38.3034 13.2578C38.5229 13.5205 38.7894 13.7191 39.1002 13.8535C39.411 13.988 39.7564 14.0546 40.1351 14.0546H40.1339ZM50.3039 15.9418C49.718 15.9418 49.1827 15.8345 48.7004 15.6211C48.2181 15.4077 47.8024 15.087 47.4546 14.659C47.1067 14.231 46.8403 13.703 46.6577 13.074C46.4739 12.4449 46.3827 11.7208 46.3827 10.9031C46.3827 9.79169 46.5442 8.86041 46.8687 8.10799C47.1931 7.3568 47.6507 6.79187 48.2427 6.41319C48.8348 6.03452 49.5231 5.84579 50.3039 5.84579C50.8417 5.84579 51.3203 5.92844 51.7421 6.09249C52.164 6.25778 52.5266 6.48597 52.8325 6.77954C53.1384 7.07311 53.3703 7.42095 53.5294 7.82429H53.6577L53.749 6.02835H55.9483V15.7765H53.6577V13.9621H53.5294C53.2975 14.5603 52.9004 15.0401 52.3379 15.4003C51.7754 15.7605 51.0982 15.9406 50.3039 15.9406V15.9418ZM51.1649 14.0731C51.715 14.0731 52.1701 13.9448 52.5303 13.6882C52.8905 13.4317 53.1631 13.0986 53.3456 12.6904C53.5294 12.2808 53.6207 11.8504 53.6207 11.3989V10.3912C53.6207 9.92737 53.5294 9.48949 53.3456 9.08121C53.1619 8.67169 52.8905 8.34235 52.5303 8.09196C52.1701 7.84156 51.715 7.71698 51.1649 7.71698C50.6764 7.71698 50.2484 7.83293 49.882 8.06482C49.5157 8.29672 49.2283 8.64826 49.0211 9.11821C48.8138 9.58817 48.7102 10.1839 48.7102 10.9043C48.7102 11.6012 48.8138 12.1871 49.0211 12.6632C49.2283 13.1393 49.5157 13.4934 49.882 13.7265C50.2484 13.9584 50.6764 14.0743 51.1649 14.0743V14.0731ZM58.4029 15.7765V2.41796H60.6935V15.7765H58.4029ZM67.2173 15.9418C66.2281 15.9418 65.3881 15.7371 64.6973 15.3275C64.0066 14.918 63.4787 14.3383 63.1123 13.5871C62.746 12.8359 62.5622 11.9589 62.5622 10.9573C62.5622 9.91874 62.746 9.0183 63.1123 8.25478C63.4787 7.49125 64.0041 6.90165 64.6887 6.48597C65.3733 6.07029 66.1849 5.86306 67.1261 5.86306C68.2017 5.86306 69.0836 6.09866 69.7743 6.56861C70.4651 7.03857 70.9622 7.68984 71.2681 8.51998C71.574 9.35011 71.6776 10.3036 71.5789 11.3779H64.7985C64.7985 12.0008 64.8996 12.5238 65.1007 12.9445C65.3017 13.3663 65.583 13.6833 65.9432 13.8967C66.3033 14.1101 66.7276 14.2174 67.2173 14.2174C67.7909 14.2174 68.2683 14.0805 68.6469 13.8054C69.0256 13.5304 69.2698 13.1727 69.3796 12.7335H71.5234C71.4506 13.3934 71.2175 13.9645 70.8265 14.4468C70.4355 14.9291 69.9285 15.2992 69.3056 15.5557C68.6827 15.8123 67.9858 15.9406 67.2173 15.9406V15.9418ZM64.7985 10.1519L64.5974 9.9138H69.5634L69.3439 10.1704C69.3685 9.57213 69.2883 9.08367 69.1058 8.705C68.922 8.32632 68.6605 8.04509 68.3176 7.86253C67.9759 7.67874 67.5787 7.58746 67.1261 7.58746C66.6623 7.58746 66.2589 7.68491 65.9172 7.88103C65.5756 8.07716 65.3067 8.36702 65.1106 8.75187C64.9157 9.13671 64.8108 9.6042 64.7985 10.1543V10.1519ZM77.0025 15.9603C76.1354 15.9603 75.3904 15.8234 74.7675 15.5483C74.1446 15.2733 73.6647 14.8921 73.3292 14.4024C72.9937 13.914 72.826 13.3453 72.826 12.6978H75.0795C75.0919 13.2602 75.2806 13.6685 75.6469 13.9251C76.0133 14.1816 76.4894 14.3099 77.0765 14.3099C77.6501 14.3099 78.088 14.2026 78.3865 13.9892C78.6862 13.7758 78.8355 13.4786 78.8355 13.0999C78.8355 12.794 78.7676 12.5596 78.6344 12.3943C78.5 12.229 78.2804 12.1008 77.9745 12.0095C77.6686 11.9182 77.2665 11.8356 76.7657 11.7616C75.9467 11.6394 75.2633 11.4717 74.7132 11.2571C74.1631 11.0437 73.7548 10.7464 73.4859 10.3677C73.217 9.98905 73.0825 9.48826 73.0825 8.86535C73.0825 8.25478 73.2478 7.72315 73.5771 7.2717C73.9065 6.82024 74.3715 6.4687 74.9697 6.2183C75.568 5.96791 76.2711 5.84333 77.0765 5.84333C77.8586 5.84333 78.5394 5.96791 79.1192 6.2183C79.6989 6.4687 80.1516 6.82271 80.4748 7.28156C80.7992 7.74042 80.9669 8.28685 80.9793 8.92209H78.7257C78.7257 8.58041 78.6554 8.30165 78.5148 8.08826C78.3741 7.87487 78.1756 7.71821 77.919 7.62077C77.6624 7.52332 77.3627 7.47399 77.021 7.47399C76.5079 7.47399 76.1045 7.5813 75.8122 7.79469C75.5186 8.00931 75.3719 8.29918 75.3719 8.66553C75.3719 8.93442 75.4483 9.15152 75.6013 9.31557C75.7542 9.48085 76.0009 9.6116 76.3438 9.70905C76.6855 9.80649 77.1259 9.89284 77.6637 9.96561C78.2496 10.0507 78.7602 10.1617 79.1932 10.2949C79.6274 10.4294 79.99 10.6095 80.2836 10.8352C80.5771 11.0609 80.7992 11.3422 80.9521 11.6777C81.1051 12.0132 81.1815 12.4202 81.1815 12.8964C81.1815 13.8733 80.8004 14.6282 80.0356 15.1598C79.2721 15.6914 78.2619 15.9566 77.0025 15.9566V15.9603ZM82.1881 18.8368V16.9496H83.2698C83.5634 16.9496 83.8076 16.9126 84.0025 16.8398C84.1974 16.767 84.3627 16.6511 84.4971 16.4919C84.6316 16.3328 84.7414 16.1318 84.8265 15.8875L85.3581 14.5134V15.5397L81.3814 6.02958H83.8915L85.8885 11.6L86.2548 12.699H86.3461L86.6754 11.6L88.5627 6.02958H91L87.0603 16.4192C86.8407 17.0421 86.5681 17.5305 86.245 17.8858C85.9206 18.2398 85.5493 18.4877 85.1274 18.6283C84.7056 18.7689 84.227 18.8393 83.6892 18.8393H82.1868L82.1881 18.8368Z" fill="white"/>
<path fill-rule="evenodd" clip-rule="evenodd" d="M6.00207 0.13815L0.133179 6.00827V12.0153H6.00207L18.0186 0L6.00207 0.13815Z" fill="#00AAFF"/>
<path fill-rule="evenodd" clip-rule="evenodd" d="M5.87012 12.0893L0 17.9594V23.9665H5.87012L17.8854 11.9512L5.87012 12.0893Z" fill="#7646FF"/>
<path fill-rule="evenodd" clip-rule="evenodd" d="M27.783 15.9418C26.7938 15.9418 25.8921 15.7864 25.0805 15.4743C24.2676 15.1635 23.5695 14.7108 22.9823 14.1187C22.5124 13.6438 22.1288 13.09 21.8327 12.4548L23.7866 10.5009C23.831 10.7279 23.8865 10.945 23.9543 11.1497C24.1492 11.7418 24.4243 12.2401 24.7783 12.6435C25.1323 13.0468 25.5628 13.349 26.0697 13.5501C26.5767 13.7512 27.1478 13.8523 27.783 13.8523C28.4306 13.8523 29.0104 13.7425 29.5235 13.523C30.0366 13.3034 30.4646 12.995 30.8063 12.5979C31.148 12.2007 31.3688 11.7394 31.4662 11.2151H33.9406C33.8308 12.1674 33.4977 12.9987 32.9415 13.7068C32.3852 14.4148 31.6685 14.9649 30.7878 15.3559C29.9083 15.7469 28.9067 15.9418 27.783 15.9418ZM21.2197 10.269C21.1741 9.89284 21.1506 9.49936 21.1506 9.08861C21.1506 8.02535 21.3098 7.0731 21.6268 6.23064C21.9438 5.38817 22.3964 4.67029 22.9823 4.07699C23.5683 3.48492 24.2676 3.03223 25.0805 2.72139C25.8934 2.41056 26.7938 2.25391 27.783 2.25391C28.9067 2.25391 29.9083 2.4488 30.7878 2.83981C31.6673 3.23082 32.379 3.77725 32.9229 4.48033C33.4669 5.18218 33.8061 6.00985 33.9406 6.96333H31.4662C31.3564 6.43786 31.1332 5.98024 30.7977 5.58923C30.4622 5.19822 30.0403 4.89232 29.5333 4.67276C29.0264 4.4532 28.443 4.34342 27.783 4.34342C26.9406 4.34342 26.2104 4.52351 25.5936 4.88368C24.9769 5.24386 24.5008 5.77795 24.164 6.4872C23.8285 7.19522 23.6595 8.06359 23.6595 9.08984C23.6595 9.49936 23.6867 9.88297 23.7397 10.2407L21.2185 10.269H21.2197ZM40.1524 15.9418C39.4197 15.9418 38.7598 15.8283 38.1739 15.6026C37.588 15.3769 37.0773 15.0438 36.6444 14.6035C36.2102 14.1644 35.8808 13.6327 35.6551 13.0098C35.4294 12.3869 35.3159 11.6838 35.3159 10.9031C35.3159 9.90147 35.5083 9.022 35.8932 8.26465C36.278 7.50729 36.8306 6.91522 37.551 6.4872C38.2713 6.05919 39.1397 5.84579 40.1524 5.84579C40.8727 5.84579 41.5265 5.96174 42.1136 6.19364C42.6995 6.42553 43.204 6.76103 43.6258 7.20139C44.0477 7.64174 44.3746 8.16967 44.6065 8.78641C44.8383 9.40314 44.9543 10.1087 44.9543 10.9031C44.9543 11.8923 44.7619 12.7656 44.377 13.523C43.9922 14.2803 43.442 14.8724 42.7279 15.3004C42.0137 15.7284 41.1552 15.9418 40.1536 15.9418H40.1524ZM40.1339 14.0546C40.6347 14.0546 41.075 13.9349 41.4537 13.6969C41.8324 13.4588 42.1259 13.1048 42.3332 12.6336C42.5404 12.1637 42.6452 11.5864 42.6452 10.9018C42.6452 10.3887 42.5872 9.93354 42.4713 9.53636C42.3554 9.13918 42.1876 8.80614 41.968 8.53724C41.7485 8.26835 41.4858 8.06729 41.1798 7.93284C40.8739 7.79839 40.5323 7.73178 40.1536 7.73178C39.6528 7.73178 39.21 7.85143 38.8251 8.08949C38.4403 8.32755 38.1443 8.68156 37.9358 9.15275C37.7286 9.6227 37.625 10.2061 37.625 10.9031C37.625 11.4162 37.6829 11.8713 37.7989 12.2685C37.9148 12.6657 38.0826 12.995 38.3034 13.2578C38.5229 13.5205 38.7894 13.7191 39.1002 13.8535C39.411 13.988 39.7564 14.0546 40.1351 14.0546H40.1339ZM50.3039 15.9418C49.718 15.9418 49.1827 15.8345 48.7004 15.6211C48.2181 15.4077 47.8024 15.087 47.4546 14.659C47.1067 14.231 46.8403 13.703 46.6577 13.074C46.4739 12.4449 46.3827 11.7208 46.3827 10.9031C46.3827 9.79169 46.5442 8.86041 46.8687 8.10799C47.1931 7.3568 47.6507 6.79187 48.2427 6.41319C48.8348 6.03452 49.5231 5.84579 50.3039 5.84579C50.8417 5.84579 51.3203 5.92844 51.7421 6.09249C52.164 6.25778 52.5266 6.48597 52.8325 6.77954C53.1384 7.07311 53.3703 7.42095 53.5294 7.82429H53.6577L53.749 6.02835H55.9483V15.7765H53.6577V13.9621H53.5294C53.2975 14.5603 52.9004 15.0401 52.3379 15.4003C51.7754 15.7605 51.0982 15.9406 50.3039 15.9406V15.9418ZM51.1649 14.0731C51.715 14.0731 52.1701 13.9448 52.5303 13.6882C52.8905 13.4317 53.1631 13.0986 53.3456 12.6904C53.5294 12.2808 53.6207 11.8504 53.6207 11.3989V10.3912C53.6207 9.92737 53.5294 9.48949 53.3456 9.08121C53.1619 8.67169 52.8905 8.34235 52.5303 8.09196C52.1701 7.84156 51.715 7.71698 51.1649 7.71698C50.6764 7.71698 50.2484 7.83293 49.882 8.06482C49.5157 8.29672 49.2283 8.64826 49.0211 9.11821C48.8138 9.58817 48.7102 10.1839 48.7102 10.9043C48.7102 11.6012 48.8138 12.1871 49.0211 12.6632C49.2283 13.1393 49.5157 13.4934 49.882 13.7265C50.2484 13.9584 50.6764 14.0743 51.1649 14.0743V14.0731ZM58.4029 15.7765V2.41796H60.6935V15.7765H58.4029ZM67.2173 15.9418C66.2281 15.9418 65.3881 15.7371 64.6973 15.3275C64.0066 14.918 63.4787 14.3383 63.1123 13.5871C62.746 12.8359 62.5622 11.9589 62.5622 10.9573C62.5622 9.91874 62.746 9.0183 63.1123 8.25478C63.4787 7.49125 64.0041 6.90165 64.6887 6.48597C65.3733 6.07029 66.1849 5.86306 67.1261 5.86306C68.2017 5.86306 69.0836 6.09866 69.7743 6.56861C70.4651 7.03857 70.9622 7.68984 71.2681 8.51998C71.574 9.35011 71.6776 10.3036 71.5789 11.3779H64.7985C64.7985 12.0008 64.8996 12.5238 65.1007 12.9445C65.3017 13.3663 65.583 13.6833 65.9432 13.8967C66.3033 14.1101 66.7276 14.2174 67.2173 14.2174C67.7909 14.2174 68.2683 14.0805 68.6469 13.8054C69.0256 13.5304 69.2698 13.1727 69.3796 12.7335H71.5234C71.4506 13.3934 71.2175 13.9645 70.8265 14.4468C70.4355 14.9291 69.9285 15.2992 69.3056 15.5557C68.6827 15.8123 67.9858 15.9406 67.2173 15.9406V15.9418ZM64.7985 10.1519L64.5974 9.9138H69.5634L69.3439 10.1704C69.3685 9.57213 69.2883 9.08367 69.1058 8.705C68.922 8.32632 68.6605 8.04509 68.3176 7.86253C67.9759 7.67874 67.5787 7.58746 67.1261 7.58746C66.6623 7.58746 66.2589 7.68491 65.9172 7.88103C65.5756 8.07716 65.3067 8.36702 65.1106 8.75187C64.9157 9.13671 64.8108 9.6042 64.7985 10.1543V10.1519ZM77.0025 15.9603C76.1354 15.9603 75.3904 15.8234 74.7675 15.5483C74.1446 15.2733 73.6647 14.8921 73.3292 14.4024C72.9937 13.914 72.826 13.3453 72.826 12.6978H75.0795C75.0919 13.2602 75.2806 13.6685 75.6469 13.9251C76.0133 14.1816 76.4894 14.3099 77.0765 14.3099C77.6501 14.3099 78.088 14.2026 78.3865 13.9892C78.6862 13.7758 78.8355 13.4786 78.8355 13.0999C78.8355 12.794 78.7676 12.5596 78.6344 12.3943C78.5 12.229 78.2804 12.1008 77.9745 12.0095C77.6686 11.9182 77.2665 11.8356 76.7657 11.7616C75.9467 11.6394 75.2633 11.4717 74.7132 11.2571C74.1631 11.0437 73.7548 10.7464 73.4859 10.3677C73.217 9.98905 73.0825 9.48826 73.0825 8.86535C73.0825 8.25478 73.2478 7.72315 73.5771 7.2717C73.9065 6.82024 74.3715 6.4687 74.9697 6.2183C75.568 5.96791 76.2711 5.84333 77.0765 5.84333C77.8586 5.84333 78.5394 5.96791 79.1192 6.2183C79.6989 6.4687 80.1516 6.82271 80.4748 7.28156C80.7992 7.74042 80.9669 8.28685 80.9793 8.92209H78.7257C78.7257 8.58041 78.6554 8.30165 78.5148 8.08826C78.3741 7.87487 78.1756 7.71821 77.919 7.62077C77.6624 7.52332 77.3627 7.47399 77.021 7.47399C76.5079 7.47399 76.1045 7.5813 75.8122 7.79469C75.5186 8.00931 75.3719 8.29918 75.3719 8.66553C75.3719 8.93442 75.4483 9.15152 75.6013 9.31557C75.7542 9.48085 76.0009 9.6116 76.3438 9.70905C76.6855 9.80649 77.1259 9.89284 77.6637 9.96561C78.2496 10.0507 78.7602 10.1617 79.1932 10.2949C79.6274 10.4294 79.99 10.6095 80.2836 10.8352C80.5771 11.0609 80.7992 11.3422 80.9521 11.6777C81.1051 12.0132 81.1815 12.4202 81.1815 12.8964C81.1815 13.8733 80.8004 14.6282 80.0356 15.1598C79.2721 15.6914 78.2619 15.9566 77.0025 15.9566V15.9603ZM82.1881 18.8368V16.9496H83.2698C83.5634 16.9496 83.8076 16.9126 84.0025 16.8398C84.1974 16.767 84.3627 16.6511 84.4971 16.4919C84.6316 16.3328 84.7414 16.1318 84.8265 15.8875L85.3581 14.5134V15.5397L81.3814 6.02958H83.8915L85.8885 11.6L86.2548 12.699H86.3461L86.6754 11.6L88.5627 6.02958H91L87.0603 16.4192C86.8407 17.0421 86.5681 17.5305 86.245 17.8858C85.9206 18.2398 85.5493 18.4877 85.1274 18.6283C84.7056 18.7689 84.227 18.8393 83.6892 18.8393H82.1868L82.1881 18.8368Z" fill="white"/>
<path fill-rule="evenodd" clip-rule="evenodd" d="M6.00207 0.13815L0.133179 6.00827V12.0153H6.00207L18.0186 0L6.00207 0.13815Z" fill="#FF93FF"/>
<path fill-rule="evenodd" clip-rule="evenodd" d="M5.87012 12.0893L0 17.9594V23.9665H5.87012L17.8854 11.9512L5.87012 12.0893Z" fill="#FF5B96"/>
</svg>
