<svg width="30" height="30" viewBox="0 0 30 30" fill="none" xmlns="http://www.w3.org/2000/svg">
<rect width="30" height="30" rx="2" fill="url(#paint0_linear_92_260)"/>
<path d="M7.47235 13.7466V17.9147C7.47235 20.2726 7.47235 21.4515 8.20458 22.184C8.93682 22.9166 10.1153 22.9166 12.4724 22.9166H17.4724C19.8294 22.9166 21.0079 22.9166 21.7401 22.184C22.4724 21.4515 22.4724 20.2726 22.4724 17.9147V13.7466" stroke="white" stroke-width="1.25" stroke-linecap="round"/>
<path d="M17.4724 19.1611C16.9023 19.6671 15.9947 19.9945 14.9724 19.9945C13.95 19.9945 13.0424 19.6671 12.4724 19.1611" stroke="white" stroke-width="1.25" stroke-linecap="round"/>
<path d="M13.4199 12.0156C13.1849 12.8643 12.3303 14.3282 10.7065 14.5404C9.27279 14.7277 8.1854 14.1019 7.90765 13.8402C7.60142 13.6281 6.90348 12.9492 6.73257 12.5248C6.56164 12.1005 6.76105 11.1811 6.90348 10.8063L7.47288 9.15764C7.61188 8.74354 7.93727 7.76413 8.27086 7.43285C8.60446 7.10158 9.27986 7.08716 9.55785 7.08716H15.3958C16.8984 7.10839 20.1841 7.07376 20.8336 7.08717C21.4831 7.10057 21.8734 7.64502 21.9874 7.8784C22.9564 10.2258 23.3334 11.5701 23.3334 12.1429C23.2069 12.754 22.6834 13.9063 20.8336 14.4132C18.9111 14.9398 17.8212 13.9153 17.4793 13.522M12.6294 13.522C12.9 13.8544 13.7489 14.5235 14.9795 14.5404C16.2102 14.5574 17.2728 13.6988 17.6502 13.2674C17.757 13.1401 17.9878 12.7625 18.2271 12.0156" stroke="white" stroke-width="1.25" stroke-linecap="round" stroke-linejoin="round"/>
<defs>
<linearGradient id="paint0_linear_92_260" x1="0" y1="15" x2="27.2016" y2="15" gradientUnits="userSpaceOnUse">
<stop stop-color="#FF5B96"/>
<stop offset="0.7" stop-color="#FF93FF"/>
<stop offset="0.94" stop-color="#742998"/>
</linearGradient>
</defs>
</svg>
