<svg width="30" height="30" viewBox="0 0 30 30" fill="none" xmlns="http://www.w3.org/2000/svg">
<rect width="30" height="30" rx="2" fill="url(#paint0_linear_92_436)"/>
<path d="M15 23.3335L13.3334 18.3335H6.66669L8.33335 23.3335H15ZM15 23.3335H18.3334" stroke="white" stroke-width="1.25" stroke-linecap="round" stroke-linejoin="round"/>
<path d="M15 15.8335V15.4168C15 13.8455 15 13.0598 14.5118 12.5717C14.0236 12.0835 13.238 12.0835 11.6666 12.0835C10.0953 12.0835 9.30962 12.0835 8.82147 12.5717C8.33331 13.0598 8.33331 13.8455 8.33331 15.4168V15.8335" stroke="white" stroke-width="1.25" stroke-linecap="round" stroke-linejoin="round"/>
<path d="M20.8333 15.8332C20.8333 16.7537 20.0872 17.4998 19.1667 17.4998C18.2462 17.4998 17.5 16.7537 17.5 15.8332C17.5 14.9127 18.2462 14.1665 19.1667 14.1665C20.0872 14.1665 20.8333 14.9127 20.8333 15.8332Z" stroke="white" stroke-width="1.25"/>
<path d="M13.3333 8.33317C13.3333 9.25365 12.5871 9.99984 11.6667 9.99984C10.7462 9.99984 10 9.25365 10 8.33317C10 7.4127 10.7462 6.6665 11.6667 6.6665C12.5871 6.6665 13.3333 7.4127 13.3333 8.33317Z" stroke="white" stroke-width="1.25"/>
<path d="M16.6667 19.5835H21.6667C22.5872 19.5835 23.3334 20.3297 23.3334 21.2502V21.6668C23.3334 22.5873 22.5872 23.3335 21.6667 23.3335H20.8334" stroke="white" stroke-width="1.25" stroke-linecap="round"/>
<defs>
<linearGradient id="paint0_linear_92_436" x1="0" y1="15" x2="27.2016" y2="15" gradientUnits="userSpaceOnUse">
<stop stop-color="#FF5B96"/>
<stop offset="0.7" stop-color="#FF93FF"/>
<stop offset="0.94" stop-color="#742998"/>
</linearGradient>
</defs>
</svg>
