<svg width="11" height="16" viewBox="0 0 11 16" fill="none" xmlns="http://www.w3.org/2000/svg">
<path d="M10.5131 0.8125L8.95588 3.31598L7.38671 5.86737H3.61353L3.6255 5.84342L5.1228 3.43576L6.75186 0.8125H10.5131Z" fill="url(#paint0_linear_904_5098)"/>
<path opacity="0.2" d="M10.0818 0.8125L7.18308 5.48407H4.26036L7.18308 0.8125H6.76384L5.1228 3.43576L3.61353 5.84342H7.37474L8.95588 3.31598L10.525 0.8125H10.0818Z" fill="#424242"/>
<path d="M7.63767 4.41016H3.32546C2.79841 4.41016 2.36719 4.84138 2.36719 5.36843V7.28497C2.36719 7.54849 2.5828 7.7641 2.84632 7.7641C3.10985 7.7641 3.44524 7.54849 3.44524 7.28497V6.08713C3.44524 5.95537 3.55305 5.84756 3.68481 5.84756H7.27832C7.41008 5.84756 7.51789 5.95537 7.51789 6.08713V7.27299C7.51789 7.51256 7.79339 7.71619 8.02098 7.75212C8.05691 7.75212 8.08087 7.7641 8.11681 7.7641C8.38033 7.7641 8.59594 7.54849 8.59594 7.28497V5.36843C8.59594 4.84138 8.16472 4.41016 7.63767 4.41016Z" fill="#FDD835"/>
<path opacity="0.2" d="M7.63767 4.64972C8.03296 4.64972 8.35637 4.97314 8.35637 5.36843V7.28497C8.35637 7.41673 8.24857 7.52453 8.11681 7.52453C8.10483 7.52453 8.08087 7.52453 8.06889 7.52453C7.92515 7.50058 7.75746 7.36882 7.75746 7.27299V6.08713C7.75746 5.8236 7.54185 5.60799 7.27832 5.60799H3.68481C3.42128 5.60799 3.20567 5.8236 3.20567 6.08713V7.28497C3.20567 7.39277 3.01402 7.52453 2.84632 7.52453C2.71456 7.52453 2.60675 7.41673 2.60675 7.28497V5.36843C2.60675 4.97314 2.93017 4.64972 3.32546 4.64972H7.63767ZM7.63767 4.41016H3.32546C2.79841 4.41016 2.36719 4.84138 2.36719 5.36843V7.28497C2.36719 7.54849 2.5828 7.7641 2.84632 7.7641C3.10985 7.7641 3.44524 7.54849 3.44524 7.28497V6.08713C3.44524 5.95537 3.55305 5.84756 3.68481 5.84756H7.27832C7.41008 5.84756 7.51789 5.95537 7.51789 6.08713V7.27299C7.51789 7.51256 7.79339 7.71619 8.02098 7.75212C8.05691 7.75212 8.08087 7.7641 8.11681 7.7641C8.38033 7.7641 8.59594 7.54849 8.59594 7.28497V5.36843C8.59594 4.84138 8.16472 4.41016 7.63767 4.41016Z" fill="#424242"/>
<path d="M7.38709 5.86737H3.61391L0.487549 0.8125H4.26074L7.38709 5.86737Z" fill="url(#paint1_linear_904_5098)"/>
<path opacity="0.2" d="M4.23631 0.8125H3.80509L6.73979 5.48407H3.81706L0.894341 0.8125H0.475098L3.61343 5.84342H7.37464L4.23631 0.8125Z" fill="#424242"/>
<path d="M5.48171 15.1856C7.99559 15.1856 10.0335 13.1477 10.0335 10.6338C10.0335 8.11993 7.99559 6.08203 5.48171 6.08203C2.96783 6.08203 0.929932 8.11993 0.929932 10.6338C0.929932 13.1477 2.96783 15.1856 5.48171 15.1856Z" fill="url(#paint2_radial_904_5098)"/>
<path opacity="0.2" d="M5.48171 6.44138C7.79354 6.44138 9.67415 8.32199 9.67415 10.6338C9.67415 12.9456 7.79354 14.8262 5.48171 14.8262C3.16989 14.8262 1.28928 12.9456 1.28928 10.6338C1.28928 8.32199 3.16989 6.44138 5.48171 6.44138ZM5.48171 6.08203C2.96626 6.08203 0.929932 8.11835 0.929932 10.6338C0.929932 13.1493 2.96626 15.1856 5.48171 15.1856C7.99717 15.1856 10.0335 13.1493 10.0335 10.6338C10.0335 8.11835 7.99717 6.08203 5.48171 6.08203Z" fill="#424242"/>
<path d="M4.09302 8.98146V9.79599L5.2669 9.43664V13.1619H6.24913V8.21484L4.09302 8.98146Z" fill="#FFA000"/>
<defs>
<linearGradient id="paint0_linear_904_5098" x1="8.2588" y1="0.624931" x2="6.4704" y2="4.68643" gradientUnits="userSpaceOnUse">
<stop offset="0.1355" stop-color="#1E88E5"/>
<stop offset="0.938" stop-color="#1565C0"/>
</linearGradient>
<linearGradient id="paint1_linear_904_5098" x1="2.94271" y1="1.11812" x2="5.01524" y2="5.74788" gradientUnits="userSpaceOnUse">
<stop offset="0.1355" stop-color="#64B5F6"/>
<stop offset="0.9462" stop-color="#2196F3"/>
</linearGradient>
<radialGradient id="paint2_radial_904_5098" cx="0" cy="0" r="1" gradientUnits="userSpaceOnUse" gradientTransform="translate(2.96626 7.21996) scale(8.69355)">
<stop offset="0.2972" stop-color="#FFEB3B"/>
<stop offset="0.9544" stop-color="#FBC02D"/>
</radialGradient>
</defs>
</svg>
