<svg width="30" height="30" viewBox="0 0 30 30" fill="none" xmlns="http://www.w3.org/2000/svg">
<rect width="30" height="30" rx="2" fill="url(#paint0_linear_92_429)"/>
<path d="M22.3117 20C22.9361 20 23.4327 19.6071 23.8787 19.0576C24.7916 17.9328 23.2928 17.034 22.7212 16.5938C22.14 16.1463 21.4912 15.8928 20.8333 15.8333M20 14.1667C21.1506 14.1667 22.0833 13.2339 22.0833 12.0833C22.0833 10.9327 21.1506 10 20 10" stroke="white" stroke-width="1.25" stroke-linecap="round"/>
<path d="M7.68828 20C7.06386 20 6.5672 19.6071 6.12127 19.0576C5.20839 17.9328 6.7072 17.034 7.27885 16.5938C7.85995 16.1463 8.50879 15.8928 9.16664 15.8333M9.58331 14.1667C8.43272 14.1667 7.49998 13.2339 7.49998 12.0833C7.49998 10.9327 8.43272 10 9.58331 10" stroke="white" stroke-width="1.25" stroke-linecap="round"/>
<path d="M11.7365 17.5925C10.885 18.119 8.65247 19.1941 10.0122 20.5393C10.6765 21.1965 11.4162 21.6665 12.3463 21.6665H17.6536C18.5837 21.6665 19.3235 21.1965 19.9877 20.5393C21.3475 19.1941 19.115 18.119 18.2635 17.5925C16.2667 16.3578 13.7332 16.3578 11.7365 17.5925Z" stroke="white" stroke-width="1.25" stroke-linecap="round" stroke-linejoin="round"/>
<path d="M17.9166 11.2502C17.9166 12.861 16.6108 14.1668 15 14.1668C13.3891 14.1668 12.0833 12.861 12.0833 11.2502C12.0833 9.63933 13.3891 8.3335 15 8.3335C16.6108 8.3335 17.9166 9.63933 17.9166 11.2502Z" stroke="white" stroke-width="1.25"/>
<defs>
<linearGradient id="paint0_linear_92_429" x1="0" y1="15" x2="27.2016" y2="15" gradientUnits="userSpaceOnUse">
<stop stop-color="#FF5B96"/>
<stop offset="0.7" stop-color="#FF93FF"/>
<stop offset="0.94" stop-color="#742998"/>
</linearGradient>
</defs>
</svg>
