<?xml version="1.0" encoding="UTF-8"?>
<!DOCTYPE svg PUBLIC "-//W3C//DTD SVG 1.1//EN" "http://www.w3.org/Graphics/SVG/1.1/DTD/svg11.dtd">
<svg xmlns="http://www.w3.org/2000/svg" version="1.1" width="25px" height="24px" style="shape-rendering:geometricPrecision; text-rendering:geometricPrecision; image-rendering:optimizeQuality; fill-rule:evenodd; clip-rule:evenodd" xmlns:xlink="http://www.w3.org/1999/xlink">
<g><path style="opacity:0.444" fill="#fefffe" d="M 5.5,1.5 C 8.27757,1.02166 10.2776,2.02166 11.5,4.5C 14.1524,0.97102 17.1524,0.637687 20.5,3.5C 22.41,8.3415 22.91,13.3415 22,18.5C 18.6863,22.3412 15.353,22.3412 12,18.5C 2.78647,23.3241 -0.880193,20.3241 1,9.5C 1.24627,5.99526 2.74627,3.32859 5.5,1.5 Z M 16.5,4.5 C 17.7498,4.57735 18.5831,5.24402 19,6.5C 21.2871,11.1187 20.9538,15.452 18,19.5C 17.3691,18.1281 16.7025,16.7948 16,15.5C 13.1768,16.7705 10.3434,16.7705 7.5,15.5C 5.92715,19.811 4.26048,19.311 2.5,14C 3.36058,10.8632 4.02725,7.69655 4.5,4.5C 7.79731,4.3287 8.13065,4.99536 5.5,6.5C 6.16667,6.83333 6.83333,7.16667 7.5,7.5C 10.3434,6.22947 13.1768,6.22947 16,7.5C 17.6833,6.82352 17.8499,5.82352 16.5,4.5 Z"/></g>
<g><path style="opacity:0.356" fill="#fefffe" d="M 5.5,10.5 C 6.67504,10.281 7.67504,10.6143 8.5,11.5C 6.94835,12.7979 5.94835,12.4646 5.5,10.5 Z"/></g>
<g><path style="opacity:0.348" fill="#fefffe" d="M 14.5,10.5 C 15.675,10.281 16.675,10.6143 17.5,11.5C 15.9483,12.7979 14.9483,12.4646 14.5,10.5 Z"/></g>
</svg>
