<?xml version="1.0" encoding="UTF-8"?>
<!DOCTYPE svg PUBLIC "-//W3C//DTD SVG 1.1//EN" "http://www.w3.org/Graphics/SVG/1.1/DTD/svg11.dtd">
<svg xmlns="http://www.w3.org/2000/svg" version="1.1" width="21px" height="20px" style="shape-rendering:geometricPrecision; text-rendering:geometricPrecision; image-rendering:optimizeQuality; fill-rule:evenodd; clip-rule:evenodd" xmlns:xlink="http://www.w3.org/1999/xlink">
<g><path style="opacity:0.403" fill="#fefffe" d="M 17.5,13.5 C 17.6641,10.8127 17.4974,8.14603 17,5.5C 16.4806,4.48444 15.6473,3.81777 14.5,3.5C 11.5,6.16667 8.5,6.16667 5.5,3.5C 4.83333,3.83333 4.16667,4.16667 3.5,4.5C 2.9149,7.50265 2.24824,10.5027 1.5,13.5C 0.235914,9.82004 0.235914,6.15337 1.5,2.5C 3.879,0.958068 6.54567,0.291401 9.5,0.5C 16.2636,-0.782519 19.597,1.88415 19.5,8.5C 19.4439,10.6397 18.7773,12.3064 17.5,13.5 Z M 8.5,9.5 C 9.87344,9.34332 11.2068,9.50999 12.5,10C 11.6634,11.0113 11.33,12.1779 11.5,13.5C 10.5,13.5 9.5,13.5 8.5,13.5C 8.5,12.1667 8.5,10.8333 8.5,9.5 Z"/></g>
<g><path style="opacity:0.407" fill="#fefffe" d="M 17.5,13.5 C 17.2941,16.0419 15.9608,17.7086 13.5,18.5C 11.1667,14.5 8.83333,14.5 6.5,18.5C 2.13615,16.6082 1.30281,13.6082 4,9.5C 7.18311,7.47659 10.6831,6.97659 14.5,8C 15.8688,9.71891 16.8688,11.5522 17.5,13.5 Z M 8.5,9.5 C 8.5,10.8333 8.5,12.1667 8.5,13.5C 9.5,13.5 10.5,13.5 11.5,13.5C 11.33,12.1779 11.6634,11.0113 12.5,10C 11.2068,9.50999 9.87344,9.34332 8.5,9.5 Z"/></g>
</svg>
