<?xml version="1.0" encoding="UTF-8"?>
<!DOCTYPE svg PUBLIC "-//W3C//DTD SVG 1.1//EN" "http://www.w3.org/Graphics/SVG/1.1/DTD/svg11.dtd">
<svg xmlns="http://www.w3.org/2000/svg" version="1.1" width="25px" height="25px" style="shape-rendering:geometricPrecision; text-rendering:geometricPrecision; image-rendering:optimizeQuality; fill-rule:evenodd; clip-rule:evenodd" xmlns:xlink="http://www.w3.org/1999/xlink">
<g><path style="opacity:0.376" fill="#703d7f" d="M 9.5,-0.5 C 11.8333,-0.5 14.1667,-0.5 16.5,-0.5C 16.5,0.166667 16.8333,0.5 17.5,0.5C 16.0813,1.45115 14.4147,1.78448 12.5,1.5C 11.209,1.73731 10.209,1.40397 9.5,0.5C 9.5,0.166667 9.5,-0.166667 9.5,-0.5 Z"/></g>
<g><path style="opacity:0.39" fill="#161422" d="M 6.5,-0.5 C 7.5,-0.5 8.5,-0.5 9.5,-0.5C 9.5,-0.166667 9.5,0.166667 9.5,0.5C 8.83333,0.5 8.5,0.833333 8.5,1.5C 7.5,2.16667 6.5,2.83333 5.5,3.5C 4.83333,3.16667 4.16667,2.83333 3.5,2.5C 4.30646,1.27187 5.30646,0.271873 6.5,-0.5 Z"/></g>
<g><path style="opacity:1" fill="#834a83" d="M 9.5,0.5 C 10.209,1.40397 11.209,1.73731 12.5,1.5C 13.1098,2.39105 13.4431,3.39105 13.5,4.5C 12.209,4.26269 11.209,4.59603 10.5,5.5C 8.89578,4.71304 8.22911,3.3797 8.5,1.5C 8.5,0.833333 8.83333,0.5 9.5,0.5 Z"/></g>
<g><path style="opacity:1" fill="#5a2e65" d="M 17.5,0.5 C 18.1667,0.5 18.5,0.833333 18.5,1.5C 18.1583,2.33825 17.4916,2.67158 16.5,2.5C 16.1667,2.5 15.8333,2.5 15.5,2.5C 14.8333,3.16667 14.1667,3.83333 13.5,4.5C 13.4431,3.39105 13.1098,2.39105 12.5,1.5C 14.4147,1.78448 16.0813,1.45115 17.5,0.5 Z"/></g>
<g><path style="opacity:1" fill="#3a2045" d="M 18.5,1.5 C 20.4044,1.73758 21.7377,2.73758 22.5,4.5C 21.8333,4.83333 21.1667,5.16667 20.5,5.5C 19.8333,5.83333 19.1667,6.16667 18.5,6.5C 18.2671,4.93819 17.6005,3.60486 16.5,2.5C 17.4916,2.67158 18.1583,2.33825 18.5,1.5 Z"/></g>
<g><path style="opacity:1" fill="#311430" d="M 15.5,2.5 C 15.8333,2.5 16.1667,2.5 16.5,2.5C 17.6005,3.60486 18.2671,4.93819 18.5,6.5C 17.8333,6.5 17.5,6.83333 17.5,7.5C 17.1667,7.5 16.8333,7.5 16.5,7.5C 15.5489,6.08134 15.2155,4.41467 15.5,2.5 Z"/></g>
<g><path style="opacity:1" fill="#492759" d="M 22.5,4.5 C 23.1667,5.16667 23.8333,5.83333 24.5,6.5C 24.5,7.16667 24.5,7.83333 24.5,8.5C 23.8333,8.5 23.1667,8.5 22.5,8.5C 22.2178,7.22235 21.5511,6.22235 20.5,5.5C 21.1667,5.16667 21.8333,4.83333 22.5,4.5 Z"/></g>
<g><path style="opacity:1" fill="#1c172a" d="M 3.5,2.5 C 4.16667,2.83333 4.83333,3.16667 5.5,3.5C 5.76781,5.09903 5.43448,6.43236 4.5,7.5C 3.16667,7.5 1.83333,7.5 0.5,7.5C 0.749725,5.32604 1.74973,3.65938 3.5,2.5 Z"/></g>
<g><path style="opacity:1" fill="#a87181" d="M 8.5,1.5 C 8.22911,3.3797 8.89578,4.71304 10.5,5.5C 10.5,6.16667 10.5,6.83333 10.5,7.5C 9.83333,7.83333 9.16667,8.16667 8.5,8.5C 7.47888,8.89927 7.14555,10.2326 7.5,12.5C 7.16667,12.5 6.83333,12.5 6.5,12.5C 6.65668,11.1266 6.49001,9.79323 6,8.5C 5.72158,9.4158 5.22158,10.0825 4.5,10.5C 4.5,9.5 4.5,8.5 4.5,7.5C 5.43448,6.43236 5.76781,5.09903 5.5,3.5C 6.5,2.83333 7.5,2.16667 8.5,1.5 Z"/></g>
<g><path style="opacity:1" fill="#592a55" d="M 15.5,2.5 C 15.2155,4.41467 15.5489,6.08134 16.5,7.5C 16.3404,9.15298 15.6737,10.4863 14.5,11.5C 14.1667,11.5 13.8333,11.5 13.5,11.5C 13.5,10.1667 13.5,8.83333 13.5,7.5C 12.5,7.5 11.5,7.5 10.5,7.5C 10.5,6.83333 10.5,6.16667 10.5,5.5C 11.209,4.59603 12.209,4.26269 13.5,4.5C 14.1667,3.83333 14.8333,3.16667 15.5,2.5 Z"/></g>
<g><path style="opacity:1" fill="#31163e" d="M 20.5,5.5 C 21.5511,6.22235 22.2178,7.22235 22.5,8.5C 20.8041,6.87099 19.8041,7.20432 19.5,9.5C 18.1667,9.5 17.5,8.83333 17.5,7.5C 17.5,6.83333 17.8333,6.5 18.5,6.5C 19.1667,6.16667 19.8333,5.83333 20.5,5.5 Z"/></g>
<g><path style="opacity:1" fill="#bf8b90" d="M 10.5,7.5 C 11.5,7.5 12.5,7.5 13.5,7.5C 13.5,8.83333 13.5,10.1667 13.5,11.5C 13.1667,11.5 12.8333,11.5 12.5,11.5C 10.0274,11.9118 8.69408,10.9118 8.5,8.5C 9.16667,8.16667 9.83333,7.83333 10.5,7.5 Z"/></g>
<g><path style="opacity:1" fill="#4b3b54" d="M -0.5,7.5 C -0.166667,7.5 0.166667,7.5 0.5,7.5C 1.83333,7.5 3.16667,7.5 4.5,7.5C 4.5,8.5 4.5,9.5 4.5,10.5C 3.08134,11.4511 1.41467,11.7845 -0.5,11.5C -0.5,10.1667 -0.5,8.83333 -0.5,7.5 Z"/></g>
<g><path style="opacity:1" fill="#2b1235" d="M 22.5,8.5 C 23.1667,8.5 23.8333,8.5 24.5,8.5C 24.5,9.16667 24.5,9.83333 24.5,10.5C 22.7085,10.634 21.0418,10.3007 19.5,9.5C 19.8041,7.20432 20.8041,6.87099 22.5,8.5 Z"/></g>
<g><path style="opacity:1" fill="#795f74" d="M 6.5,12.5 C 4.16667,12.5 1.83333,12.5 -0.5,12.5C -0.5,12.1667 -0.5,11.8333 -0.5,11.5C 1.41467,11.7845 3.08134,11.4511 4.5,10.5C 5.22158,10.0825 5.72158,9.4158 6,8.5C 6.49001,9.79323 6.65668,11.1266 6.5,12.5 Z"/></g>
<g><path style="opacity:1" fill="#4d2846" d="M 8.5,8.5 C 8.69408,10.9118 10.0274,11.9118 12.5,11.5C 12.7678,13.099 12.4345,14.4324 11.5,15.5C 10.9941,13.8946 10.3274,13.5613 9.5,14.5C 8.83333,14.1667 8.16667,13.8333 7.5,13.5C 7.5,13.1667 7.5,12.8333 7.5,12.5C 7.14555,10.2326 7.47888,8.89927 8.5,8.5 Z"/></g>
<g><path style="opacity:1" fill="#250e23" d="M 12.5,11.5 C 12.8333,11.5 13.1667,11.5 13.5,11.5C 13.8333,11.5 14.1667,11.5 14.5,11.5C 14.8417,12.3382 15.5084,12.6716 16.5,12.5C 16.5569,13.609 16.8902,14.609 17.5,15.5C 17.5,15.8333 17.5,16.1667 17.5,16.5C 17.1667,16.5 16.8333,16.5 16.5,16.5C 16.0919,15.3569 15.4252,14.3569 14.5,13.5C 13.4937,13.9377 13.4937,14.6043 14.5,15.5C 13.675,16.3857 12.675,16.719 11.5,16.5C 11.5,16.1667 11.5,15.8333 11.5,15.5C 12.4345,14.4324 12.7678,13.099 12.5,11.5 Z"/></g>
<g><path style="opacity:1" fill="#361944" d="M 16.5,7.5 C 16.8333,7.5 17.1667,7.5 17.5,7.5C 17.5,8.83333 18.1667,9.5 19.5,9.5C 21.0418,10.3007 22.7085,10.634 24.5,10.5C 24.5,12.5 24.5,14.5 24.5,16.5C 23.8333,16.5 23.5,16.8333 23.5,17.5C 22.5,17.5 21.5,17.5 20.5,17.5C 19.5,17.5 18.5,17.5 17.5,17.5C 17.5,17.1667 17.5,16.8333 17.5,16.5C 17.5,16.1667 17.5,15.8333 17.5,15.5C 19.1942,16.686 20.8608,16.5193 22.5,15C 20.3716,14.3448 18.3716,13.5114 16.5,12.5C 15.5084,12.6716 14.8417,12.3382 14.5,11.5C 15.6737,10.4863 16.3404,9.15298 16.5,7.5 Z"/></g>
<g><path style="opacity:1" fill="#ba9ead" d="M -0.5,12.5 C 1.83333,12.5 4.16667,12.5 6.5,12.5C 6.83333,12.5 7.16667,12.5 7.5,12.5C 7.5,12.8333 7.5,13.1667 7.5,13.5C 5.36472,15.369 2.69805,16.0356 -0.5,15.5C -0.5,14.5 -0.5,13.5 -0.5,12.5 Z"/></g>
<g><path style="opacity:1" fill="#16071a" d="M 16.5,16.5 C 15.791,17.404 14.791,17.7373 13.5,17.5C 13.3465,19.9699 12.3465,21.9699 10.5,23.5C 10.5,22.5 10.5,21.5 10.5,20.5C 10.4326,19.0413 10.7659,17.7079 11.5,16.5C 12.675,16.719 13.675,16.3857 14.5,15.5C 13.4937,14.6043 13.4937,13.9377 14.5,13.5C 15.4252,14.3569 16.0919,15.3569 16.5,16.5 Z"/></g>
<g><path style="opacity:1" fill="#a88ca1" d="M 7.5,13.5 C 8.16667,13.8333 8.83333,14.1667 9.5,14.5C 9.38929,15.1174 9.05596,15.6174 8.5,16C 5.51838,16.498 2.51838,16.6646 -0.5,16.5C -0.5,16.1667 -0.5,15.8333 -0.5,15.5C 2.69805,16.0356 5.36472,15.369 7.5,13.5 Z"/></g>
<g><path style="opacity:1" fill="#17081e" d="M 16.5,12.5 C 18.3716,13.5114 20.3716,14.3448 22.5,15C 20.8608,16.5193 19.1942,16.686 17.5,15.5C 16.8902,14.609 16.5569,13.609 16.5,12.5 Z"/></g>
<g><path style="opacity:1" fill="#8f738b" d="M 11.5,15.5 C 10.1667,16.1667 9.16667,17.1667 8.5,18.5C 5.94551,17.612 3.27884,17.2786 0.5,17.5C 0.166667,17.5 -0.166667,17.5 -0.5,17.5C -0.5,17.1667 -0.5,16.8333 -0.5,16.5C 2.51838,16.6646 5.51838,16.498 8.5,16C 9.05596,15.6174 9.38929,15.1174 9.5,14.5C 10.3274,13.5613 10.9941,13.8946 11.5,15.5 Z"/></g>
<g><path style="opacity:1" fill="#70536e" d="M 0.5,17.5 C 3.27884,17.2786 5.94551,17.612 8.5,18.5C 8.16667,19.1667 7.83333,19.8333 7.5,20.5C 6.43236,21.4345 5.09903,21.7678 3.5,21.5C 1.73758,20.7377 0.737579,19.4044 0.5,17.5 Z"/></g>
<g><path style="opacity:1" fill="#39182c" d="M 11.5,15.5 C 11.5,15.8333 11.5,16.1667 11.5,16.5C 10.7659,17.7079 10.4326,19.0413 10.5,20.5C 9.5,21.8333 8.5,21.8333 7.5,20.5C 7.83333,19.8333 8.16667,19.1667 8.5,18.5C 9.16667,17.1667 10.1667,16.1667 11.5,15.5 Z"/></g>
<g><path style="opacity:0.953" fill="#0a020f" d="M 16.5,16.5 C 16.8333,16.5 17.1667,16.5 17.5,16.5C 17.5,16.8333 17.5,17.1667 17.5,17.5C 16.8333,18.1667 16.1667,18.8333 15.5,19.5C 15.5,21.1667 15.5,22.8333 15.5,24.5C 13.8333,24.5 12.1667,24.5 10.5,24.5C 10.5,24.1667 10.5,23.8333 10.5,23.5C 12.3465,21.9699 13.3465,19.9699 13.5,17.5C 14.791,17.7373 15.791,17.404 16.5,16.5 Z"/></g>
<g><path style="opacity:1" fill="#17071f" d="M 17.5,17.5 C 18.5,17.5 19.5,17.5 20.5,17.5C 20.4431,18.609 20.1098,19.609 19.5,20.5C 18.5041,20.4142 17.6708,20.7476 17,21.5C 16.7216,20.5842 16.2216,19.9175 15.5,19.5C 16.1667,18.8333 16.8333,18.1667 17.5,17.5 Z"/></g>
<g><path style="opacity:1" fill="#2f1341" d="M 15.5,19.5 C 16.2216,19.9175 16.7216,20.5842 17,21.5C 17.6708,20.7476 18.5041,20.4142 19.5,20.5C 18.8902,21.391 18.5569,22.391 18.5,23.5C 17.8333,23.5 17.5,23.8333 17.5,24.5C 16.8333,24.5 16.1667,24.5 15.5,24.5C 15.5,22.8333 15.5,21.1667 15.5,19.5 Z"/></g>
<g><path style="opacity:0.125" fill="#22102e" d="M 20.5,17.5 C 21.5,17.5 22.5,17.5 23.5,17.5C 22.5569,20.1092 20.8903,22.1092 18.5,23.5C 18.5569,22.391 18.8902,21.391 19.5,20.5C 20.1098,19.609 20.4431,18.609 20.5,17.5 Z"/></g>
<g><path style="opacity:0.627" fill="#1f1021" d="M 7.5,20.5 C 8.5,21.8333 9.5,21.8333 10.5,20.5C 10.5,21.5 10.5,22.5 10.5,23.5C 10.5,23.8333 10.5,24.1667 10.5,24.5C 9.5,24.5 8.5,24.5 7.5,24.5C 6.16667,23.5 4.83333,22.5 3.5,21.5C 5.09903,21.7678 6.43236,21.4345 7.5,20.5 Z"/></g>
</svg>
