<?xml version="1.0" encoding="UTF-8"?>
<!DOCTYPE svg PUBLIC "-//W3C//DTD SVG 1.1//EN" "http://www.w3.org/Graphics/SVG/1.1/DTD/svg11.dtd">
<svg xmlns="http://www.w3.org/2000/svg" version="1.1" width="25px" height="25px" style="shape-rendering:geometricPrecision; text-rendering:geometricPrecision; image-rendering:optimizeQuality; fill-rule:evenodd; clip-rule:evenodd" xmlns:xlink="http://www.w3.org/1999/xlink">
<g><path style="opacity:0.899" fill="#050709" d="M 6.5,-0.5 C 9.83333,-0.5 13.1667,-0.5 16.5,-0.5C 19.7843,1.11698 22.4509,3.45031 24.5,6.5C 24.5,9.83333 24.5,13.1667 24.5,16.5C 22.883,19.7843 20.5497,22.4509 17.5,24.5C 14.1667,24.5 10.8333,24.5 7.5,24.5C 4.21573,22.883 1.54906,20.5497 -0.5,17.5C -0.5,14.1667 -0.5,10.8333 -0.5,7.5C 1.11698,4.21573 3.45031,1.54906 6.5,-0.5 Z"/></g>
<g><path style="opacity:1" fill="#4d99ca" d="M 7.5,5.5 C 8.16667,6.5 8.83333,7.5 9.5,8.5C 8.02218,8.76202 6.68884,8.42869 5.5,7.5C 5.85549,6.4777 6.52216,5.81103 7.5,5.5 Z"/></g>
<g><path style="opacity:1" fill="#2cddad" d="M 7.5,5.5 C 11.5138,5.33449 15.5138,5.50115 19.5,6C 16.635,8.28633 13.3017,9.11966 9.5,8.5C 8.83333,7.5 8.16667,6.5 7.5,5.5 Z"/></g>
<g><path style="opacity:1" fill="#5c8ed9" d="M 8.5,10.5 C 9.83333,10.5 11.1667,10.5 12.5,10.5C 12.5569,11.609 12.8902,12.609 13.5,13.5C 12.1667,13.5 10.8333,13.5 9.5,13.5C 8.89022,12.609 8.55688,11.609 8.5,10.5 Z"/></g>
<g><path style="opacity:1" fill="#38c0b8" d="M 12.5,10.5 C 15.3456,10.0301 17.6789,10.8634 19.5,13C 17.5273,13.4955 15.5273,13.6621 13.5,13.5C 12.8902,12.609 12.5569,11.609 12.5,10.5 Z"/></g>
<g><path style="opacity:1" fill="#775bdf" d="M 8.5,10.5 C 8.55688,11.609 8.89022,12.609 9.5,13.5C 7.31928,13.7163 5.65262,12.883 4.5,11C 5.79323,10.51 7.12656,10.3433 8.5,10.5 Z"/></g>
<g><path style="opacity:1" fill="#5688cd" d="M 13.5,15.5 C 15.288,15.2148 16.9547,15.5481 18.5,16.5C 17.9953,17.9185 16.9953,18.5852 15.5,18.5C 14.8333,17.5 14.1667,16.5 13.5,15.5 Z"/></g>
<g><path style="opacity:1" fill="#8951f1" d="M 13.5,15.5 C 14.1667,16.5 14.8333,17.5 15.5,18.5C 11.8183,18.6653 8.15159,18.4986 4.5,18C 7.01725,15.7492 10.0172,14.9159 13.5,15.5 Z"/></g>
</svg>
