<?xml version="1.0" encoding="UTF-8"?>
<!DOCTYPE svg PUBLIC "-//W3C//DTD SVG 1.1//EN" "http://www.w3.org/Graphics/SVG/1.1/DTD/svg11.dtd">
<svg xmlns="http://www.w3.org/2000/svg" version="1.1" width="25px" height="25px" style="shape-rendering:geometricPrecision; text-rendering:geometricPrecision; image-rendering:optimizeQuality; fill-rule:evenodd; clip-rule:evenodd" xmlns:xlink="http://www.w3.org/1999/xlink">
<g><path style="opacity:0.987" fill="#470b13" d="M 6.5,-0.5 C 7.83333,-0.5 9.16667,-0.5 10.5,-0.5C 10.1667,0.833333 9.83333,2.16667 9.5,3.5C 8.83333,3.5 8.5,3.83333 8.5,4.5C 8.16667,4.5 7.83333,4.5 7.5,4.5C 7.16667,4.5 6.83333,4.5 6.5,4.5C 6.5,3.16667 6.5,1.83333 6.5,0.5C 6.5,0.166667 6.5,-0.166667 6.5,-0.5 Z"/></g>
<g><path style="opacity:1" fill="#4e0a11" d="M 10.5,-0.5 C 12.5,-0.5 14.5,-0.5 16.5,-0.5C 16.5,-0.166667 16.5,0.166667 16.5,0.5C 15.1667,0.5 13.8333,0.5 12.5,0.5C 12.7148,2.17876 12.0481,3.17876 10.5,3.5C 10.1667,3.5 9.83333,3.5 9.5,3.5C 9.83333,2.16667 10.1667,0.833333 10.5,-0.5 Z"/></g>
<g><path style="opacity:1" fill="#4d0d13" d="M 16.5,0.5 C 19.1979,0.844897 21.1979,2.17823 22.5,4.5C 21.5,4.5 20.5,4.5 19.5,4.5C 19.5,5.5 19.5,6.5 19.5,7.5C 19.1667,7.5 18.8333,7.5 18.5,7.5C 18.5,7.16667 18.5,6.83333 18.5,6.5C 17.8333,5.5 17.1667,4.5 16.5,3.5C 16.5,2.5 16.5,1.5 16.5,0.5 Z"/></g>
<g><path style="opacity:1" fill="#570a12" d="M 16.5,0.5 C 16.5,1.5 16.5,2.5 16.5,3.5C 15.5084,3.32842 14.8417,3.66175 14.5,4.5C 12.6253,6.07813 11.2919,5.74479 10.5,3.5C 12.0481,3.17876 12.7148,2.17876 12.5,0.5C 13.8333,0.5 15.1667,0.5 16.5,0.5 Z"/></g>
<g><path style="opacity:1" fill="#752537" d="M 6.5,0.5 C 6.5,1.83333 6.5,3.16667 6.5,4.5C 4.97306,4.57298 3.97306,3.90632 3.5,2.5C 3.97306,1.09368 4.97306,0.427017 6.5,0.5 Z"/></g>
<g><path style="opacity:0.931" fill="#380a10" d="M 22.5,4.5 C 23.1667,5.16667 23.8333,5.83333 24.5,6.5C 24.5,7.83333 24.5,9.16667 24.5,10.5C 23.3951,9.39952 22.0618,8.73286 20.5,8.5C 19.8333,8.5 19.5,8.16667 19.5,7.5C 19.5,6.5 19.5,5.5 19.5,4.5C 20.5,4.5 21.5,4.5 22.5,4.5 Z"/></g>
<g><path style="opacity:1" fill="#6e0c13" d="M 16.5,3.5 C 17.1667,4.5 17.8333,5.5 18.5,6.5C 17.1667,6.5 15.8333,6.5 14.5,6.5C 13.4937,6.06233 13.4937,5.39567 14.5,4.5C 14.8417,3.66175 15.5084,3.32842 16.5,3.5 Z"/></g>
<g><path style="opacity:0.875" fill="#7a131a" d="M 3.5,2.5 C 3.97306,3.90632 4.97306,4.57298 6.5,4.5C 6.83333,4.5 7.16667,4.5 7.5,4.5C 6.00279,5.30577 4.33612,5.97244 2.5,6.5C 1.70245,6.95689 1.36912,7.62356 1.5,8.5C 0.833333,8.5 0.5,8.16667 0.5,7.5C 0.749725,5.32604 1.74973,3.65938 3.5,2.5 Z"/></g>
<g><path style="opacity:1" fill="#8d1517" d="M 9.5,3.5 C 9.83333,3.5 10.1667,3.5 10.5,3.5C 11.2919,5.74479 12.6253,6.07813 14.5,4.5C 13.4937,5.39567 13.4937,6.06233 14.5,6.5C 13.7095,7.40128 12.7095,8.06795 11.5,8.5C 11.1667,8.5 10.8333,8.5 10.5,8.5C 10.1667,7.5 9.5,6.83333 8.5,6.5C 8.5,5.83333 8.5,5.16667 8.5,4.5C 8.5,3.83333 8.83333,3.5 9.5,3.5 Z"/></g>
<g><path style="opacity:1" fill="#930d17" d="M 7.5,4.5 C 7.83333,4.5 8.16667,4.5 8.5,4.5C 8.5,5.16667 8.5,5.83333 8.5,6.5C 7.5,6.5 6.5,6.5 5.5,6.5C 4.27187,7.30646 3.27187,8.30646 2.5,9.5C 1.83333,9.5 1.5,9.16667 1.5,8.5C 1.36912,7.62356 1.70245,6.95689 2.5,6.5C 4.33612,5.97244 6.00279,5.30577 7.5,4.5 Z"/></g>
<g><path style="opacity:1" fill="#b7646a" d="M 5.5,6.5 C 6.5,6.5 7.5,6.5 8.5,6.5C 9.5,6.83333 10.1667,7.5 10.5,8.5C 10.5,9.16667 10.5,9.83333 10.5,10.5C 10.1667,10.5 9.83333,10.5 9.5,10.5C 8.20895,10.7373 7.20895,10.404 6.5,9.5C 5.89022,8.60895 5.55688,7.60895 5.5,6.5 Z"/></g>
<g><path style="opacity:1" fill="#d2784a" d="M 14.5,6.5 C 15.8333,6.5 17.1667,6.5 18.5,6.5C 18.5,6.83333 18.5,7.16667 18.5,7.5C 17.5266,7.98672 16.5266,8.48672 15.5,9C 15.7284,9.39877 16.0618,9.56544 16.5,9.5C 16.5,9.83333 16.5,10.1667 16.5,10.5C 16.1667,10.5 15.8333,10.5 15.5,10.5C 14.5595,7.87491 13.3928,7.87491 12,10.5C 11.5357,9.90558 11.369,9.23891 11.5,8.5C 12.7095,8.06795 13.7095,7.40128 14.5,6.5 Z"/></g>
<g><path style="opacity:1" fill="#950a18" d="M -0.5,7.5 C -0.166667,7.5 0.166667,7.5 0.5,7.5C 0.5,8.16667 0.833333,8.5 1.5,8.5C 1.5,9.16667 1.83333,9.5 2.5,9.5C 1.16667,10.5 1.16667,11.5 2.5,12.5C 1.5,12.5 0.5,12.5 -0.5,12.5C -0.5,10.8333 -0.5,9.16667 -0.5,7.5 Z"/></g>
<g><path style="opacity:1" fill="#851c24" d="M 5.5,6.5 C 5.55688,7.60895 5.89022,8.60895 6.5,9.5C 4.20432,9.80407 3.87099,10.8041 5.5,12.5C 4.83333,12.5 4.16667,12.5 3.5,12.5C 3.16667,12.5 2.83333,12.5 2.5,12.5C 1.16667,11.5 1.16667,10.5 2.5,9.5C 3.27187,8.30646 4.27187,7.30646 5.5,6.5 Z"/></g>
<g><path style="opacity:1" fill="#6a1c21" d="M 6.5,9.5 C 7.20895,10.404 8.20895,10.7373 9.5,10.5C 9.78448,12.4147 9.45115,14.0813 8.5,15.5C 6.76733,14.9924 6.434,14.159 7.5,13C 6.90558,12.5357 6.23891,12.369 5.5,12.5C 3.87099,10.8041 4.20432,9.80407 6.5,9.5 Z"/></g>
<g><path style="opacity:1" fill="#e2bcac" d="M 16.5,9.5 C 17.4959,9.41423 18.3292,9.74756 19,10.5C 19.4901,12.5454 19.3235,14.5454 18.5,16.5C 17.8333,16.5 17.1667,16.5 16.5,16.5C 18.7144,14.2394 18.7144,12.2394 16.5,10.5C 16.5,10.1667 16.5,9.83333 16.5,9.5 Z"/></g>
<g><path style="opacity:1" fill="#511016" d="M 20.5,8.5 C 22.0618,8.73286 23.3951,9.39952 24.5,10.5C 24.5,11.8333 24.5,13.1667 24.5,14.5C 23.609,15.1098 22.609,15.4431 21.5,15.5C 21.702,13.0504 21.3686,10.717 20.5,8.5 Z"/></g>
<g><path style="opacity:1" fill="#bb442a" d="M 10.5,8.5 C 10.8333,8.5 11.1667,8.5 11.5,8.5C 11.369,9.23891 11.5357,9.90558 12,10.5C 13.3928,7.87491 14.5595,7.87491 15.5,10.5C 14.8333,11.5 14.1667,12.5 13.5,13.5C 12.8826,13.3893 12.3826,13.056 12,12.5C 11.51,13.7932 11.3433,15.1266 11.5,16.5C 10.5386,14.7354 10.2053,12.7354 10.5,10.5C 10.5,9.83333 10.5,9.16667 10.5,8.5 Z"/></g>
<g><path style="opacity:1" fill="#d39182" d="M 15.5,10.5 C 15.8333,10.5 16.1667,10.5 16.5,10.5C 18.7144,12.2394 18.7144,14.2394 16.5,16.5C 14.5,16.5 13.5,15.5 13.5,13.5C 14.1667,12.5 14.8333,11.5 15.5,10.5 Z"/></g>
<g><path style="opacity:1" fill="#ad141e" d="M -0.5,12.5 C 0.5,12.5 1.5,12.5 2.5,12.5C 2.83333,12.5 3.16667,12.5 3.5,12.5C 4.14083,13.4822 4.80749,14.4822 5.5,15.5C 5.37642,16.1067 5.04309,16.44 4.5,16.5C 3.36465,14.7868 1.69798,14.1201 -0.5,14.5C -0.5,13.8333 -0.5,13.1667 -0.5,12.5 Z"/></g>
<g><path style="opacity:1" fill="#e79d60" d="M 18.5,7.5 C 18.8333,7.5 19.1667,7.5 19.5,7.5C 19.5,8.16667 19.8333,8.5 20.5,8.5C 21.3686,10.717 21.702,13.0504 21.5,15.5C 20.6618,15.8417 20.3284,16.5084 20.5,17.5C 20.1667,17.5 19.8333,17.5 19.5,17.5C 18.8333,17.5 18.5,17.1667 18.5,16.5C 19.3235,14.5454 19.4901,12.5454 19,10.5C 18.3292,9.74756 17.4959,9.41423 16.5,9.5C 16.0618,9.56544 15.7284,9.39877 15.5,9C 16.5266,8.48672 17.5266,7.98672 18.5,7.5 Z"/></g>
<g><path style="opacity:1" fill="#ca806f" d="M -0.5,14.5 C 1.69798,14.1201 3.36465,14.7868 4.5,16.5C 4.5,16.8333 4.5,17.1667 4.5,17.5C 3.16667,17.5 1.83333,17.5 0.5,17.5C 0.166667,17.5 -0.166667,17.5 -0.5,17.5C -0.5,16.5 -0.5,15.5 -0.5,14.5 Z"/></g>
<g><path style="opacity:1" fill="#760f16" d="M 3.5,12.5 C 4.16667,12.5 4.83333,12.5 5.5,12.5C 6.23891,12.369 6.90558,12.5357 7.5,13C 6.434,14.159 6.76733,14.9924 8.5,15.5C 8.5,16.8333 8.5,18.1667 8.5,19.5C 7.83333,19.5 7.5,19.8333 7.5,20.5C 6.60895,19.8902 5.60895,19.5569 4.5,19.5C 4.5,18.8333 4.5,18.1667 4.5,17.5C 4.5,17.1667 4.5,16.8333 4.5,16.5C 5.04309,16.44 5.37642,16.1067 5.5,15.5C 4.80749,14.4822 4.14083,13.4822 3.5,12.5 Z"/></g>
<g><path style="opacity:1" fill="#701216" d="M 9.5,10.5 C 9.83333,10.5 10.1667,10.5 10.5,10.5C 10.2053,12.7354 10.5386,14.7354 11.5,16.5C 12.7888,17.6366 13.7888,18.9699 14.5,20.5C 14.5,20.8333 14.5,21.1667 14.5,21.5C 12.8583,19.9192 10.8583,19.2525 8.5,19.5C 8.5,18.1667 8.5,16.8333 8.5,15.5C 9.45115,14.0813 9.78448,12.4147 9.5,10.5 Z"/></g>
<g><path style="opacity:1" fill="#ae3420" d="M 13.5,13.5 C 13.5,15.5 14.5,16.5 16.5,16.5C 17.1667,16.5 17.8333,16.5 18.5,16.5C 18.5,17.1667 18.8333,17.5 19.5,17.5C 18.7095,18.4013 17.7095,19.0679 16.5,19.5C 15.8333,19.8333 15.1667,20.1667 14.5,20.5C 13.7888,18.9699 12.7888,17.6366 11.5,16.5C 11.3433,15.1266 11.51,13.7932 12,12.5C 12.3826,13.056 12.8826,13.3893 13.5,13.5 Z"/></g>
<g><path style="opacity:1" fill="#6c1617" d="M 24.5,14.5 C 24.5,15.1667 24.5,15.8333 24.5,16.5C 23.8333,17.1667 23.1667,17.8333 22.5,18.5C 21.8333,18.1667 21.1667,17.8333 20.5,17.5C 20.3284,16.5084 20.6618,15.8417 21.5,15.5C 22.609,15.4431 23.609,15.1098 24.5,14.5 Z"/></g>
<g><path style="opacity:1" fill="#880f15" d="M 19.5,17.5 C 19.8333,17.5 20.1667,17.5 20.5,17.5C 21.1667,17.8333 21.8333,18.1667 22.5,18.5C 22.573,20.0269 21.9063,21.0269 20.5,21.5C 19.609,20.8902 18.609,20.5569 17.5,20.5C 16.8333,20.5 16.5,20.1667 16.5,19.5C 17.7095,19.0679 18.7095,18.4013 19.5,17.5 Z"/></g>
<g><path style="opacity:0.937" fill="#652426" d="M 0.5,17.5 C 1.83333,17.5 3.16667,17.5 4.5,17.5C 4.5,18.1667 4.5,18.8333 4.5,19.5C 4.16667,20.1667 3.83333,20.8333 3.5,21.5C 1.73758,20.7377 0.737579,19.4044 0.5,17.5 Z"/></g>
<g><path style="opacity:1" fill="#55060d" d="M 4.5,19.5 C 5.60895,19.5569 6.60895,19.8902 7.5,20.5C 6.89022,21.391 6.55688,22.391 6.5,23.5C 5.29049,23.0679 4.29049,22.4013 3.5,21.5C 3.83333,20.8333 4.16667,20.1667 4.5,19.5 Z"/></g>
<g><path style="opacity:1" fill="#370e19" d="M 7.5,20.5 C 9.16667,21.5 10.5,22.8333 11.5,24.5C 10.1667,24.5 8.83333,24.5 7.5,24.5C 7.5,23.8333 7.16667,23.5 6.5,23.5C 6.55688,22.391 6.89022,21.391 7.5,20.5 Z"/></g>
<g><path style="opacity:0.875" fill="#5b9dc7" d="M 17.5,20.5 C 18.609,20.5569 19.609,20.8902 20.5,21.5C 20.0269,22.9063 19.0269,23.573 17.5,23.5C 17.5,22.5 17.5,21.5 17.5,20.5 Z"/></g>
<g><path style="opacity:1" fill="#6f2a41" d="M 7.5,20.5 C 7.5,19.8333 7.83333,19.5 8.5,19.5C 10.8583,19.2525 12.8583,19.9192 14.5,21.5C 14.5,22.5 14.5,23.5 14.5,24.5C 13.5,24.5 12.5,24.5 11.5,24.5C 10.5,22.8333 9.16667,21.5 7.5,20.5 Z"/></g>
<g><path style="opacity:0.792" fill="#511620" d="M 16.5,19.5 C 16.5,20.1667 16.8333,20.5 17.5,20.5C 17.5,21.5 17.5,22.5 17.5,23.5C 17.5,23.8333 17.5,24.1667 17.5,24.5C 16.5,24.5 15.5,24.5 14.5,24.5C 14.5,23.5 14.5,22.5 14.5,21.5C 14.5,21.1667 14.5,20.8333 14.5,20.5C 15.1667,20.1667 15.8333,19.8333 16.5,19.5 Z"/></g>
</svg>
