<?xml version="1.0" encoding="UTF-8"?>
<!DOCTYPE svg PUBLIC "-//W3C//DTD SVG 1.1//EN" "http://www.w3.org/Graphics/SVG/1.1/DTD/svg11.dtd">
<svg xmlns="http://www.w3.org/2000/svg" version="1.1" width="25px" height="25px" style="shape-rendering:geometricPrecision; text-rendering:geometricPrecision; image-rendering:optimizeQuality; fill-rule:evenodd; clip-rule:evenodd" xmlns:xlink="http://www.w3.org/1999/xlink">
<g><path style="opacity:0.885" fill="#4f21ec" d="M -0.5,17.5 C -0.5,16.8333 -0.5,16.1667 -0.5,15.5C 1.89164,12.4022 4.05831,9.06889 6,5.5C 10.7439,-0.0468916 15.9106,-0.713558 21.5,3.5C 20.6149,6.32285 18.9483,6.98952 16.5,5.5C 15.1667,6.16667 13.8333,6.83333 12.5,7.5C 9.88742,12.2732 6.72076,16.6065 3,20.5C 1.40088,19.9293 0.234212,18.9293 -0.5,17.5 Z"/></g>
<g><path style="opacity:0.867" fill="#5020ed" d="M 24.5,9.5 C 24.5,11.8333 24.5,14.1667 24.5,16.5C 22.883,19.7843 20.5497,22.4509 17.5,24.5C 16.1667,24.5 14.8333,24.5 13.5,24.5C 7.85149,23.0364 7.18482,20.3697 11.5,16.5C 15.2621,19.2096 18.9288,19.0429 22.5,16C 15.7048,16.5082 14.3714,14.5082 18.5,10C 20.4727,9.50454 22.4727,9.33788 24.5,9.5 Z"/></g>
</svg>
