<?xml version="1.0" encoding="UTF-8"?>
<!DOCTYPE svg PUBLIC "-//W3C//DTD SVG 1.1//EN" "http://www.w3.org/Graphics/SVG/1.1/DTD/svg11.dtd">
<svg xmlns="http://www.w3.org/2000/svg" version="1.1" width="25px" height="25px" style="shape-rendering:geometricPrecision; text-rendering:geometricPrecision; image-rendering:optimizeQuality; fill-rule:evenodd; clip-rule:evenodd" xmlns:xlink="http://www.w3.org/1999/xlink">
<g><path style="opacity:0.995" fill="#365e9e" d="M 6.5,-0.5 C 9.83333,-0.5 13.1667,-0.5 16.5,-0.5C 19.7843,1.11698 22.4509,3.45031 24.5,6.5C 24.5,9.83333 24.5,13.1667 24.5,16.5C 22.883,19.7843 20.5497,22.4509 17.5,24.5C 14.1667,24.5 10.8333,24.5 7.5,24.5C 3.83333,22.8333 1.16667,20.1667 -0.5,16.5C -0.5,13.5 -0.5,10.5 -0.5,7.5C 1.11698,4.21573 3.45031,1.54906 6.5,-0.5 Z"/></g>
<g><path style="opacity:1" fill="#e9edf4" d="M 11.5,3.5 C 12.5,3.5 13.5,3.5 14.5,3.5C 13.5504,6.0679 13.5504,8.5679 14.5,11C 12.3234,12.1861 11.3234,14.0194 11.5,16.5C 13.5,16.5 15.5,16.5 17.5,16.5C 17.5,17.5 17.5,18.5 17.5,19.5C 13.774,19.8226 10.1073,19.4892 6.5,18.5C 7.83333,16.8333 7.83333,15.1667 6.5,13.5C 9.29824,10.7962 10.9649,7.46288 11.5,3.5 Z"/></g>
</svg>
