<?xml version="1.0" encoding="UTF-8"?>
<!DOCTYPE svg PUBLIC "-//W3C//DTD SVG 1.1//EN" "http://www.w3.org/Graphics/SVG/1.1/DTD/svg11.dtd">
<svg xmlns="http://www.w3.org/2000/svg" version="1.1" width="25px" height="25px" style="shape-rendering:geometricPrecision; text-rendering:geometricPrecision; image-rendering:optimizeQuality; fill-rule:evenodd; clip-rule:evenodd" xmlns:xlink="http://www.w3.org/1999/xlink">
<g><path style="opacity:0.949" fill="#0b89cc" d="M 6.5,-0.5 C 9.83333,-0.5 13.1667,-0.5 16.5,-0.5C 19.7843,1.11698 22.4509,3.45031 24.5,6.5C 24.5,9.83333 24.5,13.1667 24.5,16.5C 22.883,19.7843 20.5497,22.4509 17.5,24.5C 14.1667,24.5 10.8333,24.5 7.5,24.5C 4.21573,22.883 1.54906,20.5497 -0.5,17.5C -0.5,14.1667 -0.5,10.8333 -0.5,7.5C 1.11698,4.21573 3.45031,1.54906 6.5,-0.5 Z"/></g>
<g><path style="opacity:1" fill="#ebf5fb" d="M 5.5,6.5 C 9.84611,6.33432 14.1794,6.50098 18.5,7C 18.9574,7.41395 19.2907,7.91395 19.5,8.5C 17.2503,12.6682 14.7503,16.6682 12,20.5C 9.30212,16.633 6.80212,12.633 4.5,8.5C 4.86273,7.81654 5.19607,7.14987 5.5,6.5 Z"/></g>
<g><path style="opacity:1" fill="#3ea0d6" d="M 6.5,7.5 C 8.16667,7.5 9.83333,7.5 11.5,7.5C 11.6646,10.5184 11.498,13.5184 11,16.5C 9.23891,13.5889 7.73891,10.5889 6.5,7.5 Z"/></g>
<g><path style="opacity:1" fill="#4faadb" d="M 16.5,9.5 C 15.791,8.59603 14.791,8.26269 13.5,8.5C 13.2053,10.7354 13.5386,12.7354 14.5,14.5C 14.2172,15.2891 13.7172,15.9558 13,16.5C 12.502,13.5184 12.3354,10.5184 12.5,7.5C 14.288,7.21478 15.9547,7.54811 17.5,8.5C 17.3764,9.10667 17.0431,9.44001 16.5,9.5 Z"/></g>
<g><path style="opacity:1" fill="#218fcf" d="M 16.5,9.5 C 16.1075,11.2838 15.4408,12.9505 14.5,14.5C 13.5386,12.7354 13.2053,10.7354 13.5,8.5C 14.791,8.26269 15.791,8.59603 16.5,9.5 Z"/></g>
</svg>
