<?xml version="1.0" encoding="UTF-8"?>
<!DOCTYPE svg PUBLIC "-//W3C//DTD SVG 1.1//EN" "http://www.w3.org/Graphics/SVG/1.1/DTD/svg11.dtd">
<svg xmlns="http://www.w3.org/2000/svg" version="1.1" width="25px" height="25px" style="shape-rendering:geometricPrecision; text-rendering:geometricPrecision; image-rendering:optimizeQuality; fill-rule:evenodd; clip-rule:evenodd" xmlns:xlink="http://www.w3.org/1999/xlink">
<g><path style="opacity:0.919" fill="#f0ba16" d="M 6.5,-0.5 C 9.83333,-0.5 13.1667,-0.5 16.5,-0.5C 19.7843,1.11698 22.4509,3.45031 24.5,6.5C 24.5,9.83333 24.5,13.1667 24.5,16.5C 22.883,19.7843 20.5497,22.4509 17.5,24.5C 14.1667,24.5 10.8333,24.5 7.5,24.5C 4.21573,22.883 1.54906,20.5497 -0.5,17.5C -0.5,14.1667 -0.5,10.8333 -0.5,7.5C 1.11698,4.21573 3.45031,1.54906 6.5,-0.5 Z"/></g>
<g><path style="opacity:1" fill="#fdf3d7" d="M 15.5,5.5 C 13.1667,5.5 10.8333,5.5 8.5,5.5C 9.72065,4.97168 10.8873,4.30501 12,3.5C 13.1127,4.30501 14.2794,4.97168 15.5,5.5 Z"/></g>
<g><path style="opacity:1" fill="#fdf3d7" d="M 18.5,7.5 C 19.3382,7.84171 19.6716,8.50838 19.5,9.5C 18.0502,10.6576 17.0502,10.1576 16.5,8C 17.0944,7.53566 17.7611,7.36899 18.5,7.5 Z"/></g>
<g><path style="opacity:1" fill="#fcf1cf" d="M 5.5,7.5 C 6.49162,7.32842 7.15829,7.66175 7.5,8.5C 6.54917,11.0452 5.54917,11.0452 4.5,8.5C 4.62358,7.89333 4.95691,7.55999 5.5,7.5 Z"/></g>
<g><path style="opacity:1" fill="#f4c747" d="M 8.5,5.5 C 10.8333,5.5 13.1667,5.5 15.5,5.5C 16.7095,5.93205 17.7095,6.59872 18.5,7.5C 17.7611,7.36899 17.0944,7.53566 16.5,8C 17.0502,10.1576 18.0502,10.6576 19.5,9.5C 19.5,10.1667 19.5,10.8333 19.5,11.5C 18.0245,13.0066 16.6912,14.6732 15.5,16.5C 15.0679,15.2905 14.4013,14.2905 13.5,13.5C 14.6602,12.735 15.6602,11.735 16.5,10.5C 16.2907,9.91395 15.9574,9.41395 15.5,9C 12.7164,9.4296 10.0497,9.59627 7.5,9.5C 7.5,9.16667 7.5,8.83333 7.5,8.5C 7.15829,7.66175 6.49162,7.32842 5.5,7.5C 6.29049,6.59872 7.29049,5.93205 8.5,5.5 Z"/></g>
<g><path style="opacity:1" fill="#fef9ed" d="M 13.5,13.5 C 13.5,14.5 13.5,15.5 13.5,16.5C 12.5,16.5 11.5,16.5 10.5,16.5C 10.2838,13.7438 9.28384,11.4105 7.5,9.5C 10.0497,9.59627 12.7164,9.4296 15.5,9C 15.9574,9.41395 16.2907,9.91395 16.5,10.5C 15.6602,11.735 14.6602,12.735 13.5,13.5 Z"/></g>
<g><path style="opacity:1" fill="#fdf1d2" d="M 19.5,11.5 C 19.8942,14.8571 18.5609,17.1905 15.5,18.5C 14.2267,17.7435 14.2267,17.0768 15.5,16.5C 16.6912,14.6732 18.0245,13.0066 19.5,11.5 Z"/></g>
<g><path style="opacity:1" fill="#fcf2d2" d="M 4.5,11.5 C 5.90129,13.5832 7.56796,15.5832 9.5,17.5C 9.16667,17.8333 8.83333,18.1667 8.5,18.5C 5.4391,17.1905 4.10577,14.8571 4.5,11.5 Z"/></g>
<g><path style="opacity:1" fill="#fdf6e3" d="M 10.5,19.5 C 11.2506,18.4265 12.2506,18.2599 13.5,19C 12.6477,20.7284 11.6477,20.895 10.5,19.5 Z"/></g>
</svg>
