<?xml version="1.0" encoding="UTF-8"?>
<!DOCTYPE svg PUBLIC "-//W3C//DTD SVG 1.1//EN" "http://www.w3.org/Graphics/SVG/1.1/DTD/svg11.dtd">
<svg xmlns="http://www.w3.org/2000/svg" version="1.1" width="25px" height="25px" style="shape-rendering:geometricPrecision; text-rendering:geometricPrecision; image-rendering:optimizeQuality; fill-rule:evenodd; clip-rule:evenodd" xmlns:xlink="http://www.w3.org/1999/xlink">
<g><path style="opacity:0.987" fill="#aba197" d="M 6.5,-0.5 C 9.83333,-0.5 13.1667,-0.5 16.5,-0.5C 19.7843,1.11698 22.4509,3.45031 24.5,6.5C 24.5,7.83333 24.5,9.16667 24.5,10.5C 22.1667,9.16667 19.8333,7.83333 17.5,6.5C 14.8877,5.6295 12.221,4.96283 9.5,4.5C 11.631,3.68618 13.9644,3.18618 16.5,3C 13.5,2.66667 10.5,2.33333 7.5,2C 6.94404,1.61742 6.61071,1.11742 6.5,0.5C 6.5,0.166667 6.5,-0.166667 6.5,-0.5 Z"/></g>
<g><path style="opacity:0.976" fill="#a59f93" d="M 6.5,0.5 C 6.61071,1.11742 6.94404,1.61742 7.5,2C 10.5,2.33333 13.5,2.66667 16.5,3C 13.9644,3.18618 11.631,3.68618 9.5,4.5C 9.18982,6.14363 8.18982,7.14363 6.5,7.5C 6.56544,7.06178 6.39877,6.72845 6,6.5C 4.89037,8.03683 3.39037,8.7035 1.5,8.5C 1.77089,10.3797 1.10422,11.713 -0.5,12.5C -0.5,10.8333 -0.5,9.16667 -0.5,7.5C 0.827014,4.17298 3.16035,1.83965 6.5,0.5 Z"/></g>
<g><path style="opacity:0.98" fill="#a0968c" d="M 6.5,7.5 C 6.5,8.16667 6.5,8.83333 6.5,9.5C 4.21741,11.9218 2.21741,14.5885 0.5,17.5C 0.166667,17.5 -0.166667,17.5 -0.5,17.5C -0.5,15.8333 -0.5,14.1667 -0.5,12.5C 1.10422,11.713 1.77089,10.3797 1.5,8.5C 3.39037,8.7035 4.89037,8.03683 6,6.5C 6.39877,6.72845 6.56544,7.06178 6.5,7.5 Z"/></g>
<g><path style="opacity:1" fill="#c58c77" d="M 9.5,4.5 C 12.221,4.96283 14.8877,5.6295 17.5,6.5C 18.038,8.11723 18.3713,9.7839 18.5,11.5C 14.4338,11.307 10.4338,11.6403 6.5,12.5C 6.5,11.5 6.5,10.5 6.5,9.5C 6.5,8.83333 6.5,8.16667 6.5,7.5C 8.18982,7.14363 9.18982,6.14363 9.5,4.5 Z"/></g>
<g><path style="opacity:0.964" fill="#a19183" d="M 6.5,9.5 C 6.5,10.5 6.5,11.5 6.5,12.5C 5.28006,14.2837 5.28006,15.9504 6.5,17.5C 6.63404,19.2915 6.30071,20.9582 5.5,22.5C 2.83333,21.8333 1.16667,20.1667 0.5,17.5C 2.21741,14.5885 4.21741,11.9218 6.5,9.5 Z"/></g>
<g><path style="opacity:0.812" fill="#a9947c" d="M 17.5,6.5 C 19.8333,7.83333 22.1667,9.16667 24.5,10.5C 24.5,12.5 24.5,14.5 24.5,16.5C 23.8333,17.1667 23.1667,17.8333 22.5,18.5C 21.9759,16.6943 21.3092,15.0276 20.5,13.5C 19.8333,12.8333 19.1667,12.1667 18.5,11.5C 18.3713,9.7839 18.038,8.11723 17.5,6.5 Z"/></g>
<g><path style="opacity:1" fill="#492f18" d="M 17.5,16.5 C 15.4727,16.3379 13.4727,16.5045 11.5,17C 10.944,17.3826 10.6107,17.8826 10.5,18.5C 9.5,17.8333 8.5,17.1667 7.5,16.5C 7.41423,15.5041 7.74756,14.6708 8.5,14C 12.351,11.8991 16.0177,12.0658 19.5,14.5C 18.7573,15.1818 18.0906,15.8485 17.5,16.5 Z"/></g>
<g><path style="opacity:1" fill="#673f32" d="M 18.5,11.5 C 19.1667,12.1667 19.8333,12.8333 20.5,13.5C 20.5,14.5 20.5,15.5 20.5,16.5C 19.5,16.5 18.5,16.5 17.5,16.5C 18.0906,15.8485 18.7573,15.1818 19.5,14.5C 16.0177,12.0658 12.351,11.8991 8.5,14C 7.74756,14.6708 7.41423,15.5041 7.5,16.5C 6.83333,16.5 6.5,16.8333 6.5,17.5C 5.28006,15.9504 5.28006,14.2837 6.5,12.5C 10.4338,11.6403 14.4338,11.307 18.5,11.5 Z"/></g>
<g><path style="opacity:1" fill="#ae8e5b" d="M 17.5,16.5 C 18.5215,20.4862 17.5215,21.1529 14.5,18.5C 13.209,18.2627 12.209,18.596 11.5,19.5C 10.8333,19.5 10.5,19.1667 10.5,18.5C 10.6107,17.8826 10.944,17.3826 11.5,17C 13.4727,16.5045 15.4727,16.3379 17.5,16.5 Z"/></g>
<g><path style="opacity:1" fill="#2f2920" d="M 14.5,18.5 C 14.5,19.8333 14.5,21.1667 14.5,22.5C 13.5,22.5 12.5,22.5 11.5,22.5C 11.5,21.5 11.5,20.5 11.5,19.5C 12.209,18.596 13.209,18.2627 14.5,18.5 Z"/></g>
<g><path style="opacity:1" fill="#826f51" d="M 20.5,13.5 C 21.3092,15.0276 21.9759,16.6943 22.5,18.5C 21.5501,21.1149 19.8835,23.1149 17.5,24.5C 16.5,24.5 15.5,24.5 14.5,24.5C 14.5,23.8333 14.5,23.1667 14.5,22.5C 14.5,21.1667 14.5,19.8333 14.5,18.5C 17.5215,21.1529 18.5215,20.4862 17.5,16.5C 18.5,16.5 19.5,16.5 20.5,16.5C 20.5,15.5 20.5,14.5 20.5,13.5 Z"/></g>
<g><path style="opacity:0.627" fill="#746040" d="M 7.5,16.5 C 8.5,17.1667 9.5,17.8333 10.5,18.5C 10.5,19.1667 10.8333,19.5 11.5,19.5C 11.5,20.5 11.5,21.5 11.5,22.5C 12.5,22.5 13.5,22.5 14.5,22.5C 14.5,23.1667 14.5,23.8333 14.5,24.5C 12.1667,24.5 9.83333,24.5 7.5,24.5C 6.83333,23.8333 6.16667,23.1667 5.5,22.5C 6.30071,20.9582 6.63404,19.2915 6.5,17.5C 6.5,16.8333 6.83333,16.5 7.5,16.5 Z"/></g>
</svg>
