<?xml version="1.0" encoding="UTF-8"?>
<!DOCTYPE svg PUBLIC "-//W3C//DTD SVG 1.1//EN" "http://www.w3.org/Graphics/SVG/1.1/DTD/svg11.dtd">
<svg xmlns="http://www.w3.org/2000/svg" version="1.1" width="25px" height="25px" style="shape-rendering:geometricPrecision; text-rendering:geometricPrecision; image-rendering:optimizeQuality; fill-rule:evenodd; clip-rule:evenodd" xmlns:xlink="http://www.w3.org/1999/xlink">
<g><path style="opacity:0.92" fill="#000000" d="M 6.5,-0.5 C 9.83333,-0.5 13.1667,-0.5 16.5,-0.5C 20.1921,1.19208 22.8588,3.85875 24.5,7.5C 24.5,10.5 24.5,13.5 24.5,16.5C 22.8333,20.1667 20.1667,22.8333 16.5,24.5C 13.5,24.5 10.5,24.5 7.5,24.5C 4.21573,22.883 1.54906,20.5497 -0.5,17.5C -0.5,14.1667 -0.5,10.8333 -0.5,7.5C 1.11698,4.21573 3.45031,1.54906 6.5,-0.5 Z"/></g>
<g><path style="opacity:1" fill="#b1b1b1" d="M 6.5,6.5 C 8.04814,6.82124 8.71481,7.82124 8.5,9.5C 10.8333,9.5 13.1667,9.5 15.5,9.5C 15.281,8.32496 15.6143,7.32496 16.5,6.5C 17.8333,10.1667 17.8333,13.8333 16.5,17.5C 15.6143,16.675 15.281,15.675 15.5,14.5C 13.1667,14.5 10.8333,14.5 8.5,14.5C 8.71901,15.675 8.38568,16.675 7.5,17.5C 6.51078,13.8927 6.17744,10.226 6.5,6.5 Z"/></g>
</svg>
