<?xml version="1.0" encoding="UTF-8"?>
<!DOCTYPE svg PUBLIC "-//W3C//DTD SVG 1.1//EN" "http://www.w3.org/Graphics/SVG/1.1/DTD/svg11.dtd">
<svg xmlns="http://www.w3.org/2000/svg" version="1.1" width="25px" height="25px" style="shape-rendering:geometricPrecision; text-rendering:geometricPrecision; image-rendering:optimizeQuality; fill-rule:evenodd; clip-rule:evenodd" xmlns:xlink="http://www.w3.org/1999/xlink">
<g><path style="opacity:0.817" fill="#01c6fc" d="M 9.5,-0.5 C 11.8333,-0.5 14.1667,-0.5 16.5,-0.5C 16.5,-0.166667 16.5,0.166667 16.5,0.5C 16.5,1.83333 16.5,3.16667 16.5,4.5C 14.305,2.57561 11.9717,0.908946 9.5,-0.5 Z"/></g>
<g><path style="opacity:0.829" fill="#01d1fd" d="M 16.5,0.5 C 17.1667,0.833333 17.8333,1.16667 18.5,1.5C 17.2185,4.93594 17.2185,8.26927 18.5,11.5C 18.2671,13.0618 17.6005,14.3951 16.5,15.5C 15.8333,14.1667 15.1667,12.8333 14.5,11.5C 15.4552,9.25429 16.1218,6.92095 16.5,4.5C 16.5,3.16667 16.5,1.83333 16.5,0.5 Z"/></g>
<g><path style="opacity:0.803" fill="#00a4fb" d="M 5.5,1.5 C 6.5,1.5 7.5,1.5 8.5,1.5C 8.5,3.16667 8.5,4.83333 8.5,6.5C 7.60895,5.89022 6.60895,5.55688 5.5,5.5C 5.5,4.16667 5.5,2.83333 5.5,1.5 Z"/></g>
<g><path style="opacity:0.815" fill="#00abfb" d="M 8.5,1.5 C 9.16667,1.5 9.5,1.83333 9.5,2.5C 9.19,5.7131 9.52333,8.7131 10.5,11.5C 10.1667,12.5 9.5,13.1667 8.5,13.5C 8.84316,11.5168 8.17649,10.1834 6.5,9.5C 7.16667,8.5 7.83333,7.5 8.5,6.5C 8.5,4.83333 8.5,3.16667 8.5,1.5 Z"/></g>
<g><path style="opacity:0.727" fill="#0093fa" d="M 5.5,1.5 C 5.5,2.83333 5.5,4.16667 5.5,5.5C 4.83333,6.5 4.16667,7.5 3.5,8.5C 2.83333,7.16667 2.16667,5.83333 1.5,4.5C 2.26231,2.73758 3.59565,1.73758 5.5,1.5 Z"/></g>
<g><path style="opacity:0.81" fill="#05b6fc" d="M 9.5,2.5 C 13.0584,4.99553 13.3918,7.99553 10.5,11.5C 9.52333,8.7131 9.19,5.7131 9.5,2.5 Z"/></g>
<g><path style="opacity:0.912" fill="#00d7fd" d="M 18.5,1.5 C 19.4916,1.32842 20.1583,1.66175 20.5,2.5C 19.4937,2.93767 19.4937,3.60433 20.5,4.5C 20.5905,7.15216 19.9238,9.48549 18.5,11.5C 17.2185,8.26927 17.2185,4.93594 18.5,1.5 Z"/></g>
<g><path style="opacity:0.963" fill="#0088f9" d="M 1.5,4.5 C 2.16667,5.83333 2.83333,7.16667 3.5,8.5C 1.04623,12.3129 1.04623,15.9795 3.5,19.5C 3.5,20.1667 3.16667,20.5 2.5,20.5C 1.72813,19.3065 0.728127,18.3065 -0.5,17.5C -0.5,14.1667 -0.5,10.8333 -0.5,7.5C 0.40128,6.70951 1.06795,5.70951 1.5,4.5 Z"/></g>
<g><path style="opacity:0.853" fill="#00ebfe" d="M 20.5,2.5 C 21.8333,3.83333 23.1667,5.16667 24.5,6.5C 24.5,9.83333 24.5,13.1667 24.5,16.5C 23.8333,17.1667 23.1667,17.8333 22.5,18.5C 22.5,16.1667 22.5,13.8333 22.5,11.5C 22.8294,8.77183 22.1628,6.4385 20.5,4.5C 19.4937,3.60433 19.4937,2.93767 20.5,2.5 Z"/></g>
<g><path style="opacity:0.849" fill="#02a9fb" d="M 6.5,9.5 C 8.17649,10.1834 8.84316,11.5168 8.5,13.5C 7.98617,15.5116 7.8195,17.5116 8,19.5C 9.96514,21.5503 12.1318,23.217 14.5,24.5C 12.1667,24.5 9.83333,24.5 7.5,24.5C 7.16667,23.8333 6.83333,23.1667 6.5,22.5C 6.81497,18.6286 6.48164,14.9619 5.5,11.5C 5.83333,10.8333 6.16667,10.1667 6.5,9.5 Z"/></g>
<g><path style="opacity:0.777" fill="#009ffb" d="M 5.5,11.5 C 6.48164,14.9619 6.81497,18.6286 6.5,22.5C 5.50838,22.6716 4.84171,22.3382 4.5,21.5C 5.83333,18.8333 5.83333,16.1667 4.5,13.5C 4.83333,12.8333 5.16667,12.1667 5.5,11.5 Z"/></g>
<g><path style="opacity:0.945" fill="#02c4fb" d="M 14.5,11.5 C 15.1667,12.8333 15.8333,14.1667 16.5,15.5C 16.1667,16.1667 15.8333,16.8333 15.5,17.5C 14.5655,18.5676 14.2322,19.901 14.5,21.5C 10.58,18.3318 10.58,14.9984 14.5,11.5 Z"/></g>
<g><path style="opacity:0.885" fill="#00dffc" d="M 22.5,11.5 C 22.5,13.8333 22.5,16.1667 22.5,18.5C 22.0334,21.2974 20.3667,22.6308 17.5,22.5C 17.5,21.1667 17.5,19.8333 17.5,18.5C 19.9145,16.66 21.5812,14.3267 22.5,11.5 Z"/></g>
<g><path style="opacity:0.642" fill="#0099fb" d="M 4.5,13.5 C 5.83333,16.1667 5.83333,18.8333 4.5,21.5C 3.50838,21.6716 2.84171,21.3382 2.5,20.5C 3.16667,20.5 3.5,20.1667 3.5,19.5C 3.51715,17.4352 3.85048,15.4352 4.5,13.5 Z"/></g>
<g><path style="opacity:0.952" fill="#00cafc" d="M 15.5,17.5 C 16.1667,17.8333 16.8333,18.1667 17.5,18.5C 17.5,19.8333 17.5,21.1667 17.5,22.5C 16.209,22.7373 15.209,22.404 14.5,21.5C 14.2322,19.901 14.5655,18.5676 15.5,17.5 Z"/></g>
</svg>
