<?xml version="1.0" encoding="UTF-8"?>
<!DOCTYPE svg PUBLIC "-//W3C//DTD SVG 1.1//EN" "http://www.w3.org/Graphics/SVG/1.1/DTD/svg11.dtd">
<svg xmlns="http://www.w3.org/2000/svg" version="1.1" width="25px" height="25px" style="shape-rendering:geometricPrecision; text-rendering:geometricPrecision; image-rendering:optimizeQuality; fill-rule:evenodd; clip-rule:evenodd" xmlns:xlink="http://www.w3.org/1999/xlink">
<g><path style="opacity:0.995" fill="#ff82e0" d="M 9.5,-0.5 C 10.1667,-0.5 10.8333,-0.5 11.5,-0.5C 11.5,7.83333 11.5,16.1667 11.5,24.5C 10.8333,24.5 10.1667,24.5 9.5,24.5C 9.5,16.1667 9.5,7.83333 9.5,-0.5 Z"/></g>
<g><path style="opacity:0.996" fill="#ff89ed" d="M 11.5,-0.5 C 12.1667,-0.5 12.8333,-0.5 13.5,-0.5C 13.5,7.83333 13.5,16.1667 13.5,24.5C 12.8333,24.5 12.1667,24.5 11.5,24.5C 11.5,16.1667 11.5,7.83333 11.5,-0.5 Z"/></g>
<g><path style="opacity:0.969" fill="#ff90fa" d="M 13.5,-0.5 C 14.1667,-0.5 14.8333,-0.5 15.5,-0.5C 15.5,7.83333 15.5,16.1667 15.5,24.5C 14.8333,24.5 14.1667,24.5 13.5,24.5C 13.5,16.1667 13.5,7.83333 13.5,-0.5 Z"/></g>
<g><path style="opacity:0.897" fill="#742998" d="M 20.5,2.5 C 22.1942,3.52743 23.5275,4.86076 24.5,6.5C 24.5,9.83333 24.5,13.1667 24.5,16.5C 23.407,18.3492 22.0737,20.0158 20.5,21.5C 20.5,15.1667 20.5,8.83333 20.5,2.5 Z"/></g>
<g><path style="opacity:1" fill="#ff6cb5" d="M 5.5,0.5 C 5.5,7.83333 5.5,15.1667 5.5,22.5C 4.50838,22.6716 3.84171,22.3382 3.5,21.5C 3.5,15.1667 3.5,8.83333 3.5,2.5C 3.83333,1.5 4.5,0.833333 5.5,0.5 Z"/></g>
<g><path style="opacity:0.816" fill="#ff5f9e" d="M 0.5,6.5 C 1.48489,10.6344 1.81822,14.9677 1.5,19.5C 0.833333,18.8333 0.166667,18.1667 -0.5,17.5C -0.5,14.1667 -0.5,10.8333 -0.5,7.5C 0.166667,7.5 0.5,7.16667 0.5,6.5 Z"/></g>
<g><path style="opacity:1" fill="#ff7bd2" d="M 6.5,0.5 C 6.5,0.166667 6.5,-0.166667 6.5,-0.5C 7.5,-0.5 8.5,-0.5 9.5,-0.5C 9.5,7.83333 9.5,16.1667 9.5,24.5C 8.83333,24.5 8.16667,24.5 7.5,24.5C 7.5,24.1667 7.5,23.8333 7.5,23.5C 7.82536,15.6484 7.49203,7.98178 6.5,0.5 Z"/></g>
<g><path style="opacity:0.999" fill="#db78e5" d="M 15.5,-0.5 C 15.8333,-0.5 16.1667,-0.5 16.5,-0.5C 17.1667,0.166667 17.8333,0.833333 18.5,1.5C 18.5,8.83333 18.5,16.1667 18.5,23.5C 17.8333,23.5 17.5,23.8333 17.5,24.5C 16.8333,24.5 16.1667,24.5 15.5,24.5C 15.5,16.1667 15.5,7.83333 15.5,-0.5 Z"/></g>
<g><path style="opacity:1" fill="#ff64a8" d="M 3.5,2.5 C 3.5,8.83333 3.5,15.1667 3.5,21.5C 2.5,21.1667 1.83333,20.5 1.5,19.5C 1.81822,14.9677 1.48489,10.6344 0.5,6.5C 1.02561,4.76967 2.02561,3.43634 3.5,2.5 Z"/></g>
<g><path style="opacity:0.945" fill="#ff73c3" d="M 5.5,0.5 C 5.83333,0.5 6.16667,0.5 6.5,0.5C 7.49203,7.98178 7.82536,15.6484 7.5,23.5C 6.50838,23.6716 5.84171,23.3382 5.5,22.5C 5.5,15.1667 5.5,7.83333 5.5,0.5 Z"/></g>
<g><path style="opacity:1" fill="#913fae" d="M 18.5,1.5 C 19.4916,1.32842 20.1583,1.66175 20.5,2.5C 20.5,8.83333 20.5,15.1667 20.5,21.5C 20.1667,22.5 19.5,23.1667 18.5,23.5C 18.5,16.1667 18.5,8.83333 18.5,1.5 Z"/></g>
</svg>
