<?xml version="1.0" encoding="UTF-8"?>
<!DOCTYPE svg PUBLIC "-//W3C//DTD SVG 1.1//EN" "http://www.w3.org/Graphics/SVG/1.1/DTD/svg11.dtd">
<svg xmlns="http://www.w3.org/2000/svg" version="1.1" width="25px" height="25px" style="shape-rendering:geometricPrecision; text-rendering:geometricPrecision; image-rendering:optimizeQuality; fill-rule:evenodd; clip-rule:evenodd" xmlns:xlink="http://www.w3.org/1999/xlink">
<g><path style="opacity:1" fill="#45289b" d="M 11.5,0.5 C 11.5,0.166667 11.5,-0.166667 11.5,-0.5C 13.1667,-0.5 14.8333,-0.5 16.5,-0.5C 16.5,-0.166667 16.5,0.166667 16.5,0.5C 16.5,0.833333 16.5,1.16667 16.5,1.5C 15.8333,2.83333 15.1667,4.16667 14.5,5.5C 14.1667,5.5 13.8333,5.5 13.5,5.5C 13.5,5.16667 13.5,4.83333 13.5,4.5C 13.33,3.17793 13.6634,2.01127 14.5,1C 13.552,0.517215 12.552,0.350549 11.5,0.5 Z"/></g>
<g><path style="opacity:1" fill="#523ab5" d="M 8.5,-0.5 C 9.5,-0.5 10.5,-0.5 11.5,-0.5C 11.5,-0.166667 11.5,0.166667 11.5,0.5C 9.82351,1.18342 9.15684,2.51676 9.5,4.5C 10.8333,4.5 12.1667,4.5 13.5,4.5C 13.5,4.83333 13.5,5.16667 13.5,5.5C 12.5,5.5 11.5,5.5 10.5,5.5C 9.39105,5.55688 8.39105,5.89022 7.5,6.5C 7.16667,6.5 6.83333,6.5 6.5,6.5C 6.5,6.16667 6.5,5.83333 6.5,5.5C 8.08083,3.85834 8.7475,1.85834 8.5,-0.5 Z"/></g>
<g><path style="opacity:1" fill="#5a3da1" d="M 16.5,1.5 C 16.5271,3.19928 17.1938,4.53261 18.5,5.5C 18.5,6.83333 17.8333,7.5 16.5,7.5C 15.5,7.16667 14.8333,6.5 14.5,5.5C 15.1667,4.16667 15.8333,2.83333 16.5,1.5 Z"/></g>
<g><path style="opacity:1" fill="#44238f" d="M 16.5,1.5 C 16.5,1.16667 16.5,0.833333 16.5,0.5C 19.7322,0.771706 21.7322,2.43837 22.5,5.5C 21.8333,5.16667 21.1667,4.83333 20.5,4.5C 19.5637,3.02561 18.2303,2.02561 16.5,1.5 Z"/></g>
<g><path style="opacity:1" fill="#563cc1" d="M 6.5,-0.5 C 7.16667,-0.5 7.83333,-0.5 8.5,-0.5C 8.7475,1.85834 8.08083,3.85834 6.5,5.5C 6.16667,5.5 5.83333,5.5 5.5,5.5C 6.3543,3.96497 6.3543,2.63163 5.5,1.5C 5.83333,0.833333 6.16667,0.166667 6.5,-0.5 Z"/></g>
<g><path style="opacity:1" fill="#462aa4" d="M 11.5,0.5 C 12.552,0.350549 13.552,0.517215 14.5,1C 13.6634,2.01127 13.33,3.17793 13.5,4.5C 12.1667,4.5 10.8333,4.5 9.5,4.5C 9.15684,2.51676 9.82351,1.18342 11.5,0.5 Z"/></g>
<g><path style="opacity:1" fill="#3c1b8d" d="M 16.5,1.5 C 18.2303,2.02561 19.5637,3.02561 20.5,4.5C 20.5,4.83333 20.5,5.16667 20.5,5.5C 19.8333,5.5 19.1667,5.5 18.5,5.5C 17.1938,4.53261 16.5271,3.19928 16.5,1.5 Z"/></g>
<g><path style="opacity:1" fill="#5c45cf" d="M 5.5,1.5 C 6.3543,2.63163 6.3543,3.96497 5.5,5.5C 3.86124,5.92582 2.52791,5.92582 1.5,5.5C 1.83333,3.16667 3.16667,1.83333 5.5,1.5 Z"/></g>
<g><path style="opacity:1" fill="#341780" d="M 20.5,4.5 C 21.1667,4.83333 21.8333,5.16667 22.5,5.5C 22.3713,7.2161 22.038,8.88277 21.5,10.5C 21.1667,10.5 20.8333,10.5 20.5,10.5C 20.5,8.83333 20.5,7.16667 20.5,5.5C 20.5,5.16667 20.5,4.83333 20.5,4.5 Z"/></g>
<g><path style="opacity:1" fill="#5546c9" d="M 1.5,5.5 C 2.52791,5.92582 3.86124,5.92582 5.5,5.5C 5.83333,5.5 6.16667,5.5 6.5,5.5C 6.5,5.83333 6.5,6.16667 6.5,6.5C 4.75083,8.5314 2.75083,8.86474 0.5,7.5C 0.32842,6.50838 0.661754,5.84171 1.5,5.5 Z"/></g>
<g><path style="opacity:1" fill="#391e89" d="M 18.5,5.5 C 19.1667,5.5 19.8333,5.5 20.5,5.5C 20.5,7.16667 20.5,8.83333 20.5,10.5C 20.1667,10.5 19.8333,10.5 19.5,10.5C 19.1583,9.66175 18.4916,9.32842 17.5,9.5C 17.5,8.83333 17.1667,8.5 16.5,8.5C 16.5,8.16667 16.5,7.83333 16.5,7.5C 17.8333,7.5 18.5,6.83333 18.5,5.5 Z"/></g>
<g><path style="opacity:1" fill="#5349c0" d="M 6.5,6.5 C 6.83333,6.5 7.16667,6.5 7.5,6.5C 7.5,7.16667 7.5,7.83333 7.5,8.5C 6.66175,8.84171 6.32842,9.50838 6.5,10.5C 4.28298,9.63137 1.94965,9.29803 -0.5,9.5C -0.5,8.83333 -0.5,8.16667 -0.5,7.5C -0.166667,7.5 0.166667,7.5 0.5,7.5C 2.75083,8.86474 4.75083,8.5314 6.5,6.5 Z"/></g>
<g><path style="opacity:1" fill="#d5d0ec" d="M 10.5,5.5 C 11.5,6.16667 12.5,6.83333 13.5,7.5C 11.7085,7.36596 10.0418,7.69929 8.5,8.5C 8.16667,8.5 7.83333,8.5 7.5,8.5C 7.5,7.83333 7.5,7.16667 7.5,6.5C 8.39105,5.89022 9.39105,5.55688 10.5,5.5 Z"/></g>
<g><path style="opacity:1" fill="#473baa" d="M 13.5,7.5 C 14.4345,8.56764 14.7678,9.90097 14.5,11.5C 12.6112,10.6201 10.6112,10.6201 8.5,11.5C 8.5,10.5 8.5,9.5 8.5,8.5C 10.0418,7.69929 11.7085,7.36596 13.5,7.5 Z"/></g>
<g><path style="opacity:1" fill="#e0ddef" d="M 10.5,5.5 C 11.5,5.5 12.5,5.5 13.5,5.5C 13.8333,5.5 14.1667,5.5 14.5,5.5C 14.8333,6.5 15.5,7.16667 16.5,7.5C 16.5,7.83333 16.5,8.16667 16.5,8.5C 16.5,10.1667 16.5,11.8333 16.5,13.5C 15.8333,13.5 15.5,13.8333 15.5,14.5C 15.1667,14.5 14.8333,14.5 14.5,14.5C 14.5,13.8333 14.1667,13.5 13.5,13.5C 13.8333,12.8333 14.1667,12.1667 14.5,11.5C 14.7678,9.90097 14.4345,8.56764 13.5,7.5C 12.5,6.83333 11.5,6.16667 10.5,5.5 Z"/></g>
<g><path style="opacity:1" fill="#341b7f" d="M 22.5,5.5 C 23.1667,5.83333 23.8333,6.16667 24.5,6.5C 24.5,7.83333 24.5,9.16667 24.5,10.5C 23.2022,11.1157 22.2022,11.1157 21.5,10.5C 22.038,8.88277 22.3713,7.2161 22.5,5.5 Z"/></g>
<g><path style="opacity:1" fill="#4f50c0" d="M -0.5,9.5 C 1.94965,9.29803 4.28298,9.63137 6.5,10.5C 6.5,10.8333 6.5,11.1667 6.5,11.5C 4.21507,10.4537 1.88174,10.4537 -0.5,11.5C -0.5,10.8333 -0.5,10.1667 -0.5,9.5 Z"/></g>
<g><path style="opacity:1" fill="#4c56c0" d="M 6.5,11.5 C 6.5,11.8333 6.5,12.1667 6.5,12.5C 6.5,13.1667 6.16667,13.5 5.5,13.5C 3.56475,12.8505 1.56475,12.5172 -0.5,12.5C -0.5,12.1667 -0.5,11.8333 -0.5,11.5C 1.88174,10.4537 4.21507,10.4537 6.5,11.5 Z"/></g>
<g><path style="opacity:1" fill="#4c47af" d="M 14.5,11.5 C 14.1667,12.1667 13.8333,12.8333 13.5,13.5C 12.1667,13.5 10.8333,13.5 9.5,13.5C 9.16667,12.8333 8.83333,12.1667 8.5,11.5C 10.6112,10.6201 12.6112,10.6201 14.5,11.5 Z"/></g>
<g><path style="opacity:1" fill="#322187" d="M 19.5,10.5 C 19.8333,10.5 20.1667,10.5 20.5,10.5C 20.8333,10.5 21.1667,10.5 21.5,10.5C 22.2022,11.1157 23.2022,11.1157 24.5,10.5C 24.5,11.5 24.5,12.5 24.5,13.5C 21.715,14.0838 20.0483,13.0838 19.5,10.5 Z"/></g>
<g><path style="opacity:1" fill="#4c63c4" d="M -0.5,12.5 C 1.56475,12.5172 3.56475,12.8505 5.5,13.5C 5.83333,14.1667 6.16667,14.8333 6.5,15.5C 4.19438,15.0074 1.86105,14.6741 -0.5,14.5C -0.5,13.8333 -0.5,13.1667 -0.5,12.5 Z"/></g>
<g><path style="opacity:1" fill="#485ebe" d="M 6.5,12.5 C 7.5,13.1667 8.5,13.8333 9.5,14.5C 9.5,15.1667 9.83333,15.5 10.5,15.5C 10.8333,16.5 11.5,17.1667 12.5,17.5C 11.8902,18.391 11.5569,19.391 11.5,20.5C 9.82073,19.0837 8.15407,17.7503 6.5,16.5C 6.5,16.1667 6.5,15.8333 6.5,15.5C 6.16667,14.8333 5.83333,14.1667 5.5,13.5C 6.16667,13.5 6.5,13.1667 6.5,12.5 Z"/></g>
<g><path style="opacity:1" fill="#e4e4f5" d="M 7.5,8.5 C 7.83333,8.5 8.16667,8.5 8.5,8.5C 8.5,9.5 8.5,10.5 8.5,11.5C 8.83333,12.1667 9.16667,12.8333 9.5,13.5C 9.5,13.8333 9.5,14.1667 9.5,14.5C 8.5,13.8333 7.5,13.1667 6.5,12.5C 6.5,12.1667 6.5,11.8333 6.5,11.5C 6.5,11.1667 6.5,10.8333 6.5,10.5C 6.32842,9.50838 6.66175,8.84171 7.5,8.5 Z"/></g>
<g><path style="opacity:1" fill="#e7e8f5" d="M 9.5,13.5 C 10.8333,13.5 12.1667,13.5 13.5,13.5C 14.1667,13.5 14.5,13.8333 14.5,14.5C 13.2921,15.2341 11.9587,15.5674 10.5,15.5C 9.83333,15.5 9.5,15.1667 9.5,14.5C 9.5,14.1667 9.5,13.8333 9.5,13.5 Z"/></g>
<g><path style="opacity:1" fill="#3f359b" d="M 16.5,8.5 C 17.1667,8.5 17.5,8.83333 17.5,9.5C 17.7036,11.6854 18.3702,13.6854 19.5,15.5C 18.5,14.8333 17.5,14.1667 16.5,13.5C 16.5,11.8333 16.5,10.1667 16.5,8.5 Z"/></g>
<g><path style="opacity:1" fill="#342a92" d="M 17.5,9.5 C 18.4916,9.32842 19.1583,9.66175 19.5,10.5C 20.0483,13.0838 21.715,14.0838 24.5,13.5C 24.5,14.5 24.5,15.5 24.5,16.5C 24.1667,16.5 23.8333,16.5 23.5,16.5C 22.4324,15.5655 21.099,15.2322 19.5,15.5C 18.3702,13.6854 17.7036,11.6854 17.5,9.5 Z"/></g>
<g><path style="opacity:1" fill="#4b6cc5" d="M -0.5,14.5 C 1.86105,14.6741 4.19438,15.0074 6.5,15.5C 6.5,15.8333 6.5,16.1667 6.5,16.5C 5.5,16.5 4.5,16.5 3.5,16.5C 2.16667,16.5 0.833333,16.5 -0.5,16.5C -0.5,15.8333 -0.5,15.1667 -0.5,14.5 Z"/></g>
<g><path style="opacity:1" fill="#434fb2" d="M 14.5,14.5 C 14.8333,14.5 15.1667,14.5 15.5,14.5C 16.1667,14.5 16.5,14.8333 16.5,15.5C 14.9382,15.7329 13.6049,16.3995 12.5,17.5C 11.5,17.1667 10.8333,16.5 10.5,15.5C 11.9587,15.5674 13.2921,15.2341 14.5,14.5 Z"/></g>
<g><path style="opacity:1" fill="#3635a0" d="M 15.5,14.5 C 15.5,13.8333 15.8333,13.5 16.5,13.5C 17.5,14.1667 18.5,14.8333 19.5,15.5C 21.099,15.2322 22.4324,15.5655 23.5,16.5C 23.6716,17.4916 23.3382,18.1583 22.5,18.5C 21.4479,16.744 19.7812,16.0773 17.5,16.5C 17.5,15.8333 17.1667,15.5 16.5,15.5C 16.5,14.8333 16.1667,14.5 15.5,14.5 Z"/></g>
<g><path style="opacity:1" fill="#d2d7ee" d="M 16.5,15.5 C 16.4431,16.609 16.1098,17.609 15.5,18.5C 14.5,19.1667 13.5,19.8333 12.5,20.5C 12.1667,20.5 11.8333,20.5 11.5,20.5C 11.5569,19.391 11.8902,18.391 12.5,17.5C 13.6049,16.3995 14.9382,15.7329 16.5,15.5 Z"/></g>
<g><path style="opacity:1" fill="#393faf" d="M 17.5,16.5 C 19.7812,16.0773 21.4479,16.744 22.5,18.5C 22.2624,20.4044 21.2624,21.7377 19.5,22.5C 19.5,22.1667 19.5,21.8333 19.5,21.5C 20.9143,19.4017 20.2476,18.4017 17.5,18.5C 17.5,17.8333 17.5,17.1667 17.5,16.5 Z"/></g>
<g><path style="opacity:1" fill="#477cc9" d="M -0.5,17.5 C -0.5,17.1667 -0.5,16.8333 -0.5,16.5C 0.833333,16.5 2.16667,16.5 3.5,16.5C 4.40058,18.7271 6.06725,19.7271 8.5,19.5C 8.76781,21.099 8.43448,22.4324 7.5,23.5C 3.95445,22.6149 1.28779,20.6149 -0.5,17.5 Z"/></g>
<g><path style="opacity:1" fill="#426dc4" d="M 3.5,16.5 C 4.5,16.5 5.5,16.5 6.5,16.5C 8.15407,17.7503 9.82073,19.0837 11.5,20.5C 11.8333,20.5 12.1667,20.5 12.5,20.5C 12.4142,21.4959 12.7476,22.3292 13.5,23C 12.2625,23.2321 11.2625,23.7321 10.5,24.5C 9.5,24.5 8.5,24.5 7.5,24.5C 7.5,24.1667 7.5,23.8333 7.5,23.5C 8.43448,22.4324 8.76781,21.099 8.5,19.5C 6.06725,19.7271 4.40058,18.7271 3.5,16.5 Z"/></g>
<g><path style="opacity:1" fill="#3b49bb" d="M 17.5,18.5 C 20.2476,18.4017 20.9143,19.4017 19.5,21.5C 16.9486,21.3318 16.2819,20.3318 17.5,18.5 Z"/></g>
<g><path style="opacity:1" fill="#3c5abb" d="M 15.5,18.5 C 16.3799,20.6112 16.3799,22.6112 15.5,24.5C 13.8333,24.5 12.1667,24.5 10.5,24.5C 11.2625,23.7321 12.2625,23.2321 13.5,23C 12.7476,22.3292 12.4142,21.4959 12.5,20.5C 13.5,19.8333 14.5,19.1667 15.5,18.5 Z"/></g>
<g><path style="opacity:1" fill="#3a4eb8" d="M 16.5,15.5 C 17.1667,15.5 17.5,15.8333 17.5,16.5C 17.5,17.1667 17.5,17.8333 17.5,18.5C 16.2819,20.3318 16.9486,21.3318 19.5,21.5C 19.5,21.8333 19.5,22.1667 19.5,22.5C 18.2905,22.9321 17.2905,23.5987 16.5,24.5C 16.1667,24.5 15.8333,24.5 15.5,24.5C 16.3799,22.6112 16.3799,20.6112 15.5,18.5C 16.1098,17.609 16.4431,16.609 16.5,15.5 Z"/></g>
</svg>
