<?xml version="1.0" encoding="UTF-8"?>
<!DOCTYPE svg PUBLIC "-//W3C//DTD SVG 1.1//EN" "http://www.w3.org/Graphics/SVG/1.1/DTD/svg11.dtd">
<svg xmlns="http://www.w3.org/2000/svg" version="1.1" width="25px" height="25px" style="shape-rendering:geometricPrecision; text-rendering:geometricPrecision; image-rendering:optimizeQuality; fill-rule:evenodd; clip-rule:evenodd" xmlns:xlink="http://www.w3.org/1999/xlink">
<g><path style="opacity:0.852" fill="#242425" d="M 8.5,-0.5 C 11.1667,-0.5 13.8333,-0.5 16.5,-0.5C 19.7843,1.11698 22.4509,3.45031 24.5,6.5C 24.5,9.83333 24.5,13.1667 24.5,16.5C 22.883,19.7843 20.5497,22.4509 17.5,24.5C 14.1667,24.5 10.8333,24.5 7.5,24.5C 7.5,24.1667 7.5,23.8333 7.5,23.5C 10.3854,23.8064 13.0521,23.4731 15.5,22.5C 16.1534,21.1932 16.8201,19.8599 17.5,18.5C 13.8212,17.1509 12.1545,14.4842 12.5,10.5C 13.2389,10.631 13.9056,10.4643 14.5,10C 13.3044,9.34569 13.3044,8.84569 14.5,8.5C 20.5858,12.9741 21.5858,12.3074 17.5,6.5C 17.1463,2.15359 14.813,0.48692 10.5,1.5C 9.83333,1.5 9.16667,1.5 8.5,1.5C 8.5,0.833333 8.5,0.166667 8.5,-0.5 Z"/></g>
<g><path style="opacity:0.705" fill="#1d2026" d="M 6.5,-0.5 C 7.16667,-0.5 7.83333,-0.5 8.5,-0.5C 8.5,0.166667 8.5,0.833333 8.5,1.5C 8.35917,3.06812 8.02584,4.73479 7.5,6.5C 7.85549,7.5223 8.52216,8.18897 9.5,8.5C 8.06694,10.5582 7.40027,12.8915 7.5,15.5C 6.31725,14.4955 4.98392,13.6622 3.5,13C 4.62226,11.3866 4.12226,10.2199 2,9.5C 0.438533,14.7109 2.27187,18.0443 7.5,19.5C 8.56236,18.5754 8.56236,17.5754 7.5,16.5C 12.1587,16.1369 14.8254,18.1369 15.5,22.5C 13.0521,23.4731 10.3854,23.8064 7.5,23.5C 3.95445,22.6149 1.28779,20.6149 -0.5,17.5C -0.5,14.1667 -0.5,10.8333 -0.5,7.5C 1.11698,4.21573 3.45031,1.54906 6.5,-0.5 Z"/></g>
<g><path style="opacity:1" fill="#76421c" d="M 8.5,1.5 C 9.16667,1.5 9.83333,1.5 10.5,1.5C 8.93966,3.12936 9.27299,4.29602 11.5,5C 10.0267,5.70956 9.36007,6.87623 9.5,8.5C 8.52216,8.18897 7.85549,7.5223 7.5,6.5C 8.02584,4.73479 8.35917,3.06812 8.5,1.5 Z"/></g>
<g><path style="opacity:1" fill="#a68743" d="M 17.5,6.5 C 21.5858,12.3074 20.5858,12.9741 14.5,8.5C 13.3044,8.84569 13.3044,9.34569 14.5,10C 13.9056,10.4643 13.2389,10.631 12.5,10.5C 12.2939,6.42417 13.9606,5.09083 17.5,6.5 Z"/></g>
<g><path style="opacity:1" fill="#815518" d="M 7.5,15.5 C 7.5,15.8333 7.5,16.1667 7.5,16.5C 8.56236,17.5754 8.56236,18.5754 7.5,19.5C 2.27187,18.0443 0.438533,14.7109 2,9.5C 4.12226,10.2199 4.62226,11.3866 3.5,13C 4.98392,13.6622 6.31725,14.4955 7.5,15.5 Z"/></g>
<g><path style="opacity:1" fill="#2a5171" d="M 10.5,1.5 C 14.813,0.48692 17.1463,2.15359 17.5,6.5C 13.9606,5.09083 12.2939,6.42417 12.5,10.5C 12.1545,14.4842 13.8212,17.1509 17.5,18.5C 16.8201,19.8599 16.1534,21.1932 15.5,22.5C 14.8254,18.1369 12.1587,16.1369 7.5,16.5C 7.5,16.1667 7.5,15.8333 7.5,15.5C 7.40027,12.8915 8.06694,10.5582 9.5,8.5C 9.36007,6.87623 10.0267,5.70956 11.5,5C 9.27299,4.29602 8.93966,3.12936 10.5,1.5 Z"/></g>
<g><path style="opacity:1" fill="#9facab" d="M 16.5,12.5 C 17.5,12.5 18.5,12.5 19.5,12.5C 19.5,13.8333 19.5,15.1667 19.5,16.5C 18.448,16.6495 17.448,16.4828 16.5,16C 17.1712,15.0138 17.1712,13.8471 16.5,12.5 Z"/></g>
</svg>
