<?xml version="1.0" encoding="UTF-8"?>
<!DOCTYPE svg PUBLIC "-//W3C//DTD SVG 1.1//EN" "http://www.w3.org/Graphics/SVG/1.1/DTD/svg11.dtd">
<svg xmlns="http://www.w3.org/2000/svg" version="1.1" width="256px" height="182px" style="shape-rendering:geometricPrecision; text-rendering:geometricPrecision; image-rendering:optimizeQuality; fill-rule:evenodd; clip-rule:evenodd" xmlns:xlink="http://www.w3.org/1999/xlink">
<g><path style="opacity:1" fill="#131313" d="M 4.5,-0.5 C 86.1667,-0.5 167.833,-0.5 249.5,-0.5C 251.475,1.13696 253.475,2.80363 255.5,4.5C 255.5,5.83333 255.5,7.16667 255.5,8.5C 250.056,7.96478 245.056,7.63145 240.5,7.5C 239.386,8.72296 239.219,10.0563 240,11.5C 240.333,10.8333 240.667,10.1667 241,9.5C 241.519,10.5156 242.353,11.1822 243.5,11.5C 247.368,10.67 251.368,10.3367 255.5,10.5C 255.5,27.8333 255.5,45.1667 255.5,62.5C 253.05,62.8743 252.05,64.3743 252.5,67C 252.05,69.6257 253.05,71.1257 255.5,71.5C 255.5,106.167 255.5,140.833 255.5,175.5C 253.863,177.475 252.196,179.475 250.5,181.5C 168.833,181.5 87.1667,181.5 5.5,181.5C 3.52483,179.863 1.52483,178.196 -0.5,176.5C -0.5,156.167 -0.5,135.833 -0.5,115.5C 8.64978,112.097 16.9831,107.43 24.5,101.5C 31.4443,96.8888 37.7776,91.5555 43.5,85.5C 48.0812,80.374 52.4146,75.0406 56.5,69.5C 67.5846,54.9871 75.2513,38.6538 79.5,20.5C 71.5255,20.4417 63.8588,20.4417 56.5,20.5C 54.2075,20.2436 52.0408,20.5769 50,21.5C 43.2993,38.9177 33.1326,53.9177 19.5,66.5C 13.399,72.2694 6.73237,77.2694 -0.5,81.5C -0.5,56.1667 -0.5,30.8333 -0.5,5.5C 1.13696,3.52483 2.80363,1.52483 4.5,-0.5 Z"/></g>
<g><path style="opacity:1" fill="#888888" d="M 24.5,6.5 C 25.8333,6.5 27.1667,6.5 28.5,6.5C 28.3505,7.55198 28.5172,8.55198 29,9.5C 30.4007,7.80784 32.2341,7.14118 34.5,7.5C 34.5,9.16667 34.5,10.8333 34.5,12.5C 31.1667,11.1667 27.8333,11.1667 24.5,12.5C 24.5,10.5 24.5,8.5 24.5,6.5 Z"/></g>
<g><path style="opacity:1" fill="#969696" d="M 40.5,6.5 C 43.8122,6.36301 46.6455,7.36301 49,9.5C 49.3333,8.83333 49.6667,8.16667 50,7.5C 50.7805,8.94371 50.6139,10.277 49.5,11.5C 47.2635,11.5835 44.9302,11.2502 42.5,10.5C 37.8459,13.9115 35.6793,12.9115 36,7.5C 36.4828,8.44802 36.6495,9.44802 36.5,10.5C 37.5,10.5 38.5,10.5 39.5,10.5C 39.4326,9.04125 39.7659,7.70792 40.5,6.5 Z"/></g>
<g><path style="opacity:1" fill="#b3b3b4" d="M 52.5,6.5 C 56.0714,6.40766 57.2381,8.07432 56,11.5C 54.6667,10.1667 53.3333,10.1667 52,11.5C 51.3603,9.73498 51.5269,8.06831 52.5,6.5 Z"/></g>
<g><path style="opacity:1" fill="#348686" d="M 19.5,12.5 C 18.5977,10.6593 17.2644,9.32599 15.5,8.5C 15.9704,7.30652 16.9704,6.63985 18.5,6.5C 19.5,6.66667 20.5,6.83333 21.5,7C 20.4267,8.25042 20.4267,9.58375 21.5,11C 21.1639,12.0299 20.4972,12.5299 19.5,12.5 Z"/></g>
<g><path style="opacity:1" fill="#3c3d42" d="M 162.5,7.5 C 170.821,7.21669 179.155,7.55002 187.5,8.5C 187.349,11.7181 186.516,12.0515 185,9.5C 184.612,10.428 183.945,11.0946 183,11.5C 176.66,10.8449 170.494,10.8449 164.5,11.5C 162.889,10.6798 162.222,9.34642 162.5,7.5 Z"/></g>
<g><path style="opacity:1" fill="#3a3c40" d="M 203.5,7.5 C 205.752,8.33313 207.919,8.33313 210,7.5C 210.915,8.32791 211.581,9.32791 212,10.5C 212.368,9.09001 213.201,8.09001 214.5,7.5C 217.421,8.40661 220.421,8.73994 223.5,8.5C 223.5,9.5 223.5,10.5 223.5,11.5C 221.876,11.6399 220.71,10.9733 220,9.5C 219.612,10.428 218.945,11.0946 218,11.5C 213.285,11.1505 208.785,11.1505 204.5,11.5C 203.571,10.3112 203.238,8.97782 203.5,7.5 Z"/></g>
<g><path style="opacity:1" fill="#3c3e43" d="M 255.5,8.5 C 255.5,9.16667 255.5,9.83333 255.5,10.5C 251.368,10.3367 247.368,10.67 243.5,11.5C 242.353,11.1822 241.519,10.5156 241,9.5C 240.667,10.1667 240.333,10.8333 240,11.5C 239.219,10.0563 239.386,8.72296 240.5,7.5C 245.056,7.63145 250.056,7.96478 255.5,8.5 Z"/></g>
<g><path style="opacity:1" fill="#5c43a3" d="M 15.5,8.5 C 17.2644,9.32599 18.5977,10.6593 19.5,12.5C 17.8008,12.6602 16.1341,12.4935 14.5,12C 15.0795,10.6651 15.4128,9.49845 15.5,8.5 Z"/></g>
<g><path style="opacity:1" fill="#3b3c41" d="M 134.5,7.5 C 135.931,7.88066 136.764,8.88066 137,10.5C 138.525,9.27988 140.359,8.61322 142.5,8.5C 144.167,8.83333 145.833,9.16667 147.5,9.5C 146.431,9.63986 145.264,9.63986 144,9.5C 143.612,10.428 142.945,11.0946 142,11.5C 139.663,11.1015 137.163,11.1015 134.5,11.5C 134.5,10.1667 134.5,8.83333 134.5,7.5 Z"/></g>
<g><path style="opacity:1" fill="#03131a" d="M 56.5,69.5 C 53.325,68.3777 49.825,67.0444 46,65.5C 45.7104,67.0441 45.0437,68.3774 44,69.5C 43.5883,67.0031 42.4216,65.0031 40.5,63.5C 37.173,67.8713 33.5063,71.8713 29.5,75.5C 29.5569,74.391 29.8902,73.391 30.5,72.5C 35.987,66.6609 40.3203,59.9942 43.5,52.5C 45.4386,49.692 47.2719,46.692 49,43.5C 51.658,35.8616 54.158,28.1949 56.5,20.5C 63.8588,20.4417 71.5255,20.4417 79.5,20.5C 75.2513,38.6538 67.5846,54.9871 56.5,69.5 Z"/></g>
<g><path style="opacity:1" fill="#162b57" d="M 56.5,20.5 C 54.158,28.1949 51.658,35.8616 49,43.5C 47.2719,46.692 45.4386,49.692 43.5,52.5C 42.0695,52.5792 40.7362,52.2458 39.5,51.5C 36.9199,53.713 36.9199,55.8797 39.5,58C 37.4071,59.927 35.4071,59.7603 33.5,57.5C 32.6965,60.4404 31.3631,63.1071 29.5,65.5C 28.2798,66.7111 27.1131,66.7111 26,65.5C 24.2287,69.1525 22.062,69.4859 19.5,66.5C 33.1326,53.9177 43.2993,38.9177 50,21.5C 52.0408,20.5769 54.2075,20.2436 56.5,20.5 Z"/></g>
<g><path style="opacity:1" fill="#fcfcfc" d="M 133.5,59.5 C 132.172,60.9097 132.505,62.0764 134.5,63C 132.679,65.456 132.012,68.2893 132.5,71.5C 131.833,71.5 131.167,71.5 130.5,71.5C 130.988,68.2893 130.321,65.456 128.5,63C 129.973,62.2904 130.64,61.1238 130.5,59.5C 131.427,57.5241 132.76,57.1908 134.5,58.5C 134.376,59.1067 134.043,59.44 133.5,59.5 Z"/></g>
<g><path style="opacity:1" fill="#f1f1f1" d="M 156.5,71.5 C 157.036,68.3019 156.369,65.6353 154.5,63.5C 154.891,59.4117 156.891,57.745 160.5,58.5C 157.942,60.1201 157.942,61.6201 160.5,63C 159.234,65.9889 157.9,68.8222 156.5,71.5 Z"/></g>
<g><path style="opacity:1" fill="#dcdcdc" d="M 72.5,57.5 C 75.5184,57.3354 78.5184,57.502 81.5,58C 84.9974,64.3628 82.9974,67.1962 75.5,66.5C 75.5,68.5 75.5,70.5 75.5,72.5C 74.5,72.5 73.5,72.5 72.5,72.5C 72.5,67.5 72.5,62.5 72.5,57.5 Z"/></g>
<g><path style="opacity:1" fill="#c7c7c7" d="M 146.5,57.5 C 147.5,57.5 148.5,57.5 149.5,57.5C 149.5,62.5 149.5,67.5 149.5,72.5C 148.5,72.5 147.5,72.5 146.5,72.5C 146.5,67.5 146.5,62.5 146.5,57.5 Z"/></g>
<g><path style="opacity:1" fill="#fbfbfb" d="M 225.5,58.5 C 226.8,60.223 227.467,62.3897 227.5,65C 227.467,67.6103 226.8,69.777 225.5,71.5C 225.5,67.1667 225.5,62.8333 225.5,58.5 Z"/></g>
<g><path style="opacity:1" fill="#949494" d="M 225.5,58.5 C 226.209,57.596 227.209,57.2627 228.5,57.5C 228.5,62.5 228.5,67.5 228.5,72.5C 227.209,72.7373 226.209,72.404 225.5,71.5C 226.8,69.777 227.467,67.6103 227.5,65C 227.467,62.3897 226.8,60.223 225.5,58.5 Z"/></g>
<g><path style="opacity:1" fill="#0b2649" d="M 43.5,52.5 C 40.3203,59.9942 35.987,66.6609 30.5,72.5C 26.9365,73.7558 23.2698,74.7558 19.5,75.5C 14.8148,83.8629 8.14813,86.5296 -0.5,83.5C -0.5,82.8333 -0.5,82.1667 -0.5,81.5C 6.73237,77.2694 13.399,72.2694 19.5,66.5C 22.062,69.4859 24.2287,69.1525 26,65.5C 27.1131,66.7111 28.2798,66.7111 29.5,65.5C 31.3631,63.1071 32.6965,60.4404 33.5,57.5C 35.4071,59.7603 37.4071,59.927 39.5,58C 36.9199,55.8797 36.9199,53.713 39.5,51.5C 40.7362,52.2458 42.0695,52.5792 43.5,52.5 Z"/></g>
<g><path style="opacity:1" fill="#131313" d="M 75.5,60.5 C 77.1667,60.5 78.8333,60.5 80.5,60.5C 80.5,61.5 80.5,62.5 80.5,63.5C 78.8333,63.5 77.1667,63.5 75.5,63.5C 75.5,62.5 75.5,61.5 75.5,60.5 Z"/></g>
<g><path style="opacity:1" fill="#dcdcdc" d="M 86.5,61.5 C 89.6516,60.9586 92.1516,61.9586 94,64.5C 94.3879,63.572 95.0546,62.9054 96,62.5C 97.885,63.9918 98.885,65.9918 99,68.5C 99.662,66.1873 100.162,63.854 100.5,61.5C 101.833,61.5 103.167,61.5 104.5,61.5C 104.523,63.9267 105.023,66.26 106,68.5C 106.516,65.7494 107.683,63.4161 109.5,61.5C 110.251,62.376 110.751,63.376 111,64.5C 112.864,61.7928 115.364,60.9595 118.5,62C 120.155,63.4443 120.822,65.2776 120.5,67.5C 118.076,67.1924 115.743,67.5258 113.5,68.5C 115.185,71.094 117.018,71.094 119,68.5C 119.5,68.8333 120,69.1667 120.5,69.5C 117.423,73.4615 114.256,73.4615 111,69.5C 110.667,68.1667 110.333,66.8333 110,65.5C 109.163,67.3506 108.329,69.1839 107.5,71C 104.21,71.5894 102.71,70.0894 103,66.5C 101.98,67.8905 101.147,69.3905 100.5,71C 99.2068,71.49 97.8734,71.6567 96.5,71.5C 96.8186,69.2495 96.3186,67.2495 95,65.5C 94.4186,70.759 91.5853,72.9257 86.5,72C 82.7135,68.589 82.7135,65.089 86.5,61.5 Z"/></g>
<g><path style="opacity:1" fill="#fbfbfb" d="M 124.5,62.5 C 124.833,63.1667 125.167,63.8333 125.5,64.5C 124.942,66.8234 124.275,69.1568 123.5,71.5C 123.167,70 122.833,68.5 122.5,67C 122.569,65.0145 123.235,63.5145 124.5,62.5 Z"/></g>
<g><path style="opacity:1" fill="#a4a4a4" d="M 130.5,59.5 C 130.64,61.1238 129.973,62.2904 128.5,63C 130.321,65.456 130.988,68.2893 130.5,71.5C 129.532,69.3926 129.198,67.0593 129.5,64.5C 128.167,64.5 126.833,64.5 125.5,64.5C 125.167,63.8333 124.833,63.1667 124.5,62.5C 126.809,62.0124 128.809,61.0124 130.5,59.5 Z"/></g>
<g><path style="opacity:1" fill="#e8e8e8" d="M 138.5,62.5 C 138.5,65.1667 138.5,67.8333 138.5,70.5C 139.822,70.67 140.989,70.3366 142,69.5C 142.186,67.0995 142.686,64.7662 143.5,62.5C 144.484,65.4281 144.817,68.4281 144.5,71.5C 137.719,74.0533 134.719,71.72 135.5,64.5C 135.821,62.9519 136.821,62.2852 138.5,62.5 Z"/></g>
<g><path style="opacity:1" fill="#d8d8d8" d="M 163.5,61.5 C 171.818,61.9869 173.485,65.4869 168.5,72C 163.201,73.0328 160.701,70.8661 161,65.5C 161.662,64.0161 162.496,62.6828 163.5,61.5 Z"/></g>
<g><path style="opacity:1" fill="#dddddd" d="M 172.5,61.5 C 174.331,62.0522 175.997,62.0522 177.5,61.5C 178.386,62.325 178.719,63.325 178.5,64.5C 177.5,64.5 176.5,64.5 175.5,64.5C 175.5,67.1667 175.5,69.8333 175.5,72.5C 174.5,72.5 173.5,72.5 172.5,72.5C 172.5,68.8333 172.5,65.1667 172.5,61.5 Z"/></g>
<g><path style="opacity:1" fill="#d8d8d8" d="M 189.5,57.5 C 190.5,57.5 191.5,57.5 192.5,57.5C 192.5,62.5 192.5,67.5 192.5,72.5C 185.019,74.5055 181.853,71.8389 183,64.5C 184.416,61.8052 186.416,61.1386 189,62.5C 189.494,60.8659 189.66,59.1992 189.5,57.5 Z"/></g>
<g><path style="opacity:1" fill="#e3e3e3" d="M 196.5,61.5 C 201.339,60.6766 203.673,62.6766 203.5,67.5C 201.076,67.1924 198.743,67.5258 196.5,68.5C 198.359,71.0186 200.359,71.0186 202.5,68.5C 203.594,69.868 203.26,71.0347 201.5,72C 197.074,73.2524 194.408,71.5858 193.5,67C 194.124,64.9149 195.124,63.0816 196.5,61.5 Z"/></g>
<g><path style="opacity:1" fill="#e9e9e9" d="M 204.5,62.5 C 205.5,62.5 206.5,62.5 207.5,62.5C 208.08,69.6178 209.246,69.9511 211,63.5C 212.156,62.0072 212.99,62.1739 213.5,64C 209.452,74.1702 206.452,73.6702 204.5,62.5 Z"/></g>
<g><path style="opacity:1" fill="#e2e2e2" d="M 216.5,61.5 C 221.339,60.6766 223.673,62.6766 223.5,67.5C 221.5,67.5 219.5,67.5 217.5,67.5C 217.5,68.5 217.5,69.5 217.5,70.5C 219.484,70.6168 221.15,69.9501 222.5,68.5C 223.199,70.9966 222.032,72.3299 219,72.5C 217.289,72.5607 215.956,71.8941 215,70.5C 214.068,67.1769 214.568,64.1769 216.5,61.5 Z"/></g>
<g><path style="opacity:1" fill="#e0e0e0" d="M 239.5,65.5 C 239.5,66.5 239.5,67.5 239.5,68.5C 238.538,72.1461 236.205,73.3128 232.5,72C 228.1,67.5014 228.767,64.0014 234.5,61.5C 237.225,61.6762 238.892,63.0095 239.5,65.5 Z"/></g>
<g><path style="opacity:1" fill="#626164" d="M 243.5,62.5 C 241.57,66.3727 240.903,70.706 241.5,75.5C 240.833,73.1667 240.167,70.8333 239.5,68.5C 239.5,67.5 239.5,66.5 239.5,65.5C 240.434,64.4324 240.768,63.099 240.5,61.5C 241.791,61.2627 242.791,61.596 243.5,62.5 Z"/></g>
<g><path style="opacity:1" fill="#e4e3e4" d="M 241.5,75.5 C 240.903,70.706 241.57,66.3727 243.5,62.5C 247.904,60.7159 250.571,62.2159 251.5,67C 250.762,71.2666 248.429,72.7666 244.5,71.5C 243.943,73.3316 242.943,74.6649 241.5,75.5 Z"/></g>
<g><path style="opacity:1" fill="#e6e5e6" d="M 255.5,62.5 C 255.5,65.5 255.5,68.5 255.5,71.5C 253.05,71.1257 252.05,69.6257 252.5,67C 252.05,64.3743 253.05,62.8743 255.5,62.5 Z"/></g>
<g><path style="opacity:1" fill="#2d2d2d" d="M 87.5,63.5 C 91.4735,64.0755 92.4735,66.2421 90.5,70C 89.2161,70.6838 88.0495,70.5171 87,69.5C 86.3224,67.4024 86.4891,65.4024 87.5,63.5 Z"/></g>
<g><path style="opacity:1" fill="#2f2f2f" d="M 114.5,63.5 C 115.675,63.281 116.675,63.6143 117.5,64.5C 116.277,65.6139 114.944,65.7805 113.5,65C 114.056,64.6174 114.389,64.1174 114.5,63.5 Z"/></g>
<g><path style="opacity:1" fill="#505050" d="M 133.5,59.5 C 134.802,61.0276 136.469,62.0276 138.5,62.5C 136.821,62.2852 135.821,62.9519 135.5,64.5C 133.917,66.5078 132.917,68.8411 132.5,71.5C 132.012,68.2893 132.679,65.456 134.5,63C 132.505,62.0764 132.172,60.9097 133.5,59.5 Z"/></g>
<g><path style="opacity:1" fill="#818181" d="M 154.5,63.5 C 156.369,65.6353 157.036,68.3019 156.5,71.5C 155.745,68.9471 155.078,66.2804 154.5,63.5 Z"/></g>
<g><path style="opacity:1" fill="#242424" d="M 164.5,64.5 C 165.833,64.5 167.167,64.5 168.5,64.5C 168.66,66.1992 168.494,67.8659 168,69.5C 163.633,70.5748 162.466,68.9081 164.5,64.5 Z"/></g>
<g><path style="opacity:1" fill="#202020" d="M 186.5,63.5 C 188.722,63.5587 189.722,64.7253 189.5,67C 188.167,71.6667 186.833,71.6667 185.5,67C 185.648,65.7441 185.982,64.5774 186.5,63.5 Z"/></g>
<g><path style="opacity:1" fill="#2f2f2f" d="M 197.5,63.5 C 198.675,63.281 199.675,63.6143 200.5,64.5C 199.277,65.6139 197.944,65.7805 196.5,65C 197.056,64.6174 197.389,64.1174 197.5,63.5 Z"/></g>
<g><path style="opacity:1" fill="#303030" d="M 217.5,63.5 C 219.103,63.3118 220.437,63.8118 221.5,65C 219.537,65.8442 218.204,65.3442 217.5,63.5 Z"/></g>
<g><path style="opacity:1" fill="#272628" d="M 233.5,63.5 C 238.289,65.1998 238.622,67.5332 234.5,70.5C 232.239,68.5165 231.906,66.1831 233.5,63.5 Z"/></g>
<g><path style="opacity:1" fill="#27242a" d="M 244.5,63.5 C 248.35,63.7007 249.35,65.5341 247.5,69C 246.216,69.6838 245.049,69.5171 244,68.5C 243.616,66.8034 243.782,65.1368 244.5,63.5 Z"/></g>
<g><path style="opacity:1" fill="#032528" d="M 56.5,69.5 C 52.4146,75.0406 48.0812,80.374 43.5,85.5C 41.9867,84.6907 40.3201,84.5241 38.5,85C 39.3366,83.9887 39.67,82.8221 39.5,81.5C 37.8561,81.2865 36.3561,81.6198 35,82.5C 32.515,81.7027 30.015,80.7027 27.5,79.5C 28.1667,78.1667 28.8333,76.8333 29.5,75.5C 33.5063,71.8713 37.173,67.8713 40.5,63.5C 42.4216,65.0031 43.5883,67.0031 44,69.5C 45.0437,68.3774 45.7104,67.0441 46,65.5C 49.825,67.0444 53.325,68.3777 56.5,69.5 Z"/></g>
<g><path style="opacity:1" fill="#f9f9f9" d="M 104.5,81.5 C 103.566,82.5676 103.232,83.901 103.5,85.5C 105.833,85.5 108.167,85.5 110.5,85.5C 108.721,87.3435 106.388,88.0102 103.5,87.5C 103.799,89.604 103.466,91.604 102.5,93.5C 101.507,88.8804 101.173,84.2137 101.5,79.5C 104.572,79.1826 107.572,79.5159 110.5,80.5C 108.604,81.4656 106.604,81.7989 104.5,81.5 Z"/></g>
<g><path style="opacity:1" fill="#dedede" d="M 145.5,78.5 C 149.079,78.7657 149.413,80.099 146.5,82.5C 147.167,83.1667 147.833,83.8333 148.5,84.5C 146.74,87.2123 146.073,90.2123 146.5,93.5C 145.5,93.5 144.5,93.5 143.5,93.5C 143.74,90.4212 143.407,87.4212 142.5,84.5C 144.043,82.7468 145.043,80.7468 145.5,78.5 Z"/></g>
<g><path style="opacity:1" fill="#061f31" d="M 30.5,72.5 C 29.8902,73.391 29.5569,74.391 29.5,75.5C 28.8333,76.8333 28.1667,78.1667 27.5,79.5C 22.1405,84.5279 16.8071,89.5279 11.5,94.5C 7.75418,97.5848 3.75418,100.251 -0.5,102.5C -0.5,96.1667 -0.5,89.8333 -0.5,83.5C 8.14813,86.5296 14.8148,83.8629 19.5,75.5C 23.2698,74.7558 26.9365,73.7558 30.5,72.5 Z"/></g>
<g><path style="opacity:1" fill="#e9e9e9" d="M 133.5,80.5 C 135.048,80.8212 135.715,81.8212 135.5,83.5C 139.5,84.1667 139.5,84.8333 135.5,85.5C 135.16,88.1441 135.827,90.4775 137.5,92.5C 136.349,93.731 135.183,93.731 134,92.5C 133.503,90.1902 133.337,87.8568 133.5,85.5C 130.5,86.6468 127.5,86.8134 124.5,86C 126.219,87.0569 128.053,87.8903 130,88.5C 130.72,90.1124 130.554,91.6124 129.5,93C 127.5,93.6667 125.5,93.6667 123.5,93C 122.289,92.1072 122.289,91.2739 123.5,90.5C 124.891,91.6446 126.224,91.6446 127.5,90.5C 126.15,89.0499 124.484,88.3832 122.5,88.5C 122.286,86.8561 122.62,85.3561 123.5,84C 126.982,83.9998 130.316,83.8331 133.5,83.5C 133.5,82.5 133.5,81.5 133.5,80.5 Z"/></g>
<g><path style="opacity:1" fill="#e3e3e3" d="M 151.5,83.5 C 159.44,82.9375 161.44,86.1041 157.5,93C 149.424,93.8047 147.424,90.638 151.5,83.5 Z"/></g>
<g><path style="opacity:1" fill="#e6e6e6" d="M 160.5,83.5 C 162.604,83.2011 164.604,83.5344 166.5,84.5C 163.772,86.7812 162.772,89.7812 163.5,93.5C 162.5,93.5 161.5,93.5 160.5,93.5C 160.5,90.1667 160.5,86.8333 160.5,83.5 Z"/></g>
<g><path style="opacity:1" fill="#eaeaea" d="M 172.5,83.5 C 176.445,82.5727 179.112,83.906 180.5,87.5C 178.257,88.4742 175.924,88.8076 173.5,88.5C 173.5,89.5 173.5,90.5 173.5,91.5C 175.674,91.0798 177.674,91.0798 179.5,91.5C 176.748,94.1345 173.915,94.1345 171,91.5C 170.109,88.5024 170.609,85.8357 172.5,83.5 Z"/></g>
<g><path style="opacity:1" fill="#dfdfdf" d="M 180.5,83.5 C 181.675,83.281 182.675,83.6143 183.5,84.5C 184.833,89.8333 186.167,89.8333 187.5,84.5C 188.5,83.1667 189.5,83.1667 190.5,84.5C 188.895,87.3138 187.895,90.3138 187.5,93.5C 186.167,93.5 184.833,93.5 183.5,93.5C 182.901,90.0369 181.901,86.7036 180.5,83.5 Z"/></g>
<g><path style="opacity:1" fill="#e3e3e3" d="M 220.5,83.5 C 228.44,82.9375 230.44,86.1041 226.5,93C 218.424,93.8047 216.424,90.638 220.5,83.5 Z"/></g>
<g><path style="opacity:1" fill="#ececec" d="M 229.5,83.5 C 238.229,81.8047 240.895,85.1381 237.5,93.5C 236.686,91.2338 236.186,88.9005 236,86.5C 234.989,85.6634 233.822,85.33 232.5,85.5C 232.5,88.1667 232.5,90.8333 232.5,93.5C 231.5,93.5 230.5,93.5 229.5,93.5C 229.5,90.1667 229.5,86.8333 229.5,83.5 Z"/></g>
<g><path style="opacity:1" fill="#e9e9ea" d="M 249.5,86.5 C 247.628,88.0615 245.295,89.0615 242.5,89.5C 242.887,90.7199 243.72,91.3865 245,91.5C 246.677,90.3922 248.177,90.3922 249.5,91.5C 247.545,93.3258 245.212,93.8258 242.5,93C 240.297,90.24 239.964,87.24 241.5,84C 243.833,83.3333 246.167,83.3333 248.5,84C 249.252,84.6708 249.586,85.5041 249.5,86.5 Z"/></g>
<g><path style="opacity:1" fill="#6e6e6e" d="M 104.5,81.5 C 104.5,82.5 104.5,83.5 104.5,84.5C 106.735,84.2053 108.735,84.5386 110.5,85.5C 108.167,85.5 105.833,85.5 103.5,85.5C 103.232,83.901 103.566,82.5676 104.5,81.5 Z"/></g>
<g><path style="opacity:1" fill="#e9e9e9" d="M 200.5,88.5 C 198.076,88.1924 195.743,88.5258 193.5,89.5C 193.887,90.7199 194.72,91.3865 196,91.5C 197.44,90.8524 198.94,90.5191 200.5,90.5C 198.593,93.3324 195.927,94.1657 192.5,93C 189.293,88.2979 190.293,85.1312 195.5,83.5C 198.845,83.5112 200.511,85.1779 200.5,88.5 Z"/></g>
<g><path style="opacity:1" fill="#1c1c1c" d="M 152.5,85.5 C 156.35,85.7007 157.35,87.5341 155.5,91C 151.537,91.1177 150.537,89.2843 152.5,85.5 Z"/></g>
<g><path style="opacity:1" fill="#1c1c1c" d="M 221.5,85.5 C 225.35,85.7007 226.35,87.5341 224.5,91C 220.537,91.1177 219.537,89.2843 221.5,85.5 Z"/></g>
<g><path style="opacity:1" fill="#515151" d="M 173.5,85.5 C 174.978,85.238 176.311,85.5713 177.5,86.5C 176.833,86.8333 176.167,87.1667 175.5,87.5C 174.287,87.2528 173.62,86.5862 173.5,85.5 Z"/></g>
<g><path style="opacity:1" fill="#505050" d="M 193.5,85.5 C 194.978,85.238 196.311,85.5713 197.5,86.5C 196.833,86.8333 196.167,87.1667 195.5,87.5C 194.287,87.2528 193.62,86.5862 193.5,85.5 Z"/></g>
<g><path style="opacity:1" fill="#5a595c" d="M 242.5,85.5 C 243.978,85.238 245.311,85.5713 246.5,86.5C 245.833,86.8333 245.167,87.1667 244.5,87.5C 243.287,87.2528 242.62,86.5862 242.5,85.5 Z"/></g>
<g><path style="opacity:1" fill="#e1e1e1" d="M 113.5,83.5 C 115.792,83.2436 117.959,83.5769 120,84.5C 120.498,87.4816 120.665,90.4816 120.5,93.5C 117.552,93.7771 114.719,93.4438 112,92.5C 111.219,91.0563 111.386,89.723 112.5,88.5C 114.225,87.9851 115.892,87.3184 117.5,86.5C 115.587,85.9488 113.587,85.7821 111.5,86C 112.381,85.2917 113.047,84.4584 113.5,83.5 Z"/></g>
<g><path style="opacity:1" fill="#545454" d="M 200.5,88.5 C 200.5,89.1667 200.5,89.8333 200.5,90.5C 198.94,90.5191 197.44,90.8524 196,91.5C 194.72,91.3865 193.887,90.7199 193.5,89.5C 195.743,88.5258 198.076,88.1924 200.5,88.5 Z"/></g>
<g><path style="opacity:1" fill="#535256" d="M 249.5,86.5 C 250.167,87.8333 250.833,89.1667 251.5,90.5C 251.5,91.5 251.5,92.5 251.5,93.5C 250.833,92.8333 250.167,92.1667 249.5,91.5C 248.177,90.3922 246.677,90.3922 245,91.5C 243.72,91.3865 242.887,90.7199 242.5,89.5C 245.295,89.0615 247.628,88.0615 249.5,86.5 Z"/></g>
<g><path style="opacity:1" fill="#1e1e1e" d="M 114.5,89.5 C 115.675,89.281 116.675,89.6143 117.5,90.5C 115.948,91.7979 114.948,91.4646 114.5,89.5 Z"/></g>
<g><path style="opacity:1" fill="#e6e6e6" d="M 201.5,83.5 C 204.833,83.5 208.167,83.5 211.5,83.5C 212.5,91.5 213.5,91.5 214.5,83.5C 215.675,83.281 216.675,83.6143 217.5,84.5C 216.25,89.2801 214.25,93.6134 211.5,97.5C 211.889,93.4678 210.889,89.6345 208.5,86C 207.216,85.3162 206.049,85.4829 205,86.5C 204.503,88.8098 204.337,91.1432 204.5,93.5C 203.5,93.5 202.5,93.5 201.5,93.5C 201.5,90.1667 201.5,86.8333 201.5,83.5 Z"/></g>
<g><path style="opacity:1" fill="#043a36" d="M 27.5,79.5 C 30.015,80.7027 32.515,81.7027 35,82.5C 36.3561,81.6198 37.8561,81.2865 39.5,81.5C 39.67,82.8221 39.3366,83.9887 38.5,85C 40.3201,84.5241 41.9867,84.6907 43.5,85.5C 37.7776,91.5555 31.4443,96.8888 24.5,101.5C 20.1072,99.4672 15.7738,97.1339 11.5,94.5C 16.8071,89.5279 22.1405,84.5279 27.5,79.5 Z"/></g>
<g><path style="opacity:1" fill="#d6d5d7" d="M 251.5,90.5 C 252.5,90.5 253.5,90.5 254.5,90.5C 254.5,91.5 254.5,92.5 254.5,93.5C 253.5,93.5 252.5,93.5 251.5,93.5C 251.5,92.5 251.5,91.5 251.5,90.5 Z"/></g>
<g><path style="opacity:1" fill="#054e48" d="M 11.5,94.5 C 15.7738,97.1339 20.1072,99.4672 24.5,101.5C 16.9831,107.43 8.64978,112.097 -0.5,115.5C -0.5,111.167 -0.5,106.833 -0.5,102.5C 3.75418,100.251 7.75418,97.5848 11.5,94.5 Z"/></g>
<g><path style="opacity:1" fill="#616066" d="M 242.5,110.5 C 237.882,112.087 233.049,113.087 228,113.5C 225.72,112.914 223.553,112.08 221.5,111C 224.556,109.224 227.722,109.057 231,110.5C 234.902,108.062 238.735,108.062 242.5,110.5 Z"/></g>
<g><path style="opacity:1" fill="#6c6c71" d="M 102.5,108.5 C 104.124,108.36 105.29,109.027 106,110.5C 107,109.833 108,109.167 109,108.5C 111.041,109.423 113.208,109.756 115.5,109.5C 115.5,110.833 115.5,112.167 115.5,113.5C 113.089,113.863 111.589,112.863 111,110.5C 110,113.167 109,113.167 108,110.5C 106.599,112.192 104.766,112.859 102.5,112.5C 102.5,111.167 102.5,109.833 102.5,108.5 Z"/></g>
<g><path style="opacity:1" fill="#66666b" d="M 117.5,108.5 C 118.688,109.684 119.855,109.684 121,108.5C 121.333,109.167 121.667,109.833 122,110.5C 124.24,110.91 126.407,110.243 128.5,108.5C 133.448,109.219 138.448,109.553 143.5,109.5C 143.5,110.5 143.5,111.5 143.5,112.5C 140.289,112.988 137.456,112.321 135,110.5C 129.464,112.425 123.631,113.092 117.5,112.5C 117.5,111.167 117.5,109.833 117.5,108.5 Z"/></g>
<g><path style="opacity:1" fill="#636368" d="M 153.5,108.5 C 155.379,109.341 157.379,109.675 159.5,109.5C 159.5,110.5 159.5,111.5 159.5,112.5C 157.549,112.773 156.049,112.107 155,110.5C 154.667,111.167 154.333,111.833 154,112.5C 153.51,111.207 153.343,109.873 153.5,108.5 Z"/></g>
<g><path style="opacity:1" fill="#69696e" d="M 173.5,108.5 C 175.445,109.028 177.445,110.195 179.5,112C 176.574,112.218 173.74,112.718 171,113.5C 169.667,112.833 168.333,112.167 167,111.5C 164.816,110.892 162.816,111.559 161,113.5C 160.51,112.207 160.343,110.873 160.5,109.5C 163.827,109.198 166.994,109.531 170,110.5C 171.302,109.915 172.469,109.249 173.5,108.5 Z"/></g>
<g><path style="opacity:1" fill="#636368" d="M 180.5,108.5 C 181.552,108.351 182.552,108.517 183.5,109C 182.304,109.654 182.304,110.154 183.5,110.5C 185.059,109.926 186.559,109.26 188,108.5C 190.74,109.282 193.574,109.782 196.5,110C 197.902,111.342 197.569,112.176 195.5,112.5C 194.353,112.182 193.519,111.516 193,110.5C 191.82,111.684 190.32,112.351 188.5,112.5C 185.721,111.614 183.054,111.614 180.5,112.5C 180.5,111.167 180.5,109.833 180.5,108.5 Z"/></g>
<g><path style="opacity:1" fill="#66666c" d="M 216.5,108.5 C 217.708,109.234 219.041,109.567 220.5,109.5C 220.5,110.5 220.5,111.5 220.5,112.5C 218.549,112.773 217.049,112.107 216,110.5C 213.614,112.091 210.947,113.091 208,113.5C 205.126,112.954 201.959,112.62 198.5,112.5C 198.5,111.5 198.5,110.5 198.5,109.5C 200.451,109.227 201.951,109.893 203,111.5C 205.376,109.256 208.043,108.923 211,110.5C 212.948,109.891 214.782,109.224 216.5,108.5 Z"/></g>
<g><path style="opacity:1" fill="#64636b" d="M 242.5,110.5 C 245.391,109.597 248.391,109.264 251.5,109.5C 251.5,110.5 251.5,111.5 251.5,112.5C 247.988,113.055 244.988,112.388 242.5,110.5 Z"/></g>
<g><path style="opacity:1" fill="#03efb2" d="M 104.5,115.5 C 153.167,115.5 201.833,115.5 250.5,115.5C 250.5,118.167 250.5,120.833 250.5,123.5C 201.833,123.5 153.167,123.5 104.5,123.5C 104.5,120.833 104.5,118.167 104.5,115.5 Z"/></g>
<g><path style="opacity:1" fill="#0bbe8f" d="M 204.5,117.5 C 208.137,117.508 211.804,117.508 215.5,117.5C 217.225,118.015 218.892,118.682 220.5,119.5C 220.167,120.5 219.5,121.167 218.5,121.5C 215.932,120.81 213.432,120.477 211,120.5C 208.965,122.912 207.965,122.245 208,118.5C 207.667,119.167 207.333,119.833 207,120.5C 206.282,119.549 205.449,119.383 204.5,120C 205.696,120.654 205.696,121.154 204.5,121.5C 203.374,120.192 203.374,118.858 204.5,117.5 Z"/></g>
<g><path style="opacity:1" fill="#0abd8e" d="M 157.5,117.5 C 162.05,117.312 166.717,117.645 171.5,118.5C 171.719,119.675 171.386,120.675 170.5,121.5C 169.5,120.167 168.5,120.167 167.5,121.5C 166.522,121.023 165.689,120.357 165,119.5C 162.944,121.319 160.777,121.985 158.5,121.5C 157.571,120.311 157.238,118.978 157.5,117.5 Z"/></g>
<g><path style="opacity:1" fill="#0f9d78" d="M 145.5,117.5 C 148.789,117.292 152.123,117.959 155.5,119.5C 152.111,119.169 148.945,119.502 146,120.5C 145.517,119.552 145.351,118.552 145.5,117.5 Z"/></g>
<g><path style="opacity:1" fill="#0bbe8f" d="M 172.5,117.5 C 176.026,117.939 179.693,118.106 183.5,118C 186.324,123.186 185.657,123.686 181.5,119.5C 180.5,120.167 179.5,120.833 178.5,121.5C 176.674,121.08 174.674,121.08 172.5,121.5C 172.5,120.167 172.5,118.833 172.5,117.5 Z"/></g>
<g><path style="opacity:1" fill="#0dad84" d="M 240.5,117.5 C 242.802,118.822 245.135,118.822 247.5,117.5C 248.386,118.325 248.719,119.325 248.5,120.5C 244.224,121.711 239.89,121.377 235.5,119.5C 237.291,118.83 238.958,118.163 240.5,117.5 Z"/></g>
<g><path style="opacity:1" fill="#0cb78a" d="M 133.5,117.5 C 136.421,118.372 139.421,118.372 142.5,117.5C 144.337,122.893 143.504,123.559 140,119.5C 138.915,120.293 137.748,120.96 136.5,121.5C 134.345,121.162 132.011,121.162 129.5,121.5C 129.413,118.402 129.913,118.068 131,120.5C 131.698,119.309 132.531,118.309 133.5,117.5 Z"/></g>
<g><path style="opacity:1" fill="#0d4b3b" d="M 104.5,115.5 C 104.5,118.167 104.5,120.833 104.5,123.5C 153.167,123.5 201.833,123.5 250.5,123.5C 201.67,124.499 152.67,124.832 103.5,124.5C 103.19,121.287 103.523,118.287 104.5,115.5 Z"/></g>
<g><path style="opacity:1" fill="#7e2fcc" d="M 143.5,137.5 C 151.167,137.5 158.833,137.5 166.5,137.5C 166.5,139.167 166.5,140.833 166.5,142.5C 165.206,146.223 164.039,146.223 163,142.5C 162.193,146.449 161.693,146.449 161.5,142.5C 159.326,142.92 157.326,142.92 155.5,142.5C 154.167,143.833 154.167,145.167 155.5,146.5C 159.758,146.098 164.091,146.098 168.5,146.5C 168.5,148.167 168.5,149.833 168.5,151.5C 159.167,151.5 149.833,151.5 140.5,151.5C 140.5,149.833 140.5,148.167 140.5,146.5C 142.857,146.663 145.19,146.497 147.5,146C 148.667,145.5 149.5,144.667 150,143.5C 151.087,145.932 151.587,145.598 151.5,142.5C 149.234,142.141 147.401,142.808 146,144.5C 144.175,142.52 143.341,140.187 143.5,137.5 Z"/></g>
<g><path style="opacity:1" fill="#421772" d="M 137.5,137.5 C 150.327,136.34 163.327,136.173 176.5,137C 183.626,140.643 184.293,145.309 178.5,151C 175.183,151.498 171.85,151.665 168.5,151.5C 168.5,149.833 168.5,148.167 168.5,146.5C 171.051,145.71 173.384,145.71 175.5,146.5C 176.308,146.192 176.975,145.692 177.5,145C 175.776,144.552 175.109,143.718 175.5,142.5C 172.681,142.742 169.681,142.742 166.5,142.5C 166.5,140.833 166.5,139.167 166.5,137.5C 158.833,137.5 151.167,137.5 143.5,137.5C 141.5,137.5 139.5,137.5 137.5,137.5 Z"/></g>
<g><path style="opacity:1" fill="#b55fe5" d="M 137.5,137.5 C 139.5,137.5 141.5,137.5 143.5,137.5C 143.341,140.187 144.175,142.52 146,144.5C 147.401,142.808 149.234,142.141 151.5,142.5C 151.587,145.598 151.087,145.932 150,143.5C 149.5,144.667 148.667,145.5 147.5,146C 145.19,146.497 142.857,146.663 140.5,146.5C 140.5,148.167 140.5,149.833 140.5,151.5C 133.591,151.047 131.091,147.38 133,140.5C 134.129,138.859 135.629,137.859 137.5,137.5 Z"/></g>
<g><path style="opacity:1" fill="#606060" d="M 193.5,142.5 C 194.239,142.369 194.906,142.536 195.5,143C 194.549,143.718 194.383,144.551 195,145.5C 197.228,142.054 199.728,141.72 202.5,144.5C 202,145.881 201,146.547 199.5,146.5C 197.597,145.647 195.597,145.647 193.5,146.5C 193.5,145.167 193.5,143.833 193.5,142.5 Z"/></g>
<g><path style="opacity:1" fill="#9a70c7" d="M 166.5,142.5 C 169.681,142.742 172.681,142.742 175.5,142.5C 175.109,143.718 175.776,144.552 177.5,145C 176.975,145.692 176.308,146.192 175.5,146.5C 173.384,145.71 171.051,145.71 168.5,146.5C 164.091,146.098 159.758,146.098 155.5,146.5C 154.167,145.167 154.167,143.833 155.5,142.5C 157.326,142.92 159.326,142.92 161.5,142.5C 161.693,146.449 162.193,146.449 163,142.5C 164.039,146.223 165.206,146.223 166.5,142.5 Z"/></g>
<g><path style="opacity:1" fill="#545454" d="M 204.5,142.5 C 208.601,143.366 212.601,143.366 216.5,142.5C 216.762,143.978 216.429,145.311 215.5,146.5C 212.309,145.554 208.976,145.554 205.5,146.5C 204.571,145.311 204.238,143.978 204.5,142.5 Z"/></g>
</svg>
