<?xml version="1.0" encoding="UTF-8"?>
<!DOCTYPE svg PUBLIC "-//W3C//DTD SVG 1.1//EN" "http://www.w3.org/Graphics/SVG/1.1/DTD/svg11.dtd">
<svg xmlns="http://www.w3.org/2000/svg" version="1.1" width="256px" height="182px" style="shape-rendering:geometricPrecision; text-rendering:geometricPrecision; image-rendering:optimizeQuality; fill-rule:evenodd; clip-rule:evenodd" xmlns:xlink="http://www.w3.org/1999/xlink">
<g><path style="opacity:1" fill="#2c2e32" d="M 4.5,-0.5 C 9.83333,-0.5 15.1667,-0.5 20.5,-0.5C 20.5,0.833333 20.5,2.16667 20.5,3.5C 11.2675,3.88778 11.2675,4.88778 20.5,6.5C 23.2477,3.94941 26.2477,2.61608 29.5,2.5C 33.0514,5.10593 37.0514,6.93926 41.5,8C 40.2068,8.49001 38.8734,8.65668 37.5,8.5C 37.2148,10.288 37.5481,11.9547 38.5,13.5C 39.6951,11.703 41.3618,10.703 43.5,10.5C 43.3379,8.4727 43.5045,6.4727 44,4.5C 44.49,5.79323 44.6567,7.12656 44.5,8.5C 49.248,8.27478 53.9147,8.77478 58.5,10C 57.2068,10.49 55.8734,10.6567 54.5,10.5C 54.5,11.8333 54.5,13.1667 54.5,14.5C 57.5176,14.2962 60.5176,13.9629 63.5,13.5C 63.5,12.5 63.5,11.5 63.5,10.5C 65.9154,10.3735 68.2487,10.2068 70.5,10C 70.9574,10.414 71.2907,10.914 71.5,11.5C 70.3966,11.9976 69.3966,12.3309 68.5,12.5C 70.2701,13.8196 70.6034,15.3196 69.5,17C 70.9285,17.5791 72.2618,17.4124 73.5,16.5C 73.3691,17.3764 73.7025,18.0431 74.5,18.5C 77.068,17.8099 79.568,17.4766 82,17.5C 81.9813,19.1075 81.8146,20.7741 81.5,22.5C 79.8212,22.2852 78.8212,22.9519 78.5,24.5C 77.193,26.2232 77.193,28.0565 78.5,30C 110.498,30.5 142.498,30.6666 174.5,30.5C 174.389,31.1174 174.056,31.6174 173.5,32C 140.834,33.9904 108.167,33.9904 75.5,32C 71.1923,23.8639 66.3589,23.6972 61,31.5C 61.0519,29.0889 61.3853,26.7555 62,24.5C 55.1447,32.9239 52.3114,42.5905 53.5,53.5C 53.8115,61.2282 53.3115,68.8948 52,76.5C 51.7811,75.062 51.2811,73.7287 50.5,72.5C 50.4464,73.6869 50.1131,75.0202 49.5,76.5C 48.7022,74.9223 48.2022,73.2556 48,71.5C 47.7978,73.2556 47.2978,74.9223 46.5,76.5C 45.6858,74.2338 45.1858,71.9005 45,69.5C 44.6667,70.1667 44.3333,70.8333 44,71.5C 41.7724,69.8866 39.2724,69.22 36.5,69.5C 36.719,70.675 36.3857,71.675 35.5,72.5C 30.7425,72.0675 25.9092,71.7342 21,71.5C 16.3553,71.7151 12.0219,72.7151 8,74.5C 5.8515,73.0226 4.51817,71.0226 4,68.5C 3.51722,69.448 3.35055,70.448 3.5,71.5C 2.04125,71.4326 0.707917,71.7659 -0.5,72.5C -0.5,50.1667 -0.5,27.8333 -0.5,5.5C 1.13696,3.52483 2.80363,1.52483 4.5,-0.5 Z"/></g>
<g><path style="opacity:1" fill="#2a2b2f" d="M 20.5,-0.5 C 96.8333,-0.5 173.167,-0.5 249.5,-0.5C 251.475,1.13696 253.475,2.80363 255.5,4.5C 255.5,25.8333 255.5,47.1667 255.5,68.5C 254.883,68.6107 254.383,68.944 254,69.5C 251.399,66.8104 248.232,65.9771 244.5,67C 245.517,68.0495 245.684,69.2161 245,70.5C 244.059,68.9386 242.892,67.6053 241.5,66.5C 240.614,67.325 240.281,68.325 240.5,69.5C 237.518,69.0371 234.518,68.7038 231.5,68.5C 231.5,69.5 231.5,70.5 231.5,71.5C 229.453,71.4889 227.453,71.1556 225.5,70.5C 223.883,68.6093 221.883,67.276 219.5,66.5C 217.169,67.6056 214.836,67.7722 212.5,67C 212.833,67.3333 213.167,67.6667 213.5,68C 211.833,68.3333 210.167,68.6667 208.5,69C 209.711,69.8928 209.711,70.7261 208.5,71.5C 207.768,68.6908 206.101,66.6908 203.5,65.5C 203.642,67.3823 203.142,69.3823 202,71.5C 201.667,62.5 201.333,53.5 201,44.5C 200.662,39.8211 199.328,35.4877 197,31.5C 196.82,34.3094 197.487,36.9761 199,39.5C 199.667,53.5 199.667,67.5 199,81.5C 196.231,88.5769 194.397,95.9103 193.5,103.5C 193.5,106.167 193.5,108.833 193.5,111.5C 190.52,111.759 188.687,110.426 188,107.5C 186.474,90.0518 185.974,72.7184 186.5,55.5C 186.249,52.091 186.583,48.7577 187.5,45.5C 190.371,42.887 193.205,42.887 196,45.5C 197.347,37.5257 194.347,31.5257 187,27.5C 180.238,31.9366 172.905,34.9366 165,36.5C 156.82,36.4155 148.654,36.0821 140.5,35.5C 137.842,35.6901 135.342,36.3568 133,37.5C 132.05,36.9777 131.216,36.311 130.5,35.5C 129.289,36.3898 127.955,36.3898 126.5,35.5C 125.833,35.8333 125.167,36.1667 124.5,36.5C 125.729,37.2811 127.062,37.7811 128.5,38C 126.899,38.2734 125.399,38.7734 124,39.5C 121.67,34.2882 120.503,34.2882 120.5,39.5C 119.571,38.3112 119.238,36.9778 119.5,35.5C 114.569,35.5682 109.903,36.5682 105.5,38.5C 102.812,38.5188 100.312,37.8522 98,36.5C 97.0546,36.9054 96.3879,37.572 96,38.5C 94.7044,37.9319 93.2044,37.9319 91.5,38.5C 83.2554,36.7422 75.0888,34.7422 67,32.5C 60.4986,33.82 57.6653,37.82 58.5,44.5C 60.1986,44.3796 61.8653,44.0463 63.5,43.5C 65.4251,43.5904 66.5917,44.5904 67,46.5C 67.8282,63.0052 67.6615,79.3385 66.5,95.5C 66.6666,79.4965 66.4999,63.4965 66,47.5C 64.5557,45.8446 62.7224,45.178 60.5,45.5C 60.1697,64.674 60.503,83.674 61.5,102.5C 61.5,103.167 61.5,103.833 61.5,104.5C 61.8373,107.336 63.1707,108.002 65.5,106.5C 65.6499,110.161 64.1499,111.161 61,109.5C 59.8648,100.242 58.0315,91.9091 55.5,84.5C 55.0244,74.0035 54.3578,63.6701 53.5,53.5C 52.3114,42.5905 55.1447,32.9239 62,24.5C 61.3853,26.7555 61.0519,29.0889 61,31.5C 66.3589,23.6972 71.1923,23.8639 75.5,32C 108.167,33.9904 140.834,33.9904 173.5,32C 174.056,31.6174 174.389,31.1174 174.5,30.5C 175.79,29.9423 176.623,28.9423 177,27.5C 177.254,24.805 177.421,22.305 177.5,20C 181.015,19.4807 184.348,19.8141 187.5,21C 182.696,16.615 177.029,13.9483 170.5,13C 141.167,12.3333 111.833,12.3333 82.5,13C 79.2615,13.6218 76.2615,14.7884 73.5,16.5C 72.2618,17.4124 70.9285,17.5791 69.5,17C 70.6034,15.3196 70.2701,13.8196 68.5,12.5C 69.3966,12.3309 70.3966,11.9976 71.5,11.5C 71.2907,10.914 70.9574,10.414 70.5,10C 68.2487,10.2068 65.9154,10.3735 63.5,10.5C 63.5,11.5 63.5,12.5 63.5,13.5C 60.5176,13.9629 57.5176,14.2962 54.5,14.5C 54.5,13.1667 54.5,11.8333 54.5,10.5C 55.8734,10.6567 57.2068,10.49 58.5,10C 53.9147,8.77478 49.248,8.27478 44.5,8.5C 44.6567,7.12656 44.49,5.79323 44,4.5C 43.5045,6.4727 43.3379,8.4727 43.5,10.5C 41.3618,10.703 39.6951,11.703 38.5,13.5C 37.5481,11.9547 37.2148,10.288 37.5,8.5C 38.8734,8.65668 40.2068,8.49001 41.5,8C 37.0514,6.93926 33.0514,5.10593 29.5,2.5C 26.2477,2.61608 23.2477,3.94941 20.5,6.5C 11.2675,4.88778 11.2675,3.88778 20.5,3.5C 20.5,2.16667 20.5,0.833333 20.5,-0.5 Z"/></g>
<g><path style="opacity:1" fill="#3d4245" d="M 174.5,30.5 C 142.498,30.6666 110.498,30.5 78.5,30C 77.193,28.0565 77.193,26.2232 78.5,24.5C 78.8212,22.9519 79.8212,22.2852 81.5,22.5C 81.8146,20.7741 81.9813,19.1075 82,17.5C 79.568,17.4766 77.068,17.8099 74.5,18.5C 73.7025,18.0431 73.3691,17.3764 73.5,16.5C 76.2615,14.7884 79.2615,13.6218 82.5,13C 111.833,12.3333 141.167,12.3333 170.5,13C 177.029,13.9483 182.696,16.615 187.5,21C 184.348,19.8141 181.015,19.4807 177.5,20C 177.421,22.305 177.254,24.805 177,27.5C 176.623,28.9423 175.79,29.9423 174.5,30.5 Z"/></g>
<g><path style="opacity:1" fill="#5f6364" d="M 174.5,27.5 C 142.671,28.4982 110.671,28.8316 78.5,28.5C 78.5,27.1667 78.5,25.8333 78.5,24.5C 79.766,23.9101 81.0993,23.4101 82.5,23C 113.167,22.3333 143.833,22.3333 174.5,23C 175.801,24.6155 175.801,26.1155 174.5,27.5 Z"/></g>
<g><path style="opacity:1" fill="#8e8e8e" d="M 174.5,27.5 C 142.826,27.8332 111.16,27.4999 79.5,26.5C 80.3805,25.0295 81.7139,24.1962 83.5,24C 113.5,23.3333 143.5,23.3333 173.5,24C 174.337,25.0113 174.67,26.1779 174.5,27.5 Z"/></g>
<g><path style="opacity:1" fill="#202426" d="M 186.5,55.5 C 185.533,56.8062 184.199,57.4729 182.5,57.5C 181.805,51.0301 178.305,46.6968 172,44.5C 170.26,45.7158 169.26,47.3825 169,49.5C 168.683,47.6992 168.016,47.3659 167,48.5C 166.64,50.4211 165.806,52.0878 164.5,53.5C 160.885,51.5848 157.385,49.5848 154,47.5C 152.318,49.5541 150.651,49.2207 149,46.5C 147.612,46.2144 146.112,46.5477 144.5,47.5C 143.127,47.6567 141.793,47.49 140.5,47C 139.667,44.8333 138.167,43.3333 136,42.5C 134.413,42.3423 132.913,43.0089 131.5,44.5C 130.395,43.3995 129.062,42.7329 127.5,42.5C 126.178,42.67 125.011,42.3366 124,41.5C 122.667,42.8333 121.333,44.1667 120,45.5C 119.722,44.5842 119.222,43.9175 118.5,43.5C 112.196,42.5922 105.863,41.5922 99.5,40.5C 94.6053,41.878 89.6053,42.7113 84.5,43C 87.1667,43.3333 89.8333,43.6667 92.5,44C 89.9973,44.1294 87.9973,45.1294 86.5,47C 89.6486,47.776 90.1486,49.276 88,51.5C 87.0853,50.6721 86.4186,49.6721 86,48.5C 83.6667,49.1667 81.3333,49.8333 79,50.5C 75.1245,60.9007 72.4578,71.5674 71,82.5C 71.4748,87.7307 70.9748,92.7307 69.5,97.5C 70.2234,99.7822 70.5567,102.116 70.5,104.5C 69.8153,106.414 69.3153,108.414 69,110.5C 63.8182,117.541 59.6515,125.208 56.5,133.5C 55.8826,133.389 55.3826,133.056 55,132.5C 54.1243,125.36 53.6243,118.193 53.5,111C 53.9848,101.216 54.1514,91.3829 54,81.5C 54.2321,82.7375 54.7321,83.7375 55.5,84.5C 58.0315,91.9091 59.8648,100.242 61,109.5C 64.1499,111.161 65.6499,110.161 65.5,106.5C 66.4227,102.936 66.756,99.2693 66.5,95.5C 67.6615,79.3385 67.8282,63.0052 67,46.5C 66.5917,44.5904 65.4251,43.5904 63.5,43.5C 61.8653,44.0463 60.1986,44.3796 58.5,44.5C 57.6653,37.82 60.4986,33.82 67,32.5C 75.0888,34.7422 83.2554,36.7422 91.5,38.5C 93.2044,37.9319 94.7044,37.9319 96,38.5C 96.3879,37.572 97.0546,36.9054 98,36.5C 100.312,37.8522 102.812,38.5188 105.5,38.5C 109.903,36.5682 114.569,35.5682 119.5,35.5C 119.238,36.9778 119.571,38.3112 120.5,39.5C 120.503,34.2882 121.67,34.2882 124,39.5C 125.399,38.7734 126.899,38.2734 128.5,38C 127.062,37.7811 125.729,37.2811 124.5,36.5C 125.167,36.1667 125.833,35.8333 126.5,35.5C 127.955,36.3898 129.289,36.3898 130.5,35.5C 131.216,36.311 132.05,36.9777 133,37.5C 135.342,36.3568 137.842,35.6901 140.5,35.5C 148.654,36.0821 156.82,36.4155 165,36.5C 172.905,34.9366 180.238,31.9366 187,27.5C 194.347,31.5257 197.347,37.5257 196,45.5C 193.205,42.887 190.371,42.887 187.5,45.5C 186.583,48.7577 186.249,52.091 186.5,55.5 Z"/></g>
<g><path style="opacity:1" fill="#d5bf05" d="M 127.5,42.5 C 129.062,42.7329 130.395,43.3995 131.5,44.5C 139.791,53.1255 148.124,61.7922 156.5,70.5C 153.146,74.521 149.479,78.1877 145.5,81.5C 140.158,75.3249 134.325,69.6582 128,64.5C 121.696,69.6369 115.863,75.3035 110.5,81.5C 108.481,79.8103 106.481,78.1436 104.5,76.5C 103.542,75.0384 102.376,73.7051 101,72.5C 100.333,71.5 100.333,70.5 101,69.5C 110.036,60.6317 118.869,51.6317 127.5,42.5 Z"/></g>
<g><path style="opacity:1" fill="#1d1e1c" d="M 186.5,55.5 C 185.974,72.7184 186.474,90.0518 188,107.5C 188.687,110.426 190.52,111.759 193.5,111.5C 192.595,112.702 192.595,114.036 193.5,115.5C 187.277,114.088 184.777,110.088 186,103.5C 185.667,104.167 185.333,104.833 185,105.5C 184.282,104.549 183.449,104.383 182.5,105C 181,106.833 179.5,108.667 178,110.5C 177.667,110.167 177.333,109.833 177,109.5C 176,111.167 175,112.833 174,114.5C 174.068,112.658 173.901,110.991 173.5,109.5C 174.497,109.53 175.164,109.03 175.5,108C 177.09,102.471 178.757,96.9713 180.5,91.5C 180.167,90.1667 179.833,88.8333 179.5,87.5C 178.719,88.7287 178.219,90.062 178,91.5C 177.584,89.4497 176.417,88.1164 174.5,87.5C 171.167,84.8333 168.167,81.8333 165.5,78.5C 164.791,77.596 163.791,77.2627 162.5,77.5C 162.631,76.7611 162.464,76.0944 162,75.5C 160.333,76.1667 158.667,76.8333 157,77.5C 156.383,76.5509 156.549,75.7175 157.5,75C 156.833,74.6667 156.167,74.3333 155.5,74C 156.667,73.5 157.5,72.6667 158,71.5C 158.333,71.8333 158.667,72.1667 159,72.5C 158.478,70.9509 158.645,69.4509 159.5,68C 156.563,65.7331 154.397,62.8998 153,59.5C 152.282,60.4506 151.449,60.6172 150.5,60C 151.451,59.2825 151.617,58.4491 151,57.5C 149.587,55.5864 147.753,54.2531 145.5,53.5C 143.834,51.5793 143.5,49.5793 144.5,47.5C 146.112,46.5477 147.612,46.2144 149,46.5C 150.651,49.2207 152.318,49.5541 154,47.5C 157.385,49.5848 160.885,51.5848 164.5,53.5C 165.806,52.0878 166.64,50.4211 167,48.5C 168.016,47.3659 168.683,47.6992 169,49.5C 169.26,47.3825 170.26,45.7158 172,44.5C 178.305,46.6968 181.805,51.0301 182.5,57.5C 184.199,57.4729 185.533,56.8062 186.5,55.5 Z"/></g>
<g><path style="opacity:1" fill="#5f5f5f" d="M 61.5,104.5 C 61.5,103.833 61.5,103.167 61.5,102.5C 61.3334,84.8302 61.5001,67.1635 62,49.5C 62.6667,48.1667 63.3333,48.1667 64,49.5C 64.6667,67.5 64.6667,85.5 64,103.5C 63.3292,104.252 62.4959,104.586 61.5,104.5 Z"/></g>
<g><path style="opacity:1" fill="#1f201d" d="M 118.5,43.5 C 118.119,44.9311 117.119,45.7645 115.5,46C 116.308,46.3076 116.975,46.8076 117.5,47.5C 114.001,49.5045 111.834,52.5045 111,56.5C 105.941,60.0677 101.441,64.7344 97.5,70.5C 97.7092,71.9945 98.3759,73.1612 99.5,74C 97.9391,74.3176 96.7724,75.1509 96,76.5C 93.3933,73.9745 90.7266,73.9745 88,76.5C 85.9655,77.9442 85.1322,79.9442 85.5,82.5C 82.5299,82.7458 81.1966,84.4124 81.5,87.5C 81.0568,91.7432 80.3901,95.9099 79.5,100C 80.8888,105.99 82.5554,111.823 84.5,117.5C 81.5687,114.24 79.0687,110.573 77,106.5C 76.5,107 76,107.5 75.5,108C 76.5171,109.049 76.6838,110.216 76,111.5C 74.2994,108.644 72.966,105.644 72,102.5C 71.7216,103.416 71.2216,104.082 70.5,104.5C 70.5567,102.116 70.2234,99.7822 69.5,97.5C 70.9748,92.7307 71.4748,87.7307 71,82.5C 72.4578,71.5674 75.1245,60.9007 79,50.5C 81.3333,49.8333 83.6667,49.1667 86,48.5C 86.4186,49.6721 87.0853,50.6721 88,51.5C 90.1486,49.276 89.6486,47.776 86.5,47C 87.9973,45.1294 89.9973,44.1294 92.5,44C 89.8333,43.6667 87.1667,43.3333 84.5,43C 89.6053,42.7113 94.6053,41.878 99.5,40.5C 105.863,41.5922 112.196,42.5922 118.5,43.5 Z"/></g>
<g><path style="opacity:1" fill="#505050" d="M 193.5,103.5 C 192.596,104.209 192.263,105.209 192.5,106.5C 191.5,106.5 190.5,106.5 189.5,106.5C 189.173,85.9242 189.507,65.4242 190.5,45C 191.784,44.3162 192.951,44.4829 194,45.5C 194.601,64.8408 194.434,84.1742 193.5,103.5 Z"/></g>
<g><path style="opacity:1" fill="#434344" d="M 66.5,95.5 C 66.756,99.2693 66.4227,102.936 65.5,106.5C 63.1707,108.002 61.8373,107.336 61.5,104.5C 62.4959,104.586 63.3292,104.252 64,103.5C 64.6667,85.5 64.6667,67.5 64,49.5C 63.3333,48.1667 62.6667,48.1667 62,49.5C 61.5001,67.1635 61.3334,84.8302 61.5,102.5C 60.503,83.674 60.1697,64.674 60.5,45.5C 62.7224,45.178 64.5557,45.8446 66,47.5C 66.4999,63.4965 66.6666,79.4965 66.5,95.5 Z"/></g>
<g><path style="opacity:1" fill="#292a2e" d="M 53.5,53.5 C 54.3578,63.6701 55.0244,74.0035 55.5,84.5C 54.7321,83.7375 54.2321,82.7375 54,81.5C 54.1514,91.3829 53.9848,101.216 53.5,111C 53.6243,118.193 54.1243,125.36 55,132.5C 55.3826,133.056 55.8826,133.389 56.5,133.5C 59.2913,144.077 65.6246,151.744 75.5,156.5C 77.165,160.34 80.165,162.173 84.5,162C 90.6807,162.172 96.6807,162.672 102.5,163.5C 87.4665,163.832 72.4665,163.332 57.5,162C 52.2678,160.324 47.1012,158.491 42,156.5C 39.5313,156.712 37.0313,157.045 34.5,157.5C 30.0062,155.977 25.3395,154.977 20.5,154.5C 19.8333,154.833 19.1667,155.167 18.5,155.5C 13.8867,154.721 9.22,154.221 4.5,154C 3.06919,153.535 1.90252,152.701 1,151.5C 0.617425,152.056 0.117425,152.389 -0.5,152.5C -0.5,125.833 -0.5,99.1667 -0.5,72.5C 0.707917,71.7659 2.04125,71.4326 3.5,71.5C 3.35055,70.448 3.51722,69.448 4,68.5C 4.51817,71.0226 5.8515,73.0226 8,74.5C 12.0219,72.7151 16.3553,71.7151 21,71.5C 25.9092,71.7342 30.7425,72.0675 35.5,72.5C 36.3857,71.675 36.719,70.675 36.5,69.5C 39.2724,69.22 41.7724,69.8866 44,71.5C 44.3333,70.8333 44.6667,70.1667 45,69.5C 45.1858,71.9005 45.6858,74.2338 46.5,76.5C 47.2978,74.9223 47.7978,73.2556 48,71.5C 48.2022,73.2556 48.7022,74.9223 49.5,76.5C 50.1131,75.0202 50.4464,73.6869 50.5,72.5C 51.2811,73.7287 51.7811,75.062 52,76.5C 53.3115,68.8948 53.8115,61.2282 53.5,53.5 Z"/></g>
<g><path style="opacity:1" fill="#29292c" d="M 255.5,68.5 C 255.5,104.167 255.5,139.833 255.5,175.5C 253.863,177.475 252.196,179.475 250.5,181.5C 245.167,181.5 239.833,181.5 234.5,181.5C 235.122,180.373 235.955,179.373 237,178.5C 237.499,174.514 237.666,170.514 237.5,166.5C 238.833,164.167 238.833,161.833 237.5,159.5C 235.5,159.5 233.5,159.5 231.5,159.5C 231.5,158.5 231.5,157.5 231.5,156.5C 233.167,156.5 234.833,156.5 236.5,156.5C 236.5,155.5 236.5,154.5 236.5,153.5C 228.5,152.833 228.5,152.167 236.5,151.5C 236.5,150.5 236.5,149.5 236.5,148.5C 233.5,148.5 230.5,148.5 227.5,148.5C 227.5,149.833 227.5,151.167 227.5,152.5C 227.5,156.167 227.5,159.833 227.5,163.5C 226.167,163.5 225.5,162.833 225.5,161.5C 225.585,160.005 224.919,159.005 223.5,158.5C 218.062,160.227 216.062,158.393 217.5,153C 219.81,152.503 222.143,152.337 224.5,152.5C 224.5,151.5 224.5,150.5 224.5,149.5C 216.762,146.745 213.262,149.412 214,157.5C 214.697,159.584 215.864,161.251 217.5,162.5C 216.685,163.837 215.518,164.837 214,165.5C 213.517,166.448 213.351,167.448 213.5,168.5C 212.167,168.5 211.5,167.833 211.5,166.5C 211.795,164.265 211.461,162.265 210.5,160.5C 210.5,156.833 210.5,153.167 210.5,149.5C 209.5,149.5 208.5,149.5 207.5,149.5C 207.663,151.857 207.497,154.19 207,156.5C 205.264,153.261 202.764,150.927 199.5,149.5C 198.672,155.319 198.172,161.319 198,167.5C 197.802,165.618 197.302,163.952 196.5,162.5C 196.025,160.216 195.025,158.216 193.5,156.5C 193.34,154.847 192.674,153.514 191.5,152.5C 191.737,151.209 191.404,150.209 190.5,149.5C 191.248,147.668 192.248,146.001 193.5,144.5C 199.139,137.533 200.972,129.533 199,120.5C 198.667,121.5 198.333,122.5 198,123.5C 197.754,119.995 196.254,117.329 193.5,115.5C 192.595,114.036 192.595,112.702 193.5,111.5C 193.5,108.833 193.5,106.167 193.5,103.5C 194.397,95.9103 196.231,88.5769 199,81.5C 199.667,67.5 199.667,53.5 199,39.5C 197.487,36.9761 196.82,34.3094 197,31.5C 199.328,35.4877 200.662,39.8211 201,44.5C 201.333,53.5 201.667,62.5 202,71.5C 203.142,69.3823 203.642,67.3823 203.5,65.5C 206.101,66.6908 207.768,68.6908 208.5,71.5C 209.711,70.7261 209.711,69.8928 208.5,69C 210.167,68.6667 211.833,68.3333 213.5,68C 213.167,67.6667 212.833,67.3333 212.5,67C 214.836,67.7722 217.169,67.6056 219.5,66.5C 221.883,67.276 223.883,68.6093 225.5,70.5C 227.453,71.1556 229.453,71.4889 231.5,71.5C 231.5,70.5 231.5,69.5 231.5,68.5C 234.518,68.7038 237.518,69.0371 240.5,69.5C 240.281,68.325 240.614,67.325 241.5,66.5C 242.892,67.6053 244.059,68.9386 245,70.5C 245.684,69.2161 245.517,68.0495 244.5,67C 248.232,65.9771 251.399,66.8104 254,69.5C 254.383,68.944 254.883,68.6107 255.5,68.5 Z"/></g>
<g><path style="opacity:1" fill="#d4be08" d="M 91.5,98.5 C 89.1394,96.8061 87.1394,94.8061 85.5,92.5C 84.1667,91.8333 83.1667,90.8333 82.5,89.5C 84.8926,85.5977 87.8926,82.0977 91.5,79C 95.7973,81.1084 99.464,84.2751 102.5,88.5C 99.417,92.5881 95.7504,95.9214 91.5,98.5 Z"/></g>
<g><path style="opacity:1" fill="#d1bc09" d="M 165.5,78.5 C 168.167,81.8333 171.167,84.8333 174.5,87.5C 171.604,91.9046 168.104,95.9046 164,99.5C 163.292,98.6195 162.458,97.9528 161.5,97.5C 158.856,94.5198 156.189,91.5198 153.5,88.5C 157.021,85.8132 160.021,82.6465 162.5,79C 163.448,78.5172 164.448,78.3505 165.5,78.5 Z"/></g>
<g><path style="opacity:1" fill="#292412" d="M 144.5,47.5 C 143.5,49.5793 143.834,51.5793 145.5,53.5C 147.753,54.2531 149.587,55.5864 151,57.5C 151.617,58.4491 151.451,59.2825 150.5,60C 151.449,60.6172 152.282,60.4506 153,59.5C 154.397,62.8998 156.563,65.7331 159.5,68C 158.645,69.4509 158.478,70.9509 159,72.5C 158.667,72.1667 158.333,71.8333 158,71.5C 157.5,72.6667 156.667,73.5 155.5,74C 156.167,74.3333 156.833,74.6667 157.5,75C 156.549,75.7175 156.383,76.5509 157,77.5C 158.667,76.8333 160.333,76.1667 162,75.5C 162.464,76.0944 162.631,76.7611 162.5,77.5C 161.448,77.3505 160.448,77.5172 159.5,78C 157.658,80.5429 155.491,82.7096 153,84.5C 152.824,87.8818 152.324,91.2152 151.5,94.5C 150.833,94.8333 150.167,95.1667 149.5,95.5C 148.751,93.9884 147.584,92.9884 146,92.5C 143.901,93.2865 141.734,93.6199 139.5,93.5C 139.663,91.1432 139.497,88.8098 139,86.5C 136.558,83.7571 134.892,80.7571 134,77.5C 134.333,77.1667 134.667,76.8333 135,76.5C 136,77.8333 137,79.1667 138,80.5C 141.101,79.0501 143.101,80.0501 144,83.5C 144.717,82.9558 145.217,82.2891 145.5,81.5C 149.479,78.1877 153.146,74.521 156.5,70.5C 148.124,61.7922 139.791,53.1255 131.5,44.5C 132.913,43.0089 134.413,42.3423 136,42.5C 138.167,43.3333 139.667,44.8333 140.5,47C 141.793,47.49 143.127,47.6567 144.5,47.5 Z"/></g>
<g><path style="opacity:1" fill="#2e2710" d="M 127.5,42.5 C 118.869,51.6317 110.036,60.6317 101,69.5C 100.333,70.5 100.333,71.5 101,72.5C 102.376,73.7051 103.542,75.0384 104.5,76.5C 104.539,77.5832 104.873,78.5832 105.5,79.5C 104.833,80.1667 104.167,80.8333 103.5,81.5C 106.92,81.9155 110.587,82.4155 114.5,83C 116.002,85.5741 117.002,88.4074 117.5,91.5C 118.417,92.1272 119.417,92.4606 120.5,92.5C 121.038,94.1172 121.371,95.7839 121.5,97.5C 122.5,97.5 123.5,97.5 124.5,97.5C 125.167,99.5 125.833,101.5 126.5,103.5C 125.5,103.5 124.5,103.5 123.5,103.5C 123.5,102.5 123.5,101.5 123.5,100.5C 122.5,100.5 121.5,100.5 120.5,100.5C 120.5,99.5 120.5,98.5 120.5,97.5C 119.5,97.5 118.5,97.5 117.5,97.5C 114.332,94.9439 110.666,93.9439 106.5,94.5C 105.679,97.3385 104.013,99.6719 101.5,101.5C 100.571,102.689 100.238,104.022 100.5,105.5C 100.733,107.062 101.4,108.395 102.5,109.5C 97.9625,108.609 96.9625,106.443 99.5,103C 97.8769,101.124 98.2102,99.7904 100.5,99C 99.1279,98.5983 97.7946,98.0983 96.5,97.5C 94.9536,99.484 93.2869,99.8174 91.5,98.5C 95.7504,95.9214 99.417,92.5881 102.5,88.5C 99.464,84.2751 95.7973,81.1084 91.5,79C 87.8926,82.0977 84.8926,85.5977 82.5,89.5C 81.6618,89.1583 81.3284,88.4916 81.5,87.5C 81.1966,84.4124 82.5299,82.7458 85.5,82.5C 85.1322,79.9442 85.9655,77.9442 88,76.5C 90.7266,73.9745 93.3933,73.9745 96,76.5C 96.7724,75.1509 97.9391,74.3176 99.5,74C 98.3759,73.1612 97.7092,71.9945 97.5,70.5C 101.441,64.7344 105.941,60.0677 111,56.5C 111.834,52.5045 114.001,49.5045 117.5,47.5C 116.975,46.8076 116.308,46.3076 115.5,46C 117.119,45.7645 118.119,44.9311 118.5,43.5C 119.222,43.9175 119.722,44.5842 120,45.5C 121.333,44.1667 122.667,42.8333 124,41.5C 125.011,42.3366 126.178,42.67 127.5,42.5 Z"/></g>
<g><path style="opacity:1" fill="#322808" d="M 145.5,81.5 C 145.217,82.2891 144.717,82.9558 144,83.5C 143.101,80.0501 141.101,79.0501 138,80.5C 137,79.1667 136,77.8333 135,76.5C 134.667,76.8333 134.333,77.1667 134,77.5C 134.892,80.7571 136.558,83.7571 139,86.5C 139.497,88.8098 139.663,91.1432 139.5,93.5C 141.734,93.6199 143.901,93.2865 146,92.5C 147.584,92.9884 148.751,93.9884 149.5,95.5C 150.167,95.1667 150.833,94.8333 151.5,94.5C 152.324,91.2152 152.824,87.8818 153,84.5C 155.491,82.7096 157.658,80.5429 159.5,78C 160.448,77.5172 161.448,77.3505 162.5,77.5C 163.791,77.2627 164.791,77.596 165.5,78.5C 164.448,78.3505 163.448,78.5172 162.5,79C 160.021,82.6465 157.021,85.8132 153.5,88.5C 156.189,91.5198 158.856,94.5198 161.5,97.5C 158.57,96.4218 155.57,95.9218 152.5,96C 152.043,96.414 151.709,96.914 151.5,97.5C 153.264,99.1296 154.264,101.13 154.5,103.5C 151.833,101.5 149.5,99.1667 147.5,96.5C 141.146,96.7694 136.479,100.103 133.5,106.5C 131.833,107.5 130.167,108.5 128.5,109.5C 123.866,106.381 120.199,102.381 117.5,97.5C 118.5,97.5 119.5,97.5 120.5,97.5C 120.5,98.5 120.5,99.5 120.5,100.5C 121.5,100.5 122.5,100.5 123.5,100.5C 123.5,101.5 123.5,102.5 123.5,103.5C 124.5,103.5 125.5,103.5 126.5,103.5C 125.833,101.5 125.167,99.5 124.5,97.5C 123.5,97.5 122.5,97.5 121.5,97.5C 121.371,95.7839 121.038,94.1172 120.5,92.5C 119.417,92.4606 118.417,92.1272 117.5,91.5C 117.002,88.4074 116.002,85.5741 114.5,83C 110.587,82.4155 106.92,81.9155 103.5,81.5C 104.167,80.8333 104.833,80.1667 105.5,79.5C 104.873,78.5832 104.539,77.5832 104.5,76.5C 106.481,78.1436 108.481,79.8103 110.5,81.5C 115.863,75.3035 121.696,69.6369 128,64.5C 134.325,69.6582 140.158,75.3249 145.5,81.5 Z"/></g>
<g><path style="opacity:1" fill="#d2bd07" d="M 120.5,92.5 C 119.524,91.1851 118.524,89.8518 117.5,88.5C 120.895,84.952 124.562,81.6187 128.5,78.5C 132.167,81.5 135.5,84.8333 138.5,88.5C 135.468,92.3659 131.968,95.6992 128,98.5C 125.348,96.6802 122.848,94.6802 120.5,92.5 Z"/></g>
<g><path style="opacity:1" fill="#151716" d="M 193.5,115.5 C 196.254,117.329 197.754,119.995 198,123.5C 198.333,122.5 198.667,121.5 199,120.5C 200.972,129.533 199.139,137.533 193.5,144.5C 193.357,142.738 193.691,141.071 194.5,139.5C 193.667,137.833 192.833,136.167 192,134.5C 185.119,139.083 177.619,140.917 169.5,140C 167.377,138.806 165.043,138.14 162.5,138C 163.888,137.111 163.722,136.611 162,136.5C 160.7,137.452 159.533,137.452 158.5,136.5C 160.478,135.197 160.478,133.531 158.5,131.5C 156.388,132.199 154.388,131.699 152.5,130C 155.249,128.877 157.749,127.377 160,125.5C 160.333,125.833 160.667,126.167 161,126.5C 165.323,120.93 169.49,115.263 173.5,109.5C 173.901,110.991 174.068,112.658 174,114.5C 175,112.833 176,111.167 177,109.5C 177.333,109.833 177.667,110.167 178,110.5C 179.5,108.667 181,106.833 182.5,105C 183.449,104.383 184.282,104.549 185,105.5C 185.333,104.833 185.667,104.167 186,103.5C 184.777,110.088 187.277,114.088 193.5,115.5 Z"/></g>
<g><path style="opacity:1" fill="#181710" d="M 81.5,87.5 C 81.3284,88.4916 81.6618,89.1583 82.5,89.5C 83.1667,90.8333 84.1667,91.8333 85.5,92.5C 86.299,95.4299 86.6323,98.4299 86.5,101.5C 88.4918,101.328 90.1585,101.995 91.5,103.5C 92.086,103.291 92.586,102.957 93,102.5C 93.3534,103.672 93.1868,104.838 92.5,106C 93.0104,107.826 93.8438,107.993 95,106.5C 95.7429,108.441 95.5762,110.274 94.5,112C 95.5634,113.188 96.8967,113.688 98.5,113.5C 98.9426,118.208 101.276,121.708 105.5,124C 104.692,124.308 104.025,124.808 103.5,125.5C 108.982,127.994 114.482,130.327 120,132.5C 120.333,132.167 120.667,131.833 121,131.5C 122.427,136.808 125.26,137.808 129.5,134.5C 138.131,125.368 146.964,116.368 156,107.5C 156.3,105.934 155.8,104.601 154.5,103.5C 154.264,101.13 153.264,99.1296 151.5,97.5C 151.709,96.914 152.043,96.414 152.5,96C 155.57,95.9218 158.57,96.4218 161.5,97.5C 162.458,97.9528 163.292,98.6195 164,99.5C 168.104,95.9046 171.604,91.9046 174.5,87.5C 176.417,88.1164 177.584,89.4497 178,91.5C 178.219,90.062 178.719,88.7287 179.5,87.5C 179.833,88.8333 180.167,90.1667 180.5,91.5C 178.757,96.9713 177.09,102.471 175.5,108C 175.164,109.03 174.497,109.53 173.5,109.5C 169.49,115.263 165.323,120.93 161,126.5C 160.667,126.167 160.333,125.833 160,125.5C 157.749,127.377 155.249,128.877 152.5,130C 154.388,131.699 156.388,132.199 158.5,131.5C 160.478,133.531 160.478,135.197 158.5,136.5C 159.533,137.452 160.7,137.452 162,136.5C 163.722,136.611 163.888,137.111 162.5,138C 165.043,138.14 167.377,138.806 169.5,140C 177.619,140.917 185.119,139.083 192,134.5C 192.833,136.167 193.667,137.833 194.5,139.5C 193.691,141.071 193.357,142.738 193.5,144.5C 192.248,146.001 191.248,147.668 190.5,149.5C 189.325,149.281 188.325,149.614 187.5,150.5C 186.518,153.096 185.851,155.762 185.5,158.5C 184.265,158.721 183.265,159.388 182.5,160.5C 182.167,160.167 181.833,159.833 181.5,159.5C 180.911,156.36 180.244,153.36 179.5,150.5C 178.325,150.281 177.325,150.614 176.5,151.5C 177.544,153.768 177.711,156.101 177,158.5C 174.932,154.93 172.099,152.263 168.5,150.5C 167.834,154.021 167.167,157.687 166.5,161.5C 165.817,161.863 165.15,162.196 164.5,162.5C 164.5,160.833 164.5,159.167 164.5,157.5C 164.5,155.167 164.5,152.833 164.5,150.5C 163.167,150.5 161.833,150.5 160.5,150.5C 160.5,154.167 160.5,157.833 160.5,161.5C 160.217,162.289 159.717,162.956 159,163.5C 158.768,162.263 158.268,161.263 157.5,160.5C 157.047,159.542 156.381,158.708 155.5,158C 156.935,155.733 156.602,153.733 154.5,152C 151.854,151.503 149.187,151.336 146.5,151.5C 145.549,152.919 145.216,154.585 145.5,156.5C 144.784,154.444 144.117,152.277 143.5,150C 140.167,149.667 136.833,149.333 133.5,149C 134.676,147.326 136.01,145.826 137.5,144.5C 137.023,143.522 136.357,142.689 135.5,142C 129.983,142.122 124.316,141.955 118.5,141.5C 118.5,142.5 118.5,143.5 118.5,144.5C 114.71,144.992 114.044,144.159 116.5,142C 116.167,141.667 115.833,141.333 115.5,141C 110.091,140.279 105.091,138.612 100.5,136C 100.167,135.667 99.8333,135.333 99.5,135C 100.494,133.671 101.494,132.338 102.5,131C 99.5603,127.227 95.8937,124.394 91.5,122.5C 90.2599,119.255 87.9266,117.588 84.5,117.5C 82.5554,111.823 80.8888,105.99 79.5,100C 80.3901,95.9099 81.0568,91.7432 81.5,87.5 Z"/></g>
<g><path style="opacity:1" fill="#1f1c0f" d="M 85.5,92.5 C 87.1394,94.8061 89.1394,96.8061 91.5,98.5C 93.2869,99.8174 94.9536,99.484 96.5,97.5C 97.7946,98.0983 99.1279,98.5983 100.5,99C 98.2102,99.7904 97.8769,101.124 99.5,103C 96.9625,106.443 97.9625,108.609 102.5,109.5C 110.352,117.852 118.352,126.019 126.5,134C 127.448,134.483 128.448,134.649 129.5,134.5C 125.26,137.808 122.427,136.808 121,131.5C 120.667,131.833 120.333,132.167 120,132.5C 114.482,130.327 108.982,127.994 103.5,125.5C 104.025,124.808 104.692,124.308 105.5,124C 101.276,121.708 98.9426,118.208 98.5,113.5C 96.8967,113.688 95.5634,113.188 94.5,112C 95.5762,110.274 95.7429,108.441 95,106.5C 93.8438,107.993 93.0104,107.826 92.5,106C 93.1868,104.838 93.3534,103.672 93,102.5C 92.586,102.957 92.086,103.291 91.5,103.5C 90.1585,101.995 88.4918,101.328 86.5,101.5C 86.6323,98.4299 86.299,95.4299 85.5,92.5 Z"/></g>
<g><path style="opacity:1" fill="#4f3b04" d="M 117.5,97.5 C 120.199,102.381 123.866,106.381 128.5,109.5C 130.167,108.5 131.833,107.5 133.5,106.5C 136.479,100.103 141.146,96.7694 147.5,96.5C 145.567,96.7286 143.9,97.5619 142.5,99C 137.939,103.972 133.273,108.805 128.5,113.5C 122.5,107.833 116.5,102.167 110.5,96.5C 107.147,99.5222 103.813,102.522 100.5,105.5C 100.238,104.022 100.571,102.689 101.5,101.5C 104.013,99.6719 105.679,97.3385 106.5,94.5C 110.666,93.9439 114.332,94.9439 117.5,97.5 Z"/></g>
<g><path style="opacity:1" fill="#d3bc06" d="M 147.5,96.5 C 149.5,99.1667 151.833,101.5 154.5,103.5C 155.8,104.601 156.3,105.934 156,107.5C 146.964,116.368 138.131,125.368 129.5,134.5C 128.448,134.649 127.448,134.483 126.5,134C 118.352,126.019 110.352,117.852 102.5,109.5C 101.4,108.395 100.733,107.062 100.5,105.5C 103.813,102.522 107.147,99.5222 110.5,96.5C 116.5,102.167 122.5,107.833 128.5,113.5C 133.273,108.805 137.939,103.972 142.5,99C 143.9,97.5619 145.567,96.7286 147.5,96.5 Z"/></g>
<g><path style="opacity:1" fill="#121312" d="M 84.5,117.5 C 87.9266,117.588 90.2599,119.255 91.5,122.5C 95.8937,124.394 99.5603,127.227 102.5,131C 101.494,132.338 100.494,133.671 99.5,135C 99.8333,135.333 100.167,135.667 100.5,136C 105.091,138.612 110.091,140.279 115.5,141C 115.833,141.333 116.167,141.667 116.5,142C 114.044,144.159 114.71,144.992 118.5,144.5C 118.5,143.5 118.5,142.5 118.5,141.5C 124.316,141.955 129.983,142.122 135.5,142C 136.357,142.689 137.023,143.522 137.5,144.5C 136.01,145.826 134.676,147.326 133.5,149C 136.833,149.333 140.167,149.667 143.5,150C 144.117,152.277 144.784,154.444 145.5,156.5C 145.5,158.167 145.5,159.833 145.5,161.5C 131.411,163.456 117.077,164.123 102.5,163.5C 96.6807,162.672 90.6807,162.172 84.5,162C 80.165,162.173 77.165,160.34 75.5,156.5C 65.6246,151.744 59.2913,144.077 56.5,133.5C 59.6515,125.208 63.8182,117.541 69,110.5C 69.3153,108.414 69.8153,106.414 70.5,104.5C 71.2216,104.082 71.7216,103.416 72,102.5C 72.966,105.644 74.2994,108.644 76,111.5C 76.6838,110.216 76.5171,109.049 75.5,108C 76,107.5 76.5,107 77,106.5C 79.0687,110.573 81.5687,114.24 84.5,117.5 Z"/></g>
<g><path style="opacity:0.996" fill="#302f32" d="M 102.5,163.5 C 117.077,164.123 131.411,163.456 145.5,161.5C 145.5,163.5 145.5,165.5 145.5,167.5C 138.582,168.16 131.582,169.16 124.5,170.5C 118.991,169.859 113.491,169.192 108,168.5C 104.322,169.291 100.822,170.457 97.5,172C 101.333,173.5 101.5,175.333 98,177.5C 97.6667,177.167 97.3333,176.833 97,176.5C 95.1841,177.924 93.6841,179.59 92.5,181.5C 63.5,181.5 34.5,181.5 5.5,181.5C 3.52483,179.863 1.52483,178.196 -0.5,176.5C -0.5,168.5 -0.5,160.5 -0.5,152.5C 0.117425,152.389 0.617425,152.056 1,151.5C 1.90252,152.701 3.06919,153.535 4.5,154C 9.22,154.221 13.8867,154.721 18.5,155.5C 19.1667,155.167 19.8333,154.833 20.5,154.5C 25.3395,154.977 30.0062,155.977 34.5,157.5C 37.0313,157.045 39.5313,156.712 42,156.5C 47.1012,158.491 52.2678,160.324 57.5,162C 72.4665,163.332 87.4665,163.832 102.5,163.5 Z"/></g>
<g><path style="opacity:1" fill="#c7b313" d="M 146.5,151.5 C 149.187,151.336 151.854,151.503 154.5,152C 156.602,153.733 156.935,155.733 155.5,158C 156.381,158.708 157.047,159.542 157.5,160.5C 157.88,162.698 157.213,164.365 155.5,165.5C 152.5,165.5 149.5,165.5 146.5,165.5C 146.5,160.833 146.5,156.167 146.5,151.5 Z"/></g>
<g><path style="opacity:1" fill="#c2b018" d="M 237.5,159.5 C 237.5,160.5 237.5,161.5 237.5,162.5C 234.5,162.5 231.5,162.5 228.5,162.5C 228.813,158.958 228.479,155.625 227.5,152.5C 227.5,151.167 227.5,149.833 227.5,148.5C 230.5,148.5 233.5,148.5 236.5,148.5C 236.5,149.5 236.5,150.5 236.5,151.5C 228.5,152.167 228.5,152.833 236.5,153.5C 236.5,154.5 236.5,155.5 236.5,156.5C 234.833,156.5 233.167,156.5 231.5,156.5C 231.5,157.5 231.5,158.5 231.5,159.5C 233.5,159.5 235.5,159.5 237.5,159.5 Z"/></g>
<g><path style="opacity:1" fill="#272308" d="M 148.5,154.5 C 150.167,154.5 151.833,154.5 153.5,154.5C 153.5,155.5 153.5,156.5 153.5,157.5C 151.833,157.5 150.167,157.5 148.5,157.5C 148.5,156.5 148.5,155.5 148.5,154.5 Z"/></g>
<g><path style="opacity:1" fill="#cdb817" d="M 164.5,157.5 C 164.5,159.167 164.5,160.833 164.5,162.5C 164.5,163.5 164.5,164.5 164.5,165.5C 163.5,165.5 162.5,165.5 161.5,165.5C 161.5,164.167 161.5,162.833 161.5,161.5C 161.18,158.102 161.513,154.768 162.5,151.5C 163.169,153.631 163.835,155.631 164.5,157.5 Z"/></g>
<g><path style="opacity:1" fill="#685c17" d="M 164.5,157.5 C 163.835,155.631 163.169,153.631 162.5,151.5C 161.513,154.768 161.18,158.102 161.5,161.5C 161.167,161.5 160.833,161.5 160.5,161.5C 160.5,157.833 160.5,154.167 160.5,150.5C 161.833,150.5 163.167,150.5 164.5,150.5C 164.5,152.833 164.5,155.167 164.5,157.5 Z"/></g>
<g><path style="opacity:1" fill="#bdac17" d="M 225.5,161.5 C 224.508,161.328 223.842,161.662 223.5,162.5C 221.5,162.5 219.5,162.5 217.5,162.5C 215.864,161.251 214.697,159.584 214,157.5C 213.262,149.412 216.762,146.745 224.5,149.5C 224.5,150.5 224.5,151.5 224.5,152.5C 222.143,152.337 219.81,152.503 217.5,153C 216.062,158.393 218.062,160.227 223.5,158.5C 224.919,159.005 225.585,160.005 225.5,161.5 Z"/></g>
<g><path style="opacity:1" fill="#1d1b07" d="M 149.5,160.5 C 151.288,160.215 152.955,160.548 154.5,161.5C 153.667,161.833 152.833,162.167 152,162.5C 150.624,162.316 149.791,161.649 149.5,160.5 Z"/></g>
<g><path style="opacity:1" fill="#c6b315" d="M 199.5,149.5 C 202.764,150.927 205.264,153.261 207,156.5C 207.497,154.19 207.663,151.857 207.5,149.5C 208.5,149.5 209.5,149.5 210.5,149.5C 210.5,153.167 210.5,156.833 210.5,160.5C 210.598,163.248 209.598,163.914 207.5,162.5C 206.974,160.77 205.974,159.436 204.5,158.5C 204.217,157.711 203.717,157.044 203,156.5C 202.503,158.81 202.337,161.143 202.5,163.5C 201.5,163.5 200.5,163.5 199.5,163.5C 199.5,158.833 199.5,154.167 199.5,149.5 Z"/></g>
<g><path style="opacity:1" fill="#c2b014" d="M 190.5,149.5 C 191.404,150.209 191.737,151.209 191.5,152.5C 189.028,153.642 188.028,155.642 188.5,158.5C 189.5,158.5 190.5,158.5 191.5,158.5C 191.131,156.007 191.797,155.34 193.5,156.5C 195.025,158.216 196.025,160.216 196.5,162.5C 196.5,162.833 196.5,163.167 196.5,163.5C 195.5,163.5 194.5,163.5 193.5,163.5C 192.082,161.692 190.082,161.025 187.5,161.5C 186.596,162.209 186.263,163.209 186.5,164.5C 185.5,164.5 184.5,164.5 183.5,164.5C 184.167,162.5 184.833,160.5 185.5,158.5C 185.851,155.762 186.518,153.096 187.5,150.5C 188.325,149.614 189.325,149.281 190.5,149.5 Z"/></g>
<g><path style="opacity:1" fill="#373527" d="M 204.5,158.5 C 205.974,159.436 206.974,160.77 207.5,162.5C 206.817,164.176 205.483,164.843 203.5,164.5C 203.205,162.265 203.539,160.265 204.5,158.5 Z"/></g>
<g><path style="opacity:1" fill="#36332c" d="M 145.5,167.5 C 145.5,170.167 145.5,172.833 145.5,175.5C 145.5,177.5 145.5,179.5 145.5,181.5C 127.833,181.5 110.167,181.5 92.5,181.5C 93.6841,179.59 95.1841,177.924 97,176.5C 97.3333,176.833 97.6667,177.167 98,177.5C 101.5,175.333 101.333,173.5 97.5,172C 100.822,170.457 104.322,169.291 108,168.5C 113.491,169.192 118.991,169.859 124.5,170.5C 131.582,169.16 138.582,168.16 145.5,167.5 Z"/></g>
<g><path style="opacity:1" fill="#645817" d="M 204.5,158.5 C 203.539,160.265 203.205,162.265 203.5,164.5C 205.483,164.843 206.817,164.176 207.5,162.5C 209.598,163.914 210.598,163.248 210.5,160.5C 211.461,162.265 211.795,164.265 211.5,166.5C 210.539,168.265 210.205,170.265 210.5,172.5C 208.508,172.672 206.842,172.005 205.5,170.5C 204.418,172.784 202.752,173.95 200.5,174C 199.544,170.606 199.211,167.106 199.5,163.5C 200.5,163.5 201.5,163.5 202.5,163.5C 202.337,161.143 202.503,158.81 203,156.5C 203.717,157.044 204.217,157.711 204.5,158.5 Z"/></g>
<g><path style="opacity:1" fill="#695b17" d="M 217.5,162.5 C 219.5,162.5 221.5,162.5 223.5,162.5C 223.5,163.5 223.5,164.5 223.5,165.5C 221.833,165.5 220.167,165.5 218.5,165.5C 219.129,170.055 217.462,171.722 213.5,170.5C 213.5,169.833 213.5,169.167 213.5,168.5C 213.351,167.448 213.517,166.448 214,165.5C 215.518,164.837 216.685,163.837 217.5,162.5 Z"/></g>
<g><path style="opacity:1" fill="#6d5e0c" d="M 146.5,151.5 C 146.5,156.167 146.5,160.833 146.5,165.5C 149.5,165.5 152.5,165.5 155.5,165.5C 156.472,166.399 157.138,167.566 157.5,169C 156.923,171.137 156.59,173.304 156.5,175.5C 153.018,173.648 150.185,174.314 148,177.5C 147.292,176.619 146.458,175.953 145.5,175.5C 145.5,172.833 145.5,170.167 145.5,167.5C 145.5,165.5 145.5,163.5 145.5,161.5C 145.5,159.833 145.5,158.167 145.5,156.5C 145.216,154.585 145.549,152.919 146.5,151.5 Z"/></g>
<g><path style="opacity:1" fill="#564d21" d="M 227.5,152.5 C 228.479,155.625 228.813,158.958 228.5,162.5C 228.5,164.833 228.5,167.167 228.5,169.5C 231.14,169.046 233.473,167.879 235.5,166C 236.305,164.887 236.972,163.721 237.5,162.5C 237.5,161.5 237.5,160.5 237.5,159.5C 238.833,161.833 238.833,164.167 237.5,166.5C 236.832,169.245 235.499,171.745 233.5,174C 232.167,174.667 230.833,174.667 229.5,174C 227.638,170.851 226.971,167.351 227.5,163.5C 227.5,159.833 227.5,156.167 227.5,152.5 Z"/></g>
<g><path style="opacity:1" fill="#71620b" d="M 228.5,162.5 C 231.5,162.5 234.5,162.5 237.5,162.5C 236.972,163.721 236.305,164.887 235.5,166C 233.473,167.879 231.14,169.046 228.5,169.5C 228.5,167.167 228.5,164.833 228.5,162.5 Z"/></g>
<g><path style="opacity:1" fill="#413d2c" d="M 225.5,161.5 C 225.5,162.833 226.167,163.5 227.5,163.5C 226.971,167.351 227.638,170.851 229.5,174C 230.833,174.667 232.167,174.667 233.5,174C 235.499,171.745 236.832,169.245 237.5,166.5C 237.666,170.514 237.499,174.514 237,178.5C 235.955,179.373 235.122,180.373 234.5,181.5C 220.5,181.5 206.5,181.5 192.5,181.5C 193.992,178.517 195.492,175.517 197,172.5C 197.912,175.239 199.412,177.572 201.5,179.5C 203.432,178.855 204.599,177.521 205,175.5C 206.316,178.047 208.149,178.713 210.5,177.5C 210.938,174.705 211.938,172.372 213.5,170.5C 217.462,171.722 219.129,170.055 218.5,165.5C 220.167,165.5 221.833,165.5 223.5,165.5C 223.5,164.5 223.5,163.5 223.5,162.5C 223.842,161.662 224.508,161.328 225.5,161.5 Z"/></g>
<g><path style="opacity:1" fill="#453e23" d="M 199.5,149.5 C 199.5,154.167 199.5,158.833 199.5,163.5C 199.211,167.106 199.544,170.606 200.5,174C 202.752,173.95 204.418,172.784 205.5,170.5C 206.842,172.005 208.508,172.672 210.5,172.5C 210.205,170.265 210.539,168.265 211.5,166.5C 211.5,167.833 212.167,168.5 213.5,168.5C 213.5,169.167 213.5,169.833 213.5,170.5C 211.938,172.372 210.938,174.705 210.5,177.5C 208.149,178.713 206.316,178.047 205,175.5C 204.599,177.521 203.432,178.855 201.5,179.5C 199.412,177.572 197.912,175.239 197,172.5C 195.492,175.517 193.992,178.517 192.5,181.5C 176.833,181.5 161.167,181.5 145.5,181.5C 145.5,179.5 145.5,177.5 145.5,175.5C 146.458,175.953 147.292,176.619 148,177.5C 150.185,174.314 153.018,173.648 156.5,175.5C 156.59,173.304 156.923,171.137 157.5,169C 157.138,167.566 156.472,166.399 155.5,165.5C 157.213,164.365 157.88,162.698 157.5,160.5C 158.268,161.263 158.768,162.263 159,163.5C 159.717,162.956 160.217,162.289 160.5,161.5C 160.833,161.5 161.167,161.5 161.5,161.5C 161.5,162.833 161.5,164.167 161.5,165.5C 160.701,168.43 160.368,171.43 160.5,174.5C 161.822,174.67 162.989,174.337 164,173.5C 164.497,170.854 164.664,168.187 164.5,165.5C 164.5,164.5 164.5,163.5 164.5,162.5C 165.15,162.196 165.817,161.863 166.5,161.5C 167.167,157.687 167.834,154.021 168.5,150.5C 168.5,155.167 168.5,159.833 168.5,164.5C 168.5,168.167 168.5,171.833 168.5,175.5C 172.172,174.346 175.838,174.179 179.5,175C 180.456,171.606 180.789,168.106 180.5,164.5C 179.873,159.859 179.54,155.193 179.5,150.5C 180.244,153.36 180.911,156.36 181.5,159.5C 181.833,159.833 182.167,160.167 182.5,160.5C 183.265,159.388 184.265,158.721 185.5,158.5C 184.833,160.5 184.167,162.5 183.5,164.5C 184.511,166.372 185.345,168.372 186,170.5C 192.169,172.531 195.669,170.198 196.5,163.5C 196.5,163.167 196.5,162.833 196.5,162.5C 197.302,163.952 197.802,165.618 198,167.5C 198.172,161.319 198.672,155.319 199.5,149.5 Z"/></g>
<g><path style="opacity:1" fill="#6e5f0c" d="M 187.5,161.5 C 187.5,162.833 187.5,164.167 187.5,165.5C 190.082,165.975 192.082,165.308 193.5,163.5C 194.5,163.5 195.5,163.5 196.5,163.5C 195.669,170.198 192.169,172.531 186,170.5C 185.345,168.372 184.511,166.372 183.5,164.5C 184.5,164.5 185.5,164.5 186.5,164.5C 186.263,163.209 186.596,162.209 187.5,161.5 Z"/></g>
<g><path style="opacity:1" fill="#635614" d="M 171.5,162.5 C 172.434,163.568 172.768,164.901 172.5,166.5C 174.973,166.912 176.306,165.912 176.5,163.5C 177.708,164.234 179.041,164.567 180.5,164.5C 180.789,168.106 180.456,171.606 179.5,175C 175.838,174.179 172.172,174.346 168.5,175.5C 168.5,171.833 168.5,168.167 168.5,164.5C 170.179,164.715 171.179,164.048 171.5,162.5 Z"/></g>
<g><path style="opacity:1" fill="#70610f" d="M 161.5,165.5 C 162.5,165.5 163.5,165.5 164.5,165.5C 164.664,168.187 164.497,170.854 164,173.5C 162.989,174.337 161.822,174.67 160.5,174.5C 160.368,171.43 160.701,168.43 161.5,165.5 Z"/></g>
<g><path style="opacity:1" fill="#393423" d="M 187.5,161.5 C 190.082,161.025 192.082,161.692 193.5,163.5C 192.082,165.308 190.082,165.975 187.5,165.5C 187.5,164.167 187.5,162.833 187.5,161.5 Z"/></g>
<g><path style="opacity:1" fill="#2e2a1a" d="M 176.5,163.5 C 176.306,165.912 174.973,166.912 172.5,166.5C 172.768,164.901 172.434,163.568 171.5,162.5C 171.34,160.801 171.506,159.134 172,157.5C 174.127,159.114 175.627,161.114 176.5,163.5 Z"/></g>
<g><path style="opacity:1" fill="#cdb812" d="M 168.5,150.5 C 172.099,152.263 174.932,154.93 177,158.5C 177.711,156.101 177.544,153.768 176.5,151.5C 177.325,150.614 178.325,150.281 179.5,150.5C 179.54,155.193 179.873,159.859 180.5,164.5C 179.041,164.567 177.708,164.234 176.5,163.5C 175.627,161.114 174.127,159.114 172,157.5C 171.506,159.134 171.34,160.801 171.5,162.5C 171.179,164.048 170.179,164.715 168.5,164.5C 168.5,159.833 168.5,155.167 168.5,150.5 Z"/></g>
<g><path style="opacity:1" fill="#968814" d="M 191.5,152.5 C 192.674,153.514 193.34,154.847 193.5,156.5C 191.797,155.34 191.131,156.007 191.5,158.5C 190.5,158.5 189.5,158.5 188.5,158.5C 188.028,155.642 189.028,153.642 191.5,152.5 Z"/></g>
</svg>
