<?xml version="1.0" encoding="UTF-8"?>
<!DOCTYPE svg PUBLIC "-//W3C//DTD SVG 1.1//EN" "http://www.w3.org/Graphics/SVG/1.1/DTD/svg11.dtd">
<svg xmlns="http://www.w3.org/2000/svg" version="1.1" width="256px" height="182px" style="shape-rendering:geometricPrecision; text-rendering:geometricPrecision; image-rendering:optimizeQuality; fill-rule:evenodd; clip-rule:evenodd" xmlns:xlink="http://www.w3.org/1999/xlink">
<g><path style="opacity:1" fill="#6c6c6c" d="M 4.5,-0.5 C 62.8333,-0.5 121.167,-0.5 179.5,-0.5C 179.611,0.117425 179.944,0.617425 180.5,1C 186.163,1.35948 191.83,2.02614 197.5,3C 199.676,3.16294 201.509,3.99627 203,5.5C 203.804,4.19551 204.971,3.52884 206.5,3.5C 216.655,6.19931 226.822,8.86597 237,11.5C 239.031,10.5647 240.864,11.0647 242.5,13C 246.932,13.8671 251.265,15.0338 255.5,16.5C 255.5,20.1667 255.5,23.8333 255.5,27.5C 254.312,26.3157 253.145,26.3157 252,27.5C 238.09,19.5595 223.257,14.5595 207.5,12.5C 200.536,10.6757 193.536,9.00907 186.5,7.5C 184.471,7.6702 182.471,8.00354 180.5,8.5C 169.901,6.51516 159.234,5.18183 148.5,4.5C 134.671,5.09818 120.838,5.09818 107,4.5C 103.534,5.202 100.034,5.86867 96.5,6.5C 95.8333,6.16667 95.1667,5.83333 94.5,5.5C 86.6122,6.27215 78.7789,7.27215 71,8.5C 69.4126,7.27297 68.0793,7.6063 67,9.5C 65.0262,6.88166 63.1929,7.04833 61.5,10C 46.5858,11.6803 31.7525,13.847 17,16.5C 16.228,16.3552 15.5613,16.0219 15,15.5C 12.5507,18.5392 9.55069,19.5392 6,18.5C 3.99348,19.6687 1.82682,20.3354 -0.5,20.5C -0.5,15.5 -0.5,10.5 -0.5,5.5C 1.13696,3.52483 2.80363,1.52483 4.5,-0.5 Z"/></g>
<g><path style="opacity:0.999" fill="#666666" d="M 179.5,-0.5 C 202.833,-0.5 226.167,-0.5 249.5,-0.5C 251.475,1.13696 253.475,2.80363 255.5,4.5C 255.5,8.5 255.5,12.5 255.5,16.5C 251.265,15.0338 246.932,13.8671 242.5,13C 240.864,11.0647 239.031,10.5647 237,11.5C 226.822,8.86597 216.655,6.19931 206.5,3.5C 204.971,3.52884 203.804,4.19551 203,5.5C 201.509,3.99627 199.676,3.16294 197.5,3C 191.83,2.02614 186.163,1.35948 180.5,1C 179.944,0.617425 179.611,0.117425 179.5,-0.5 Z"/></g>
<g><path style="opacity:1" fill="#737373" d="M 255.5,27.5 C 255.5,32.8333 255.5,38.1667 255.5,43.5C 252.162,42.7455 249.328,41.0789 247,38.5C 239.737,33.9879 232.237,29.9879 224.5,26.5C 223.914,26.7093 223.414,27.0426 223,27.5C 215.438,24.2929 207.938,21.6262 200.5,19.5C 191.51,18.198 182.677,16.5313 174,14.5C 172.634,14.7065 171.301,15.0398 170,15.5C 164.172,14.757 158.339,14.0903 152.5,13.5C 152.5,16.5 152.5,19.5 152.5,22.5C 152.737,23.791 152.404,24.791 151.5,25.5C 151.5,22.5 151.5,19.5 151.5,16.5C 151.5,15.1667 151.5,13.8333 151.5,12.5C 150.5,12.5 149.5,12.5 148.5,12.5C 133.432,12.5664 117.765,12.5664 101.5,12.5C 100.205,13.0983 98.8721,13.5983 97.5,14C 98.6039,15.1313 98.2705,15.9646 96.5,16.5C 94.3894,15.0512 92.0561,14.0512 89.5,13.5C 88.7492,14.376 88.2492,15.376 88,16.5C 87.3261,15.4216 86.3261,14.7549 85,14.5C 70.6323,16.5507 56.1323,18.2173 41.5,19.5C 41.5,20.5 41.5,21.5 41.5,22.5C 37.8936,22.7892 34.3936,22.4558 31,21.5C 24.5878,23.4082 18.2544,25.4082 12,27.5C 11.6667,27.1667 11.3333,26.8333 11,26.5C 6.94478,27.7375 3.11144,29.4041 -0.5,31.5C -0.5,27.8333 -0.5,24.1667 -0.5,20.5C 1.82682,20.3354 3.99348,19.6687 6,18.5C 9.55069,19.5392 12.5507,18.5392 15,15.5C 15.5613,16.0219 16.228,16.3552 17,16.5C 31.7525,13.847 46.5858,11.6803 61.5,10C 63.1929,7.04833 65.0262,6.88166 67,9.5C 68.0793,7.6063 69.4126,7.27297 71,8.5C 78.7789,7.27215 86.6122,6.27215 94.5,5.5C 95.1667,5.83333 95.8333,6.16667 96.5,6.5C 100.034,5.86867 103.534,5.202 107,4.5C 120.838,5.09818 134.671,5.09818 148.5,4.5C 159.234,5.18183 169.901,6.51516 180.5,8.5C 182.471,8.00354 184.471,7.6702 186.5,7.5C 193.536,9.00907 200.536,10.6757 207.5,12.5C 223.257,14.5595 238.09,19.5595 252,27.5C 253.145,26.3157 254.312,26.3157 255.5,27.5 Z"/></g>
<g><path style="opacity:1" fill="#797979" d="M 148.5,12.5 C 143.853,14.8253 139.52,17.6587 135.5,21C 129.387,24.9275 122.72,26.5942 115.5,26C 108.008,24.1112 100.675,21.9445 93.5,19.5C 89.4905,18.8429 87.8238,20.5095 88.5,24.5C 88.5,26.1667 88.5,27.8333 88.5,29.5C 88.5,29.8333 88.5,30.1667 88.5,30.5C 87.3882,28.4006 86.7215,26.0673 86.5,23.5C 76.2954,25.533 66.1287,27.533 56,29.5C 52.0791,28.1762 48.2457,28.5096 44.5,30.5C 43.3279,30.0814 42.3279,29.4147 41.5,28.5C 40.3044,28.8457 40.3044,29.3457 41.5,30C 38.1363,31.0987 34.9696,32.5987 32,34.5C 30.3333,34.1667 28.6667,33.8333 27,33.5C 25.5806,34.4601 24.0806,35.2935 22.5,36C 17.6426,36.1891 12.9759,37.1891 8.5,39C 9.16667,39.3333 9.83333,39.6667 10.5,40C 6.59134,40.6327 2.92467,41.7994 -0.5,43.5C -0.5,39.5 -0.5,35.5 -0.5,31.5C 3.11144,29.4041 6.94478,27.7375 11,26.5C 11.3333,26.8333 11.6667,27.1667 12,27.5C 18.2544,25.4082 24.5878,23.4082 31,21.5C 34.3936,22.4558 37.8936,22.7892 41.5,22.5C 41.5,21.5 41.5,20.5 41.5,19.5C 56.1323,18.2173 70.6323,16.5507 85,14.5C 86.3261,14.7549 87.3261,15.4216 88,16.5C 88.2492,15.376 88.7492,14.376 89.5,13.5C 92.0561,14.0512 94.3894,15.0512 96.5,16.5C 98.2705,15.9646 98.6039,15.1313 97.5,14C 98.8721,13.5983 100.205,13.0983 101.5,12.5C 117.765,12.5664 133.432,12.5664 148.5,12.5 Z"/></g>
<g><path style="opacity:1" fill="#797979" d="M 255.5,43.5 C 255.5,72.1667 255.5,100.833 255.5,129.5C 253.027,129.604 252.361,130.604 253.5,132.5C 252.501,135.174 250.834,135.841 248.5,134.5C 247.585,136.918 246.085,138.918 244,140.5C 243.464,138.433 243.964,136.599 245.5,135C 244.667,134.167 243.833,133.333 243,132.5C 241.616,138.448 238.45,139.781 233.5,136.5C 231.386,137.034 229.552,138.034 228,139.5C 227.977,136.949 228.477,134.449 229.5,132C 228.809,130.933 228.309,129.766 228,128.5C 224.542,131.471 220.542,133.471 216,134.5C 214.674,134.245 213.674,133.578 213,132.5C 210.381,133.729 207.881,133.396 205.5,131.5C 203.574,132.061 201.574,132.227 199.5,132C 198.751,133.734 198.251,135.567 198,137.5C 197.517,136.552 197.351,135.552 197.5,134.5C 195.61,134.297 194.11,134.963 193,136.5C 190.745,130.41 186.579,126.077 180.5,123.5C 177.452,119.785 174.119,116.452 170.5,113.5C 170.5,112.5 170.5,111.5 170.5,110.5C 172.951,111.894 175.618,112.728 178.5,113C 179.618,114.074 180.618,115.24 181.5,116.5C 182.167,116.167 182.833,115.833 183.5,115.5C 186.373,116.775 189.373,117.608 192.5,118C 193.912,119.786 195.579,121.286 197.5,122.5C 198.192,121.975 198.692,121.308 199,120.5C 200.667,121.167 202.333,121.833 204,122.5C 204.188,120.939 203.355,120.272 201.5,120.5C 201.055,114.503 203.222,112.836 208,115.5C 209.876,113.877 211.21,114.21 212,116.5C 214.667,115.167 217.333,115.167 220,116.5C 220.419,117.672 221.085,118.672 222,119.5C 221.872,117.555 222.038,115.722 222.5,114C 224.727,113.879 226.56,113.046 228,111.5C 229.699,112.406 231.533,112.739 233.5,112.5C 233.281,111.325 233.614,110.325 234.5,109.5C 237.06,110.435 237.726,109.601 236.5,107C 237,106.5 237.5,106 238,105.5C 238.71,106.973 239.876,107.64 241.5,107.5C 242.363,103.838 241.03,101.672 237.5,101C 239.769,97.1009 239.436,93.2676 236.5,89.5C 239.109,87.9288 241.776,86.4288 244.5,85C 241.638,83.4512 239.638,81.1178 238.5,78C 241.348,75.4748 242.181,72.3082 241,68.5C 238.878,67.7801 238.378,66.6134 239.5,65C 236.722,62.6903 234.722,59.857 233.5,56.5C 235.385,55.8027 235.718,54.8027 234.5,53.5C 232.234,52.6858 229.9,52.1858 227.5,52C 225.153,49.1175 222.486,46.6175 219.5,44.5C 218.754,43.2638 218.421,41.9305 218.5,40.5C 214.437,41.1087 211.27,39.7754 209,36.5C 208.692,37.3081 208.192,37.9747 207.5,38.5C 204.909,34.6485 201.409,33.3151 197,34.5C 195.522,33.0218 194.022,31.5218 192.5,30C 186.044,28.6267 179.544,27.4601 173,26.5C 169.687,27.9393 166.854,27.4393 164.5,25C 160.416,25.3809 156.416,24.5476 152.5,22.5C 152.5,19.5 152.5,16.5 152.5,13.5C 158.339,14.0903 164.172,14.757 170,15.5C 171.301,15.0398 172.634,14.7065 174,14.5C 182.677,16.5313 191.51,18.198 200.5,19.5C 207.938,21.6262 215.438,24.2929 223,27.5C 223.414,27.0426 223.914,26.7093 224.5,26.5C 232.237,29.9879 239.737,33.9879 247,38.5C 249.328,41.0789 252.162,42.7455 255.5,43.5 Z"/></g>
<g><path style="opacity:1" fill="#7e7f7e" d="M 152.5,22.5 C 156.416,24.5476 160.416,25.3809 164.5,25C 166.854,27.4393 169.687,27.9393 173,26.5C 179.544,27.4601 186.044,28.6267 192.5,30C 194.022,31.5218 195.522,33.0218 197,34.5C 201.409,33.3151 204.909,34.6485 207.5,38.5C 208.192,37.9747 208.692,37.3081 209,36.5C 211.27,39.7754 214.437,41.1087 218.5,40.5C 218.421,41.9305 218.754,43.2638 219.5,44.5C 222.486,46.6175 225.153,49.1175 227.5,52C 229.9,52.1858 232.234,52.6858 234.5,53.5C 235.718,54.8027 235.385,55.8027 233.5,56.5C 234.722,59.857 236.722,62.6903 239.5,65C 238.378,66.6134 238.878,67.7801 241,68.5C 242.181,72.3082 241.348,75.4748 238.5,78C 239.638,81.1178 241.638,83.4512 244.5,85C 241.776,86.4288 239.109,87.9288 236.5,89.5C 239.436,93.2676 239.769,97.1009 237.5,101C 241.03,101.672 242.363,103.838 241.5,107.5C 239.876,107.64 238.71,106.973 238,105.5C 237.5,106 237,106.5 236.5,107C 237.726,109.601 237.06,110.435 234.5,109.5C 233.614,110.325 233.281,111.325 233.5,112.5C 231.533,112.739 229.699,112.406 228,111.5C 226.56,113.046 224.727,113.879 222.5,114C 222.038,115.722 221.872,117.555 222,119.5C 221.085,118.672 220.419,117.672 220,116.5C 217.333,115.167 214.667,115.167 212,116.5C 211.21,114.21 209.876,113.877 208,115.5C 203.222,112.836 201.055,114.503 201.5,120.5C 203.355,120.272 204.188,120.939 204,122.5C 202.333,121.833 200.667,121.167 199,120.5C 198.692,121.308 198.192,121.975 197.5,122.5C 195.579,121.286 193.912,119.786 192.5,118C 189.373,117.608 186.373,116.775 183.5,115.5C 182.833,115.833 182.167,116.167 181.5,116.5C 180.618,115.24 179.618,114.074 178.5,113C 175.618,112.728 172.951,111.894 170.5,110.5C 169.85,108.565 169.517,106.565 169.5,104.5C 167.901,104.768 166.568,104.434 165.5,103.5C 168.254,102.869 170.088,101.202 171,98.5C 173.034,100.56 175.034,100.226 177,97.5C 178.758,98.4695 179.258,99.6361 178.5,101C 181.594,101.652 184.594,101.318 187.5,100C 186.826,98.2494 186.493,96.5827 186.5,95C 187.905,93.7308 189.571,93.2308 191.5,93.5C 191.349,90.2819 190.516,89.9485 189,92.5C 188.517,91.552 188.351,90.552 188.5,89.5C 191.518,89.6646 194.518,89.498 197.5,89C 191.214,88.4142 191.214,87.2476 197.5,85.5C 198.851,81.5381 199.518,77.3715 199.5,73C 199.985,64.8989 196.318,60.5656 188.5,60C 187.663,58.9887 187.33,57.8221 187.5,56.5C 184.028,57.0371 181.195,56.0371 179,53.5C 177.927,54.2797 176.76,54.113 175.5,53C 174.167,52 172.833,51 171.5,50C 172.672,49.5814 173.672,48.9147 174.5,48C 172.144,48.0026 169.811,48.5026 167.5,49.5C 166.571,48.3112 166.238,46.9778 166.5,45.5C 164.94,45.5191 163.44,45.8524 162,46.5C 160.189,45.5765 160.355,44.7431 162.5,44C 160.323,42.7978 157.989,42.2978 155.5,42.5C 155.785,44.288 155.452,45.9547 154.5,47.5C 153.729,45.1378 152.895,42.8045 152,40.5C 151.814,43.0356 151.314,45.369 150.5,47.5C 150.653,41.155 150.986,34.8217 151.5,28.5C 151.5,27.5 151.5,26.5 151.5,25.5C 152.404,24.791 152.737,23.791 152.5,22.5 Z"/></g>
<g><path style="opacity:1" fill="#808080" d="M 88.5,30.5 C 89.254,35.4635 89.5874,40.4635 89.5,45.5C 88.8525,43.5018 88.0192,41.5018 87,39.5C 82.4244,40.7749 77.7577,41.7749 73,42.5C 72.228,42.3552 71.5613,42.0219 71,41.5C 68.6637,43.8404 65.997,44.5071 63,43.5C 59.5595,44.99 56.0595,46.3234 52.5,47.5C 51.8333,47.1667 51.1667,46.8333 50.5,46.5C 49.6184,47.7598 48.6184,48.9264 47.5,50C 43.8297,50.2792 40.163,50.1125 36.5,49.5C 36.5,50.8333 36.5,52.1667 36.5,53.5C 34.4588,53.8541 32.6255,53.8541 31,53.5C 30.044,54.5786 29.2106,55.7453 28.5,57C 22.7288,58.8514 17.3955,61.5181 12.5,65C 11.5939,66.6995 11.2606,68.5328 11.5,70.5C 10.325,70.281 9.32496,70.6143 8.5,71.5C 12.504,73.1219 13.1706,75.4553 10.5,78.5C 8.86966,77.102 7.03633,76.102 5,75.5C 4.81844,78.2263 4.31844,80.8929 3.5,83.5C 2.57451,84.6405 1.74117,84.6405 1,83.5C 0.382767,84.4491 0.549434,85.2825 1.5,86C 0.905578,86.4643 0.238911,86.631 -0.5,86.5C -0.5,72.1667 -0.5,57.8333 -0.5,43.5C 2.92467,41.7994 6.59134,40.6327 10.5,40C 9.83333,39.6667 9.16667,39.3333 8.5,39C 12.9759,37.1891 17.6426,36.1891 22.5,36C 24.0806,35.2935 25.5806,34.4601 27,33.5C 28.6667,33.8333 30.3333,34.1667 32,34.5C 34.9696,32.5987 38.1363,31.0987 41.5,30C 40.3044,29.3457 40.3044,28.8457 41.5,28.5C 42.3279,29.4147 43.3279,30.0814 44.5,30.5C 48.2457,28.5096 52.0791,28.1762 56,29.5C 66.1287,27.533 76.2954,25.533 86.5,23.5C 86.7215,26.0673 87.3882,28.4006 88.5,30.5 Z"/></g>
<g><path style="opacity:1" fill="#373c3e" d="M 148.5,12.5 C 149.5,12.5 150.5,12.5 151.5,12.5C 151.5,13.8333 151.5,15.1667 151.5,16.5C 149.952,16.8212 149.285,17.8212 149.5,19.5C 148.127,19.3433 146.793,19.51 145.5,20C 139.288,23.273 132.954,26.273 126.5,29C 119.377,29.9508 112.377,29.4508 105.5,27.5C 100.857,27.4728 96.3566,27.8061 92,28.5C 90.9681,26.9733 89.8014,25.64 88.5,24.5C 87.8238,20.5095 89.4905,18.8429 93.5,19.5C 100.675,21.9445 108.008,24.1112 115.5,26C 122.72,26.5942 129.387,24.9275 135.5,21C 139.52,17.6587 143.853,14.8253 148.5,12.5 Z"/></g>
<g><path style="opacity:1" fill="#424b4d" d="M 151.5,16.5 C 151.5,19.5 151.5,22.5 151.5,25.5C 151.5,26.5 151.5,27.5 151.5,28.5C 150.732,29.2625 150.232,30.2625 150,31.5C 149.667,31.1667 149.333,30.8333 149,30.5C 147.316,32.0656 145.316,33.0656 143,33.5C 140.945,32.3078 138.945,32.3078 137,33.5C 136.481,32.4844 135.647,31.8178 134.5,31.5C 131.705,32.5361 129.038,33.8695 126.5,35.5C 121.784,35.9006 116.784,35.2339 111.5,33.5C 108.418,33.8795 105.418,34.5462 102.5,35.5C 102.5,36.5 102.5,37.5 102.5,38.5C 98.7333,39.604 95.0667,39.4373 91.5,38C 91.9574,37.586 92.2907,37.086 92.5,36.5C 90.4356,34.4749 89.1023,32.1416 88.5,29.5C 88.5,27.8333 88.5,26.1667 88.5,24.5C 89.8014,25.64 90.9681,26.9733 92,28.5C 96.3566,27.8061 100.857,27.4728 105.5,27.5C 112.377,29.4508 119.377,29.9508 126.5,29C 132.954,26.273 139.288,23.273 145.5,20C 146.793,19.51 148.127,19.3433 149.5,19.5C 149.285,17.8212 149.952,16.8212 151.5,16.5 Z"/></g>
<g><path style="opacity:1" fill="#485356" d="M 151.5,28.5 C 150.986,34.8217 150.653,41.155 150.5,47.5C 149.542,47.9528 148.708,48.6195 148,49.5C 147.383,48.5509 147.549,47.7175 148.5,47C 145.383,45.0267 142.216,43.1933 139,41.5C 134.761,44.6301 130.261,46.9635 125.5,48.5C 123.473,48.6621 121.473,48.4955 119.5,48C 120.337,46.9887 120.67,45.8221 120.5,44.5C 118.304,44.5652 116.304,45.2319 114.5,46.5C 115.653,47.6868 115.653,48.6868 114.5,49.5C 111.856,48.0753 109.189,47.4086 106.5,47.5C 101.165,50.5027 95.8317,53.5027 90.5,56.5C 89.8857,52.8648 89.5524,49.1981 89.5,45.5C 89.5874,40.4635 89.254,35.4635 88.5,30.5C 88.5,30.1667 88.5,29.8333 88.5,29.5C 89.1023,32.1416 90.4356,34.4749 92.5,36.5C 92.2907,37.086 91.9574,37.586 91.5,38C 95.0667,39.4373 98.7333,39.604 102.5,38.5C 102.5,37.5 102.5,36.5 102.5,35.5C 105.418,34.5462 108.418,33.8795 111.5,33.5C 116.784,35.2339 121.784,35.9006 126.5,35.5C 129.038,33.8695 131.705,32.5361 134.5,31.5C 135.647,31.8178 136.481,32.4844 137,33.5C 138.945,32.3078 140.945,32.3078 143,33.5C 145.316,33.0656 147.316,32.0656 149,30.5C 149.333,30.8333 149.667,31.1667 150,31.5C 150.232,30.2625 150.732,29.2625 151.5,28.5 Z"/></g>
<g><path style="opacity:1" fill="#858685" d="M 89.5,45.5 C 89.5524,49.1981 89.8857,52.8648 90.5,56.5C 90.9498,60.674 91.9498,64.674 93.5,68.5C 93.5,70.5 94.5,71.5 96.5,71.5C 96.3284,72.4916 96.6618,73.1583 97.5,73.5C 97.3284,74.4916 97.6618,75.1583 98.5,75.5C 98.5,76.1667 98.5,76.8333 98.5,77.5C 95.1317,81.2728 91.6317,84.9395 88,88.5C 86.1777,92.09 86.0111,95.7567 87.5,99.5C 82.282,98.0874 78.782,100.087 77,105.5C 76.0467,108.432 75.5467,111.432 75.5,114.5C 72.8554,115.491 70.522,116.991 68.5,119C 65.5,119.333 62.5,119.667 59.5,120C 58.9535,120.925 58.2868,121.758 57.5,122.5C 55.6687,121.071 53.6687,120.571 51.5,121C 52.5171,122.049 52.6838,123.216 52,124.5C 50.3066,125.184 48.8066,126.184 47.5,127.5C 46.3764,125.631 45.5431,123.631 45,121.5C 43.6439,120.62 42.1439,120.286 40.5,120.5C 40.6567,121.873 40.49,123.207 40,124.5C 39,123.167 38,123.167 37,124.5C 35.2685,120.705 33.2685,117.038 31,113.5C 30.1376,115.087 29.4709,116.754 29,118.5C 27.4933,117.495 26.3267,116.162 25.5,114.5C 24.2519,115.04 23.0852,115.707 22,116.5C 21.5172,115.552 21.3505,114.552 21.5,113.5C 18.5131,113.002 15.5131,112.502 12.5,112C 11.6634,110.989 11.33,109.822 11.5,108.5C 8.75312,108.813 6.08645,108.48 3.5,107.5C 2.38752,105.581 1.05419,103.914 -0.5,102.5C -0.5,97.1667 -0.5,91.8333 -0.5,86.5C 0.238911,86.631 0.905578,86.4643 1.5,86C 0.549434,85.2825 0.382767,84.4491 1,83.5C 1.74117,84.6405 2.57451,84.6405 3.5,83.5C 4.31844,80.8929 4.81844,78.2263 5,75.5C 7.03633,76.102 8.86966,77.102 10.5,78.5C 13.1706,75.4553 12.504,73.1219 8.5,71.5C 9.32496,70.6143 10.325,70.281 11.5,70.5C 11.2606,68.5328 11.5939,66.6995 12.5,65C 17.3955,61.5181 22.7288,58.8514 28.5,57C 29.2106,55.7453 30.044,54.5786 31,53.5C 32.6255,53.8541 34.4588,53.8541 36.5,53.5C 36.5,52.1667 36.5,50.8333 36.5,49.5C 40.163,50.1125 43.8297,50.2792 47.5,50C 48.6184,48.9264 49.6184,47.7598 50.5,46.5C 51.1667,46.8333 51.8333,47.1667 52.5,47.5C 56.0595,46.3234 59.5595,44.99 63,43.5C 65.997,44.5071 68.6637,43.8404 71,41.5C 71.5613,42.0219 72.228,42.3552 73,42.5C 77.7577,41.7749 82.4244,40.7749 87,39.5C 88.0192,41.5018 88.8525,43.5018 89.5,45.5 Z"/></g>
<g><path style="opacity:1" fill="#838584" d="M 165.5,103.5 C 166.227,99.7757 164.894,97.1091 161.5,95.5C 160.818,96.2427 160.151,96.9094 159.5,97.5C 160.116,92.9502 158.949,88.9502 156,85.5C 151.882,80.8805 147.048,77.2139 141.5,74.5C 141.5,73.8333 141.5,73.1667 141.5,72.5C 141.5,72.1667 141.5,71.8333 141.5,71.5C 142.906,71.0269 143.573,70.0269 143.5,68.5C 146.439,65.0479 148.439,61.0479 149.5,56.5C 150.159,53.5448 150.492,50.5448 150.5,47.5C 151.314,45.369 151.814,43.0356 152,40.5C 152.895,42.8045 153.729,45.1378 154.5,47.5C 155.452,45.9547 155.785,44.288 155.5,42.5C 157.989,42.2978 160.323,42.7978 162.5,44C 160.355,44.7431 160.189,45.5765 162,46.5C 163.44,45.8524 164.94,45.5191 166.5,45.5C 166.238,46.9778 166.571,48.3112 167.5,49.5C 169.811,48.5026 172.144,48.0026 174.5,48C 173.672,48.9147 172.672,49.5814 171.5,50C 172.833,51 174.167,52 175.5,53C 176.76,54.113 177.927,54.2797 179,53.5C 181.195,56.0371 184.028,57.0371 187.5,56.5C 187.33,57.8221 187.663,58.9887 188.5,60C 196.318,60.5656 199.985,64.8989 199.5,73C 199.518,77.3715 198.851,81.5381 197.5,85.5C 191.214,87.2476 191.214,88.4142 197.5,89C 194.518,89.498 191.518,89.6646 188.5,89.5C 188.351,90.552 188.517,91.552 189,92.5C 190.516,89.9485 191.349,90.2819 191.5,93.5C 189.571,93.2308 187.905,93.7308 186.5,95C 186.493,96.5827 186.826,98.2494 187.5,100C 184.594,101.318 181.594,101.652 178.5,101C 179.258,99.6361 178.758,98.4695 177,97.5C 175.034,100.226 173.034,100.56 171,98.5C 170.088,101.202 168.254,102.869 165.5,103.5 Z"/></g>
<g><path style="opacity:1" fill="#4e6065" d="M 150.5,47.5 C 150.492,50.5448 150.159,53.5448 149.5,56.5C 148.542,56.0472 147.708,55.3805 147,54.5C 144.646,55.2135 142.146,55.2135 139.5,54.5C 136.201,54.738 133.201,55.738 130.5,57.5C 129.3,56.4688 127.966,55.6355 126.5,55C 128.638,53.5784 129.805,51.745 130,49.5C 129.333,50.1667 128.667,50.8333 128,51.5C 127.764,49.8807 126.931,48.8807 125.5,48.5C 130.261,46.9635 134.761,44.6301 139,41.5C 142.216,43.1933 145.383,45.0267 148.5,47C 147.549,47.7175 147.383,48.5509 148,49.5C 148.708,48.6195 149.542,47.9528 150.5,47.5 Z"/></g>
<g><path style="opacity:1" fill="#52717a" d="M 125.5,48.5 C 126.931,48.8807 127.764,49.8807 128,51.5C 128.667,50.8333 129.333,50.1667 130,49.5C 129.805,51.745 128.638,53.5784 126.5,55C 127.966,55.6355 129.3,56.4688 130.5,57.5C 133.201,55.738 136.201,54.738 139.5,54.5C 142.146,55.2135 144.646,55.2135 147,54.5C 147.708,55.3805 148.542,56.0472 149.5,56.5C 148.439,61.0479 146.439,65.0479 143.5,68.5C 143.586,67.5041 143.252,66.6708 142.5,66C 137.312,65.9136 133.645,63.5803 131.5,59C 129.121,58.3861 126.788,58.0528 124.5,58C 129.218,60.5269 129.551,63.3603 125.5,66.5C 125.167,66.5 124.833,66.5 124.5,66.5C 122.058,66.8808 121.391,66.2141 122.5,64.5C 121.833,64.1667 121.167,63.8333 120.5,63.5C 113.048,63.6898 105.715,65.1898 98.5,68C 97.1772,68.8159 96.5106,69.9826 96.5,71.5C 94.5,71.5 93.5,70.5 93.5,68.5C 94.5585,67.3998 95.3918,66.0664 96,64.5C 97.586,63.624 99.086,62.624 100.5,61.5C 105.61,60.7378 110.61,59.5712 115.5,58C 115.854,56.3745 115.854,54.5412 115.5,52.5C 111.995,52.3059 111.662,51.3059 114.5,49.5C 115.653,48.6868 115.653,47.6868 114.5,46.5C 116.304,45.2319 118.304,44.5652 120.5,44.5C 120.67,45.8221 120.337,46.9887 119.5,48C 121.473,48.4955 123.473,48.6621 125.5,48.5 Z"/></g>
<g><path style="opacity:1" fill="#4f676f" d="M 114.5,49.5 C 111.662,51.3059 111.995,52.3059 115.5,52.5C 115.854,54.5412 115.854,56.3745 115.5,58C 110.61,59.5712 105.61,60.7378 100.5,61.5C 99.086,62.624 97.586,63.624 96,64.5C 95.3918,66.0664 94.5585,67.3998 93.5,68.5C 91.9498,64.674 90.9498,60.674 90.5,56.5C 95.8317,53.5027 101.165,50.5027 106.5,47.5C 109.189,47.4086 111.856,48.0753 114.5,49.5 Z"/></g>
<g><path style="opacity:1" fill="#5b8b99" d="M 124.5,66.5 C 122.183,67.9416 120.016,67.6082 118,65.5C 111.551,69.1411 104.717,71.8077 97.5,73.5C 96.6618,73.1583 96.3284,72.4916 96.5,71.5C 96.5106,69.9826 97.1772,68.8159 98.5,68C 105.715,65.1898 113.048,63.6898 120.5,63.5C 121.167,63.8333 121.833,64.1667 122.5,64.5C 121.391,66.2141 122.058,66.8808 124.5,66.5 Z"/></g>
<g><path style="opacity:1" fill="#5d8a98" d="M 143.5,68.5 C 143.573,70.0269 142.906,71.0269 141.5,71.5C 141.38,70.4138 140.713,69.7472 139.5,69.5C 134.814,68.4911 130.147,67.4911 125.5,66.5C 129.551,63.3603 129.218,60.5269 124.5,58C 126.788,58.0528 129.121,58.3861 131.5,59C 133.645,63.5803 137.312,65.9136 142.5,66C 143.252,66.6708 143.586,67.5041 143.5,68.5 Z"/></g>
<g><path style="opacity:1" fill="#73b4c3" d="M 141.5,72.5 C 141.5,73.1667 141.5,73.8333 141.5,74.5C 139.736,75.326 138.402,76.6593 137.5,78.5C 135.066,81.4376 132.399,84.2709 129.5,87C 124.251,88.7307 118.918,88.8974 113.5,87.5C 109.589,85.0566 105.922,82.3899 102.5,79.5C 101.395,78.3995 100.062,77.7329 98.5,77.5C 98.5,76.8333 98.5,76.1667 98.5,75.5C 107.317,73.7272 116.15,72.0605 125,70.5C 130.627,70.3611 136.127,71.0277 141.5,72.5 Z"/></g>
<g><path style="opacity:1" fill="#68a3b3" d="M 124.5,66.5 C 124.833,66.5 125.167,66.5 125.5,66.5C 130.147,67.4911 134.814,68.4911 139.5,69.5C 140.713,69.7472 141.38,70.4138 141.5,71.5C 141.5,71.8333 141.5,72.1667 141.5,72.5C 136.127,71.0277 130.627,70.3611 125,70.5C 116.15,72.0605 107.317,73.7272 98.5,75.5C 97.6618,75.1583 97.3284,74.4916 97.5,73.5C 104.717,71.8077 111.551,69.1411 118,65.5C 120.016,67.6082 122.183,67.9416 124.5,66.5 Z"/></g>
<g><path style="opacity:1" fill="#7e807f" d="M -0.5,102.5 C 1.05419,103.914 2.38752,105.581 3.5,107.5C 6.08645,108.48 8.75312,108.813 11.5,108.5C 11.33,109.822 11.6634,110.989 12.5,112C 15.5131,112.502 18.5131,113.002 21.5,113.5C 21.3505,114.552 21.5172,115.552 22,116.5C 23.0852,115.707 24.2519,115.04 25.5,114.5C 26.3267,116.162 27.4933,117.495 29,118.5C 29.4709,116.754 30.1376,115.087 31,113.5C 33.2685,117.038 35.2685,120.705 37,124.5C 38,123.167 39,123.167 40,124.5C 40.49,123.207 40.6567,121.873 40.5,120.5C 42.1439,120.286 43.6439,120.62 45,121.5C 45.5431,123.631 46.3764,125.631 47.5,127.5C 48.8066,126.184 50.3066,125.184 52,124.5C 52.6838,123.216 52.5171,122.049 51.5,121C 53.6687,120.571 55.6687,121.071 57.5,122.5C 58.2868,121.758 58.9535,120.925 59.5,120C 62.5,119.667 65.5,119.333 68.5,119C 70.522,116.991 72.8554,115.491 75.5,114.5C 75.5,115.833 75.5,117.167 75.5,118.5C 73.6207,119.897 71.9541,121.563 70.5,123.5C 68.57,127.936 66.4034,132.269 64,136.5C 61.2133,138.047 58.8799,140.047 57,142.5C 55.6631,140.996 53.9964,139.996 52,139.5C 51.935,141.883 51.1017,142.55 49.5,141.5C 48.5224,141.977 47.6891,142.643 47,143.5C 46.7508,142.376 46.2508,141.376 45.5,140.5C 45.4464,141.687 45.1131,143.02 44.5,144.5C 43.8333,143.167 43.1667,141.833 42.5,140.5C 41.6143,141.325 41.281,142.325 41.5,143.5C 39.5328,143.739 37.6995,143.406 36,142.5C 34.6667,145.167 33.3333,145.167 32,142.5C 31.586,142.957 31.086,143.291 30.5,143.5C 28.0089,140.584 25.0089,139.918 21.5,141.5C 25.3015,144.708 25.4681,148.041 22,151.5C 20.6998,150.293 19.1998,149.626 17.5,149.5C 17.6567,150.873 17.49,152.207 17,153.5C 15.2663,152.751 13.433,152.251 11.5,152C 13.786,150.535 13.286,149.701 10,149.5C 8.67386,149.755 7.67386,150.422 7,151.5C 6.66667,150.5 6.33333,149.5 6,148.5C 3.80745,148.917 1.64078,149.251 -0.5,149.5C -0.5,133.833 -0.5,118.167 -0.5,102.5 Z"/></g>
<g><path style="opacity:1" fill="#b6e8ed" d="M 141.5,74.5 C 147.048,77.2139 151.882,80.8805 156,85.5C 158.949,88.9502 160.116,92.9502 159.5,97.5C 158.662,97.8417 158.328,98.5084 158.5,99.5C 158.167,100.167 157.833,100.833 157.5,101.5C 152.234,107.564 145.567,111.397 137.5,113C 127.508,114.7 117.508,114.867 107.5,113.5C 101.744,111.796 96.411,109.129 91.5,105.5C 90.5,104.167 89.5,102.833 88.5,101.5C 88.1667,100.833 87.8333,100.167 87.5,99.5C 86.0111,95.7567 86.1777,92.09 88,88.5C 91.6317,84.9395 95.1317,81.2728 98.5,77.5C 100.062,77.7329 101.395,78.3995 102.5,79.5C 100.77,81.0789 98.9364,82.7455 97,84.5C 97.0118,91.5319 100.512,96.0319 107.5,98C 121.64,102.64 134.807,100.806 147,92.5C 148.885,90.0859 149.552,87.4192 149,84.5C 145.502,81.8345 141.669,79.8345 137.5,78.5C 138.402,76.6593 139.736,75.326 141.5,74.5 Z"/></g>
<g><path style="opacity:1" fill="#80b8c4" d="M 152.5,87.5 C 156.29,91.5844 156.456,95.9177 153,100.5C 147.346,106.244 140.513,109.744 132.5,111C 118.317,113.743 105.483,110.91 94,102.5C 90.1562,98.1107 89.6562,93.444 92.5,88.5C 98.0929,97.1373 106.093,101.971 116.5,103C 127.05,103.864 137.05,101.864 146.5,97C 149.649,94.5312 151.649,91.3646 152.5,87.5 Z"/></g>
<g><path style="opacity:1" fill="#93c3cf" d="M 137.5,78.5 C 141.669,79.8345 145.502,81.8345 149,84.5C 149.552,87.4192 148.885,90.0859 147,92.5C 134.807,100.806 121.64,102.64 107.5,98C 100.512,96.0319 97.0118,91.5319 97,84.5C 98.9364,82.7455 100.77,81.0789 102.5,79.5C 105.922,82.3899 109.589,85.0566 113.5,87.5C 118.918,88.8974 124.251,88.7307 129.5,87C 132.399,84.2709 135.066,81.4376 137.5,78.5 Z"/></g>
<g><path style="opacity:1" fill="#717372" d="M 170.5,113.5 C 174.119,116.452 177.452,119.785 180.5,123.5C 186.579,126.077 190.745,130.41 193,136.5C 194.11,134.963 195.61,134.297 197.5,134.5C 197.351,135.552 197.517,136.552 198,137.5C 198.251,135.567 198.751,133.734 199.5,132C 201.574,132.227 203.574,132.061 205.5,131.5C 207.881,133.396 210.381,133.729 213,132.5C 213.674,133.578 214.674,134.245 216,134.5C 220.542,133.471 224.542,131.471 228,128.5C 228.309,129.766 228.809,130.933 229.5,132C 228.477,134.449 227.977,136.949 228,139.5C 229.552,138.034 231.386,137.034 233.5,136.5C 238.45,139.781 241.616,138.448 243,132.5C 243.833,133.333 244.667,134.167 245.5,135C 243.964,136.599 243.464,138.433 244,140.5C 246.085,138.918 247.585,136.918 248.5,134.5C 250.834,135.841 252.501,135.174 253.5,132.5C 252.361,130.604 253.027,129.604 255.5,129.5C 255.5,144.833 255.5,160.167 255.5,175.5C 253.863,177.475 252.196,179.475 250.5,181.5C 236.5,181.5 222.5,181.5 208.5,181.5C 208.5,180.5 208.5,179.5 208.5,178.5C 212.166,178.488 215.499,178.155 218.5,177.5C 215.651,176.323 213.318,174.49 211.5,172C 213.891,170.691 213.891,169.691 211.5,169C 213.459,166.684 213.459,164.684 211.5,163C 213.007,162.163 213.507,160.996 213,159.5C 211.693,160.772 210.193,161.772 208.5,162.5C 208.977,163.478 209.643,164.311 210.5,165C 209.128,165.402 207.795,165.902 206.5,166.5C 206.835,165.336 206.835,164.003 206.5,162.5C 204.356,161.047 202.523,161.38 201,163.5C 200.333,162.833 199.667,162.167 199,161.5C 198.535,162.931 197.701,164.097 196.5,165C 197.706,166.018 197.373,166.518 195.5,166.5C 190.117,163.45 186.117,159.116 183.5,153.5C 186.263,152.545 185.263,152.378 180.5,153C 180,153.5 179.5,154 179,154.5C 179.769,151.101 180.602,147.601 181.5,144C 179.53,138.061 178.03,131.894 177,125.5C 175.754,122.087 173.587,119.421 170.5,117.5C 170.5,116.167 170.5,114.833 170.5,113.5 Z"/></g>
<g><path style="opacity:1" fill="#656565" d="M 165.5,103.5 C 166.568,104.434 167.901,104.768 169.5,104.5C 169.517,106.565 169.85,108.565 170.5,110.5C 170.5,111.5 170.5,112.5 170.5,113.5C 170.5,114.833 170.5,116.167 170.5,117.5C 171.391,119.609 172.558,121.609 174,123.5C 176.328,133.527 173.494,141.86 165.5,148.5C 162.827,151.004 159.994,153.337 157,155.5C 156.586,155.043 156.086,154.709 155.5,154.5C 147.423,159.609 138.923,161.609 130,160.5C 127.804,161.09 125.638,161.757 123.5,162.5C 114.163,160.401 104.83,157.901 95.5,155C 89.7094,152.02 84.5427,148.187 80,143.5C 77.2476,136.87 76.081,129.87 76.5,122.5C 76.5,121.5 76.5,120.5 76.5,119.5C 77.8333,119.5 79.1667,119.5 80.5,119.5C 81.0838,116.715 80.0838,115.048 77.5,114.5C 78.4293,113.685 79.4293,112.852 80.5,112C 79.269,110.817 79.269,109.651 80.5,108.5C 82.9743,105.807 85.641,103.474 88.5,101.5C 89.5,102.833 90.5,104.167 91.5,105.5C 90.5041,105.414 89.6708,105.748 89,106.5C 88.6667,105.833 88.3333,105.167 88,104.5C 87.1253,111.341 87.792,118.007 90,124.5C 91.6941,127.358 93.8607,129.691 96.5,131.5C 95.5,131.833 94.8333,132.5 94.5,133.5C 92.742,133.123 91.0754,132.456 89.5,131.5C 86.2946,132.865 82.9612,133.865 79.5,134.5C 80.1329,136.786 81.4662,138.452 83.5,139.5C 85.0808,141.142 85.7475,143.142 85.5,145.5C 92.5043,151.167 100.504,155 109.5,157C 126.151,159.002 142.151,156.669 157.5,150C 162.471,146.207 166.638,141.707 170,136.5C 170.667,132.5 170.667,128.5 170,124.5C 169.392,122.934 168.558,121.6 167.5,120.5C 165.171,119.251 163.338,119.918 162,122.5C 161.761,123.788 162.261,124.788 163.5,125.5C 159.796,129.851 155.13,132.351 149.5,133C 159.778,123.716 162.778,112.549 158.5,99.5C 158.328,98.5084 158.662,97.8417 159.5,97.5C 160.151,96.9094 160.818,96.2427 161.5,95.5C 164.894,97.1091 166.227,99.7757 165.5,103.5 Z"/></g>
<g><path style="opacity:1" fill="#3d3f3e" d="M 157.5,101.5 C 158.163,103.641 158.497,105.975 158.5,108.5C 158.685,112.141 158.019,115.474 156.5,118.5C 156.631,117.624 156.298,116.957 155.5,116.5C 147.433,120.852 138.767,123.352 129.5,124C 118.654,125.239 107.987,125.739 97.5,125.5C 95.1217,124.308 93.1217,122.641 91.5,120.5C 91.8333,120.167 92.1667,119.833 92.5,119.5C 95.7549,120.781 98.9216,121.447 102,121.5C 102.617,120.551 102.451,119.718 101.5,119C 107.294,115.962 107.294,114.295 101.5,114C 103.473,113.505 105.473,113.338 107.5,113.5C 117.508,114.867 127.508,114.7 137.5,113C 145.567,111.397 152.234,107.564 157.5,101.5 Z"/></g>
<g><path style="opacity:1" fill="#383838" d="M 77.5,114.5 C 80.0838,115.048 81.0838,116.715 80.5,119.5C 79.1667,119.5 77.8333,119.5 76.5,119.5C 76.2155,117.585 76.5489,115.919 77.5,114.5 Z"/></g>
<g><path style="opacity:1" fill="#787978" d="M 75.5,118.5 C 75.4959,120.842 74.6625,122.842 73,124.5C 72.5003,132.159 72.3336,139.826 72.5,147.5C 69.9837,147.755 67.6504,148.589 65.5,150C 66.3081,150.308 66.9747,150.808 67.5,151.5C 66.1667,152.167 64.8333,152.833 63.5,153.5C 63.8333,154.167 64.1667,154.833 64.5,155.5C 62.8333,156.667 61.1667,157.833 59.5,159C 60.8882,159.889 60.7215,160.389 59,160.5C 58.0546,160.095 57.3879,159.428 57,158.5C 56.2607,160.221 55.4274,161.887 54.5,163.5C 51.9066,159.614 50.9066,160.281 51.5,165.5C 49.2341,165.141 47.4007,165.808 46,167.5C 45.6924,166.692 45.1924,166.025 44.5,165.5C 42.8333,166.333 41.1667,167.167 39.5,168C 40.3081,168.308 40.9747,168.808 41.5,169.5C 40.9488,172.056 39.9488,174.389 38.5,176.5C 36.0315,174.021 34.0315,174.187 32.5,177C 33.1667,177.333 33.8333,177.667 34.5,178C 32.0801,177.012 29.7467,177.345 27.5,179C 26.7476,179.671 26.4142,180.504 26.5,181.5C 19.5,181.5 12.5,181.5 5.5,181.5C 3.52483,179.863 1.52483,178.196 -0.5,176.5C -0.5,167.5 -0.5,158.5 -0.5,149.5C 1.64078,149.251 3.80745,148.917 6,148.5C 6.33333,149.5 6.66667,150.5 7,151.5C 7.67386,150.422 8.67386,149.755 10,149.5C 13.286,149.701 13.786,150.535 11.5,152C 13.433,152.251 15.2663,152.751 17,153.5C 17.49,152.207 17.6567,150.873 17.5,149.5C 19.1998,149.626 20.6998,150.293 22,151.5C 25.4681,148.041 25.3015,144.708 21.5,141.5C 25.0089,139.918 28.0089,140.584 30.5,143.5C 31.086,143.291 31.586,142.957 32,142.5C 33.3333,145.167 34.6667,145.167 36,142.5C 37.6995,143.406 39.5328,143.739 41.5,143.5C 41.281,142.325 41.6143,141.325 42.5,140.5C 43.1667,141.833 43.8333,143.167 44.5,144.5C 45.1131,143.02 45.4464,141.687 45.5,140.5C 46.2508,141.376 46.7508,142.376 47,143.5C 47.6891,142.643 48.5224,141.977 49.5,141.5C 51.1017,142.55 51.935,141.883 52,139.5C 53.9964,139.996 55.6631,140.996 57,142.5C 58.8799,140.047 61.2133,138.047 64,136.5C 66.4034,132.269 68.57,127.936 70.5,123.5C 71.9541,121.563 73.6207,119.897 75.5,118.5 Z"/></g>
<g><path style="opacity:1" fill="#737474" d="M 87.5,99.5 C 87.8333,100.167 88.1667,100.833 88.5,101.5C 85.641,103.474 82.9743,105.807 80.5,108.5C 79.269,109.651 79.269,110.817 80.5,112C 79.4293,112.852 78.4293,113.685 77.5,114.5C 76.5489,115.919 76.2155,117.585 76.5,119.5C 76.5,120.5 76.5,121.5 76.5,122.5C 72.8444,136.699 77.1777,147.866 89.5,156C 90.3639,158.071 91.6972,159.738 93.5,161C 89.5172,161.23 88.8506,162.563 91.5,165C 89.9825,166.685 88.3159,168.185 86.5,169.5C 88.4841,170.706 90.4841,170.706 92.5,169.5C 93.3081,169.808 93.9747,170.308 94.5,171C 90.8642,173.039 89.1975,176.206 89.5,180.5C 91.099,180.232 92.4324,180.566 93.5,181.5C 71.1667,181.5 48.8333,181.5 26.5,181.5C 26.4142,180.504 26.7476,179.671 27.5,179C 29.7467,177.345 32.0801,177.012 34.5,178C 33.8333,177.667 33.1667,177.333 32.5,177C 34.0315,174.187 36.0315,174.021 38.5,176.5C 39.9488,174.389 40.9488,172.056 41.5,169.5C 40.9747,168.808 40.3081,168.308 39.5,168C 41.1667,167.167 42.8333,166.333 44.5,165.5C 45.1924,166.025 45.6924,166.692 46,167.5C 47.4007,165.808 49.2341,165.141 51.5,165.5C 50.9066,160.281 51.9066,159.614 54.5,163.5C 55.4274,161.887 56.2607,160.221 57,158.5C 57.3879,159.428 58.0546,160.095 59,160.5C 60.7215,160.389 60.8882,159.889 59.5,159C 61.1667,157.833 62.8333,156.667 64.5,155.5C 64.1667,154.833 63.8333,154.167 63.5,153.5C 64.8333,152.833 66.1667,152.167 67.5,151.5C 66.9747,150.808 66.3081,150.308 65.5,150C 67.6504,148.589 69.9837,147.755 72.5,147.5C 72.3336,139.826 72.5003,132.159 73,124.5C 74.6625,122.842 75.4959,120.842 75.5,118.5C 75.5,117.167 75.5,115.833 75.5,114.5C 75.5467,111.432 76.0467,108.432 77,105.5C 78.782,100.087 82.282,98.0874 87.5,99.5 Z"/></g>
<g><path style="opacity:1" fill="#2c2c2c" d="M 167.5,120.5 C 167.5,122.167 167.5,123.833 167.5,125.5C 166.167,125.5 164.833,125.5 163.5,125.5C 162.261,124.788 161.761,123.788 162,122.5C 163.338,119.918 165.171,119.251 167.5,120.5 Z"/></g>
<g><path style="opacity:1" fill="#2e2e2e" d="M 156.5,118.5 C 156.167,119.167 155.833,119.833 155.5,120.5C 152.998,122.17 150.998,124.336 149.5,127C 147.783,128.559 145.783,129.392 143.5,129.5C 144.914,127.946 146.581,126.612 148.5,125.5C 147.833,125.167 147.167,124.833 146.5,124.5C 135.991,128.687 124.991,130.52 113.5,130C 114.056,130.383 114.389,130.883 114.5,131.5C 108.331,130.741 102.665,128.741 97.5,125.5C 107.987,125.739 118.654,125.239 129.5,124C 138.767,123.352 147.433,120.852 155.5,116.5C 156.298,116.957 156.631,117.624 156.5,118.5 Z"/></g>
<g><path style="opacity:1" fill="#454545" d="M 155.5,120.5 C 152.636,126.518 148.136,130.852 142,133.5C 141.517,134.448 141.351,135.448 141.5,136.5C 143.199,136.34 144.866,136.506 146.5,137C 145.304,137.654 145.304,138.154 146.5,138.5C 152.745,137.381 159.078,135.214 165.5,132C 166.211,130.745 167.044,129.579 168,128.5C 168.789,130.712 168.622,132.712 167.5,134.5C 167.44,133.957 167.107,133.624 166.5,133.5C 157.994,139.753 148.661,144.419 138.5,147.5C 124.812,148.838 111.146,148.671 97.5,147C 95.4245,145.307 93.0911,144.64 90.5,145C 94.0405,147.405 97.8738,149.238 102,150.5C 103.03,150.836 103.53,151.503 103.5,152.5C 101.801,152.66 100.134,152.494 98.5,152C 94.3812,149.274 90.0479,147.107 85.5,145.5C 85.7475,143.142 85.0808,141.142 83.5,139.5C 83.56,138.957 83.8933,138.624 84.5,138.5C 92.1113,141.427 99.9447,143.427 108,144.5C 113.395,143.62 118.562,141.954 123.5,139.5C 126.492,139.034 129.492,138.701 132.5,138.5C 132.62,139.586 133.287,140.253 134.5,140.5C 136.909,140.085 139.242,139.418 141.5,138.5C 138.572,137.516 135.572,137.183 132.5,137.5C 124.29,136.089 115.956,134.589 107.5,133C 104.623,132.044 101.956,130.711 99.5,129C 98.1772,128.184 97.5106,127.017 97.5,125.5C 102.665,128.741 108.331,130.741 114.5,131.5C 124.36,133.23 134.027,132.564 143.5,129.5C 145.783,129.392 147.783,128.559 149.5,127C 150.998,124.336 152.998,122.17 155.5,120.5 Z"/></g>
<g><path style="opacity:1" fill="#4f4f4f" d="M 91.5,105.5 C 96.411,109.129 101.744,111.796 107.5,113.5C 105.473,113.338 103.473,113.505 101.5,114C 107.294,114.295 107.294,115.962 101.5,119C 102.451,119.718 102.617,120.551 102,121.5C 98.9216,121.447 95.7549,120.781 92.5,119.5C 92.1667,119.833 91.8333,120.167 91.5,120.5C 93.1217,122.641 95.1217,124.308 97.5,125.5C 97.5106,127.017 98.1772,128.184 99.5,129C 101.956,130.711 104.623,132.044 107.5,133C 115.956,134.589 124.29,136.089 132.5,137.5C 132.5,137.833 132.5,138.167 132.5,138.5C 129.492,138.701 126.492,139.034 123.5,139.5C 118.562,141.954 113.395,143.62 108,144.5C 99.9447,143.427 92.1113,141.427 84.5,138.5C 83.8933,138.624 83.56,138.957 83.5,139.5C 81.4662,138.452 80.1329,136.786 79.5,134.5C 82.9612,133.865 86.2946,132.865 89.5,131.5C 91.0754,132.456 92.742,133.123 94.5,133.5C 94.5,134.833 94.5,136.167 94.5,137.5C 104.467,139.389 105.133,137.389 96.5,131.5C 93.8607,129.691 91.6941,127.358 90,124.5C 87.792,118.007 87.1253,111.341 88,104.5C 88.3333,105.167 88.6667,105.833 89,106.5C 89.6708,105.748 90.5041,105.414 91.5,105.5 Z"/></g>
<g><path style="opacity:1" fill="#545454" d="M 158.5,99.5 C 162.778,112.549 159.778,123.716 149.5,133C 155.13,132.351 159.796,129.851 163.5,125.5C 164.833,125.5 166.167,125.5 167.5,125.5C 167.5,123.833 167.5,122.167 167.5,120.5C 168.558,121.6 169.392,122.934 170,124.5C 170.667,128.5 170.667,132.5 170,136.5C 166.638,141.707 162.471,146.207 157.5,150C 142.151,156.669 126.151,159.002 109.5,157C 100.504,155 92.5043,151.167 85.5,145.5C 90.0479,147.107 94.3812,149.274 98.5,152C 100.134,152.494 101.801,152.66 103.5,152.5C 115.617,156.487 127.617,156.487 139.5,152.5C 139.833,152.5 140.167,152.5 140.5,152.5C 149.363,152.75 156.863,149.75 163,143.5C 165.571,141.024 167.071,138.024 167.5,134.5C 168.622,132.712 168.789,130.712 168,128.5C 167.044,129.579 166.211,130.745 165.5,132C 159.078,135.214 152.745,137.381 146.5,138.5C 145.304,138.154 145.304,137.654 146.5,137C 144.866,136.506 143.199,136.34 141.5,136.5C 141.351,135.448 141.517,134.448 142,133.5C 148.136,130.852 152.636,126.518 155.5,120.5C 155.833,119.833 156.167,119.167 156.5,118.5C 158.019,115.474 158.685,112.141 158.5,108.5C 158.497,105.975 158.163,103.641 157.5,101.5C 157.833,100.833 158.167,100.167 158.5,99.5 Z"/></g>
<g><path style="opacity:1" fill="#6e706f" d="M 170.5,117.5 C 173.587,119.421 175.754,122.087 177,125.5C 178.03,131.894 179.53,138.061 181.5,144C 180.602,147.601 179.769,151.101 179,154.5C 179.5,154 180,153.5 180.5,153C 185.263,152.378 186.263,152.545 183.5,153.5C 186.117,159.116 190.117,163.45 195.5,166.5C 197.373,166.518 197.706,166.018 196.5,165C 197.701,164.097 198.535,162.931 199,161.5C 199.667,162.167 200.333,162.833 201,163.5C 202.523,161.38 204.356,161.047 206.5,162.5C 206.835,164.003 206.835,165.336 206.5,166.5C 207.795,165.902 209.128,165.402 210.5,165C 209.643,164.311 208.977,163.478 208.5,162.5C 210.193,161.772 211.693,160.772 213,159.5C 213.507,160.996 213.007,162.163 211.5,163C 213.459,164.684 213.459,166.684 211.5,169C 213.891,169.691 213.891,170.691 211.5,172C 213.318,174.49 215.651,176.323 218.5,177.5C 215.499,178.155 212.166,178.488 208.5,178.5C 208.5,179.5 208.5,180.5 208.5,181.5C 170.167,181.5 131.833,181.5 93.5,181.5C 92.4324,180.566 91.099,180.232 89.5,180.5C 89.1975,176.206 90.8642,173.039 94.5,171C 93.9747,170.308 93.3081,169.808 92.5,169.5C 90.4841,170.706 88.4841,170.706 86.5,169.5C 88.3159,168.185 89.9825,166.685 91.5,165C 88.8506,162.563 89.5172,161.23 93.5,161C 91.6972,159.738 90.3639,158.071 89.5,156C 77.1777,147.866 72.8444,136.699 76.5,122.5C 76.081,129.87 77.2476,136.87 80,143.5C 84.5427,148.187 89.7094,152.02 95.5,155C 104.83,157.901 114.163,160.401 123.5,162.5C 125.638,161.757 127.804,161.09 130,160.5C 138.923,161.609 147.423,159.609 155.5,154.5C 156.086,154.709 156.586,155.043 157,155.5C 159.994,153.337 162.827,151.004 165.5,148.5C 173.494,141.86 176.328,133.527 174,123.5C 172.558,121.609 171.391,119.609 170.5,117.5 Z"/></g>
<g><path style="opacity:1" fill="#363636" d="M 167.5,134.5 C 167.071,138.024 165.571,141.024 163,143.5C 156.863,149.75 149.363,152.75 140.5,152.5C 146.982,150.384 152.982,147.217 158.5,143C 158.167,142.833 157.833,142.667 157.5,142.5C 144.505,149.716 130.505,152.883 115.5,152C 123.424,153.767 131.424,153.933 139.5,152.5C 127.617,156.487 115.617,156.487 103.5,152.5C 103.53,151.503 103.03,150.836 102,150.5C 97.8738,149.238 94.0405,147.405 90.5,145C 93.0911,144.64 95.4245,145.307 97.5,147C 111.146,148.671 124.812,148.838 138.5,147.5C 148.661,144.419 157.994,139.753 166.5,133.5C 167.107,133.624 167.44,133.957 167.5,134.5 Z"/></g>
<g><path style="opacity:1" fill="#171717" d="M 140.5,152.5 C 140.167,152.5 139.833,152.5 139.5,152.5C 131.424,153.933 123.424,153.767 115.5,152C 130.505,152.883 144.505,149.716 157.5,142.5C 157.833,142.667 158.167,142.833 158.5,143C 152.982,147.217 146.982,150.384 140.5,152.5 Z"/></g>
<g><path style="opacity:1" fill="#1d1d1d" d="M 132.5,137.5 C 135.572,137.183 138.572,137.516 141.5,138.5C 139.242,139.418 136.909,140.085 134.5,140.5C 133.287,140.253 132.62,139.586 132.5,138.5C 132.5,138.167 132.5,137.833 132.5,137.5 Z"/></g>
<g><path style="opacity:1" fill="#2e2e2e" d="M 96.5,131.5 C 105.133,137.389 104.467,139.389 94.5,137.5C 94.5,136.167 94.5,134.833 94.5,133.5C 94.8333,132.5 95.5,131.833 96.5,131.5 Z"/></g>
<g><path style="opacity:1" fill="#181818" d="M 143.5,129.5 C 134.027,132.564 124.36,133.23 114.5,131.5C 114.389,130.883 114.056,130.383 113.5,130C 124.991,130.52 135.991,128.687 146.5,124.5C 147.167,124.833 147.833,125.167 148.5,125.5C 146.581,126.612 144.914,127.946 143.5,129.5 Z"/></g>
</svg>
