<?xml version="1.0" encoding="UTF-8"?>
<!DOCTYPE svg PUBLIC "-//W3C//DTD SVG 1.1//EN" "http://www.w3.org/Graphics/SVG/1.1/DTD/svg11.dtd">
<svg xmlns="http://www.w3.org/2000/svg" version="1.1" width="256px" height="182px" style="shape-rendering:geometricPrecision; text-rendering:geometricPrecision; image-rendering:optimizeQuality; fill-rule:evenodd; clip-rule:evenodd" xmlns:xlink="http://www.w3.org/1999/xlink">
<g><path style="opacity:1" fill="#1c1c1c" d="M 4.5,-0.5 C 24.5,-0.5 44.5,-0.5 64.5,-0.5C 63.016,0.473322 62.516,1.80666 63,3.5C 65.0065,4.66871 67.1732,5.33538 69.5,5.5C 69.5,4.5 69.5,3.5 69.5,2.5C 68.325,2.71901 67.325,2.38568 66.5,1.5C 68.0453,0.548109 69.712,0.214775 71.5,0.5C 71.4533,3.56816 70.9533,6.56816 70,9.5C 69.6667,9.16667 69.3333,8.83333 69,8.5C 66.7265,10.8916 64.5598,10.8916 62.5,8.5C 60.9825,10.1851 59.3159,11.6851 57.5,13C 57.5077,14.9752 58.5077,16.8086 60.5,18.5C 61.646,17.8551 62.646,17.0217 63.5,16C 62.4829,14.9505 62.3162,13.7839 63,12.5C 66.3424,16.0193 66.1757,19.3527 62.5,22.5C 60.0024,19.7463 58.0024,20.0796 56.5,23.5C 60.1971,24.6965 63.1971,26.8631 65.5,30C 61.7723,30.7347 58.439,29.9014 55.5,27.5C 55.1667,28 54.8333,28.5 54.5,29C 55.6953,30.5325 55.6953,32.0325 54.5,33.5C 55.2472,33.7365 56.0805,34.0698 57,34.5C 57.3333,35.5 57.6667,36.5 58,37.5C 60.2039,33.1739 63.2039,32.1739 67,34.5C 68.487,33.7471 68.6537,32.9138 67.5,32C 68.448,31.5172 69.448,31.3505 70.5,31.5C 70.5792,32.9305 70.2458,34.2638 69.5,35.5C 66.5535,36.3211 63.5535,36.3211 60.5,35.5C 59.6958,40.2381 59.6958,44.5714 60.5,48.5C 61.552,48.6495 62.552,48.4828 63.5,48C 63.1667,47.6667 62.8333,47.3333 62.5,47C 63.5,46.1667 64.5,45.3333 65.5,44.5C 64.6086,43.4104 63.6086,43.4104 62.5,44.5C 61.3691,42.9255 61.2025,41.2588 62,39.5C 62.2492,40.624 62.7492,41.624 63.5,42.5C 64.5,41.1667 65.5,39.8333 66.5,38.5C 67.6956,38.8457 67.6956,39.3457 66.5,40C 69.574,41.8699 72.2406,44.2033 74.5,47C 73.9896,48.8261 73.1562,48.9928 72,47.5C 71.2195,48.9437 71.3861,50.277 72.5,51.5C 73.5,52.8333 74.5,52.8333 75.5,51.5C 76.4274,49.8872 77.2607,48.2205 78,46.5C 79.4316,49.0023 79.5982,51.5023 78.5,54C 80.1124,54.7203 81.6124,54.5536 83,53.5C 83.8699,54.1079 84.3699,54.9412 84.5,56C 83.3845,57.2349 83.3845,58.4016 84.5,59.5C 83.8333,60.5 83.1667,61.5 82.5,62.5C 82.5317,64.6922 82.6984,67.0255 83,69.5C 79.8124,68.4495 76.3124,68.4495 72.5,69.5C 71.91,70.7989 70.91,71.6322 69.5,72C 70.624,72.2492 71.624,72.7492 72.5,73.5C 69.5622,76.77 66.3955,77.1033 63,74.5C 62.6258,75.4162 62.1258,76.2496 61.5,77C 62.991,79.0892 64.6577,81.0892 66.5,83C 65.7894,84.2547 64.956,85.4214 64,86.5C 63.6827,84.6992 63.016,84.3659 62,85.5C 61.3162,84.2161 61.4829,83.0495 62.5,82C 60.973,80.6321 59.473,80.1321 58,80.5C 56.3916,82.7672 57.225,83.7672 60.5,83.5C 60.2865,85.1439 60.6198,86.6439 61.5,88C 59.8016,87.5031 58.1349,87.6698 56.5,88.5C 55.6858,90.7662 55.1858,93.0995 55,95.5C 53.9331,93.3083 52.4331,91.6417 50.5,90.5C 49.3478,89.375 48.3478,89.375 47.5,90.5C 40.7751,96.2228 34.7751,102.556 29.5,109.5C 19.9127,104.706 9.91275,101.04 -0.5,98.5C -0.5,95.8333 -0.5,93.1667 -0.5,90.5C 6.7935,93.8131 13.7935,97.6464 20.5,102C 21.7932,102.49 23.1266,102.657 24.5,102.5C 25.8573,97.1308 26.8573,91.7975 27.5,86.5C 27.8282,91.8746 27.4948,97.2079 26.5,102.5C 24.2547,106.138 25.0881,106.471 29,103.5C 32.9996,98.0046 37.1663,92.6713 41.5,87.5C 43.8558,84.8136 46.1891,82.147 48.5,79.5C 45.8062,76.1395 42.8062,73.1395 39.5,70.5C 41.2252,70.1575 41.7252,69.1575 41,67.5C 30.6835,53.3584 19.8501,39.6918 8.5,26.5C 8.16667,26.5 7.83333,26.5 7.5,26.5C 6.88258,26.6107 6.38258,26.944 6,27.5C 3.96681,35.3125 1.80014,42.9792 -0.5,50.5C -0.5,35.5 -0.5,20.5 -0.5,5.5C 1.13696,3.52483 2.80363,1.52483 4.5,-0.5 Z"/></g>
<g><path style="opacity:1" fill="#151515" d="M 64.5,-0.5 C 81.1667,-0.5 97.8333,-0.5 114.5,-0.5C 113.77,0.712371 112.77,1.71237 111.5,2.5C 112.173,6.03484 113.673,6.36817 116,3.5C 116.665,7.44227 116.499,11.2756 115.5,15C 116.449,15.6172 117.282,15.4506 118,14.5C 119.15,17.8546 118.317,18.8546 115.5,17.5C 113.39,18.0544 111.39,18.8877 109.5,20C 110.667,20.5 111.5,21.3333 112,22.5C 114.12,19.9199 116.287,19.9199 118.5,22.5C 119.62,21.1666 120.953,20.6666 122.5,21C 121.449,22.3848 120.116,23.3848 118.5,24C 119.451,24.7175 119.617,25.5509 119,26.5C 117.333,28.1667 115.667,29.8333 114,31.5C 114.019,33.1075 114.185,34.7741 114.5,36.5C 117.177,38.0576 119.677,40.0576 122,42.5C 123.183,41.269 124.349,41.269 125.5,42.5C 126.074,44.0589 126.74,45.5589 127.5,47C 127.167,47.1667 126.833,47.3333 126.5,47.5C 125.169,46.4078 124.336,45.0745 124,43.5C 122.422,43.5884 120.922,43.5884 119.5,43.5C 119.88,45.0207 120.046,46.6874 120,48.5C 121.324,49.8802 122.657,50.2135 124,49.5C 124.977,51.74 125.477,54.0733 125.5,56.5C 123.833,56.5 122.167,56.5 120.5,56.5C 120.728,54.6453 120.061,53.8119 118.5,54C 119.595,56.2689 119.261,58.4355 117.5,60.5C 118.602,61.1757 119.602,61.8423 120.5,62.5C 112.174,61.5803 105.674,64.5803 101,71.5C 98.9937,74.5358 98.1604,77.8691 98.5,81.5C 97.5489,82.9187 97.2155,84.5853 97.5,86.5C 98.5,86.5 99.5,86.5 100.5,86.5C 99.2055,88.3284 98.2055,90.3284 97.5,92.5C 95.2776,92.178 93.4443,92.8446 92,94.5C 89.9033,94.3062 87.7366,94.3062 85.5,94.5C 85.6869,93.1832 85.0202,91.8499 83.5,90.5C 82.9276,92.0778 82.5943,93.5778 82.5,95C 84.6175,95.2602 86.2842,96.2602 87.5,98C 86.9747,98.6924 86.3081,99.1924 85.5,99.5C 84.0333,99.277 82.5333,98.9437 81,98.5C 81.1953,100.126 81.1953,101.793 81,103.5C 80.6667,103.167 80.3333,102.833 80,102.5C 79.6824,104.061 78.8491,105.228 77.5,106C 78.5,106.333 79.5,106.667 80.5,107C 79.8095,108.067 79.3095,109.234 79,110.5C 77.8088,107.466 75.6421,105.799 72.5,105.5C 72.238,104.022 72.5713,102.689 73.5,101.5C 73.402,102.616 73.902,103.616 75,104.5C 76.15,103.576 77.15,103.576 78,104.5C 78.4828,103.552 78.6495,102.552 78.5,101.5C 77.325,101.719 76.325,101.386 75.5,100.5C 76.6102,98.4345 75.9436,97.6011 73.5,98C 70.1558,99.894 68.8224,102.727 69.5,106.5C 70.552,106.351 71.552,106.517 72.5,107C 71.354,107.645 70.354,108.478 69.5,109.5C 66.505,107.675 65.8383,105.175 67.5,102C 66.2068,101.51 64.8734,101.343 63.5,101.5C 64.1784,103.858 64.5117,106.025 64.5,108C 63.6921,109.706 62.3588,110.539 60.5,110.5C 58.2243,113.717 56.391,117.384 55,121.5C 54.5477,118.851 53.7143,116.351 52.5,114C 52.5391,111.703 52.8724,109.37 53.5,107C 52.8095,105.933 52.3095,104.766 52,103.5C 49.6338,109.785 47.8005,116.118 46.5,122.5C 47.3364,114.475 48.3364,106.475 49.5,98.5C 50.4731,96.0521 50.8064,93.3854 50.5,90.5C 52.4331,91.6417 53.9331,93.3083 55,95.5C 55.1858,93.0995 55.6858,90.7662 56.5,88.5C 58.1349,87.6698 59.8016,87.5031 61.5,88C 60.6198,86.6439 60.2865,85.1439 60.5,83.5C 57.225,83.7672 56.3916,82.7672 58,80.5C 59.473,80.1321 60.973,80.6321 62.5,82C 61.4829,83.0495 61.3162,84.2161 62,85.5C 63.016,84.3659 63.6827,84.6992 64,86.5C 64.956,85.4214 65.7894,84.2547 66.5,83C 64.6577,81.0892 62.991,79.0892 61.5,77C 62.1258,76.2496 62.6258,75.4162 63,74.5C 66.3955,77.1033 69.5622,76.77 72.5,73.5C 71.624,72.7492 70.624,72.2492 69.5,72C 70.91,71.6322 71.91,70.7989 72.5,69.5C 76.3124,68.4495 79.8124,68.4495 83,69.5C 82.6984,67.0255 82.5317,64.6922 82.5,62.5C 83.1667,61.5 83.8333,60.5 84.5,59.5C 83.3845,58.4016 83.3845,57.2349 84.5,56C 84.3699,54.9412 83.8699,54.1079 83,53.5C 81.6124,54.5536 80.1124,54.7203 78.5,54C 79.5982,51.5023 79.4316,49.0023 78,46.5C 77.2607,48.2205 76.4274,49.8872 75.5,51.5C 74.5,52.8333 73.5,52.8333 72.5,51.5C 71.3861,50.277 71.2195,48.9437 72,47.5C 73.1562,48.9928 73.9896,48.8261 74.5,47C 72.2406,44.2033 69.574,41.8699 66.5,40C 67.6956,39.3457 67.6956,38.8457 66.5,38.5C 65.5,39.8333 64.5,41.1667 63.5,42.5C 62.7492,41.624 62.2492,40.624 62,39.5C 61.2025,41.2588 61.3691,42.9255 62.5,44.5C 63.6086,43.4104 64.6086,43.4104 65.5,44.5C 64.5,45.3333 63.5,46.1667 62.5,47C 62.8333,47.3333 63.1667,47.6667 63.5,48C 62.552,48.4828 61.552,48.6495 60.5,48.5C 59.6958,44.5714 59.6958,40.2381 60.5,35.5C 63.5535,36.3211 66.5535,36.3211 69.5,35.5C 70.2458,34.2638 70.5792,32.9305 70.5,31.5C 69.448,31.3505 68.448,31.5172 67.5,32C 68.6537,32.9138 68.487,33.7471 67,34.5C 63.2039,32.1739 60.2039,33.1739 58,37.5C 57.6667,36.5 57.3333,35.5 57,34.5C 56.0805,34.0698 55.2472,33.7365 54.5,33.5C 55.6953,32.0325 55.6953,30.5325 54.5,29C 54.8333,28.5 55.1667,28 55.5,27.5C 58.439,29.9014 61.7723,30.7347 65.5,30C 63.1971,26.8631 60.1971,24.6965 56.5,23.5C 58.0024,20.0796 60.0024,19.7463 62.5,22.5C 66.1757,19.3527 66.3424,16.0193 63,12.5C 62.3162,13.7839 62.4829,14.9505 63.5,16C 62.646,17.0217 61.646,17.8551 60.5,18.5C 58.5077,16.8086 57.5077,14.9752 57.5,13C 59.3159,11.6851 60.9825,10.1851 62.5,8.5C 64.5598,10.8916 66.7265,10.8916 69,8.5C 69.3333,8.83333 69.6667,9.16667 70,9.5C 70.9533,6.56816 71.4533,3.56816 71.5,0.5C 69.712,0.214775 68.0453,0.548109 66.5,1.5C 67.325,2.38568 68.325,2.71901 69.5,2.5C 69.5,3.5 69.5,4.5 69.5,5.5C 67.1732,5.33538 65.0065,4.66871 63,3.5C 62.516,1.80666 63.016,0.473322 64.5,-0.5 Z"/></g>
<g><path style="opacity:1" fill="#0f0f0f" d="M 114.5,-0.5 C 145.167,-0.5 175.833,-0.5 206.5,-0.5C 206.461,0.583168 206.127,1.58317 205.5,2.5C 208.738,3.96213 212.071,5.1288 215.5,6C 212.901,8.25138 209.901,9.25138 206.5,9C 207.167,8.33333 207.833,7.66667 208.5,7C 205.957,6.86034 203.623,6.19367 201.5,5C 202.5,4.66667 203.5,4.33333 204.5,4C 203.151,3.22759 202.318,2.06092 202,0.5C 201.333,3.16667 200.667,3.16667 200,0.5C 199.114,5.55689 197.281,6.22355 194.5,2.5C 192.356,2.57006 190.356,3.07006 188.5,4C 189.406,7.18383 191.239,8.01716 194,6.5C 194.066,9.2756 195.232,11.4423 197.5,13C 196.687,14.3139 195.687,15.4805 194.5,16.5C 196.892,17.2082 199.059,16.5415 201,14.5C 202.603,18.0847 204.769,18.418 207.5,15.5C 207.906,16.5575 207.906,17.8908 207.5,19.5C 204.832,19.6663 202.498,20.6663 200.5,22.5C 199.833,22.1667 199.167,21.8333 198.5,21.5C 197.138,23.012 196.804,24.512 197.5,26C 196.672,26.9147 195.672,27.5814 194.5,28C 196.503,30.0022 198.836,31.5022 201.5,32.5C 203.545,34.7588 205.211,37.2588 206.5,40C 206.095,40.9454 205.428,41.6121 204.5,42C 204.833,43 205.167,44 205.5,45C 207.586,45.6266 207.919,45.1266 206.5,43.5C 207.752,41.9991 208.752,40.3325 209.5,38.5C 212.167,39.5 212.167,40.5 209.5,41.5C 210.04,42.7481 210.707,43.9148 211.5,45C 208.833,45.6667 208.833,46.3333 211.5,47C 210.587,48.4139 210.587,49.9139 211.5,51.5C 208.588,48.4623 207.588,48.7956 208.5,52.5C 206.833,52.5 205.167,52.5 203.5,52.5C 204.172,51.7326 205.005,51.0659 206,50.5C 206.749,49.365 206.583,48.365 205.5,47.5C 191.557,52.943 181.723,62.6097 176,76.5C 174.886,80.1597 175.72,80.9931 178.5,79C 179.733,76.6857 181.067,74.5191 182.5,72.5C 181.361,75.4248 180.861,78.4248 181,81.5C 184.41,85.4158 188.243,88.7492 192.5,91.5C 193.897,93.3793 195.563,95.0459 197.5,96.5C 198.466,98.396 198.799,100.396 198.5,102.5C 198.5,106.167 198.5,109.833 198.5,113.5C 198.631,114.376 198.298,115.043 197.5,115.5C 196.482,114.807 195.482,114.141 194.5,113.5C 191.167,110.833 187.833,108.167 184.5,105.5C 183.452,103.466 181.786,102.133 179.5,101.5C 178.702,101.957 178.369,102.624 178.5,103.5C 177.833,102.167 177.167,100.833 176.5,99.5C 175.791,98.596 174.791,98.2627 173.5,98.5C 174.342,94.3791 173.009,91.3791 169.5,89.5C 168.5,87.8333 167.167,86.5 165.5,85.5C 164.585,83.2459 163.252,81.2459 161.5,79.5C 165.7,63.3677 159.7,57.0344 143.5,60.5C 142.218,61.7082 142.218,63.0416 143.5,64.5C 148.5,68.6667 153.5,72.8333 158.5,77C 157.584,77.2784 156.918,77.7784 156.5,78.5C 151.507,78.9157 146.507,79.2491 141.5,79.5C 140.833,79.5 140.167,79.5 139.5,79.5C 132.937,74.0582 126.604,68.3915 120.5,62.5C 119.602,61.8423 118.602,61.1757 117.5,60.5C 119.261,58.4355 119.595,56.2689 118.5,54C 120.061,53.8119 120.728,54.6453 120.5,56.5C 122.167,56.5 123.833,56.5 125.5,56.5C 125.477,54.0733 124.977,51.74 124,49.5C 122.657,50.2135 121.324,49.8802 120,48.5C 120.046,46.6874 119.88,45.0207 119.5,43.5C 120.922,43.5884 122.422,43.5884 124,43.5C 124.336,45.0745 125.169,46.4078 126.5,47.5C 126.833,47.3333 127.167,47.1667 127.5,47C 126.74,45.5589 126.074,44.0589 125.5,42.5C 124.349,41.269 123.183,41.269 122,42.5C 119.677,40.0576 117.177,38.0576 114.5,36.5C 114.185,34.7741 114.019,33.1075 114,31.5C 115.667,29.8333 117.333,28.1667 119,26.5C 119.617,25.5509 119.451,24.7175 118.5,24C 120.116,23.3848 121.449,22.3848 122.5,21C 120.953,20.6666 119.62,21.1666 118.5,22.5C 116.287,19.9199 114.12,19.9199 112,22.5C 111.5,21.3333 110.667,20.5 109.5,20C 111.39,18.8877 113.39,18.0544 115.5,17.5C 118.317,18.8546 119.15,17.8546 118,14.5C 117.282,15.4506 116.449,15.6172 115.5,15C 116.499,11.2756 116.665,7.44227 116,3.5C 113.673,6.36817 112.173,6.03484 111.5,2.5C 112.77,1.71237 113.77,0.712371 114.5,-0.5 Z"/></g>
<g><path style="opacity:0.998" fill="#0c0c0c" d="M 206.5,-0.5 C 220.833,-0.5 235.167,-0.5 249.5,-0.5C 251.475,1.13696 253.475,2.80363 255.5,4.5C 255.5,29.1667 255.5,53.8333 255.5,78.5C 253.167,76.8333 251.167,74.8333 249.5,72.5C 250.649,72.2089 251.316,71.3756 251.5,70C 247.846,56.5127 239.179,48.346 225.5,45.5C 225.5,46.8333 225.5,48.1667 225.5,49.5C 231.453,50.4691 236.453,53.1358 240.5,57.5C 239.5,57.5 238.5,57.5 237.5,57.5C 239.672,61.3517 242.672,64.685 246.5,67.5C 246.5,67.8333 246.5,68.1667 246.5,68.5C 242.167,68.5 237.833,68.5 233.5,68.5C 232.5,68.5 231.5,68.5 230.5,68.5C 223.843,63.1754 217.51,57.5087 211.5,51.5C 210.587,49.9139 210.587,48.4139 211.5,47C 208.833,46.3333 208.833,45.6667 211.5,45C 210.707,43.9148 210.04,42.7481 209.5,41.5C 212.167,40.5 212.167,39.5 209.5,38.5C 208.752,40.3325 207.752,41.9991 206.5,43.5C 207.919,45.1266 207.586,45.6266 205.5,45C 205.167,44 204.833,43 204.5,42C 205.428,41.6121 206.095,40.9454 206.5,40C 205.211,37.2588 203.545,34.7588 201.5,32.5C 198.836,31.5022 196.503,30.0022 194.5,28C 195.672,27.5814 196.672,26.9147 197.5,26C 196.804,24.512 197.138,23.012 198.5,21.5C 199.167,21.8333 199.833,22.1667 200.5,22.5C 202.498,20.6663 204.832,19.6663 207.5,19.5C 207.906,17.8908 207.906,16.5575 207.5,15.5C 204.769,18.418 202.603,18.0847 201,14.5C 199.059,16.5415 196.892,17.2082 194.5,16.5C 195.687,15.4805 196.687,14.3139 197.5,13C 195.232,11.4423 194.066,9.2756 194,6.5C 191.239,8.01716 189.406,7.18383 188.5,4C 190.356,3.07006 192.356,2.57006 194.5,2.5C 197.281,6.22355 199.114,5.55689 200,0.5C 200.667,3.16667 201.333,3.16667 202,0.5C 202.318,2.06092 203.151,3.22759 204.5,4C 203.5,4.33333 202.5,4.66667 201.5,5C 203.623,6.19367 205.957,6.86034 208.5,7C 207.833,7.66667 207.167,8.33333 206.5,9C 209.901,9.25138 212.901,8.25138 215.5,6C 212.071,5.1288 208.738,3.96213 205.5,2.5C 206.127,1.58317 206.461,0.583168 206.5,-0.5 Z"/></g>
<g><path style="opacity:1" fill="#5f5f5f" d="M 7.5,26.5 C 7.83333,26.5 8.16667,26.5 8.5,26.5C 8.87816,28.921 9.54483,31.2543 10.5,33.5C 10.3801,35.7345 10.7135,37.9011 11.5,40C 8.34542,50.984 4.34542,61.484 -0.5,71.5C -0.5,67.1667 -0.5,62.8333 -0.5,58.5C 2.7406,48.0859 5.40727,37.4193 7.5,26.5 Z"/></g>
<g><path style="opacity:1" fill="#4b4b4b" d="M 10.5,33.5 C 15.48,41.4525 19.98,49.7859 24,58.5C 24.6667,60.1667 24.6667,61.8333 24,63.5C 15.7195,68.7193 7.55285,74.0527 -0.5,79.5C -0.5,76.8333 -0.5,74.1667 -0.5,71.5C 4.34542,61.484 8.34542,50.984 11.5,40C 10.7135,37.9011 10.3801,35.7345 10.5,33.5 Z"/></g>
<g><path style="opacity:1" fill="#c3c3c3" d="M 7.5,26.5 C 5.40727,37.4193 2.7406,48.0859 -0.5,58.5C -0.5,55.8333 -0.5,53.1667 -0.5,50.5C 1.80014,42.9792 3.96681,35.3125 6,27.5C 6.38258,26.944 6.88258,26.6107 7.5,26.5 Z"/></g>
<g><path style="opacity:1" fill="#888888" d="M 203.5,52.5 C 193.893,56.4408 186.893,63.1074 182.5,72.5C 181.067,74.5191 179.733,76.6857 178.5,79C 175.72,80.9931 174.886,80.1597 176,76.5C 181.723,62.6097 191.557,52.943 205.5,47.5C 206.583,48.365 206.749,49.365 206,50.5C 205.005,51.0659 204.172,51.7326 203.5,52.5 Z"/></g>
<g><path style="opacity:1" fill="#7e7c7c" d="M 249.5,72.5 C 248.5,71.1667 247.5,69.8333 246.5,68.5C 246.5,68.1667 246.5,67.8333 246.5,67.5C 245.502,63.4945 243.502,60.1612 240.5,57.5C 236.453,53.1358 231.453,50.4691 225.5,49.5C 225.5,48.1667 225.5,46.8333 225.5,45.5C 239.179,48.346 247.846,56.5127 251.5,70C 251.316,71.3756 250.649,72.2089 249.5,72.5 Z"/></g>
<g><path style="opacity:1" fill="#474543" d="M 211.5,51.5 C 217.51,57.5087 223.843,63.1754 230.5,68.5C 230.158,69.3382 229.492,69.6716 228.5,69.5C 224.46,65.4579 220.127,61.7912 215.5,58.5C 213.393,56.2733 211.06,54.2733 208.5,52.5C 207.588,48.7956 208.588,48.4623 211.5,51.5 Z"/></g>
<g><path style="opacity:1" fill="#050201" d="M 215.5,58.5 C 220.127,61.7912 224.46,65.4579 228.5,69.5C 224.022,70.9707 220.022,73.304 216.5,76.5C 211.5,79.5 207.5,83.5 204.5,88.5C 203.11,89.8993 202.11,91.5659 201.5,93.5C 200.662,93.8417 200.328,94.5084 200.5,95.5C 194.067,92.1982 191.233,86.8649 192,79.5C 196.031,73.9587 200.197,68.4587 204.5,63C 208.22,61.5944 211.886,60.0944 215.5,58.5 Z"/></g>
<g><path style="opacity:1" fill="#532322" d="M 240.5,57.5 C 243.502,60.1612 245.502,63.4945 246.5,67.5C 242.672,64.685 239.672,61.3517 237.5,57.5C 238.5,57.5 239.5,57.5 240.5,57.5 Z"/></g>
<g><path style="opacity:1" fill="#2d0e0d" d="M 203.5,52.5 C 205.167,52.5 206.833,52.5 208.5,52.5C 207.599,56.6479 204.932,58.9813 200.5,59.5C 200.509,61.3084 200.009,62.9751 199,64.5C 195,68.5 191,72.5 187,76.5C 186.689,78.556 186.189,80.556 185.5,82.5C 187.984,85.4843 190.65,88.3176 193.5,91C 193.272,91.3988 192.938,91.5654 192.5,91.5C 188.243,88.7492 184.41,85.4158 181,81.5C 180.861,78.4248 181.361,75.4248 182.5,72.5C 186.893,63.1074 193.893,56.4408 203.5,52.5 Z"/></g>
<g><path style="opacity:1" fill="#867371" d="M 39.5,70.5 C 42.8062,73.1395 45.8062,76.1395 48.5,79.5C 47.8333,79.8333 47.1667,80.1667 46.5,80.5C 42.4172,74.7707 37.0838,70.4374 30.5,67.5C 29.7095,66.5987 28.7095,65.9321 27.5,65.5C 27.3691,64.6236 27.7025,63.9569 28.5,63.5C 31.9343,66.2811 35.6009,68.6144 39.5,70.5 Z"/></g>
<g><path style="opacity:1" fill="#989999" d="M 120.5,62.5 C 120.714,64.1439 120.38,65.6439 119.5,67C 107.101,66.9011 101.434,73.0678 102.5,85.5C 101.167,85.5 99.8333,85.5 98.5,85.5C 98.5,84.1667 98.5,82.8333 98.5,81.5C 98.1604,77.8691 98.9937,74.5358 101,71.5C 105.674,64.5803 112.174,61.5803 120.5,62.5 Z"/></g>
<g><path style="opacity:1" fill="#0d0d0d" d="M 8.5,26.5 C 19.8501,39.6918 30.6835,53.3584 41,67.5C 41.7252,69.1575 41.2252,70.1575 39.5,70.5C 35.6009,68.6144 31.9343,66.2811 28.5,63.5C 27.7025,63.9569 27.3691,64.6236 27.5,65.5C 27.5,70.5 27.5,75.5 27.5,80.5C 27.5,82.5 27.5,84.5 27.5,86.5C 26.8573,91.7975 25.8573,97.1308 24.5,102.5C 23.1266,102.657 21.7932,102.49 20.5,102C 13.7935,97.6464 6.7935,93.8131 -0.5,90.5C -0.5,86.8333 -0.5,83.1667 -0.5,79.5C 7.55285,74.0527 15.7195,68.7193 24,63.5C 24.6667,61.8333 24.6667,60.1667 24,58.5C 19.98,49.7859 15.48,41.4525 10.5,33.5C 9.54483,31.2543 8.87816,28.921 8.5,26.5 Z"/></g>
<g><path style="opacity:1" fill="#327890" d="M 143.5,60.5 C 143.5,61.5 143.5,62.5 143.5,63.5C 149.103,62.6149 154.103,63.7816 158.5,67C 158.825,71.5382 159.825,75.7049 161.5,79.5C 163.252,81.2459 164.585,83.2459 165.5,85.5C 162.767,82.7606 159.767,80.4273 156.5,78.5C 156.918,77.7784 157.584,77.2784 158.5,77C 153.5,72.8333 148.5,68.6667 143.5,64.5C 142.218,63.0416 142.218,61.7082 143.5,60.5 Z"/></g>
<g><path style="opacity:1" fill="#1c0705" d="M 208.5,52.5 C 211.06,54.2733 213.393,56.2733 215.5,58.5C 211.886,60.0944 208.22,61.5944 204.5,63C 200.197,68.4587 196.031,73.9587 192,79.5C 191.233,86.8649 194.067,92.1982 200.5,95.5C 199.631,97.717 199.298,100.05 199.5,102.5C 199.167,102.5 198.833,102.5 198.5,102.5C 198.799,100.396 198.466,98.396 197.5,96.5C 195.563,95.0459 193.897,93.3793 192.5,91.5C 192.938,91.5654 193.272,91.3988 193.5,91C 190.65,88.3176 187.984,85.4843 185.5,82.5C 186.189,80.556 186.689,78.556 187,76.5C 191,72.5 195,68.5 199,64.5C 200.009,62.9751 200.509,61.3084 200.5,59.5C 204.932,58.9813 207.599,56.6479 208.5,52.5 Z"/></g>
<g><path style="opacity:1" fill="#684747" d="M 30.5,67.5 C 37.0838,70.4374 42.4172,74.7707 46.5,80.5C 39.904,81.7695 34.404,80.4361 30,76.5C 29.1955,73.3035 29.3622,70.3035 30.5,67.5 Z"/></g>
<g><path style="opacity:1" fill="#979998" d="M 161.5,79.5 C 159.825,75.7049 158.825,71.5382 158.5,67C 154.103,63.7816 149.103,62.6149 143.5,63.5C 143.5,62.5 143.5,61.5 143.5,60.5C 159.7,57.0344 165.7,63.3677 161.5,79.5 Z"/></g>
<g><path style="opacity:1" fill="#9b3b38" d="M 240.5,102.5 C 237.479,107.521 233.479,111.521 228.5,114.5C 227.34,112.797 228.007,112.131 230.5,112.5C 230.612,106.519 232.112,100.852 235,95.5C 238.099,82.8199 233.265,77.3199 220.5,79C 214.22,81.1073 209.22,84.9407 205.5,90.5C 204.564,91.9744 203.23,92.9744 201.5,93.5C 202.11,91.5659 203.11,89.8993 204.5,88.5C 212.79,79.2923 223.123,74.9589 235.5,75.5C 235.167,73.5 234.833,71.5 234.5,69.5C 238.5,69.5 242.5,69.5 246.5,69.5C 246.527,72.2298 245.86,74.7298 244.5,77C 247.911,84.1882 246.911,90.6882 241.5,96.5C 240.534,98.396 240.201,100.396 240.5,102.5 Z"/></g>
<g><path style="opacity:1" fill="#02080c" d="M 136.5,80.5 C 132.135,80.3901 128.135,81.5568 124.5,84C 123.242,85.7409 122.242,87.5742 121.5,89.5C 119.539,91.7982 118.539,94.4649 118.5,97.5C 118.167,97.5 117.833,97.5 117.5,97.5C 115.5,95.8333 113.5,94.1667 111.5,92.5C 111.322,91.3052 110.989,90.1385 110.5,89C 112.14,85.6724 113.307,82.1724 114,78.5C 116.696,77.8102 118.863,76.3102 120.5,74C 124.574,75.4325 128.908,76.4325 133.5,77C 135.063,77.7589 136.063,78.9256 136.5,80.5 Z"/></g>
<g><path style="opacity:1" fill="#4e1616" d="M 230.5,68.5 C 231.5,68.5 232.5,68.5 233.5,68.5C 232.194,69.4674 231.527,70.8007 231.5,72.5C 226.278,73.0552 221.278,74.3885 216.5,76.5C 220.022,73.304 224.022,70.9707 228.5,69.5C 229.492,69.6716 230.158,69.3382 230.5,68.5 Z"/></g>
<g><path style="opacity:1" fill="#534444" d="M 27.5,65.5 C 28.7095,65.9321 29.7095,66.5987 30.5,67.5C 29.3622,70.3035 29.1955,73.3035 30,76.5C 34.404,80.4361 39.904,81.7695 46.5,80.5C 47.1667,80.1667 47.8333,79.8333 48.5,79.5C 46.1891,82.147 43.8558,84.8136 41.5,87.5C 39.8008,87.6602 38.1341,87.4935 36.5,87C 33.1917,85.1508 30.1917,82.9842 27.5,80.5C 27.5,75.5 27.5,70.5 27.5,65.5 Z"/></g>
<g><path style="opacity:1" fill="#0d1a22" d="M 120.5,62.5 C 126.604,68.3915 132.937,74.0582 139.5,79.5C 138.508,79.3284 137.842,79.6618 137.5,80.5C 137.167,80.5 136.833,80.5 136.5,80.5C 136.063,78.9256 135.063,77.7589 133.5,77C 128.908,76.4325 124.574,75.4325 120.5,74C 118.863,76.3102 116.696,77.8102 114,78.5C 113.307,82.1724 112.14,85.6724 110.5,89C 110.989,90.1385 111.322,91.3052 111.5,92.5C 108.681,89.925 105.681,87.5917 102.5,85.5C 101.434,73.0678 107.101,66.9011 119.5,67C 120.38,65.6439 120.714,64.1439 120.5,62.5 Z"/></g>
<g><path style="opacity:1" fill="#792a27" d="M 233.5,68.5 C 237.833,68.5 242.167,68.5 246.5,68.5C 247.5,69.8333 248.5,71.1667 249.5,72.5C 251.167,74.8333 253.167,76.8333 255.5,78.5C 255.5,84.1667 255.5,89.8333 255.5,95.5C 253.5,94.5 251.5,93.5 249.5,92.5C 248.458,91.2089 247.292,91.2089 246,92.5C 244.914,96.3464 243.081,99.6797 240.5,102.5C 240.201,100.396 240.534,98.396 241.5,96.5C 246.911,90.6882 247.911,84.1882 244.5,77C 245.86,74.7298 246.527,72.2298 246.5,69.5C 242.5,69.5 238.5,69.5 234.5,69.5C 234.833,71.5 235.167,73.5 235.5,75.5C 223.123,74.9589 212.79,79.2923 204.5,88.5C 207.5,83.5 211.5,79.5 216.5,76.5C 221.278,74.3885 226.278,73.0552 231.5,72.5C 231.527,70.8007 232.194,69.4674 233.5,68.5 Z"/></g>
<g><path style="opacity:1" fill="#2185a1" d="M 139.5,79.5 C 140.167,79.5 140.833,79.5 141.5,79.5C 139.924,80.2832 138.591,81.4499 137.5,83C 133.385,84.2048 129.385,85.7048 125.5,87.5C 123.887,91.4285 121.554,94.7618 118.5,97.5C 118.539,94.4649 119.539,91.7982 121.5,89.5C 124.913,85.7359 129.246,83.5693 134.5,83C 135.942,82.6232 136.942,81.7899 137.5,80.5C 137.842,79.6618 138.508,79.3284 139.5,79.5 Z"/></g>
<g><path style="opacity:1" fill="#0a4e67" d="M 136.5,80.5 C 136.833,80.5 137.167,80.5 137.5,80.5C 136.942,81.7899 135.942,82.6232 134.5,83C 129.246,83.5693 124.913,85.7359 121.5,89.5C 122.242,87.5742 123.242,85.7409 124.5,84C 128.135,81.5568 132.135,80.3901 136.5,80.5 Z"/></g>
<g><path style="opacity:1" fill="#5e5c5a" d="M 27.5,80.5 C 30.1917,82.9842 33.1917,85.1508 36.5,87C 38.1341,87.4935 39.8008,87.6602 41.5,87.5C 37.1663,92.6713 32.9996,98.0046 29,103.5C 25.0881,106.471 24.2547,106.138 26.5,102.5C 27.4948,97.2079 27.8282,91.8746 27.5,86.5C 27.5,84.5 27.5,82.5 27.5,80.5 Z"/></g>
<g><path style="opacity:1" fill="#52cee0" d="M 156.5,78.5 C 159.767,80.4273 162.767,82.7606 165.5,85.5C 165.872,92.1854 164.872,98.5187 162.5,104.5C 161.833,104.167 161.167,103.833 160.5,103.5C 160.5,103.167 160.5,102.833 160.5,102.5C 161.34,98.0036 162.007,93.337 162.5,88.5C 161.959,85.791 160.459,83.791 158,82.5C 157.041,84.6577 155.541,84.991 153.5,83.5C 152.74,84.4887 151.573,85.1554 150,85.5C 147.812,85.646 146.479,84.646 146,82.5C 144.899,84.3939 143.566,85.0606 142,84.5C 138.443,89.0525 133.943,92.5525 128.5,95C 126.963,96.1096 126.297,97.6096 126.5,99.5C 123.833,99.1667 121.167,98.8333 118.5,98.5C 118.768,100.099 118.434,101.432 117.5,102.5C 117.5,101.5 117.5,100.5 117.5,99.5C 117.5,98.8333 117.5,98.1667 117.5,97.5C 117.833,97.5 118.167,97.5 118.5,97.5C 121.554,94.7618 123.887,91.4285 125.5,87.5C 129.385,85.7048 133.385,84.2048 137.5,83C 138.591,81.4499 139.924,80.2832 141.5,79.5C 146.507,79.2491 151.507,78.9157 156.5,78.5 Z"/></g>
<g><path style="opacity:1" fill="#153340" d="M 98.5,81.5 C 98.5,82.8333 98.5,84.1667 98.5,85.5C 99.8333,85.5 101.167,85.5 102.5,85.5C 105.681,87.5917 108.681,89.925 111.5,92.5C 113.5,94.1667 115.5,95.8333 117.5,97.5C 117.5,98.1667 117.5,98.8333 117.5,99.5C 111.983,94.9154 106.317,90.582 100.5,86.5C 99.5,86.5 98.5,86.5 97.5,86.5C 97.2155,84.5853 97.5489,82.9187 98.5,81.5 Z"/></g>
<g><path style="opacity:1" fill="#72e7f3" d="M 160.5,102.5 C 158.856,102.286 157.356,102.62 156,103.5C 156.178,116.153 150.011,122.819 137.5,123.5C 136.732,124.263 136.232,125.263 136,126.5C 134.057,124.434 131.891,124.101 129.5,125.5C 127.58,124.331 125.58,123.331 123.5,122.5C 121.177,123.672 118.844,123.672 116.5,122.5C 116.907,116.839 117.24,111.172 117.5,105.5C 117.5,104.5 117.5,103.5 117.5,102.5C 118.434,101.432 118.768,100.099 118.5,98.5C 121.167,98.8333 123.833,99.1667 126.5,99.5C 126.297,97.6096 126.963,96.1096 128.5,95C 133.943,92.5525 138.443,89.0525 142,84.5C 143.566,85.0606 144.899,84.3939 146,82.5C 146.479,84.646 147.812,85.646 150,85.5C 151.573,85.1554 152.74,84.4887 153.5,83.5C 155.541,84.991 157.041,84.6577 158,82.5C 160.459,83.791 161.959,85.791 162.5,88.5C 162.007,93.337 161.34,98.0036 160.5,102.5 Z"/></g>
<g><path style="opacity:1" fill="#e8e8e8" d="M 47.5,90.5 C 47.9382,90.4346 48.2716,90.6012 48.5,91C 44.9592,97.2493 41.2926,103.416 37.5,109.5C 36.675,110.386 35.675,110.719 34.5,110.5C 32.7839,110.371 31.1172,110.038 29.5,109.5C 34.7751,102.556 40.7751,96.2228 47.5,90.5 Z"/></g>
<g><path style="opacity:1" fill="#1b82a0" d="M 165.5,85.5 C 167.167,86.5 168.5,87.8333 169.5,89.5C 169.022,94.5165 168.355,99.5165 167.5,104.5C 167.36,106.03 166.693,107.03 165.5,107.5C 164.167,106.833 163.167,105.833 162.5,104.5C 164.872,98.5187 165.872,92.1854 165.5,85.5 Z"/></g>
<g><path style="opacity:1" fill="#334249" d="M 47.5,90.5 C 48.3478,89.375 49.3478,89.375 50.5,90.5C 50.8064,93.3854 50.4731,96.0521 49.5,98.5C 49.6621,96.4727 49.4955,94.4727 49,92.5C 47.8068,94.8864 46.6401,97.2198 45.5,99.5C 42.331,103.833 39.6643,108.5 37.5,113.5C 36.5,112.5 35.5,111.5 34.5,110.5C 35.675,110.719 36.675,110.386 37.5,109.5C 41.2926,103.416 44.9592,97.2493 48.5,91C 48.2716,90.6012 47.9382,90.4346 47.5,90.5 Z"/></g>
<g><path style="opacity:1" fill="#143043" d="M 169.5,89.5 C 173.009,91.3791 174.342,94.3791 173.5,98.5C 174.791,98.2627 175.791,98.596 176.5,99.5C 175.5,99.5 174.5,99.5 173.5,99.5C 173.674,101.861 174.007,104.194 174.5,106.5C 172.896,107.287 172.229,108.62 172.5,110.5C 171.167,110.5 169.833,110.5 168.5,110.5C 167.167,109.833 166.167,108.833 165.5,107.5C 166.693,107.03 167.36,106.03 167.5,104.5C 168.355,99.5165 169.022,94.5165 169.5,89.5 Z"/></g>
<g><path style="opacity:1" fill="#389ab4" d="M 49.5,98.5 C 48.3364,106.475 47.3364,114.475 46.5,122.5C 45.8826,122.389 45.3826,122.056 45,121.5C 44.6322,122.91 43.7989,123.91 42.5,124.5C 40.9873,122.465 40.3207,120.131 40.5,117.5C 41.0303,111.129 42.697,105.129 45.5,99.5C 46.6401,97.2198 47.8068,94.8864 49,92.5C 49.4955,94.4727 49.6621,96.4727 49.5,98.5 Z"/></g>
<g><path style="opacity:1" fill="#451c1b" d="M 184.5,105.5 C 183.624,105.369 182.957,105.702 182.5,106.5C 183.736,110.643 185.736,114.309 188.5,117.5C 185.59,115.761 183.09,113.428 181,110.5C 179.589,108.35 178.755,106.016 178.5,103.5C 178.369,102.624 178.702,101.957 179.5,101.5C 181.786,102.133 183.452,103.466 184.5,105.5 Z"/></g>
<g><path style="opacity:1" fill="#161616" d="M 249.5,92.5 C 251.5,93.5 253.5,94.5 255.5,95.5C 255.5,104.167 255.5,112.833 255.5,121.5C 250.813,117.15 245.813,113.15 240.5,109.5C 244.277,104.281 247.277,98.6148 249.5,92.5 Z"/></g>
<g><path style="opacity:1" fill="#d47774" d="M 199.5,102.5 C 199.298,100.05 199.631,97.717 200.5,95.5C 200.328,94.5084 200.662,93.8417 201.5,93.5C 203.23,92.9744 204.564,91.9744 205.5,90.5C 206.873,90.6567 208.207,90.49 209.5,90C 213.744,84.0417 219.411,81.375 226.5,82C 228.57,82.9476 230.07,84.4476 231,86.5C 231.667,90.5 231.667,94.5 231,98.5C 227.987,102.522 225.154,106.688 222.5,111C 214.921,111.184 207.421,111.684 200,112.5C 199.502,109.183 199.335,105.85 199.5,102.5 Z"/></g>
<g><path style="opacity:1" fill="#e5928f" d="M 216.5,84.5 C 224.801,83.638 227.968,87.3046 226,95.5C 224.402,100.532 221.902,105.032 218.5,109C 212.509,109.499 206.509,109.666 200.5,109.5C 200.335,106.15 200.502,102.817 201,99.5C 206.103,94.3782 211.27,89.3782 216.5,84.5 Z"/></g>
<g><path style="opacity:1" fill="#eea8a6" d="M 216.5,88.5 C 218.722,88.178 220.556,88.8446 222,90.5C 222.61,94.2364 222.277,97.9031 221,101.5C 219.786,103.049 218.286,104.215 216.5,105C 211.724,105.346 207.058,106.179 202.5,107.5C 202.002,103.781 202.836,100.447 205,97.5C 208.485,93.8663 212.318,90.8663 216.5,88.5 Z"/></g>
<g><path style="opacity:1" fill="#be5854" d="M 228.5,114.5 C 225.106,115.572 221.606,116.572 218,117.5C 211.91,115.987 205.744,114.987 199.5,114.5C 199.5,113.833 199.167,113.5 198.5,113.5C 198.5,109.833 198.5,106.167 198.5,102.5C 198.833,102.5 199.167,102.5 199.5,102.5C 199.335,105.85 199.502,109.183 200,112.5C 207.421,111.684 214.921,111.184 222.5,111C 225.154,106.688 227.987,102.522 231,98.5C 231.667,94.5 231.667,90.5 231,86.5C 230.07,84.4476 228.57,82.9476 226.5,82C 219.411,81.375 213.744,84.0417 209.5,90C 208.207,90.49 206.873,90.6567 205.5,90.5C 209.22,84.9407 214.22,81.1073 220.5,79C 233.265,77.3199 238.099,82.8199 235,95.5C 232.112,100.852 230.612,106.519 230.5,112.5C 228.007,112.131 227.34,112.797 228.5,114.5 Z"/></g>
<g><path style="opacity:1" fill="#817877" d="M 249.5,92.5 C 247.277,98.6148 244.277,104.281 240.5,109.5C 234.57,115.762 227.57,120.428 219.5,123.5C 218.662,123.158 218.328,122.492 218.5,121.5C 221.833,119.167 225.167,116.833 228.5,114.5C 233.479,111.521 237.479,107.521 240.5,102.5C 243.081,99.6797 244.914,96.3464 246,92.5C 247.292,91.2089 248.458,91.2089 249.5,92.5 Z"/></g>
<g><path style="opacity:1" fill="#3b1414" d="M 160.5,103.5 C 161.167,103.833 161.833,104.167 162.5,104.5C 163.167,105.833 164.167,106.833 165.5,107.5C 166.167,108.833 167.167,109.833 168.5,110.5C 170.033,112.355 171.7,114.188 173.5,116C 170.773,116.818 168.106,116.652 165.5,115.5C 163.481,113.81 161.481,112.144 159.5,110.5C 159.198,107.941 159.532,105.607 160.5,103.5 Z"/></g>
<g><path style="opacity:1" fill="#040405" d="M 174.5,106.5 C 179.01,116.509 186.51,123.176 197,126.5C 197.902,126.257 198.735,125.923 199.5,125.5C 204.305,130.134 209.305,134.634 214.5,139C 216.905,139.281 216.905,138.615 214.5,137C 223.225,139.284 229.559,144.118 233.5,151.5C 233.291,152.086 232.957,152.586 232.5,153C 239.167,158.667 245.833,164.333 252.5,170C 221.502,170.5 190.502,170.667 159.5,170.5C 155.5,170.5 151.5,170.5 147.5,170.5C 148.984,169.527 149.484,168.193 149,166.5C 143.784,161.15 138.284,156.15 132.5,151.5C 133.09,150.201 134.09,149.368 135.5,149C 131.619,145.909 127.953,142.575 124.5,139C 122.559,138.257 120.726,138.424 119,139.5C 118.833,139.167 118.667,138.833 118.5,138.5C 119.5,137.833 120.5,137.167 121.5,136.5C 119.54,134.844 117.54,133.177 115.5,131.5C 114.873,130.583 114.539,129.583 114.5,128.5C 116.905,129.398 118.905,130.898 120.5,133C 122.743,134.136 125.076,134.97 127.5,135.5C 127.611,136.117 127.944,136.617 128.5,137C 132.152,137.499 135.818,137.665 139.5,137.5C 139.5,138.5 139.5,139.5 139.5,140.5C 140.873,140.343 142.207,140.51 143.5,141C 146.031,144.539 149.364,146.872 153.5,148C 155.061,148.941 156.395,150.108 157.5,151.5C 167.385,153.19 168.051,151.19 159.5,145.5C 154.539,141.874 149.872,137.874 145.5,133.5C 144.167,132.5 142.833,131.5 141.5,130.5C 141.167,129.5 140.5,128.833 139.5,128.5C 138.5,128.167 137.833,127.5 137.5,126.5C 149.211,126.994 156.545,121.66 159.5,110.5C 161.481,112.144 163.481,113.81 165.5,115.5C 168.106,116.652 170.773,116.818 173.5,116C 171.7,114.188 170.033,112.355 168.5,110.5C 169.833,110.5 171.167,110.5 172.5,110.5C 172.229,108.62 172.896,107.287 174.5,106.5 Z"/></g>
<g><path style="opacity:1" fill="#712623" d="M 184.5,105.5 C 187.833,108.167 191.167,110.833 194.5,113.5C 195.15,115.435 195.483,117.435 195.5,119.5C 194.167,119.5 192.833,119.5 191.5,119.5C 189.973,119.573 188.973,118.906 188.5,117.5C 185.736,114.309 183.736,110.643 182.5,106.5C 182.957,105.702 183.624,105.369 184.5,105.5 Z"/></g>
<g><path style="opacity:1" fill="#8a8b8c" d="M 176.5,99.5 C 177.167,100.833 177.833,102.167 178.5,103.5C 178.755,106.016 179.589,108.35 181,110.5C 183.09,113.428 185.59,115.761 188.5,117.5C 188.973,118.906 189.973,119.573 191.5,119.5C 192.78,120.931 194.447,121.598 196.5,121.5C 197.209,122.404 198.209,122.737 199.5,122.5C 199.5,123.5 199.5,124.5 199.5,125.5C 198.735,125.923 197.902,126.257 197,126.5C 186.51,123.176 179.01,116.509 174.5,106.5C 174.007,104.194 173.674,101.861 173.5,99.5C 174.5,99.5 175.5,99.5 176.5,99.5 Z"/></g>
<g><path style="opacity:1" fill="#953835" d="M 199.5,114.5 C 205.744,114.987 211.91,115.987 218,117.5C 221.606,116.572 225.106,115.572 228.5,114.5C 225.167,116.833 221.833,119.167 218.5,121.5C 211.689,121.548 205.356,119.881 199.5,116.5C 199.5,115.833 199.5,115.167 199.5,114.5 Z"/></g>
<g><path style="opacity:1" fill="#1f708b" d="M 108.5,116.5 C 110.55,118.547 112.883,120.214 115.5,121.5C 115.5,122.167 115.5,122.833 115.5,123.5C 114.209,123.263 113.209,123.596 112.5,124.5C 109.592,125.569 106.592,125.736 103.5,125C 101.574,124.578 100.574,123.411 100.5,121.5C 100.369,120.624 100.702,119.957 101.5,119.5C 104.692,122.118 106.025,121.118 105.5,116.5C 106.5,116.5 107.5,116.5 108.5,116.5 Z"/></g>
<g><path style="opacity:1" fill="#1a1a1a" d="M -0.5,103.5 C 6.99817,114.49 13.9982,125.824 20.5,137.5C 19.5,137.5 18.5,137.5 17.5,137.5C 17.6495,136.448 17.4828,135.448 17,134.5C 15.6569,135.214 14.3236,134.88 13,133.5C 11.6532,137.375 10.4865,137.375 9.5,133.5C 9.16667,133.667 8.83333,133.833 8.5,134C 8.51969,135.715 9.18635,137.548 10.5,139.5C 8.67068,140.282 7.17068,139.616 6,137.5C 5.69238,138.308 5.19238,138.975 4.5,139.5C 4.81038,137.799 4.31038,136.132 3,134.5C 2.51722,135.448 2.35055,136.448 2.5,137.5C 1.5,137.5 0.5,137.5 -0.5,137.5C -0.5,126.167 -0.5,114.833 -0.5,103.5 Z"/></g>
<g><path style="opacity:1" fill="#5c96a3" d="M 117.5,105.5 C 117.24,111.172 116.907,116.839 116.5,122.5C 117.363,124.421 118.029,126.421 118.5,128.5C 116.273,127.599 115.273,125.933 115.5,123.5C 115.5,122.833 115.5,122.167 115.5,121.5C 115.376,115.931 116.043,110.598 117.5,105.5 Z"/></g>
<g><path style="opacity:1" fill="#929a9a" d="M 160.5,102.5 C 160.5,102.833 160.5,103.167 160.5,103.5C 159.532,105.607 159.198,107.941 159.5,110.5C 156.545,121.66 149.211,126.994 137.5,126.5C 137.5,125.5 137.5,124.5 137.5,123.5C 150.011,122.819 156.178,116.153 156,103.5C 157.356,102.62 158.856,102.286 160.5,102.5 Z"/></g>
<g><path style="opacity:1" fill="#5d1a19" d="M 199.5,116.5 C 205.356,119.881 211.689,121.548 218.5,121.5C 218.328,122.492 218.662,123.158 219.5,123.5C 220.08,125.749 221.413,127.415 223.5,128.5C 223.5,129.5 223.5,130.5 223.5,131.5C 217.927,129.52 212.261,127.687 206.5,126C 203.924,122.937 201.591,119.771 199.5,116.5 Z"/></g>
<g><path style="opacity:1" fill="#59d4e5" d="M 116.5,122.5 C 118.844,123.672 121.177,123.672 123.5,122.5C 125.58,123.331 127.58,124.331 129.5,125.5C 131.891,124.101 134.057,124.434 136,126.5C 136.232,125.263 136.732,124.263 137.5,123.5C 137.5,124.5 137.5,125.5 137.5,126.5C 137.833,127.5 138.5,128.167 139.5,128.5C 132.649,129.694 125.649,129.694 118.5,128.5C 118.029,126.421 117.363,124.421 116.5,122.5 Z"/></g>
<g><path style="opacity:1" fill="#9c9d9d" d="M 96.5,109.5 C 98.2603,112.701 99.0936,116.367 99,120.5C 99.3826,121.056 99.8826,121.389 100.5,121.5C 100.574,123.411 101.574,124.578 103.5,125C 106.592,125.736 109.592,125.569 112.5,124.5C 114.176,125.183 114.843,126.517 114.5,128.5C 98.1367,131.806 92.1367,125.472 96.5,109.5 Z"/></g>
<g><path style="opacity:1" fill="#2e0e0c" d="M 194.5,113.5 C 195.482,114.141 196.482,114.807 197.5,115.5C 198.298,115.043 198.631,114.376 198.5,113.5C 199.167,113.5 199.5,113.833 199.5,114.5C 199.5,115.167 199.5,115.833 199.5,116.5C 201.591,119.771 203.924,122.937 206.5,126C 212.261,127.687 217.927,129.52 223.5,131.5C 223.5,130.5 223.5,129.5 223.5,128.5C 226.364,130.023 228.031,132.357 228.5,135.5C 223.106,135.122 217.773,134.288 212.5,133C 207.816,130.177 203.816,126.677 200.5,122.5C 199.311,121.571 197.978,121.238 196.5,121.5C 194.447,121.598 192.78,120.931 191.5,119.5C 192.833,119.5 194.167,119.5 195.5,119.5C 195.483,117.435 195.15,115.435 194.5,113.5 Z"/></g>
<g><path style="opacity:1" fill="#1f8eac" d="M 118.5,128.5 C 125.649,129.694 132.649,129.694 139.5,128.5C 140.5,128.833 141.167,129.5 141.5,130.5C 135.355,131.49 129.022,131.823 122.5,131.5C 121.128,130.488 119.795,129.488 118.5,128.5 Z"/></g>
<g><path style="opacity:1" fill="#116381" d="M 141.5,130.5 C 142.833,131.5 144.167,132.5 145.5,133.5C 144.726,134.147 143.726,134.48 142.5,134.5C 136.187,133.793 129.853,133.293 123.5,133C 122.944,132.617 122.611,132.117 122.5,131.5C 129.022,131.823 135.355,131.49 141.5,130.5 Z"/></g>
<g><path style="opacity:1" fill="#0d0e0e" d="M 100.5,86.5 C 106.317,90.582 111.983,94.9154 117.5,99.5C 117.5,100.5 117.5,101.5 117.5,102.5C 117.5,103.5 117.5,104.5 117.5,105.5C 116.043,110.598 115.376,115.931 115.5,121.5C 112.883,120.214 110.55,118.547 108.5,116.5C 105.69,113.864 102.69,111.364 99.5,109C 98.2506,108.26 97.2506,108.427 96.5,109.5C 92.1367,125.472 98.1367,131.806 114.5,128.5C 114.539,129.583 114.873,130.583 115.5,131.5C 117.54,133.177 119.54,134.844 121.5,136.5C 120.5,137.167 119.5,137.833 118.5,138.5C 118.667,138.833 118.833,139.167 119,139.5C 120.726,138.424 122.559,138.257 124.5,139C 127.953,142.575 131.619,145.909 135.5,149C 134.09,149.368 133.09,150.201 132.5,151.5C 138.284,156.15 143.784,161.15 149,166.5C 149.484,168.193 148.984,169.527 147.5,170.5C 136.167,170.5 124.833,170.5 113.5,170.5C 75.5035,169.847 37.5035,169.513 -0.5,169.5C -0.5,158.833 -0.5,148.167 -0.5,137.5C 0.5,137.5 1.5,137.5 2.5,137.5C 2.35055,136.448 2.51722,135.448 3,134.5C 4.31038,136.132 4.81038,137.799 4.5,139.5C 5.19238,138.975 5.69238,138.308 6,137.5C 7.17068,139.616 8.67068,140.282 10.5,139.5C 9.18635,137.548 8.51969,135.715 8.5,134C 8.83333,133.833 9.16667,133.667 9.5,133.5C 10.4865,137.375 11.6532,137.375 13,133.5C 14.3236,134.88 15.6569,135.214 17,134.5C 17.4828,135.448 17.6495,136.448 17.5,137.5C 18.5,137.5 19.5,137.5 20.5,137.5C 13.9982,125.824 6.99817,114.49 -0.5,103.5C -0.5,101.833 -0.5,100.167 -0.5,98.5C 9.91275,101.04 19.9127,104.706 29.5,109.5C 31.1172,110.038 32.7839,110.371 34.5,110.5C 35.5,111.5 36.5,112.5 37.5,113.5C 38.1095,119.815 38.4428,126.149 38.5,132.5C 38.712,143.194 39.3786,153.86 40.5,164.5C 41.48,161.914 41.8134,159.247 41.5,156.5C 43.0178,148.211 44.3511,139.877 45.5,131.5C 45.7038,128.482 46.0371,125.482 46.5,122.5C 47.8005,116.118 49.6338,109.785 52,103.5C 52.3095,104.766 52.8095,105.933 53.5,107C 52.8724,109.37 52.5391,111.703 52.5,114C 53.7143,116.351 54.5477,118.851 55,121.5C 56.391,117.384 58.2243,113.717 60.5,110.5C 62.3588,110.539 63.6921,109.706 64.5,108C 64.5117,106.025 64.1784,103.858 63.5,101.5C 64.8734,101.343 66.2068,101.51 67.5,102C 65.8383,105.175 66.505,107.675 69.5,109.5C 70.354,108.478 71.354,107.645 72.5,107C 71.552,106.517 70.552,106.351 69.5,106.5C 68.8224,102.727 70.1558,99.894 73.5,98C 75.9436,97.6011 76.6102,98.4345 75.5,100.5C 76.325,101.386 77.325,101.719 78.5,101.5C 78.6495,102.552 78.4828,103.552 78,104.5C 77.15,103.576 76.15,103.576 75,104.5C 73.902,103.616 73.402,102.616 73.5,101.5C 72.5713,102.689 72.238,104.022 72.5,105.5C 75.6421,105.799 77.8088,107.466 79,110.5C 79.3095,109.234 79.8095,108.067 80.5,107C 79.5,106.667 78.5,106.333 77.5,106C 78.8491,105.228 79.6824,104.061 80,102.5C 80.3333,102.833 80.6667,103.167 81,103.5C 81.1953,101.793 81.1953,100.126 81,98.5C 82.5333,98.9437 84.0333,99.277 85.5,99.5C 86.3081,99.1924 86.9747,98.6924 87.5,98C 86.2842,96.2602 84.6175,95.2602 82.5,95C 82.5943,93.5778 82.9276,92.0778 83.5,90.5C 85.0202,91.8499 85.6869,93.1832 85.5,94.5C 87.7366,94.3062 89.9033,94.3062 92,94.5C 93.4443,92.8446 95.2776,92.178 97.5,92.5C 98.2055,90.3284 99.2055,88.3284 100.5,86.5 Z"/></g>
<g><path style="opacity:1" fill="#397d97" d="M 45.5,99.5 C 42.697,105.129 41.0303,111.129 40.5,117.5C 40.3207,120.131 40.9873,122.465 42.5,124.5C 43.7989,123.91 44.6322,122.91 45,121.5C 45.3826,122.056 45.8826,122.389 46.5,122.5C 46.0371,125.482 45.7038,128.482 45.5,131.5C 44.2421,134.364 42.2421,135.03 39.5,133.5C 39.5,132.833 39.1667,132.5 38.5,132.5C 38.4428,126.149 38.1095,119.815 37.5,113.5C 39.6643,108.5 42.331,103.833 45.5,99.5 Z"/></g>
<g><path style="opacity:1" fill="#1d536b" d="M 96.5,109.5 C 97.2506,108.427 98.2506,108.26 99.5,109C 102.69,111.364 105.69,113.864 108.5,116.5C 107.5,116.5 106.5,116.5 105.5,116.5C 106.025,121.118 104.692,122.118 101.5,119.5C 100.702,119.957 100.369,120.624 100.5,121.5C 99.8826,121.389 99.3826,121.056 99,120.5C 99.0936,116.367 98.2603,112.701 96.5,109.5 Z"/></g>
<g><path style="opacity:1" fill="#052a3c" d="M 112.5,124.5 C 113.209,123.596 114.209,123.263 115.5,123.5C 115.273,125.933 116.273,127.599 118.5,128.5C 119.795,129.488 121.128,130.488 122.5,131.5C 122.611,132.117 122.944,132.617 123.5,133C 129.853,133.293 136.187,133.793 142.5,134.5C 143.726,134.48 144.726,134.147 145.5,133.5C 149.872,137.874 154.539,141.874 159.5,145.5C 160.087,146.767 160.087,147.767 159.5,148.5C 153.893,146.698 148.893,143.864 144.5,140C 143.207,139.51 141.873,139.343 140.5,139.5C 140.5,138.5 140.5,137.5 140.5,136.5C 136.215,135.705 131.881,135.372 127.5,135.5C 125.076,134.97 122.743,134.136 120.5,133C 118.905,130.898 116.905,129.398 114.5,128.5C 114.843,126.517 114.176,125.183 112.5,124.5 Z"/></g>
<g><path style="opacity:1" fill="#1c262e" d="M 45.5,131.5 C 44.3511,139.877 43.0178,148.211 41.5,156.5C 40.2065,150.142 40.2065,143.642 41.5,137C 40.5705,135.923 39.9038,134.756 39.5,133.5C 42.2421,135.03 44.2421,134.364 45.5,131.5 Z"/></g>
<g><path style="opacity:1" fill="#031b28" d="M 127.5,135.5 C 131.881,135.372 136.215,135.705 140.5,136.5C 140.5,137.5 140.5,138.5 140.5,139.5C 141.873,139.343 143.207,139.51 144.5,140C 148.893,143.864 153.893,146.698 159.5,148.5C 160.087,147.767 160.087,146.767 159.5,145.5C 168.051,151.19 167.385,153.19 157.5,151.5C 156.395,150.108 155.061,148.941 153.5,148C 149.364,146.872 146.031,144.539 143.5,141C 142.207,140.51 140.873,140.343 139.5,140.5C 139.5,139.5 139.5,138.5 139.5,137.5C 135.818,137.665 132.152,137.499 128.5,137C 127.944,136.617 127.611,136.117 127.5,135.5 Z"/></g>
<g><path style="opacity:1" fill="#383c3f" d="M 38.5,132.5 C 39.1667,132.5 39.5,132.833 39.5,133.5C 39.9038,134.756 40.5705,135.923 41.5,137C 40.2065,143.642 40.2065,150.142 41.5,156.5C 41.8134,159.247 41.48,161.914 40.5,164.5C 39.3786,153.86 38.712,143.194 38.5,132.5 Z"/></g>
<g><path style="opacity:0.997" fill="#0c0808" d="M 240.5,109.5 C 245.813,113.15 250.813,117.15 255.5,121.5C 255.5,139.5 255.5,157.5 255.5,175.5C 253.863,177.475 252.196,179.475 250.5,181.5C 218.167,181.5 185.833,181.5 153.5,181.5C 160.406,180.085 167.406,178.585 174.5,177C 175.126,176.25 175.626,175.416 176,174.5C 176.333,174.833 176.667,175.167 177,175.5C 177.684,174.216 177.517,173.049 176.5,172C 172.514,171.501 168.514,171.334 164.5,171.5C 162.585,171.784 160.919,171.451 159.5,170.5C 190.502,170.667 221.502,170.5 252.5,170C 245.833,164.333 239.167,158.667 232.5,153C 232.957,152.586 233.291,152.086 233.5,151.5C 229.559,144.118 223.225,139.284 214.5,137C 216.905,138.615 216.905,139.281 214.5,139C 209.305,134.634 204.305,130.134 199.5,125.5C 199.5,124.5 199.5,123.5 199.5,122.5C 198.209,122.737 197.209,122.404 196.5,121.5C 197.978,121.238 199.311,121.571 200.5,122.5C 203.816,126.677 207.816,130.177 212.5,133C 217.773,134.288 223.106,135.122 228.5,135.5C 228.031,132.357 226.364,130.023 223.5,128.5C 221.413,127.415 220.08,125.749 219.5,123.5C 227.57,120.428 234.57,115.762 240.5,109.5 Z"/></g>
<g><path style="opacity:1" fill="#303030" d="M 20.5,137.5 C 27.1318,146.451 32.9652,155.785 38,165.5C 31.394,156.615 25.5606,147.282 20.5,137.5 Z"/></g>
<g><path style="opacity:1" fill="#1b1c1c" d="M -0.5,170.5 C -0.5,170.167 -0.5,169.833 -0.5,169.5C 37.5035,169.513 75.5035,169.847 113.5,170.5C 111.631,171.165 109.631,171.831 107.5,172.5C 108.977,174.865 110.977,176.531 113.5,177.5C 104.859,177.52 96.5261,176.02 88.5,173C 84.2467,172.8 80.08,172.3 76,171.5C 65.891,172.286 55.7244,172.952 45.5,173.5C 45.6215,177.107 43.9548,179.273 40.5,180C 41.056,180.383 41.3893,180.883 41.5,181.5C 37.1667,181.5 32.8333,181.5 28.5,181.5C 30.1957,177.962 32.8623,175.295 36.5,173.5C 37.8333,174.5 39.1667,175.5 40.5,176.5C 41.4519,174.955 41.7852,173.288 41.5,171.5C 27.4925,171.423 13.4925,171.089 -0.5,170.5 Z"/></g>
<g><path style="opacity:1" fill="#2e2e2f" d="M -0.5,170.5 C 13.4925,171.089 27.4925,171.423 41.5,171.5C 41.7852,173.288 41.4519,174.955 40.5,176.5C 39.1667,175.5 37.8333,174.5 36.5,173.5C 32.8623,175.295 30.1957,177.962 28.5,181.5C 20.8333,181.5 13.1667,181.5 5.5,181.5C 3.52483,179.863 1.52483,178.196 -0.5,176.5C -0.5,174.5 -0.5,172.5 -0.5,170.5 Z"/></g>
<g><path style="opacity:1" fill="#28110f" d="M 202.5,176.5 C 198.807,175.753 198.807,174.42 202.5,172.5C 209.476,171.336 216.476,171.169 223.5,172C 225.861,172.197 227.528,173.364 228.5,175.5C 224.975,179.054 220.642,180.72 215.5,180.5C 211.764,180.472 208.097,179.972 204.5,179C 203.244,178.583 202.577,177.75 202.5,176.5 Z"/></g>
<g><path style="opacity:1" fill="#0f1010" d="M 113.5,177.5 C 127.474,178.832 141.474,179.332 155.5,179C 159.461,178.596 163.128,177.43 166.5,175.5C 165.82,174.14 165.153,172.807 164.5,171.5C 168.514,171.334 172.514,171.501 176.5,172C 177.517,173.049 177.684,174.216 177,175.5C 176.667,175.167 176.333,174.833 176,174.5C 175.626,175.416 175.126,176.25 174.5,177C 167.406,178.585 160.406,180.085 153.5,181.5C 116.167,181.5 78.8333,181.5 41.5,181.5C 41.3893,180.883 41.056,180.383 40.5,180C 43.9548,179.273 45.6215,177.107 45.5,173.5C 55.7244,172.952 65.891,172.286 76,171.5C 80.08,172.3 84.2467,172.8 88.5,173C 96.5261,176.02 104.859,177.52 113.5,177.5 Z"/></g>
<g><path style="opacity:1" fill="#3e1615" d="M 202.5,176.5 C 202.825,174.868 203.825,173.868 205.5,173.5C 210.832,172.262 216.166,172.262 221.5,173.5C 222.711,174.72 222.711,175.887 221.5,177C 215.103,179.011 208.769,178.844 202.5,176.5 Z"/></g>
<g><path style="opacity:1" fill="#111c24" d="M 113.5,170.5 C 124.833,170.5 136.167,170.5 147.5,170.5C 151.5,170.5 155.5,170.5 159.5,170.5C 160.919,171.451 162.585,171.784 164.5,171.5C 165.153,172.807 165.82,174.14 166.5,175.5C 163.128,177.43 159.461,178.596 155.5,179C 141.474,179.332 127.474,178.832 113.5,177.5C 110.977,176.531 108.977,174.865 107.5,172.5C 109.631,171.831 111.631,171.165 113.5,170.5 Z"/></g>
<g><path style="opacity:1" fill="#173c50" d="M 120.5,171.5 C 119.602,172.158 118.602,172.824 117.5,173.5C 125.5,174.833 133.5,174.833 141.5,173.5C 140.757,172.818 140.091,172.151 139.5,171.5C 143.915,171.305 148.249,171.805 152.5,173C 153.956,173.423 154.456,174.256 154,175.5C 141.909,176.654 129.742,176.821 117.5,176C 116.5,175.5 115.5,175 114.5,174.5C 113.479,173.998 113.312,173.332 114,172.5C 116.041,171.577 118.208,171.244 120.5,171.5 Z"/></g>
<g><path style="opacity:1" fill="#1e5b75" d="M 120.5,171.5 C 126.833,171.5 133.167,171.5 139.5,171.5C 140.091,172.151 140.757,172.818 141.5,173.5C 133.5,174.833 125.5,174.833 117.5,173.5C 118.602,172.824 119.602,172.158 120.5,171.5 Z"/></g>
</svg>
