<?xml version="1.0" encoding="UTF-8"?>
<!DOCTYPE svg PUBLIC "-//W3C//DTD SVG 1.1//EN" "http://www.w3.org/Graphics/SVG/1.1/DTD/svg11.dtd">
<svg xmlns="http://www.w3.org/2000/svg" version="1.1" width="256px" height="182px" style="shape-rendering:geometricPrecision; text-rendering:geometricPrecision; image-rendering:optimizeQuality; fill-rule:evenodd; clip-rule:evenodd" xmlns:xlink="http://www.w3.org/1999/xlink">
<g><path style="opacity:0.999" fill="#8e3d6d" d="M 4.5,-0.5 C 16.1667,-0.5 27.8333,-0.5 39.5,-0.5C 39.5,0.5 39.5,1.5 39.5,2.5C 37.1432,2.33669 34.8098,2.50335 32.5,3C 29.4626,6.42546 25.796,7.59212 21.5,6.5C 21.3438,9.44202 20.0105,12.1087 17.5,14.5C 14.2869,14.19 11.2869,14.5233 8.5,15.5C 7.5,15.5 6.5,15.5 5.5,15.5C 3.41071,15.0091 1.41071,15.0091 -0.5,15.5C -0.5,12.1667 -0.5,8.83333 -0.5,5.5C 1.13696,3.52483 2.80363,1.52483 4.5,-0.5 Z"/></g>
<g><path style="opacity:1" fill="#6c5f93" d="M 200.5,-0.5 C 216.5,-0.5 232.5,-0.5 248.5,-0.5C 248.423,0.749754 247.756,1.58309 246.5,2C 247.022,2.5613 247.355,3.22797 247.5,4C 246.287,5.63025 245.454,7.46358 245,9.5C 242.67,11.0317 240.67,10.6983 239,8.5C 237.758,10.8593 236.258,12.8593 234.5,14.5C 230.116,14.8256 225.783,14.4922 221.5,13.5C 222.246,12.2638 222.579,10.9305 222.5,9.5C 218.817,10.6748 215.15,10.6748 211.5,9.5C 211.762,8.02218 211.429,6.68884 210.5,5.5C 206.764,4.0469 203.431,2.0469 200.5,-0.5 Z"/></g>
<g><path style="opacity:1" fill="#8b4174" d="M 39.5,-0.5 C 51.8333,-0.5 64.1667,-0.5 76.5,-0.5C 74.0314,0.317095 71.3647,0.817095 68.5,1C 65.9215,2.68536 63.5881,4.51869 61.5,6.5C 58.321,7.72118 54.9877,8.72118 51.5,9.5C 49.0481,9.21047 46.7148,8.5438 44.5,7.5C 43.8333,7.66667 43.1667,7.83333 42.5,8C 43.3402,9.66647 42.8402,9.83314 41,8.5C 40.7265,10.3289 39.8932,11.8289 38.5,13C 38.8333,13.3333 39.1667,13.6667 39.5,14C 38.5,14.3333 37.5,14.6667 36.5,15C 37.2797,16.073 37.113,17.2396 36,18.5C 34.9354,14.4307 32.9354,13.764 30,16.5C 28.8615,16.0109 27.6948,15.6775 26.5,15.5C 23.5701,14.701 20.5701,14.3677 17.5,14.5C 20.0105,12.1087 21.3438,9.44202 21.5,6.5C 25.796,7.59212 29.4626,6.42546 32.5,3C 34.8098,2.50335 37.1432,2.33669 39.5,2.5C 39.5,1.5 39.5,0.5 39.5,-0.5 Z"/></g>
<g><path style="opacity:1" fill="#894e83" d="M 113.5,3.5 C 116.698,4.68036 119.865,6.0137 123,7.5C 125.21,5.88912 127.71,5.22245 130.5,5.5C 130.392,7.5138 131.058,9.18047 132.5,10.5C 126.972,12.6738 121.305,13.6738 115.5,13.5C 114.975,14.1924 114.308,14.6924 113.5,15C 116.5,15.3333 119.5,15.6667 122.5,16C 118.383,17.2243 114.716,19.2243 111.5,22C 108.899,22.9203 106.232,23.587 103.5,24C 103.167,25 102.833,26 102.5,27C 95.654,27.1717 88.9874,27.6717 82.5,28.5C 82.1667,28.5 81.8333,28.5 81.5,28.5C 84.0853,24.7994 87.7519,22.9661 92.5,23C 93.3452,21.4419 92.6785,20.4419 90.5,20C 93.0295,16.3145 96.3629,13.6479 100.5,12C 101.147,10.3905 101.98,8.8905 103,7.5C 103.691,9.89118 104.691,9.89118 106,7.5C 109.841,8.49354 111.841,6.82687 112,2.5C 112.383,3.05596 112.883,3.38929 113.5,3.5 Z"/></g>
<g><path style="opacity:1" fill="#735990" d="M 171.5,-0.5 C 181.167,-0.5 190.833,-0.5 200.5,-0.5C 203.431,2.0469 206.764,4.0469 210.5,5.5C 211.429,6.68884 211.762,8.02218 211.5,9.5C 215.15,10.6748 218.817,10.6748 222.5,9.5C 222.579,10.9305 222.246,12.2638 221.5,13.5C 225.783,14.4922 230.116,14.8256 234.5,14.5C 234.5,14.8333 234.5,15.1667 234.5,15.5C 233.508,15.3284 232.842,15.6618 232.5,16.5C 231.833,16.5 231.167,16.5 230.5,16.5C 230.44,15.9569 230.107,15.6236 229.5,15.5C 227.389,16.9488 225.056,17.9488 222.5,18.5C 219.188,18.4153 215.855,18.082 212.5,17.5C 211.784,18.311 210.95,18.9777 210,19.5C 208.047,17.0005 205.714,16.3339 203,17.5C 200.619,16.2496 198.619,14.5829 197,12.5C 195.497,12.8346 194.164,12.8346 193,12.5C 191.693,11.2283 190.193,10.2283 188.5,9.5C 187.982,3.64188 184.982,1.97521 179.5,4.5C 177.7,4.09756 176.033,3.43089 174.5,2.5C 173.167,1.83333 172.167,0.833333 171.5,-0.5 Z"/></g>
<g><path style="opacity:0.981" fill="#666696" d="M 248.5,-0.5 C 248.833,-0.5 249.167,-0.5 249.5,-0.5C 251.475,1.13696 253.475,2.80363 255.5,4.5C 255.5,10.8333 255.5,17.1667 255.5,23.5C 255.167,23.5 254.833,23.5 254.5,23.5C 254.862,19.1991 253.028,16.5324 249,15.5C 247.624,15.6842 246.791,16.3509 246.5,17.5C 245.833,17.1667 245.167,16.8333 244.5,16.5C 241.375,15.5206 238.042,15.1872 234.5,15.5C 234.5,15.1667 234.5,14.8333 234.5,14.5C 236.258,12.8593 237.758,10.8593 239,8.5C 240.67,10.6983 242.67,11.0317 245,9.5C 245.454,7.46358 246.287,5.63025 247.5,4C 247.355,3.22797 247.022,2.5613 246.5,2C 247.756,1.58309 248.423,0.749754 248.5,-0.5 Z"/></g>
<g><path style="opacity:1" fill="#8c427b" d="M 61.5,6.5 C 66.0395,7.81953 70.7062,8.65286 75.5,9C 74.9747,9.69238 74.3081,10.1924 73.5,10.5C 71.5914,9.65178 69.5914,9.31845 67.5,9.5C 67.7886,12.6492 67.2886,15.6492 66,18.5C 65.6667,15.8333 65.3333,13.1667 65,10.5C 62.6956,12.4311 60.8622,14.7644 59.5,17.5C 55.0201,19.2408 50.6868,21.2408 46.5,23.5C 48.3413,24.2304 50.1746,24.8971 52,25.5C 52.414,25.0426 52.914,24.7093 53.5,24.5C 54.8333,25.5 56.1667,26.5 57.5,27.5C 60.5192,25.7382 63.6858,24.4049 67,23.5C 68.518,25.348 70.3513,26.848 72.5,28C 70.9559,28.2896 69.6226,28.9563 68.5,30C 69.5981,30.7697 69.5981,31.603 68.5,32.5C 68.6463,34.9424 67.813,35.6091 66,34.5C 64.4702,36.2262 63.4702,38.2262 63,40.5C 62.1074,39.9186 61.1074,39.5852 60,39.5C 55.7382,41.2465 51.2382,41.9132 46.5,41.5C 46.6567,42.8734 46.49,44.2068 46,45.5C 44.4815,45.9426 43.3148,45.2759 42.5,43.5C 41.0186,44.4803 39.6853,45.647 38.5,47C 37.175,46.8516 36.0084,47.0183 35,47.5C 32.1449,62.204 30.9783,77.204 31.5,92.5C 30.8333,99.1667 30.1667,105.833 29.5,112.5C 28.9835,85.4392 29.9835,58.4392 32.5,31.5C 32.1667,28.5 31.8333,25.5 31.5,22.5C 30.8243,21.3984 30.1577,20.3984 29.5,19.5C 29.1667,19.5 28.8333,19.5 28.5,19.5C 28.2671,17.9382 27.6005,16.6049 26.5,15.5C 27.6948,15.6775 28.8615,16.0109 30,16.5C 32.9354,13.764 34.9354,14.4307 36,18.5C 37.113,17.2396 37.2797,16.073 36.5,15C 37.5,14.6667 38.5,14.3333 39.5,14C 39.1667,13.6667 38.8333,13.3333 38.5,13C 39.8932,11.8289 40.7265,10.3289 41,8.5C 42.8402,9.83314 43.3402,9.66647 42.5,8C 43.1667,7.83333 43.8333,7.66667 44.5,7.5C 46.7148,8.5438 49.0481,9.21047 51.5,9.5C 54.9877,8.72118 58.321,7.72118 61.5,6.5 Z"/></g>
<g><path style="opacity:1" fill="#89467d" d="M 76.5,-0.5 C 91.1667,-0.5 105.833,-0.5 120.5,-0.5C 118.031,0.317095 115.365,0.817095 112.5,1C 113.252,1.67076 113.586,2.5041 113.5,3.5C 112.883,3.38929 112.383,3.05596 112,2.5C 111.841,6.82687 109.841,8.49354 106,7.5C 104.691,9.89118 103.691,9.89118 103,7.5C 101.98,8.8905 101.147,10.3905 100.5,12C 96.3629,13.6479 93.0295,16.3145 90.5,20C 92.6785,20.4419 93.3452,21.4419 92.5,23C 87.7519,22.9661 84.0853,24.7994 81.5,28.5C 81.5,28.8333 81.5,29.1667 81.5,29.5C 79.8828,30.038 78.2161,30.3713 76.5,30.5C 75.0813,29.5489 73.4147,29.2155 71.5,29.5C 71.5,30.5 71.5,31.5 71.5,32.5C 70.5,32.5 69.5,32.5 68.5,32.5C 69.5981,31.603 69.5981,30.7697 68.5,30C 69.6226,28.9563 70.9559,28.2896 72.5,28C 70.3513,26.848 68.518,25.348 67,23.5C 63.6858,24.4049 60.5192,25.7382 57.5,27.5C 56.1667,26.5 54.8333,25.5 53.5,24.5C 52.914,24.7093 52.414,25.0426 52,25.5C 50.1746,24.8971 48.3413,24.2304 46.5,23.5C 50.6868,21.2408 55.0201,19.2408 59.5,17.5C 60.8622,14.7644 62.6956,12.4311 65,10.5C 65.3333,13.1667 65.6667,15.8333 66,18.5C 67.2886,15.6492 67.7886,12.6492 67.5,9.5C 69.5914,9.31845 71.5914,9.65178 73.5,10.5C 74.3081,10.1924 74.9747,9.69238 75.5,9C 70.7062,8.65286 66.0395,7.81953 61.5,6.5C 63.5881,4.51869 65.9215,2.68536 68.5,1C 71.3647,0.817095 74.0314,0.317095 76.5,-0.5 Z"/></g>
<g><path style="opacity:1" fill="#7e5288" d="M 120.5,-0.5 C 137.5,-0.5 154.5,-0.5 171.5,-0.5C 172.167,0.833333 173.167,1.83333 174.5,2.5C 174.5,4.83333 174.5,7.16667 174.5,9.5C 172.362,9.70298 170.695,10.703 169.5,12.5C 168.205,10.6721 167.205,8.67214 166.5,6.5C 165.05,7.65541 164.05,9.15541 163.5,11C 164.938,11.2189 166.271,11.7189 167.5,12.5C 169.945,14.5683 172.278,16.7349 174.5,19C 172.423,19.1922 170.423,19.6922 168.5,20.5C 167.637,21.7264 167.637,23.0597 168.5,24.5C 163.298,22.8587 157.964,21.3587 152.5,20C 153.276,17.6872 152.443,15.8539 150,14.5C 148.578,15.2052 147.245,15.5385 146,15.5C 143.272,13.2326 140.272,12.566 137,13.5C 135.871,11.8588 134.371,10.8588 132.5,10.5C 131.058,9.18047 130.392,7.5138 130.5,5.5C 127.71,5.22245 125.21,5.88912 123,7.5C 119.865,6.0137 116.698,4.68036 113.5,3.5C 113.586,2.5041 113.252,1.67076 112.5,1C 115.365,0.817095 118.031,0.317095 120.5,-0.5 Z"/></g>
<g><path style="opacity:1" fill="#88578b" d="M 132.5,10.5 C 134.371,10.8588 135.871,11.8588 137,13.5C 140.272,12.566 143.272,13.2326 146,15.5C 147.245,15.5385 148.578,15.2052 150,14.5C 152.443,15.8539 153.276,17.6872 152.5,20C 157.964,21.3587 163.298,22.8587 168.5,24.5C 167.737,25.2679 166.737,25.7679 165.5,26C 166.416,26.2784 167.082,26.7784 167.5,27.5C 159.493,27.6664 151.493,27.4997 143.5,27C 145.059,26.0201 146.726,25.1867 148.5,24.5C 147.555,22.483 146.055,22.1497 144,23.5C 140.754,23.2924 137.921,22.1257 135.5,20C 125.33,18.121 115.997,19.9544 107.5,25.5C 107.5,26.5 107.5,27.5 107.5,28.5C 99.1667,28.5 90.8333,28.5 82.5,28.5C 88.9874,27.6717 95.654,27.1717 102.5,27C 102.833,26 103.167,25 103.5,24C 106.232,23.587 108.899,22.9203 111.5,22C 114.716,19.2243 118.383,17.2243 122.5,16C 119.5,15.6667 116.5,15.3333 113.5,15C 114.308,14.6924 114.975,14.1924 115.5,13.5C 121.305,13.6738 126.972,12.6738 132.5,10.5 Z"/></g>
<g><path style="opacity:1" fill="#7a5591" d="M 174.5,2.5 C 176.033,3.43089 177.7,4.09756 179.5,4.5C 184.982,1.97521 187.982,3.64188 188.5,9.5C 190.193,10.2283 191.693,11.2283 193,12.5C 194.164,12.8346 195.497,12.8346 197,12.5C 198.619,14.5829 200.619,16.2496 203,17.5C 205.714,16.3339 208.047,17.0005 210,19.5C 210.95,18.9777 211.784,18.311 212.5,17.5C 215.855,18.082 219.188,18.4153 222.5,18.5C 225.056,17.9488 227.389,16.9488 229.5,15.5C 230.107,15.6236 230.44,15.9569 230.5,16.5C 229.396,18.3885 228.063,20.0552 226.5,21.5C 226.167,21.5 225.833,21.5 225.5,21.5C 225.631,20.6236 225.298,19.9569 224.5,19.5C 218.47,22.1424 212.304,24.4757 206,26.5C 202.728,26.0356 199.895,27.2023 197.5,30C 197.833,30.3333 198.167,30.6667 198.5,31C 196.668,31.7485 195.001,32.7485 193.5,34C 193.957,34.414 194.291,34.914 194.5,35.5C 193.585,36.3279 192.919,37.3279 192.5,38.5C 193.807,52.8822 193.807,67.2156 192.5,81.5C 192.819,86.3633 192.486,91.03 191.5,95.5C 191.667,77.8302 191.5,60.1635 191,42.5C 190.584,40.4497 189.417,39.1164 187.5,38.5C 185.355,33.3917 181.355,30.3917 175.5,29.5C 173.22,27.7773 170.553,27.1107 167.5,27.5C 167.082,26.7784 166.416,26.2784 165.5,26C 166.737,25.7679 167.737,25.2679 168.5,24.5C 167.637,23.0597 167.637,21.7264 168.5,20.5C 170.423,19.6922 172.423,19.1922 174.5,19C 172.278,16.7349 169.945,14.5683 167.5,12.5C 166.271,11.7189 164.938,11.2189 163.5,11C 164.05,9.15541 165.05,7.65541 166.5,6.5C 167.205,8.67214 168.205,10.6721 169.5,12.5C 170.695,10.703 172.362,9.70298 174.5,9.5C 174.5,7.16667 174.5,4.83333 174.5,2.5 Z"/></g>
<g><path style="opacity:1" fill="#652a48" d="M 8.5,15.5 C 11.2869,14.5233 14.2869,14.19 17.5,14.5C 18.1667,15.1667 18.8333,15.8333 19.5,16.5C 16.1667,16.5 12.8333,16.5 9.5,16.5C 9.5,15.8333 9.16667,15.5 8.5,15.5 Z"/></g>
<g><path style="opacity:1" fill="#83597c" d="M 17.5,14.5 C 20.5701,14.3677 23.5701,14.701 26.5,15.5C 27.6005,16.6049 28.2671,17.9382 28.5,19.5C 26.7408,18.1286 24.7408,17.1286 22.5,16.5C 21.7025,16.9569 21.3691,17.6236 21.5,18.5C 20.5,18.1667 19.8333,17.5 19.5,16.5C 18.8333,15.8333 18.1667,15.1667 17.5,14.5 Z"/></g>
<g><path style="opacity:1" fill="#4e3d63" d="M 234.5,15.5 C 238.042,15.1872 241.375,15.5206 244.5,16.5C 240.187,15.9905 236.187,16.6571 232.5,18.5C 231.494,18.0623 231.494,17.3957 232.5,16.5C 232.842,15.6618 233.508,15.3284 234.5,15.5 Z"/></g>
<g><path style="opacity:1" fill="#77539e" d="M 244.5,16.5 C 245.167,16.8333 245.833,17.1667 246.5,17.5C 248.03,18.2112 249.363,19.2112 250.5,20.5C 250.5,21.1667 250.5,21.8333 250.5,22.5C 250.5,45.1667 250.5,67.8333 250.5,90.5C 249.175,91.9526 248.342,91.6192 248,89.5C 244.34,89.8981 242.506,91.8981 242.5,95.5C 241.5,95.5 240.5,95.5 239.5,95.5C 239.728,97.3547 239.061,98.1881 237.5,98C 237.957,97.586 238.291,97.086 238.5,96.5C 237.959,94.4648 237.292,92.4648 236.5,90.5C 235.513,93.7683 235.18,97.1016 235.5,100.5C 234.5,100.5 233.5,100.5 232.5,100.5C 232.665,96.8183 232.499,93.1516 232,89.5C 231.828,96.346 231.328,103.013 230.5,109.5C 230.333,81.1647 230.5,52.8314 231,24.5C 231.315,22.4144 231.815,20.4144 232.5,18.5C 236.187,16.6571 240.187,15.9905 244.5,16.5 Z"/></g>
<g><path style="opacity:1" fill="#8e3d7f" d="M 9.5,16.5 C 12.8333,16.5 16.1667,16.5 19.5,16.5C 19.8333,17.5 20.5,18.1667 21.5,18.5C 23.7271,19.4006 24.7271,21.0672 24.5,23.5C 24.5,31.1667 24.5,38.8333 24.5,46.5C 24.5,50.8333 24.5,55.1667 24.5,59.5C 24.5,71.5 24.5,83.5 24.5,95.5C 24.5,108.5 24.5,121.5 24.5,134.5C 24.6664,142.84 24.4997,151.173 24,159.5C 23.34,161.324 22.1733,162.657 20.5,163.5C 19.5084,163.328 18.8417,163.662 18.5,164.5C 14.6924,164.837 11.0257,164.337 7.5,163C 5.99627,161.509 5.16294,159.676 5,157.5C 4.50001,112.501 4.33334,67.5012 4.5,22.5C 5.22648,19.7122 6.89315,17.7122 9.5,16.5 Z"/></g>
<g><path style="opacity:1" fill="#8f6490" d="M 167.5,27.5 C 170.553,27.1107 173.22,27.7773 175.5,29.5C 174.833,29.5 174.167,29.5 173.5,29.5C 151.545,28.5216 129.545,28.1882 107.5,28.5C 107.5,27.5 107.5,26.5 107.5,25.5C 115.997,19.9544 125.33,18.121 135.5,20C 137.921,22.1257 140.754,23.2924 144,23.5C 146.055,22.1497 147.555,22.483 148.5,24.5C 146.726,25.1867 145.059,26.0201 143.5,27C 151.493,27.4997 159.493,27.6664 167.5,27.5 Z"/></g>
<g><path style="opacity:1" fill="#613f64" d="M 81.5,29.5 C 81.5,29.1667 81.5,28.8333 81.5,28.5C 81.8333,28.5 82.1667,28.5 82.5,28.5C 90.8333,28.5 99.1667,28.5 107.5,28.5C 129.545,28.1882 151.545,28.5216 173.5,29.5C 173.833,30.1667 174.167,30.8333 174.5,31.5C 173.833,31.5 173.167,31.5 172.5,31.5C 143.338,30.5019 114.005,30.1686 84.5,30.5C 83.791,29.596 82.791,29.2627 81.5,29.5 Z"/></g>
<g><path style="opacity:1" fill="#676992" d="M 173.5,29.5 C 174.167,29.5 174.833,29.5 175.5,29.5C 181.355,30.3917 185.355,33.3917 187.5,38.5C 187.5,39.1667 187.5,39.8333 187.5,40.5C 186.833,40.1667 186.167,39.8333 185.5,39.5C 182.393,36.1084 178.726,33.4418 174.5,31.5C 174.167,30.8333 173.833,30.1667 173.5,29.5 Z"/></g>
<g><path style="opacity:1" fill="#754992" d="M 225.5,21.5 C 225.833,21.5 226.167,21.5 226.5,21.5C 225.593,27.1064 225.26,32.773 225.5,38.5C 225.5,47.1667 225.5,55.8333 225.5,64.5C 224.751,63.469 224.085,62.3024 223.5,61C 220.379,59.3433 217.213,59.1767 214,60.5C 212.284,60.2517 210.784,59.585 209.5,58.5C 208.534,60.396 208.201,62.396 208.5,64.5C 206.401,63.6303 206.068,62.297 207.5,60.5C 206.493,57.4926 204.493,55.4926 201.5,54.5C 202.95,53.1502 203.617,51.4835 203.5,49.5C 201.856,49.2865 200.356,49.6198 199,50.5C 197.206,48.536 197.706,47.036 200.5,46C 199.066,43.0514 199.232,40.2181 201,37.5C 203.793,39.8861 204.626,39.2195 203.5,35.5C 204.687,34.4805 205.687,33.3139 206.5,32C 212.576,28.6406 218.909,25.1406 225.5,21.5 Z"/></g>
<g><path style="opacity:1" fill="#92488f" d="M 80.5,31.5 C 99.849,31.3788 119.182,31.8788 138.5,33C 133.215,34.026 127.882,34.6927 122.5,35C 130.782,36.1645 139.116,36.8311 147.5,37C 143.29,38.8643 138.956,39.3643 134.5,38.5C 134.703,40.3904 134.037,41.8904 132.5,43C 130.389,43.8447 128.389,44.678 126.5,45.5C 126.167,46.1667 125.833,46.8333 125.5,47.5C 121.167,54.1667 116.833,60.8333 112.5,67.5C 109.999,67.1744 108.832,65.8411 109,63.5C 109.654,64.6956 110.154,64.6956 110.5,63.5C 110,62.5 109.5,61.5 109,60.5C 107.667,62.5 106.333,64.5 105,66.5C 103.878,64.5795 103.044,62.5795 102.5,60.5C 105.462,60.8833 106.462,59.8833 105.5,57.5C 102.348,57.7121 99.0147,57.7121 95.5,57.5C 95.8719,60.0217 95.0386,62.0217 93,63.5C 89.2495,59.9278 87.0829,55.5944 86.5,50.5C 84.396,50.2011 82.396,50.5344 80.5,51.5C 80.7093,52.086 81.0426,52.586 81.5,53C 79.9559,53.2896 78.6226,53.9563 77.5,55C 78.5914,57.0639 78.7581,59.2305 78,61.5C 76.9887,60.6634 75.8221,60.33 74.5,60.5C 73.3065,60.9704 72.6399,61.9704 72.5,63.5C 71.8109,69.1471 71.3109,74.8138 71,80.5C 70.2592,69.8071 69.7592,59.4738 69.5,49.5C 69.3262,47.3066 69.9929,45.4733 71.5,44C 70.6634,42.9887 70.33,41.8221 70.5,40.5C 72.5622,36.1053 75.8955,33.1053 80.5,31.5 Z"/></g>
<g><path style="opacity:1" fill="#8d4f98" d="M 167.5,37.5 C 169.745,38.5909 171.578,40.2575 173,42.5C 172.748,46.2541 172.582,49.9207 172.5,53.5C 173.883,56.0756 174.717,55.7423 175,52.5C 175.831,59.1915 175.664,65.8582 174.5,72.5C 173.064,67.1808 172.064,61.5141 171.5,55.5C 170.5,55.5 169.5,55.5 168.5,55.5C 168.797,59.1638 167.797,62.3304 165.5,65C 166.399,68.0849 166.399,71.2516 165.5,74.5C 165.649,76.3197 166.316,77.8197 167.5,79C 165.075,79.2927 163.242,80.4593 162,82.5C 160.245,88.5681 157.745,94.2348 154.5,99.5C 153.675,100.386 152.675,100.719 151.5,100.5C 151.193,103.28 150.193,105.78 148.5,108C 148.645,108.772 148.978,109.439 149.5,110C 148.167,110 146.833,110 145.5,110C 146.727,111.587 146.394,112.921 144.5,114C 146.019,113.669 147.352,113.836 148.5,114.5C 145.78,115.656 143.114,115.989 140.5,115.5C 138.851,116.648 137.351,117.981 136,119.5C 134.314,116.978 132.981,117.311 132,120.5C 131.768,119.263 131.268,118.263 130.5,117.5C 131.597,114.314 132.93,111.314 134.5,108.5C 135.117,108.611 135.617,108.944 136,109.5C 136.415,107.709 137.415,106.376 139,105.5C 141.814,105.205 144.647,105.205 147.5,105.5C 147.67,104.178 147.337,103.011 146.5,102C 148.25,100.246 148.917,98.0792 148.5,95.5C 149.822,95.67 150.989,95.3366 152,94.5C 152.304,92.5595 153.137,90.8928 154.5,89.5C 151.82,86.853 152.487,85.5196 156.5,85.5C 156.714,83.8561 156.38,82.3561 155.5,81C 156.72,79.4747 157.387,77.6413 157.5,75.5C 156.417,70.8749 155.583,66.2082 155,61.5C 154.167,60.6667 153.333,59.8333 152.5,59C 153.833,58 153.833,57 152.5,56C 155.028,54.6841 155.028,53.5174 152.5,52.5C 152.977,51.5224 153.643,50.6891 154.5,50C 153.601,47.8083 152.601,45.6416 151.5,43.5C 152.025,42.8076 152.692,42.3076 153.5,42C 151.668,41.2515 150.001,40.2515 148.5,39C 154.715,38.6121 161.049,38.1121 167.5,37.5 Z"/></g>
<g><path style="opacity:1" fill="#85325d" d="M 81.5,29.5 C 82.791,29.2627 83.791,29.596 84.5,30.5C 82.901,30.2322 81.5676,30.5655 80.5,31.5C 75.8955,33.1053 72.5622,36.1053 70.5,40.5C 69.8333,40.5 69.5,40.8333 69.5,41.5C 67.7973,42.6602 67.1307,41.9935 67.5,39.5C 70.1395,36.1938 73.1395,33.1938 76.5,30.5C 78.2161,30.3713 79.8828,30.038 81.5,29.5 Z"/></g>
<g><path style="opacity:1" fill="#927f9c" d="M 28.5,19.5 C 28.8333,19.5 29.1667,19.5 29.5,19.5C 29.5,20.8333 29.5,22.1667 29.5,23.5C 29.0721,60.3858 27.4055,60.3858 24.5,23.5C 24.7271,21.0672 23.7271,19.4006 21.5,18.5C 21.3691,17.6236 21.7025,16.9569 22.5,16.5C 24.7408,17.1286 26.7408,18.1286 28.5,19.5 Z"/></g>
<g><path style="opacity:1" fill="#8f3b7a" d="M 76.5,30.5 C 73.1395,33.1938 70.1395,36.1938 67.5,39.5C 65.9392,49.8289 64.6058,60.3289 63.5,71C 65.1272,75.9323 64.4605,80.4323 61.5,84.5C 60.1667,85.8333 58.8333,85.8333 57.5,84.5C 55.5106,86.5308 53.3439,87.1975 51,86.5C 49.3829,87.8513 48.2162,89.518 47.5,91.5C 46.6043,90.4937 45.9377,90.4937 45.5,91.5C 46.1654,93.1012 46.4988,94.6012 46.5,96C 43.2948,96.6488 40.2948,97.8155 37.5,99.5C 36.7492,100.376 36.2492,101.376 36,102.5C 35.6667,101.833 35.3333,101.167 35,100.5C 34.7104,102.044 34.0437,103.377 33,104.5C 31.5761,100.703 31.0761,96.7032 31.5,92.5C 30.9783,77.204 32.1449,62.204 35,47.5C 36.0084,47.0183 37.175,46.8516 38.5,47C 39.6853,45.647 41.0186,44.4803 42.5,43.5C 43.3148,45.2759 44.4815,45.9426 46,45.5C 46.49,44.2068 46.6567,42.8734 46.5,41.5C 51.2382,41.9132 55.7382,41.2465 60,39.5C 61.1074,39.5852 62.1074,39.9186 63,40.5C 63.4702,38.2262 64.4702,36.2262 66,34.5C 67.813,35.6091 68.6463,34.9424 68.5,32.5C 69.5,32.5 70.5,32.5 71.5,32.5C 71.5,31.5 71.5,30.5 71.5,29.5C 73.4147,29.2155 75.0813,29.5489 76.5,30.5 Z"/></g>
<g><path style="opacity:1" fill="#765c9b" d="M 185.5,41.5 C 186.29,42.6085 186.79,43.9419 187,45.5C 187.5,72.8313 187.667,100.165 187.5,127.5C 185.833,127.5 184.167,127.5 182.5,127.5C 178.298,127.817 174.298,127.483 170.5,126.5C 175.833,126.5 181.167,126.5 186.5,126.5C 186.5,116.167 186.5,105.833 186.5,95.5C 186.734,77.4817 186.4,59.4817 185.5,41.5 Z"/></g>
<g><path style="opacity:1" fill="#b93f68" d="M 2.5,21.5 C 2.16792,66.6698 2.50126,111.67 3.5,156.5C 3.5,157.167 3.5,157.833 3.5,158.5C 2.88258,158.389 2.38258,158.056 2,157.5C 1.50065,152.177 1.33398,146.844 1.5,141.5C 1.16808,101.33 1.50142,61.3299 2.5,21.5 Z"/></g>
<g><path style="opacity:1" fill="#8f4f95" d="M 80.5,31.5 C 81.5676,30.5655 82.901,30.2322 84.5,30.5C 114.005,30.1686 143.338,30.5019 172.5,31.5C 168.833,31.5 165.167,31.5 161.5,31.5C 158.753,32.9657 155.753,33.7991 152.5,34C 157.581,35.0351 162.581,36.2017 167.5,37.5C 161.049,38.1121 154.715,38.6121 148.5,39C 150.001,40.2515 151.668,41.2515 153.5,42C 152.692,42.3076 152.025,42.8076 151.5,43.5C 152.601,45.6416 153.601,47.8083 154.5,50C 153.643,50.6891 152.977,51.5224 152.5,52.5C 155.028,53.5174 155.028,54.6841 152.5,56C 153.833,57 153.833,58 152.5,59C 153.333,59.8333 154.167,60.6667 155,61.5C 155.583,66.2082 156.417,70.8749 157.5,75.5C 157.387,77.6413 156.72,79.4747 155.5,81C 156.38,82.3561 156.714,83.8561 156.5,85.5C 152.487,85.5196 151.82,86.853 154.5,89.5C 153.137,90.8928 152.304,92.5595 152,94.5C 150.989,95.3366 149.822,95.67 148.5,95.5C 148.917,98.0792 148.25,100.246 146.5,102C 147.337,103.011 147.67,104.178 147.5,105.5C 144.647,105.205 141.814,105.205 139,105.5C 137.415,106.376 136.415,107.709 136,109.5C 135.617,108.944 135.117,108.611 134.5,108.5C 134.5,108.167 134.5,107.833 134.5,107.5C 135.11,106.609 135.443,105.609 135.5,104.5C 137.592,101.912 138.925,98.9116 139.5,95.5C 141.454,91.5919 143.454,87.5919 145.5,83.5C 145.167,83.1667 144.833,82.8333 144.5,82.5C 139.926,85.2758 135.593,88.2758 131.5,91.5C 130.183,91.821 128.849,92.1543 127.5,92.5C 126,92.5472 125,91.8805 124.5,90.5C 126.423,89.6922 128.423,89.1922 130.5,89C 131.381,88.2917 132.047,87.4584 132.5,86.5C 133.833,85.1667 135.167,83.8333 136.5,82.5C 138.942,80.7742 141.609,79.2742 144.5,78C 146.466,76.6534 146.799,75.1534 145.5,73.5C 142.069,67.6266 138.402,61.9599 134.5,56.5C 133,52.827 131,49.4937 128.5,46.5C 128.167,46.5 127.833,46.5 127.5,46.5C 127.5,45.8333 127.167,45.5 126.5,45.5C 128.389,44.678 130.389,43.8447 132.5,43C 134.037,41.8904 134.703,40.3904 134.5,38.5C 138.956,39.3643 143.29,38.8643 147.5,37C 139.116,36.8311 130.782,36.1645 122.5,35C 127.882,34.6927 133.215,34.026 138.5,33C 119.182,31.8788 99.849,31.3788 80.5,31.5 Z"/></g>
<g><path style="opacity:1" fill="#95468d" d="M 112.5,67.5 C 112.107,69.2838 111.441,70.9505 110.5,72.5C 107.952,74.2956 107.952,75.9622 110.5,77.5C 111.436,78.9744 112.77,79.9744 114.5,80.5C 114.027,81.9063 113.027,82.573 111.5,82.5C 110.503,82.4701 109.836,82.9701 109.5,84C 112.286,89.5716 114.952,95.0716 117.5,100.5C 118.312,102.945 119.312,105.278 120.5,107.5C 121.11,109.434 122.11,111.101 123.5,112.5C 123.629,114.216 123.962,115.883 124.5,117.5C 122.461,116.089 121.461,114.089 121.5,111.5C 120.448,111.649 119.448,111.483 118.5,111C 120.251,107.057 118.918,104.723 114.5,104C 114.833,103.667 115.167,103.333 115.5,103C 114.552,102.517 113.552,102.351 112.5,102.5C 112.477,100.073 111.977,97.74 111,95.5C 109.212,97.0044 108.712,98.6711 109.5,100.5C 105.844,101.688 102.178,101.688 98.5,100.5C 93.3963,102.091 91.563,105.424 93,110.5C 94.7562,111.548 96.5896,111.548 98.5,110.5C 102.777,112.914 102.444,114.414 97.5,115C 96.8742,115.75 96.3742,116.584 96,117.5C 94.3333,117.167 92.6667,116.833 91,116.5C 87.2011,121.011 88.0345,123.511 93.5,124C 91.1484,124.24 89.1484,125.073 87.5,126.5C 86.8333,126.5 86.1667,126.5 85.5,126.5C 80.0784,126.617 74.5784,126.284 69,125.5C 68.3333,117.5 68.3333,109.5 69,101.5C 70.0173,99.6241 70.8506,97.6241 71.5,95.5C 72.1667,96.5 72.8333,97.5 73.5,98.5C 75.0687,92.6269 75.902,86.6269 76,80.5C 76.4935,82.1341 76.6602,83.8008 76.5,85.5C 77.5,85.5 78.5,85.5 79.5,85.5C 79.0268,82.1671 80.3601,80.0004 83.5,79C 83.2734,76.631 83.1067,74.131 83,71.5C 81.9887,70.6634 80.8221,70.33 79.5,70.5C 77.8087,67.1526 76.1421,63.8193 74.5,60.5C 75.8221,60.33 76.9887,60.6634 78,61.5C 78.7581,59.2305 78.5914,57.0639 77.5,55C 78.6226,53.9563 79.9559,53.2896 81.5,53C 81.0426,52.586 80.7093,52.086 80.5,51.5C 82.396,50.5344 84.396,50.2011 86.5,50.5C 87.0829,55.5944 89.2495,59.9278 93,63.5C 95.0386,62.0217 95.8719,60.0217 95.5,57.5C 99.0147,57.7121 102.348,57.7121 105.5,57.5C 106.462,59.8833 105.462,60.8833 102.5,60.5C 103.044,62.5795 103.878,64.5795 105,66.5C 106.333,64.5 107.667,62.5 109,60.5C 109.5,61.5 110,62.5 110.5,63.5C 110.154,64.6956 109.654,64.6956 109,63.5C 108.832,65.8411 109.999,67.1744 112.5,67.5 Z"/></g>
<g><path style="opacity:1" fill="#925394" d="M 230.5,16.5 C 231.167,16.5 231.833,16.5 232.5,16.5C 231.494,17.3957 231.494,18.0623 232.5,18.5C 231.815,20.4144 231.315,22.4144 231,24.5C 230.5,52.8314 230.333,81.1647 230.5,109.5C 230.5,110.167 230.5,110.833 230.5,111.5C 229.833,109.167 229.167,106.833 228.5,104.5C 228.813,83.1445 228.313,61.8112 227,40.5C 226.722,39.5842 226.222,38.9175 225.5,38.5C 225.26,32.773 225.593,27.1064 226.5,21.5C 228.063,20.0552 229.396,18.3885 230.5,16.5 Z"/></g>
<g><path style="opacity:1" fill="#814529" d="M 126.5,45.5 C 127.167,45.5 127.5,45.8333 127.5,46.5C 127.5,53.1667 127.5,59.8333 127.5,66.5C 127.167,66.5 126.833,66.5 126.5,66.5C 126.823,59.9779 126.49,53.6446 125.5,47.5C 125.833,46.8333 126.167,46.1667 126.5,45.5 Z"/></g>
<g><path style="opacity:1" fill="#956c92" d="M 24.5,23.5 C 27.4055,60.3858 29.0721,60.3858 29.5,23.5C 30.5006,38.3838 30.0006,53.3838 28,68.5C 26.7867,61.0308 25.62,53.6975 24.5,46.5C 24.5,38.8333 24.5,31.1667 24.5,23.5 Z"/></g>
<g><path style="opacity:1" fill="#f5af6b" d="M 125.5,47.5 C 126.49,53.6446 126.823,59.9779 126.5,66.5C 126.5,67.1667 126.167,67.5 125.5,67.5C 125.666,61.8236 125.499,56.1569 125,50.5C 123.844,54.1228 122.844,57.7894 122,61.5C 121.259,62.6405 120.425,62.6405 119.5,61.5C 118.719,62.7287 118.219,64.062 118,65.5C 116.869,64.3961 116.035,64.7295 115.5,66.5C 117.411,67.4767 119.411,68.1433 121.5,68.5C 118.134,70.5133 114.801,72.5133 111.5,74.5C 110.662,74.1583 110.328,73.4916 110.5,72.5C 111.441,70.9505 112.107,69.2838 112.5,67.5C 116.833,60.8333 121.167,54.1667 125.5,47.5 Z"/></g>
<g><path style="opacity:1" fill="#8b529a" d="M 161.5,31.5 C 166.679,32.3925 172.012,33.2259 177.5,34C 176.833,34.3333 176.167,34.6667 175.5,35C 177,37.1667 178.833,39 181,40.5C 181.669,37.9722 182.502,37.9722 183.5,40.5C 182.178,42.5565 182.511,44.3899 184.5,46C 183.576,47.8114 182.743,47.6447 182,45.5C 181.48,47.2889 181.813,48.9556 183,50.5C 183.333,50.1667 183.667,49.8333 184,49.5C 184.824,52.8823 184.657,56.2156 183.5,59.5C 182.895,56.6957 182.062,54.029 181,51.5C 180.754,54.8897 180.254,58.223 179.5,61.5C 179.44,65.2503 179.773,69.417 180.5,74C 180.397,78.2476 179.897,78.4142 179,74.5C 178.654,76.2182 178.154,77.8849 177.5,79.5C 178.376,80.2508 179.376,80.7508 180.5,81C 179.167,82.6667 177.833,84.3333 176.5,86C 177.38,87.3561 177.714,88.8561 177.5,90.5C 176.167,90.5 174.833,90.5 173.5,90.5C 171.704,93.8959 170.704,97.5626 170.5,101.5C 167.509,101.33 165.509,102.663 164.5,105.5C 163.205,106.098 161.872,106.598 160.5,107C 161.34,108.666 160.84,108.833 159,107.5C 158.176,108.808 157.676,110.308 157.5,112C 154.688,113.549 151.688,114.382 148.5,114.5C 147.352,113.836 146.019,113.669 144.5,114C 146.394,112.921 146.727,111.587 145.5,110C 146.833,110 148.167,110 149.5,110C 148.978,109.439 148.645,108.772 148.5,108C 150.193,105.78 151.193,103.28 151.5,100.5C 152.675,100.719 153.675,100.386 154.5,99.5C 157.745,94.2348 160.245,88.5681 162,82.5C 163.242,80.4593 165.075,79.2927 167.5,79C 166.316,77.8197 165.649,76.3197 165.5,74.5C 166.399,71.2516 166.399,68.0849 165.5,65C 167.797,62.3304 168.797,59.1638 168.5,55.5C 169.5,55.5 170.5,55.5 171.5,55.5C 172.064,61.5141 173.064,67.1808 174.5,72.5C 175.664,65.8582 175.831,59.1915 175,52.5C 174.717,55.7423 173.883,56.0756 172.5,53.5C 172.582,49.9207 172.748,46.2541 173,42.5C 171.578,40.2575 169.745,38.5909 167.5,37.5C 162.581,36.2017 157.581,35.0351 152.5,34C 155.753,33.7991 158.753,32.9657 161.5,31.5 Z"/></g>
<g><path style="opacity:1" fill="#744c98" d="M 225.5,64.5 C 225.5,65.8333 225.5,67.1667 225.5,68.5C 224.738,74.843 224.071,81.343 223.5,88C 223.031,89.8869 222.031,91.3869 220.5,92.5C 221.559,94.9993 220.559,96.3326 217.5,96.5C 214.898,96.5328 212.898,95.5328 211.5,93.5C 211.423,92.2502 210.756,91.4169 209.5,91C 210.448,90.5172 211.448,90.3505 212.5,90.5C 212.67,89.1779 212.337,88.0113 211.5,87C 212.167,86.6667 212.833,86.3333 213.5,86C 212.359,85.2588 212.359,84.4255 213.5,83.5C 213.154,82.3044 212.654,82.3044 212,83.5C 211.517,82.552 211.351,81.552 211.5,80.5C 210.5,80.5 209.5,80.5 208.5,80.5C 208.5,79.5 208.5,78.5 208.5,77.5C 206.897,77.6882 205.563,77.1882 204.5,76C 206.167,74.3333 207.833,72.6667 209.5,71C 208.577,68.9592 208.244,66.7925 208.5,64.5C 208.201,62.396 208.534,60.396 209.5,58.5C 210.784,59.585 212.284,60.2517 214,60.5C 217.213,59.1767 220.379,59.3433 223.5,61C 224.085,62.3024 224.751,63.469 225.5,64.5 Z"/></g>
<g><path style="opacity:1" fill="#944586" d="M 70.5,40.5 C 70.33,41.8221 70.6634,42.9887 71.5,44C 69.9929,45.4733 69.3262,47.3066 69.5,49.5C 69.7592,59.4738 70.2592,69.8071 71,80.5C 71.3109,74.8138 71.8109,69.1471 72.5,63.5C 72.6399,61.9704 73.3065,60.9704 74.5,60.5C 76.1421,63.8193 77.8087,67.1526 79.5,70.5C 80.8221,70.33 81.9887,70.6634 83,71.5C 83.1067,74.131 83.2734,76.631 83.5,79C 80.3601,80.0004 79.0268,82.1671 79.5,85.5C 78.5,85.5 77.5,85.5 76.5,85.5C 76.6602,83.8008 76.4935,82.1341 76,80.5C 75.902,86.6269 75.0687,92.6269 73.5,98.5C 72.8333,97.5 72.1667,96.5 71.5,95.5C 70.8506,97.6241 70.0173,99.6241 69,101.5C 68.3333,109.5 68.3333,117.5 69,125.5C 74.5784,126.284 80.0784,126.617 85.5,126.5C 85.5,126.833 85.5,127.167 85.5,127.5C 79.5,127.5 73.5,127.5 67.5,127.5C 67.5,127.167 67.5,126.833 67.5,126.5C 67.3334,99.8313 67.5,73.1646 68,46.5C 68.6077,44.8455 69.1077,43.1789 69.5,41.5C 69.5,40.8333 69.8333,40.5 70.5,40.5 Z"/></g>
<g><path style="opacity:1" fill="#86529c" d="M 161.5,31.5 C 165.167,31.5 168.833,31.5 172.5,31.5C 173.167,31.5 173.833,31.5 174.5,31.5C 178.726,33.4418 182.393,36.1084 185.5,39.5C 185.5,40.1667 185.5,40.8333 185.5,41.5C 186.4,59.4817 186.734,77.4817 186.5,95.5C 185.655,99.5211 184.488,103.521 183,107.5C 182.808,105.423 182.308,103.423 181.5,101.5C 180.322,104.391 179.655,107.391 179.5,110.5C 177.345,110.372 175.345,110.872 173.5,112C 172.594,115.184 170.761,116.017 168,114.5C 164.911,115.051 162.078,116.217 159.5,118C 160.167,118.333 160.833,118.667 161.5,119C 159.888,119.72 158.388,119.554 157,118.5C 153.434,120.245 149.601,121.411 145.5,122C 147.577,122.192 149.577,122.692 151.5,123.5C 151.291,124.086 150.957,124.586 150.5,125C 145.981,125.175 141.647,125.675 137.5,126.5C 131.167,126.5 124.833,126.5 118.5,126.5C 118.951,124.25 120.285,122.916 122.5,122.5C 129.054,126.24 131.721,124.573 130.5,117.5C 131.268,118.263 131.768,119.263 132,120.5C 132.981,117.311 134.314,116.978 136,119.5C 137.351,117.981 138.851,116.648 140.5,115.5C 143.114,115.989 145.78,115.656 148.5,114.5C 151.688,114.382 154.688,113.549 157.5,112C 157.676,110.308 158.176,108.808 159,107.5C 160.84,108.833 161.34,108.666 160.5,107C 161.872,106.598 163.205,106.098 164.5,105.5C 165.509,102.663 167.509,101.33 170.5,101.5C 170.704,97.5626 171.704,93.8959 173.5,90.5C 174.833,90.5 176.167,90.5 177.5,90.5C 177.714,88.8561 177.38,87.3561 176.5,86C 177.833,84.3333 179.167,82.6667 180.5,81C 179.376,80.7508 178.376,80.2508 177.5,79.5C 178.154,77.8849 178.654,76.2182 179,74.5C 179.897,78.4142 180.397,78.2476 180.5,74C 179.773,69.417 179.44,65.2503 179.5,61.5C 180.254,58.223 180.754,54.8897 181,51.5C 182.062,54.029 182.895,56.6957 183.5,59.5C 184.657,56.2156 184.824,52.8823 184,49.5C 183.667,49.8333 183.333,50.1667 183,50.5C 181.813,48.9556 181.48,47.2889 182,45.5C 182.743,47.6447 183.576,47.8114 184.5,46C 182.511,44.3899 182.178,42.5565 183.5,40.5C 182.502,37.9722 181.669,37.9722 181,40.5C 178.833,39 177,37.1667 175.5,35C 176.167,34.6667 176.833,34.3333 177.5,34C 172.012,33.2259 166.679,32.3925 161.5,31.5 Z"/></g>
<g><path style="opacity:1" fill="#a83a6c" d="M 5.5,16.5 C 4.07501,17.922 3.07501,19.5887 2.5,21.5C 1.50142,61.3299 1.16808,101.33 1.5,141.5C 0.335387,101.002 0.16872,60.3354 1,19.5C 2.12901,17.8588 3.62901,16.8588 5.5,16.5 Z"/></g>
<g><path style="opacity:1" fill="#fcb865" d="M 125.5,67.5 C 124.292,68.2341 122.959,68.5674 121.5,68.5C 119.411,68.1433 117.411,67.4767 115.5,66.5C 116.035,64.7295 116.869,64.3961 118,65.5C 118.219,64.062 118.719,62.7287 119.5,61.5C 120.425,62.6405 121.259,62.6405 122,61.5C 122.844,57.7894 123.844,54.1228 125,50.5C 125.499,56.1569 125.666,61.8236 125.5,67.5 Z"/></g>
<g><path style="opacity:1" fill="#8068a1" d="M 187.5,38.5 C 189.417,39.1164 190.584,40.4497 191,42.5C 191.5,60.1635 191.667,77.8302 191.5,95.5C 191.439,99.0487 192.273,102.382 194,105.5C 196.766,106.732 199.599,107.732 202.5,108.5C 202.843,110.483 202.176,111.817 200.5,112.5C 195.712,112.871 192.545,110.871 191,106.5C 190.51,107.793 190.343,109.127 190.5,110.5C 189.833,88.8333 189.167,67.1667 188.5,45.5C 188.371,43.7839 188.038,42.1172 187.5,40.5C 187.5,39.8333 187.5,39.1667 187.5,38.5 Z"/></g>
<g><path style="opacity:1" fill="#794f96" d="M 225.5,21.5 C 218.909,25.1406 212.576,28.6406 206.5,32C 205.687,33.3139 204.687,34.4805 203.5,35.5C 204.626,39.2195 203.793,39.8861 201,37.5C 199.232,40.2181 199.066,43.0514 200.5,46C 197.706,47.036 197.206,48.536 199,50.5C 200.356,49.6198 201.856,49.2865 203.5,49.5C 203.617,51.4835 202.95,53.1502 201.5,54.5C 204.493,55.4926 206.493,57.4926 207.5,60.5C 206.068,62.297 206.401,63.6303 208.5,64.5C 208.244,66.7925 208.577,68.9592 209.5,71C 207.833,72.6667 206.167,74.3333 204.5,76C 205.563,77.1882 206.897,77.6882 208.5,77.5C 208.5,78.5 208.5,79.5 208.5,80.5C 209.5,80.5 210.5,80.5 211.5,80.5C 211.351,81.552 211.517,82.552 212,83.5C 212.654,82.3044 213.154,82.3044 213.5,83.5C 212.359,84.4255 212.359,85.2588 213.5,86C 212.833,86.3333 212.167,86.6667 211.5,87C 212.337,88.0113 212.67,89.1779 212.5,90.5C 211.448,90.3505 210.448,90.5172 209.5,91C 210.756,91.4169 211.423,92.2502 211.5,93.5C 210.5,93.5 209.5,93.5 208.5,93.5C 208.36,95.1238 209.027,96.2904 210.5,97C 209.809,98.0674 209.309,99.2341 209,100.5C 207.855,100.381 206.688,100.048 205.5,99.5C 204.952,96.9162 203.285,95.9162 200.5,96.5C 200.5,95.5 200.5,94.5 200.5,93.5C 198.278,93.822 196.444,93.1554 195,91.5C 194.689,87.9101 193.856,84.5767 192.5,81.5C 193.807,67.2156 193.807,52.8822 192.5,38.5C 192.919,37.3279 193.585,36.3279 194.5,35.5C 194.291,34.914 193.957,34.414 193.5,34C 195.001,32.7485 196.668,31.7485 198.5,31C 198.167,30.6667 197.833,30.3333 197.5,30C 199.895,27.2023 202.728,26.0356 206,26.5C 212.304,24.4757 218.47,22.1424 224.5,19.5C 225.298,19.9569 225.631,20.6236 225.5,21.5 Z"/></g>
<g><path style="opacity:1" fill="#aeecee" d="M 128.5,46.5 C 131,49.4937 133,52.827 134.5,56.5C 134.5,58.5 134.5,60.5 134.5,62.5C 135.675,62.281 136.675,62.6143 137.5,63.5C 136.652,65.4086 136.318,67.4086 136.5,69.5C 135.5,69.5 134.5,69.5 133.5,69.5C 131.97,68.9332 130.47,68.2666 129,67.5C 128.5,60.5079 128.334,53.5079 128.5,46.5 Z"/></g>
<g><path style="opacity:1" fill="#8e95c6" d="M 185.5,39.5 C 186.167,39.8333 186.833,40.1667 187.5,40.5C 188.038,42.1172 188.371,43.7839 188.5,45.5C 188.5,71.8333 188.5,98.1667 188.5,124.5C 188.737,125.791 188.404,126.791 187.5,127.5C 187.667,100.165 187.5,72.8313 187,45.5C 186.79,43.9419 186.29,42.6085 185.5,41.5C 185.5,40.8333 185.5,40.1667 185.5,39.5 Z"/></g>
<g><path style="opacity:1" fill="#bfe8ee" d="M 134.5,56.5 C 138.402,61.9599 142.069,67.6266 145.5,73.5C 145.631,74.3764 145.298,75.0431 144.5,75.5C 142.261,74.2122 139.928,73.2122 137.5,72.5C 135.924,71.8571 134.59,70.8571 133.5,69.5C 134.5,69.5 135.5,69.5 136.5,69.5C 136.318,67.4086 136.652,65.4086 137.5,63.5C 136.675,62.6143 135.675,62.281 134.5,62.5C 134.5,60.5 134.5,58.5 134.5,56.5 Z"/></g>
<g><path style="opacity:1" fill="#7d8a98" d="M 127.5,46.5 C 127.833,46.5 128.167,46.5 128.5,46.5C 128.334,53.5079 128.5,60.5079 129,67.5C 130.47,68.2666 131.97,68.9332 133.5,69.5C 134.59,70.8571 135.924,71.8571 137.5,72.5C 133.564,72.5245 130.23,71.1912 127.5,68.5C 127.5,67.8333 127.5,67.1667 127.5,66.5C 127.5,59.8333 127.5,53.1667 127.5,46.5 Z"/></g>
<g><path style="opacity:1" fill="#ca7365" d="M 126.5,66.5 C 126.833,66.5 127.167,66.5 127.5,66.5C 127.5,67.1667 127.5,67.8333 127.5,68.5C 126.833,68.5 126.5,68.8333 126.5,69.5C 121.524,71.381 116.524,73.0477 111.5,74.5C 114.801,72.5133 118.134,70.5133 121.5,68.5C 122.959,68.5674 124.292,68.2341 125.5,67.5C 126.167,67.5 126.5,67.1667 126.5,66.5 Z"/></g>
<g><path style="opacity:1" fill="#c6526a" d="M 126.5,69.5 C 126.5,70.8333 126.5,72.1667 126.5,73.5C 122.128,78.387 116.794,79.7203 110.5,77.5C 107.952,75.9622 107.952,74.2956 110.5,72.5C 110.328,73.4916 110.662,74.1583 111.5,74.5C 116.524,73.0477 121.524,71.381 126.5,69.5 Z"/></g>
<g><path style="opacity:1" fill="#b086a9" d="M 127.5,68.5 C 130.23,71.1912 133.564,72.5245 137.5,72.5C 139.928,73.2122 142.261,74.2122 144.5,75.5C 145.298,75.0431 145.631,74.3764 145.5,73.5C 146.799,75.1534 146.466,76.6534 144.5,78C 141.609,79.2742 138.942,80.7742 136.5,82.5C 136.167,82.5 135.833,82.5 135.5,82.5C 135.33,81.1779 135.663,80.0113 136.5,79C 134.158,77.8289 131.824,76.6622 129.5,75.5C 127.829,73.4902 127.162,71.1569 127.5,68.5 Z"/></g>
<g><path style="opacity:1" fill="#db6c8d" d="M 126.5,73.5 C 126.5,76.8333 126.5,80.1667 126.5,83.5C 124.194,83.0074 121.861,82.6741 119.5,82.5C 117.716,82.1075 116.05,81.4408 114.5,80.5C 112.77,79.9744 111.436,78.9744 110.5,77.5C 116.794,79.7203 122.128,78.387 126.5,73.5 Z"/></g>
<g><path style="opacity:1" fill="#7f5e9e" d="M 225.5,38.5 C 226.222,38.9175 226.722,39.5842 227,40.5C 228.313,61.8112 228.813,83.1445 228.5,104.5C 228.5,107.833 228.5,111.167 228.5,114.5C 227.442,115.6 226.608,116.934 226,118.5C 225.536,117.906 225.369,117.239 225.5,116.5C 225.5,100.5 225.5,84.5 225.5,68.5C 225.5,67.1667 225.5,65.8333 225.5,64.5C 225.5,55.8333 225.5,47.1667 225.5,38.5 Z"/></g>
<g><path style="opacity:1" fill="#dd809f" d="M 127.5,68.5 C 127.162,71.1569 127.829,73.4902 129.5,75.5C 131.824,76.6622 134.158,77.8289 136.5,79C 135.663,80.0113 135.33,81.1779 135.5,82.5C 132.343,83.1275 129.343,84.1275 126.5,85.5C 124.299,84.4336 121.965,83.767 119.5,83.5C 119.5,83.1667 119.5,82.8333 119.5,82.5C 121.861,82.6741 124.194,83.0074 126.5,83.5C 126.5,80.1667 126.5,76.8333 126.5,73.5C 126.5,72.1667 126.5,70.8333 126.5,69.5C 126.5,68.8333 126.833,68.5 127.5,68.5 Z"/></g>
<g><path style="opacity:1" fill="#9a5a88" d="M 29.5,19.5 C 30.1577,20.3984 30.8243,21.3984 31.5,22.5C 31.8333,25.5 32.1667,28.5 32.5,31.5C 29.9835,58.4392 28.9835,85.4392 29.5,112.5C 29.5,116.5 29.5,120.5 29.5,124.5C 29.5,125.167 29.5,125.833 29.5,126.5C 27.7499,123.645 26.9165,120.311 27,116.5C 26.5002,107.84 26.3336,99.1731 26.5,90.5C 26.6664,82.16 26.4997,73.8267 26,65.5C 25.8091,63.2922 25.3091,61.2922 24.5,59.5C 24.5,55.1667 24.5,50.8333 24.5,46.5C 25.62,53.6975 26.7867,61.0308 28,68.5C 30.0006,53.3838 30.5006,38.3838 29.5,23.5C 29.5,22.1667 29.5,20.8333 29.5,19.5 Z"/></g>
<g><path style="opacity:1" fill="#993c79" d="M 67.5,39.5 C 67.1307,41.9935 67.7973,42.6602 69.5,41.5C 69.1077,43.1789 68.6077,44.8455 68,46.5C 67.5,73.1646 67.3334,99.8313 67.5,126.5C 66.8333,126.5 66.5,126.167 66.5,125.5C 66.693,121.434 66.3597,117.434 65.5,113.5C 65.5,110.833 65.5,108.167 65.5,105.5C 65.6076,101.753 65.1076,98.0863 64,94.5C 59.5819,96.9144 55.7485,100.081 52.5,104C 44.0784,107.469 37.245,112.969 32,120.5C 31.6667,119.833 31.3333,119.167 31,118.5C 30.5045,120.473 30.3379,122.473 30.5,124.5C 30.1667,124.5 29.8333,124.5 29.5,124.5C 29.5,120.5 29.5,116.5 29.5,112.5C 30.1667,105.833 30.8333,99.1667 31.5,92.5C 31.0761,96.7032 31.5761,100.703 33,104.5C 34.0437,103.377 34.7104,102.044 35,100.5C 35.3333,101.167 35.6667,101.833 36,102.5C 36.2492,101.376 36.7492,100.376 37.5,99.5C 40.2948,97.8155 43.2948,96.6488 46.5,96C 46.4988,94.6012 46.1654,93.1012 45.5,91.5C 45.9377,90.4937 46.6043,90.4937 47.5,91.5C 48.2162,89.518 49.3829,87.8513 51,86.5C 53.3439,87.1975 55.5106,86.5308 57.5,84.5C 58.8333,85.8333 60.1667,85.8333 61.5,84.5C 64.4605,80.4323 65.1272,75.9323 63.5,71C 64.6058,60.3289 65.9392,49.8289 67.5,39.5 Z"/></g>
<g><path style="opacity:1" fill="#a25288" d="M 24.5,59.5 C 25.3091,61.2922 25.8091,63.2922 26,65.5C 26.4997,73.8267 26.6664,82.16 26.5,90.5C 25.8333,92.1667 25.1667,93.8333 24.5,95.5C 24.5,83.5 24.5,71.5 24.5,59.5 Z"/></g>
<g><path style="opacity:1" fill="#675f75" d="M 119.5,83.5 C 121.965,83.767 124.299,84.4336 126.5,85.5C 127.11,86.391 127.443,87.391 127.5,88.5C 124.296,87.6167 121.629,85.9501 119.5,83.5 Z"/></g>
<g><path style="opacity:1" fill="#824156" d="M 135.5,82.5 C 135.833,82.5 136.167,82.5 136.5,82.5C 135.167,83.8333 133.833,85.1667 132.5,86.5C 130.833,87.1667 129.167,87.8333 127.5,88.5C 127.443,87.391 127.11,86.391 126.5,85.5C 129.343,84.1275 132.343,83.1275 135.5,82.5 Z"/></g>
<g><path style="opacity:1" fill="#b83852" d="M 5.5,15.5 C 6.5,15.5 7.5,15.5 8.5,15.5C 9.16667,15.5 9.5,15.8333 9.5,16.5C 6.89315,17.7122 5.22648,19.7122 4.5,22.5C 3.50126,66.9969 3.16793,111.664 3.5,156.5C 2.50126,111.67 2.16792,66.6698 2.5,21.5C 3.07501,19.5887 4.07501,17.922 5.5,16.5C 5.5,16.1667 5.5,15.8333 5.5,15.5 Z"/></g>
<g><path style="opacity:1" fill="#945085" d="M 114.5,80.5 C 116.05,81.4408 117.716,82.1075 119.5,82.5C 119.5,82.8333 119.5,83.1667 119.5,83.5C 121.629,85.9501 124.296,87.6167 127.5,88.5C 129.167,87.8333 130.833,87.1667 132.5,86.5C 132.047,87.4584 131.381,88.2917 130.5,89C 128.423,89.1922 126.423,89.6922 124.5,90.5C 125,91.8805 126,92.5472 127.5,92.5C 128.849,92.1543 130.183,91.821 131.5,91.5C 131.167,92.5 130.5,93.1667 129.5,93.5C 129.167,93.5 128.833,93.5 128.5,93.5C 128.167,93.5 127.833,93.5 127.5,93.5C 127.167,93.5 126.833,93.5 126.5,93.5C 120.565,91.0399 115.565,87.3732 111.5,82.5C 113.027,82.573 114.027,81.9063 114.5,80.5 Z"/></g>
<g><path style="opacity:1" fill="#7cb1c3" d="M 139.5,95.5 C 137.4,95.5228 135.567,94.8561 134,93.5C 132.715,93.9504 131.548,94.6171 130.5,95.5C 129.702,95.0431 129.369,94.3764 129.5,93.5C 130.5,93.1667 131.167,92.5 131.5,91.5C 135.593,88.2758 139.926,85.2758 144.5,82.5C 144.833,82.8333 145.167,83.1667 145.5,83.5C 143.454,87.5919 141.454,91.5919 139.5,95.5 Z"/></g>
<g><path style="opacity:1" fill="#845ca0" d="M 192.5,81.5 C 193.856,84.5767 194.689,87.9101 195,91.5C 196.444,93.1554 198.278,93.822 200.5,93.5C 200.5,94.5 200.5,95.5 200.5,96.5C 203.285,95.9162 204.952,96.9162 205.5,99.5C 204.316,100.688 204.316,101.855 205.5,103C 204.552,103.483 203.552,103.649 202.5,103.5C 202.263,104.791 202.596,105.791 203.5,106.5C 203.167,107.167 202.833,107.833 202.5,108.5C 199.599,107.732 196.766,106.732 194,105.5C 192.273,102.382 191.439,99.0487 191.5,95.5C 192.486,91.03 192.819,86.3633 192.5,81.5 Z"/></g>
<g><path style="opacity:1" fill="#6583ad" d="M 254.5,23.5 C 254.832,67.6698 254.499,111.67 253.5,155.5C 253.667,110.832 253.5,66.1654 253,21.5C 252.399,19.6412 251.566,19.3079 250.5,20.5C 249.363,19.2112 248.03,18.2112 246.5,17.5C 246.791,16.3509 247.624,15.6842 249,15.5C 253.028,16.5324 254.862,19.1991 254.5,23.5 Z"/></g>
<g><path style="opacity:1" fill="#6f56a5" d="M 250.5,90.5 C 250.5,99.1667 250.5,107.833 250.5,116.5C 249.681,119.305 249.181,122.305 249,125.5C 248.667,124.833 248.333,124.167 248,123.5C 246.136,124.964 243.969,125.964 241.5,126.5C 237.435,133.483 236.102,132.983 237.5,125C 235.955,123.631 234.289,123.798 232.5,125.5C 232.846,126.696 233.346,126.696 234,125.5C 234.808,127.579 234.641,129.579 233.5,131.5C 232.719,130.271 232.219,128.938 232,127.5C 231.79,129.058 231.29,130.391 230.5,131.5C 230.5,124.833 230.5,118.167 230.5,111.5C 230.5,110.833 230.5,110.167 230.5,109.5C 231.328,103.013 231.828,96.346 232,89.5C 232.499,93.1516 232.665,96.8183 232.5,100.5C 233.5,100.5 234.5,100.5 235.5,100.5C 235.18,97.1016 235.513,93.7683 236.5,90.5C 237.292,92.4648 237.959,94.4648 238.5,96.5C 238.291,97.086 237.957,97.586 237.5,98C 239.061,98.1881 239.728,97.3547 239.5,95.5C 240.5,95.5 241.5,95.5 242.5,95.5C 242.506,91.8981 244.34,89.8981 248,89.5C 248.342,91.6192 249.175,91.9526 250.5,90.5 Z"/></g>
<g><path style="opacity:1" fill="#d34e4f" d="M 111.5,82.5 C 115.565,87.3732 120.565,91.0399 126.5,93.5C 127.01,96.3878 126.344,98.7211 124.5,100.5C 122.408,100.561 120.908,101.561 120,103.5C 119.764,101.881 118.931,100.881 117.5,100.5C 114.952,95.0716 112.286,89.5716 109.5,84C 109.836,82.9701 110.503,82.4701 111.5,82.5 Z"/></g>
<g><path style="opacity:1" fill="#7e559f" d="M 186.5,95.5 C 186.5,105.833 186.5,116.167 186.5,126.5C 181.167,126.5 175.833,126.5 170.5,126.5C 159.5,126.5 148.5,126.5 137.5,126.5C 141.647,125.675 145.981,125.175 150.5,125C 150.957,124.586 151.291,124.086 151.5,123.5C 149.577,122.692 147.577,122.192 145.5,122C 149.601,121.411 153.434,120.245 157,118.5C 158.388,119.554 159.888,119.72 161.5,119C 160.833,118.667 160.167,118.333 159.5,118C 162.078,116.217 164.911,115.051 168,114.5C 170.761,116.017 172.594,115.184 173.5,112C 175.345,110.872 177.345,110.372 179.5,110.5C 179.655,107.391 180.322,104.391 181.5,101.5C 182.308,103.423 182.808,105.423 183,107.5C 184.488,103.521 185.655,99.5211 186.5,95.5 Z"/></g>
<g><path style="opacity:1" fill="#a2bfd0" d="M 128.5,93.5 C 128.833,93.5 129.167,93.5 129.5,93.5C 129.369,94.3764 129.702,95.0431 130.5,95.5C 131.548,94.6171 132.715,93.9504 134,93.5C 135.567,94.8561 137.4,95.5228 139.5,95.5C 138.925,98.9116 137.592,101.912 135.5,104.5C 133.468,103.952 132.468,102.619 132.5,100.5C 131.5,100.5 130.5,100.5 129.5,100.5C 129.737,99.209 129.404,98.209 128.5,97.5C 128.5,96.1667 128.5,94.8333 128.5,93.5 Z"/></g>
<g><path style="opacity:1" fill="#904991" d="M 124.5,117.5 C 125.141,119.042 126.141,120.376 127.5,121.5C 128.522,121.145 129.189,120.478 129.5,119.5C 129.328,118.508 129.662,117.842 130.5,117.5C 131.721,124.573 129.054,126.24 122.5,122.5C 120.285,122.916 118.951,124.25 118.5,126.5C 108.167,126.5 97.8333,126.5 87.5,126.5C 89.1484,125.073 91.1484,124.24 93.5,124C 88.0345,123.511 87.2011,121.011 91,116.5C 92.6667,116.833 94.3333,117.167 96,117.5C 96.3742,116.584 96.8742,115.75 97.5,115C 102.444,114.414 102.777,112.914 98.5,110.5C 96.5896,111.548 94.7562,111.548 93,110.5C 91.563,105.424 93.3963,102.091 98.5,100.5C 102.178,101.688 105.844,101.688 109.5,100.5C 108.712,98.6711 109.212,97.0044 111,95.5C 111.977,97.74 112.477,100.073 112.5,102.5C 113.552,102.351 114.552,102.517 115.5,103C 115.167,103.333 114.833,103.667 114.5,104C 118.918,104.723 120.251,107.057 118.5,111C 119.448,111.483 120.448,111.649 121.5,111.5C 121.461,114.089 122.461,116.089 124.5,117.5 Z"/></g>
<g><path style="opacity:1" fill="#e56a75" d="M 117.5,100.5 C 118.931,100.881 119.764,101.881 120,103.5C 120.908,101.561 122.408,100.561 124.5,100.5C 125.32,104.222 123.987,106.555 120.5,107.5C 119.312,105.278 118.312,102.945 117.5,100.5 Z"/></g>
<g><path style="opacity:1" fill="#cdc7d6" d="M 128.5,97.5 C 129.404,98.209 129.737,99.209 129.5,100.5C 130.5,100.5 131.5,100.5 132.5,100.5C 132.468,102.619 133.468,103.952 135.5,104.5C 135.443,105.609 135.11,106.609 134.5,107.5C 132.147,106.66 130.147,105.326 128.5,103.5C 128.5,101.5 128.5,99.5 128.5,97.5 Z"/></g>
<g><path style="opacity:1" fill="#a63e7b" d="M 65.5,105.5 C 60.002,104.154 55.502,105.821 52,110.5C 50.3333,111.833 48.6667,111.833 47,110.5C 45.1072,111.196 43.2738,112.03 41.5,113C 38.0853,117.199 34.4186,121.033 30.5,124.5C 30.3379,122.473 30.5045,120.473 31,118.5C 31.3333,119.167 31.6667,119.833 32,120.5C 37.245,112.969 44.0784,107.469 52.5,104C 55.7485,100.081 59.5819,96.9144 64,94.5C 65.1076,98.0863 65.6076,101.753 65.5,105.5 Z"/></g>
<g><path style="opacity:1" fill="#7259a1" d="M 225.5,68.5 C 225.5,84.5 225.5,100.5 225.5,116.5C 221.776,117.227 219.109,115.894 217.5,112.5C 214.057,111.371 211.057,109.538 208.5,107C 206.866,106.506 205.199,106.34 203.5,106.5C 202.596,105.791 202.263,104.791 202.5,103.5C 203.552,103.649 204.552,103.483 205.5,103C 204.316,101.855 204.316,100.688 205.5,99.5C 206.688,100.048 207.855,100.381 209,100.5C 209.309,99.2341 209.809,98.0674 210.5,97C 209.027,96.2904 208.36,95.1238 208.5,93.5C 209.5,93.5 210.5,93.5 211.5,93.5C 212.898,95.5328 214.898,96.5328 217.5,96.5C 220.559,96.3326 221.559,94.9993 220.5,92.5C 222.031,91.3869 223.031,89.8869 223.5,88C 224.071,81.343 224.738,74.843 225.5,68.5 Z"/></g>
<g><path style="opacity:1" fill="#ee7d92" d="M 126.5,93.5 C 126.833,93.5 127.167,93.5 127.5,93.5C 127.5,99.8333 127.5,106.167 127.5,112.5C 126.167,112.5 124.833,112.5 123.5,112.5C 122.11,111.101 121.11,109.434 120.5,107.5C 123.987,106.555 125.32,104.222 124.5,100.5C 126.344,98.7211 127.01,96.3878 126.5,93.5 Z"/></g>
<g><path style="opacity:1" fill="#a43a72" d="M 5.5,15.5 C 5.5,15.8333 5.5,16.1667 5.5,16.5C 3.62901,16.8588 2.12901,17.8588 1,19.5C 0.16872,60.3354 0.335387,101.002 1.5,141.5C 1.33398,146.844 1.50065,152.177 2,157.5C 2.38258,158.056 2.88258,158.389 3.5,158.5C 3.70356,160.685 4.37023,162.685 5.5,164.5C 3.65719,163.754 2.32386,162.421 1.5,160.5C 0.832801,157.023 0.166135,153.689 -0.5,150.5C -0.5,105.5 -0.5,60.5 -0.5,15.5C 1.41071,15.0091 3.41071,15.0091 5.5,15.5 Z"/></g>
<g><path style="opacity:1" fill="#e797b0" d="M 127.5,93.5 C 127.833,93.5 128.167,93.5 128.5,93.5C 128.5,94.8333 128.5,96.1667 128.5,97.5C 128.5,99.5 128.5,101.5 128.5,103.5C 128.179,109.026 128.512,114.36 129.5,119.5C 129.189,120.478 128.522,121.145 127.5,121.5C 126.141,120.376 125.141,119.042 124.5,117.5C 123.962,115.883 123.629,114.216 123.5,112.5C 124.833,112.5 126.167,112.5 127.5,112.5C 127.5,106.167 127.5,99.8333 127.5,93.5 Z"/></g>
<g><path style="opacity:1" fill="#f4bdd0" d="M 128.5,103.5 C 130.147,105.326 132.147,106.66 134.5,107.5C 134.5,107.833 134.5,108.167 134.5,108.5C 132.93,111.314 131.597,114.314 130.5,117.5C 129.662,117.842 129.328,118.508 129.5,119.5C 128.512,114.36 128.179,109.026 128.5,103.5 Z"/></g>
<g><path style="opacity:1" fill="#9581b6" d="M 200.5,112.5 C 200.833,113.833 201.167,115.167 201.5,116.5C 198.749,116.528 196.415,117.528 194.5,119.5C 193.5,119 192.5,118.5 191.5,118C 190.565,115.619 190.232,113.119 190.5,110.5C 190.343,109.127 190.51,107.793 191,106.5C 192.545,110.871 195.712,112.871 200.5,112.5 Z"/></g>
<g><path style="opacity:1" fill="#7db8d0" d="M 253.5,155.5 C 253.769,157.429 253.269,159.095 252,160.5C 251.833,114.332 251.333,68.3315 250.5,22.5C 250.5,21.8333 250.5,21.1667 250.5,20.5C 251.566,19.3079 252.399,19.6412 253,21.5C 253.5,66.1654 253.667,110.832 253.5,155.5 Z"/></g>
<g><path style="opacity:1" fill="#8286b7" d="M 188.5,45.5 C 189.167,67.1667 189.833,88.8333 190.5,110.5C 190.232,113.119 190.565,115.619 191.5,118C 192.5,118.5 193.5,119 194.5,119.5C 196.415,117.528 198.749,116.528 201.5,116.5C 203.028,117.309 204.694,117.976 206.5,118.5C 206.414,119.496 206.748,120.329 207.5,121C 206.906,121.464 206.239,121.631 205.5,121.5C 202.904,120.735 200.237,120.401 197.5,120.5C 197.5,121.5 197.5,122.5 197.5,123.5C 195.302,124.067 192.969,124.067 190.5,123.5C 189.955,119.828 189.622,120.162 189.5,124.5C 189.167,124.5 188.833,124.5 188.5,124.5C 188.5,98.1667 188.5,71.8333 188.5,45.5 Z"/></g>
<g><path style="opacity:1" fill="#9189bf" d="M 228.5,104.5 C 229.167,106.833 229.833,109.167 230.5,111.5C 230.5,118.167 230.5,124.833 230.5,131.5C 230.5,140.167 230.5,148.833 230.5,157.5C 229.833,146.5 229.167,135.5 228.5,124.5C 228.5,121.167 228.5,117.833 228.5,114.5C 228.5,111.167 228.5,107.833 228.5,104.5 Z"/></g>
<g><path style="opacity:1" fill="#7471ae" d="M 203.5,106.5 C 205.199,106.34 206.866,106.506 208.5,107C 211.057,109.538 214.057,111.371 217.5,112.5C 219.109,115.894 221.776,117.227 225.5,116.5C 225.369,117.239 225.536,117.906 226,118.5C 226.608,116.934 227.442,115.6 228.5,114.5C 228.5,117.833 228.5,121.167 228.5,124.5C 226.946,125.914 225.612,127.581 224.5,129.5C 220.349,125.917 216.015,122.417 211.5,119C 210.128,118.598 208.795,118.098 207.5,117.5C 206.893,117.624 206.56,117.957 206.5,118.5C 204.694,117.976 203.028,117.309 201.5,116.5C 201.167,115.167 200.833,113.833 200.5,112.5C 202.176,111.817 202.843,110.483 202.5,108.5C 202.833,107.833 203.167,107.167 203.5,106.5 Z"/></g>
<g><path style="opacity:1" fill="#6775ad" d="M 250.5,22.5 C 251.333,68.3315 251.833,114.332 252,160.5C 253.269,159.095 253.769,157.429 253.5,155.5C 254.499,111.67 254.832,67.6698 254.5,23.5C 254.833,23.5 255.167,23.5 255.5,23.5C 255.5,68.1667 255.5,112.833 255.5,157.5C 254.338,159.986 253.004,162.486 251.5,165C 250.167,165.667 248.833,165.667 247.5,165C 248.056,164.617 248.389,164.117 248.5,163.5C 248.461,162.244 248.961,161.244 250,160.5C 250.5,145.837 250.667,131.17 250.5,116.5C 250.5,107.833 250.5,99.1667 250.5,90.5C 250.5,67.8333 250.5,45.1667 250.5,22.5 Z"/></g>
<g><path style="opacity:1" fill="#af3e79" d="M 65.5,105.5 C 65.5,108.167 65.5,110.833 65.5,113.5C 63.9028,112.91 62.5695,111.91 61.5,110.5C 59.4649,112.372 57.2983,114.039 55,115.5C 53.85,114.576 52.85,114.576 52,115.5C 51.6667,114.833 51.3333,114.167 51,113.5C 46.4495,118.185 41.6161,122.518 36.5,126.5C 34.7731,129.392 33.2731,132.392 32,135.5C 31.3292,136.252 30.4959,136.586 29.5,136.5C 29.5,133.167 29.5,129.833 29.5,126.5C 29.5,125.833 29.5,125.167 29.5,124.5C 29.8333,124.5 30.1667,124.5 30.5,124.5C 34.4186,121.033 38.0853,117.199 41.5,113C 43.2738,112.03 45.1072,111.196 47,110.5C 48.6667,111.833 50.3333,111.833 52,110.5C 55.502,105.821 60.002,104.154 65.5,105.5 Z"/></g>
<g><path style="opacity:1" fill="#c94b7c" d="M 66.5,125.5 C 66.5,126.167 66.8333,126.5 67.5,126.5C 67.5,126.833 67.5,127.167 67.5,127.5C 67.5,129.5 67.5,131.5 67.5,133.5C 68.8333,133.5 70.1667,133.5 71.5,133.5C 70.3787,136.047 68.712,137.047 66.5,136.5C 65.1086,134.079 64.2752,131.412 64,128.5C 61.595,127.726 59.095,127.226 56.5,127C 55.944,126.617 55.6107,126.117 55.5,125.5C 54.3734,123.083 54.3734,121.083 55.5,119.5C 55.3537,117.058 56.187,116.391 58,117.5C 59.4659,115.675 61.2992,115.175 63.5,116C 64.5717,119.245 65.5717,122.411 66.5,125.5 Z"/></g>
<g><path style="opacity:1" fill="#ae85b6" d="M 85.5,127.5 C 85.5,127.167 85.5,126.833 85.5,126.5C 86.1667,126.5 86.8333,126.5 87.5,126.5C 97.8333,126.5 108.167,126.5 118.5,126.5C 124.833,126.5 131.167,126.5 137.5,126.5C 148.5,126.5 159.5,126.5 170.5,126.5C 174.298,127.483 178.298,127.817 182.5,127.5C 180.393,128.468 178.059,128.802 175.5,128.5C 171.466,128.495 167.466,128.162 163.5,127.5C 158.167,127.5 152.833,127.5 147.5,127.5C 128.833,127.5 110.167,127.5 91.5,127.5C 89.5,127.5 87.5,127.5 85.5,127.5 Z"/></g>
<g><path style="opacity:1" fill="#6858a7" d="M 250.5,116.5 C 250.667,131.17 250.5,145.837 250,160.5C 248.961,161.244 248.461,162.244 248.5,163.5C 244.342,165.665 240.009,165.998 235.5,164.5C 232.636,162.977 230.969,160.643 230.5,157.5C 230.5,148.833 230.5,140.167 230.5,131.5C 231.29,130.391 231.79,129.058 232,127.5C 232.219,128.938 232.719,130.271 233.5,131.5C 234.641,129.579 234.808,127.579 234,125.5C 233.346,126.696 232.846,126.696 232.5,125.5C 234.289,123.798 235.955,123.631 237.5,125C 236.102,132.983 237.435,133.483 241.5,126.5C 243.969,125.964 246.136,124.964 248,123.5C 248.333,124.167 248.667,124.833 249,125.5C 249.181,122.305 249.681,119.305 250.5,116.5 Z"/></g>
<g><path style="opacity:1" fill="#dca8c6" d="M 91.5,127.5 C 110.167,127.5 128.833,127.5 147.5,127.5C 141.02,128.652 134.354,129.485 127.5,130C 131.821,130.499 136.154,130.666 140.5,130.5C 140.5,131.167 140.5,131.833 140.5,132.5C 140.167,132.5 139.833,132.5 139.5,132.5C 132.345,131.345 125.012,131.178 117.5,132C 116.862,135.935 116.196,139.769 115.5,143.5C 115.5,139.167 115.5,134.833 115.5,130.5C 106.833,130.083 98.1661,129.583 89.5,129C 90.4158,128.722 91.0825,128.222 91.5,127.5 Z"/></g>
<g><path style="opacity:1" fill="#e4c1db" d="M 147.5,127.5 C 152.833,127.5 158.167,127.5 163.5,127.5C 163.918,128.222 164.584,128.722 165.5,129C 157.16,129.481 148.827,129.981 140.5,130.5C 136.154,130.666 131.821,130.499 127.5,130C 134.354,129.485 141.02,128.652 147.5,127.5 Z"/></g>
<g><path style="opacity:1" fill="#d489ac" d="M 67.5,127.5 C 73.5,127.5 79.5,127.5 85.5,127.5C 87.5,127.5 89.5,127.5 91.5,127.5C 91.0825,128.222 90.4158,128.722 89.5,129C 98.1661,129.583 106.833,130.083 115.5,130.5C 115.5,134.833 115.5,139.167 115.5,143.5C 115.167,143.5 114.833,143.5 114.5,143.5C 114.5,143.167 114.5,142.833 114.5,142.5C 114.5,138.833 114.5,135.167 114.5,131.5C 105.177,130.932 95.8436,130.599 86.5,130.5C 85.8478,129.275 84.6811,128.608 83,128.5C 80.4528,128.762 77.9528,129.262 75.5,130C 74.944,130.383 74.6107,130.883 74.5,131.5C 73.5,131.833 72.8333,132.5 72.5,133.5C 72.1667,133.5 71.8333,133.5 71.5,133.5C 70.1667,133.5 68.8333,133.5 67.5,133.5C 67.5,131.5 67.5,129.5 67.5,127.5 Z"/></g>
<g><path style="opacity:1" fill="#c1b6d2" d="M 163.5,127.5 C 167.466,128.162 171.466,128.495 175.5,128.5C 175.5,128.833 175.5,129.167 175.5,129.5C 168.907,129.678 162.574,130.678 156.5,132.5C 152.833,132.5 149.167,132.5 145.5,132.5C 143.833,132.5 142.167,132.5 140.5,132.5C 140.5,131.833 140.5,131.167 140.5,130.5C 148.827,129.981 157.16,129.481 165.5,129C 164.584,128.722 163.918,128.222 163.5,127.5 Z"/></g>
<g><path style="opacity:1" fill="#bea1cb" d="M 182.5,127.5 C 184.167,127.5 185.833,127.5 187.5,127.5C 187.806,130.385 187.473,133.052 186.5,135.5C 183.559,134.198 181.225,132.198 179.5,129.5C 178.167,129.5 176.833,129.5 175.5,129.5C 175.5,129.167 175.5,128.833 175.5,128.5C 178.059,128.802 180.393,128.468 182.5,127.5 Z"/></g>
<g><path style="opacity:1" fill="#6e8fc2" d="M 205.5,121.5 C 207.542,123.83 210.208,124.996 213.5,125C 220.882,132.631 224.882,141.797 225.5,152.5C 226.852,145.076 227.852,137.743 228.5,130.5C 228.5,140.5 228.5,150.5 228.5,160.5C 227.207,159.158 226.374,157.491 226,155.5C 225.333,158.833 225.333,162.167 226,165.5C 226.667,166.833 227.333,166.833 228,165.5C 229.488,170.759 230.655,176.093 231.5,181.5C 228.833,181.5 226.167,181.5 223.5,181.5C 223.509,166.251 221.676,151.251 218,136.5C 214.346,127.252 207.513,122.918 197.5,123.5C 197.5,122.5 197.5,121.5 197.5,120.5C 200.237,120.401 202.904,120.735 205.5,121.5 Z"/></g>
<g><path style="opacity:1" fill="#de3e6d" d="M 66.5,136.5 C 68.712,137.047 70.3787,136.047 71.5,133.5C 71.8333,133.5 72.1667,133.5 72.5,133.5C 71.741,135.436 70.741,137.269 69.5,139C 70.1667,140.333 70.8333,141.667 71.5,143C 71.1639,144.03 70.4972,144.53 69.5,144.5C 67.502,142.4 65.3353,140.4 63,138.5C 61.951,140.107 60.451,140.773 58.5,140.5C 57.5384,138.014 56.7051,138.014 56,140.5C 55.3333,139.833 54.6667,139.167 54,138.5C 51.9565,140.208 50.2899,142.208 49,144.5C 48.5731,148.676 48.0731,152.842 47.5,157C 48.3876,165.141 48.721,173.308 48.5,181.5C 47.1667,181.5 45.8333,181.5 44.5,181.5C 44.2468,172.473 43.5801,163.473 42.5,154.5C 42.2658,146.307 45.2658,139.64 51.5,134.5C 53.0777,133.702 54.7444,133.202 56.5,133C 57.1258,132.25 57.6258,131.416 58,130.5C 59.6995,131.406 61.5328,131.739 63.5,131.5C 63.2729,133.933 64.2729,135.599 66.5,136.5 Z"/></g>
<g><path style="opacity:1" fill="#bb76a2" d="M 139.5,132.5 C 139.5,136.5 139.5,140.5 139.5,144.5C 135.298,144.183 131.298,144.517 127.5,145.5C 125.833,145.5 124.167,145.5 122.5,145.5C 119.612,146.01 117.279,145.344 115.5,143.5C 116.196,139.769 116.862,135.935 117.5,132C 125.012,131.178 132.345,131.345 139.5,132.5 Z"/></g>
<g><path style="opacity:1" fill="#d02e45" d="M 74.5,131.5 C 75.1667,131.5 75.8333,131.5 76.5,131.5C 77.1667,131.5 77.8333,131.5 78.5,131.5C 79.6746,135.042 80.3413,138.709 80.5,142.5C 77.8333,142.5 75.1667,142.5 72.5,142.5C 73.2055,144.672 74.2055,146.672 75.5,148.5C 73.2228,147.551 71.2228,146.218 69.5,144.5C 70.4972,144.53 71.1639,144.03 71.5,143C 70.8333,141.667 70.1667,140.333 69.5,139C 70.741,137.269 71.741,135.436 72.5,133.5C 72.8333,132.5 73.5,131.833 74.5,131.5 Z"/></g>
<g><path style="opacity:1" fill="#db4d67" d="M 101.5,146.5 C 98.8906,146.17 97.2239,144.67 96.5,142C 94.9751,140.991 93.3084,140.491 91.5,140.5C 89.5956,140.262 88.2623,139.262 87.5,137.5C 88.2105,135.588 89.3771,133.921 91,132.5C 93.3365,136.335 96.5032,139.335 100.5,141.5C 100.291,142.086 99.9574,142.586 99.5,143C 100.823,143.816 101.489,144.983 101.5,146.5 Z"/></g>
<g><path style="opacity:1" fill="#a294bb" d="M 139.5,132.5 C 139.833,132.5 140.167,132.5 140.5,132.5C 142.167,132.5 143.833,132.5 145.5,132.5C 145.166,134.666 145.166,136.999 145.5,139.5C 144.167,139.5 142.833,139.5 141.5,139.5C 141.5,140.833 141.5,142.167 141.5,143.5C 140.833,143.833 140.167,144.167 139.5,144.5C 139.5,140.5 139.5,136.5 139.5,132.5 Z"/></g>
<g><path style="opacity:1" fill="#9eaacd" d="M 145.5,132.5 C 149.167,132.5 152.833,132.5 156.5,132.5C 157.038,134.117 157.371,135.784 157.5,137.5C 155.401,138.612 153.067,139.279 150.5,139.5C 148.833,139.5 147.167,139.5 145.5,139.5C 145.166,136.999 145.166,134.666 145.5,132.5 Z"/></g>
<g><path style="opacity:1" fill="#973569" d="M 4.5,22.5 C 4.33334,67.5012 4.50001,112.501 5,157.5C 5.16294,159.676 5.99627,161.509 7.5,163C 11.0257,164.337 14.6924,164.837 18.5,164.5C 16.7354,165.461 14.7354,165.795 12.5,165.5C 10.0971,165.552 7.76375,165.219 5.5,164.5C 4.37023,162.685 3.70356,160.685 3.5,158.5C 3.5,157.833 3.5,157.167 3.5,156.5C 3.16793,111.664 3.50126,66.9969 4.5,22.5 Z"/></g>
<g><path style="opacity:1" fill="#d85572" d="M 86.5,130.5 C 89.6248,131.479 92.9581,131.813 96.5,131.5C 96.5394,132.583 96.8728,133.583 97.5,134.5C 99.7471,135.245 101.58,136.578 103,138.5C 104.005,141.345 104.505,144.011 104.5,146.5C 104.573,148.027 103.906,149.027 102.5,149.5C 102.737,148.209 102.404,147.209 101.5,146.5C 101.489,144.983 100.823,143.816 99.5,143C 99.9574,142.586 100.291,142.086 100.5,141.5C 96.5032,139.335 93.3365,136.335 91,132.5C 89.3771,133.921 88.2105,135.588 87.5,137.5C 86.2804,135.718 85.6138,133.718 85.5,131.5C 82.3442,130.449 79.3442,130.449 76.5,131.5C 75.8333,131.5 75.1667,131.5 74.5,131.5C 74.6107,130.883 74.944,130.383 75.5,130C 77.9528,129.262 80.4528,128.762 83,128.5C 84.6811,128.608 85.8478,129.275 86.5,130.5 Z"/></g>
<g><path style="opacity:1" fill="#ca678b" d="M 86.5,130.5 C 95.8436,130.599 105.177,130.932 114.5,131.5C 114.5,135.167 114.5,138.833 114.5,142.5C 113.549,141.081 113.216,139.415 113.5,137.5C 111.821,137.285 110.821,137.952 110.5,139.5C 108.043,136.566 105.043,134.066 101.5,132C 99.8659,131.506 98.1992,131.34 96.5,131.5C 92.9581,131.813 89.6248,131.479 86.5,130.5 Z"/></g>
<g><path style="opacity:1" fill="#818dc5" d="M 179.5,129.5 C 181.225,132.198 183.559,134.198 186.5,135.5C 186.167,137.5 185.833,139.5 185.5,141.5C 185.5,141.833 185.5,142.167 185.5,142.5C 182.167,142.5 178.833,142.5 175.5,142.5C 174.919,138.25 175.919,134.584 178.5,131.5C 179.338,131.158 179.672,130.492 179.5,129.5 Z"/></g>
<g><path style="opacity:1" fill="#76afd3" d="M 188.5,124.5 C 188.833,124.5 189.167,124.5 189.5,124.5C 190.122,125.627 190.955,126.627 192,127.5C 195.652,126.505 199.485,126.505 203.5,127.5C 206.32,129.751 209.154,132.085 212,134.5C 214.918,140.837 216.584,147.504 217,154.5C 217.251,163.533 217.751,172.533 218.5,181.5C 217.167,181.5 215.833,181.5 214.5,181.5C 214.224,168.077 213.057,154.743 211,141.5C 206.517,132.004 199.351,128.671 189.5,131.5C 189.5,132.833 189.5,134.167 189.5,135.5C 188.508,137.456 187.508,139.456 186.5,141.5C 186.167,141.5 185.833,141.5 185.5,141.5C 185.833,139.5 186.167,137.5 186.5,135.5C 187.473,133.052 187.806,130.385 187.5,127.5C 188.404,126.791 188.737,125.791 188.5,124.5 Z"/></g>
<g><path style="opacity:1" fill="#d43d75" d="M 55.5,125.5 C 55.6107,126.117 55.944,126.617 56.5,127C 59.095,127.226 61.595,127.726 64,128.5C 64.2752,131.412 65.1086,134.079 66.5,136.5C 64.2729,135.599 63.2729,133.933 63.5,131.5C 61.5328,131.739 59.6995,131.406 58,130.5C 57.6258,131.416 57.1258,132.25 56.5,133C 54.7444,133.202 53.0777,133.702 51.5,134.5C 45.2658,139.64 42.2658,146.307 42.5,154.5C 43.5801,163.473 44.2468,172.473 44.5,181.5C 41.8333,181.5 39.1667,181.5 36.5,181.5C 36.579,174.789 36.579,168.289 36.5,162C 38.6415,158.898 38.9748,155.564 37.5,152C 36.9696,138.52 42.9696,129.686 55.5,125.5 Z"/></g>
<g><path style="opacity:1" fill="#6e83bb" d="M 228.5,124.5 C 228.5,126.5 228.5,128.5 228.5,130.5C 227.852,137.743 226.852,145.076 225.5,152.5C 224.882,141.797 220.882,132.631 213.5,125C 210.208,124.996 207.542,123.83 205.5,121.5C 206.239,121.631 206.906,121.464 207.5,121C 206.748,120.329 206.414,119.496 206.5,118.5C 206.56,117.957 206.893,117.624 207.5,117.5C 208.795,118.098 210.128,118.598 211.5,119C 216.015,122.417 220.349,125.917 224.5,129.5C 225.612,127.581 226.946,125.914 228.5,124.5 Z"/></g>
<g><path style="opacity:1" fill="#e53e67" d="M 58.5,140.5 C 57.6693,144.312 55.6693,147.478 52.5,150C 52.0119,156.544 52.6786,163.211 54.5,170C 54.3808,173.868 54.0474,177.701 53.5,181.5C 51.8333,181.5 50.1667,181.5 48.5,181.5C 48.721,173.308 48.3876,165.141 47.5,157C 48.0731,152.842 48.5731,148.676 49,144.5C 50.2899,142.208 51.9565,140.208 54,138.5C 54.6667,139.167 55.3333,139.833 56,140.5C 56.7051,138.014 57.5384,138.014 58.5,140.5 Z"/></g>
<g><path style="opacity:1" fill="#b46897" d="M 118.5,135.5 C 124.029,137.618 129.696,137.952 135.5,136.5C 138.092,138.026 139.092,140.359 138.5,143.5C 131.496,143.227 124.496,142.894 117.5,142.5C 117.298,140.05 117.631,137.717 118.5,135.5 Z"/></g>
<g><path style="opacity:1" fill="#96bfdc" d="M 175.5,129.5 C 176.833,129.5 178.167,129.5 179.5,129.5C 179.672,130.492 179.338,131.158 178.5,131.5C 174.983,130.163 171.483,130.496 168,132.5C 167.219,138.402 167.719,144.402 169.5,150.5C 166.833,150.5 164.167,150.5 161.5,150.5C 161.167,150.5 160.833,150.5 160.5,150.5C 160.804,149.85 161.137,149.183 161.5,148.5C 160.77,145.891 160.27,143.224 160,140.5C 159.764,138.881 158.931,137.881 157.5,137.5C 157.371,135.784 157.038,134.117 156.5,132.5C 162.574,130.678 168.907,129.678 175.5,129.5 Z"/></g>
<g><path style="opacity:1" fill="#89bbe0" d="M 228.5,124.5 C 229.167,135.5 229.833,146.5 230.5,157.5C 230.969,160.643 232.636,162.977 235.5,164.5C 232.419,165.194 230.086,163.861 228.5,160.5C 228.5,150.5 228.5,140.5 228.5,130.5C 228.5,128.5 228.5,126.5 228.5,124.5 Z"/></g>
<g><path style="opacity:1" fill="#c44e70" d="M 96.5,131.5 C 98.1992,131.34 99.8659,131.506 101.5,132C 105.043,134.066 108.043,136.566 110.5,139.5C 112.091,142.961 112.758,146.628 112.5,150.5C 111.5,150.5 110.5,150.5 109.5,150.5C 106.887,149.905 106.887,149.071 109.5,148C 107.975,146.991 106.308,146.491 104.5,146.5C 104.505,144.011 104.005,141.345 103,138.5C 101.58,136.578 99.7471,135.245 97.5,134.5C 96.8728,133.583 96.5394,132.583 96.5,131.5 Z"/></g>
<g><path style="opacity:1" fill="#e24e5f" d="M 76.5,131.5 C 79.3442,130.449 82.3442,130.449 85.5,131.5C 85.6138,133.718 86.2804,135.718 87.5,137.5C 88.2623,139.262 89.5956,140.262 91.5,140.5C 90.3424,141.95 90.8424,142.95 93,143.5C 93.4497,145.519 94.283,147.352 95.5,149C 94.944,149.383 94.6107,149.883 94.5,150.5C 91.1667,150.5 87.8333,150.5 84.5,150.5C 84.1232,144.446 83.2899,138.446 82,132.5C 81.6667,133.833 81.3333,135.167 81,136.5C 80.9504,134.256 80.1171,132.589 78.5,131.5C 77.8333,131.5 77.1667,131.5 76.5,131.5 Z"/></g>
<g><path style="opacity:1" fill="#88add0" d="M 157.5,137.5 C 158.931,137.881 159.764,138.881 160,140.5C 160.27,143.224 160.77,145.891 161.5,148.5C 161.137,149.183 160.804,149.85 160.5,150.5C 159.5,150.5 158.5,150.5 157.5,150.5C 155.5,150.5 153.5,150.5 151.5,150.5C 151.677,146.766 151.344,143.099 150.5,139.5C 153.067,139.279 155.401,138.612 157.5,137.5 Z"/></g>
<g><path style="opacity:1" fill="#e94361" d="M 69.5,144.5 C 66.9641,145.349 64.4641,146.349 62,147.5C 60.4345,146.939 59.1011,147.606 58,149.5C 57.7489,151.433 57.2489,153.266 56.5,155C 56.582,163.683 56.582,172.516 56.5,181.5C 55.5,181.5 54.5,181.5 53.5,181.5C 54.0474,177.701 54.3808,173.868 54.5,170C 52.6786,163.211 52.0119,156.544 52.5,150C 55.6693,147.478 57.6693,144.312 58.5,140.5C 60.451,140.773 61.951,140.107 63,138.5C 65.3353,140.4 67.502,142.4 69.5,144.5 Z"/></g>
<g><path style="opacity:1" fill="#8395bf" d="M 145.5,139.5 C 147.167,139.5 148.833,139.5 150.5,139.5C 151.344,143.099 151.677,146.766 151.5,150.5C 149.167,150.5 146.833,150.5 144.5,150.5C 145.51,147.499 144.51,145.166 141.5,143.5C 141.5,142.167 141.5,140.833 141.5,139.5C 142.833,139.5 144.167,139.5 145.5,139.5 Z"/></g>
<g><path style="opacity:1" fill="#7abbdb" d="M 214.5,181.5 C 213.167,181.5 211.833,181.5 210.5,181.5C 208.534,171.334 208.201,161.167 209.5,151C 208.204,147.567 207.037,144.067 206,140.5C 201.532,134.59 196.032,132.924 189.5,135.5C 189.5,134.167 189.5,132.833 189.5,131.5C 199.351,128.671 206.517,132.004 211,141.5C 213.057,154.743 214.224,168.077 214.5,181.5 Z"/></g>
<g><path style="opacity:1" fill="#827daa" d="M 141.5,143.5 C 144.51,145.166 145.51,147.499 144.5,150.5C 142.833,150.5 141.167,150.5 139.5,150.5C 136.961,149.038 134.628,147.371 132.5,145.5C 130.833,145.5 129.167,145.5 127.5,145.5C 131.298,144.517 135.298,144.183 139.5,144.5C 140.167,144.167 140.833,143.833 141.5,143.5 Z"/></g>
<g><path style="opacity:1" fill="#729ac9" d="M 197.5,123.5 C 207.513,122.918 214.346,127.252 218,136.5C 221.676,151.251 223.509,166.251 223.5,181.5C 223.167,181.5 222.833,181.5 222.5,181.5C 221.225,168.014 219.725,154.348 218,140.5C 215.871,133.036 211.204,128.37 204,126.5C 203.601,126.728 203.435,127.062 203.5,127.5C 199.485,126.505 195.652,126.505 192,127.5C 190.955,126.627 190.122,125.627 189.5,124.5C 189.622,120.162 189.955,119.828 190.5,123.5C 192.969,124.067 195.302,124.067 197.5,123.5 Z"/></g>
<g><path style="opacity:1" fill="#b85786" d="M 26.5,90.5 C 26.3336,99.1731 26.5002,107.84 27,116.5C 26.9165,120.311 27.7499,123.645 29.5,126.5C 29.5,129.833 29.5,133.167 29.5,136.5C 29.9011,144.585 29.4011,152.585 28,160.5C 27.8577,147.131 27.191,133.798 26,120.5C 25.5017,123.817 25.335,127.15 25.5,130.5C 25.7678,132.099 25.4345,133.432 24.5,134.5C 24.5,121.5 24.5,108.5 24.5,95.5C 25.1667,93.8333 25.8333,92.1667 26.5,90.5 Z"/></g>
<g><path style="opacity:1" fill="#8dd5e8" d="M 203.5,181.5 C 200.5,181.5 197.5,181.5 194.5,181.5C 194.188,171.216 194.855,161.049 196.5,151C 195.579,149.244 194.412,149.077 193,150.5C 189.65,149.025 186.15,148.358 182.5,148.5C 181.577,151.796 180.577,155.129 179.5,158.5C 179.57,159.772 179.903,160.938 180.5,162C 178.953,168.513 178.286,175.013 178.5,181.5C 175.833,181.5 173.167,181.5 170.5,181.5C 170.137,171.752 170.804,162.085 172.5,152.5C 175.673,150.413 179.006,148.579 182.5,147C 183.883,145.729 184.883,144.229 185.5,142.5C 185.5,142.167 185.5,141.833 185.5,141.5C 185.833,141.5 186.167,141.5 186.5,141.5C 190.761,140.422 194.761,140.422 198.5,141.5C 198.5,142.5 198.5,143.5 198.5,144.5C 201.766,144.433 203.266,146.099 203,149.5C 203.184,157.079 203.684,164.579 204.5,172C 203.549,175.057 203.216,178.223 203.5,181.5 Z"/></g>
<g><path style="opacity:1" fill="#95ddec" d="M 194.5,181.5 C 189.167,181.5 183.833,181.5 178.5,181.5C 178.286,175.013 178.953,168.513 180.5,162C 179.903,160.938 179.57,159.772 179.5,158.5C 180.577,155.129 181.577,151.796 182.5,148.5C 186.15,148.358 189.65,149.025 193,150.5C 194.412,149.077 195.579,149.244 196.5,151C 194.855,161.049 194.188,171.216 194.5,181.5 Z"/></g>
<g><path style="opacity:1" fill="#80c8e1" d="M 210.5,181.5 C 208.167,181.5 205.833,181.5 203.5,181.5C 203.216,178.223 203.549,175.057 204.5,172C 203.684,164.579 203.184,157.079 203,149.5C 203.266,146.099 201.766,144.433 198.5,144.5C 198.5,143.5 198.5,142.5 198.5,141.5C 194.761,140.422 190.761,140.422 186.5,141.5C 187.508,139.456 188.508,137.456 189.5,135.5C 196.032,132.924 201.532,134.59 206,140.5C 207.037,144.067 208.204,147.567 209.5,151C 208.201,161.167 208.534,171.334 210.5,181.5 Z"/></g>
<g><path style="opacity:1" fill="#ec4656" d="M 69.5,144.5 C 71.2228,146.218 73.2228,147.551 75.5,148.5C 76.0906,149.151 76.7573,149.818 77.5,150.5C 77.1667,150.833 76.8333,151.167 76.5,151.5C 75.2798,150.289 74.1131,150.289 73,151.5C 72,150.833 71,150.167 70,149.5C 68.5153,152.3 66.8486,154.966 65,157.5C 63.6724,165.668 62.839,173.668 62.5,181.5C 60.5,181.5 58.5,181.5 56.5,181.5C 56.582,172.516 56.582,163.683 56.5,155C 57.2489,153.266 57.7489,151.433 58,149.5C 59.1011,147.606 60.4345,146.939 62,147.5C 64.4641,146.349 66.9641,145.349 69.5,144.5 Z"/></g>
<g><path style="opacity:1" fill="#c93c77" d="M 55.5,119.5 C 54.3734,121.083 54.3734,123.083 55.5,125.5C 42.9696,129.686 36.9696,138.52 37.5,152C 38.9748,155.564 38.6415,158.898 36.5,162C 36.579,168.289 36.579,174.789 36.5,181.5C 34.8333,181.5 33.1667,181.5 31.5,181.5C 31.5721,168.485 32.0721,155.485 33,142.5C 35.5667,136.931 38.5667,131.597 42,126.5C 44.3326,125.587 46.1659,124.087 47.5,122C 49.9266,120.409 52.5933,119.575 55.5,119.5 Z"/></g>
<g><path style="opacity:1" fill="#6fa3ce" d="M 222.5,181.5 C 221.167,181.5 219.833,181.5 218.5,181.5C 217.751,172.533 217.251,163.533 217,154.5C 216.584,147.504 214.918,140.837 212,134.5C 209.154,132.085 206.32,129.751 203.5,127.5C 203.435,127.062 203.601,126.728 204,126.5C 211.204,128.37 215.871,133.036 218,140.5C 219.725,154.348 221.225,168.014 222.5,181.5 Z"/></g>
<g><path style="opacity:1" fill="#e6454a" d="M 78.5,131.5 C 80.1171,132.589 80.9504,134.256 81,136.5C 81.3333,135.167 81.6667,133.833 82,132.5C 83.2899,138.446 84.1232,144.446 84.5,150.5C 85.8083,151.232 87.1416,152.066 88.5,153C 87.572,153.388 86.9054,154.055 86.5,155C 87.5353,156.274 88.702,157.44 90,158.5C 91.3115,166.105 91.8115,173.772 91.5,181.5C 90.1667,181.5 88.8333,181.5 87.5,181.5C 87.3218,176.961 87.6551,172.461 88.5,168C 88.3333,167.167 88.1667,166.333 88,165.5C 86.8372,167.285 86.1705,169.285 86,171.5C 83.2159,167.662 82.7159,163.828 84.5,160C 83.7734,158.601 83.2734,157.101 83,155.5C 81,154.833 79.6667,153.5 79,151.5C 77.513,152.253 77.3463,153.086 78.5,154C 76.6547,155.128 74.6547,155.628 72.5,155.5C 72.6495,156.552 72.4828,157.552 72,158.5C 70.2863,160.043 68.7863,161.71 67.5,163.5C 67.737,166.063 68.237,166.063 69,163.5C 69.6667,166.167 69.6667,168.833 69,171.5C 68.1107,170.112 67.6107,170.278 67.5,172C 67.9054,172.945 68.572,173.612 69.5,174C 67.709,176.106 67.0423,178.606 67.5,181.5C 65.8333,181.5 64.1667,181.5 62.5,181.5C 62.839,173.668 63.6724,165.668 65,157.5C 66.8486,154.966 68.5153,152.3 70,149.5C 71,150.167 72,150.833 73,151.5C 74.1131,150.289 75.2798,150.289 76.5,151.5C 76.8333,151.167 77.1667,150.833 77.5,150.5C 76.7573,149.818 76.0906,149.151 75.5,148.5C 74.2055,146.672 73.2055,144.672 72.5,142.5C 75.1667,142.5 77.8333,142.5 80.5,142.5C 80.3413,138.709 79.6746,135.042 78.5,131.5 Z"/></g>
<g><path style="opacity:1" fill="#ea4746" d="M 87.5,181.5 C 80.8333,181.5 74.1667,181.5 67.5,181.5C 67.0423,178.606 67.709,176.106 69.5,174C 68.572,173.612 67.9054,172.945 67.5,172C 67.6107,170.278 68.1107,170.112 69,171.5C 69.6667,168.833 69.6667,166.167 69,163.5C 68.237,166.063 67.737,166.063 67.5,163.5C 68.7863,161.71 70.2863,160.043 72,158.5C 72.4828,157.552 72.6495,156.552 72.5,155.5C 74.6547,155.628 76.6547,155.128 78.5,154C 77.3463,153.086 77.513,152.253 79,151.5C 79.6667,153.5 81,154.833 83,155.5C 83.2734,157.101 83.7734,158.601 84.5,160C 82.7159,163.828 83.2159,167.662 86,171.5C 86.1705,169.285 86.8372,167.285 88,165.5C 88.1667,166.333 88.3333,167.167 88.5,168C 87.6551,172.461 87.3218,176.961 87.5,181.5 Z"/></g>
<g><path style="opacity:1" fill="#d63b48" d="M 84.5,150.5 C 87.8333,150.5 91.1667,150.5 94.5,150.5C 97.0916,152.089 97.0916,153.755 94.5,155.5C 95.7113,156.874 96.7113,158.374 97.5,160C 97.203,167.106 97.203,174.273 97.5,181.5C 95.5,181.5 93.5,181.5 91.5,181.5C 91.8115,173.772 91.3115,166.105 90,158.5C 88.702,157.44 87.5353,156.274 86.5,155C 86.9054,154.055 87.572,153.388 88.5,153C 87.1416,152.066 85.8083,151.232 84.5,150.5 Z"/></g>
<g><path style="opacity:1" fill="#89c7df" d="M 178.5,131.5 C 175.919,134.584 174.919,138.25 175.5,142.5C 178.833,142.5 182.167,142.5 185.5,142.5C 184.883,144.229 183.883,145.729 182.5,147C 179.006,148.579 175.673,150.413 172.5,152.5C 170.804,162.085 170.137,171.752 170.5,181.5C 168.167,181.5 165.833,181.5 163.5,181.5C 163.334,172.161 163.5,162.827 164,153.5C 166.596,151.98 169.429,151.147 172.5,151C 171.552,150.517 170.552,150.351 169.5,150.5C 167.719,144.402 167.219,138.402 168,132.5C 171.483,130.496 174.983,130.163 178.5,131.5 Z"/></g>
<g><path style="opacity:1" fill="#a5e2f0" d="M 173.5,143.5 C 176.572,143.183 179.572,143.516 182.5,144.5C 180.122,147.076 177.122,148.076 173.5,147.5C 173.5,146.167 173.5,144.833 173.5,143.5 Z"/></g>
<g><path style="opacity:1" fill="#bb407a" d="M 65.5,113.5 C 66.3597,117.434 66.693,121.434 66.5,125.5C 65.5717,122.411 64.5717,119.245 63.5,116C 61.2992,115.175 59.4659,115.675 58,117.5C 56.187,116.391 55.3537,117.058 55.5,119.5C 52.5933,119.575 49.9266,120.409 47.5,122C 46.1659,124.087 44.3326,125.587 42,126.5C 38.5667,131.597 35.5667,136.931 33,142.5C 32.0721,155.485 31.5721,168.485 31.5,181.5C 28.1667,181.5 24.8333,181.5 21.5,181.5C 21.6425,177.455 21.6425,173.621 21.5,170C 23.3126,170.046 24.9793,169.88 26.5,169.5C 25.8333,168.833 25.1667,168.167 24.5,167.5C 20.3525,166.833 16.3525,166.166 12.5,165.5C 14.7354,165.795 16.7354,165.461 18.5,164.5C 18.8417,163.662 19.5084,163.328 20.5,163.5C 19.3857,165.353 20.0524,165.853 22.5,165C 23.7875,163.59 24.9542,162.09 26,160.5C 26.8249,150.325 26.6583,140.325 25.5,130.5C 25.335,127.15 25.5017,123.817 26,120.5C 27.191,133.798 27.8577,147.131 28,160.5C 29.4011,152.585 29.9011,144.585 29.5,136.5C 30.4959,136.586 31.3292,136.252 32,135.5C 33.2731,132.392 34.7731,129.392 36.5,126.5C 41.6161,122.518 46.4495,118.185 51,113.5C 51.3333,114.167 51.6667,114.833 52,115.5C 52.85,114.576 53.85,114.576 55,115.5C 57.2983,114.039 59.4649,112.372 61.5,110.5C 62.5695,111.91 63.9028,112.91 65.5,113.5 Z"/></g>
<g><path style="opacity:1" fill="#69638f" d="M 132.5,145.5 C 134.628,147.371 136.961,149.038 139.5,150.5C 139.5,160.833 139.5,171.167 139.5,181.5C 137.833,181.5 136.167,181.5 134.5,181.5C 134.5,171.167 134.5,160.833 134.5,150.5C 133.325,150.719 132.325,150.386 131.5,149.5C 132.246,148.264 132.579,146.93 132.5,145.5 Z"/></g>
<g><path style="opacity:1" fill="#78b1d0" d="M 161.5,150.5 C 164.167,150.5 166.833,150.5 169.5,150.5C 170.552,150.351 171.552,150.517 172.5,151C 169.429,151.147 166.596,151.98 164,153.5C 163.5,162.827 163.334,172.161 163.5,181.5C 161.167,181.5 158.833,181.5 156.5,181.5C 156.759,172.969 156.426,164.469 155.5,156C 155.585,154.893 155.919,153.893 156.5,153C 158.315,152.243 159.981,151.41 161.5,150.5 Z"/></g>
<g><path style="opacity:1" fill="#cf4972" d="M 25.5,130.5 C 26.6583,140.325 26.8249,150.325 26,160.5C 24.9542,162.09 23.7875,163.59 22.5,165C 20.0524,165.853 19.3857,165.353 20.5,163.5C 22.1733,162.657 23.34,161.324 24,159.5C 24.4997,151.173 24.6664,142.84 24.5,134.5C 25.4345,133.432 25.7678,132.099 25.5,130.5 Z"/></g>
<g><path style="opacity:1" fill="#b73651" d="M 104.5,146.5 C 106.308,146.491 107.975,146.991 109.5,148C 106.887,149.071 106.887,149.905 109.5,150.5C 109.699,161.216 109.699,171.55 109.5,181.5C 107.5,181.5 105.5,181.5 103.5,181.5C 103.627,176.036 103.293,170.536 102.5,165C 103.225,160.715 103.892,156.381 104.5,152C 103.944,150.989 103.278,150.156 102.5,149.5C 103.906,149.027 104.573,148.027 104.5,146.5 Z"/></g>
<g><path style="opacity:1" fill="#6f9dc3" d="M 157.5,150.5 C 158.5,150.5 159.5,150.5 160.5,150.5C 160.833,150.5 161.167,150.5 161.5,150.5C 159.981,151.41 158.315,152.243 156.5,153C 155.919,153.893 155.585,154.893 155.5,156C 156.426,164.469 156.759,172.969 156.5,181.5C 155.167,181.5 153.833,181.5 152.5,181.5C 152.776,172.798 152.443,164.132 151.5,155.5C 152.419,152.456 154.419,150.789 157.5,150.5 Z"/></g>
<g><path style="opacity:1" fill="#8a3e63" d="M 114.5,143.5 C 114.833,143.5 115.167,143.5 115.5,143.5C 117.279,145.344 119.612,146.01 122.5,145.5C 121.998,148.521 122.664,151.521 124.5,154.5C 123.744,163.332 123.41,172.332 123.5,181.5C 122.167,181.5 120.833,181.5 119.5,181.5C 118.985,172.635 118.985,163.801 119.5,155C 119.357,152.849 118.357,151.182 116.5,150C 118.994,147.607 118.327,146.44 114.5,146.5C 114.5,145.5 114.5,144.5 114.5,143.5 Z"/></g>
<g><path style="opacity:0.952" fill="#6273b3" d="M 228.5,160.5 C 230.086,163.861 232.419,165.194 235.5,164.5C 240.009,165.998 244.342,165.665 248.5,163.5C 248.389,164.117 248.056,164.617 247.5,165C 248.833,165.667 250.167,165.667 251.5,165C 253.004,162.486 254.338,159.986 255.5,157.5C 255.5,163.5 255.5,169.5 255.5,175.5C 253.863,177.475 252.196,179.475 250.5,181.5C 244.167,181.5 237.833,181.5 231.5,181.5C 230.655,176.093 229.488,170.759 228,165.5C 227.333,166.833 226.667,166.833 226,165.5C 225.333,162.167 225.333,158.833 226,155.5C 226.374,157.491 227.207,159.158 228.5,160.5 Z"/></g>
<g><path style="opacity:1" fill="#9c3c5e" d="M 114.5,142.5 C 114.5,142.833 114.5,143.167 114.5,143.5C 114.5,144.5 114.5,145.5 114.5,146.5C 118.327,146.44 118.994,147.607 116.5,150C 118.357,151.182 119.357,152.849 119.5,155C 118.985,163.801 118.985,172.635 119.5,181.5C 118.167,181.5 116.833,181.5 115.5,181.5C 115.203,174.442 115.536,167.442 116.5,160.5C 115.159,157.097 113.825,153.764 112.5,150.5C 112.758,146.628 112.091,142.961 110.5,139.5C 110.821,137.952 111.821,137.285 113.5,137.5C 113.216,139.415 113.549,141.081 114.5,142.5 Z"/></g>
<g><path style="opacity:1" fill="#c8384d" d="M 91.5,140.5 C 93.3084,140.491 94.9751,140.991 96.5,142C 97.2239,144.67 98.8906,146.17 101.5,146.5C 102.404,147.209 102.737,148.209 102.5,149.5C 103.278,150.156 103.944,150.989 104.5,152C 103.892,156.381 103.225,160.715 102.5,165C 103.293,170.536 103.627,176.036 103.5,181.5C 101.5,181.5 99.5,181.5 97.5,181.5C 97.203,174.273 97.203,167.106 97.5,160C 96.7113,158.374 95.7113,156.874 94.5,155.5C 97.0916,153.755 97.0916,152.089 94.5,150.5C 94.6107,149.883 94.944,149.383 95.5,149C 94.283,147.352 93.4497,145.519 93,143.5C 90.8424,142.95 90.3424,141.95 91.5,140.5 Z"/></g>
<g><path style="opacity:1" fill="#6a87b0" d="M 144.5,150.5 C 146.833,150.5 149.167,150.5 151.5,150.5C 153.5,150.5 155.5,150.5 157.5,150.5C 154.419,150.789 152.419,152.456 151.5,155.5C 152.443,164.132 152.776,172.798 152.5,181.5C 149.5,181.5 146.5,181.5 143.5,181.5C 143.485,171.153 143.818,160.819 144.5,150.5 Z"/></g>
<g><path style="opacity:0.982" fill="#a03c7b" d="M -0.5,150.5 C 0.166135,153.689 0.832801,157.023 1.5,160.5C 2.32386,162.421 3.65719,163.754 5.5,164.5C 7.76375,165.219 10.0971,165.552 12.5,165.5C 16.3525,166.166 20.3525,166.833 24.5,167.5C 25.1667,168.167 25.8333,168.833 26.5,169.5C 24.9793,169.88 23.3126,170.046 21.5,170C 21.6425,173.621 21.6425,177.455 21.5,181.5C 16.1667,181.5 10.8333,181.5 5.5,181.5C 3.52483,179.863 1.52483,178.196 -0.5,176.5C -0.5,167.833 -0.5,159.167 -0.5,150.5 Z"/></g>
<g><path style="opacity:1" fill="#a83653" d="M 109.5,150.5 C 110.5,150.5 111.5,150.5 112.5,150.5C 113.825,153.764 115.159,157.097 116.5,160.5C 115.536,167.442 115.203,174.442 115.5,181.5C 113.5,181.5 111.5,181.5 109.5,181.5C 109.699,171.55 109.699,161.216 109.5,150.5 Z"/></g>
<g><path style="opacity:1" fill="#686f9c" d="M 139.5,150.5 C 141.167,150.5 142.833,150.5 144.5,150.5C 143.818,160.819 143.485,171.153 143.5,181.5C 142.167,181.5 140.833,181.5 139.5,181.5C 139.5,171.167 139.5,160.833 139.5,150.5 Z"/></g>
<g><path style="opacity:1" fill="#7c466e" d="M 122.5,145.5 C 124.167,145.5 125.833,145.5 127.5,145.5C 129.822,157.353 130.822,169.353 130.5,181.5C 128.167,181.5 125.833,181.5 123.5,181.5C 123.41,172.332 123.744,163.332 124.5,154.5C 122.664,151.521 121.998,148.521 122.5,145.5 Z"/></g>
<g><path style="opacity:1" fill="#70537d" d="M 127.5,145.5 C 129.167,145.5 130.833,145.5 132.5,145.5C 132.579,146.93 132.246,148.264 131.5,149.5C 132.325,150.386 133.325,150.719 134.5,150.5C 134.5,160.833 134.5,171.167 134.5,181.5C 133.167,181.5 131.833,181.5 130.5,181.5C 130.822,169.353 129.822,157.353 127.5,145.5 Z"/></g>
</svg>
