<?xml version="1.0" encoding="UTF-8"?>
<!DOCTYPE svg PUBLIC "-//W3C//DTD SVG 1.1//EN" "http://www.w3.org/Graphics/SVG/1.1/DTD/svg11.dtd">
<svg xmlns="http://www.w3.org/2000/svg" version="1.1" width="256px" height="182px" style="shape-rendering:geometricPrecision; text-rendering:geometricPrecision; image-rendering:optimizeQuality; fill-rule:evenodd; clip-rule:evenodd" xmlns:xlink="http://www.w3.org/1999/xlink">
<g><path style="opacity:0.999" fill="#040404" d="M 4.5,-0.5 C 42.1667,-0.5 79.8333,-0.5 117.5,-0.5C 117.5,0.833333 117.5,2.16667 117.5,3.5C 114.159,2.99475 110.826,2.82808 107.5,3C 106.577,5.04083 106.244,7.2075 106.5,9.5C 103.167,9.5 99.8333,9.5 96.5,9.5C 96.6159,12.8599 96.9492,16.1933 97.5,19.5C 93.8333,19.5 90.1667,19.5 86.5,19.5C 86.7148,21.1788 86.0481,22.1788 84.5,22.5C 83.3406,21.5442 82.1739,20.5442 81,19.5C 77.9805,21.9404 74.4805,23.1071 70.5,23C 70.0183,24.0084 69.8516,25.175 70,26.5C 67.4355,28.1793 64.6021,28.846 61.5,28.5C 61.9605,33.244 60.4605,37.244 57,40.5C 56.5065,42.1341 56.3398,43.8008 56.5,45.5C 55.5,45.5 54.5,45.5 53.5,45.5C 50.9582,51.4284 48.6249,57.4284 46.5,63.5C 45.7397,65.5965 45.7397,67.5965 46.5,69.5C 44.6227,74.2284 42.6227,78.895 40.5,83.5C 39.5258,85.7427 39.1924,88.076 39.5,90.5C 39.4595,93.8806 39.7929,97.2139 40.5,100.5C 39.1667,100.5 37.8333,100.5 36.5,100.5C 37.1046,107.618 36.438,114.452 34.5,121C 36.5922,121.953 36.9255,123.286 35.5,125C 36.2158,128.965 37.5491,132.631 39.5,136C 38.8333,136.667 38.1667,137.333 37.5,138C 42.4297,139.265 44.5964,142.431 44,147.5C 47.7188,149.791 49.3855,153.124 49,157.5C 51.2052,160.013 53.0385,162.679 54.5,165.5C 54.663,167.622 54.663,169.789 54.5,172C 56.6181,173.549 58.9515,174.716 61.5,175.5C 61.7437,177.55 62.077,179.55 62.5,181.5C 43.5,181.5 24.5,181.5 5.5,181.5C 3.52483,179.863 1.52483,178.196 -0.5,176.5C -0.5,119.5 -0.5,62.5 -0.5,5.5C 1.13696,3.52483 2.80363,1.52483 4.5,-0.5 Z"/></g>
<g><path style="opacity:0.997" fill="#040603" d="M 117.5,-0.5 C 161.5,-0.5 205.5,-0.5 249.5,-0.5C 251.475,1.13696 253.475,2.80363 255.5,4.5C 255.5,18.8333 255.5,33.1667 255.5,47.5C 250.002,46.8375 244.669,45.6709 239.5,44C 238.944,43.6174 238.611,43.1174 238.5,42.5C 238.03,41.3065 237.03,40.6399 235.5,40.5C 233.182,40.0029 230.848,39.6695 228.5,39.5C 228.5,38.5 228.5,37.5 228.5,36.5C 223.882,37.079 219.715,36.079 216,33.5C 213.568,34.4496 211.068,34.4496 208.5,33.5C 208.762,32.0222 208.429,30.6888 207.5,29.5C 204.617,29.8723 201.617,29.8723 198.5,29.5C 198.5,27.8333 198.5,26.1667 198.5,24.5C 190.685,26.581 185.518,23.9143 183,16.5C 179.259,17.529 175.759,17.529 172.5,16.5C 168.999,14.3295 165.165,12.9962 161,12.5C 159.289,12.4393 157.956,13.1059 157,14.5C 153.247,11.3971 149.247,11.0637 145,13.5C 141.874,11.956 139.04,12.2893 136.5,14.5C 135.5,13.8333 134.5,13.1667 133.5,12.5C 122.889,14.9887 112.223,17.1554 101.5,19C 93.5964,21.6196 86.5964,25.7863 80.5,31.5C 79.4164,32.6651 78.5831,33.9984 78,35.5C 77.1923,33.4213 77.359,31.4213 78.5,29.5C 80.5227,27.1472 82.5227,24.8138 84.5,22.5C 86.0481,22.1788 86.7148,21.1788 86.5,19.5C 90.1667,19.5 93.8333,19.5 97.5,19.5C 96.9492,16.1933 96.6159,12.8599 96.5,9.5C 99.8333,9.5 103.167,9.5 106.5,9.5C 106.244,7.2075 106.577,5.04083 107.5,3C 110.826,2.82808 114.159,2.99475 117.5,3.5C 117.5,2.16667 117.5,0.833333 117.5,-0.5 Z"/></g>
<g><path style="opacity:1" fill="#070a08" d="M 238.5,42.5 C 221.232,38.5643 203.899,34.7309 186.5,31C 179.145,29.1058 172.645,26.2725 167,22.5C 164.522,24.5238 162.022,24.6904 159.5,23C 160.696,22.3457 160.696,21.8457 159.5,21.5C 158.377,22.5437 157.044,23.2104 155.5,23.5C 145.805,22.8862 136.139,22.2196 126.5,21.5C 123.268,22.1332 120.268,23.1332 117.5,24.5C 116.209,24.2627 115.209,24.596 114.5,25.5C 113.833,25.5 113.5,25.8333 113.5,26.5C 108.227,27.4259 103.227,29.2593 98.5,32C 92.5509,36.1104 87.8842,41.2771 84.5,47.5C 82.6736,49.1475 81.3403,51.1475 80.5,53.5C 78.9925,55.1815 77.9925,57.1815 77.5,59.5C 74.4348,64.321 72.4348,69.6543 71.5,75.5C 70.5655,76.5676 70.2322,77.901 70.5,79.5C 69.5062,88.9856 69.1729,98.6522 69.5,108.5C 68.6618,108.842 68.3284,109.508 68.5,110.5C 67.1553,113.051 66.4886,115.884 66.5,119C 66.2667,140.183 66.2667,161.016 66.5,181.5C 65.5,181.5 64.5,181.5 63.5,181.5C 63.7839,167.801 63.2839,154.135 62,140.5C 58.1552,129.71 55.3219,118.876 53.5,108C 53.9976,94.0314 56.3309,80.5314 60.5,67.5C 59.1338,64.9757 59.9672,63.3091 63,62.5C 62.8867,58.737 64.0534,55.5704 66.5,53C 65.5,52.6667 64.5,52.3333 63.5,52C 63.8333,51.6667 64.1667,51.3333 64.5,51C 61.9373,49.9207 59.2706,49.4207 56.5,49.5C 56.6653,53.1817 56.4986,56.8484 56,60.5C 54.9887,59.6634 53.8221,59.33 52.5,59.5C 51.8775,66.5116 51.0442,73.5116 50,80.5C 48.6439,79.6198 47.1439,79.2865 45.5,79.5C 45.5,83.1667 45.5,86.8333 45.5,90.5C 43.5,90.5 41.5,90.5 39.5,90.5C 39.1924,88.076 39.5258,85.7427 40.5,83.5C 42.6227,78.895 44.6227,74.2284 46.5,69.5C 45.7397,67.5965 45.7397,65.5965 46.5,63.5C 48.6249,57.4284 50.9582,51.4284 53.5,45.5C 54.5,45.5 55.5,45.5 56.5,45.5C 56.3398,43.8008 56.5065,42.1341 57,40.5C 60.4605,37.244 61.9605,33.244 61.5,28.5C 64.6021,28.846 67.4355,28.1793 70,26.5C 69.8516,25.175 70.0183,24.0084 70.5,23C 74.4805,23.1071 77.9805,21.9404 81,19.5C 82.1739,20.5442 83.3406,21.5442 84.5,22.5C 82.5227,24.8138 80.5227,27.1472 78.5,29.5C 77.359,31.4213 77.1923,33.4213 78,35.5C 78.5831,33.9984 79.4164,32.6651 80.5,31.5C 86.5964,25.7863 93.5964,21.6196 101.5,19C 112.223,17.1554 122.889,14.9887 133.5,12.5C 134.5,13.1667 135.5,13.8333 136.5,14.5C 139.04,12.2893 141.874,11.956 145,13.5C 149.247,11.0637 153.247,11.3971 157,14.5C 157.956,13.1059 159.289,12.4393 161,12.5C 165.165,12.9962 168.999,14.3295 172.5,16.5C 175.759,17.529 179.259,17.529 183,16.5C 185.518,23.9143 190.685,26.581 198.5,24.5C 198.5,26.1667 198.5,27.8333 198.5,29.5C 201.617,29.8723 204.617,29.8723 207.5,29.5C 208.429,30.6888 208.762,32.0222 208.5,33.5C 211.068,34.4496 213.568,34.4496 216,33.5C 219.715,36.079 223.882,37.079 228.5,36.5C 228.5,37.5 228.5,38.5 228.5,39.5C 230.848,39.6695 233.182,40.0029 235.5,40.5C 237.03,40.6399 238.03,41.3065 238.5,42.5 Z"/></g>
<g><path style="opacity:1" fill="#366955" d="M 132.5,24.5 C 136.5,24.5 140.5,24.5 144.5,24.5C 145.557,26.9413 146.89,29.2746 148.5,31.5C 146.28,35.4924 145.114,39.8257 145,44.5C 143.242,45.4695 142.742,46.6361 143.5,48C 141.597,52.3033 139.597,56.47 137.5,60.5C 136.5,58.5 135.5,56.5 134.5,54.5C 133.4,53.3951 132.733,52.0618 132.5,50.5C 132.489,48.4534 132.156,46.4534 131.5,44.5C 135.431,38.4772 135.431,32.4772 131.5,26.5C 131.863,25.8165 132.196,25.1499 132.5,24.5 Z"/></g>
<g><path style="opacity:1" fill="#30614c" d="M 144.5,24.5 C 146.861,24.6741 149.194,25.0074 151.5,25.5C 152.172,26.2674 153.005,26.9341 154,27.5C 153.887,31.263 155.053,34.4296 157.5,37C 156.833,37.6667 156.167,38.3333 155.5,39C 156.61,41.7372 156.777,44.5706 156,47.5C 153.437,51.8354 151.437,56.5021 150,61.5C 146.649,63.8537 143.982,66.8537 142,70.5C 141.8,68.6803 140.966,67.347 139.5,66.5C 138.262,64.7857 137.595,62.7857 137.5,60.5C 139.597,56.47 141.597,52.3033 143.5,48C 142.742,46.6361 143.242,45.4695 145,44.5C 145.114,39.8257 146.28,35.4924 148.5,31.5C 146.89,29.2746 145.557,26.9413 144.5,24.5 Z"/></g>
<g><path style="opacity:1" fill="#295440" d="M 162.5,26.5 C 163.671,27.3446 165.005,28.0113 166.5,28.5C 170.064,30.4619 173.064,33.1285 175.5,36.5C 173.983,36.4894 172.816,35.8228 172,34.5C 173.739,43.2828 173.072,52.2828 170,61.5C 167.967,64.588 166.301,67.9213 165,71.5C 158.944,77.886 152.944,84.2193 147,90.5C 145.586,89.5868 144.086,89.5868 142.5,90.5C 140.413,91.5846 139.08,93.2512 138.5,95.5C 134.939,96.1017 134.605,94.935 137.5,92C 137.043,91.586 136.709,91.086 136.5,90.5C 137.456,88.9246 138.123,87.258 138.5,85.5C 138.263,84.209 138.596,83.209 139.5,82.5C 142.449,80.735 143.115,78.4017 141.5,75.5C 141.5,75.1667 141.5,74.8333 141.5,74.5C 143.22,76.6581 144.053,79.3248 144,82.5C 144.333,81.5 144.667,80.5 145,79.5C 145.333,79.8333 145.667,80.1667 146,80.5C 150.143,77.7076 152.643,73.8743 153.5,69C 153.167,68.6667 152.833,68.3333 152.5,68C 157.087,64.0545 159.754,59.3878 160.5,54C 161.056,50.0672 162.056,46.2338 163.5,42.5C 162.742,39.1981 162.075,35.8647 161.5,32.5C 161.608,31.5581 161.941,30.7247 162.5,30C 159.029,27.9281 155.362,26.4281 151.5,25.5C 149.194,25.0074 146.861,24.6741 144.5,24.5C 140.5,24.5 136.5,24.5 132.5,24.5C 129.287,24.19 126.287,24.5233 123.5,25.5C 120.5,25.5 117.5,25.5 114.5,25.5C 115.209,24.596 116.209,24.2627 117.5,24.5C 128.811,23.4492 140.145,23.2825 151.5,24C 155.351,24.4144 159.017,25.2477 162.5,26.5 Z"/></g>
<g><path style="opacity:1" fill="#56927f" d="M 113.5,26.5 C 112.713,28.1042 111.38,28.7709 109.5,28.5C 109.479,31.5348 108.146,33.8681 105.5,35.5C 108.076,36.8834 107.742,37.7167 104.5,38C 99.8243,45.1697 93.1577,48.3364 84.5,47.5C 87.8842,41.2771 92.5509,36.1104 98.5,32C 103.227,29.2593 108.227,27.4259 113.5,26.5 Z"/></g>
<g><path style="opacity:1" fill="#081510" d="M 162.5,26.5 C 184.336,31.1607 205.836,36.8273 227,43.5C 234.172,47.3331 241.672,50.4997 249.5,53C 251.473,53.4955 253.473,53.6621 255.5,53.5C 255.5,64.1667 255.5,74.8333 255.5,85.5C 253.883,84.4107 253.05,82.744 253,80.5C 251.667,79.8333 250.333,79.1667 249,78.5C 249.844,73.1898 247.677,70.5231 242.5,70.5C 242.693,67.5253 241.693,65.0253 239.5,63C 233.143,58.8205 226.476,55.1538 219.5,52C 216.455,48.9534 213.122,46.2867 209.5,44C 201.765,41.9039 194.432,38.9039 187.5,35C 183.12,33.8926 178.787,32.726 174.5,31.5C 171.807,30.4485 169.14,29.4485 166.5,28.5C 165.005,28.0113 163.671,27.3446 162.5,26.5 Z"/></g>
<g><path style="opacity:1" fill="#244d3b" d="M 175.5,36.5 C 178.573,38.5691 180.906,41.2358 182.5,44.5C 182.733,46.0618 183.4,47.3951 184.5,48.5C 183.883,48.6107 183.383,48.944 183,49.5C 181.266,48.3621 179.432,47.8621 177.5,48C 181.451,54.4005 180.618,60.2338 175,65.5C 174.695,67.5568 174.695,69.5568 175,71.5C 170.902,75.6016 167.569,80.2682 165,85.5C 163.442,87.3589 161.609,88.8589 159.5,90C 160.5,90.3333 161.5,90.6667 162.5,91C 158.498,91.8404 156.498,94.3404 156.5,98.5C 154.224,97.7985 151.891,97.9651 149.5,99C 148.624,100.585 147.291,101.585 145.5,102C 146.654,102.914 146.487,103.747 145,104.5C 144.586,104.043 144.086,103.709 143.5,103.5C 141.561,106.281 139.394,108.947 137,111.5C 136.506,113.134 136.34,114.801 136.5,116.5C 135.5,116.5 134.5,116.5 133.5,116.5C 134.6,115.395 135.267,114.062 135.5,112.5C 136.038,110.883 136.371,109.216 136.5,107.5C 139.306,102.201 141.306,96.534 142.5,90.5C 144.086,89.5868 145.586,89.5868 147,90.5C 152.944,84.2193 158.944,77.886 165,71.5C 166.301,67.9213 167.967,64.588 170,61.5C 173.072,52.2828 173.739,43.2828 172,34.5C 172.816,35.8228 173.983,36.4894 175.5,36.5 Z"/></g>
<g><path style="opacity:1" fill="#091b14" d="M 174.5,31.5 C 178.787,32.726 183.12,33.8926 187.5,35C 194.432,38.9039 201.765,41.9039 209.5,44C 213.122,46.2867 216.455,48.9534 219.5,52C 226.476,55.1538 233.143,58.8205 239.5,63C 241.693,65.0253 242.693,67.5253 242.5,70.5C 247.677,70.5231 249.844,73.1898 249,78.5C 250.333,79.1667 251.667,79.8333 253,80.5C 253.05,82.744 253.883,84.4107 255.5,85.5C 255.5,98.8333 255.5,112.167 255.5,125.5C 254.167,125.5 252.833,125.5 251.5,125.5C 252.033,129.658 250.7,132.992 247.5,135.5C 246.548,137.045 246.215,138.712 246.5,140.5C 244.61,140.297 243.11,140.963 242,142.5C 239.762,144.309 238.595,146.642 238.5,149.5C 231.984,150.694 228.65,154.694 228.5,161.5C 226.473,161.338 224.473,161.505 222.5,162C 221.109,164.39 219.109,166.057 216.5,167C 217.167,167.333 217.833,167.667 218.5,168C 217.335,169.084 216.002,169.917 214.5,170.5C 213.614,171.325 213.281,172.325 213.5,173.5C 210.833,173.5 208.167,173.5 205.5,173.5C 204.36,176.025 203.693,178.692 203.5,181.5C 186.833,181.5 170.167,181.5 153.5,181.5C 155.933,178.226 158.599,175.059 161.5,172C 166.73,172.83 170.73,170.83 173.5,166C 174.793,165.51 176.127,165.343 177.5,165.5C 178.648,162.265 179.815,158.932 181,155.5C 183.696,154.328 185.363,152.328 186,149.5C 188.827,147.881 191.661,146.214 194.5,144.5C 199.184,138.982 204.351,133.982 210,129.5C 212.037,126.965 213.87,124.298 215.5,121.5C 214.271,120.719 212.938,120.219 211.5,120C 213.48,118.175 215.813,117.341 218.5,117.5C 223.095,105.359 225.595,92.6927 226,79.5C 226.75,78.8742 227.584,78.3742 228.5,78C 226.779,77.2607 225.113,76.4274 223.5,75.5C 224.326,74.549 224.492,73.549 224,72.5C 223.107,73.7112 222.274,73.7112 221.5,72.5C 221.709,71.914 222.043,71.414 222.5,71C 221.071,68.3103 220.071,65.4769 219.5,62.5C 213.927,61.4283 210.427,58.095 209,52.5C 206.667,51.5871 204.834,50.0871 203.5,48C 199.58,47.0375 196.247,45.0375 193.5,42C 191.26,41.023 188.927,40.523 186.5,40.5C 185.163,39.6851 184.163,38.5185 183.5,37C 181.122,36.4888 178.788,35.8221 176.5,35C 175.177,34.1841 174.511,33.0174 174.5,31.5 Z"/></g>
<g><path style="opacity:1" fill="#0e231b" d="M 166.5,28.5 C 169.14,29.4485 171.807,30.4485 174.5,31.5C 174.511,33.0174 175.177,34.1841 176.5,35C 178.788,35.8221 181.122,36.4888 183.5,37C 184.163,38.5185 185.163,39.6851 186.5,40.5C 186.414,41.4959 186.748,42.3292 187.5,43C 190.674,43.8386 193.341,45.5053 195.5,48C 196.793,48.49 198.127,48.6567 199.5,48.5C 200.025,52.1828 201.859,54.1828 205,54.5C 205.333,56.1667 205.667,57.8333 206,59.5C 210.017,60.6854 212.517,63.3521 213.5,67.5C 213.392,68.4419 213.059,69.2753 212.5,70C 214.147,71.7331 215.647,73.5664 217,75.5C 217.162,79.7059 216.662,83.8725 215.5,88C 215.585,89.1074 215.919,90.1074 216.5,91C 212.728,91.6107 212.728,92.6107 216.5,94C 213.121,94.711 211.621,96.8777 212,100.5C 211.02,101.981 209.853,103.315 208.5,104.5C 209.609,105.965 209.109,106.965 207,107.5C 206.86,110.043 206.194,112.377 205,114.5C 204.667,113.833 204.333,113.167 204,112.5C 202.275,117.975 199.108,122.309 194.5,125.5C 193.614,126.325 193.281,127.325 193.5,128.5C 191.42,129.044 189.42,129.878 187.5,131C 182.218,135.442 177.885,140.608 174.5,146.5C 173.808,145.975 173.308,145.308 173,144.5C 170.782,146.388 170.282,148.555 171.5,151C 169.001,154.492 166.501,157.992 164,161.5C 163.667,161.167 163.333,160.833 163,160.5C 157.801,162.704 153.134,165.704 149,169.5C 149.423,171.387 149.256,173.387 148.5,175.5C 141.591,175.924 134.591,175.924 127.5,175.5C 127.5,173.833 127.5,172.167 127.5,170.5C 123.445,170.824 119.445,170.491 115.5,169.5C 114.066,167.78 113.233,165.78 113,163.5C 110.059,162.065 108.559,159.731 108.5,156.5C 103.735,155.674 100.735,153.34 99.5,149.5C 93.7969,145.528 89.1302,140.695 85.5,135C 87.7015,134.223 87.7015,133.056 85.5,131.5C 84.914,131.291 84.414,130.957 84,130.5C 83.2904,131.973 82.1238,132.64 80.5,132.5C 80.7845,130.585 80.4511,128.919 79.5,127.5C 78.4955,126.317 77.6622,124.984 77,123.5C 75.7936,118.469 74.4603,113.469 73,108.5C 70.7232,105.301 69.8898,101.635 70.5,97.5C 72.0319,104.231 75.3652,109.898 80.5,114.5C 80.5126,117.361 81.6793,118.361 84,117.5C 84.2734,119.101 84.7734,120.601 85.5,122C 88.2764,124.776 91.4431,127.943 95,131.5C 96.4397,132.148 97.9397,132.481 99.5,132.5C 99.1924,134.924 99.5258,137.257 100.5,139.5C 101.62,138.167 102.953,137.667 104.5,138C 105.335,140.45 107.002,142.784 109.5,145C 111.088,146.588 113.088,148.588 115.5,151C 116.448,151.483 117.448,151.649 118.5,151.5C 126.251,155.418 133.918,155.418 141.5,151.5C 144.757,150.538 147.757,149.038 150.5,147C 154.369,142.963 158.369,139.13 162.5,135.5C 163.75,135.423 164.583,134.756 165,133.5C 165.333,133.833 165.667,134.167 166,134.5C 166.609,131.39 168.443,129.39 171.5,128.5C 171.291,127.914 170.957,127.414 170.5,127C 172.167,126 173.833,125 175.5,124C 174.833,123.333 174.167,122.667 173.5,122C 174.893,120.829 175.727,119.329 176,117.5C 177.085,116.707 178.252,116.04 179.5,115.5C 179.738,112.361 180.238,109.361 181,106.5C 181.333,106.167 181.667,105.833 182,105.5C 185.604,111.942 186.937,111.275 186,103.5C 190.338,97.6556 193.505,91.1556 195.5,84C 194.277,82.2799 193.277,80.4466 192.5,78.5C 192.839,75.8389 193.172,73.1722 193.5,70.5C 193.03,69.537 192.363,69.537 191.5,70.5C 192.052,60.4857 189.052,51.8191 182.5,44.5C 180.906,41.2358 178.573,38.5691 175.5,36.5C 173.064,33.1285 170.064,30.4619 166.5,28.5 Z"/></g>
<g><path style="opacity:1" fill="#050f0c" d="M 238.5,42.5 C 238.611,43.1174 238.944,43.6174 239.5,44C 244.669,45.6709 250.002,46.8375 255.5,47.5C 255.5,49.5 255.5,51.5 255.5,53.5C 253.473,53.6621 251.473,53.4955 249.5,53C 241.672,50.4997 234.172,47.3331 227,43.5C 205.836,36.8273 184.336,31.1607 162.5,26.5C 159.017,25.2477 155.351,24.4144 151.5,24C 140.145,23.2825 128.811,23.4492 117.5,24.5C 120.268,23.1332 123.268,22.1332 126.5,21.5C 136.139,22.2196 145.805,22.8862 155.5,23.5C 157.044,23.2104 158.377,22.5437 159.5,21.5C 160.696,21.8457 160.696,22.3457 159.5,23C 162.022,24.6904 164.522,24.5238 167,22.5C 172.645,26.2725 179.145,29.1058 186.5,31C 203.899,34.7309 221.232,38.5643 238.5,42.5 Z"/></g>
<g><path style="opacity:1" fill="#46816c" d="M 113.5,26.5 C 113.5,25.8333 113.833,25.5 114.5,25.5C 117.5,25.5 120.5,25.5 123.5,25.5C 124.651,30.6503 124.817,35.9836 124,41.5C 122.68,41.799 121.18,41.9657 119.5,42C 119.218,47.9705 115.885,51.6371 109.5,53C 108.663,54.0113 108.33,55.1779 108.5,56.5C 104.769,56.6185 101.603,57.9518 99,60.5C 93.871,61.3689 88.7043,61.7022 83.5,61.5C 83.5,60.5 83.5,59.5 83.5,58.5C 82.5,58.5 81.5,58.5 80.5,58.5C 80.5,56.8333 80.5,55.1667 80.5,53.5C 81.3403,51.1475 82.6736,49.1475 84.5,47.5C 83.7834,50.3229 82.7834,52.9896 81.5,55.5C 101.426,56.1732 113.759,46.6732 118.5,27C 116.866,26.5065 115.199,26.3398 113.5,26.5 Z"/></g>
<g><path style="opacity:1" fill="#417864" d="M 123.5,25.5 C 126.287,24.5233 129.287,24.19 132.5,24.5C 132.196,25.1499 131.863,25.8165 131.5,26.5C 135.431,32.4772 135.431,38.4772 131.5,44.5C 132.156,46.4534 132.489,48.4534 132.5,50.5C 130.69,47.855 129.69,44.855 129.5,41.5C 129.884,39.3352 129.217,37.6685 127.5,36.5C 125.909,39.6752 124.909,43.0085 124.5,46.5C 122.33,50.8687 120.664,55.5354 119.5,60.5C 119.543,61.4164 119.876,62.0831 120.5,62.5C 120.5,63.5 120.5,64.5 120.5,65.5C 119.417,65.4606 118.417,65.1272 117.5,64.5C 116.702,64.9569 116.369,65.6236 116.5,66.5C 112.457,67.5929 108.79,69.4262 105.5,72C 100.057,72.3624 94.7238,73.1958 89.5,74.5C 85.0942,73.6447 80.7609,72.3113 76.5,70.5C 75.6143,69.675 75.281,68.675 75.5,67.5C 76.3705,64.997 77.0372,62.3303 77.5,59.5C 77.9925,57.1815 78.9925,55.1815 80.5,53.5C 80.5,55.1667 80.5,56.8333 80.5,58.5C 81.5,58.5 82.5,58.5 83.5,58.5C 83.5,59.5 83.5,60.5 83.5,61.5C 88.7043,61.7022 93.871,61.3689 99,60.5C 101.603,57.9518 104.769,56.6185 108.5,56.5C 108.33,55.1779 108.663,54.0113 109.5,53C 115.885,51.6371 119.218,47.9705 119.5,42C 121.18,41.9657 122.68,41.799 124,41.5C 124.817,35.9836 124.651,30.6503 123.5,25.5 Z"/></g>
<g><path style="opacity:1" fill="#4c8b74" d="M 113.5,26.5 C 115.199,26.3398 116.866,26.5065 118.5,27C 113.759,46.6732 101.426,56.1732 81.5,55.5C 82.7834,52.9896 83.7834,50.3229 84.5,47.5C 93.1577,48.3364 99.8243,45.1697 104.5,38C 107.742,37.7167 108.076,36.8834 105.5,35.5C 108.146,33.8681 109.479,31.5348 109.5,28.5C 111.38,28.7709 112.713,28.1042 113.5,26.5 Z"/></g>
<g><path style="opacity:1" fill="#759285" d="M 129.5,41.5 C 128.778,41.0825 128.278,40.4158 128,39.5C 127.536,40.0944 127.369,40.7611 127.5,41.5C 126.313,43.0725 125.313,44.7392 124.5,46.5C 124.909,43.0085 125.909,39.6752 127.5,36.5C 129.217,37.6685 129.884,39.3352 129.5,41.5 Z"/></g>
<g><path style="opacity:1" fill="#0c2017" d="M 186.5,40.5 C 188.927,40.523 191.26,41.023 193.5,42C 196.247,45.0375 199.58,47.0375 203.5,48C 204.834,50.0871 206.667,51.5871 209,52.5C 210.427,58.095 213.927,61.4283 219.5,62.5C 220.071,65.4769 221.071,68.3103 222.5,71C 222.043,71.414 221.709,71.914 221.5,72.5C 222.274,73.7112 223.107,73.7112 224,72.5C 224.492,73.549 224.326,74.549 223.5,75.5C 225.113,76.4274 226.779,77.2607 228.5,78C 227.584,78.3742 226.75,78.8742 226,79.5C 225.595,92.6927 223.095,105.359 218.5,117.5C 215.813,117.341 213.48,118.175 211.5,120C 212.938,120.219 214.271,120.719 215.5,121.5C 213.87,124.298 212.037,126.965 210,129.5C 204.351,133.982 199.184,138.982 194.5,144.5C 191.661,146.214 188.827,147.881 186,149.5C 185.363,152.328 183.696,154.328 181,155.5C 179.815,158.932 178.648,162.265 177.5,165.5C 176.127,165.343 174.793,165.51 173.5,166C 170.73,170.83 166.73,172.83 161.5,172C 158.599,175.059 155.933,178.226 153.5,181.5C 142.833,181.5 132.167,181.5 121.5,181.5C 120.883,179.771 119.883,178.271 118.5,177C 120.901,176.195 120.734,175.362 118,174.5C 117.667,175.167 117.333,175.833 117,176.5C 115.542,174.04 113.709,171.873 111.5,170C 111.833,169.667 112.167,169.333 112.5,169C 110.913,168.138 109.246,167.471 107.5,167C 106.072,164.815 104.405,162.815 102.5,161C 98.7541,159.412 95.4208,157.245 92.5,154.5C 90.9885,151.321 88.8218,148.654 86,146.5C 83.2212,140.61 80.7212,134.61 78.5,128.5C 78.6236,127.893 78.9569,127.56 79.5,127.5C 80.4511,128.919 80.7845,130.585 80.5,132.5C 82.1238,132.64 83.2904,131.973 84,130.5C 84.414,130.957 84.914,131.291 85.5,131.5C 87.7015,133.056 87.7015,134.223 85.5,135C 89.1302,140.695 93.7969,145.528 99.5,149.5C 100.735,153.34 103.735,155.674 108.5,156.5C 108.559,159.731 110.059,162.065 113,163.5C 113.233,165.78 114.066,167.78 115.5,169.5C 119.445,170.491 123.445,170.824 127.5,170.5C 127.5,172.167 127.5,173.833 127.5,175.5C 134.591,175.924 141.591,175.924 148.5,175.5C 149.256,173.387 149.423,171.387 149,169.5C 153.134,165.704 157.801,162.704 163,160.5C 163.333,160.833 163.667,161.167 164,161.5C 166.501,157.992 169.001,154.492 171.5,151C 170.282,148.555 170.782,146.388 173,144.5C 173.308,145.308 173.808,145.975 174.5,146.5C 177.885,140.608 182.218,135.442 187.5,131C 189.42,129.878 191.42,129.044 193.5,128.5C 193.281,127.325 193.614,126.325 194.5,125.5C 199.108,122.309 202.275,117.975 204,112.5C 204.333,113.167 204.667,113.833 205,114.5C 206.194,112.377 206.86,110.043 207,107.5C 209.109,106.965 209.609,105.965 208.5,104.5C 209.853,103.315 211.02,101.981 212,100.5C 211.621,96.8777 213.121,94.711 216.5,94C 212.728,92.6107 212.728,91.6107 216.5,91C 215.919,90.1074 215.585,89.1074 215.5,88C 216.662,83.8725 217.162,79.7059 217,75.5C 215.647,73.5664 214.147,71.7331 212.5,70C 213.059,69.2753 213.392,68.4419 213.5,67.5C 212.517,63.3521 210.017,60.6854 206,59.5C 205.667,57.8333 205.333,56.1667 205,54.5C 201.859,54.1828 200.025,52.1828 199.5,48.5C 198.127,48.6567 196.793,48.49 195.5,48C 193.341,45.5053 190.674,43.8386 187.5,43C 186.748,42.3292 186.414,41.4959 186.5,40.5 Z"/></g>
<g><path style="opacity:1" fill="#224737" d="M 184.5,48.5 C 187.161,53.1487 188.827,58.1487 189.5,63.5C 188.778,63.0825 188.278,62.4158 188,61.5C 185.833,64 183.667,66.5 181.5,69C 182.89,71.9938 181.89,73.9938 178.5,75C 179.946,77.4932 179.279,79.3265 176.5,80.5C 172.782,90.1214 167.449,98.6214 160.5,106C 156.94,108.403 153.273,110.57 149.5,112.5C 150.025,113.192 150.692,113.692 151.5,114C 149.167,115.667 146.833,117.333 144.5,119C 144.167,120 143.833,121 143.5,122C 142.146,123.294 140.812,123.46 139.5,122.5C 138.833,123.5 138.167,124.5 137.5,125.5C 136.133,122.464 134.8,119.464 133.5,116.5C 134.5,116.5 135.5,116.5 136.5,116.5C 136.34,114.801 136.506,113.134 137,111.5C 139.394,108.947 141.561,106.281 143.5,103.5C 144.086,103.709 144.586,104.043 145,104.5C 146.487,103.747 146.654,102.914 145.5,102C 147.291,101.585 148.624,100.585 149.5,99C 151.891,97.9651 154.224,97.7985 156.5,98.5C 156.498,94.3404 158.498,91.8404 162.5,91C 161.5,90.6667 160.5,90.3333 159.5,90C 161.609,88.8589 163.442,87.3589 165,85.5C 167.569,80.2682 170.902,75.6016 175,71.5C 174.695,69.5568 174.695,67.5568 175,65.5C 180.618,60.2338 181.451,54.4005 177.5,48C 179.432,47.8621 181.266,48.3621 183,49.5C 183.383,48.944 183.883,48.6107 184.5,48.5 Z"/></g>
<g><path style="opacity:1" fill="#2c5a45" d="M 151.5,25.5 C 155.362,26.4281 159.029,27.9281 162.5,30C 161.941,30.7247 161.608,31.5581 161.5,32.5C 162.075,35.8647 162.742,39.1981 163.5,42.5C 162.056,46.2338 161.056,50.0672 160.5,54C 159.754,59.3878 157.087,64.0545 152.5,68C 152.833,68.3333 153.167,68.6667 153.5,69C 152.643,73.8743 150.143,77.7076 146,80.5C 145.667,80.1667 145.333,79.8333 145,79.5C 144.667,80.5 144.333,81.5 144,82.5C 144.053,79.3248 143.22,76.6581 141.5,74.5C 141.204,72.597 140.537,70.9303 139.5,69.5C 139.5,68.5 139.5,67.5 139.5,66.5C 140.966,67.347 141.8,68.6803 142,70.5C 143.982,66.8537 146.649,63.8537 150,61.5C 151.437,56.5021 153.437,51.8354 156,47.5C 156.777,44.5706 156.61,41.7372 155.5,39C 156.167,38.3333 156.833,37.6667 157.5,37C 155.053,34.4296 153.887,31.263 154,27.5C 153.005,26.9341 152.172,26.2674 151.5,25.5 Z"/></g>
<g><path style="opacity:1" fill="#5b796a" d="M 127.5,41.5 C 127.089,45.2215 126.422,48.8881 125.5,52.5C 124.833,54.5 124.167,56.5 123.5,58.5C 122.819,60.7229 121.819,62.0563 120.5,62.5C 119.876,62.0831 119.543,61.4164 119.5,60.5C 120.664,55.5354 122.33,50.8687 124.5,46.5C 125.313,44.7392 126.313,43.0725 127.5,41.5 Z"/></g>
<g><path style="opacity:1" fill="#242f25" d="M 129.5,41.5 C 129.69,44.855 130.69,47.855 132.5,50.5C 132.733,52.0618 133.4,53.3951 134.5,54.5C 134.5,55.8333 134.5,57.1667 134.5,58.5C 132.952,58.1788 132.285,57.1788 132.5,55.5C 130.856,55.7135 129.356,55.3802 128,54.5C 127.988,61.0193 127.488,67.3527 126.5,73.5C 126.167,73.5 125.833,73.5 125.5,73.5C 124.761,73.631 124.094,73.4643 123.5,73C 124.38,71.6439 124.714,70.1439 124.5,68.5C 124.833,63.1667 125.167,57.8333 125.5,52.5C 126.422,48.8881 127.089,45.2215 127.5,41.5C 127.369,40.7611 127.536,40.0944 128,39.5C 128.278,40.4158 128.778,41.0825 129.5,41.5 Z"/></g>
<g><path style="opacity:1" fill="#182a20" d="M 134.5,58.5 C 135.989,62.3233 137.656,65.99 139.5,69.5C 139.815,72.2108 139.148,74.5441 137.5,76.5C 137.167,76.5 136.833,76.5 136.5,76.5C 133.296,75.0991 129.963,74.0991 126.5,73.5C 127.488,67.3527 127.988,61.0193 128,54.5C 129.356,55.3802 130.856,55.7135 132.5,55.5C 132.285,57.1788 132.952,58.1788 134.5,58.5 Z"/></g>
<g><path style="opacity:1" fill="#60776b" d="M 134.5,54.5 C 135.5,56.5 136.5,58.5 137.5,60.5C 137.595,62.7857 138.262,64.7857 139.5,66.5C 139.5,67.5 139.5,68.5 139.5,69.5C 137.656,65.99 135.989,62.3233 134.5,58.5C 134.5,57.1667 134.5,55.8333 134.5,54.5 Z"/></g>
<g><path style="opacity:1" fill="#585349" d="M 125.5,52.5 C 125.167,57.8333 124.833,63.1667 124.5,68.5C 123.833,68.5 123.5,68.1667 123.5,67.5C 123.5,64.5 123.5,61.5 123.5,58.5C 124.167,56.5 124.833,54.5 125.5,52.5 Z"/></g>
<g><path style="opacity:1" fill="#34594a" d="M 182.5,44.5 C 189.052,51.8191 192.052,60.4857 191.5,70.5C 191.358,75.9108 190.024,80.9108 187.5,85.5C 189.032,78.257 189.698,70.9237 189.5,63.5C 188.827,58.1487 187.161,53.1487 184.5,48.5C 183.4,47.3951 182.733,46.0618 182.5,44.5 Z"/></g>
<g><path style="opacity:1" fill="#3f614f" d="M 123.5,58.5 C 123.5,61.5 123.5,64.5 123.5,67.5C 122.5,66.8333 121.5,66.1667 120.5,65.5C 120.5,64.5 120.5,63.5 120.5,62.5C 121.819,62.0563 122.819,60.7229 123.5,58.5 Z"/></g>
<g><path style="opacity:1" fill="#396e58" d="M 116.5,66.5 C 116.552,68.9029 116.219,71.2362 115.5,73.5C 111.307,71.6811 108.64,73.0144 107.5,77.5C 104.813,77.3359 102.146,77.5026 99.5,78C 98.1298,79.9241 96.2964,81.0907 94,81.5C 88.5061,81.0882 83.1727,80.0882 78,78.5C 75.5675,79.1185 74.0675,77.9518 73.5,75C 74.0161,72.3309 74.6827,69.8309 75.5,67.5C 75.281,68.675 75.6143,69.675 76.5,70.5C 80.7609,72.3113 85.0942,73.6447 89.5,74.5C 94.7238,73.1958 100.057,72.3624 105.5,72C 108.79,69.4262 112.457,67.5929 116.5,66.5 Z"/></g>
<g><path style="opacity:1" fill="#10271d" d="M 162.5,135.5 C 165.755,130.398 169.255,125.398 173,120.5C 173.483,119.552 173.649,118.552 173.5,117.5C 174.751,115.618 175.918,113.618 177,111.5C 177.49,110.207 177.657,108.873 177.5,107.5C 181.788,100.653 185.121,93.3195 187.5,85.5C 190.024,80.9108 191.358,75.9108 191.5,70.5C 192.363,69.537 193.03,69.537 193.5,70.5C 193.172,73.1722 192.839,75.8389 192.5,78.5C 193.277,80.4466 194.277,82.2799 195.5,84C 193.505,91.1556 190.338,97.6556 186,103.5C 186.937,111.275 185.604,111.942 182,105.5C 181.667,105.833 181.333,106.167 181,106.5C 180.238,109.361 179.738,112.361 179.5,115.5C 178.252,116.04 177.085,116.707 176,117.5C 175.727,119.329 174.893,120.829 173.5,122C 174.167,122.667 174.833,123.333 175.5,124C 173.833,125 172.167,126 170.5,127C 170.957,127.414 171.291,127.914 171.5,128.5C 168.443,129.39 166.609,131.39 166,134.5C 165.667,134.167 165.333,133.833 165,133.5C 164.583,134.756 163.75,135.423 162.5,135.5 Z"/></g>
<g><path style="opacity:1" fill="#577464" d="M 120.5,65.5 C 121.5,66.1667 122.5,66.8333 123.5,67.5C 123.5,68.1667 123.833,68.5 124.5,68.5C 124.714,70.1439 124.38,71.6439 123.5,73C 124.094,73.4643 124.761,73.631 125.5,73.5C 126.061,75.0655 125.394,76.3989 123.5,77.5C 122.849,76.9094 122.182,76.2427 121.5,75.5C 119.578,76.711 117.745,78.0443 116,79.5C 116.524,82.2184 117.357,84.8851 118.5,87.5C 116.833,85.5 115.167,83.5 113.5,81.5C 113.584,78.6726 114.25,76.006 115.5,73.5C 116.219,71.2362 116.552,68.9029 116.5,66.5C 116.369,65.6236 116.702,64.9569 117.5,64.5C 118.417,65.1272 119.417,65.4606 120.5,65.5 Z"/></g>
<g><path style="opacity:1" fill="#356754" d="M 77.5,59.5 C 77.0372,62.3303 76.3705,64.997 75.5,67.5C 74.6827,69.8309 74.0161,72.3309 73.5,75C 74.0675,77.9518 75.5675,79.1185 78,78.5C 83.1727,80.0882 88.5061,81.0882 94,81.5C 96.2964,81.0907 98.1298,79.9241 99.5,78C 102.146,77.5026 104.813,77.3359 107.5,77.5C 108.64,73.0144 111.307,71.6811 115.5,73.5C 114.25,76.006 113.584,78.6726 113.5,81.5C 113.5,82.1667 113.5,82.8333 113.5,83.5C 107.661,84.5805 101.828,85.9138 96,87.5C 87.3849,87.8052 79.2183,85.8052 71.5,81.5C 71.5,79.5 71.5,77.5 71.5,75.5C 72.4348,69.6543 74.4348,64.321 77.5,59.5 Z"/></g>
<g><path style="opacity:1" fill="#392b20" d="M 139.5,69.5 C 140.537,70.9303 141.204,72.597 141.5,74.5C 141.5,74.8333 141.5,75.1667 141.5,75.5C 141.631,76.3764 141.298,77.0431 140.5,77.5C 139.583,76.8728 138.583,76.5394 137.5,76.5C 139.148,74.5441 139.815,72.2108 139.5,69.5 Z"/></g>
<g><path style="opacity:1" fill="#502923" d="M 141.5,75.5 C 143.115,78.4017 142.449,80.735 139.5,82.5C 139.759,80.0107 138.759,78.344 136.5,77.5C 136.5,77.1667 136.5,76.8333 136.5,76.5C 136.833,76.5 137.167,76.5 137.5,76.5C 138.583,76.5394 139.583,76.8728 140.5,77.5C 141.298,77.0431 141.631,76.3764 141.5,75.5 Z"/></g>
<g><path style="opacity:1" fill="#1f2820" d="M 136.5,77.5 C 138.759,78.344 139.759,80.0107 139.5,82.5C 138.596,83.209 138.263,84.209 138.5,85.5C 135.167,90.1667 131.833,94.8333 128.5,99.5C 128.167,97.5 127.833,95.5 127.5,93.5C 127.608,88.1301 127.275,82.7968 126.5,77.5C 129.833,77.5 133.167,77.5 136.5,77.5 Z"/></g>
<g><path style="opacity:1" fill="#050704" d="M 63.5,181.5 C 63.1667,181.5 62.8333,181.5 62.5,181.5C 62.077,179.55 61.7437,177.55 61.5,175.5C 58.9515,174.716 56.6181,173.549 54.5,172C 54.663,169.789 54.663,167.622 54.5,165.5C 53.0385,162.679 51.2052,160.013 49,157.5C 49.3855,153.124 47.7188,149.791 44,147.5C 44.5964,142.431 42.4297,139.265 37.5,138C 38.1667,137.333 38.8333,136.667 39.5,136C 37.5491,132.631 36.2158,128.965 35.5,125C 36.9255,123.286 36.5922,121.953 34.5,121C 36.438,114.452 37.1046,107.618 36.5,100.5C 37.8333,100.5 39.1667,100.5 40.5,100.5C 39.7929,97.2139 39.4595,93.8806 39.5,90.5C 41.5,90.5 43.5,90.5 45.5,90.5C 45.5,86.8333 45.5,83.1667 45.5,79.5C 47.1439,79.2865 48.6439,79.6198 50,80.5C 51.0442,73.5116 51.8775,66.5116 52.5,59.5C 53.8221,59.33 54.9887,59.6634 56,60.5C 56.4986,56.8484 56.6653,53.1817 56.5,49.5C 59.2706,49.4207 61.9373,49.9207 64.5,51C 64.1667,51.3333 63.8333,51.6667 63.5,52C 64.5,52.3333 65.5,52.6667 66.5,53C 64.0534,55.5704 62.8867,58.737 63,62.5C 59.9672,63.3091 59.1338,64.9757 60.5,67.5C 56.3309,80.5314 53.9976,94.0314 53.5,108C 55.3219,118.876 58.1552,129.71 62,140.5C 63.2839,154.135 63.7839,167.801 63.5,181.5 Z"/></g>
<g><path style="opacity:1" fill="#332e25" d="M 125.5,73.5 C 125.833,73.5 126.167,73.5 126.5,73.5C 129.963,74.0991 133.296,75.0991 136.5,76.5C 136.5,76.8333 136.5,77.1667 136.5,77.5C 133.167,77.5 129.833,77.5 126.5,77.5C 127.275,82.7968 127.608,88.1301 127.5,93.5C 126.944,90.8822 126.277,88.8822 125.5,87.5C 125.167,87.5 124.833,87.5 124.5,87.5C 124.5,86.8333 124.5,86.1667 124.5,85.5C 125.152,84.5514 125.486,83.3847 125.5,82C 125.392,80.3189 124.725,79.1522 123.5,78.5C 123.5,78.1667 123.5,77.8333 123.5,77.5C 125.394,76.3989 126.061,75.0655 125.5,73.5 Z"/></g>
<g><path style="opacity:1" fill="#224435" d="M 189.5,63.5 C 189.698,70.9237 189.032,78.257 187.5,85.5C 185.121,93.3195 181.788,100.653 177.5,107.5C 178.872,103.083 180.539,98.7493 182.5,94.5C 182.196,92.5595 181.363,90.8928 180,89.5C 179.383,90.4491 179.549,91.2825 180.5,92C 179.299,92.9025 178.465,94.0692 178,95.5C 177.282,94.5494 176.449,94.3828 175.5,95C 176.833,96.8402 176.666,97.3402 175,96.5C 172.498,101.511 168.665,104.844 163.5,106.5C 160.302,112.039 155.968,116.705 150.5,120.5C 149.087,122.368 147.92,124.368 147,126.5C 144.956,125.228 143.122,125.561 141.5,127.5C 141.709,128.086 142.043,128.586 142.5,129C 140.154,128.208 137.821,128.375 135.5,129.5C 135.539,131.359 134.706,132.692 133,133.5C 131.463,133.913 129.796,133.913 128,133.5C 126.989,133.892 126.489,134.559 126.5,135.5C 121.069,135.771 115.735,137.271 110.5,140C 112.569,140.324 112.902,141.158 111.5,142.5C 111.855,143.522 112.522,144.189 113.5,144.5C 117.96,149.981 123.793,152.981 131,153.5C 134.501,152.766 138.001,152.1 141.5,151.5C 133.918,155.418 126.251,155.418 118.5,151.5C 109.57,144.657 103.903,135.657 101.5,124.5C 102.688,123.316 103.855,123.316 105,124.5C 105.626,122.009 106.459,122.009 107.5,124.5C 109.098,122.027 110.598,122.027 112,124.5C 113.734,123.751 115.567,123.251 117.5,123C 119.525,121.806 119.859,120.306 118.5,118.5C 119.63,117.378 120.297,116.044 120.5,114.5C 121.5,115.833 122.5,117.167 123.5,118.5C 123.263,119.791 123.596,120.791 124.5,121.5C 124.909,124.991 125.909,128.325 127.5,131.5C 129.955,127.135 131.622,122.469 132.5,117.5C 132.273,115.067 133.273,113.401 135.5,112.5C 135.267,114.062 134.6,115.395 133.5,116.5C 134.8,119.464 136.133,122.464 137.5,125.5C 138.167,124.5 138.833,123.5 139.5,122.5C 140.812,123.46 142.146,123.294 143.5,122C 143.833,121 144.167,120 144.5,119C 146.833,117.333 149.167,115.667 151.5,114C 150.692,113.692 150.025,113.192 149.5,112.5C 153.273,110.57 156.94,108.403 160.5,106C 167.449,98.6214 172.782,90.1214 176.5,80.5C 179.279,79.3265 179.946,77.4932 178.5,75C 181.89,73.9938 182.89,71.9938 181.5,69C 183.667,66.5 185.833,64 188,61.5C 188.278,62.4158 188.778,63.0825 189.5,63.5 Z"/></g>
<g><path style="opacity:1" fill="#4f3328" d="M 123.5,78.5 C 124.725,79.1522 125.392,80.3189 125.5,82C 125.486,83.3847 125.152,84.5514 124.5,85.5C 123.532,83.3926 123.198,81.0593 123.5,78.5 Z"/></g>
<g><path style="opacity:1" fill="#31433b" d="M 123.5,77.5 C 123.5,77.8333 123.5,78.1667 123.5,78.5C 123.198,81.0593 123.532,83.3926 124.5,85.5C 124.5,86.1667 124.5,86.8333 124.5,87.5C 124.5,90.1667 124.5,92.8333 124.5,95.5C 122.5,92.8333 120.5,90.1667 118.5,87.5C 117.357,84.8851 116.524,82.2184 116,79.5C 117.745,78.0443 119.578,76.711 121.5,75.5C 122.182,76.2427 122.849,76.9094 123.5,77.5 Z"/></g>
<g><path style="opacity:1" fill="#30614c" d="M 71.5,81.5 C 79.2183,85.8052 87.3849,87.8052 96,87.5C 101.828,85.9138 107.661,84.5805 113.5,83.5C 114.481,85.396 115.481,87.396 116.5,89.5C 115.675,90.3857 114.675,90.719 113.5,90.5C 113.232,92.099 113.566,93.4324 114.5,94.5C 114.657,95.8734 114.49,97.2068 114,98.5C 113.059,96.9386 111.892,95.6053 110.5,94.5C 98.3532,99.8658 86.1865,99.5324 74,93.5C 73.6667,93.8333 73.3333,94.1667 73,94.5C 71.7101,90.2695 71.2101,85.9362 71.5,81.5 Z"/></g>
<g><path style="opacity:1" fill="#3b5e4d" d="M 113.5,81.5 C 115.167,83.5 116.833,85.5 118.5,87.5C 120.5,90.1667 122.5,92.8333 124.5,95.5C 124.927,98.0098 125.593,100.343 126.5,102.5C 127.492,102.672 128.158,102.338 128.5,101.5C 129.932,99.6729 131.599,98.0063 133.5,96.5C 133.833,96.6667 134.167,96.8333 134.5,97C 132.845,98.4443 132.178,100.278 132.5,102.5C 130.852,103.81 129.186,105.143 127.5,106.5C 122.867,101.909 118.701,96.9093 115,91.5C 114.517,92.448 114.351,93.448 114.5,94.5C 113.566,93.4324 113.232,92.099 113.5,90.5C 114.675,90.719 115.675,90.3857 116.5,89.5C 115.481,87.396 114.481,85.396 113.5,83.5C 113.5,82.8333 113.5,82.1667 113.5,81.5 Z"/></g>
<g><path style="opacity:1" fill="#55332c" d="M 127.5,93.5 C 127.833,95.5 128.167,97.5 128.5,99.5C 128.5,100.167 128.5,100.833 128.5,101.5C 128.158,102.338 127.492,102.672 126.5,102.5C 126.249,97.4932 125.916,92.4932 125.5,87.5C 126.277,88.8822 126.944,90.8822 127.5,93.5 Z"/></g>
<g><path style="opacity:1" fill="#496255" d="M 138.5,85.5 C 138.123,87.258 137.456,88.9246 136.5,90.5C 136.709,91.086 137.043,91.586 137.5,92C 134.605,94.935 134.939,96.1017 138.5,95.5C 137.243,98.4274 135.243,100.761 132.5,102.5C 132.178,100.278 132.845,98.4443 134.5,97C 134.167,96.8333 133.833,96.6667 133.5,96.5C 131.599,98.0063 129.932,99.6729 128.5,101.5C 128.5,100.833 128.5,100.167 128.5,99.5C 131.833,94.8333 135.167,90.1667 138.5,85.5 Z"/></g>
<g><path style="opacity:1" fill="#534b41" d="M 124.5,87.5 C 124.833,87.5 125.167,87.5 125.5,87.5C 125.916,92.4932 126.249,97.4932 126.5,102.5C 125.593,100.343 124.927,98.0098 124.5,95.5C 124.5,92.8333 124.5,90.1667 124.5,87.5 Z"/></g>
<g><path style="opacity:1" fill="#5d685e" d="M 142.5,90.5 C 141.306,96.534 139.306,102.201 136.5,107.5C 136.5,107.167 136.5,106.833 136.5,106.5C 136.993,103.188 137.993,100.021 139.5,97C 139.43,96.2352 139.097,95.7352 138.5,95.5C 139.08,93.2512 140.413,91.5846 142.5,90.5 Z"/></g>
<g><path style="opacity:1" fill="#2a5642" d="M 71.5,75.5 C 71.5,77.5 71.5,79.5 71.5,81.5C 71.2101,85.9362 71.7101,90.2695 73,94.5C 73.3333,94.1667 73.6667,93.8333 74,93.5C 86.1865,99.5324 98.3532,99.8658 110.5,94.5C 111.892,95.6053 113.059,96.9386 114,98.5C 114.49,97.2068 114.657,95.8734 114.5,94.5C 116.611,99.2431 118.277,104.243 119.5,109.5C 118.522,109.811 117.855,110.478 117.5,111.5C 118.833,112.62 119.333,113.953 119,115.5C 117.611,113.773 115.944,112.439 114,111.5C 109.126,112.966 104.126,114.633 99,116.5C 96.2272,114.205 93.3938,114.371 90.5,117C 91.056,117.383 91.3893,117.883 91.5,118.5C 87.7251,117.445 84.0584,116.112 80.5,114.5C 75.3652,109.898 72.0319,104.231 70.5,97.5C 70.5,91.5 70.5,85.5 70.5,79.5C 70.2322,77.901 70.5655,76.5676 71.5,75.5 Z"/></g>
<g><path style="opacity:1" fill="#6c7d74" d="M 132.5,102.5 C 131.925,104.411 130.925,106.078 129.5,107.5C 128.833,107.5 128.5,107.833 128.5,108.5C 127.609,107.89 126.609,107.557 125.5,107.5C 124.69,104.354 122.69,102.687 119.5,102.5C 119.833,105.167 120.167,107.833 120.5,110.5C 119.833,110.5 119.5,110.167 119.5,109.5C 118.277,104.243 116.611,99.2431 114.5,94.5C 114.351,93.448 114.517,92.448 115,91.5C 118.701,96.9093 122.867,101.909 127.5,106.5C 129.186,105.143 130.852,103.81 132.5,102.5 Z"/></g>
<g><path style="opacity:1" fill="#1d2b22" d="M 138.5,95.5 C 139.097,95.7352 139.43,96.2352 139.5,97C 137.993,100.021 136.993,103.188 136.5,106.5C 135.792,108.378 134.626,110.045 133,111.5C 132.34,109.676 131.173,108.343 129.5,107.5C 130.925,106.078 131.925,104.411 132.5,102.5C 135.243,100.761 137.243,98.4274 138.5,95.5 Z"/></g>
<g><path style="opacity:1" fill="#091510" d="M 69.5,108.5 C 70.4329,130.019 75.7662,150.352 85.5,169.5C 87.1792,170.782 89.0126,171.782 91,172.5C 91.498,175.482 91.6646,178.482 91.5,181.5C 85.1667,181.5 78.8333,181.5 72.5,181.5C 70.9027,173.959 69.736,166.292 69,158.5C 68.5001,142.503 68.3334,126.503 68.5,110.5C 68.3284,109.508 68.6618,108.842 69.5,108.5 Z"/></g>
<g><path style="opacity:1" fill="#444d45" d="M 125.5,107.5 C 124.636,107.702 123.636,108.036 122.5,108.5C 124.404,111.855 124.737,115.188 123.5,118.5C 123.397,115.364 122.397,112.698 120.5,110.5C 120.167,107.833 119.833,105.167 119.5,102.5C 122.69,102.687 124.69,104.354 125.5,107.5 Z"/></g>
<g><path style="opacity:1" fill="#1f4030" d="M 177.5,107.5 C 177.657,108.873 177.49,110.207 177,111.5C 175.918,113.618 174.751,115.618 173.5,117.5C 174.138,115.54 174.138,113.707 173.5,112C 176.515,110.308 177.015,108.141 175,105.5C 172.104,107.533 168.937,108.866 165.5,109.5C 164.941,112.913 163.274,115.746 160.5,118C 159.216,118.684 158.049,118.517 157,117.5C 153.415,125.375 147.915,129.875 140.5,131C 137.323,134.009 133.99,136.843 130.5,139.5C 126.003,140.468 121.67,141.801 117.5,143.5C 116.914,143.291 116.414,142.957 116,142.5C 115.516,144.178 114.683,144.844 113.5,144.5C 112.522,144.189 111.855,143.522 111.5,142.5C 112.902,141.158 112.569,140.324 110.5,140C 115.735,137.271 121.069,135.771 126.5,135.5C 126.489,134.559 126.989,133.892 128,133.5C 129.796,133.913 131.463,133.913 133,133.5C 134.706,132.692 135.539,131.359 135.5,129.5C 137.821,128.375 140.154,128.208 142.5,129C 142.043,128.586 141.709,128.086 141.5,127.5C 143.122,125.561 144.956,125.228 147,126.5C 147.92,124.368 149.087,122.368 150.5,120.5C 155.968,116.705 160.302,112.039 163.5,106.5C 168.665,104.844 172.498,101.511 175,96.5C 176.666,97.3402 176.833,96.8402 175.5,95C 176.449,94.3828 177.282,94.5494 178,95.5C 178.465,94.0692 179.299,92.9025 180.5,92C 179.549,91.2825 179.383,90.4491 180,89.5C 181.363,90.8928 182.196,92.5595 182.5,94.5C 180.539,98.7493 178.872,103.083 177.5,107.5 Z"/></g>
<g><path style="opacity:1" fill="#272920" d="M 136.5,106.5 C 136.5,106.833 136.5,107.167 136.5,107.5C 136.371,109.216 136.038,110.883 135.5,112.5C 133.273,113.401 132.273,115.067 132.5,117.5C 130.712,120.548 129.212,123.882 128,127.5C 127.415,125.339 126.582,123.339 125.5,121.5C 126.045,117.11 127.045,112.776 128.5,108.5C 128.5,107.833 128.833,107.5 129.5,107.5C 131.173,108.343 132.34,109.676 133,111.5C 134.626,110.045 135.792,108.378 136.5,106.5 Z"/></g>
<g><path style="opacity:1" fill="#0a1b15" d="M 70.5,79.5 C 70.5,85.5 70.5,91.5 70.5,97.5C 69.8898,101.635 70.7232,105.301 73,108.5C 74.4603,113.469 75.7936,118.469 77,123.5C 77.6622,124.984 78.4955,126.317 79.5,127.5C 78.9569,127.56 78.6236,127.893 78.5,128.5C 80.7212,134.61 83.2212,140.61 86,146.5C 88.8218,148.654 90.9885,151.321 92.5,154.5C 95.4208,157.245 98.7541,159.412 102.5,161C 104.405,162.815 106.072,164.815 107.5,167C 109.246,167.471 110.913,168.138 112.5,169C 112.167,169.333 111.833,169.667 111.5,170C 113.709,171.873 115.542,174.04 117,176.5C 117.333,175.833 117.667,175.167 118,174.5C 120.734,175.362 120.901,176.195 118.5,177C 119.883,178.271 120.883,179.771 121.5,181.5C 111.5,181.5 101.5,181.5 91.5,181.5C 91.6646,178.482 91.498,175.482 91,172.5C 89.0126,171.782 87.1792,170.782 85.5,169.5C 75.7662,150.352 70.4329,130.019 69.5,108.5C 69.1729,98.6522 69.5062,88.9856 70.5,79.5 Z"/></g>
<g><path style="opacity:1" fill="#254e3b" d="M 119.5,109.5 C 119.5,110.167 119.833,110.5 120.5,110.5C 120.5,111.833 120.5,113.167 120.5,114.5C 120.297,116.044 119.63,117.378 118.5,118.5C 119.859,120.306 119.525,121.806 117.5,123C 115.567,123.251 113.734,123.751 112,124.5C 110.598,122.027 109.098,122.027 107.5,124.5C 106.459,122.009 105.626,122.009 105,124.5C 103.855,123.316 102.688,123.316 101.5,124.5C 98.7533,121.462 95.4199,119.462 91.5,118.5C 91.3893,117.883 91.056,117.383 90.5,117C 93.3938,114.371 96.2272,114.205 99,116.5C 104.126,114.633 109.126,112.966 114,111.5C 115.944,112.439 117.611,113.773 119,115.5C 119.333,113.953 118.833,112.62 117.5,111.5C 117.855,110.478 118.522,109.811 119.5,109.5 Z"/></g>
<g><path style="opacity:1" fill="#11281d" d="M 80.5,114.5 C 84.0584,116.112 87.7251,117.445 91.5,118.5C 95.4199,119.462 98.7533,121.462 101.5,124.5C 103.903,135.657 109.57,144.657 118.5,151.5C 117.448,151.649 116.448,151.483 115.5,151C 113.088,148.588 111.088,146.588 109.5,145C 107.002,142.784 105.335,140.45 104.5,138C 102.953,137.667 101.62,138.167 100.5,139.5C 99.5258,137.257 99.1924,134.924 99.5,132.5C 97.9397,132.481 96.4397,132.148 95,131.5C 91.4431,127.943 88.2764,124.776 85.5,122C 84.7734,120.601 84.2734,119.101 84,117.5C 81.6793,118.361 80.5126,117.361 80.5,114.5 Z"/></g>
<g><path style="opacity:1" fill="#60746b" d="M 120.5,110.5 C 122.397,112.698 123.397,115.364 123.5,118.5C 122.5,117.167 121.5,115.833 120.5,114.5C 120.5,113.167 120.5,111.833 120.5,110.5 Z"/></g>
<g><path style="opacity:1" fill="#52372c" d="M 125.5,107.5 C 126.609,107.557 127.609,107.89 128.5,108.5C 127.045,112.776 126.045,117.11 125.5,121.5C 125.167,121.5 124.833,121.5 124.5,121.5C 123.596,120.791 123.263,119.791 123.5,118.5C 124.737,115.188 124.404,111.855 122.5,108.5C 123.636,108.036 124.636,107.702 125.5,107.5 Z"/></g>
<g><path style="opacity:1" fill="#687770" d="M 132.5,117.5 C 131.622,122.469 129.955,127.135 127.5,131.5C 125.909,128.325 124.909,124.991 124.5,121.5C 124.833,121.5 125.167,121.5 125.5,121.5C 126.582,123.339 127.415,125.339 128,127.5C 129.212,123.882 130.712,120.548 132.5,117.5 Z"/></g>
<g><path style="opacity:1" fill="#1b3b2c" d="M 173.5,117.5 C 173.649,118.552 173.483,119.552 173,120.5C 169.255,125.398 165.755,130.398 162.5,135.5C 158.369,139.13 154.369,142.963 150.5,147C 147.757,149.038 144.757,150.538 141.5,151.5C 138.001,152.1 134.501,152.766 131,153.5C 123.793,152.981 117.96,149.981 113.5,144.5C 114.683,144.844 115.516,144.178 116,142.5C 116.414,142.957 116.914,143.291 117.5,143.5C 121.67,141.801 126.003,140.468 130.5,139.5C 133.99,136.843 137.323,134.009 140.5,131C 147.915,129.875 153.415,125.375 157,117.5C 158.049,118.517 159.216,118.684 160.5,118C 163.274,115.746 164.941,112.913 165.5,109.5C 168.937,108.866 172.104,107.533 175,105.5C 177.015,108.141 176.515,110.308 173.5,112C 174.138,113.707 174.138,115.54 173.5,117.5 Z"/></g>
<g><path style="opacity:0.997" fill="#081611" d="M 255.5,125.5 C 255.5,142.167 255.5,158.833 255.5,175.5C 253.863,177.475 252.196,179.475 250.5,181.5C 234.833,181.5 219.167,181.5 203.5,181.5C 203.693,178.692 204.36,176.025 205.5,173.5C 208.167,173.5 210.833,173.5 213.5,173.5C 213.281,172.325 213.614,171.325 214.5,170.5C 216.002,169.917 217.335,169.084 218.5,168C 217.833,167.667 217.167,167.333 216.5,167C 219.109,166.057 221.109,164.39 222.5,162C 224.473,161.505 226.473,161.338 228.5,161.5C 228.65,154.694 231.984,150.694 238.5,149.5C 238.595,146.642 239.762,144.309 242,142.5C 243.11,140.963 244.61,140.297 246.5,140.5C 246.215,138.712 246.548,137.045 247.5,135.5C 250.7,132.992 252.033,129.658 251.5,125.5C 252.833,125.5 254.167,125.5 255.5,125.5 Z"/></g>
<g><path style="opacity:1" fill="#050f0c" d="M 68.5,110.5 C 68.3334,126.503 68.5001,142.503 69,158.5C 69.736,166.292 70.9027,173.959 72.5,181.5C 70.5,181.5 68.5,181.5 66.5,181.5C 66.2667,161.016 66.2667,140.183 66.5,119C 66.4886,115.884 67.1553,113.051 68.5,110.5 Z"/></g>
</svg>
