<?xml version="1.0" encoding="UTF-8"?>
<!DOCTYPE svg PUBLIC "-//W3C//DTD SVG 1.1//EN" "http://www.w3.org/Graphics/SVG/1.1/DTD/svg11.dtd">
<svg xmlns="http://www.w3.org/2000/svg" version="1.1" width="256px" height="182px" style="shape-rendering:geometricPrecision; text-rendering:geometricPrecision; image-rendering:optimizeQuality; fill-rule:evenodd; clip-rule:evenodd" xmlns:xlink="http://www.w3.org/1999/xlink">
<g><path style="opacity:1" fill="#6c9bde" d="M 4.5,-0.5 C 30.5,-0.5 56.5,-0.5 82.5,-0.5C 85.1416,0.102276 87.4749,1.43561 89.5,3.5C 88.5291,4.96209 88.8624,6.29542 90.5,7.5C 91.757,13.3005 91.257,18.9672 89,24.5C 86.2956,29.0564 84.7956,29.0564 84.5,24.5C 85.2743,21.6692 86.2743,19.0025 87.5,16.5C 86.0695,16.4208 84.7362,16.7542 83.5,17.5C 83.6035,20.1835 82.9369,22.8502 81.5,25.5C 78.0504,24.7564 76.3838,26.0897 76.5,29.5C 74.8333,29.5 73.1667,29.5 71.5,29.5C 71.6495,30.552 71.4828,31.552 71,32.5C 67.5393,33.8172 64.7059,35.9839 62.5,39C 59.4748,39.3607 56.4748,39.8607 53.5,40.5C 44.9689,42.6767 36.9689,45.3434 29.5,48.5C 30.5,49.1667 31.5,49.8333 32.5,50.5C 30.6957,51.7681 28.6957,52.4348 26.5,52.5C 26.719,51.325 26.3857,50.325 25.5,49.5C 20.1113,51.9478 14.778,53.6145 9.5,54.5C 11.0777,55.2978 12.7444,55.7978 14.5,56C 12.1093,56.2868 9.77594,56.7868 7.5,57.5C 5.68916,55.8384 4.02249,55.6718 2.5,57C 3.5,57.3333 4.5,57.6667 5.5,58C 4.354,58.6449 3.354,59.4783 2.5,60.5C 1.58317,59.8728 0.583168,59.5394 -0.5,59.5C -0.5,41.5 -0.5,23.5 -0.5,5.5C 1.13696,3.52483 2.80363,1.52483 4.5,-0.5 Z"/></g>
<g><path style="opacity:1" fill="#6692d8" d="M 106.5,-0.5 C 123.833,-0.5 141.167,-0.5 158.5,-0.5C 161.008,1.23711 164.008,2.07044 167.5,2C 170.351,4.24819 173.685,5.08153 177.5,4.5C 177.5,6.16667 177.5,7.83333 177.5,9.5C 182.051,9.05271 186.384,9.71938 190.5,11.5C 192.436,14.208 192.936,17.208 192,20.5C 186.562,26.6123 180.562,31.9456 174,36.5C 173.667,35.8333 173.333,35.1667 173,34.5C 170.65,37.5166 167.983,40.1832 165,42.5C 161.152,39.4856 158.985,40.4856 158.5,45.5C 157.5,45.5 156.5,45.5 155.5,45.5C 151.966,43.2336 148.3,41.2336 144.5,39.5C 141.162,38.4991 137.829,37.4991 134.5,36.5C 132.438,35.2237 130.104,34.3903 127.5,34C 120.321,33.1787 113.321,33.3454 106.5,34.5C 105.29,34.9321 104.29,35.5987 103.5,36.5C 102.833,36.5 102.167,36.5 101.5,36.5C 101.297,34.9557 100.63,33.6223 99.5,32.5C 101.078,31.7022 102.744,31.2022 104.5,31C 105.126,30.2496 105.626,29.4162 106,28.5C 107.183,29.731 108.349,29.731 109.5,28.5C 111.563,25.2123 114.063,22.2123 117,19.5C 117.455,16.863 116.955,14.363 115.5,12C 116.054,10.4495 116.72,8.94946 117.5,7.5C 116.455,5.79509 115.122,4.29509 113.5,3C 113.833,2.66667 114.167,2.33333 114.5,2C 111.749,1.05722 109.083,0.223887 106.5,-0.5 Z"/></g>
<g><path style="opacity:0.999" fill="#5f8ed6" d="M 158.5,-0.5 C 188.833,-0.5 219.167,-0.5 249.5,-0.5C 251.475,1.13696 253.475,2.80363 255.5,4.5C 255.5,12.8333 255.5,21.1667 255.5,29.5C 254.842,30.3984 254.176,31.3984 253.5,32.5C 242.212,37.8126 230.545,41.1459 218.5,42.5C 218.5,43.5 218.5,44.5 218.5,45.5C 216.143,45.3367 213.81,45.5034 211.5,46C 197.292,49.0547 183.125,52.5547 169,56.5C 168.085,55.6721 167.419,54.6721 167,53.5C 166.617,54.056 166.117,54.3893 165.5,54.5C 163.5,52.8333 161.5,51.1667 159.5,49.5C 158.473,47.8058 157.139,46.4725 155.5,45.5C 156.5,45.5 157.5,45.5 158.5,45.5C 158.985,40.4856 161.152,39.4856 165,42.5C 167.983,40.1832 170.65,37.5166 173,34.5C 173.333,35.1667 173.667,35.8333 174,36.5C 180.562,31.9456 186.562,26.6123 192,20.5C 192.936,17.208 192.436,14.208 190.5,11.5C 186.384,9.71938 182.051,9.05271 177.5,9.5C 177.5,7.83333 177.5,6.16667 177.5,4.5C 173.685,5.08153 170.351,4.24819 167.5,2C 164.008,2.07044 161.008,1.23711 158.5,-0.5 Z"/></g>
<g><path style="opacity:1" fill="#7774ce" d="M 106.5,34.5 C 113.321,33.3454 120.321,33.1787 127.5,34C 130.104,34.3903 132.438,35.2237 134.5,36.5C 130.309,36.3079 126.642,36.3079 123.5,36.5C 127.449,36.3068 127.449,35.8068 123.5,35C 119.179,34.501 114.846,34.3343 110.5,34.5C 109.167,34.5 107.833,34.5 106.5,34.5 Z"/></g>
<g><path style="opacity:1" fill="#9d8ce3" d="M 110.5,34.5 C 114.846,34.3343 119.179,34.501 123.5,35C 127.449,35.8068 127.449,36.3068 123.5,36.5C 118.489,36.6659 113.489,36.4993 108.5,36C 109.416,35.7216 110.082,35.2216 110.5,34.5 Z"/></g>
<g><path style="opacity:1" fill="#6692d8" d="M 101.5,36.5 C 98.1788,40.1353 96.8455,44.4686 97.5,49.5C 97.178,51.7224 97.8446,53.5557 99.5,55C 98.7471,56.487 97.9138,56.6537 97,55.5C 90.034,57.1661 83.034,58.8327 76,60.5C 73.273,59.8118 70.6064,59.4785 68,59.5C 65.9757,59.7995 65.4757,60.6329 66.5,62C 63.1832,62.4983 59.8499,62.665 56.5,62.5C 56.5,64.1667 56.5,65.8333 56.5,67.5C 61.4367,67.3537 62.1034,68.3537 58.5,70.5C 61.5,71.3333 64.5,72.1667 67.5,73C 66.5704,73.9907 65.4038,74.4907 64,74.5C 59.947,71.847 55.947,71.847 52,74.5C 50.8438,73.0072 50.0104,73.1739 49.5,75C 49.8361,76.0299 50.5028,76.5299 51.5,76.5C 51.0472,77.4584 50.3805,78.2917 49.5,79C 50.1667,79.3333 50.8333,79.6667 51.5,80C 49.8934,81.049 49.2267,82.549 49.5,84.5C 48.6993,86.0418 48.366,87.7085 48.5,89.5C 47.8333,89.5 47.5,89.8333 47.5,90.5C 43.2198,91.7829 40.2198,94.4496 38.5,98.5C 37.3128,100.74 36.6462,103.24 36.5,106C 37.0305,108.817 37.3639,111.65 37.5,114.5C 37.5,116.167 37.5,117.833 37.5,119.5C 36.2262,123.856 36.2262,128.356 37.5,133C 37.1123,134.951 36.1123,136.451 34.5,137.5C 31.1972,136.463 28.6972,134.463 27,131.5C 26.8265,127.459 26.3265,123.459 25.5,119.5C 23.0243,118.191 21.0243,116.358 19.5,114C 23.9666,110.907 26.1333,106.741 26,101.5C 19.8573,99.3917 18.3573,95.5584 21.5,90C 20.4258,89.2613 19.7591,88.2613 19.5,87C 20.3862,84.8882 20.3862,82.7216 19.5,80.5C 16.8906,80.1699 15.2239,78.6699 14.5,76C 15.4506,75.2825 15.6172,74.4491 15,73.5C 12.5123,69.8478 9.67897,66.5145 6.5,63.5C 14.6317,60.6971 22.7983,58.0304 31,55.5C 31.414,55.9574 31.914,56.2907 32.5,56.5C 37.278,55.1734 41.778,53.1734 46,50.5C 49.1459,51.9421 52.1459,51.6088 55,49.5C 55.8732,49.7355 56.7065,50.0688 57.5,50.5C 62.3498,48.9209 67.3498,48.0875 72.5,48C 75.3771,47.0438 78.0438,45.7105 80.5,44C 86.9402,43.9469 92.1069,41.4469 96,36.5C 96.6667,37.1667 97.3333,37.8333 98,38.5C 98.7096,37.0267 99.8762,36.3601 101.5,36.5 Z"/></g>
<g><path style="opacity:1" fill="#755acb" d="M 106.5,34.5 C 107.833,34.5 109.167,34.5 110.5,34.5C 110.082,35.2216 109.416,35.7216 108.5,36C 113.489,36.4993 118.489,36.6659 123.5,36.5C 126.642,36.3079 130.309,36.3079 134.5,36.5C 137.829,37.4991 141.162,38.4991 144.5,39.5C 145.048,40.6885 145.381,41.8552 145.5,43C 148.833,45 152.167,47 155.5,49C 156.793,49.49 158.127,49.6567 159.5,49.5C 161.5,51.1667 163.5,52.8333 165.5,54.5C 168.849,58.8972 170.183,63.8972 169.5,69.5C 167.307,65.7306 165.14,61.7306 163,57.5C 161.89,55.9632 160.39,55.2965 158.5,55.5C 158.5,54.5 158.5,53.5 158.5,52.5C 154.603,50.8788 150.936,48.7121 147.5,46C 141.963,43.6542 136.297,41.8208 130.5,40.5C 130.082,39.7784 129.416,39.2784 128.5,39C 119.414,37.0354 110.414,37.0354 101.5,39C 102.381,38.2917 103.047,37.4584 103.5,36.5C 104.29,35.5987 105.29,34.9321 106.5,34.5 Z"/></g>
<g><path style="opacity:1" fill="#5a6ac6" d="M 101.5,36.5 C 102.167,36.5 102.833,36.5 103.5,36.5C 103.047,37.4584 102.381,38.2917 101.5,39C 110.414,37.0354 119.414,37.0354 128.5,39C 129.416,39.2784 130.082,39.7784 130.5,40.5C 127.873,39.9084 125.206,39.5751 122.5,39.5C 122.652,50.9661 126.985,60.4661 135.5,68C 136.448,68.4828 137.448,68.6495 138.5,68.5C 134.909,70.4882 131.242,72.4882 127.5,74.5C 121.36,71.0868 115.026,67.5868 108.5,64C 104.526,59.2205 100.86,54.3871 97.5,49.5C 96.8455,44.4686 98.1788,40.1353 101.5,36.5 Z"/></g>
<g><path style="opacity:1" fill="#887fd8" d="M 144.5,39.5 C 148.3,41.2336 151.966,43.2336 155.5,45.5C 157.139,46.4725 158.473,47.8058 159.5,49.5C 158.127,49.6567 156.793,49.49 155.5,49C 152.167,47 148.833,45 145.5,43C 145.381,41.8552 145.048,40.6885 144.5,39.5 Z"/></g>
<g><path style="opacity:1" fill="#5a85d2" d="M 255.5,29.5 C 255.5,37.8333 255.5,46.1667 255.5,54.5C 244.705,54.7045 234.205,56.3712 224,59.5C 223.586,59.0426 223.086,58.7093 222.5,58.5C 212.492,60.1395 202.659,62.4729 193,65.5C 192.505,67.4727 192.338,69.4727 192.5,71.5C 194.92,71.7076 197.253,71.3742 199.5,70.5C 201.776,71.2132 204.109,71.7132 206.5,72C 205.167,73 203.833,74 202.5,75C 203.672,75.4186 204.672,76.0853 205.5,77C 204.049,76.7374 202.716,76.9041 201.5,77.5C 202.127,78.4168 202.461,79.4168 202.5,80.5C 202.167,80.5 201.833,80.5 201.5,80.5C 200.29,80.0679 199.29,79.4013 198.5,78.5C 194.935,77.2134 191.268,77.2134 187.5,78.5C 185.514,75.6596 183.514,72.6596 181.5,69.5C 178.894,68.3483 176.227,68.1816 173.5,69C 172.244,69.4169 171.577,70.2502 171.5,71.5C 168.925,74.319 166.592,77.319 164.5,80.5C 161.318,79.9697 158.318,78.9697 155.5,77.5C 159.07,76.6146 162.737,75.6146 166.5,74.5C 167.763,72.9713 168.763,71.3046 169.5,69.5C 170.183,63.8972 168.849,58.8972 165.5,54.5C 166.117,54.3893 166.617,54.056 167,53.5C 167.419,54.6721 168.085,55.6721 169,56.5C 183.125,52.5547 197.292,49.0547 211.5,46C 213.81,45.5034 216.143,45.3367 218.5,45.5C 218.5,44.5 218.5,43.5 218.5,42.5C 230.545,41.1459 242.212,37.8126 253.5,32.5C 254.176,31.3984 254.842,30.3984 255.5,29.5 Z"/></g>
<g><path style="opacity:1" fill="#6978cc" d="M 130.5,40.5 C 136.297,41.8208 141.963,43.6542 147.5,46C 150.936,48.7121 154.603,50.8788 158.5,52.5C 158.5,53.5 158.5,54.5 158.5,55.5C 160.39,55.2965 161.89,55.9632 163,57.5C 165.14,61.7306 167.307,65.7306 169.5,69.5C 168.763,71.3046 167.763,72.9713 166.5,74.5C 162.737,75.6146 159.07,76.6146 155.5,77.5C 150.833,77.5 146.167,77.5 141.5,77.5C 141.82,74.1016 141.487,70.7683 140.5,67.5C 139.893,67.6236 139.56,67.9569 139.5,68.5C 139.167,68.5 138.833,68.5 138.5,68.5C 137.448,68.6495 136.448,68.4828 135.5,68C 126.985,60.4661 122.652,50.9661 122.5,39.5C 125.206,39.5751 127.873,39.9084 130.5,40.5 Z"/></g>
<g><path style="opacity:1" fill="#608cd4" d="M 97.5,49.5 C 100.86,54.3871 104.526,59.2205 108.5,64C 115.026,67.5868 121.36,71.0868 127.5,74.5C 124.683,75.0951 122.35,76.4284 120.5,78.5C 116.833,78.5 113.167,78.5 109.5,78.5C 108.596,77.791 108.263,76.791 108.5,75.5C 108.741,73.1016 108.074,71.1016 106.5,69.5C 106.047,67.4348 105.047,65.7682 103.5,64.5C 98.3118,62.6683 95.9785,64.6683 96.5,70.5C 95.5206,73.6248 95.1872,76.9581 95.5,80.5C 93.847,80.6596 92.5137,81.3263 91.5,82.5C 87.5219,78.1869 83.5219,73.8535 79.5,69.5C 77.5654,68.291 75.5654,68.4577 73.5,70C 71.7107,72.2794 69.7107,74.2794 67.5,76C 68.9733,76.7096 69.6399,77.8762 69.5,79.5C 68.3734,78.8783 67.3734,78.045 66.5,77C 62.3112,76.6645 58.1445,76.1645 54,75.5C 52.9302,75.528 52.0968,75.8614 51.5,76.5C 50.5028,76.5299 49.8361,76.0299 49.5,75C 50.0104,73.1739 50.8438,73.0072 52,74.5C 55.947,71.847 59.947,71.847 64,74.5C 65.4038,74.4907 66.5704,73.9907 67.5,73C 64.5,72.1667 61.5,71.3333 58.5,70.5C 62.1034,68.3537 61.4367,67.3537 56.5,67.5C 56.5,65.8333 56.5,64.1667 56.5,62.5C 59.8499,62.665 63.1832,62.4983 66.5,62C 65.4757,60.6329 65.9757,59.7995 68,59.5C 70.6064,59.4785 73.273,59.8118 76,60.5C 83.034,58.8327 90.034,57.1661 97,55.5C 97.9138,56.6537 98.7471,56.487 99.5,55C 97.8446,53.5557 97.178,51.7224 97.5,49.5 Z"/></g>
<g><path style="opacity:1" fill="#ad8794" d="M 103.5,64.5 C 102.5,64.5 101.5,64.5 100.5,64.5C 100.5,65.5 100.5,66.5 100.5,67.5C 99.5084,67.3284 98.8417,67.6618 98.5,68.5C 97.8401,69.964 97.5068,71.6307 97.5,73.5C 97.5561,75.6397 98.2227,77.3064 99.5,78.5C 99.5,78.8333 99.5,79.1667 99.5,79.5C 98.5,79.5 97.5,79.5 96.5,79.5C 96.5,76.5 96.5,73.5 96.5,70.5C 95.9785,64.6683 98.3118,62.6683 103.5,64.5 Z"/></g>
<g><path style="opacity:1" fill="#8477c1" d="M 150.5,64.5 C 154.377,65.527 156.377,68.1937 156.5,72.5C 155.167,72.5 153.833,72.5 152.5,72.5C 152.5,73.5 152.5,74.5 152.5,75.5C 150.5,75.8333 148.5,76.1667 146.5,76.5C 146.219,71.8324 147.552,67.8324 150.5,64.5 Z"/></g>
<g><path style="opacity:1" fill="#557fcd" d="M 255.5,54.5 C 255.5,73.8333 255.5,93.1667 255.5,112.5C 253.29,115.063 250.956,117.563 248.5,120C 249.451,120.718 249.617,121.551 249,122.5C 247,124.5 245,126.5 243,128.5C 243.915,132.856 242.415,136.356 238.5,139C 232.5,140.436 226.5,140.936 220.5,140.5C 219.676,143.785 219.176,147.118 219,150.5C 217.167,152 215.333,153.5 213.5,155C 208.648,155.815 203.981,155.648 199.5,154.5C 200.426,149.537 201.092,144.537 201.5,139.5C 204.112,138.629 206.779,137.963 209.5,137.5C 211.284,138.72 212.95,138.72 214.5,137.5C 214.629,135.784 214.962,134.117 215.5,132.5C 215.833,132.5 216.167,132.5 216.5,132.5C 216.5,134.5 216.5,136.5 216.5,138.5C 220.514,138.666 224.514,138.499 228.5,138C 230.852,137.424 231.852,135.924 231.5,133.5C 229.55,131.022 228.216,128.189 227.5,125C 229.03,122.803 230.864,121.97 233,122.5C 233.333,120.833 233.667,119.167 234,117.5C 234.333,118.5 234.667,119.5 235,120.5C 236.558,118.231 236.724,115.898 235.5,113.5C 234.483,116.028 233.316,116.028 232,113.5C 230.739,111.37 230.239,109.203 230.5,107C 226.927,105.629 223.427,104.129 220,102.5C 219.424,100.623 219.591,98.7892 220.5,97C 219.334,93.7207 218.334,93.8874 217.5,97.5C 218.309,99.0709 218.643,100.738 218.5,102.5C 217.4,100.723 216.566,98.7226 216,96.5C 215.329,95.7476 214.496,95.4142 213.5,95.5C 211.417,92.754 208.75,90.754 205.5,89.5C 205.353,86.2084 204.353,83.2084 202.5,80.5C 202.461,79.4168 202.127,78.4168 201.5,77.5C 202.716,76.9041 204.049,76.7374 205.5,77C 204.672,76.0853 203.672,75.4186 202.5,75C 203.833,74 205.167,73 206.5,72C 204.109,71.7132 201.776,71.2132 199.5,70.5C 197.253,71.3742 194.92,71.7076 192.5,71.5C 192.338,69.4727 192.505,67.4727 193,65.5C 202.659,62.4729 212.492,60.1395 222.5,58.5C 223.086,58.7093 223.586,59.0426 224,59.5C 234.205,56.3712 244.705,54.7045 255.5,54.5 Z"/></g>
<g><path style="opacity:1" fill="#54a4d9" d="M 79.5,69.5 C 75.5443,70.0527 75.5443,70.8861 79.5,72C 81.4641,73.451 82.7974,75.2843 83.5,77.5C 81.4156,75.2558 78.9156,73.5892 76,72.5C 73.0912,73.4285 71.9245,75.4285 72.5,78.5C 71.609,79.1098 70.609,79.4431 69.5,79.5C 69.6399,77.8762 68.9733,76.7096 67.5,76C 69.7107,74.2794 71.7107,72.2794 73.5,70C 75.5654,68.4577 77.5654,68.291 79.5,69.5 Z"/></g>
<g><path style="opacity:1" fill="#4085c6" d="M 187.5,78.5 C 187.5,78.8333 187.5,79.1667 187.5,79.5C 185.589,80.075 183.922,81.075 182.5,82.5C 183.006,78.9929 182.34,75.8263 180.5,73C 178.711,72.4795 177.044,72.8129 175.5,74C 173.963,75.7073 172.296,77.2073 170.5,78.5C 171.259,76.5642 172.259,74.7309 173.5,73C 173.164,71.9701 172.497,71.4701 171.5,71.5C 171.577,70.2502 172.244,69.4169 173.5,69C 176.227,68.1816 178.894,68.3483 181.5,69.5C 183.514,72.6596 185.514,75.6596 187.5,78.5 Z"/></g>
<g><path style="opacity:1" fill="#5989d1" d="M 83.5,77.5 C 84.6298,79.3146 85.2964,81.3146 85.5,83.5C 82.3452,85.0764 79.0118,86.0764 75.5,86.5C 74.8333,85.8333 74.1667,85.1667 73.5,84.5C 72.8505,82.5648 72.5172,80.5648 72.5,78.5C 71.9245,75.4285 73.0912,73.4285 76,72.5C 78.9156,73.5892 81.4156,75.2558 83.5,77.5 Z"/></g>
<g><path style="opacity:1" fill="#9f6054" d="M 98.5,68.5 C 99.2071,71.7861 99.5405,75.1194 99.5,78.5C 98.2227,77.3064 97.5561,75.6397 97.5,73.5C 97.5068,71.6307 97.8401,69.964 98.5,68.5 Z"/></g>
<g><path style="opacity:1" fill="#917070" d="M 106.5,69.5 C 108.074,71.1016 108.741,73.1016 108.5,75.5C 106.926,73.8984 106.259,71.8984 106.5,69.5 Z"/></g>
<g><path style="opacity:1" fill="#845660" d="M 100.5,67.5 C 101.167,67.5 101.5,67.8333 101.5,68.5C 100.833,72.1667 100.167,75.8333 99.5,79.5C 99.5,79.1667 99.5,78.8333 99.5,78.5C 99.5405,75.1194 99.2071,71.7861 98.5,68.5C 98.8417,67.6618 99.5084,67.3284 100.5,67.5 Z"/></g>
<g><path style="opacity:1" fill="#7d84b1" d="M 101.5,68.5 C 103.397,70.6975 104.397,73.3642 104.5,76.5C 104.5,77.5 104.5,78.5 104.5,79.5C 101.545,80.1587 98.5448,80.4921 95.5,80.5C 95.1872,76.9581 95.5206,73.6248 96.5,70.5C 96.5,73.5 96.5,76.5 96.5,79.5C 97.5,79.5 98.5,79.5 99.5,79.5C 100.167,75.8333 100.833,72.1667 101.5,68.5 Z"/></g>
<g><path style="opacity:1" fill="#7074a3" d="M 139.5,68.5 C 139.56,67.9569 139.893,67.6236 140.5,67.5C 141.487,70.7683 141.82,74.1016 141.5,77.5C 146.167,77.5 150.833,77.5 155.5,77.5C 158.318,78.9697 161.318,79.9697 164.5,80.5C 164.5,80.8333 164.5,81.1667 164.5,81.5C 159.194,80.5233 153.861,79.5233 148.5,78.5C 147.5,78.5 146.5,78.5 145.5,78.5C 143.833,78.5 142.167,78.5 140.5,78.5C 140.969,75.6067 139.969,73.6067 137.5,72.5C 138.29,71.2058 139.29,70.0391 140.5,69C 140.272,68.6012 139.938,68.4346 139.5,68.5 Z"/></g>
<g><path style="opacity:1" fill="#62aed4" d="M 171.5,71.5 C 172.497,71.4701 173.164,71.9701 173.5,73C 172.259,74.7309 171.259,76.5642 170.5,78.5C 169.599,79.2905 168.932,80.2905 168.5,81.5C 166.386,82.3602 165.22,84.0268 165,86.5C 164.329,87.2524 163.496,87.5858 162.5,87.5C 162.971,85.4214 163.637,83.4214 164.5,81.5C 164.5,81.1667 164.5,80.8333 164.5,80.5C 166.592,77.319 168.925,74.319 171.5,71.5 Z"/></g>
<g><path style="opacity:1" fill="#6e8fc7" d="M 69.5,79.5 C 70.609,79.4431 71.609,79.1098 72.5,78.5C 72.5172,80.5648 72.8505,82.5648 73.5,84.5C 71.7541,82.7484 69.7541,81.4151 67.5,80.5C 67.0472,79.5416 66.3805,78.7083 65.5,78C 58.5062,75.8729 53.5062,78.0396 50.5,84.5C 50.1667,84.5 49.8333,84.5 49.5,84.5C 49.2267,82.549 49.8934,81.049 51.5,80C 50.8333,79.6667 50.1667,79.3333 49.5,79C 50.3805,78.2917 51.0472,77.4584 51.5,76.5C 52.0968,75.8614 52.9302,75.528 54,75.5C 58.1445,76.1645 62.3112,76.6645 66.5,77C 67.3734,78.045 68.3734,78.8783 69.5,79.5 Z"/></g>
<g><path style="opacity:1" fill="#c18968" d="M 103.5,64.5 C 105.047,65.7682 106.047,67.4348 106.5,69.5C 106.259,71.8984 106.926,73.8984 108.5,75.5C 108.263,76.791 108.596,77.791 109.5,78.5C 109.5,80.8333 109.5,83.1667 109.5,85.5C 108.167,85.5 106.833,85.5 105.5,85.5C 105.81,82.2869 105.477,79.2869 104.5,76.5C 104.397,73.3642 103.397,70.6975 101.5,68.5C 101.5,67.8333 101.167,67.5 100.5,67.5C 100.5,66.5 100.5,65.5 100.5,64.5C 101.5,64.5 102.5,64.5 103.5,64.5 Z"/></g>
<g><path style="opacity:1" fill="#1f2771" d="M 138.5,68.5 C 138.833,68.5 139.167,68.5 139.5,68.5C 139.938,68.4346 140.272,68.6012 140.5,69C 139.29,70.0391 138.29,71.2058 137.5,72.5C 135.863,74.4752 134.196,76.4752 132.5,78.5C 128.5,78.5 124.5,78.5 120.5,78.5C 122.35,76.4284 124.683,75.0951 127.5,74.5C 131.242,72.4882 134.909,70.4882 138.5,68.5 Z"/></g>
<g><path style="opacity:1" fill="#8e7c86" d="M 198.5,78.5 C 194.766,78.3227 191.099,78.6561 187.5,79.5C 187.5,79.1667 187.5,78.8333 187.5,78.5C 191.268,77.2134 194.935,77.2134 198.5,78.5 Z"/></g>
<g><path style="opacity:1" fill="#ca9d84" d="M 67.5,80.5 C 67.6287,82.2161 67.962,83.8828 68.5,85.5C 67.1805,84.0582 65.5138,83.3915 63.5,83.5C 61.5497,81.2472 59.2163,80.9139 56.5,82.5C 53.5222,83.4777 51.5222,85.4777 50.5,88.5C 49.6457,87.3684 49.6457,86.035 50.5,84.5C 53.5062,78.0396 58.5062,75.8729 65.5,78C 66.3805,78.7083 67.0472,79.5416 67.5,80.5 Z"/></g>
<g><path style="opacity:1" fill="#62afd7" d="M 79.5,69.5 C 83.5219,73.8535 87.5219,78.1869 91.5,82.5C 91.5,82.8333 91.5,83.1667 91.5,83.5C 90.71,84.6085 90.21,85.9419 90,87.5C 88.9887,88.3366 87.8221,88.67 86.5,88.5C 86.7845,86.5853 86.4511,84.9187 85.5,83.5C 85.2964,81.3146 84.6298,79.3146 83.5,77.5C 82.7974,75.2843 81.4641,73.451 79.5,72C 75.5443,70.8861 75.5443,70.0527 79.5,69.5 Z"/></g>
<g><path style="opacity:1" fill="#9cb1ca" d="M 104.5,79.5 C 104.5,80.8333 104.5,82.1667 104.5,83.5C 101.367,84.2651 98.2003,84.9317 95,85.5C 93.3189,85.3917 92.1522,84.7251 91.5,83.5C 91.5,83.1667 91.5,82.8333 91.5,82.5C 92.5137,81.3263 93.847,80.6596 95.5,80.5C 98.5448,80.4921 101.545,80.1587 104.5,79.5 Z"/></g>
<g><path style="opacity:1" fill="#e5e6e8" d="M 129.5,79.5 C 129.5,80.5 129.5,81.5 129.5,82.5C 128.5,85.1667 127.5,87.8333 126.5,90.5C 125.833,90.5 125.5,90.8333 125.5,91.5C 124.391,91.4431 123.391,91.1098 122.5,90.5C 120.892,87.2003 119.225,83.8669 117.5,80.5C 121.445,79.5091 125.445,79.1758 129.5,79.5 Z"/></g>
<g><path style="opacity:1" fill="#b38f7f" d="M 145.5,78.5 C 146.5,78.5 147.5,78.5 148.5,78.5C 148.702,80.9496 148.369,83.283 147.5,85.5C 146.833,85.5 146.167,85.5 145.5,85.5C 145.5,83.1667 145.5,80.8333 145.5,78.5 Z"/></g>
<g><path style="opacity:1" fill="#4a79c5" d="M 182.5,82.5 C 181.488,83.8717 180.488,85.205 179.5,86.5C 175.988,86.0764 172.655,85.0764 169.5,83.5C 169.167,82.8333 168.833,82.1667 168.5,81.5C 168.932,80.2905 169.599,79.2905 170.5,78.5C 172.296,77.2073 173.963,75.7073 175.5,74C 177.044,72.8129 178.711,72.4795 180.5,73C 182.34,75.8263 183.006,78.9929 182.5,82.5 Z"/></g>
<g><path style="opacity:1" fill="#80677f" d="M 196.5,81.5 C 197.167,82.1667 197.833,82.8333 198.5,83.5C 194.455,82.0702 190.788,82.7368 187.5,85.5C 187.414,84.5041 187.748,83.6708 188.5,83C 191.063,81.9207 193.729,81.4207 196.5,81.5 Z"/></g>
<g><path style="opacity:1" fill="#a06b63" d="M 201.5,80.5 C 201.833,80.5 202.167,80.5 202.5,80.5C 204.353,83.2084 205.353,86.2084 205.5,89.5C 204.167,89.5 202.833,89.5 201.5,89.5C 200.87,87.2504 199.87,85.2504 198.5,83.5C 197.833,82.8333 197.167,82.1667 196.5,81.5C 198.415,81.7845 200.081,81.4511 201.5,80.5 Z"/></g>
<g><path style="opacity:1" fill="#807da5" d="M 63.5,83.5 C 60.4867,83.1072 57.8201,83.7739 55.5,85.5C 55.5569,84.391 55.8902,83.391 56.5,82.5C 59.2163,80.9139 61.5497,81.2472 63.5,83.5 Z"/></g>
<g><path style="opacity:1" fill="#7d93b6" d="M 109.5,78.5 C 113.167,78.5 116.833,78.5 120.5,78.5C 124.5,78.5 128.5,78.5 132.5,78.5C 131.791,79.404 130.791,79.7373 129.5,79.5C 125.445,79.1758 121.445,79.5091 117.5,80.5C 119.225,83.8669 120.892,87.2003 122.5,90.5C 121.791,91.404 120.791,91.7373 119.5,91.5C 118.625,89.4319 117.459,87.4319 116,85.5C 115.722,86.4158 115.222,87.0825 114.5,87.5C 113.448,85.744 111.781,85.0773 109.5,85.5C 109.5,83.1667 109.5,80.8333 109.5,78.5 Z"/></g>
<g><path style="opacity:1" fill="#88a0bb" d="M 148.5,78.5 C 153.861,79.5233 159.194,80.5233 164.5,81.5C 163.637,83.4214 162.971,85.4214 162.5,87.5C 159.026,86.1143 155.526,84.781 152,83.5C 150.594,84.4138 149.094,85.0805 147.5,85.5C 148.369,83.283 148.702,80.9496 148.5,78.5 Z"/></g>
<g><path style="opacity:1" fill="#5378c3" d="M 198.5,83.5 C 199.87,85.2504 200.87,87.2504 201.5,89.5C 197.189,89.3263 193.189,90.3263 189.5,92.5C 187.205,91.8645 185.539,90.5311 184.5,88.5C 185.167,87.1667 186.167,86.1667 187.5,85.5C 190.788,82.7368 194.455,82.0702 198.5,83.5 Z"/></g>
<g><path style="opacity:1" fill="#a17370" d="M 56.5,82.5 C 55.8902,83.391 55.5569,84.391 55.5,85.5C 54.596,86.209 54.2627,87.209 54.5,88.5C 53.1667,88.5 51.8333,88.5 50.5,88.5C 51.5222,85.4777 53.5222,83.4777 56.5,82.5 Z"/></g>
<g><path style="opacity:1" fill="#8f97a3" d="M 137.5,72.5 C 139.969,73.6067 140.969,75.6067 140.5,78.5C 142.167,78.5 143.833,78.5 145.5,78.5C 145.5,80.8333 145.5,83.1667 145.5,85.5C 143.958,84.6993 142.292,84.366 140.5,84.5C 140.198,87.0593 140.532,89.3926 141.5,91.5C 141.5,91.8333 141.5,92.1667 141.5,92.5C 140.833,92.8333 140.167,93.1667 139.5,93.5C 139.672,92.5084 139.338,91.8417 138.5,91.5C 138.5,91.1667 138.5,90.8333 138.5,90.5C 139.139,89.9032 139.472,89.0698 139.5,88C 138.6,84.4674 137.6,80.9674 136.5,77.5C 135.749,78.376 135.249,79.376 135,80.5C 134.583,79.244 133.75,78.5774 132.5,78.5C 134.196,76.4752 135.863,74.4752 137.5,72.5 Z"/></g>
<g><path style="opacity:1" fill="#938898" d="M 104.5,76.5 C 105.477,79.2869 105.81,82.2869 105.5,85.5C 106.833,85.5 108.167,85.5 109.5,85.5C 108.22,86.9313 106.553,87.5979 104.5,87.5C 104.5,86.1667 104.5,84.8333 104.5,83.5C 104.5,82.1667 104.5,80.8333 104.5,79.5C 104.5,78.5 104.5,77.5 104.5,76.5 Z"/></g>
<g><path style="opacity:1" fill="#b8b8b9" d="M 138.5,90.5 C 136.636,87.2771 134.636,84.1104 132.5,81C 131.212,80.7613 130.212,81.2613 129.5,82.5C 129.5,81.5 129.5,80.5 129.5,79.5C 130.791,79.7373 131.791,79.404 132.5,78.5C 133.75,78.5774 134.583,79.244 135,80.5C 135.249,79.376 135.749,78.376 136.5,77.5C 137.6,80.9674 138.6,84.4674 139.5,88C 139.472,89.0698 139.139,89.9032 138.5,90.5 Z"/></g>
<g><path style="opacity:1" fill="#c39b80" d="M 187.5,79.5 C 184.188,84.8045 180.521,89.8045 176.5,94.5C 176.394,91.3855 177.394,88.7188 179.5,86.5C 180.488,85.205 181.488,83.8717 182.5,82.5C 183.922,81.075 185.589,80.075 187.5,79.5 Z"/></g>
<g><path style="opacity:1" fill="#6983bd" d="M 109.5,85.5 C 111.781,85.0773 113.448,85.744 114.5,87.5C 114.5,88.8333 114.5,90.1667 114.5,91.5C 113.833,91.8333 113.167,92.1667 112.5,92.5C 110.097,92.448 107.764,92.7814 105.5,93.5C 101.291,92.7957 97.6239,94.129 94.5,97.5C 94.0269,98.9063 93.0269,99.573 91.5,99.5C 90.391,99.5569 89.391,99.8902 88.5,100.5C 87.7822,98.8632 87.6155,97.1966 88,95.5C 89.5185,94.8366 90.6851,93.8366 91.5,92.5C 95.4618,90.0251 99.7951,88.3584 104.5,87.5C 106.553,87.5979 108.22,86.9313 109.5,85.5 Z"/></g>
<g><path style="opacity:1" fill="#2d3e60" d="M 138.5,90.5 C 138.5,90.8333 138.5,91.1667 138.5,91.5C 133.075,85.7818 129.409,86.4484 127.5,93.5C 126.614,92.675 126.281,91.675 126.5,90.5C 127.5,87.8333 128.5,85.1667 129.5,82.5C 130.212,81.2613 131.212,80.7613 132.5,81C 134.636,84.1104 136.636,87.2771 138.5,90.5 Z"/></g>
<g><path style="opacity:1" fill="#8aa5c2" d="M 169.5,83.5 C 172.655,85.0764 175.988,86.0764 179.5,86.5C 177.394,88.7188 176.394,91.3855 176.5,94.5C 175.833,94.5 175.5,94.8333 175.5,95.5C 173.359,93.3302 171.359,90.9969 169.5,88.5C 168.212,86.7015 168.212,85.0348 169.5,83.5 Z"/></g>
<g><path style="opacity:1" fill="#8692a7" d="M 49.5,84.5 C 49.8333,84.5 50.1667,84.5 50.5,84.5C 49.6457,86.035 49.6457,87.3684 50.5,88.5C 51.8333,88.5 53.1667,88.5 54.5,88.5C 54.5,88.8333 54.5,89.1667 54.5,89.5C 52.5,89.5 50.5,89.5 48.5,89.5C 48.366,87.7085 48.6993,86.0418 49.5,84.5 Z"/></g>
<g><path style="opacity:1" fill="#608ad1" d="M 63.5,83.5 C 65.5138,83.3915 67.1805,84.0582 68.5,85.5C 69.1667,86.5 69.8333,87.5 70.5,88.5C 69.493,90.522 67.8263,91.8553 65.5,92.5C 64.5,92.5 63.5,92.5 62.5,92.5C 60.6086,89.8283 57.9419,88.8283 54.5,89.5C 54.5,89.1667 54.5,88.8333 54.5,88.5C 54.2627,87.209 54.596,86.209 55.5,85.5C 57.8201,83.7739 60.4867,83.1072 63.5,83.5 Z"/></g>
<g><path style="opacity:1" fill="#a1bcd4" d="M 85.5,83.5 C 86.4511,84.9187 86.7845,86.5853 86.5,88.5C 85.5084,88.3284 84.8417,88.6618 84.5,89.5C 82.2972,89.6036 80.2972,90.2702 78.5,91.5C 78.5,90.8333 78.1667,90.5 77.5,90.5C 76.8333,89.1667 76.1667,87.8333 75.5,86.5C 79.0118,86.0764 82.3452,85.0764 85.5,83.5 Z"/></g>
<g><path style="opacity:1" fill="#b67b5a" d="M 198.5,78.5 C 199.29,79.4013 200.29,80.0679 201.5,80.5C 200.081,81.4511 198.415,81.7845 196.5,81.5C 193.729,81.4207 191.063,81.9207 188.5,83C 187.748,83.6708 187.414,84.5041 187.5,85.5C 186.167,86.1667 185.167,87.1667 184.5,88.5C 182.103,91.309 180.77,94.6424 180.5,98.5C 180.5,98.8333 180.5,99.1667 180.5,99.5C 179.425,100.562 178.425,100.562 177.5,99.5C 176.691,97.9291 176.357,96.2624 176.5,94.5C 180.521,89.8045 184.188,84.8045 187.5,79.5C 191.099,78.6561 194.766,78.3227 198.5,78.5 Z"/></g>
<g><path style="opacity:1" fill="#80cae9" d="M 47.5,90.5 C 48.8734,90.3433 50.2068,90.51 51.5,91C 49.6854,91.7568 48.0188,92.5902 46.5,93.5C 43.6057,94.8823 41.1057,96.8823 39,99.5C 38.6012,99.2716 38.4346,98.9382 38.5,98.5C 40.2198,94.4496 43.2198,91.7829 47.5,90.5 Z"/></g>
<g><path style="opacity:1" fill="#56a8d0" d="M 47.5,90.5 C 47.5,89.8333 47.8333,89.5 48.5,89.5C 50.5,89.5 52.5,89.5 54.5,89.5C 57.9419,88.8283 60.6086,89.8283 62.5,92.5C 65.3055,94.475 67.6388,96.975 69.5,100C 67.5722,101.681 67.2388,103.514 68.5,105.5C 67.5,105.167 66.8333,104.5 66.5,103.5C 65.4778,100.478 63.4778,98.4777 60.5,97.5C 60.4257,95.5891 59.4257,94.4224 57.5,94C 53.8484,93.5014 50.1817,93.3347 46.5,93.5C 48.0188,92.5902 49.6854,91.7568 51.5,91C 50.2068,90.51 48.8734,90.3433 47.5,90.5 Z"/></g>
<g><path style="opacity:1" fill="#bb8463" d="M 67.5,80.5 C 69.7541,81.4151 71.7541,82.7484 73.5,84.5C 74.1667,85.1667 74.8333,85.8333 75.5,86.5C 76.1667,87.8333 76.8333,89.1667 77.5,90.5C 77.665,93.8499 77.4983,97.1832 77,100.5C 76.2917,99.6195 75.4584,98.9528 74.5,98.5C 74.7373,97.209 74.404,96.209 73.5,95.5C 73.2927,92.7594 72.2927,90.4261 70.5,88.5C 69.8333,87.5 69.1667,86.5 68.5,85.5C 67.962,83.8828 67.6287,82.2161 67.5,80.5 Z"/></g>
<g><path style="opacity:1" fill="#6b98db" d="M 82.5,-0.5 C 90.5,-0.5 98.5,-0.5 106.5,-0.5C 109.083,0.223887 111.749,1.05722 114.5,2C 114.167,2.33333 113.833,2.66667 113.5,3C 115.122,4.29509 116.455,5.79509 117.5,7.5C 116.72,8.94946 116.054,10.4495 115.5,12C 116.955,14.363 117.455,16.863 117,19.5C 114.063,22.2123 111.563,25.2123 109.5,28.5C 108.349,29.731 107.183,29.731 106,28.5C 105.626,29.4162 105.126,30.2496 104.5,31C 102.744,31.2022 101.078,31.7022 99.5,32.5C 100.63,33.6223 101.297,34.9557 101.5,36.5C 99.8762,36.3601 98.7096,37.0267 98,38.5C 97.3333,37.8333 96.6667,37.1667 96,36.5C 92.1069,41.4469 86.9402,43.9469 80.5,44C 78.0438,45.7105 75.3771,47.0438 72.5,48C 67.3498,48.0875 62.3498,48.9209 57.5,50.5C 56.7065,50.0688 55.8732,49.7355 55,49.5C 52.1459,51.6088 49.1459,51.9421 46,50.5C 41.778,53.1734 37.278,55.1734 32.5,56.5C 31.914,56.2907 31.414,55.9574 31,55.5C 22.7983,58.0304 14.6317,60.6971 6.5,63.5C 9.67897,66.5145 12.5123,69.8478 15,73.5C 15.6172,74.4491 15.4506,75.2825 14.5,76C 15.2239,78.6699 16.8906,80.1699 19.5,80.5C 20.3862,82.7216 20.3862,84.8882 19.5,87C 19.7591,88.2613 20.4258,89.2613 21.5,90C 18.3573,95.5584 19.8573,99.3917 26,101.5C 26.1333,106.741 23.9666,110.907 19.5,114C 21.0243,116.358 23.0243,118.191 25.5,119.5C 26.3265,123.459 26.8265,127.459 27,131.5C 28.6972,134.463 31.1972,136.463 34.5,137.5C 36.1123,136.451 37.1123,134.951 37.5,133C 36.2262,128.356 36.2262,123.856 37.5,119.5C 37.6401,125.674 38.6401,131.674 40.5,137.5C 41.9187,138.451 43.5853,138.784 45.5,138.5C 47.8333,138.5 50.1667,138.5 52.5,138.5C 52.6633,136.143 52.4966,133.81 52,131.5C 49.7822,132.547 47.6156,133.547 45.5,134.5C 45.0679,133.29 44.4013,132.29 43.5,131.5C 43.5,128.167 43.5,124.833 43.5,121.5C 46.3915,122.403 49.3915,122.736 52.5,122.5C 52.298,124.95 52.6314,127.283 53.5,129.5C 53.3339,135.176 53.5006,140.843 54,146.5C 54.2794,149.457 55.1127,152.123 56.5,154.5C 57.7079,155.234 59.0413,155.567 60.5,155.5C 67.5951,157.089 73.5951,160.589 78.5,166C 80.4727,166.495 82.4727,166.662 84.5,166.5C 84.5,164.5 84.5,162.5 84.5,160.5C 85.3019,161.952 85.8019,163.618 86,165.5C 87.3561,166.38 88.8561,166.714 90.5,166.5C 90.6107,167.117 90.944,167.617 91.5,168C 96.7074,168.759 101.874,168.592 107,167.5C 112.517,168.454 118.017,169.454 123.5,170.5C 123.5,169.167 123.5,167.833 123.5,166.5C 123.972,168.531 124.972,170.198 126.5,171.5C 139.849,176.103 153.516,179.437 167.5,181.5C 133.833,181.5 100.167,181.5 66.5,181.5C 64.9092,179.563 63.2425,177.563 61.5,175.5C 64.7774,174.046 65.1107,171.88 62.5,169C 60.1009,168.289 57.7676,168.456 55.5,169.5C 54.3348,168.509 53.1681,167.509 52,166.5C 46.0222,164.928 40.1888,162.928 34.5,160.5C 31.5432,158.842 29.2099,156.509 27.5,153.5C 17.9731,151.132 10.9731,145.632 6.5,137C 4.02065,135.68 1.68731,134.18 -0.5,132.5C -0.5,108.167 -0.5,83.8333 -0.5,59.5C 0.583168,59.5394 1.58317,59.8728 2.5,60.5C 3.354,59.4783 4.354,58.6449 5.5,58C 4.5,57.6667 3.5,57.3333 2.5,57C 4.02249,55.6718 5.68916,55.8384 7.5,57.5C 9.77594,56.7868 12.1093,56.2868 14.5,56C 12.7444,55.7978 11.0777,55.2978 9.5,54.5C 14.778,53.6145 20.1113,51.9478 25.5,49.5C 26.3857,50.325 26.719,51.325 26.5,52.5C 28.6957,52.4348 30.6957,51.7681 32.5,50.5C 31.5,49.8333 30.5,49.1667 29.5,48.5C 36.9689,45.3434 44.9689,42.6767 53.5,40.5C 56.4748,39.8607 59.4748,39.3607 62.5,39C 64.7059,35.9839 67.5393,33.8172 71,32.5C 71.4828,31.552 71.6495,30.552 71.5,29.5C 73.1667,29.5 74.8333,29.5 76.5,29.5C 76.3838,26.0897 78.0504,24.7564 81.5,25.5C 82.9369,22.8502 83.6035,20.1835 83.5,17.5C 84.7362,16.7542 86.0695,16.4208 87.5,16.5C 86.2743,19.0025 85.2743,21.6692 84.5,24.5C 84.7956,29.0564 86.2956,29.0564 89,24.5C 91.257,18.9672 91.757,13.3005 90.5,7.5C 88.8624,6.29542 88.5291,4.96209 89.5,3.5C 87.4749,1.43561 85.1416,0.102276 82.5,-0.5 Z"/></g>
<g><path style="opacity:1" fill="#3a5987" d="M 138.5,91.5 C 139.338,91.8417 139.672,92.5084 139.5,93.5C 135.293,93.3374 131.126,93.6707 127,94.5C 126.167,94.3333 125.333,94.1667 124.5,94C 125.252,93.3292 125.586,92.4959 125.5,91.5C 125.5,90.8333 125.833,90.5 126.5,90.5C 126.281,91.675 126.614,92.675 127.5,93.5C 129.409,86.4484 133.075,85.7818 138.5,91.5 Z"/></g>
<g><path style="opacity:1" fill="#9db3c9" d="M 70.5,88.5 C 72.2927,90.4261 73.2927,92.7594 73.5,95.5C 73.1667,95.5 72.8333,95.5 72.5,95.5C 71.71,96.6085 71.21,97.9419 71,99.5C 69.1581,97.1364 67.3247,94.8031 65.5,92.5C 67.8263,91.8553 69.493,90.522 70.5,88.5 Z"/></g>
<g><path style="opacity:1" fill="#5881b3" d="M 91.5,83.5 C 92.1522,84.7251 93.3189,85.3917 95,85.5C 98.2003,84.9317 101.367,84.2651 104.5,83.5C 104.5,84.8333 104.5,86.1667 104.5,87.5C 99.7951,88.3584 95.4618,90.0251 91.5,92.5C 88.715,91.9162 87.0483,92.9162 86.5,95.5C 84.2453,96.2147 82.4119,97.548 81,99.5C 80.2246,97.0507 81.058,95.384 83.5,94.5C 84.4519,92.9547 84.7852,91.288 84.5,89.5C 84.8417,88.6618 85.5084,88.3284 86.5,88.5C 87.8221,88.67 88.9887,88.3366 90,87.5C 90.21,85.9419 90.71,84.6085 91.5,83.5 Z"/></g>
<g><path style="opacity:1" fill="#65b1d6" d="M 201.5,89.5 C 202.833,89.5 204.167,89.5 205.5,89.5C 208.75,90.754 211.417,92.754 213.5,95.5C 212.167,95.1667 210.833,94.8333 209.5,94.5C 198.543,89.4656 190.377,92.4656 185,103.5C 184.51,102.207 184.343,100.873 184.5,99.5C 186.167,97.1667 187.833,94.8333 189.5,92.5C 193.189,90.3263 197.189,89.3263 201.5,89.5 Z"/></g>
<g><path style="opacity:1" fill="#3b60a4" d="M 105.5,93.5 C 101.725,94.555 98.0584,95.8883 94.5,97.5C 97.6239,94.129 101.291,92.7957 105.5,93.5 Z"/></g>
<g><path style="opacity:1" fill="#94a9bd" d="M 184.5,88.5 C 185.539,90.5311 187.205,91.8645 189.5,92.5C 187.833,94.8333 186.167,97.1667 184.5,99.5C 184.167,99.5 183.833,99.5 183.5,99.5C 183.196,97.2043 182.196,96.871 180.5,98.5C 180.77,94.6424 182.103,91.309 184.5,88.5 Z"/></g>
<g><path style="opacity:1" fill="#4d77c6" d="M 216.5,132.5 C 217.098,127.187 217.431,121.854 217.5,116.5C 217.833,111.833 218.167,107.167 218.5,102.5C 218.643,100.738 218.309,99.0709 217.5,97.5C 218.334,93.8874 219.334,93.7207 220.5,97C 219.591,98.7892 219.424,100.623 220,102.5C 223.427,104.129 226.927,105.629 230.5,107C 230.239,109.203 230.739,111.37 232,113.5C 233.316,116.028 234.483,116.028 235.5,113.5C 236.724,115.898 236.558,118.231 235,120.5C 234.667,119.5 234.333,118.5 234,117.5C 233.667,119.167 233.333,120.833 233,122.5C 230.864,121.97 229.03,122.803 227.5,125C 228.216,128.189 229.55,131.022 231.5,133.5C 231.852,135.924 230.852,137.424 228.5,138C 224.514,138.499 220.514,138.666 216.5,138.5C 216.5,136.5 216.5,134.5 216.5,132.5 Z"/></g>
<g><path style="opacity:1" fill="#4d94c2" d="M 209.5,94.5 C 208.5,94.5 207.5,94.5 206.5,94.5C 206.795,96.7354 206.461,98.7354 205.5,100.5C 205.795,98.2646 205.461,96.2646 204.5,94.5C 203.5,94.5 202.5,94.5 201.5,94.5C 201.167,94.5 200.833,94.5 200.5,94.5C 197.324,92.7271 195.657,93.7271 195.5,97.5C 194.883,97.3893 194.383,97.056 194,96.5C 190.834,98.853 188.667,101.853 187.5,105.5C 185.846,106.75 184.179,108.084 182.5,109.5C 182.46,106.119 182.793,102.786 183.5,99.5C 183.833,99.5 184.167,99.5 184.5,99.5C 184.343,100.873 184.51,102.207 185,103.5C 190.377,92.4656 198.543,89.4656 209.5,94.5 Z"/></g>
<g><path style="opacity:1" fill="#b47f6b" d="M 56.5,101.5 C 58.099,101.232 59.4324,101.566 60.5,102.5C 57.1667,102.5 53.8333,102.5 50.5,102.5C 50.1924,100.076 50.5258,97.7427 51.5,95.5C 52.4656,97.396 52.7989,99.396 52.5,101.5C 53.8333,101.5 55.1667,101.5 56.5,101.5 Z"/></g>
<g><path style="opacity:1" fill="#4a71bc" d="M 200.5,94.5 C 200.975,97.0821 200.308,99.0821 198.5,100.5C 197.167,99.8333 196.167,98.8333 195.5,97.5C 195.657,93.7271 197.324,92.7271 200.5,94.5 Z"/></g>
<g><path style="opacity:1" fill="#9d7880" d="M 49.5,94.5 C 51.1667,94.5 52.8333,94.5 54.5,94.5C 54.0254,97.0821 54.6921,99.0821 56.5,100.5C 56.5,100.833 56.5,101.167 56.5,101.5C 55.1667,101.5 53.8333,101.5 52.5,101.5C 52.7989,99.396 52.4656,97.396 51.5,95.5C 50.5258,97.7427 50.1924,100.076 50.5,102.5C 50.5,102.833 50.5,103.167 50.5,103.5C 49.8333,103.5 49.1667,103.5 48.5,103.5C 49.4025,100.609 49.7359,97.6085 49.5,94.5 Z"/></g>
<g><path style="opacity:1" fill="#7f5d6a" d="M 200.5,94.5 C 200.833,94.5 201.167,94.5 201.5,94.5C 201.802,97.0593 201.468,99.3926 200.5,101.5C 199.833,101.5 199.167,101.5 198.5,101.5C 198.5,101.167 198.5,100.833 198.5,100.5C 200.308,99.0821 200.975,97.0821 200.5,94.5 Z"/></g>
<g><path style="opacity:1" fill="#a26450" d="M 201.5,94.5 C 202.5,94.5 203.5,94.5 204.5,94.5C 204.5,97.5 204.5,100.5 204.5,103.5C 203.292,102.766 201.959,102.433 200.5,102.5C 200.5,102.167 200.5,101.833 200.5,101.5C 201.468,99.3926 201.802,97.0593 201.5,94.5 Z"/></g>
<g><path style="opacity:1" fill="#e2e5e8" d="M 119.5,91.5 C 120.15,93.4352 120.483,95.4352 120.5,97.5C 118.642,99.8831 117.308,102.55 116.5,105.5C 115.167,107.5 113.833,109.5 112.5,111.5C 111.853,110.726 111.52,109.726 111.5,108.5C 112.78,102.872 113.78,97.2053 114.5,91.5C 114.5,90.1667 114.5,88.8333 114.5,87.5C 115.222,87.0825 115.722,86.4158 116,85.5C 117.459,87.4319 118.625,89.4319 119.5,91.5 Z"/></g>
<g><path style="opacity:1" fill="#9eb8d0" d="M 151.5,94.5 C 154.947,95.6467 158.28,96.98 161.5,98.5C 166.192,101.549 168.525,105.882 168.5,111.5C 166.477,114.52 163.81,116.854 160.5,118.5C 160.815,116.774 160.981,115.107 161,113.5C 160.275,114.059 159.442,114.392 158.5,114.5C 156.964,113.751 155.631,112.751 154.5,111.5C 145.242,113.241 136.075,114.574 127,115.5C 126.517,114.552 126.351,113.552 126.5,112.5C 134.042,110.966 140.375,107.299 145.5,101.5C 146.429,100.311 146.762,98.9778 146.5,97.5C 148.199,97.6602 149.866,97.4935 151.5,97C 152.598,96.2303 152.598,95.397 151.5,94.5 Z"/></g>
<g><path style="opacity:1" fill="#9fafc1" d="M 195.5,97.5 C 196.167,98.8333 197.167,99.8333 198.5,100.5C 198.5,100.833 198.5,101.167 198.5,101.5C 194.071,100.887 190.405,102.22 187.5,105.5C 188.667,101.853 190.834,98.853 194,96.5C 194.383,97.056 194.883,97.3893 195.5,97.5 Z"/></g>
<g><path style="opacity:1" fill="#b1c0d1" d="M 60.5,97.5 C 63.4778,98.4777 65.4778,100.478 66.5,103.5C 64.8828,102.962 63.2161,102.629 61.5,102.5C 61.1667,102.5 60.8333,102.5 60.5,102.5C 59.4324,101.566 58.099,101.232 56.5,101.5C 56.5,101.167 56.5,100.833 56.5,100.5C 57.8333,99.5 59.1667,98.5 60.5,97.5 Z"/></g>
<g><path style="opacity:1" fill="#7490c1" d="M 91.5,92.5 C 90.6851,93.8366 89.5185,94.8366 88,95.5C 87.6155,97.1966 87.7822,98.8632 88.5,100.5C 85.8572,103.34 85.0239,106.673 86,110.5C 86.1981,108.618 86.6981,106.952 87.5,105.5C 87.8897,108.466 87.223,111.132 85.5,113.5C 89.1405,115.475 92.1405,118.142 94.5,121.5C 94.1667,121.5 93.8333,121.5 93.5,121.5C 85.0971,118.339 80.9304,112.339 81,103.5C 83.0795,100.935 84.9128,98.2682 86.5,95.5C 87.0483,92.9162 88.715,91.9162 91.5,92.5 Z"/></g>
<g><path style="opacity:1" fill="#4160ab" d="M 169.5,110.5 C 169.5,111.167 169.167,111.5 168.5,111.5C 168.525,105.882 166.192,101.549 161.5,98.5C 161.897,97.475 162.563,97.3083 163.5,98C 168.063,100.959 170.063,105.126 169.5,110.5 Z"/></g>
<g><path style="opacity:1" fill="#7f554f" d="M 176.5,94.5 C 176.357,96.2624 176.691,97.9291 177.5,99.5C 178.425,100.562 179.425,100.562 180.5,99.5C 180.975,102.082 180.308,104.082 178.5,105.5C 176.506,102.49 175.506,99.157 175.5,95.5C 175.5,94.8333 175.833,94.5 176.5,94.5 Z"/></g>
<g><path style="opacity:1" fill="#628dd1" d="M 49.5,94.5 C 49.7359,97.6085 49.4025,100.609 48.5,103.5C 46.5887,104.075 44.922,105.075 43.5,106.5C 41.7275,100.711 43.7275,96.7112 49.5,94.5 Z"/></g>
<g><path style="opacity:1" fill="#91685e" d="M 77.5,90.5 C 78.1667,90.5 78.5,90.8333 78.5,91.5C 79.3287,94.4686 79.4954,97.4686 79,100.5C 78.2525,102.751 76.7525,104.084 74.5,104.5C 74.5,102.5 74.5,100.5 74.5,98.5C 75.4584,98.9528 76.2917,99.6195 77,100.5C 77.4983,97.1832 77.665,93.8499 77.5,90.5 Z"/></g>
<g><path style="opacity:1" fill="#6986bf" d="M 169.5,110.5 C 170.063,105.126 168.063,100.959 163.5,98C 162.563,97.3083 161.897,97.475 161.5,98.5C 158.28,96.98 154.947,95.6467 151.5,94.5C 148.167,93.8333 144.833,93.1667 141.5,92.5C 141.5,92.1667 141.5,91.8333 141.5,91.5C 141.5,89.8333 141.5,88.1667 141.5,86.5C 144.855,87.6182 148.188,87.6182 151.5,86.5C 155.844,88.2926 160.177,89.9593 164.5,91.5C 167.788,94.9621 170.954,98.6287 174,102.5C 175.546,110.926 172.38,116.426 164.5,119C 166.43,115.947 168.93,113.447 172,111.5C 172.755,108.697 172.422,106.03 171,103.5C 170.814,106.036 170.314,108.369 169.5,110.5 Z"/></g>
<g><path style="opacity:1" fill="#5794bf" d="M 62.5,92.5 C 63.5,92.5 64.5,92.5 65.5,92.5C 67.3247,94.8031 69.1581,97.1364 71,99.5C 71.21,97.9419 71.71,96.6085 72.5,95.5C 72.19,98.7131 72.5233,101.713 73.5,104.5C 73.7947,106.735 73.4614,108.735 72.5,110.5C 71.1667,108.833 69.8333,107.167 68.5,105.5C 67.2388,103.514 67.5722,101.681 69.5,100C 67.6388,96.975 65.3055,94.475 62.5,92.5 Z"/></g>
<g><path style="opacity:1" fill="#555c7f" d="M 72.5,95.5 C 72.8333,95.5 73.1667,95.5 73.5,95.5C 74.404,96.209 74.7373,97.209 74.5,98.5C 74.5,100.5 74.5,102.5 74.5,104.5C 74.1667,104.5 73.8333,104.5 73.5,104.5C 72.5233,101.713 72.19,98.7131 72.5,95.5 Z"/></g>
<g><path style="opacity:1" fill="#375599" d="M 91.5,99.5 C 89.7745,101.228 88.4411,103.228 87.5,105.5C 86.6981,106.952 86.1981,108.618 86,110.5C 85.0239,106.673 85.8572,103.34 88.5,100.5C 89.391,99.8902 90.391,99.5569 91.5,99.5 Z"/></g>
<g><path style="opacity:1" fill="#806e8a" d="M 204.5,94.5 C 205.461,96.2646 205.795,98.2646 205.5,100.5C 205.557,101.609 205.89,102.609 206.5,103.5C 205.833,103.5 205.167,103.5 204.5,103.5C 204.5,100.5 204.5,97.5 204.5,94.5 Z"/></g>
<g><path style="opacity:1" fill="#4b73be" d="M 209.5,94.5 C 212.237,98.6686 212.904,103.002 211.5,107.5C 209.809,106.136 208.142,104.803 206.5,103.5C 205.89,102.609 205.557,101.609 205.5,100.5C 206.461,98.7354 206.795,96.7354 206.5,94.5C 207.5,94.5 208.5,94.5 209.5,94.5 Z"/></g>
<g><path style="opacity:1" fill="#5095d3" d="M 46.5,93.5 C 50.1817,93.3347 53.8484,93.5014 57.5,94C 59.4257,94.4224 60.4257,95.5891 60.5,97.5C 59.1667,98.5 57.8333,99.5 56.5,100.5C 54.6921,99.0821 54.0254,97.0821 54.5,94.5C 52.8333,94.5 51.1667,94.5 49.5,94.5C 43.7275,96.7112 41.7275,100.711 43.5,106.5C 41.5463,109.069 39.8797,111.736 38.5,114.5C 38.1667,114.5 37.8333,114.5 37.5,114.5C 37.3639,111.65 37.0305,108.817 36.5,106C 36.6462,103.24 37.3128,100.74 38.5,98.5C 38.4346,98.9382 38.6012,99.2716 39,99.5C 41.1057,96.8823 43.6057,94.8823 46.5,93.5 Z"/></g>
<g><path style="opacity:1" fill="#d29667" d="M 50.5,102.5 C 53.8333,102.5 57.1667,102.5 60.5,102.5C 60.8333,102.5 61.1667,102.5 61.5,102.5C 61.6107,103.117 61.944,103.617 62.5,104C 59.008,103.93 56.008,104.763 53.5,106.5C 51.8333,106.5 50.1667,106.5 48.5,106.5C 49.1667,105.5 49.8333,104.5 50.5,103.5C 50.5,103.167 50.5,102.833 50.5,102.5 Z"/></g>
<g><path style="opacity:1" fill="#cfa686" d="M 198.5,101.5 C 199.167,101.5 199.833,101.5 200.5,101.5C 200.5,101.833 200.5,102.167 200.5,102.5C 198.473,102.338 196.473,102.505 194.5,103C 195.056,103.383 195.389,103.883 195.5,104.5C 193.345,104.372 191.345,104.872 189.5,106C 186.706,107.535 184.706,109.702 183.5,112.5C 182.662,112.158 182.328,111.492 182.5,110.5C 182.5,110.167 182.5,109.833 182.5,109.5C 184.179,108.084 185.846,106.75 187.5,105.5C 190.405,102.22 194.071,100.887 198.5,101.5 Z"/></g>
<g><path style="opacity:1" fill="#ca8e61" d="M 200.5,102.5 C 201.959,102.433 203.292,102.766 204.5,103.5C 205.167,103.5 205.833,103.5 206.5,103.5C 208.142,104.803 209.809,106.136 211.5,107.5C 213.604,109.372 214.937,111.705 215.5,114.5C 213.866,113.793 212.532,112.627 211.5,111C 209.846,110.392 208.179,109.892 206.5,109.5C 206.489,107.983 205.823,106.816 204.5,106C 201.568,105.047 198.568,104.547 195.5,104.5C 195.389,103.883 195.056,103.383 194.5,103C 196.473,102.505 198.473,102.338 200.5,102.5 Z"/></g>
<g><path style="opacity:1" fill="#b68467" d="M 61.5,102.5 C 63.2161,102.629 64.8828,102.962 66.5,103.5C 66.8333,104.5 67.5,105.167 68.5,105.5C 69.8333,107.167 71.1667,108.833 72.5,110.5C 72.5,111.167 72.5,111.833 72.5,112.5C 69.2118,112.984 66.5452,111.984 64.5,109.5C 61.3731,106.945 57.7065,105.945 53.5,106.5C 56.008,104.763 59.008,103.93 62.5,104C 61.944,103.617 61.6107,103.117 61.5,102.5 Z"/></g>
<g><path style="opacity:1" fill="#7d9bc1" d="M 84.5,89.5 C 84.7852,91.288 84.4519,92.9547 83.5,94.5C 81.058,95.384 80.2246,97.0507 81,99.5C 82.4119,97.548 84.2453,96.2147 86.5,95.5C 84.9128,98.2682 83.0795,100.935 81,103.5C 80.9304,112.339 85.0971,118.339 93.5,121.5C 93.1667,122.167 92.8333,122.833 92.5,123.5C 91.0937,123.973 90.427,124.973 90.5,126.5C 90.1667,126.5 89.8333,126.5 89.5,126.5C 87.2181,123.878 84.8848,121.212 82.5,118.5C 80.3835,116.4 78.7169,114.067 77.5,111.5C 76.8333,104.833 76.1667,104.833 75.5,111.5C 74.609,112.11 73.609,112.443 72.5,112.5C 72.5,111.833 72.5,111.167 72.5,110.5C 73.4614,108.735 73.7947,106.735 73.5,104.5C 73.8333,104.5 74.1667,104.5 74.5,104.5C 76.7525,104.084 78.2525,102.751 79,100.5C 79.4954,97.4686 79.3287,94.4686 78.5,91.5C 80.2972,90.2702 82.2972,89.6036 84.5,89.5 Z"/></g>
<g><path style="opacity:1" fill="#b88262" d="M 195.5,104.5 C 198.568,104.547 201.568,105.047 204.5,106C 205.823,106.816 206.489,107.983 206.5,109.5C 204.989,108.498 203.322,107.831 201.5,107.5C 200.207,106.842 198.707,106.508 197,106.5C 194.282,106.564 192.115,107.564 190.5,109.5C 188.59,111.284 186.256,112.284 183.5,112.5C 184.706,109.702 186.706,107.535 189.5,106C 191.345,104.872 193.345,104.372 195.5,104.5 Z"/></g>
<g><path style="opacity:1" fill="#4e6c97" d="M 183.5,99.5 C 182.793,102.786 182.46,106.119 182.5,109.5C 182.5,109.833 182.5,110.167 182.5,110.5C 181.833,111.167 181.167,111.833 180.5,112.5C 180.614,109.784 179.614,107.784 177.5,106.5C 177.5,105.833 177.833,105.5 178.5,105.5C 180.308,104.082 180.975,102.082 180.5,99.5C 180.5,99.1667 180.5,98.8333 180.5,98.5C 182.196,96.871 183.196,97.2043 183.5,99.5 Z"/></g>
<g><path style="opacity:1" fill="#9fb6ca" d="M 201.5,107.5 C 201.5,110.167 201.5,112.833 201.5,115.5C 201.5,116.167 201.5,116.833 201.5,117.5C 200.5,118.833 199.5,120.167 198.5,121.5C 195.236,119.906 192.569,117.573 190.5,114.5C 190.5,112.833 190.5,111.167 190.5,109.5C 192.115,107.564 194.282,106.564 197,106.5C 198.707,106.508 200.207,106.842 201.5,107.5 Z"/></g>
<g><path style="opacity:1" fill="#758ebf" d="M 51.5,108.5 C 51.8417,107.662 52.5084,107.328 53.5,107.5C 53.5,110.167 53.5,112.833 53.5,115.5C 52.8333,113.167 52.1667,110.833 51.5,108.5 Z"/></g>
<g><path style="opacity:1" fill="#4165ad" d="M 77.5,111.5 C 76.8333,114.167 76.1667,114.167 75.5,111.5C 76.1667,104.833 76.8333,104.833 77.5,111.5 Z"/></g>
<g><path style="opacity:1" fill="#4289c8" d="M 209.5,94.5 C 210.833,94.8333 212.167,95.1667 213.5,95.5C 214.496,95.4142 215.329,95.7476 216,96.5C 216.566,98.7226 217.4,100.723 218.5,102.5C 218.167,107.167 217.833,111.833 217.5,116.5C 216.833,115.833 216.167,115.167 215.5,114.5C 214.937,111.705 213.604,109.372 211.5,107.5C 212.904,103.002 212.237,98.6686 209.5,94.5 Z"/></g>
<g><path style="opacity:1" fill="#b57d63" d="M 48.5,106.5 C 50.1667,106.5 51.8333,106.5 53.5,106.5C 53.5,106.833 53.5,107.167 53.5,107.5C 52.5084,107.328 51.8417,107.662 51.5,108.5C 49.1184,109.351 47.1184,110.684 45.5,112.5C 44.3951,113.6 43.0618,114.267 41.5,114.5C 42.4411,110.619 44.7744,107.953 48.5,106.5 Z"/></g>
<g><path style="opacity:1" fill="#38549e" d="M 177.5,106.5 C 179.614,107.784 180.614,109.784 180.5,112.5C 179.5,112.5 178.5,112.5 177.5,112.5C 177.5,110.5 177.5,108.5 177.5,106.5 Z"/></g>
<g><path style="opacity:1" fill="#4e65b0" d="M 201.5,107.5 C 203.322,107.831 204.989,108.498 206.5,109.5C 206.833,110.5 207.5,111.167 208.5,111.5C 209.441,113.05 210.107,114.716 210.5,116.5C 206.126,115.625 203.626,112.959 203,108.5C 202.814,111.036 202.314,113.369 201.5,115.5C 201.5,112.833 201.5,110.167 201.5,107.5 Z"/></g>
<g><path style="opacity:1" fill="#d3af98" d="M 48.5,103.5 C 49.1667,103.5 49.8333,103.5 50.5,103.5C 49.8333,104.5 49.1667,105.5 48.5,106.5C 44.7744,107.953 42.4411,110.619 41.5,114.5C 40.0337,115.347 39.2004,116.68 39,118.5C 38.51,117.207 38.3433,115.873 38.5,114.5C 39.8797,111.736 41.5463,109.069 43.5,106.5C 44.922,105.075 46.5887,104.075 48.5,103.5 Z"/></g>
<g><path style="opacity:1" fill="#5796c0" d="M 64.5,109.5 C 66.5452,111.984 69.2118,112.984 72.5,112.5C 73.609,112.443 74.609,112.11 75.5,111.5C 76.1667,114.167 76.8333,114.167 77.5,111.5C 78.7169,114.067 80.3835,116.4 82.5,118.5C 79.8111,117.962 77.1444,117.295 74.5,116.5C 73.537,116.97 73.537,117.637 74.5,118.5C 71.715,117.916 70.0483,118.916 69.5,121.5C 64.8781,121.455 62.5448,123.788 62.5,128.5C 62.1667,128.5 61.8333,128.5 61.5,128.5C 61.6309,127.624 61.2975,126.957 60.5,126.5C 59.4822,127.193 58.4822,127.859 57.5,128.5C 61.257,123.913 65.5903,119.746 70.5,116C 68.4144,115.685 66.4144,115.185 64.5,114.5C 64.5,112.833 64.5,111.167 64.5,109.5 Z"/></g>
<g><path style="opacity:1" fill="#8daac5" d="M 112.5,92.5 C 112.769,94.4286 112.269,96.0953 111,97.5C 110.667,97.1667 110.333,96.8333 110,96.5C 105.893,99.6027 102.06,103.103 98.5,107C 91.6485,107.222 89.8152,110.388 93,116.5C 94.3139,117.313 95.4805,118.313 96.5,119.5C 103.675,122.114 110.675,124.447 117.5,126.5C 113.087,126.313 108.754,125.646 104.5,124.5C 101.582,122.307 98.2485,121.307 94.5,121.5C 92.1405,118.142 89.1405,115.475 85.5,113.5C 87.223,111.132 87.8897,108.466 87.5,105.5C 88.4411,103.228 89.7745,101.228 91.5,99.5C 93.0269,99.573 94.0269,98.9063 94.5,97.5C 98.0584,95.8883 101.725,94.555 105.5,93.5C 107.764,92.7814 110.097,92.448 112.5,92.5 Z"/></g>
<g><path style="opacity:1" fill="#a9c2d9" d="M 53.5,106.5 C 57.7065,105.945 61.3731,106.945 64.5,109.5C 64.5,111.167 64.5,112.833 64.5,114.5C 63.218,117.617 61.0513,119.95 58,121.5C 57.467,124.505 56.3004,127.172 54.5,129.5C 54.1667,129.5 53.8333,129.5 53.5,129.5C 52.6314,127.283 52.298,124.95 52.5,122.5C 52.3505,121.448 52.5172,120.448 53,119.5C 54,120.833 55,122.167 56,123.5C 56.1667,123.167 56.3333,122.833 56.5,122.5C 55.2122,120.261 54.2122,117.928 53.5,115.5C 53.5,112.833 53.5,110.167 53.5,107.5C 53.5,107.167 53.5,106.833 53.5,106.5 Z"/></g>
<g><path style="opacity:1" fill="#2545a8" d="M 210.5,116.5 C 210.5,116.833 210.5,117.167 210.5,117.5C 210.5,118.5 210.5,119.5 210.5,120.5C 207.084,120.472 204.084,119.472 201.5,117.5C 201.5,116.833 201.5,116.167 201.5,115.5C 202.314,113.369 202.814,111.036 203,108.5C 203.626,112.959 206.126,115.625 210.5,116.5 Z"/></g>
<g><path style="opacity:1" fill="#6e8db6" d="M 168.5,81.5 C 168.833,82.1667 169.167,82.8333 169.5,83.5C 168.212,85.0348 168.212,86.7015 169.5,88.5C 171.359,90.9969 173.359,93.3302 175.5,95.5C 175.506,99.157 176.506,102.49 178.5,105.5C 177.833,105.5 177.5,105.833 177.5,106.5C 177.5,108.5 177.5,110.5 177.5,112.5C 178.5,112.5 179.5,112.5 180.5,112.5C 181.167,111.833 181.833,111.167 182.5,110.5C 182.328,111.492 182.662,112.158 183.5,112.5C 186.256,112.284 188.59,111.284 190.5,109.5C 190.5,111.167 190.5,112.833 190.5,114.5C 185.13,113.077 179.797,113.244 174.5,115C 171.976,116.883 170.642,119.383 170.5,122.5C 167.796,122.67 166.129,124.003 165.5,126.5C 164.055,124.937 162.389,123.604 160.5,122.5C 160.5,122.167 160.5,121.833 160.5,121.5C 159.791,120.596 158.791,120.263 157.5,120.5C 157.973,119.094 158.973,118.427 160.5,118.5C 163.81,116.854 166.477,114.52 168.5,111.5C 169.167,111.5 169.5,111.167 169.5,110.5C 170.314,108.369 170.814,106.036 171,103.5C 172.422,106.03 172.755,108.697 172,111.5C 168.93,113.447 166.43,115.947 164.5,119C 172.38,116.426 175.546,110.926 174,102.5C 170.954,98.6287 167.788,94.9621 164.5,91.5C 160.177,89.9593 155.844,88.2926 151.5,86.5C 148.188,87.6182 144.855,87.6182 141.5,86.5C 141.5,88.1667 141.5,89.8333 141.5,91.5C 140.532,89.3926 140.198,87.0593 140.5,84.5C 142.292,84.366 143.958,84.6993 145.5,85.5C 146.167,85.5 146.833,85.5 147.5,85.5C 149.094,85.0805 150.594,84.4138 152,83.5C 155.526,84.781 159.026,86.1143 162.5,87.5C 163.496,87.5858 164.329,87.2524 165,86.5C 165.22,84.0268 166.386,82.3602 168.5,81.5 Z"/></g>
<g><path style="opacity:1" fill="#537ccd" d="M 51.5,108.5 C 52.1667,110.833 52.8333,113.167 53.5,115.5C 54.2122,117.928 55.2122,120.261 56.5,122.5C 56.3333,122.833 56.1667,123.167 56,123.5C 55,122.167 54,120.833 53,119.5C 52.5172,120.448 52.3505,121.448 52.5,122.5C 49.3915,122.736 46.3915,122.403 43.5,121.5C 43.2104,118.215 43.877,115.215 45.5,112.5C 47.1184,110.684 49.1184,109.351 51.5,108.5 Z"/></g>
<g><path style="opacity:1" fill="#3f88bf" d="M 82.5,118.5 C 84.8848,121.212 87.2181,123.878 89.5,126.5C 88.2921,125.766 86.9587,125.433 85.5,125.5C 85.5,127.5 85.5,129.5 85.5,131.5C 84.0695,131.579 82.7362,131.246 81.5,130.5C 80.6667,127.5 79.8333,124.5 79,121.5C 78.1841,120.177 77.0174,119.511 75.5,119.5C 75.5,118.833 75.1667,118.5 74.5,118.5C 73.537,117.637 73.537,116.97 74.5,116.5C 77.1444,117.295 79.8111,117.962 82.5,118.5 Z"/></g>
<g><path style="opacity:1" fill="#856f6d" d="M 179.5,118.5 C 182.082,118.025 184.082,118.692 185.5,120.5C 185.573,122.027 184.906,123.027 183.5,123.5C 183.5,122.167 183.5,120.833 183.5,119.5C 182.5,119.5 181.5,119.5 180.5,119.5C 180.5,121.5 180.5,123.5 180.5,125.5C 179.833,125.5 179.5,125.167 179.5,124.5C 179.5,122.5 179.5,120.5 179.5,118.5 Z"/></g>
<g><path style="opacity:1" fill="#5fa8cd" d="M 190.5,114.5 C 192.569,117.573 195.236,119.906 198.5,121.5C 198.5,121.833 198.5,122.167 198.5,122.5C 197.662,122.842 197.328,123.508 197.5,124.5C 192.986,118.411 186.986,115.244 179.5,115C 182.361,115.54 185.028,116.54 187.5,118C 190.418,121.097 193.418,123.93 196.5,126.5C 195.041,126.433 193.708,126.766 192.5,127.5C 191.829,123.496 189.496,121.163 185.5,120.5C 184.082,118.692 182.082,118.025 179.5,118.5C 178.399,117.402 177.066,117.235 175.5,118C 173.963,119.707 172.296,121.207 170.5,122.5C 170.642,119.383 171.976,116.883 174.5,115C 179.797,113.244 185.13,113.077 190.5,114.5 Z"/></g>
<g><path style="opacity:1" fill="#a27578" d="M 215.5,114.5 C 216.167,115.167 216.833,115.833 217.5,116.5C 217.431,121.854 217.098,127.187 216.5,132.5C 216.167,132.5 215.833,132.5 215.5,132.5C 215.5,126.5 215.5,120.5 215.5,114.5 Z"/></g>
<g><path style="opacity:1" fill="#a8c0d3" d="M 122.5,90.5 C 123.391,91.1098 124.391,91.4431 125.5,91.5C 125.586,92.4959 125.252,93.3292 124.5,94C 125.333,94.1667 126.167,94.3333 127,94.5C 131.126,93.6707 135.293,93.3374 139.5,93.5C 140.167,93.1667 140.833,92.8333 141.5,92.5C 144.833,93.1667 148.167,93.8333 151.5,94.5C 152.598,95.397 152.598,96.2303 151.5,97C 149.866,97.4935 148.199,97.6602 146.5,97.5C 146.762,98.9778 146.429,100.311 145.5,101.5C 140.375,107.299 134.042,110.966 126.5,112.5C 126.351,113.552 126.517,114.552 127,115.5C 136.075,114.574 145.242,113.241 154.5,111.5C 155.631,112.751 156.964,113.751 158.5,114.5C 159.442,114.392 160.275,114.059 161,113.5C 160.981,115.107 160.815,116.774 160.5,118.5C 158.973,118.427 157.973,119.094 157.5,120.5C 155.142,120.253 153.142,120.919 151.5,122.5C 144.654,124.474 137.654,125.474 130.5,125.5C 129.833,125.5 129.5,125.167 129.5,124.5C 128.399,123.402 127.066,123.235 125.5,124C 124.748,124.671 124.414,125.504 124.5,126.5C 122.167,126.5 119.833,126.5 117.5,126.5C 110.675,124.447 103.675,122.114 96.5,119.5C 95.4805,118.313 94.3139,117.313 93,116.5C 89.8152,110.388 91.6485,107.222 98.5,107C 102.06,103.103 105.893,99.6027 110,96.5C 110.333,96.8333 110.667,97.1667 111,97.5C 112.269,96.0953 112.769,94.4286 112.5,92.5C 113.167,92.1667 113.833,91.8333 114.5,91.5C 113.78,97.2053 112.78,102.872 111.5,108.5C 111.52,109.726 111.853,110.726 112.5,111.5C 112.369,112.239 112.536,112.906 113,113.5C 115.382,111.611 117.882,109.945 120.5,108.5C 124.896,105.975 128.896,102.975 132.5,99.5C 134.196,99.3146 135.529,98.4813 136.5,97C 135.906,96.5357 135.239,96.369 134.5,96.5C 129.845,95.1973 125.179,95.5306 120.5,97.5C 120.483,95.4352 120.15,93.4352 119.5,91.5C 120.791,91.7373 121.791,91.404 122.5,90.5 Z"/></g>
<g><path style="opacity:1" fill="#4a5984" d="M 120.5,108.5 C 117.882,109.945 115.382,111.611 113,113.5C 112.536,112.906 112.369,112.239 112.5,111.5C 113.833,109.5 115.167,107.5 116.5,105.5C 119.537,103.814 120.87,104.814 120.5,108.5 Z"/></g>
<g><path style="opacity:1" fill="#6f6785" d="M 134.5,96.5 C 132.208,96.2436 130.041,96.5769 128,97.5C 127.301,99.0738 127.635,100.407 129,101.5C 129.816,100.177 130.983,99.5106 132.5,99.5C 128.896,102.975 124.896,105.975 120.5,108.5C 120.87,104.814 119.537,103.814 116.5,105.5C 117.308,102.55 118.642,99.8831 120.5,97.5C 125.179,95.5306 129.845,95.1973 134.5,96.5 Z"/></g>
<g><path style="opacity:1" fill="#5d6390" d="M 134.5,96.5 C 135.239,96.369 135.906,96.5357 136.5,97C 135.529,98.4813 134.196,99.3146 132.5,99.5C 130.983,99.5106 129.816,100.177 129,101.5C 127.635,100.407 127.301,99.0738 128,97.5C 130.041,96.5769 132.208,96.2436 134.5,96.5 Z"/></g>
<g><path style="opacity:1" fill="#9c6b56" d="M 183.5,123.5 C 183.027,124.906 182.027,125.573 180.5,125.5C 180.5,123.5 180.5,121.5 180.5,119.5C 181.5,119.5 182.5,119.5 183.5,119.5C 183.5,120.833 183.5,122.167 183.5,123.5 Z"/></g>
<g><path style="opacity:1" fill="#70bedd" d="M 197.5,124.5 C 198.725,125.152 199.392,126.319 199.5,128C 199.333,129.167 199.167,130.333 199,131.5C 198.153,129.807 197.32,128.14 196.5,126.5C 193.418,123.93 190.418,121.097 187.5,118C 185.028,116.54 182.361,115.54 179.5,115C 186.986,115.244 192.986,118.411 197.5,124.5 Z"/></g>
<g><path style="opacity:1" fill="#9c7e8b" d="M 208.5,111.5 C 210.614,112.36 211.78,114.027 212,116.5C 212.808,120.027 212.641,123.36 211.5,126.5C 211.81,123.287 211.477,120.287 210.5,117.5C 210.5,117.167 210.5,116.833 210.5,116.5C 210.107,114.716 209.441,113.05 208.5,111.5 Z"/></g>
<g><path style="opacity:1" fill="#926351" d="M 74.5,118.5 C 74.9746,121.082 74.3079,123.082 72.5,124.5C 71.1667,123.833 70.1667,122.833 69.5,121.5C 70.0483,118.916 71.715,117.916 74.5,118.5 Z"/></g>
<g><path style="opacity:1" fill="#4387bc" d="M 179.5,118.5 C 179.5,120.5 179.5,122.5 179.5,124.5C 178.167,124.5 176.833,124.5 175.5,124.5C 175.557,129.001 173.39,131.668 169,132.5C 168.78,130.027 167.614,128.36 165.5,127.5C 165.5,127.167 165.5,126.833 165.5,126.5C 166.129,124.003 167.796,122.67 170.5,122.5C 172.296,121.207 173.963,119.707 175.5,118C 177.066,117.235 178.399,117.402 179.5,118.5 Z"/></g>
<g><path style="opacity:1" fill="#a88179" d="M 93.5,121.5 C 93.8333,121.5 94.1667,121.5 94.5,121.5C 98.2485,121.307 101.582,122.307 104.5,124.5C 104.5,125.167 104.5,125.833 104.5,126.5C 103.292,125.766 101.959,125.433 100.5,125.5C 100.5,129.167 100.5,132.833 100.5,136.5C 100.167,136.5 99.8333,136.5 99.5,136.5C 99.6641,133.813 99.4974,131.146 99,128.5C 97.2894,127.419 95.7894,127.752 94.5,129.5C 95.4412,127.534 96.4412,125.534 97.5,123.5C 95.9052,122.566 94.2385,122.566 92.5,123.5C 92.8333,122.833 93.1667,122.167 93.5,121.5 Z"/></g>
<g><path style="opacity:1" fill="#3a5fba" d="M 201.5,117.5 C 204.084,119.472 207.084,120.472 210.5,120.5C 210.5,119.5 210.5,118.5 210.5,117.5C 211.477,120.287 211.81,123.287 211.5,126.5C 210.475,129.974 209.808,133.64 209.5,137.5C 206.779,137.963 204.112,138.629 201.5,139.5C 201.5,136.167 201.5,132.833 201.5,129.5C 202.376,126.201 202.543,122.868 202,119.5C 201,120.833 200,122.167 199,123.5C 198.601,123.272 198.435,122.938 198.5,122.5C 198.5,122.167 198.5,121.833 198.5,121.5C 199.5,120.167 200.5,118.833 201.5,117.5 Z"/></g>
<g><path style="opacity:1" fill="#7e8899" d="M 74.5,118.5 C 75.1667,118.5 75.5,118.833 75.5,119.5C 75.4486,121.57 76.1153,123.403 77.5,125C 77.1639,126.03 76.4972,126.53 75.5,126.5C 73.9731,126.573 72.9731,125.906 72.5,124.5C 74.3079,123.082 74.9746,121.082 74.5,118.5 Z"/></g>
<g><path style="opacity:1" fill="#798fb6" d="M 151.5,122.5 C 151.371,124.216 151.038,125.883 150.5,127.5C 149.962,129.117 149.629,130.784 149.5,132.5C 149.167,132.5 148.833,132.5 148.5,132.5C 148.5,131.833 148.5,131.167 148.5,130.5C 148.5,128.833 148.5,127.167 148.5,125.5C 142.871,126.489 137.204,127.323 131.5,128C 132.712,129.107 132.379,129.607 130.5,129.5C 130.5,128.167 130.5,126.833 130.5,125.5C 137.654,125.474 144.654,124.474 151.5,122.5 Z"/></g>
<g><path style="opacity:1" fill="#a98782" d="M 157.5,120.5 C 158.791,120.263 159.791,120.596 160.5,121.5C 158.473,121.338 156.473,121.505 154.5,122C 154.043,122.414 153.709,122.914 153.5,123.5C 155.772,124.134 157.439,125.468 158.5,127.5C 157.5,127.5 156.5,127.5 155.5,127.5C 155.5,130.5 155.5,133.5 155.5,136.5C 155.167,136.5 154.833,136.5 154.5,136.5C 154.5,133.167 154.5,129.833 154.5,126.5C 153.041,126.433 151.708,126.766 150.5,127.5C 151.038,125.883 151.371,124.216 151.5,122.5C 153.142,120.919 155.142,120.253 157.5,120.5 Z"/></g>
<g><path style="opacity:1" fill="#d4a581" d="M 160.5,121.5 C 160.5,121.833 160.5,122.167 160.5,122.5C 156.551,122.693 156.551,123.193 160.5,124C 164.046,128.437 165.379,133.271 164.5,138.5C 164.167,138.5 163.833,138.5 163.5,138.5C 163.204,136.597 162.537,134.93 161.5,133.5C 161.245,131.033 160.245,129.033 158.5,127.5C 157.439,125.468 155.772,124.134 153.5,123.5C 153.709,122.914 154.043,122.414 154.5,122C 156.473,121.505 158.473,121.338 160.5,121.5 Z"/></g>
<g><path style="opacity:1" fill="#708cbe" d="M 104.5,124.5 C 108.754,125.646 113.087,126.313 117.5,126.5C 119.833,126.5 122.167,126.5 124.5,126.5C 124.5,128.5 124.5,130.5 124.5,132.5C 118.306,132.134 112.306,132.134 106.5,132.5C 105.833,131.167 105.167,129.833 104.5,128.5C 104.5,127.833 104.5,127.167 104.5,126.5C 104.5,125.833 104.5,125.167 104.5,124.5 Z"/></g>
<g><path style="opacity:1" fill="#a76f55" d="M 154.5,136.5 C 152.833,136.5 151.167,136.5 149.5,136.5C 149.5,135.167 149.5,133.833 149.5,132.5C 149.629,130.784 149.962,129.117 150.5,127.5C 151.708,126.766 153.041,126.433 154.5,126.5C 154.5,129.833 154.5,133.167 154.5,136.5 Z"/></g>
<g><path style="opacity:1" fill="#a86a5b" d="M 206.5,109.5 C 208.179,109.892 209.846,110.392 211.5,111C 212.532,112.627 213.866,113.793 215.5,114.5C 215.5,120.5 215.5,126.5 215.5,132.5C 214.962,134.117 214.629,135.784 214.5,137.5C 213.5,137.5 212.5,137.5 211.5,137.5C 211.5,133.833 211.5,130.167 211.5,126.5C 212.641,123.36 212.808,120.027 212,116.5C 211.78,114.027 210.614,112.36 208.5,111.5C 207.5,111.167 206.833,110.5 206.5,109.5 Z"/></g>
<g><path style="opacity:1" fill="#81c8e3" d="M 64.5,114.5 C 66.4144,115.185 68.4144,115.685 70.5,116C 65.5903,119.746 61.257,123.913 57.5,128.5C 56.8423,129.398 56.1757,130.398 55.5,131.5C 54.7025,131.043 54.3691,130.376 54.5,129.5C 56.3004,127.172 57.467,124.505 58,121.5C 61.0513,119.95 63.218,117.617 64.5,114.5 Z"/></g>
<g><path style="opacity:1" fill="#a06954" d="M 104.5,126.5 C 104.5,127.167 104.5,127.833 104.5,128.5C 104.575,131.206 104.908,133.873 105.5,136.5C 103.833,136.5 102.167,136.5 100.5,136.5C 100.5,132.833 100.5,129.167 100.5,125.5C 101.959,125.433 103.292,125.766 104.5,126.5 Z"/></g>
<g><path style="opacity:1" fill="#6e8abf" d="M 148.5,130.5 C 142.59,131.82 136.59,132.487 130.5,132.5C 130.5,131.5 130.5,130.5 130.5,129.5C 132.379,129.607 132.712,129.107 131.5,128C 137.204,127.323 142.871,126.489 148.5,125.5C 148.5,127.167 148.5,128.833 148.5,130.5 Z"/></g>
<g><path style="opacity:1" fill="#9eb7cd" d="M 185.5,120.5 C 189.496,121.163 191.829,123.496 192.5,127.5C 192.5,127.833 192.5,128.167 192.5,128.5C 188.159,131.672 183.492,134.339 178.5,136.5C 175.994,137.75 173.327,138.416 170.5,138.5C 170.204,136.597 169.537,134.93 168.5,133.5C 167.514,131.574 166.514,129.574 165.5,127.5C 167.614,128.36 168.78,130.027 169,132.5C 173.39,131.668 175.557,129.001 175.5,124.5C 176.833,124.5 178.167,124.5 179.5,124.5C 179.5,125.167 179.833,125.5 180.5,125.5C 182.027,125.573 183.027,124.906 183.5,123.5C 184.906,123.027 185.573,122.027 185.5,120.5 Z"/></g>
<g><path style="opacity:1" fill="#89adcb" d="M 75.5,119.5 C 77.0174,119.511 78.1841,120.177 79,121.5C 79.8333,124.5 80.6667,127.5 81.5,130.5C 82.7362,131.246 84.0695,131.579 85.5,131.5C 85.5,129.5 85.5,127.5 85.5,125.5C 86.9587,125.433 88.2921,125.766 89.5,126.5C 88.8772,128.711 87.8772,130.711 86.5,132.5C 84.0846,132.627 81.7513,132.793 79.5,133C 78.7829,130.388 77.4496,128.222 75.5,126.5C 76.4972,126.53 77.1639,126.03 77.5,125C 76.1153,123.403 75.4486,121.57 75.5,119.5 Z"/></g>
<g><path style="opacity:1" fill="#a87775" d="M 45.5,112.5 C 43.877,115.215 43.2104,118.215 43.5,121.5C 43.5,124.833 43.5,128.167 43.5,131.5C 43.5,133.5 43.5,135.5 43.5,137.5C 42.5,137.5 41.5,137.5 40.5,137.5C 38.6401,131.674 37.6401,125.674 37.5,119.5C 37.5,117.833 37.5,116.167 37.5,114.5C 37.8333,114.5 38.1667,114.5 38.5,114.5C 38.3433,115.873 38.51,117.207 39,118.5C 39.2004,116.68 40.0337,115.347 41.5,114.5C 43.0618,114.267 44.3951,113.6 45.5,112.5 Z"/></g>
<g><path style="opacity:1" fill="#acc1d6" d="M 69.5,121.5 C 70.1667,122.833 71.1667,123.833 72.5,124.5C 72.9731,125.906 73.9731,126.573 75.5,126.5C 77.4496,128.222 78.7829,130.388 79.5,133C 81.7513,132.793 84.0846,132.627 86.5,132.5C 85.5975,135.391 85.2641,138.391 85.5,141.5C 85.1667,141.5 84.8333,141.5 84.5,141.5C 84.6309,140.624 84.2975,139.957 83.5,139.5C 76.0314,136.6 69.0314,132.934 62.5,128.5C 62.5448,123.788 64.8781,121.455 69.5,121.5 Z"/></g>
<g><path style="opacity:1" fill="#d0986b" d="M 94.5,129.5 C 94.1667,130.167 93.8333,130.833 93.5,131.5C 91.6885,133.385 90.5218,135.719 90,138.5C 89.3292,139.252 88.4959,139.586 87.5,139.5C 88.6274,135.196 89.6274,130.863 90.5,126.5C 90.427,124.973 91.0937,123.973 92.5,123.5C 94.2385,122.566 95.9052,122.566 97.5,123.5C 96.4412,125.534 95.4412,127.534 94.5,129.5 Z"/></g>
<g><path style="opacity:1" fill="#91a8c1" d="M 99.5,136.5 C 97.1944,136.007 94.861,135.674 92.5,135.5C 92.8333,134.167 93.1667,132.833 93.5,131.5C 93.8333,130.833 94.1667,130.167 94.5,129.5C 95.7894,127.752 97.2894,127.419 99,128.5C 99.4974,131.146 99.6641,133.813 99.5,136.5 Z"/></g>
<g><path style="opacity:1" fill="#ddba99" d="M 89.5,126.5 C 89.8333,126.5 90.1667,126.5 90.5,126.5C 89.6274,130.863 88.6274,135.196 87.5,139.5C 87.2914,140.922 86.7914,142.255 86,143.5C 85.5357,142.906 85.369,142.239 85.5,141.5C 85.2641,138.391 85.5975,135.391 86.5,132.5C 87.8772,130.711 88.8772,128.711 89.5,126.5 Z"/></g>
<g><path style="opacity:1" fill="#3b61a4" d="M 106.5,132.5 C 112.306,132.134 118.306,132.134 124.5,132.5C 124.5,133.167 124.5,133.833 124.5,134.5C 118.411,134.225 112.411,133.558 106.5,132.5 Z"/></g>
<g><path style="opacity:1" fill="#3c5d9e" d="M 148.5,130.5 C 148.5,131.167 148.5,131.833 148.5,132.5C 142.547,133.429 136.547,134.096 130.5,134.5C 130.5,133.833 130.5,133.167 130.5,132.5C 136.59,132.487 142.59,131.82 148.5,130.5 Z"/></g>
<g><path style="opacity:1" fill="#589ad0" d="M 201.5,129.5 C 200.531,131.663 199.698,133.996 199,136.5C 198.692,135.692 198.192,135.025 197.5,134.5C 197.036,136.975 196.036,138.975 194.5,140.5C 195.58,137.257 195.747,133.924 195,130.5C 194.617,129.944 194.117,129.611 193.5,129.5C 193.5,128.833 193.167,128.5 192.5,128.5C 192.5,128.167 192.5,127.833 192.5,127.5C 193.708,126.766 195.041,126.433 196.5,126.5C 197.32,128.14 198.153,129.807 199,131.5C 199.167,130.333 199.333,129.167 199.5,128C 199.392,126.319 198.725,125.152 197.5,124.5C 197.328,123.508 197.662,122.842 198.5,122.5C 198.435,122.938 198.601,123.272 199,123.5C 200,122.167 201,120.833 202,119.5C 202.543,122.868 202.376,126.201 201.5,129.5 Z"/></g>
<g><path style="opacity:1" fill="#91b3d4" d="M 193.5,129.5 C 194.117,129.611 194.617,129.944 195,130.5C 195.747,133.924 195.58,137.257 194.5,140.5C 194.167,141.167 193.833,141.833 193.5,142.5C 192.833,142.5 192.5,142.833 192.5,143.5C 190.938,143.733 189.605,144.4 188.5,145.5C 187.756,142.64 187.089,139.64 186.5,136.5C 188.288,135.717 189.288,134.384 189.5,132.5C 190.833,131.5 192.167,130.5 193.5,129.5 Z"/></g>
<g><path style="opacity:1" fill="#927f83" d="M 104.5,128.5 C 105.167,129.833 105.833,131.167 106.5,132.5C 106.5,134.167 106.5,135.833 106.5,137.5C 104.265,137.795 102.265,137.461 100.5,136.5C 102.167,136.5 103.833,136.5 105.5,136.5C 104.908,133.873 104.575,131.206 104.5,128.5 Z"/></g>
<g><path style="opacity:1" fill="#839ebc" d="M 158.5,127.5 C 160.245,129.033 161.245,131.033 161.5,133.5C 160.015,135.231 158.015,136.231 155.5,136.5C 155.5,133.5 155.5,130.5 155.5,127.5C 156.5,127.5 157.5,127.5 158.5,127.5 Z"/></g>
<g><path style="opacity:1" fill="#3c5a9e" d="M 192.5,128.5 C 193.167,128.5 193.5,128.833 193.5,129.5C 192.167,130.5 190.833,131.5 189.5,132.5C 185.783,135.025 181.783,137.025 177.5,138.5C 177.833,137.833 178.167,137.167 178.5,136.5C 183.492,134.339 188.159,131.672 192.5,128.5 Z"/></g>
<g><path style="opacity:1" fill="#7d6076" d="M 211.5,126.5 C 211.5,130.167 211.5,133.833 211.5,137.5C 212.5,137.5 213.5,137.5 214.5,137.5C 212.95,138.72 211.284,138.72 209.5,137.5C 209.808,133.64 210.475,129.974 211.5,126.5 Z"/></g>
<g><path style="opacity:1" fill="#507cce" d="M 45.5,138.5 C 45.5,137.167 45.5,135.833 45.5,134.5C 47.6156,133.547 49.7822,132.547 52,131.5C 52.4966,133.81 52.6633,136.143 52.5,138.5C 50.1667,138.5 47.8333,138.5 45.5,138.5 Z"/></g>
<g><path style="opacity:1" fill="#7798ba" d="M 106.5,132.5 C 112.411,133.558 118.411,134.225 124.5,134.5C 124.5,136.167 124.5,137.833 124.5,139.5C 118.463,139.012 112.463,138.345 106.5,137.5C 106.5,135.833 106.5,134.167 106.5,132.5 Z"/></g>
<g><path style="opacity:1" fill="#cb9266" d="M 160.5,122.5 C 162.389,123.604 164.055,124.937 165.5,126.5C 165.5,126.833 165.5,127.167 165.5,127.5C 166.514,129.574 167.514,131.574 168.5,133.5C 168.833,136.833 169.167,140.167 169.5,143.5C 168.292,144.234 166.959,144.567 165.5,144.5C 165.483,142.435 165.15,140.435 164.5,138.5C 165.379,133.271 164.046,128.437 160.5,124C 156.551,123.193 156.551,122.693 160.5,122.5 Z"/></g>
<g><path style="opacity:1" fill="#886981" d="M 43.5,131.5 C 44.4013,132.29 45.0679,133.29 45.5,134.5C 45.5,135.833 45.5,137.167 45.5,138.5C 43.5853,138.784 41.9187,138.451 40.5,137.5C 41.5,137.5 42.5,137.5 43.5,137.5C 43.5,135.5 43.5,133.5 43.5,131.5 Z"/></g>
<g><path style="opacity:1" fill="#7594b7" d="M 148.5,132.5 C 148.859,134.766 148.192,136.599 146.5,138C 141.233,139.191 135.899,139.691 130.5,139.5C 130.5,137.833 130.5,136.167 130.5,134.5C 136.547,134.096 142.547,133.429 148.5,132.5 Z"/></g>
<g><path style="opacity:0.996" fill="#709edc" d="M -0.5,132.5 C 1.68731,134.18 4.02065,135.68 6.5,137C 10.9731,145.632 17.9731,151.132 27.5,153.5C 29.2099,156.509 31.5432,158.842 34.5,160.5C 40.1888,162.928 46.0222,164.928 52,166.5C 53.1681,167.509 54.3348,168.509 55.5,169.5C 57.7676,168.456 60.1009,168.289 62.5,169C 65.1107,171.88 64.7774,174.046 61.5,175.5C 63.2425,177.563 64.9092,179.563 66.5,181.5C 46.1667,181.5 25.8333,181.5 5.5,181.5C 3.52483,179.863 1.52483,178.196 -0.5,176.5C -0.5,161.833 -0.5,147.167 -0.5,132.5 Z"/></g>
<g><path style="opacity:1" fill="#6a92c9" d="M 61.5,129.5 C 61.5,129.167 61.5,128.833 61.5,128.5C 61.8333,128.5 62.1667,128.5 62.5,128.5C 69.0314,132.934 76.0314,136.6 83.5,139.5C 84.2975,139.957 84.6309,140.624 84.5,141.5C 75.8282,139.332 68.1616,135.332 61.5,129.5 Z"/></g>
<g><path style="opacity:1" fill="#a6bbce" d="M 148.5,132.5 C 148.833,132.5 149.167,132.5 149.5,132.5C 149.5,133.833 149.5,135.167 149.5,136.5C 151.167,136.5 152.833,136.5 154.5,136.5C 154.833,136.5 155.167,136.5 155.5,136.5C 158.015,136.231 160.015,135.231 161.5,133.5C 162.537,134.93 163.204,136.597 163.5,138.5C 163.5,139.5 163.5,140.5 163.5,141.5C 154.014,143.851 144.348,145.185 134.5,145.5C 133.167,145.5 131.833,145.5 130.5,145.5C 130.5,143.5 130.5,141.5 130.5,139.5C 135.899,139.691 141.233,139.191 146.5,138C 148.192,136.599 148.859,134.766 148.5,132.5 Z"/></g>
<g><path style="opacity:1" fill="#5a81bd" d="M 178.5,136.5 C 178.167,137.167 177.833,137.833 177.5,138.5C 177.5,138.833 177.5,139.167 177.5,139.5C 175.035,139.767 172.701,140.434 170.5,141.5C 170.5,140.5 170.5,139.5 170.5,138.5C 173.327,138.416 175.994,137.75 178.5,136.5 Z"/></g>
<g><path style="opacity:1" fill="#a8bfd4" d="M 92.5,135.5 C 94.861,135.674 97.1944,136.007 99.5,136.5C 99.8333,136.5 100.167,136.5 100.5,136.5C 102.265,137.461 104.265,137.795 106.5,137.5C 112.463,138.345 118.463,139.012 124.5,139.5C 124.5,141.5 124.5,143.5 124.5,145.5C 122.833,145.5 121.167,145.5 119.5,145.5C 115.589,145.049 111.756,145.049 108,145.5C 102.804,143.439 97.4705,142.106 92,141.5C 91.3123,142.332 91.479,142.998 92.5,143.5C 94.3361,144.028 96.0028,144.694 97.5,145.5C 97.7603,148.37 97.7603,151.203 97.5,154C 97.8198,155.653 98.8198,156.653 100.5,157C 99.2068,157.49 97.8734,157.657 96.5,157.5C 94.8333,157.5 93.1667,157.5 91.5,157.5C 90.5701,153.6 90.2367,149.6 90.5,145.5C 90.5399,142.012 91.2066,138.679 92.5,135.5 Z"/></g>
<g><path style="opacity:1" fill="#73bddb" d="M 129.5,124.5 C 127.436,124.762 126.103,125.929 125.5,128C 126.448,128.483 127.448,128.649 128.5,128.5C 128.98,133.822 129.313,139.155 129.5,144.5C 127.708,144.366 126.042,144.699 124.5,145.5C 124.5,143.5 124.5,141.5 124.5,139.5C 124.5,137.833 124.5,136.167 124.5,134.5C 124.5,133.833 124.5,133.167 124.5,132.5C 124.5,130.5 124.5,128.5 124.5,126.5C 124.414,125.504 124.748,124.671 125.5,124C 127.066,123.235 128.399,123.402 129.5,124.5 Z"/></g>
<g><path style="opacity:1" fill="#97b3d0" d="M 177.5,139.5 C 178.5,139.5 179.5,139.5 180.5,139.5C 180.5,141.167 180.5,142.833 180.5,144.5C 176.865,144.656 176.532,145.822 179.5,148C 176.906,150.436 174.239,152.603 171.5,154.5C 171.167,154.5 170.833,154.5 170.5,154.5C 170.5,150.167 170.5,145.833 170.5,141.5C 172.701,140.434 175.035,139.767 177.5,139.5 Z"/></g>
<g><path style="opacity:1" fill="#7ea0cc" d="M 189.5,132.5 C 189.288,134.384 188.288,135.717 186.5,136.5C 187.089,139.64 187.756,142.64 188.5,145.5C 185.646,146.794 182.979,148.461 180.5,150.5C 177.644,152.093 174.644,153.427 171.5,154.5C 174.239,152.603 176.906,150.436 179.5,148C 176.532,145.822 176.865,144.656 180.5,144.5C 180.5,142.833 180.5,141.167 180.5,139.5C 179.5,139.5 178.5,139.5 177.5,139.5C 177.5,139.167 177.5,138.833 177.5,138.5C 181.783,137.025 185.783,135.025 189.5,132.5 Z"/></g>
<g><path style="opacity:1" fill="#398ad1" d="M 201.5,129.5 C 201.5,132.833 201.5,136.167 201.5,139.5C 201.092,144.537 200.426,149.537 199.5,154.5C 197.833,154.5 196.167,154.5 194.5,154.5C 194.817,150.298 194.483,146.298 193.5,142.5C 193.833,141.833 194.167,141.167 194.5,140.5C 196.036,138.975 197.036,136.975 197.5,134.5C 198.192,135.025 198.692,135.692 199,136.5C 199.698,133.996 200.531,131.663 201.5,129.5 Z"/></g>
<g><path style="opacity:1" fill="#a4c1dd" d="M 61.5,129.5 C 68.1616,135.332 75.8282,139.332 84.5,141.5C 84.5,145.833 84.5,150.167 84.5,154.5C 75.1376,151.653 66.8043,146.986 59.5,140.5C 59.5,139.833 59.5,139.167 59.5,138.5C 59.0679,135.123 59.7345,132.123 61.5,129.5 Z"/></g>
<g><path style="opacity:1" fill="#4b73b7" d="M 119.5,145.5 C 121.167,146.167 122.833,146.833 124.5,147.5C 115.465,147.274 106.465,146.607 97.5,145.5C 96.0028,144.694 94.3361,144.028 92.5,143.5C 91.479,142.998 91.3123,142.332 92,141.5C 97.4705,142.106 102.804,143.439 108,145.5C 111.756,145.049 115.589,145.049 119.5,145.5 Z"/></g>
<g><path style="opacity:1" fill="#4569ab" d="M 163.5,141.5 C 163.5,142.167 163.5,142.833 163.5,143.5C 156.098,145.124 148.765,146.458 141.5,147.5C 137.833,147.5 134.167,147.5 130.5,147.5C 131.833,146.833 133.167,146.167 134.5,145.5C 144.348,145.185 154.014,143.851 163.5,141.5 Z"/></g>
<g><path style="opacity:1" fill="#51a0db" d="M 61.5,128.5 C 61.5,128.833 61.5,129.167 61.5,129.5C 59.7345,132.123 59.0679,135.123 59.5,138.5C 58.71,137.391 58.21,136.058 58,134.5C 56.6712,141.092 56.1712,147.759 56.5,154.5C 55.1127,152.123 54.2794,149.457 54,146.5C 53.5006,140.843 53.3339,135.176 53.5,129.5C 53.8333,129.5 54.1667,129.5 54.5,129.5C 54.3691,130.376 54.7025,131.043 55.5,131.5C 56.1757,130.398 56.8423,129.398 57.5,128.5C 58.4822,127.859 59.4822,127.193 60.5,126.5C 61.2975,126.957 61.6309,127.624 61.5,128.5 Z"/></g>
<g><path style="opacity:1" fill="#378cd4" d="M 59.5,138.5 C 59.5,139.167 59.5,139.833 59.5,140.5C 59.9157,145.493 60.2491,150.493 60.5,155.5C 59.0413,155.567 57.7079,155.234 56.5,154.5C 56.1712,147.759 56.6712,141.092 58,134.5C 58.21,136.058 58.71,137.391 59.5,138.5 Z"/></g>
<g><path style="opacity:1" fill="#b87d68" d="M 163.5,138.5 C 163.833,138.5 164.167,138.5 164.5,138.5C 165.15,140.435 165.483,142.435 165.5,144.5C 166.959,144.567 168.292,144.234 169.5,143.5C 169.825,148.599 169.325,153.599 168,158.5C 167.329,157.748 166.496,157.414 165.5,157.5C 165.927,151.886 165.26,146.553 163.5,141.5C 163.5,140.5 163.5,139.5 163.5,138.5 Z"/></g>
<g><path style="opacity:1" fill="#90b1d7" d="M 97.5,145.5 C 106.465,146.607 115.465,147.274 124.5,147.5C 124.5,150.5 124.5,153.5 124.5,156.5C 124.5,158.167 124.5,159.833 124.5,161.5C 123.167,161.5 121.833,161.5 120.5,161.5C 112.123,161.473 104.123,160.139 96.5,157.5C 97.8734,157.657 99.2068,157.49 100.5,157C 98.8198,156.653 97.8198,155.653 97.5,154C 97.7603,151.203 97.7603,148.37 97.5,145.5 Z"/></g>
<g><path style="opacity:1" fill="#90b1d6" d="M 130.5,147.5 C 134.167,147.5 137.833,147.5 141.5,147.5C 143.857,147.337 146.19,147.503 148.5,148C 148.957,148.414 149.291,148.914 149.5,149.5C 148.472,151.361 146.972,152.695 145,153.5C 144.682,155.061 143.849,156.228 142.5,157C 143.167,157.333 143.833,157.667 144.5,158C 143.429,158.852 142.429,159.685 141.5,160.5C 137.802,160.552 134.135,160.886 130.5,161.5C 130.5,156.833 130.5,152.167 130.5,147.5 Z"/></g>
<g><path style="opacity:1" fill="#85a2cc" d="M 163.5,143.5 C 163.5,143.833 163.5,144.167 163.5,144.5C 161.883,145.038 160.216,145.371 158.5,145.5C 158.546,149.138 158.879,152.805 159.5,156.5C 160.833,156.5 162.167,156.5 163.5,156.5C 164.167,156.5 164.5,156.833 164.5,157.5C 164.5,160.5 164.5,163.5 164.5,166.5C 164.167,166.5 163.833,166.5 163.5,166.5C 163.5,163.5 163.5,160.5 163.5,157.5C 156.218,158.929 148.885,159.929 141.5,160.5C 142.429,159.685 143.429,158.852 144.5,158C 143.833,157.667 143.167,157.333 142.5,157C 143.849,156.228 144.682,155.061 145,153.5C 146.972,152.695 148.472,151.361 149.5,149.5C 149.291,148.914 148.957,148.414 148.5,148C 146.19,147.503 143.857,147.337 141.5,147.5C 148.765,146.458 156.098,145.124 163.5,143.5 Z"/></g>
<g><path style="opacity:1" fill="#aaa5b5" d="M 163.5,141.5 C 165.26,146.553 165.927,151.886 165.5,157.5C 165.167,157.5 164.833,157.5 164.5,157.5C 164.5,156.833 164.167,156.5 163.5,156.5C 163.5,152.5 163.5,148.5 163.5,144.5C 163.5,144.167 163.5,143.833 163.5,143.5C 163.5,142.833 163.5,142.167 163.5,141.5 Z"/></g>
<g><path style="opacity:1" fill="#bc826a" d="M 93.5,131.5 C 93.1667,132.833 92.8333,134.167 92.5,135.5C 91.2066,138.679 90.5399,142.012 90.5,145.5C 88.8031,147.305 87.9698,149.639 88,152.5C 87.1841,153.823 86.0174,154.489 84.5,154.5C 84.5,150.167 84.5,145.833 84.5,141.5C 84.8333,141.5 85.1667,141.5 85.5,141.5C 85.369,142.239 85.5357,142.906 86,143.5C 86.7914,142.255 87.2914,140.922 87.5,139.5C 88.4959,139.586 89.3292,139.252 90,138.5C 90.5218,135.719 91.6885,133.385 93.5,131.5 Z"/></g>
<g><path style="opacity:1" fill="#5ba5d0" d="M 129.5,124.5 C 129.5,125.167 129.833,125.5 130.5,125.5C 130.5,126.833 130.5,128.167 130.5,129.5C 130.5,130.5 130.5,131.5 130.5,132.5C 130.5,133.167 130.5,133.833 130.5,134.5C 130.5,136.167 130.5,137.833 130.5,139.5C 130.5,141.5 130.5,143.5 130.5,145.5C 129.732,146.263 129.232,147.263 129,148.5C 127.844,147.007 127.01,147.174 126.5,149C 125.984,151.669 125.317,154.169 124.5,156.5C 124.5,153.5 124.5,150.5 124.5,147.5C 122.833,146.833 121.167,146.167 119.5,145.5C 121.167,145.5 122.833,145.5 124.5,145.5C 126.042,144.699 127.708,144.366 129.5,144.5C 129.313,139.155 128.98,133.822 128.5,128.5C 127.448,128.649 126.448,128.483 125.5,128C 126.103,125.929 127.436,124.762 129.5,124.5 Z"/></g>
<g><path style="opacity:1" fill="#406ac5" d="M 192.5,143.5 C 193.479,146.625 193.813,149.958 193.5,153.5C 189.154,153.666 184.821,153.499 180.5,153C 179.402,152.23 179.402,151.397 180.5,150.5C 182.979,148.461 185.646,146.794 188.5,145.5C 189.605,144.4 190.938,143.733 192.5,143.5 Z"/></g>
<g><path style="opacity:1" fill="#99b5d2" d="M 163.5,144.5 C 163.5,148.5 163.5,152.5 163.5,156.5C 162.167,156.5 160.833,156.5 159.5,156.5C 158.879,152.805 158.546,149.138 158.5,145.5C 160.216,145.371 161.883,145.038 163.5,144.5 Z"/></g>
<g><path style="opacity:1" fill="#4196d6" d="M 130.5,145.5 C 131.833,145.5 133.167,145.5 134.5,145.5C 133.167,146.167 131.833,146.833 130.5,147.5C 130.5,152.167 130.5,156.833 130.5,161.5C 130.5,164.833 130.5,168.167 130.5,171.5C 129.167,171.5 127.833,171.5 126.5,171.5C 124.972,170.198 123.972,168.531 123.5,166.5C 123.5,165.167 123.5,163.833 123.5,162.5C 122.209,162.737 121.209,162.404 120.5,161.5C 121.833,161.5 123.167,161.5 124.5,161.5C 124.5,159.833 124.5,158.167 124.5,156.5C 125.317,154.169 125.984,151.669 126.5,149C 127.01,147.174 127.844,147.007 129,148.5C 129.232,147.263 129.732,146.263 130.5,145.5 Z"/></g>
<g><path style="opacity:1" fill="#517dce" d="M 192.5,143.5 C 192.5,142.833 192.833,142.5 193.5,142.5C 194.483,146.298 194.817,150.298 194.5,154.5C 192.135,155.008 189.801,155.675 187.5,156.5C 187.167,157.833 186.833,159.167 186.5,160.5C 183.909,162.38 181.409,164.38 179,166.5C 176.712,166.263 174.212,166.263 171.5,166.5C 170.539,164.735 170.205,162.735 170.5,160.5C 170.5,158.5 170.5,156.5 170.5,154.5C 170.833,154.5 171.167,154.5 171.5,154.5C 174.644,153.427 177.644,152.093 180.5,150.5C 179.402,151.397 179.402,152.23 180.5,153C 184.821,153.499 189.154,153.666 193.5,153.5C 193.813,149.958 193.479,146.625 192.5,143.5 Z"/></g>
<g><path style="opacity:1" fill="#6491d9" d="M 59.5,140.5 C 66.8043,146.986 75.1376,151.653 84.5,154.5C 84.5,156.5 84.5,158.5 84.5,160.5C 84.5,162.5 84.5,164.5 84.5,166.5C 82.4727,166.662 80.4727,166.495 78.5,166C 73.5951,160.589 67.5951,157.089 60.5,155.5C 60.2491,150.493 59.9157,145.493 59.5,140.5 Z"/></g>
<g><path style="opacity:1" fill="#ac7775" d="M 90.5,145.5 C 90.2367,149.6 90.5701,153.6 91.5,157.5C 91.81,160.713 91.4767,163.713 90.5,166.5C 88.8561,166.714 87.3561,166.38 86,165.5C 85.8019,163.618 85.3019,161.952 84.5,160.5C 84.5,158.5 84.5,156.5 84.5,154.5C 86.0174,154.489 87.1841,153.823 88,152.5C 87.9698,149.639 88.8031,147.305 90.5,145.5 Z"/></g>
<g><path style="opacity:1" fill="#ab756f" d="M 168.5,133.5 C 169.537,134.93 170.204,136.597 170.5,138.5C 170.5,139.5 170.5,140.5 170.5,141.5C 170.5,145.833 170.5,150.167 170.5,154.5C 170.5,156.5 170.5,158.5 170.5,160.5C 169.698,161.952 169.198,163.618 169,165.5C 167.644,166.38 166.144,166.714 164.5,166.5C 164.5,163.5 164.5,160.5 164.5,157.5C 164.833,157.5 165.167,157.5 165.5,157.5C 166.496,157.414 167.329,157.748 168,158.5C 169.325,153.599 169.825,148.599 169.5,143.5C 169.167,140.167 168.833,136.833 168.5,133.5 Z"/></g>
<g><path style="opacity:1" fill="#5e8cd7" d="M 91.5,157.5 C 93.1667,157.5 94.8333,157.5 96.5,157.5C 104.123,160.139 112.123,161.473 120.5,161.5C 121.209,162.404 122.209,162.737 123.5,162.5C 123.5,163.833 123.5,165.167 123.5,166.5C 123.5,167.833 123.5,169.167 123.5,170.5C 118.017,169.454 112.517,168.454 107,167.5C 101.874,168.592 96.7074,168.759 91.5,168C 90.944,167.617 90.6107,167.117 90.5,166.5C 91.4767,163.713 91.81,160.713 91.5,157.5 Z"/></g>
<g><path style="opacity:1" fill="#5683d2" d="M 163.5,166.5 C 156.492,165.295 149.492,165.462 142.5,167C 141.061,167.991 140.061,169.324 139.5,171C 136.518,171.498 133.518,171.665 130.5,171.5C 130.5,168.167 130.5,164.833 130.5,161.5C 134.135,160.886 137.802,160.552 141.5,160.5C 148.885,159.929 156.218,158.929 163.5,157.5C 163.5,160.5 163.5,163.5 163.5,166.5 Z"/></g>
<g><path style="opacity:0.994" fill="#618cd4" d="M 255.5,112.5 C 255.5,133.5 255.5,154.5 255.5,175.5C 253.863,177.475 252.196,179.475 250.5,181.5C 248.167,181.5 245.833,181.5 243.5,181.5C 242.081,180.549 240.415,180.216 238.5,180.5C 238.5,179.5 238.5,178.5 238.5,177.5C 230.005,177.638 221.505,177.638 213,177.5C 200.252,174.784 187.419,172.284 174.5,170C 172.944,169.28 171.944,168.113 171.5,166.5C 174.212,166.263 176.712,166.263 179,166.5C 181.409,164.38 183.909,162.38 186.5,160.5C 186.833,159.167 187.167,157.833 187.5,156.5C 189.801,155.675 192.135,155.008 194.5,154.5C 196.167,154.5 197.833,154.5 199.5,154.5C 203.981,155.648 208.648,155.815 213.5,155C 215.333,153.5 217.167,152 219,150.5C 219.176,147.118 219.676,143.785 220.5,140.5C 226.5,140.936 232.5,140.436 238.5,139C 242.415,136.356 243.915,132.856 243,128.5C 245,126.5 247,124.5 249,122.5C 249.617,121.551 249.451,120.718 248.5,120C 250.956,117.563 253.29,115.063 255.5,112.5 Z"/></g>
<g><path style="opacity:1" fill="#6691d6" d="M 170.5,160.5 C 170.205,162.735 170.539,164.735 171.5,166.5C 171.944,168.113 172.944,169.28 174.5,170C 187.419,172.284 200.252,174.784 213,177.5C 221.505,177.638 230.005,177.638 238.5,177.5C 238.5,178.5 238.5,179.5 238.5,180.5C 240.415,180.216 242.081,180.549 243.5,181.5C 218.167,181.5 192.833,181.5 167.5,181.5C 153.516,179.437 139.849,176.103 126.5,171.5C 127.833,171.5 129.167,171.5 130.5,171.5C 133.518,171.665 136.518,171.498 139.5,171C 140.061,169.324 141.061,167.991 142.5,167C 149.492,165.462 156.492,165.295 163.5,166.5C 163.833,166.5 164.167,166.5 164.5,166.5C 166.144,166.714 167.644,166.38 169,165.5C 169.198,163.618 169.698,161.952 170.5,160.5 Z"/></g>
</svg>
