<?xml version="1.0" encoding="UTF-8"?>
<!DOCTYPE svg PUBLIC "-//W3C//DTD SVG 1.1//EN" "http://www.w3.org/Graphics/SVG/1.1/DTD/svg11.dtd">
<svg xmlns="http://www.w3.org/2000/svg" version="1.1" width="256px" height="182px" style="shape-rendering:geometricPrecision; text-rendering:geometricPrecision; image-rendering:optimizeQuality; fill-rule:evenodd; clip-rule:evenodd" xmlns:xlink="http://www.w3.org/1999/xlink">
<g><path style="opacity:1" fill="#f1b47d" d="M 4.5,-0.5 C 7.83333,-0.5 11.1667,-0.5 14.5,-0.5C 14.5533,2.1403 15.22,4.6403 16.5,7C 14.574,12.6993 14.074,18.5326 15,24.5C 15.5,25 16,25.5 16.5,26C 15,26.8333 13.8333,28 13,29.5C 12.5017,32.8168 12.335,36.1501 12.5,39.5C 11.5,39.5 10.5,39.5 9.5,39.5C 10.7932,44.2021 9.95988,48.5354 7,52.5C 6.74354,55.557 6.24354,58.557 5.5,61.5C 5.83333,62.1667 6.16667,62.8333 6.5,63.5C 3.81032,65.1935 1.81032,67.5268 0.5,70.5C 2.07948,73.9939 3.91282,77.3272 6,80.5C 6.17192,83.8255 6.00525,87.1589 5.5,90.5C 6.97782,90.238 8.31116,90.5713 9.5,91.5C 8.584,93.7845 9.584,94.9512 12.5,95C 11.552,95.4828 10.552,95.6495 9.5,95.5C 9.82574,98.3113 10.6591,100.978 12,103.5C 12.4988,107.486 12.6655,111.486 12.5,115.5C 11.5,115.5 10.5,115.5 9.5,115.5C 9.66331,117.857 9.49665,120.19 9,122.5C 6.90313,125.41 5.06979,128.41 3.5,131.5C 1.80072,131.527 0.46739,132.194 -0.5,133.5C -0.5,90.8333 -0.5,48.1667 -0.5,5.5C 1.13696,3.52483 2.80363,1.52483 4.5,-0.5 Z"/></g>
<g><path style="opacity:1" fill="#f1b179" d="M 14.5,-0.5 C 20.8333,-0.5 27.1667,-0.5 33.5,-0.5C 33.5309,7.78258 32.1976,15.7826 29.5,23.5C 31.3072,26.0126 32.3072,28.8459 32.5,32C 31.7424,35.5338 31.7424,38.8671 32.5,42C 30.8495,44.8131 28.8495,47.3131 26.5,49.5C 27.376,50.2508 28.376,50.7508 29.5,51C 26.7691,53.8966 25.7691,57.3966 26.5,61.5C 24.6096,61.2965 23.1096,61.9632 22,63.5C 19.6173,66.932 17.784,70.5987 16.5,74.5C 19.7629,76.581 22.9296,78.9143 26,81.5C 27.0283,86.3823 28.1949,91.2156 29.5,96C 29.6352,99.042 28.9685,101.875 27.5,104.5C 28.4891,105.468 29.1557,106.635 29.5,108C 28.4074,110.734 28.4074,113.4 29.5,116C 27.3823,119.149 26.049,122.649 25.5,126.5C 23.5096,128.656 21.3429,130.656 19,132.5C 18.5439,133.744 19.0439,134.577 20.5,135C 19.0726,137.369 17.2393,137.869 15,136.5C 13.2734,138.012 12.1067,139.679 11.5,141.5C 9.80866,139.744 7.80866,139.244 5.5,140C 5.83333,140.333 6.16667,140.667 6.5,141C 4.26255,142.629 1.92921,144.129 -0.5,145.5C -0.5,141.5 -0.5,137.5 -0.5,133.5C 0.46739,132.194 1.80072,131.527 3.5,131.5C 5.06979,128.41 6.90313,125.41 9,122.5C 9.49665,120.19 9.66331,117.857 9.5,115.5C 10.5,115.5 11.5,115.5 12.5,115.5C 12.6655,111.486 12.4988,107.486 12,103.5C 10.6591,100.978 9.82574,98.3113 9.5,95.5C 10.552,95.6495 11.552,95.4828 12.5,95C 9.584,94.9512 8.584,93.7845 9.5,91.5C 8.31116,90.5713 6.97782,90.238 5.5,90.5C 6.00525,87.1589 6.17192,83.8255 6,80.5C 3.91282,77.3272 2.07948,73.9939 0.5,70.5C 1.81032,67.5268 3.81032,65.1935 6.5,63.5C 6.16667,62.8333 5.83333,62.1667 5.5,61.5C 6.24354,58.557 6.74354,55.557 7,52.5C 9.95988,48.5354 10.7932,44.2021 9.5,39.5C 10.5,39.5 11.5,39.5 12.5,39.5C 12.335,36.1501 12.5017,32.8168 13,29.5C 13.8333,28 15,26.8333 16.5,26C 16,25.5 15.5,25 15,24.5C 14.074,18.5326 14.574,12.6993 16.5,7C 15.22,4.6403 14.5533,2.1403 14.5,-0.5 Z"/></g>
<g><path style="opacity:1" fill="#efac72" d="M 33.5,-0.5 C 40.8333,-0.5 48.1667,-0.5 55.5,-0.5C 55.5,2.83333 55.5,6.16667 55.5,9.5C 54.325,9.28099 53.325,9.61432 52.5,10.5C 53.2144,17.3393 53.5477,24.1727 53.5,31C 50.7883,33.123 50.1217,35.623 51.5,38.5C 50.5,38.5 49.5,38.5 48.5,38.5C 49.0026,44.1681 47.5026,49.1681 44,53.5C 43.8253,57.211 43.3253,60.8776 42.5,64.5C 41.676,62.2524 40.676,62.0858 39.5,64C 40.3567,64.6891 41.0233,65.5224 41.5,66.5C 40.1845,67.8066 39.1845,69.3066 38.5,71C 40.6237,73.5039 42.2904,76.3372 43.5,79.5C 42.5714,81.3217 43.2381,82.6551 45.5,83.5C 46.5575,87.2834 48.3908,90.6168 51,93.5C 50.8969,99.4101 51.2302,105.41 52,111.5C 53.0113,110.663 54.1779,110.33 55.5,110.5C 55.2108,114.106 55.5442,117.606 56.5,121C 53.1667,124 49.8333,127 46.5,130C 47.6405,130.741 47.6405,131.575 46.5,132.5C 44.0821,133.415 42.0821,134.915 40.5,137C 37.5571,137.942 34.7238,139.108 32,140.5C 31.3333,143.833 31.3333,147.167 32,150.5C 33.3561,151.38 34.8561,151.714 36.5,151.5C 36.4873,154.863 34.8206,157.03 31.5,158C 20.4769,160.951 9.81028,164.785 -0.5,169.5C -0.5,161.5 -0.5,153.5 -0.5,145.5C 1.92921,144.129 4.26255,142.629 6.5,141C 6.16667,140.667 5.83333,140.333 5.5,140C 7.80866,139.244 9.80866,139.744 11.5,141.5C 12.1067,139.679 13.2734,138.012 15,136.5C 17.2393,137.869 19.0726,137.369 20.5,135C 19.0439,134.577 18.5439,133.744 19,132.5C 21.3429,130.656 23.5096,128.656 25.5,126.5C 26.049,122.649 27.3823,119.149 29.5,116C 28.4074,113.4 28.4074,110.734 29.5,108C 29.1557,106.635 28.4891,105.468 27.5,104.5C 28.9685,101.875 29.6352,99.042 29.5,96C 28.1949,91.2156 27.0283,86.3823 26,81.5C 22.9296,78.9143 19.7629,76.581 16.5,74.5C 17.784,70.5987 19.6173,66.932 22,63.5C 23.1096,61.9632 24.6096,61.2965 26.5,61.5C 25.7691,57.3966 26.7691,53.8966 29.5,51C 28.376,50.7508 27.376,50.2508 26.5,49.5C 28.8495,47.3131 30.8495,44.8131 32.5,42C 31.7424,38.8671 31.7424,35.5338 32.5,32C 32.3072,28.8459 31.3072,26.0126 29.5,23.5C 32.1976,15.7826 33.5309,7.78258 33.5,-0.5 Z"/></g>
<g><path style="opacity:0.999" fill="#eca56d" d="M 55.5,-0.5 C 65.1667,-0.5 74.8333,-0.5 84.5,-0.5C 84.2606,1.4672 84.5939,3.30054 85.5,5C 83.3219,9.5497 82.1552,14.383 82,19.5C 78.1091,25.0273 75.9425,31.1939 75.5,38C 76.4158,38.2784 77.0825,38.7784 77.5,39.5C 75.2646,39.2053 73.2646,39.5386 71.5,40.5C 71.1667,41.5 70.5,42.1667 69.5,42.5C 68.2502,42.5774 67.4169,43.244 67,44.5C 66.1699,70.6699 66.3365,96.6699 67.5,122.5C 68.1237,124.754 69.457,126.421 71.5,127.5C 71.2155,129.877 71.2155,132.044 71.5,134C 69.8707,134.585 68.3707,135.419 67,136.5C 66.3333,135.833 65.6667,135.167 65,134.5C 62.7114,136.06 60.2114,137.227 57.5,138C 58.5,138.333 59.5,138.667 60.5,139C 59.09,139.368 58.09,140.201 57.5,141.5C 60.5471,142.875 61.8804,145.208 61.5,148.5C 55.6875,148.344 55.3541,149.011 60.5,150.5C 61.3857,151.325 61.719,152.325 61.5,153.5C 56.9832,152.659 53.3166,153.992 50.5,157.5C 49.2638,158.246 47.9305,158.579 46.5,158.5C 46.5,159.5 46.5,160.5 46.5,161.5C 44.146,161.838 41.8127,162.338 39.5,163C 37.5614,163.908 36.5614,165.408 36.5,167.5C 30.2118,170.288 23.5451,171.955 16.5,172.5C 16.5792,173.93 16.2458,175.264 15.5,176.5C 11.3821,177.177 7.38207,178.177 3.5,179.5C 2.16667,178.5 0.833333,177.5 -0.5,176.5C -0.5,174.167 -0.5,171.833 -0.5,169.5C 9.81028,164.785 20.4769,160.951 31.5,158C 34.8206,157.03 36.4873,154.863 36.5,151.5C 34.8561,151.714 33.3561,151.38 32,150.5C 31.3333,147.167 31.3333,143.833 32,140.5C 34.7238,139.108 37.5571,137.942 40.5,137C 42.0821,134.915 44.0821,133.415 46.5,132.5C 47.6405,131.575 47.6405,130.741 46.5,130C 49.8333,127 53.1667,124 56.5,121C 55.5442,117.606 55.2108,114.106 55.5,110.5C 54.1779,110.33 53.0113,110.663 52,111.5C 51.2302,105.41 50.8969,99.4101 51,93.5C 48.3908,90.6168 46.5575,87.2834 45.5,83.5C 43.2381,82.6551 42.5714,81.3217 43.5,79.5C 42.2904,76.3372 40.6237,73.5039 38.5,71C 39.1845,69.3066 40.1845,67.8066 41.5,66.5C 41.0233,65.5224 40.3567,64.6891 39.5,64C 40.676,62.0858 41.676,62.2524 42.5,64.5C 43.3253,60.8776 43.8253,57.211 44,53.5C 47.5026,49.1681 49.0026,44.1681 48.5,38.5C 49.5,38.5 50.5,38.5 51.5,38.5C 50.1217,35.623 50.7883,33.123 53.5,31C 53.5477,24.1727 53.2144,17.3393 52.5,10.5C 53.325,9.61432 54.325,9.28099 55.5,9.5C 55.5,6.16667 55.5,2.83333 55.5,-0.5 Z"/></g>
<g><path style="opacity:1" fill="#ea9e66" d="M 84.5,-0.5 C 89.8333,-0.5 95.1667,-0.5 100.5,-0.5C 99.5582,8.54547 98.2249,17.5455 96.5,26.5C 96.6667,27.5 96.8333,28.5 97,29.5C 97.2163,27.6161 97.883,25.9494 99,24.5C 99.1667,25.3333 99.3333,26.1667 99.5,27C 98.6898,30.7921 98.3564,34.6255 98.5,38.5C 103.363,38.1805 108.03,38.5139 112.5,39.5C 100.833,39.5 89.1667,39.5 77.5,39.5C 77.0825,38.7784 76.4158,38.2784 75.5,38C 75.9425,31.1939 78.1091,25.0273 82,19.5C 82.1552,14.383 83.3219,9.5497 85.5,5C 84.5939,3.30054 84.2606,1.4672 84.5,-0.5 Z"/></g>
<g><path style="opacity:1" fill="#e89960" d="M 100.5,-0.5 C 109.833,-0.5 119.167,-0.5 128.5,-0.5C 128.572,7.8174 127.572,15.9841 125.5,24C 125.844,25.3651 126.511,26.5318 127.5,27.5C 127.629,30.0644 127.296,32.7311 126.5,35.5C 127.18,36.8599 127.847,38.1932 128.5,39.5C 123.167,39.5 117.833,39.5 112.5,39.5C 108.03,38.5139 103.363,38.1805 98.5,38.5C 98.3564,34.6255 98.6898,30.7921 99.5,27C 99.3333,26.1667 99.1667,25.3333 99,24.5C 97.883,25.9494 97.2163,27.6161 97,29.5C 96.8333,28.5 96.6667,27.5 96.5,26.5C 98.2249,17.5455 99.5582,8.54547 100.5,-0.5 Z"/></g>
<g><path style="opacity:1" fill="#e3925a" d="M 128.5,-0.5 C 137.167,-0.5 145.833,-0.5 154.5,-0.5C 156.23,11.0861 156.897,22.7527 156.5,34.5C 153.664,34.2022 153.164,34.8689 155,36.5C 155.333,36.1667 155.667,35.8333 156,35.5C 156.483,36.448 156.649,37.448 156.5,38.5C 160.371,38.185 164.038,38.5184 167.5,39.5C 154.5,39.5 141.5,39.5 128.5,39.5C 127.847,38.1932 127.18,36.8599 126.5,35.5C 127.296,32.7311 127.629,30.0644 127.5,27.5C 126.511,26.5318 125.844,25.3651 125.5,24C 127.572,15.9841 128.572,7.8174 128.5,-0.5 Z"/></g>
<g><path style="opacity:1" fill="#e08c54" d="M 154.5,-0.5 C 160.833,-0.5 167.167,-0.5 173.5,-0.5C 173.168,9.52216 173.501,19.5222 174.5,29.5C 174.961,32.9551 175.961,36.1218 177.5,39C 174.183,39.4983 170.85,39.665 167.5,39.5C 164.038,38.5184 160.371,38.185 156.5,38.5C 156.649,37.448 156.483,36.448 156,35.5C 155.667,35.8333 155.333,36.1667 155,36.5C 153.164,34.8689 153.664,34.2022 156.5,34.5C 156.897,22.7527 156.23,11.0861 154.5,-0.5 Z"/></g>
<g><path style="opacity:1" fill="#dd824e" d="M 191.5,-0.5 C 200.5,-0.5 209.5,-0.5 218.5,-0.5C 218.421,0.930472 218.754,2.26381 219.5,3.5C 217.844,13.0606 217.01,22.7273 217,32.5C 212.583,45.1953 208.75,58.0286 205.5,71C 208.675,76.5644 211.842,82.0644 215,87.5C 215.667,91.8333 215.667,96.1667 215,100.5C 213.167,107.827 211.333,115.16 209.5,122.5C 209.68,123.554 210.013,124.554 210.5,125.5C 204.118,127.515 197.784,130.515 191.5,134.5C 192.603,134.998 193.603,135.331 194.5,135.5C 192.117,136.387 189.784,137.387 187.5,138.5C 174.789,140.871 162.123,143.204 149.5,145.5C 148.583,144.873 147.583,144.539 146.5,144.5C 154.628,143.714 162.628,141.881 170.5,139C 175.108,135.863 180.108,133.53 185.5,132C 189.002,129.989 189.002,128.656 185.5,128C 186.563,126.812 187.897,126.312 189.5,126.5C 189.5,124.833 189.5,123.167 189.5,121.5C 190.822,121.33 191.989,121.663 193,122.5C 193.938,117.485 196.938,114.152 202,112.5C 204.015,113.842 206.182,114.342 208.5,114C 208.481,111.031 208.314,107.865 208,104.5C 207.311,105.357 206.478,106.023 205.5,106.5C 203.253,105.626 200.92,105.292 198.5,105.5C 200.476,98.3293 199.476,91.6627 195.5,85.5C 194.729,87.8622 193.895,90.1955 193,92.5C 192.124,84.6169 190.958,76.7836 189.5,69C 191.288,58.9261 191.455,49.0927 190,39.5C 189.667,40.8333 189.333,42.1667 189,43.5C 186.125,40.4695 182.625,38.4695 178.5,37.5C 180.681,34.1259 182.181,30.4592 183,26.5C 185.228,24.8866 187.728,24.22 190.5,24.5C 191.018,27.8873 191.851,31.2206 193,34.5C 194.531,24.5517 194.865,14.5517 194,4.5C 191.175,3.41582 191.008,2.24915 193.5,1C 192.584,0.721579 191.918,0.221579 191.5,-0.5 Z"/></g>
<g><path style="opacity:1" fill="#d87d4b" d="M 218.5,-0.5 C 224.167,-0.5 229.833,-0.5 235.5,-0.5C 235.406,3.13582 234.739,6.63582 233.5,10C 235.751,9.79319 238.085,9.62652 240.5,9.5C 240.899,6.3043 241.899,3.3043 243.5,0.5C 245.88,2.68384 247.214,5.18384 247.5,8C 246.933,13.4851 245.6,18.6518 243.5,23.5C 242.487,29.4032 242.487,35.2366 243.5,41C 240.162,42.8514 238.829,45.6847 239.5,49.5C 234.538,48.7951 230.871,50.6284 228.5,55C 229.167,55.3333 229.833,55.6667 230.5,56C 228.833,56.3333 227.167,56.6667 225.5,57C 224.663,58.0113 224.33,59.1779 224.5,60.5C 222.5,60.5 220.5,60.5 218.5,60.5C 218.799,62.604 218.466,64.604 217.5,66.5C 213.895,68.7933 213.562,71.6267 216.5,75C 223.531,78.8635 230.864,82.0302 238.5,84.5C 238.914,89.7629 238.914,95.0962 238.5,100.5C 237.167,100.5 235.833,100.5 234.5,100.5C 234.146,113.769 233.146,113.769 231.5,100.5C 229.271,102.099 228.938,104.099 230.5,106.5C 229.054,108.618 228.387,110.951 228.5,113.5C 225.795,113.38 225.128,114.38 226.5,116.5C 230.445,117.491 234.445,117.824 238.5,117.5C 238.238,118.978 238.571,120.311 239.5,121.5C 240.687,120.106 241.354,120.273 241.5,122C 241.241,123.261 240.574,124.261 239.5,125C 241.377,126.185 243.377,127.185 245.5,128C 238.012,132.077 230.012,134.41 221.5,135C 220.29,136.039 219.29,137.206 218.5,138.5C 194.333,141.779 170.166,144.779 146,147.5C 143.519,145.686 140.685,145.02 137.5,145.5C 136.833,145.5 136.5,145.167 136.5,144.5C 139.833,144.5 143.167,144.5 146.5,144.5C 147.583,144.539 148.583,144.873 149.5,145.5C 162.123,143.204 174.789,140.871 187.5,138.5C 189.784,137.387 192.117,136.387 194.5,135.5C 193.603,135.331 192.603,134.998 191.5,134.5C 197.784,130.515 204.118,127.515 210.5,125.5C 210.013,124.554 209.68,123.554 209.5,122.5C 211.333,115.16 213.167,107.827 215,100.5C 215.667,96.1667 215.667,91.8333 215,87.5C 211.842,82.0644 208.675,76.5644 205.5,71C 208.75,58.0286 212.583,45.1953 217,32.5C 217.01,22.7273 217.844,13.0606 219.5,3.5C 218.754,2.26381 218.421,0.930472 218.5,-0.5 Z"/></g>
<g><path style="opacity:1" fill="#d6794a" d="M 235.5,-0.5 C 240.167,-0.5 244.833,-0.5 249.5,-0.5C 251.475,1.13696 253.475,2.80363 255.5,4.5C 255.5,48.8333 255.5,93.1667 255.5,137.5C 243.235,137.863 230.901,138.196 218.5,138.5C 219.29,137.206 220.29,136.039 221.5,135C 230.012,134.41 238.012,132.077 245.5,128C 243.377,127.185 241.377,126.185 239.5,125C 240.574,124.261 241.241,123.261 241.5,122C 241.354,120.273 240.687,120.106 239.5,121.5C 238.571,120.311 238.238,118.978 238.5,117.5C 234.445,117.824 230.445,117.491 226.5,116.5C 225.128,114.38 225.795,113.38 228.5,113.5C 228.387,110.951 229.054,108.618 230.5,106.5C 228.938,104.099 229.271,102.099 231.5,100.5C 233.146,113.769 234.146,113.769 234.5,100.5C 235.833,100.5 237.167,100.5 238.5,100.5C 238.914,95.0962 238.914,89.7629 238.5,84.5C 230.864,82.0302 223.531,78.8635 216.5,75C 213.562,71.6267 213.895,68.7933 217.5,66.5C 218.466,64.604 218.799,62.604 218.5,60.5C 220.5,60.5 222.5,60.5 224.5,60.5C 224.33,59.1779 224.663,58.0113 225.5,57C 227.167,56.6667 228.833,56.3333 230.5,56C 229.833,55.6667 229.167,55.3333 228.5,55C 230.871,50.6284 234.538,48.7951 239.5,49.5C 238.829,45.6847 240.162,42.8514 243.5,41C 242.487,35.2366 242.487,29.4032 243.5,23.5C 245.6,18.6518 246.933,13.4851 247.5,8C 247.214,5.18384 245.88,2.68384 243.5,0.5C 241.899,3.3043 240.899,6.3043 240.5,9.5C 238.085,9.62652 235.751,9.79319 233.5,10C 234.739,6.63582 235.406,3.13582 235.5,-0.5 Z"/></g>
<g><path style="opacity:1" fill="#3c2923" d="M 107.5,43.5 C 131.836,43.3334 156.169,43.5 180.5,44C 181.942,44.3768 182.942,45.2101 183.5,46.5C 183.167,46.5 182.833,46.5 182.5,46.5C 181.527,46.0133 180.527,45.5133 179.5,45C 144.167,44.3333 108.833,44.3333 73.5,45C 72.9558,45.7172 72.2891,46.2172 71.5,46.5C 71.5,45.5 71.5,44.5 71.5,43.5C 83.5,43.5 95.5,43.5 107.5,43.5 Z"/></g>
<g><path style="opacity:1" fill="#433a36" d="M 71.5,40.5 C 86.8333,40.5 102.167,40.5 117.5,40.5C 113.688,41.3238 109.688,41.8238 105.5,42C 106.416,42.2784 107.082,42.7784 107.5,43.5C 95.5,43.5 83.5,43.5 71.5,43.5C 71.5,44.5 71.5,45.5 71.5,46.5C 70.503,65.6595 70.1697,84.9928 70.5,104.5C 69.6981,103.048 69.1981,101.382 69,99.5C 68.8227,103.356 68.3227,107.023 67.5,110.5C 67.3334,88.8308 67.5,67.1641 68,45.5C 68.5133,44.4734 69.0133,43.4734 69.5,42.5C 70.5,42.1667 71.1667,41.5 71.5,40.5 Z"/></g>
<g><path style="opacity:1" fill="#2a2321" d="M 117.5,40.5 C 139.503,40.3334 161.503,40.5 183.5,41C 184.705,42.3756 186.038,43.5423 187.5,44.5C 187.667,66.1692 187.5,87.8359 187,109.5C 186.667,108.167 186.333,106.833 186,105.5C 185.617,106.056 185.117,106.389 184.5,106.5C 184.821,86.4241 184.487,66.4241 183.5,46.5C 182.942,45.2101 181.942,44.3768 180.5,44C 156.169,43.5 131.836,43.3334 107.5,43.5C 107.082,42.7784 106.416,42.2784 105.5,42C 109.688,41.8238 113.688,41.3238 117.5,40.5 Z"/></g>
<g><path style="opacity:1" fill="#d0ac93" d="M 69.5,42.5 C 69.0133,43.4734 68.5133,44.4734 68,45.5C 67.5,67.1641 67.3334,88.8308 67.5,110.5C 67.5,114.5 67.5,118.5 67.5,122.5C 66.3365,96.6699 66.1699,70.6699 67,44.5C 67.4169,43.244 68.2502,42.5774 69.5,42.5 Z"/></g>
<g><path style="opacity:1" fill="#1a100d" d="M 182.5,46.5 C 182.823,71.2413 182.49,95.9079 181.5,120.5C 145.573,121.493 109.573,121.826 73.5,121.5C 72.8333,121.5 72.5,121.167 72.5,120.5C 71.5192,95.8782 71.1858,71.2115 71.5,46.5C 72.2891,46.2172 72.9558,45.7172 73.5,45C 108.833,44.3333 144.167,44.3333 179.5,45C 180.527,45.5133 181.527,46.0133 182.5,46.5 Z"/></g>
<g><path style="opacity:1" fill="#312725" d="M 95.5,47.5 C 96.5676,48.4345 97.901,48.7678 99.5,48.5C 100.445,52.7545 100.445,56.7545 99.5,60.5C 103.795,60.2787 104.462,61.6121 101.5,64.5C 100.205,65.0983 98.8721,65.5983 97.5,66C 98.448,66.4828 99.448,66.6495 100.5,66.5C 100.785,68.288 100.452,69.9547 99.5,71.5C 97.0514,71.98 94.8847,72.98 93,74.5C 92.6445,81.3664 91.4778,88.0331 89.5,94.5C 94.118,93.9748 95.118,95.3081 92.5,98.5C 92.8333,99.1667 93.1667,99.8333 93.5,100.5C 91.3689,100.338 90.3689,101.671 90.5,104.5C 87.482,104.8 85.482,106.467 84.5,109.5C 82.2573,110.474 79.924,110.808 77.5,110.5C 74.8194,89.9468 73.8194,69.2802 74.5,48.5C 75.3838,56.3347 76.0505,64.3347 76.5,72.5C 80.7029,73.2979 83.3695,71.6312 84.5,67.5C 83.624,66.7492 82.624,66.2492 81.5,66C 83.7619,65.3581 85.9285,64.5248 88,63.5C 88.7504,64.1258 89.5838,64.6258 90.5,65C 90.0037,66.9964 89.0037,68.6631 87.5,70C 88.5929,71.3654 89.9262,71.6987 91.5,71C 92.3431,69.2134 92.5098,67.3801 92,65.5C 93.016,64.3659 93.6827,64.6992 94,66.5C 94.711,64.1009 94.5443,61.7676 93.5,59.5C 94.325,58.6143 95.325,58.281 96.5,58.5C 96.9287,54.5413 95.9287,51.0413 93.5,48C 94.0944,47.5357 94.7611,47.369 95.5,47.5 Z"/></g>
<g><path style="opacity:1" fill="#2b2220" d="M 95.5,46.5 C 103.196,46.515 110.862,47.015 118.5,48C 117.5,48.8333 116.5,49.6667 115.5,50.5C 116.274,51.7112 117.107,51.7112 118,50.5C 118.419,51.6721 119.085,52.6721 120,53.5C 119.577,55.3867 119.744,57.3867 120.5,59.5C 121.5,59.5 122.5,59.5 123.5,59.5C 120.167,65.8333 116.833,72.1667 113.5,78.5C 114.948,81.264 117.281,82.9307 120.5,83.5C 122.32,85.4484 124.654,86.4484 127.5,86.5C 127.5,86.8333 127.5,87.1667 127.5,87.5C 125.167,87.5 122.833,87.5 120.5,87.5C 118.264,86.6109 116.264,85.2776 114.5,83.5C 114.167,83.8333 113.833,84.1667 113.5,84.5C 114.456,86.0754 115.123,87.742 115.5,89.5C 114.841,92.4082 114.007,92.7416 113,90.5C 112.395,92.4812 111.395,92.8146 110,91.5C 110.127,89.6123 110.96,87.9457 112.5,86.5C 111.5,83.8333 110.5,81.1667 109.5,78.5C 110.268,85.9738 108.602,92.9738 104.5,99.5C 99.6093,100.661 94.9426,102.328 90.5,104.5C 90.3689,101.671 91.3689,100.338 93.5,100.5C 93.1667,99.8333 92.8333,99.1667 92.5,98.5C 95.118,95.3081 94.118,93.9748 89.5,94.5C 91.4778,88.0331 92.6445,81.3664 93,74.5C 94.8847,72.98 97.0514,71.98 99.5,71.5C 100.452,69.9547 100.785,68.288 100.5,66.5C 99.448,66.6495 98.448,66.4828 97.5,66C 98.8721,65.5983 100.205,65.0983 101.5,64.5C 104.462,61.6121 103.795,60.2787 99.5,60.5C 100.445,56.7545 100.445,52.7545 99.5,48.5C 97.901,48.7678 96.5676,48.4345 95.5,47.5C 95.5,47.1667 95.5,46.8333 95.5,46.5 Z"/></g>
<g><path style="opacity:1" fill="#f4f3f2" d="M 125.5,57.5 C 126.487,62.3054 126.821,67.3054 126.5,72.5C 126.5,72.8333 126.5,73.1667 126.5,73.5C 122.088,74.9704 117.755,76.6371 113.5,78.5C 116.833,72.1667 120.167,65.8333 123.5,59.5C 124.5,59.1667 125.167,58.5 125.5,57.5 Z"/></g>
<g><path style="opacity:1" fill="#1b1412" d="M 76.5,46.5 C 90.1626,45.8334 103.996,45.5001 118,45.5C 137.87,45.3115 157.704,45.9782 177.5,47.5C 178.777,52.1532 179.443,56.9865 179.5,62C 179.104,67.3438 179.104,72.5104 179.5,77.5C 179.192,78.3081 178.692,78.9747 178,79.5C 177.667,76.1667 177.333,72.8333 177,69.5C 176.667,70.1667 176.333,70.8333 176,71.5C 174.991,69.9751 174.491,68.3084 174.5,66.5C 170.754,66.8108 167.42,65.8108 164.5,63.5C 162.954,64.2116 161.954,65.3783 161.5,67C 163.029,68.582 163.529,70.4153 163,72.5C 160.25,71.7089 157.417,71.7089 154.5,72.5C 155.016,77.7893 155.183,83.1226 155,88.5C 156.054,90.7536 157.554,91.087 159.5,89.5C 160.119,92.0318 161.119,94.3651 162.5,96.5C 161.398,97.1757 160.398,97.8423 159.5,98.5C 151.81,98.391 147.81,94.7243 147.5,87.5C 142.601,91.5489 141.934,91.2155 145.5,86.5C 143.389,84.4603 141.722,84.4603 140.5,86.5C 140.631,85.7611 140.464,85.0944 140,84.5C 137.521,86.3141 135.021,87.9808 132.5,89.5C 130.685,90.6298 128.685,91.2964 126.5,91.5C 124.205,90.5254 122.205,89.1921 120.5,87.5C 122.833,87.5 125.167,87.5 127.5,87.5C 130.934,87.2719 133.934,85.6053 136.5,82.5C 138.826,81.8553 140.493,80.522 141.5,78.5C 138.646,71.9847 134.98,65.9847 130.5,60.5C 129.185,64.3926 128.518,68.3926 128.5,72.5C 128.167,72.5 127.833,72.5 127.5,72.5C 127.666,66.8236 127.499,61.1569 127,55.5C 126.283,56.0442 125.783,56.7109 125.5,57.5C 125.167,58.5 124.5,59.1667 123.5,59.5C 122.5,59.5 121.5,59.5 120.5,59.5C 119.744,57.3867 119.577,55.3867 120,53.5C 119.085,52.6721 118.419,51.6721 118,50.5C 117.107,51.7112 116.274,51.7112 115.5,50.5C 116.5,49.6667 117.5,48.8333 118.5,48C 110.862,47.015 103.196,46.515 95.5,46.5C 89.1667,46.5 82.8333,46.5 76.5,46.5 Z"/></g>
<g><path style="opacity:1" fill="#312c28" d="M 76.5,46.5 C 82.8333,46.5 89.1667,46.5 95.5,46.5C 95.5,46.8333 95.5,47.1667 95.5,47.5C 94.7611,47.369 94.0944,47.5357 93.5,48C 95.9287,51.0413 96.9287,54.5413 96.5,58.5C 95.325,58.281 94.325,58.6143 93.5,59.5C 94.5443,61.7676 94.711,64.1009 94,66.5C 93.6827,64.6992 93.016,64.3659 92,65.5C 92.5098,67.3801 92.3431,69.2134 91.5,71C 89.9262,71.6987 88.5929,71.3654 87.5,70C 89.0037,68.6631 90.0037,66.9964 90.5,65C 89.5838,64.6258 88.7504,64.1258 88,63.5C 85.9285,64.5248 83.7619,65.3581 81.5,66C 82.624,66.2492 83.624,66.7492 84.5,67.5C 83.3695,71.6312 80.7029,73.2979 76.5,72.5C 76.0505,64.3347 75.3838,56.3347 74.5,48.5C 74.5,47.1667 75.1667,46.5 76.5,46.5 Z"/></g>
<g><path style="opacity:1" fill="#b1b2b3" d="M 127.5,72.5 C 127.167,72.5 126.833,72.5 126.5,72.5C 126.821,67.3054 126.487,62.3054 125.5,57.5C 125.783,56.7109 126.283,56.0442 127,55.5C 127.499,61.1569 127.666,66.8236 127.5,72.5 Z"/></g>
<g><path style="opacity:1" fill="#1b2936" d="M 141.5,78.5 C 136.722,77.275 132.389,75.275 128.5,72.5C 128.518,68.3926 129.185,64.3926 130.5,60.5C 134.98,65.9847 138.646,71.9847 141.5,78.5 Z"/></g>
<g><path style="opacity:1" fill="#d98553" d="M 173.5,-0.5 C 179.5,-0.5 185.5,-0.5 191.5,-0.5C 191.918,0.221579 192.584,0.721579 193.5,1C 191.008,2.24915 191.175,3.41582 194,4.5C 194.865,14.5517 194.531,24.5517 193,34.5C 191.851,31.2206 191.018,27.8873 190.5,24.5C 187.728,24.22 185.228,24.8866 183,26.5C 182.181,30.4592 180.681,34.1259 178.5,37.5C 182.625,38.4695 186.125,40.4695 189,43.5C 189.333,42.1667 189.667,40.8333 190,39.5C 191.455,49.0927 191.288,58.9261 189.5,69C 190.958,76.7836 192.124,84.6169 193,92.5C 193.895,90.1955 194.729,87.8622 195.5,85.5C 199.476,91.6627 200.476,98.3293 198.5,105.5C 200.92,105.292 203.253,105.626 205.5,106.5C 206.478,106.023 207.311,105.357 208,104.5C 208.314,107.865 208.481,111.031 208.5,114C 206.182,114.342 204.015,113.842 202,112.5C 196.938,114.152 193.938,117.485 193,122.5C 191.989,121.663 190.822,121.33 189.5,121.5C 189.5,123.167 189.5,124.833 189.5,126.5C 187.897,126.312 186.563,126.812 185.5,128C 189.002,128.656 189.002,129.989 185.5,132C 180.108,133.53 175.108,135.863 170.5,139C 162.628,141.881 154.628,143.714 146.5,144.5C 143.167,144.5 139.833,144.5 136.5,144.5C 135.833,144.167 135.167,143.833 134.5,143.5C 134.167,142.833 133.833,142.167 133.5,141.5C 134.315,140.571 135.148,139.571 136,138.5C 136.249,139.624 136.749,140.624 137.5,141.5C 138.72,140.289 139.887,140.289 141,141.5C 141.5,139.667 142.667,138.5 144.5,138C 149.734,137.987 153.734,135.82 156.5,131.5C 156.291,130.914 155.957,130.414 155.5,130C 147.841,129.5 140.174,129.334 132.5,129.5C 132.737,130.791 132.404,131.791 131.5,132.5C 131.5,131.167 131.5,129.833 131.5,128.5C 148.675,128.83 165.675,128.497 182.5,127.5C 185.091,126.746 186.924,125.079 188,122.5C 188.83,96.3301 188.663,70.3301 187.5,44.5C 186.038,43.5423 184.705,42.3756 183.5,41C 161.503,40.5 139.503,40.3334 117.5,40.5C 102.167,40.5 86.8333,40.5 71.5,40.5C 73.2646,39.5386 75.2646,39.2053 77.5,39.5C 89.1667,39.5 100.833,39.5 112.5,39.5C 117.833,39.5 123.167,39.5 128.5,39.5C 141.5,39.5 154.5,39.5 167.5,39.5C 170.85,39.665 174.183,39.4983 177.5,39C 175.961,36.1218 174.961,32.9551 174.5,29.5C 173.501,19.5222 173.168,9.52216 173.5,-0.5 Z"/></g>
<g><path style="opacity:1" fill="#b9623c" d="M 126.5,73.5 C 126.5,73.1667 126.5,72.8333 126.5,72.5C 126.833,72.5 127.167,72.5 127.5,72.5C 127.833,72.5 128.167,72.5 128.5,72.5C 132.389,75.275 136.722,77.275 141.5,78.5C 140.493,80.522 138.826,81.8553 136.5,82.5C 133.256,83.4629 130.256,84.7962 127.5,86.5C 124.654,86.4484 122.32,85.4484 120.5,83.5C 122.674,83.0798 124.674,83.0798 126.5,83.5C 127.806,80.0202 127.806,76.6868 126.5,73.5 Z"/></g>
<g><path style="opacity:1" fill="#d07a4e" d="M 126.5,73.5 C 127.806,76.6868 127.806,80.0202 126.5,83.5C 124.674,83.0798 122.674,83.0798 120.5,83.5C 117.281,82.9307 114.948,81.264 113.5,78.5C 117.755,76.6371 122.088,74.9704 126.5,73.5 Z"/></g>
<g><path style="opacity:1" fill="#b6a399" d="M 136.5,82.5 C 133.934,85.6053 130.934,87.2719 127.5,87.5C 127.5,87.1667 127.5,86.8333 127.5,86.5C 130.256,84.7962 133.256,83.4629 136.5,82.5 Z"/></g>
<g><path style="opacity:1" fill="#684f48" d="M 132.5,89.5 C 131.599,91.7271 129.933,92.7271 127.5,92.5C 126.833,92.5 126.5,92.1667 126.5,91.5C 128.685,91.2964 130.685,90.6298 132.5,89.5 Z"/></g>
<g><path style="opacity:1" fill="#2e1f1b" d="M 74.5,48.5 C 73.8194,69.2802 74.8194,89.9468 77.5,110.5C 79.924,110.808 82.2573,110.474 84.5,109.5C 85.482,106.467 87.482,104.8 90.5,104.5C 94.9426,102.328 99.6093,100.661 104.5,99.5C 108.602,92.9738 110.268,85.9738 109.5,78.5C 110.5,81.1667 111.5,83.8333 112.5,86.5C 110.96,87.9457 110.127,89.6123 110,91.5C 111.395,92.8146 112.395,92.4812 113,90.5C 114.007,92.7416 114.841,92.4082 115.5,89.5C 117.833,94.1667 120.167,98.8333 122.5,103.5C 123.654,106.479 124.82,109.479 126,112.5C 126.977,113.774 127.811,113.774 128.5,112.5C 128.5,111.833 128.833,111.5 129.5,111.5C 129.518,115.129 128.184,118.129 125.5,120.5C 108.256,120.825 91.0896,120.492 74,119.5C 73.1702,95.6631 73.3369,71.9964 74.5,48.5 Z"/></g>
<g><path style="opacity:1" fill="#d2a088" d="M 120.5,87.5 C 122.205,89.1921 124.205,90.5254 126.5,91.5C 126.5,92.1667 126.833,92.5 127.5,92.5C 127.5,92.8333 127.5,93.1667 127.5,93.5C 125.094,94.399 123.094,95.899 121.5,98C 122.233,99.7659 122.567,101.599 122.5,103.5C 120.167,98.8333 117.833,94.1667 115.5,89.5C 115.123,87.742 114.456,86.0754 113.5,84.5C 113.833,84.1667 114.167,83.8333 114.5,83.5C 116.264,85.2776 118.264,86.6109 120.5,87.5 Z"/></g>
<g><path style="opacity:1" fill="#2e2526" d="M 71.5,46.5 C 71.1858,71.2115 71.5192,95.8782 72.5,120.5C 70.5539,115.604 69.8872,110.271 70.5,104.5C 70.1697,84.9928 70.503,65.6595 71.5,46.5 Z"/></g>
<g><path style="opacity:1" fill="#ae5636" d="M 140.5,86.5 C 137.018,94.957 133.351,103.29 129.5,111.5C 128.833,111.5 128.5,111.833 128.5,112.5C 127.51,106.355 127.177,100.022 127.5,93.5C 127.5,93.1667 127.5,92.8333 127.5,92.5C 129.933,92.7271 131.599,91.7271 132.5,89.5C 135.021,87.9808 137.521,86.3141 140,84.5C 140.464,85.0944 140.631,85.7611 140.5,86.5 Z"/></g>
<g><path style="opacity:1" fill="#22130f" d="M 159.5,98.5 C 162.308,98.6933 164.975,99.36 167.5,100.5C 166.987,103.449 166.987,106.282 167.5,109C 165.833,110.333 164.167,111.667 162.5,113C 164.112,113.72 165.612,113.554 167,112.5C 167.456,113.744 166.956,114.577 165.5,115C 166.337,116.011 166.67,117.178 166.5,118.5C 152.921,120.188 139.254,120.855 125.5,120.5C 128.184,118.129 129.518,115.129 129.5,111.5C 133.351,103.29 137.018,94.957 140.5,86.5C 141.722,84.4603 143.389,84.4603 145.5,86.5C 141.934,91.2155 142.601,91.5489 147.5,87.5C 147.81,94.7243 151.81,98.391 159.5,98.5 Z"/></g>
<g><path style="opacity:1" fill="#45413e" d="M 182.5,46.5 C 182.833,46.5 183.167,46.5 183.5,46.5C 184.487,66.4241 184.821,86.4241 184.5,106.5C 184.666,110.846 184.499,115.179 184,119.5C 183.292,120.381 182.458,121.047 181.5,121.5C 181.5,121.167 181.5,120.833 181.5,120.5C 182.49,95.9079 182.823,71.2413 182.5,46.5 Z"/></g>
<g><path style="opacity:1" fill="#d48b6a" d="M 127.5,93.5 C 127.177,100.022 127.51,106.355 128.5,112.5C 127.811,113.774 126.977,113.774 126,112.5C 124.82,109.479 123.654,106.479 122.5,103.5C 122.567,101.599 122.233,99.7659 121.5,98C 123.094,95.899 125.094,94.399 127.5,93.5 Z"/></g>
<g><path style="opacity:1" fill="#4b3028" d="M 187.5,44.5 C 188.663,70.3301 188.83,96.3301 188,122.5C 186.924,125.079 185.091,126.746 182.5,127.5C 179.833,127.5 177.167,127.5 174.5,127.5C 174.768,125.901 174.434,124.568 173.5,123.5C 172.833,123.5 172.167,123.5 171.5,123.5C 174.833,122.833 178.167,122.167 181.5,121.5C 182.458,121.047 183.292,120.381 184,119.5C 184.499,115.179 184.666,110.846 184.5,106.5C 185.117,106.389 185.617,106.056 186,105.5C 186.333,106.833 186.667,108.167 187,109.5C 187.5,87.8359 187.667,66.1692 187.5,44.5 Z"/></g>
<g><path style="opacity:1" fill="#342a28" d="M 181.5,120.5 C 181.5,120.833 181.5,121.167 181.5,121.5C 178.167,122.167 174.833,122.833 171.5,123.5C 170.5,123.5 169.5,123.5 168.5,123.5C 168.083,122.876 167.416,122.543 166.5,122.5C 165.133,123.225 163.8,123.892 162.5,124.5C 161.791,123.596 160.791,123.263 159.5,123.5C 131.488,124.667 103.488,124.501 75.5,123C 74.5842,122.722 73.9175,122.222 73.5,121.5C 109.573,121.826 145.573,121.493 181.5,120.5 Z"/></g>
<g><path style="opacity:1" fill="#492c26" d="M 70.5,104.5 C 69.8872,110.271 70.5539,115.604 72.5,120.5C 72.5,121.167 72.8333,121.5 73.5,121.5C 73.9175,122.222 74.5842,122.722 75.5,123C 103.488,124.501 131.488,124.667 159.5,123.5C 159.5,124.5 159.5,125.5 159.5,126.5C 150.014,127.494 140.348,127.827 130.5,127.5C 130.187,131.042 130.521,134.375 131.5,137.5C 131.989,138.995 132.655,140.329 133.5,141.5C 133.833,142.167 134.167,142.833 134.5,143.5C 134.52,145.143 133.853,146.476 132.5,147.5C 136.041,148.2 139.541,148.867 143,149.5C 143.464,148.906 143.631,148.239 143.5,147.5C 146.522,148.708 146.855,150.042 144.5,151.5C 141.833,151.5 139.167,151.5 136.5,151.5C 132.029,152.089 128.029,151.423 124.5,149.5C 126.5,149.5 128.5,149.5 130.5,149.5C 130.477,147.4 131.144,145.567 132.5,144C 130.746,140.617 129.246,137.117 128,133.5C 127.802,135.382 127.302,137.048 126.5,138.5C 126.5,135.167 126.5,131.833 126.5,128.5C 125.5,128.5 124.5,128.5 123.5,128.5C 121.708,127.691 119.708,127.191 117.5,127C 102.167,126.667 86.8333,126.333 71.5,126C 70.4677,124.373 69.1344,123.207 67.5,122.5C 67.5,118.5 67.5,114.5 67.5,110.5C 68.3227,107.023 68.8227,103.356 69,99.5C 69.1981,101.382 69.6981,103.048 70.5,104.5 Z"/></g>
<g><path style="opacity:1" fill="#cc985e" d="M 159.5,123.5 C 160.791,123.263 161.791,123.596 162.5,124.5C 162.179,126.048 161.179,126.715 159.5,126.5C 159.5,125.5 159.5,124.5 159.5,123.5 Z"/></g>
<g><path style="opacity:1" fill="#623426" d="M 67.5,122.5 C 69.1344,123.207 70.4677,124.373 71.5,126C 86.8333,126.333 102.167,126.667 117.5,127C 119.708,127.191 121.708,127.691 123.5,128.5C 121.833,128.5 120.167,128.5 118.5,128.5C 118.167,128.5 117.833,128.5 117.5,128.5C 102.089,128.817 86.7554,128.483 71.5,127.5C 69.457,126.421 68.1237,124.754 67.5,122.5 Z"/></g>
<g><path style="opacity:1" fill="#5f2b19" d="M 168.5,123.5 C 169.5,123.5 170.5,123.5 171.5,123.5C 170.086,125.598 170.752,126.598 173.5,126.5C 173.5,125.5 173.5,124.5 173.5,123.5C 174.434,124.568 174.768,125.901 174.5,127.5C 177.167,127.5 179.833,127.5 182.5,127.5C 165.675,128.497 148.675,128.83 131.5,128.5C 131.5,129.833 131.5,131.167 131.5,132.5C 131.5,134.167 131.5,135.833 131.5,137.5C 130.521,134.375 130.187,131.042 130.5,127.5C 140.348,127.827 150.014,127.494 159.5,126.5C 161.179,126.715 162.179,126.048 162.5,124.5C 163.8,123.892 165.133,123.225 166.5,122.5C 167.416,122.543 168.083,122.876 168.5,123.5 Z"/></g>
<g><path style="opacity:1" fill="#c04f45" d="M 171.5,123.5 C 172.167,123.5 172.833,123.5 173.5,123.5C 173.5,124.5 173.5,125.5 173.5,126.5C 170.752,126.598 170.086,125.598 171.5,123.5 Z"/></g>
<g><path style="opacity:1" fill="#c44d42" d="M 168.5,123.5 C 168.5,124.5 168.5,125.5 168.5,126.5C 167.5,126.5 166.5,126.5 165.5,126.5C 165.5,125.5 165.5,124.5 165.5,123.5C 166.5,123.5 167.5,123.5 168.5,123.5 Z"/></g>
<g><path style="opacity:1" fill="#e2925a" d="M 133.5,141.5 C 132.655,140.329 131.989,138.995 131.5,137.5C 131.5,135.833 131.5,134.167 131.5,132.5C 132.404,131.791 132.737,130.791 132.5,129.5C 140.174,129.334 147.841,129.5 155.5,130C 155.957,130.414 156.291,130.914 156.5,131.5C 153.734,135.82 149.734,137.987 144.5,138C 142.667,138.5 141.5,139.667 141,141.5C 139.887,140.289 138.72,140.289 137.5,141.5C 136.749,140.624 136.249,139.624 136,138.5C 135.148,139.571 134.315,140.571 133.5,141.5 Z"/></g>
<g><path style="opacity:1" fill="#d16f40" d="M 255.5,137.5 C 255.5,140.833 255.5,144.167 255.5,147.5C 222.169,148.074 188.836,148.574 155.5,149C 153.073,149.902 150.74,150.736 148.5,151.5C 147.5,151.5 146.5,151.5 145.5,151.5C 145.167,151.5 144.833,151.5 144.5,151.5C 146.855,150.042 146.522,148.708 143.5,147.5C 141.5,146.833 139.5,146.167 137.5,145.5C 140.685,145.02 143.519,145.686 146,147.5C 170.166,144.779 194.333,141.779 218.5,138.5C 230.901,138.196 243.235,137.863 255.5,137.5 Z"/></g>
<g><path style="opacity:1" fill="#aa958d" d="M 123.5,128.5 C 124.5,128.5 125.5,128.5 126.5,128.5C 126.5,131.833 126.5,135.167 126.5,138.5C 126.833,141.5 125.5,142.833 122.5,142.5C 123.383,137.897 123.717,133.23 123.5,128.5 Z"/></g>
<g><path style="opacity:1" fill="#383332" d="M 124.5,149.5 C 124.741,147.114 124.075,145.114 122.5,143.5C 122.5,143.167 122.5,142.833 122.5,142.5C 125.5,142.833 126.833,141.5 126.5,138.5C 127.302,137.048 127.802,135.382 128,133.5C 129.246,137.117 130.746,140.617 132.5,144C 131.144,145.567 130.477,147.4 130.5,149.5C 128.5,149.5 126.5,149.5 124.5,149.5 Z"/></g>
<g><path style="opacity:1" fill="#ac644b" d="M 120.5,143.5 C 120.843,145.483 120.176,146.817 118.5,147.5C 116.076,147.192 113.743,147.526 111.5,148.5C 112.32,150.111 113.654,150.778 115.5,150.5C 115.5,150.833 115.5,151.167 115.5,151.5C 110.759,151.839 109.426,149.839 111.5,145.5C 114.53,144.831 117.53,144.165 120.5,143.5 Z"/></g>
<g><path style="opacity:1" fill="#7b4034" d="M 134.5,143.5 C 135.167,143.833 135.833,144.167 136.5,144.5C 136.5,145.167 136.833,145.5 137.5,145.5C 139.5,146.167 141.5,146.833 143.5,147.5C 143.631,148.239 143.464,148.906 143,149.5C 139.541,148.867 136.041,148.2 132.5,147.5C 133.853,146.476 134.52,145.143 134.5,143.5 Z"/></g>
<g><path style="opacity:1" fill="#70473b" d="M 120.5,143.5 C 121.167,143.5 121.833,143.5 122.5,143.5C 124.075,145.114 124.741,147.114 124.5,149.5C 128.029,151.423 132.029,152.089 136.5,151.5C 129.642,152.738 122.642,152.738 115.5,151.5C 115.5,151.167 115.5,150.833 115.5,150.5C 117.288,150.785 118.955,150.452 120.5,149.5C 119.757,148.818 119.091,148.151 118.5,147.5C 120.176,146.817 120.843,145.483 120.5,143.5 Z"/></g>
<g><path style="opacity:1" fill="#e49961" d="M 117.5,128.5 C 117.833,128.5 118.167,128.5 118.5,128.5C 118.626,130.2 119.293,131.7 120.5,133C 116.229,135.495 111.562,138.162 106.5,141C 107.167,142 107.833,143 108.5,144C 102.78,145.455 97.1135,146.955 91.5,148.5C 101.831,151.377 111.997,153.377 122,154.5C 122.483,155.448 122.649,156.448 122.5,157.5C 126.635,156.89 130.301,157.723 133.5,160C 131.527,160.495 129.527,160.662 127.5,160.5C 128.015,164.831 126.348,166.331 122.5,165C 120.167,166 118.5,167.667 117.5,170C 115.5,170.333 113.5,170.667 111.5,171C 108.12,175.3 104.12,178.8 99.5,181.5C 85.8333,181.5 72.1667,181.5 58.5,181.5C 60.0938,180.017 61.7605,178.517 63.5,177C 68.824,175.391 74.1574,173.891 79.5,172.5C 79.1756,169.306 80.3422,168.306 83,169.5C 87.7902,166.884 91.9568,163.551 95.5,159.5C 96.451,160.326 97.451,160.492 98.5,160C 99.2567,158.488 100.257,157.154 101.5,156C 98.6892,155.933 96.5226,154.766 95,152.5C 91.0068,152.265 87.5068,150.931 84.5,148.5C 86.3603,146.438 88.6936,145.105 91.5,144.5C 90.5853,143.672 89.9186,142.672 89.5,141.5C 90.9762,139.382 92.9762,137.882 95.5,137C 94.269,135.817 94.269,134.651 95.5,133.5C 97.1667,132.333 98.8333,131.167 100.5,130C 106.348,129.827 112.015,129.327 117.5,128.5 Z"/></g>
<g><path style="opacity:1" fill="#9e867f" d="M 118.5,147.5 C 119.091,148.151 119.757,148.818 120.5,149.5C 118.955,150.452 117.288,150.785 115.5,150.5C 113.654,150.778 112.32,150.111 111.5,148.5C 113.743,147.526 116.076,147.192 118.5,147.5 Z"/></g>
<g><path style="opacity:1" fill="#d67c4a" d="M 255.5,147.5 C 255.5,153.5 255.5,159.5 255.5,165.5C 234.593,161.739 213.593,158.239 192.5,155C 177.894,153.06 163.227,151.893 148.5,151.5C 150.74,150.736 153.073,149.902 155.5,149C 188.836,148.574 222.169,148.074 255.5,147.5 Z"/></g>
<g><path style="opacity:1" fill="#e79f66" d="M 71.5,127.5 C 86.7554,128.483 102.089,128.817 117.5,128.5C 112.015,129.327 106.348,129.827 100.5,130C 98.8333,131.167 97.1667,132.333 95.5,133.5C 94.269,134.651 94.269,135.817 95.5,137C 92.9762,137.882 90.9762,139.382 89.5,141.5C 89.9186,142.672 90.5853,143.672 91.5,144.5C 88.6936,145.105 86.3603,146.438 84.5,148.5C 87.5068,150.931 91.0068,152.265 95,152.5C 96.5226,154.766 98.6892,155.933 101.5,156C 100.257,157.154 99.2567,158.488 98.5,160C 97.451,160.492 96.451,160.326 95.5,159.5C 91.9568,163.551 87.7902,166.884 83,169.5C 80.3422,168.306 79.1756,169.306 79.5,172.5C 74.1574,173.891 68.824,175.391 63.5,177C 61.7605,178.517 60.0938,180.017 58.5,181.5C 40.8333,181.5 23.1667,181.5 5.5,181.5C 4.83333,180.833 4.16667,180.167 3.5,179.5C 7.38207,178.177 11.3821,177.177 15.5,176.5C 16.2458,175.264 16.5792,173.93 16.5,172.5C 23.5451,171.955 30.2118,170.288 36.5,167.5C 36.5614,165.408 37.5614,163.908 39.5,163C 41.8127,162.338 44.146,161.838 46.5,161.5C 46.5,160.5 46.5,159.5 46.5,158.5C 47.9305,158.579 49.2638,158.246 50.5,157.5C 53.3166,153.992 56.9832,152.659 61.5,153.5C 61.719,152.325 61.3857,151.325 60.5,150.5C 55.3541,149.011 55.6875,148.344 61.5,148.5C 61.8804,145.208 60.5471,142.875 57.5,141.5C 58.09,140.201 59.09,139.368 60.5,139C 59.5,138.667 58.5,138.333 57.5,138C 60.2114,137.227 62.7114,136.06 65,134.5C 65.6667,135.167 66.3333,135.833 67,136.5C 68.3707,135.419 69.8707,134.585 71.5,134C 71.2155,132.044 71.2155,129.877 71.5,127.5 Z"/></g>
<g><path style="opacity:1" fill="#dc8b54" d="M 145.5,152.5 C 159.212,153.728 172.878,155.561 186.5,158C 190.264,158.866 193.931,160.033 197.5,161.5C 199.295,160.735 201.128,160.068 203,159.5C 206.249,161.101 209.749,161.934 213.5,162C 216.94,163.117 220.106,164.617 223,166.5C 224.795,170.442 223.295,172.108 218.5,171.5C 218.799,173.604 218.466,175.604 217.5,177.5C 216.066,178.588 215.066,179.922 214.5,181.5C 194.833,181.5 175.167,181.5 155.5,181.5C 156.255,179.534 157.421,179.2 159,180.5C 162.29,177.194 166.123,174.86 170.5,173.5C 170.833,170.5 172.5,168.833 175.5,168.5C 175.786,166.723 176.453,165.056 177.5,163.5C 176.885,161.884 175.885,160.551 174.5,159.5C 163.652,156.831 152.652,154.998 141.5,154C 142.563,152.812 143.897,152.312 145.5,152.5 Z"/></g>
<g><path style="opacity:1" fill="#e1915b" d="M 118.5,128.5 C 120.167,128.5 121.833,128.5 123.5,128.5C 123.717,133.23 123.383,137.897 122.5,142.5C 122.5,142.833 122.5,143.167 122.5,143.5C 121.833,143.5 121.167,143.5 120.5,143.5C 117.53,144.165 114.53,144.831 111.5,145.5C 109.426,149.839 110.759,151.839 115.5,151.5C 122.642,152.738 129.642,152.738 136.5,151.5C 139.167,151.5 141.833,151.5 144.5,151.5C 144.833,151.5 145.167,151.5 145.5,151.5C 145.5,151.833 145.5,152.167 145.5,152.5C 143.897,152.312 142.563,152.812 141.5,154C 152.652,154.998 163.652,156.831 174.5,159.5C 175.885,160.551 176.885,161.884 177.5,163.5C 176.453,165.056 175.786,166.723 175.5,168.5C 172.5,168.833 170.833,170.5 170.5,173.5C 166.123,174.86 162.29,177.194 159,180.5C 157.421,179.2 156.255,179.534 155.5,181.5C 136.833,181.5 118.167,181.5 99.5,181.5C 104.12,178.8 108.12,175.3 111.5,171C 113.5,170.667 115.5,170.333 117.5,170C 118.5,167.667 120.167,166 122.5,165C 126.348,166.331 128.015,164.831 127.5,160.5C 129.527,160.662 131.527,160.495 133.5,160C 130.301,157.723 126.635,156.89 122.5,157.5C 122.649,156.448 122.483,155.448 122,154.5C 111.997,153.377 101.831,151.377 91.5,148.5C 97.1135,146.955 102.78,145.455 108.5,144C 107.833,143 107.167,142 106.5,141C 111.562,138.162 116.229,135.495 120.5,133C 119.293,131.7 118.626,130.2 118.5,128.5 Z"/></g>
<g><path style="opacity:1" fill="#da8550" d="M 145.5,152.5 C 145.5,152.167 145.5,151.833 145.5,151.5C 146.5,151.5 147.5,151.5 148.5,151.5C 163.227,151.893 177.894,153.06 192.5,155C 213.593,158.239 234.593,161.739 255.5,165.5C 255.5,168.833 255.5,172.167 255.5,175.5C 253.863,177.475 252.196,179.475 250.5,181.5C 238.5,181.5 226.5,181.5 214.5,181.5C 215.066,179.922 216.066,178.588 217.5,177.5C 218.466,175.604 218.799,173.604 218.5,171.5C 223.295,172.108 224.795,170.442 223,166.5C 220.106,164.617 216.94,163.117 213.5,162C 209.749,161.934 206.249,161.101 203,159.5C 201.128,160.068 199.295,160.735 197.5,161.5C 193.931,160.033 190.264,158.866 186.5,158C 172.878,155.561 159.212,153.728 145.5,152.5 Z"/></g>
</svg>
