<?xml version="1.0" encoding="UTF-8"?>
<!DOCTYPE svg PUBLIC "-//W3C//DTD SVG 1.1//EN" "http://www.w3.org/Graphics/SVG/1.1/DTD/svg11.dtd">
<svg xmlns="http://www.w3.org/2000/svg" version="1.1" width="256px" height="182px" style="shape-rendering:geometricPrecision; text-rendering:geometricPrecision; image-rendering:optimizeQuality; fill-rule:evenodd; clip-rule:evenodd" xmlns:xlink="http://www.w3.org/1999/xlink">
<g><path style="opacity:0.997" fill="#5daad9" d="M 4.5,-0.5 C 86.1667,-0.5 167.833,-0.5 249.5,-0.5C 251.475,1.13696 253.475,2.80363 255.5,4.5C 255.5,7.5 255.5,10.5 255.5,13.5C 250.836,14.2858 246.169,13.9525 241.5,12.5C 238.052,14.6825 234.385,15.0158 230.5,13.5C 218.128,14.4863 205.628,16.153 193,18.5C 187.586,18.0702 182.253,17.4035 177,16.5C 173.486,18.9718 169.986,18.9718 166.5,16.5C 164.671,17.4646 162.838,18.4646 161,19.5C 148.989,19.1267 136.989,18.7934 125,18.5C 121.339,18.7724 118.173,20.1057 115.5,22.5C 116.325,23.3857 117.325,23.719 118.5,23.5C 118.5,24.5 118.5,25.5 118.5,26.5C 111.067,23.2842 103.734,19.7842 96.5,16C 92.1199,14.5682 89.7866,16.0682 89.5,20.5C 89.5,19.5 89.5,18.5 89.5,17.5C 74.0281,16.7737 58.6948,15.6071 43.5,14C 42.324,12.0858 41.324,12.2524 40.5,14.5C 37.018,14.1295 33.6847,14.1295 30.5,14.5C 23.9526,12.1501 17.1193,10.4834 10,9.5C 6.71207,9.65836 3.21207,9.65836 -0.5,9.5C -0.5,8.16667 -0.5,6.83333 -0.5,5.5C 1.13696,3.52483 2.80363,1.52483 4.5,-0.5 Z"/></g>
<g><path style="opacity:1" fill="#57a6d8" d="M -0.5,9.5 C 3.21207,9.65836 6.71207,9.65836 10,9.5C 17.1193,10.4834 23.9526,12.1501 30.5,14.5C 33.6847,14.1295 37.018,14.1295 40.5,14.5C 41.324,12.2524 42.324,12.0858 43.5,14C 58.6948,15.6071 74.0281,16.7737 89.5,17.5C 89.5,18.5 89.5,19.5 89.5,20.5C 89.3505,21.552 89.5172,22.552 90,23.5C 90.7119,21.1526 91.8786,19.1526 93.5,17.5C 103.868,22.1744 114.201,26.8411 124.5,31.5C 125.833,30.8333 125.833,30.1667 124.5,29.5C 122.473,28.4867 120.473,27.4867 118.5,26.5C 118.5,25.5 118.5,24.5 118.5,23.5C 117.325,23.719 116.325,23.3857 115.5,22.5C 118.173,20.1057 121.339,18.7724 125,18.5C 136.989,18.7934 148.989,19.1267 161,19.5C 162.838,18.4646 164.671,17.4646 166.5,16.5C 169.986,18.9718 173.486,18.9718 177,16.5C 182.253,17.4035 187.586,18.0702 193,18.5C 205.628,16.153 218.128,14.4863 230.5,13.5C 234.385,15.0158 238.052,14.6825 241.5,12.5C 246.169,13.9525 250.836,14.2858 255.5,13.5C 255.5,20.1667 255.5,26.8333 255.5,33.5C 253.167,33.5 250.833,33.5 248.5,33.5C 248.5,34.5 248.5,35.5 248.5,36.5C 242.491,36.3338 236.491,36.5005 230.5,37C 228.015,38.2227 227.848,39.7227 230,41.5C 231.594,39.0182 233.428,38.8515 235.5,41C 233.471,42.9727 231.638,44.4727 230,45.5C 228.14,43.0028 226.14,41.3361 224,40.5C 222.599,42.1922 220.766,42.8588 218.5,42.5C 218.5,41.1667 218.5,39.8333 218.5,38.5C 213.797,38.4372 209.13,38.7705 204.5,39.5C 204.67,40.8221 204.337,41.9887 203.5,43C 199.5,43.6667 195.5,43.6667 191.5,43C 190.167,42 190.167,41 191.5,40C 187.129,39.1725 182.795,39.3391 178.5,40.5C 178.192,41.3081 177.692,41.9747 177,42.5C 175.732,42.3842 174.398,42.0509 173,41.5C 171.53,42.2666 170.03,42.9332 168.5,43.5C 166.777,41.22 166.111,38.5533 166.5,35.5C 164.585,35.2155 162.919,35.5489 161.5,36.5C 152.609,40.1114 143.609,43.4448 134.5,46.5C 134.953,45.5416 135.619,44.7083 136.5,44C 135.366,42.984 135.699,42.3173 137.5,42C 133.487,39.872 129.153,38.7053 124.5,38.5C 124.472,36.4176 125.139,34.5843 126.5,33C 123.741,32.0226 121.741,32.856 120.5,35.5C 118.931,34.286 118.098,32.6193 118,30.5C 116.354,32.0548 116.021,33.7215 117,35.5C 115.921,33.6063 114.587,33.273 113,34.5C 111.992,32.741 110.492,31.5743 108.5,31C 110.256,30.7978 111.922,30.2978 113.5,29.5C 111.588,27.811 109.255,27.4776 106.5,28.5C 103.206,28.2748 100.039,27.6082 97,26.5C 96.1495,29.6124 94.9828,29.9458 93.5,27.5C 92.5723,29.3348 91.4056,29.6682 90,28.5C 87.4941,34.0032 84.9941,39.5032 82.5,45C 85.7054,45.9116 88.0388,47.745 89.5,50.5C 88.391,50.4431 87.391,50.1098 86.5,49.5C 84.3373,46.7314 82.3373,46.8981 80.5,50C 78.5643,50.813 76.5643,51.313 74.5,51.5C 75.0478,49.4677 76.3812,48.4677 78.5,48.5C 78.6715,46.5082 78.0049,44.8415 76.5,43.5C 78.7603,41.5929 78.927,39.5929 77,37.5C 73.5894,38.2931 70.0894,38.7931 66.5,39C 68.1247,39.8525 68.4581,40.8525 67.5,42C 63.5787,42.203 59.7454,42.703 56,43.5C 55.1667,42.6667 54.3333,41.8333 53.5,41C 55.0441,40.7104 56.3774,40.0437 57.5,39C 50.5,38.3333 43.5,38.3333 36.5,39C 44.7022,39.5129 45.2022,41.0129 38,43.5C 36.779,42.7282 35.779,41.7282 35,40.5C 32.3669,42.1601 29.5335,42.6601 26.5,42C 26.0338,40.7012 26.0338,39.2012 26.5,37.5C 23.1501,37.335 19.8168,37.5017 16.5,38C 16.0338,39.2988 16.0338,40.7988 16.5,42.5C 14.7988,42.9662 13.2988,42.9662 12,42.5C 11.6411,45.5443 10.9745,45.8776 10,43.5C 9.30863,45.8912 8.30863,45.8912 7,43.5C 6.66667,43.8333 6.33333,44.1667 6,44.5C 3.84604,43.7699 1.67937,43.1032 -0.5,42.5C -0.5,31.5 -0.5,20.5 -0.5,9.5 Z"/></g>
<g><path style="opacity:1" fill="#ccdfec" d="M 118.5,26.5 C 120.473,27.4867 122.473,28.4867 124.5,29.5C 125.833,30.1667 125.833,30.8333 124.5,31.5C 114.201,26.8411 103.868,22.1744 93.5,17.5C 91.8786,19.1526 90.7119,21.1526 90,23.5C 89.5172,22.552 89.3505,21.552 89.5,20.5C 89.7866,16.0682 92.1199,14.5682 96.5,16C 103.734,19.7842 111.067,23.2842 118.5,26.5 Z"/></g>
<g><path style="opacity:1" fill="#52a3da" d="M 255.5,33.5 C 255.5,38.5 255.5,43.5 255.5,48.5C 252.534,48.1103 249.868,48.777 247.5,50.5C 245.412,49.821 243.412,49.4877 241.5,49.5C 241.264,50.2472 240.93,51.0805 240.5,52C 242.384,52.2163 244.051,52.883 245.5,54C 240.964,55.3789 236.297,55.8789 231.5,55.5C 231.66,53.8008 231.494,52.1341 231,50.5C 230.751,51.624 230.251,52.624 229.5,53.5C 229.089,52.7376 228.923,51.7376 229,50.5C 226.876,51.2272 224.709,51.8938 222.5,52.5C 219.943,51.4659 218.609,52.4659 218.5,55.5C 212.668,56.2457 207.334,55.2457 202.5,52.5C 199.033,52.8112 195.533,52.8112 192,52.5C 191.308,53.0253 190.808,53.6919 190.5,54.5C 185.533,55.6623 180.533,55.8289 175.5,55C 177.007,54.1627 177.507,52.9961 177,51.5C 175.701,51.9662 174.201,51.9662 172.5,51.5C 171.699,49.0005 170.366,47.0005 168.5,45.5C 168.5,44.8333 168.5,44.1667 168.5,43.5C 170.03,42.9332 171.53,42.2666 173,41.5C 174.398,42.0509 175.732,42.3842 177,42.5C 177.692,41.9747 178.192,41.3081 178.5,40.5C 182.795,39.3391 187.129,39.1725 191.5,40C 190.167,41 190.167,42 191.5,43C 195.5,43.6667 199.5,43.6667 203.5,43C 204.337,41.9887 204.67,40.8221 204.5,39.5C 209.13,38.7705 213.797,38.4372 218.5,38.5C 218.5,39.8333 218.5,41.1667 218.5,42.5C 220.766,42.8588 222.599,42.1922 224,40.5C 226.14,41.3361 228.14,43.0028 230,45.5C 231.638,44.4727 233.471,42.9727 235.5,41C 233.428,38.8515 231.594,39.0182 230,41.5C 227.848,39.7227 228.015,38.2227 230.5,37C 236.491,36.5005 242.491,36.3338 248.5,36.5C 248.5,35.5 248.5,34.5 248.5,33.5C 250.833,33.5 253.167,33.5 255.5,33.5 Z"/></g>
<g><path style="opacity:1" fill="#d7e3eb" d="M 161.5,36.5 C 162.978,36.238 164.311,36.5713 165.5,37.5C 152.665,44.7583 138.998,49.425 124.5,51.5C 124.5,51.1667 124.5,50.8333 124.5,50.5C 127.906,49.1223 131.24,47.789 134.5,46.5C 143.609,43.4448 152.609,40.1114 161.5,36.5 Z"/></g>
<g><path style="opacity:1" fill="#55a0d6" d="M 134.5,46.5 C 131.24,47.789 127.906,49.1223 124.5,50.5C 121.233,51.7563 117.899,52.923 114.5,54C 111.823,54.8136 109.823,56.3136 108.5,58.5C 107.185,60.5992 105.518,60.9326 103.5,59.5C 103.64,57.8762 102.973,56.7096 101.5,56C 104.401,55.1249 107.068,53.9582 109.5,52.5C 111.513,49.9979 114.179,48.4979 117.5,48C 118.252,47.3292 118.586,46.4959 118.5,45.5C 120.3,44.1052 120.634,42.4385 119.5,40.5C 115.874,42.0977 112.207,43.5977 108.5,45C 107.619,45.7083 106.953,46.5416 106.5,47.5C 101.877,46.9118 98.5437,48.5785 96.5,52.5C 94.3821,51.0541 92.0488,50.3874 89.5,50.5C 88.0388,47.745 85.7054,45.9116 82.5,45C 84.9941,39.5032 87.4941,34.0032 90,28.5C 91.4056,29.6682 92.5723,29.3348 93.5,27.5C 94.9828,29.9458 96.1495,29.6124 97,26.5C 100.039,27.6082 103.206,28.2748 106.5,28.5C 109.255,27.4776 111.588,27.811 113.5,29.5C 111.922,30.2978 110.256,30.7978 108.5,31C 110.492,31.5743 111.992,32.741 113,34.5C 114.587,33.273 115.921,33.6063 117,35.5C 116.021,33.7215 116.354,32.0548 118,30.5C 118.098,32.6193 118.931,34.286 120.5,35.5C 121.741,32.856 123.741,32.0226 126.5,33C 125.139,34.5843 124.472,36.4176 124.5,38.5C 129.153,38.7053 133.487,39.872 137.5,42C 135.699,42.3173 135.366,42.984 136.5,44C 135.619,44.7083 134.953,45.5416 134.5,46.5 Z"/></g>
<g><path style="opacity:1" fill="#80b0d8" d="M 118.5,45.5 C 114.557,46.4855 110.557,47.1522 106.5,47.5C 106.953,46.5416 107.619,45.7083 108.5,45C 112.207,43.5977 115.874,42.0977 119.5,40.5C 120.634,42.4385 120.3,44.1052 118.5,45.5 Z"/></g>
<g><path style="opacity:1" fill="#63a9d8" d="M 161.5,36.5 C 162.919,35.5489 164.585,35.2155 166.5,35.5C 166.111,38.5533 166.777,41.22 168.5,43.5C 168.5,44.1667 168.5,44.8333 168.5,45.5C 168.292,47.9201 168.626,50.2534 169.5,52.5C 164.023,56.9583 157.689,59.125 150.5,59C 149.307,60.0946 147.973,60.928 146.5,61.5C 145.325,61.719 144.325,61.3857 143.5,60.5C 141.444,57.7911 139.444,55.1244 137.5,52.5C 136.749,51.4265 135.749,51.2599 134.5,52C 136.036,53.5994 136.536,55.4328 136,57.5C 134.98,56.1095 134.147,54.6095 133.5,53C 128.026,51.6801 126.693,53.1801 129.5,57.5C 129.043,58.2975 128.376,58.6309 127.5,58.5C 126.801,56.0052 125.801,53.6719 124.5,51.5C 138.998,49.425 152.665,44.7583 165.5,37.5C 164.311,36.5713 162.978,36.238 161.5,36.5 Z"/></g>
<g><path style="opacity:1" fill="#4ea0d7" d="M 255.5,48.5 C 255.5,55.8333 255.5,63.1667 255.5,70.5C 250.201,71.687 244.534,72.3536 238.5,72.5C 238.5,73.5 238.5,74.5 238.5,75.5C 228.162,75.1327 218.162,75.1327 208.5,75.5C 198.545,73.4232 188.712,71.7565 179,70.5C 178.667,72.5 178.333,74.5 178,76.5C 175.494,78.0091 172.994,79.5091 170.5,81C 172.211,82.1332 172.711,83.6332 172,85.5C 171.014,86.1712 169.847,86.1712 168.5,85.5C 169.091,84.8485 169.757,84.1818 170.5,83.5C 170.167,83.1667 169.833,82.8333 169.5,82.5C 164.482,85.8592 159.482,89.1925 154.5,92.5C 152.512,90.5351 151.012,88.2018 150,85.5C 145.416,74.6421 141.249,63.6421 137.5,52.5C 139.444,55.1244 141.444,57.7911 143.5,60.5C 144.325,61.3857 145.325,61.719 146.5,61.5C 143.316,69.8344 146.316,73.3344 155.5,72C 160.459,69.7172 165.459,68.5505 170.5,68.5C 172.32,68.6493 173.82,69.3159 175,70.5C 175.318,68.9391 176.151,67.7724 177.5,67C 176.584,66.6258 175.75,66.1258 175,65.5C 174.347,61.1838 173.18,57.0171 171.5,53C 171.57,52.2352 171.903,51.7352 172.5,51.5C 174.201,51.9662 175.701,51.9662 177,51.5C 177.507,52.9961 177.007,54.1627 175.5,55C 180.533,55.8289 185.533,55.6623 190.5,54.5C 190.808,53.6919 191.308,53.0253 192,52.5C 195.533,52.8112 199.033,52.8112 202.5,52.5C 207.334,55.2457 212.668,56.2457 218.5,55.5C 218.609,52.4659 219.943,51.4659 222.5,52.5C 224.709,51.8938 226.876,51.2272 229,50.5C 228.923,51.7376 229.089,52.7376 229.5,53.5C 230.251,52.624 230.751,51.624 231,50.5C 231.494,52.1341 231.66,53.8008 231.5,55.5C 236.297,55.8789 240.964,55.3789 245.5,54C 244.051,52.883 242.384,52.2163 240.5,52C 240.93,51.0805 241.264,50.2472 241.5,49.5C 243.412,49.4877 245.412,49.821 247.5,50.5C 249.868,48.777 252.534,48.1103 255.5,48.5 Z"/></g>
<g><path style="opacity:1" fill="#51a1d8" d="M 74.5,51.5 C 73.1667,52.5 71.8333,53.5 70.5,54.5C 68.7162,54.8925 67.0495,55.5592 65.5,56.5C 63.9505,57.4408 62.2838,58.1075 60.5,58.5C 56.5531,60.4734 52.5531,62.4734 48.5,64.5C 48.1667,65.3333 47.8333,66.1667 47.5,67C 48.9596,72.9701 50.1262,78.8034 51,84.5C 53.0384,79.3948 54.705,79.3948 56,84.5C 56.3076,83.6919 56.8076,83.0253 57.5,82.5C 59.1727,84.0863 61.1727,84.7529 63.5,84.5C 63.4012,88.7268 65.2345,91.7268 69,93.5C 72.8844,91.3729 77.0511,90.3729 81.5,90.5C 79.471,92.6296 77.1377,94.2963 74.5,95.5C 69.0069,96.2205 63.6735,97.5538 58.5,99.5C 55.5,99.5 52.5,99.5 49.5,99.5C 49.0412,89.034 47.7078,78.7007 45.5,68.5C 44.6919,68.8076 44.0253,69.3076 43.5,70C 28.7893,70.0765 14.1226,70.2432 -0.5,70.5C -0.5,61.1667 -0.5,51.8333 -0.5,42.5C 1.67937,43.1032 3.84604,43.7699 6,44.5C 6.33333,44.1667 6.66667,43.8333 7,43.5C 8.30863,45.8912 9.30863,45.8912 10,43.5C 10.9745,45.8776 11.6411,45.5443 12,42.5C 13.2988,42.9662 14.7988,42.9662 16.5,42.5C 16.0338,40.7988 16.0338,39.2988 16.5,38C 19.8168,37.5017 23.1501,37.335 26.5,37.5C 26.0338,39.2012 26.0338,40.7012 26.5,42C 29.5335,42.6601 32.3669,42.1601 35,40.5C 35.779,41.7282 36.779,42.7282 38,43.5C 45.2022,41.0129 44.7022,39.5129 36.5,39C 43.5,38.3333 50.5,38.3333 57.5,39C 56.3774,40.0437 55.0441,40.7104 53.5,41C 54.3333,41.8333 55.1667,42.6667 56,43.5C 59.7454,42.703 63.5787,42.203 67.5,42C 68.4581,40.8525 68.1247,39.8525 66.5,39C 70.0894,38.7931 73.5894,38.2931 77,37.5C 78.927,39.5929 78.7603,41.5929 76.5,43.5C 78.0049,44.8415 78.6715,46.5082 78.5,48.5C 76.3812,48.4677 75.0478,49.4677 74.5,51.5 Z"/></g>
<g><path style="opacity:1" fill="#c0cdde" d="M 118.5,45.5 C 118.586,46.4959 118.252,47.3292 117.5,48C 114.179,48.4979 111.513,49.9979 109.5,52.5C 106.14,52.6159 102.807,52.9492 99.5,53.5C 99.281,52.325 99.6143,51.325 100.5,50.5C 102.604,49.4805 104.604,48.4805 106.5,47.5C 110.557,47.1522 114.557,46.4855 118.5,45.5 Z"/></g>
<g><path style="opacity:1" fill="#7a98c0" d="M 106.5,47.5 C 104.604,48.4805 102.604,49.4805 100.5,50.5C 99.6143,51.325 99.281,52.325 99.5,53.5C 102.807,52.9492 106.14,52.6159 109.5,52.5C 107.068,53.9582 104.401,55.1249 101.5,56C 102.973,56.7096 103.64,57.8762 103.5,59.5C 103.167,59.5 102.833,59.5 102.5,59.5C 100.742,59.1231 99.0754,58.4565 97.5,57.5C 94.8018,55.159 92.1352,52.8257 89.5,50.5C 92.0488,50.3874 94.3821,51.0541 96.5,52.5C 98.5437,48.5785 101.877,46.9118 106.5,47.5 Z"/></g>
<g><path style="opacity:1" fill="#59a6d8" d="M 168.5,45.5 C 170.366,47.0005 171.699,49.0005 172.5,51.5C 171.903,51.7352 171.57,52.2352 171.5,53C 173.18,57.0171 174.347,61.1838 175,65.5C 175.75,66.1258 176.584,66.6258 177.5,67C 176.151,67.7724 175.318,68.9391 175,70.5C 173.82,69.3159 172.32,68.6493 170.5,68.5C 165.459,68.5505 160.459,69.7172 155.5,72C 146.316,73.3344 143.316,69.8344 146.5,61.5C 147.973,60.928 149.307,60.0946 150.5,59C 157.689,59.125 164.023,56.9583 169.5,52.5C 168.626,50.2534 168.292,47.9201 168.5,45.5 Z"/></g>
<g><path style="opacity:1" fill="#dde2e7" d="M 86.5,49.5 C 86.5774,50.7498 87.244,51.5831 88.5,52C 87.552,52.4828 86.552,52.6495 85.5,52.5C 83.8763,50.8632 82.8763,51.1966 82.5,53.5C 83.2095,57.8035 83.7095,62.1368 84,66.5C 86.7191,68.1799 88.0525,70.5132 88,73.5C 87.3109,72.6433 86.4776,71.9767 85.5,71.5C 84.1905,75.6493 84.1905,79.6493 85.5,83.5C 85.7947,85.7354 85.4614,87.7354 84.5,89.5C 83.1779,89.67 82.0113,89.3366 81,88.5C 80.5034,86.1902 80.3367,83.8568 80.5,81.5C 79.9631,76.1494 79.2965,70.8161 78.5,65.5C 75.8333,61.8333 73.1667,58.1667 70.5,54.5C 71.8333,53.5 73.1667,52.5 74.5,51.5C 76.5643,51.313 78.5643,50.813 80.5,50C 82.3373,46.8981 84.3373,46.7314 86.5,49.5 Z"/></g>
<g><path style="opacity:1" fill="#83aed3" d="M 124.5,50.5 C 124.5,50.8333 124.5,51.1667 124.5,51.5C 125.801,53.6719 126.801,56.0052 127.5,58.5C 127.167,58.5 126.833,58.5 126.5,58.5C 123.136,57.2215 119.803,57.3882 116.5,59C 117.224,61.7694 117.224,64.2694 116.5,66.5C 114.847,66.3404 113.514,65.6737 112.5,64.5C 113.343,62.8267 114.676,61.66 116.5,61C 114.875,60.1475 114.542,59.1475 115.5,58C 118.177,57.7506 120.51,56.7506 122.5,55C 117.828,55.7062 113.161,56.8729 108.5,58.5C 109.823,56.3136 111.823,54.8136 114.5,54C 117.899,52.923 121.233,51.7563 124.5,50.5 Z"/></g>
<g><path style="opacity:1" fill="#b5c9dc" d="M 70.5,54.5 C 73.1667,58.1667 75.8333,61.8333 78.5,65.5C 76.3702,63.8729 74.3702,62.0396 72.5,60C 70.0056,58.9683 67.6723,57.8017 65.5,56.5C 67.0495,55.5592 68.7162,54.8925 70.5,54.5 Z"/></g>
<g><path style="opacity:1" fill="#7cadd2" d="M 85.5,52.5 C 87.964,53.5665 90.2974,54.8998 92.5,56.5C 88.5,57.1667 88.5,57.8333 92.5,58.5C 92.5076,64.2076 92.0076,64.5409 91,59.5C 89.2859,60.9255 87.9525,60.5922 87,58.5C 86.3988,60.1368 85.8988,61.8034 85.5,63.5C 87.6896,66.0539 89.1896,69.0539 90,72.5C 90.765,74.0657 90.5983,75.3991 89.5,76.5C 88.2058,75.7101 87.0391,74.7101 86,73.5C 85.5017,76.8168 85.335,80.1501 85.5,83.5C 84.1905,79.6493 84.1905,75.6493 85.5,71.5C 86.4776,71.9767 87.3109,72.6433 88,73.5C 88.0525,70.5132 86.7191,68.1799 84,66.5C 83.7095,62.1368 83.2095,57.8035 82.5,53.5C 82.8763,51.1966 83.8763,50.8632 85.5,52.5 Z"/></g>
<g><path style="opacity:1" fill="#7cb2da" d="M 65.5,56.5 C 67.6723,57.8017 70.0056,58.9683 72.5,60C 74.3702,62.0396 76.3702,63.8729 78.5,65.5C 79.2965,70.8161 79.9631,76.1494 80.5,81.5C 78.9201,79.2829 77.9201,76.6163 77.5,73.5C 74.7931,72.4215 72.1264,71.4215 69.5,70.5C 69.5,69.5 69.5,68.5 69.5,67.5C 67.4727,67.6621 65.4727,67.4955 63.5,67C 65.158,66.2747 65.658,65.108 65,63.5C 63.6811,61.5125 61.8477,60.3459 59.5,60C 60.056,59.6174 60.3893,59.1174 60.5,58.5C 62.2838,58.1075 63.9505,57.4408 65.5,56.5 Z"/></g>
<g><path style="opacity:1" fill="#6ba9d7" d="M 92.5,56.5 C 92.8333,56.5 93.1667,56.5 93.5,56.5C 93.5,63.5 93.5,70.5 93.5,77.5C 92.8902,78.391 92.5569,79.391 92.5,80.5C 90.5544,79.9653 89.5544,78.632 89.5,76.5C 90.5983,75.3991 90.765,74.0657 90,72.5C 89.1896,69.0539 87.6896,66.0539 85.5,63.5C 85.8988,61.8034 86.3988,60.1368 87,58.5C 87.9525,60.5922 89.2859,60.9255 91,59.5C 92.0076,64.5409 92.5076,64.2076 92.5,58.5C 88.5,57.8333 88.5,57.1667 92.5,56.5 Z"/></g>
<g><path style="opacity:1" fill="#71a8d4" d="M 126.5,58.5 C 125.894,62.4594 125.227,66.4594 124.5,70.5C 123.549,69.6744 122.549,69.5078 121.5,70C 122.883,71.2708 123.883,72.7708 124.5,74.5C 123.417,74.4606 122.417,74.1272 121.5,73.5C 120.55,70.58 118.884,68.2467 116.5,66.5C 117.224,64.2694 117.224,61.7694 116.5,59C 119.803,57.3882 123.136,57.2215 126.5,58.5 Z"/></g>
<g><path style="opacity:1" fill="#b4c7d9" d="M 112.5,64.5 C 109.946,63.3944 107.279,62.561 104.5,62C 103.619,61.2917 102.953,60.4584 102.5,59.5C 102.833,59.5 103.167,59.5 103.5,59.5C 105.518,60.9326 107.185,60.5992 108.5,58.5C 113.161,56.8729 117.828,55.7062 122.5,55C 120.51,56.7506 118.177,57.7506 115.5,58C 114.542,59.1475 114.875,60.1475 116.5,61C 114.676,61.66 113.343,62.8267 112.5,64.5 Z"/></g>
<g><path style="opacity:1" fill="#547db2" d="M 136.5,68.5 C 135.264,70.649 134.264,72.9823 133.5,75.5C 133.167,75.5 132.833,75.5 132.5,75.5C 132.33,74.1779 132.663,73.0113 133.5,72C 132.552,71.5172 131.552,71.3505 130.5,71.5C 129.791,70.596 128.791,70.2627 127.5,70.5C 125.68,58.4826 128.513,56.816 136,65.5C 136.483,66.448 136.649,67.448 136.5,68.5 Z"/></g>
<g><path style="opacity:1" fill="#cfd1d3" d="M 86.5,49.5 C 87.391,50.1098 88.391,50.4431 89.5,50.5C 92.1352,52.8257 94.8018,55.159 97.5,57.5C 99.0754,58.4565 100.742,59.1231 102.5,59.5C 102.953,60.4584 103.619,61.2917 104.5,62C 107.279,62.561 109.946,63.3944 112.5,64.5C 113.514,65.6737 114.847,66.3404 116.5,66.5C 118.884,68.2467 120.55,70.58 121.5,73.5C 122.417,74.1272 123.417,74.4606 124.5,74.5C 119.343,75.2108 114.01,75.2108 108.5,74.5C 101.793,71.4285 97.1259,66.4285 94.5,59.5C 94.7373,58.209 94.404,57.209 93.5,56.5C 93.1667,56.5 92.8333,56.5 92.5,56.5C 90.2974,54.8998 87.964,53.5665 85.5,52.5C 86.552,52.6495 87.552,52.4828 88.5,52C 87.244,51.5831 86.5774,50.7498 86.5,49.5 Z"/></g>
<g><path style="opacity:1" fill="#5492c9" d="M 137.5,52.5 C 141.249,63.6421 145.416,74.6421 150,85.5C 151.012,88.2018 152.512,90.5351 154.5,92.5C 154.5,93.1667 154.833,93.5 155.5,93.5C 154.426,95.2155 152.759,96.2155 150.5,96.5C 148.591,95.6518 146.591,95.3184 144.5,95.5C 142.089,95.1367 140.589,96.1367 140,98.5C 138.275,97.536 136.441,96.8693 134.5,96.5C 135.657,92.8533 137.323,89.52 139.5,86.5C 139.986,88.8067 139.986,90.9734 139.5,93C 143.089,93.2069 146.589,93.7069 150,94.5C 151.135,94.273 152.302,93.9396 153.5,93.5C 152.167,92.8333 150.833,92.1667 149.5,91.5C 146.433,84.7006 143.933,77.7006 142,70.5C 140.556,68.8446 138.722,68.178 136.5,68.5C 136.649,67.448 136.483,66.448 136,65.5C 128.513,56.816 125.68,58.4826 127.5,70.5C 128.791,70.2627 129.791,70.596 130.5,71.5C 129.596,72.209 129.263,73.209 129.5,74.5C 127.833,74.5 126.167,74.5 124.5,74.5C 123.883,72.7708 122.883,71.2708 121.5,70C 122.549,69.5078 123.549,69.6744 124.5,70.5C 125.227,66.4594 125.894,62.4594 126.5,58.5C 126.833,58.5 127.167,58.5 127.5,58.5C 128.376,58.6309 129.043,58.2975 129.5,57.5C 126.693,53.1801 128.026,51.6801 133.5,53C 134.147,54.6095 134.98,56.1095 136,57.5C 136.536,55.4328 136.036,53.5994 134.5,52C 135.749,51.2599 136.749,51.4265 137.5,52.5 Z"/></g>
<g><path style="opacity:1" fill="#479bd7" d="M 58.5,99.5 C 55.983,101.053 53.1497,102.053 50,102.5C 49.2352,102.43 48.7352,102.097 48.5,101.5C 46.7495,96.0427 46.0829,90.5427 46.5,85C 39.8289,85.4981 33.1622,86.3315 26.5,87.5C 26.6495,86.448 26.4828,85.448 26,84.5C 22.9433,85.4505 19.7766,85.7839 16.5,85.5C 16.8146,87.2259 16.9813,88.8925 17,90.5C 11.1478,89.3591 5.31447,89.6924 -0.5,91.5C -0.5,84.5 -0.5,77.5 -0.5,70.5C 14.1226,70.2432 28.7893,70.0765 43.5,70C 44.0253,69.3076 44.6919,68.8076 45.5,68.5C 47.7078,78.7007 49.0412,89.034 49.5,99.5C 52.5,99.5 55.5,99.5 58.5,99.5 Z"/></g>
<g><path style="opacity:1" fill="#b7bcc6" d="M 94.5,59.5 C 97.1259,66.4285 101.793,71.4285 108.5,74.5C 108.5,74.8333 108.5,75.1667 108.5,75.5C 107.5,75.8333 106.833,76.5 106.5,77.5C 105.153,78.0283 103.819,78.195 102.5,78C 100.662,74.3483 98.3282,71.1816 95.5,68.5C 94.701,65.5701 94.3677,62.5701 94.5,59.5 Z"/></g>
<g><path style="opacity:1" fill="#64a9d9" d="M 60.5,58.5 C 60.3893,59.1174 60.056,59.6174 59.5,60C 61.8477,60.3459 63.6811,61.5125 65,63.5C 65.658,65.108 65.158,66.2747 63.5,67C 65.4727,67.4955 67.4727,67.6621 69.5,67.5C 69.5,68.5 69.5,69.5 69.5,70.5C 72.1264,71.4215 74.7931,72.4215 77.5,73.5C 77.9201,76.6163 78.9201,79.2829 80.5,81.5C 80.3367,83.8568 80.5034,86.1902 81,88.5C 82.0113,89.3366 83.1779,89.67 84.5,89.5C 83.791,90.404 82.791,90.7373 81.5,90.5C 77.0511,90.3729 72.8844,91.3729 69,93.5C 65.2345,91.7268 63.4012,88.7268 63.5,84.5C 61.1727,84.7529 59.1727,84.0863 57.5,82.5C 56.8076,83.0253 56.3076,83.6919 56,84.5C 54.705,79.3948 53.0384,79.3948 51,84.5C 50.1262,78.8034 48.9596,72.9701 47.5,67C 47.8333,66.1667 48.1667,65.3333 48.5,64.5C 52.5531,62.4734 56.5531,60.4734 60.5,58.5 Z"/></g>
<g><path style="opacity:1" fill="#7696b9" d="M 130.5,71.5 C 131.552,71.3505 132.552,71.5172 133.5,72C 132.663,73.0113 132.33,74.1779 132.5,75.5C 129.941,75.1984 127.607,75.5318 125.5,76.5C 119.804,76.553 114.138,76.2197 108.5,75.5C 108.5,75.1667 108.5,74.8333 108.5,74.5C 114.01,75.2108 119.343,75.2108 124.5,74.5C 126.167,74.5 127.833,74.5 129.5,74.5C 129.263,73.209 129.596,72.209 130.5,71.5 Z"/></g>
<g><path style="opacity:1" fill="#a6bed5" d="M 125.5,76.5 C 127.607,75.5318 129.941,75.1984 132.5,75.5C 132.833,75.5 133.167,75.5 133.5,75.5C 135.105,76.0059 135.439,76.6726 134.5,77.5C 131.455,77.4921 128.455,77.1587 125.5,76.5 Z"/></g>
<g><path style="opacity:1" fill="#479bd7" d="M 255.5,70.5 C 255.5,79.8333 255.5,89.1667 255.5,98.5C 249.798,98.0681 244.298,96.7348 239,94.5C 235.919,95.5658 232.752,96.5658 229.5,97.5C 226.223,96.7463 222.89,96.2463 219.5,96C 216.513,92.4667 212.68,90.6334 208,90.5C 206.795,91.0712 205.628,91.7379 204.5,92.5C 203.359,93.4255 203.359,94.2588 204.5,95C 203.833,95.3333 203.167,95.6667 202.5,96C 203.38,97.3561 203.714,98.8561 203.5,100.5C 197.328,97.2446 191.661,93.2446 186.5,88.5C 185.042,87.218 183.708,87.218 182.5,88.5C 180.898,92.0954 178.898,95.4288 176.5,98.5C 178.448,93.096 176.448,90.4293 170.5,90.5C 168.369,89.6862 166.036,89.1862 163.5,89C 164.789,87.1978 166.456,86.0312 168.5,85.5C 169.847,86.1712 171.014,86.1712 172,85.5C 172.711,83.6332 172.211,82.1332 170.5,81C 172.994,79.5091 175.494,78.0091 178,76.5C 178.333,74.5 178.667,72.5 179,70.5C 188.712,71.7565 198.545,73.4232 208.5,75.5C 218.162,75.1327 228.162,75.1327 238.5,75.5C 238.5,74.5 238.5,73.5 238.5,72.5C 244.534,72.3536 250.201,71.687 255.5,70.5 Z"/></g>
<g><path style="opacity:1" fill="#a0adc3" d="M 95.5,68.5 C 98.3282,71.1816 100.662,74.3483 102.5,78C 103.819,78.195 105.153,78.0283 106.5,77.5C 106.5,77.8333 106.5,78.1667 106.5,78.5C 105.272,79.3065 104.272,80.3065 103.5,81.5C 102.5,81.5 101.5,81.5 100.5,81.5C 100.723,78.8858 99.5562,77.2191 97,76.5C 95.9207,73.9373 95.4207,71.2706 95.5,68.5 Z"/></g>
<g><path style="opacity:1" fill="#4790cf" d="M 89.5,76.5 C 89.5544,78.632 90.5544,79.9653 92.5,80.5C 92.5,84.1667 92.5,87.8333 92.5,91.5C 90.5328,91.7394 88.6995,91.4061 87,90.5C 86.8138,87.9644 86.3138,85.631 85.5,83.5C 85.335,80.1501 85.5017,76.8168 86,73.5C 87.0391,74.7101 88.2058,75.7101 89.5,76.5 Z"/></g>
<g><path style="opacity:1" fill="#4580b9" d="M 108.5,75.5 C 114.138,76.2197 119.804,76.553 125.5,76.5C 128.455,77.1587 131.455,77.4921 134.5,77.5C 134.414,78.4959 134.748,79.3292 135.5,80C 132.698,83.1723 132.031,86.6723 133.5,90.5C 130.11,90.1149 127.777,91.4483 126.5,94.5C 124.087,95.6798 123.087,97.6798 123.5,100.5C 121.833,100.5 120.167,100.5 118.5,100.5C 119.568,99.5655 120.901,99.2322 122.5,99.5C 122.439,96.9505 121.106,95.4505 118.5,95C 119.428,94.6121 120.095,93.9454 120.5,93C 119.73,91.2252 118.563,89.7252 117,88.5C 115.227,84.6177 113.727,80.6177 112.5,76.5C 110.142,76.2525 108.142,76.9192 106.5,78.5C 106.5,78.1667 106.5,77.8333 106.5,77.5C 106.833,76.5 107.5,75.8333 108.5,75.5 Z"/></g>
<g><path style="opacity:1" fill="#7d9cc0" d="M 93.5,56.5 C 94.404,57.209 94.7373,58.209 94.5,59.5C 94.3677,62.5701 94.701,65.5701 95.5,68.5C 95.4207,71.2706 95.9207,73.9373 97,76.5C 99.5562,77.2191 100.723,78.8858 100.5,81.5C 101.5,81.5 102.5,81.5 103.5,81.5C 102.872,84.9549 100.872,86.1215 97.5,85C 96.2318,82.3734 94.8985,79.8734 93.5,77.5C 93.5,70.5 93.5,63.5 93.5,56.5 Z"/></g>
<g><path style="opacity:1" fill="#3881c6" d="M 136.5,68.5 C 138.722,68.178 140.556,68.8446 142,70.5C 143.933,77.7006 146.433,84.7006 149.5,91.5C 150.833,92.1667 152.167,92.8333 153.5,93.5C 152.302,93.9396 151.135,94.273 150,94.5C 146.589,93.7069 143.089,93.2069 139.5,93C 139.986,90.9734 139.986,88.8067 139.5,86.5C 139.649,85.448 139.483,84.448 139,83.5C 137.609,86.3361 135.776,88.6694 133.5,90.5C 132.031,86.6723 132.698,83.1723 135.5,80C 134.748,79.3292 134.414,78.4959 134.5,77.5C 135.439,76.6726 135.105,76.0059 133.5,75.5C 134.264,72.9823 135.264,70.649 136.5,68.5 Z"/></g>
<g><path style="opacity:1" fill="#2b6fb4" d="M 118.5,100.5 C 117.167,100.5 115.833,100.5 114.5,100.5C 108.5,100.5 102.5,100.5 96.5,100.5C 95.603,99.4019 94.7697,99.4019 94,100.5C 93.5304,99.4232 93.6971,98.4232 94.5,97.5C 95.3382,97.1583 95.6716,96.4916 95.5,95.5C 100.341,90.6464 104.007,84.9797 106.5,78.5C 108.142,76.9192 110.142,76.2525 112.5,76.5C 113.727,80.6177 115.227,84.6177 117,88.5C 118.563,89.7252 119.73,91.2252 120.5,93C 120.095,93.9454 119.428,94.6121 118.5,95C 121.106,95.4505 122.439,96.9505 122.5,99.5C 120.901,99.2322 119.568,99.5655 118.5,100.5 Z"/></g>
<g><path style="opacity:1" fill="#5a8cbe" d="M 93.5,77.5 C 94.8985,79.8734 96.2318,82.3734 97.5,85C 100.872,86.1215 102.872,84.9549 103.5,81.5C 104.272,80.3065 105.272,79.3065 106.5,78.5C 104.007,84.9797 100.341,90.6464 95.5,95.5C 91.8514,94.1721 88.1847,92.8388 84.5,91.5C 83.8333,91.6667 83.1667,91.8333 82.5,92C 83.9733,92.7096 84.6399,93.8762 84.5,95.5C 83.1667,95.5 81.8333,95.5 80.5,95.5C 78.6907,94.7093 76.6907,94.7093 74.5,95.5C 77.1377,94.2963 79.471,92.6296 81.5,90.5C 82.791,90.7373 83.791,90.404 84.5,89.5C 85.4614,87.7354 85.7947,85.7354 85.5,83.5C 86.3138,85.631 86.8138,87.9644 87,90.5C 88.6995,91.4061 90.5328,91.7394 92.5,91.5C 92.5,87.8333 92.5,84.1667 92.5,80.5C 92.5569,79.391 92.8902,78.391 93.5,77.5 Z"/></g>
<g><path style="opacity:1" fill="#a7bcd1" d="M 139.5,86.5 C 137.323,89.52 135.657,92.8533 134.5,96.5C 133.32,99.5396 131.653,102.206 129.5,104.5C 129.062,104.565 128.728,104.399 128.5,104C 130.16,102.512 131.16,100.679 131.5,98.5C 132.339,97.3588 133.006,96.0255 133.5,94.5C 131.101,94.6312 128.768,94.6312 126.5,94.5C 127.777,91.4483 130.11,90.1149 133.5,90.5C 135.776,88.6694 137.609,86.3361 139,83.5C 139.483,84.448 139.649,85.448 139.5,86.5 Z"/></g>
<g><path style="opacity:1" fill="#52a0d6" d="M 182.5,88.5 C 183.708,87.218 185.042,87.218 186.5,88.5C 191.661,93.2446 197.328,97.2446 203.5,100.5C 206.642,103.469 209.975,106.302 213.5,109C 207.295,108.504 201.295,107.67 195.5,106.5C 195.5,107.5 195.5,108.5 195.5,109.5C 191.265,111.485 186.931,112.152 182.5,111.5C 182.719,110.325 182.386,109.325 181.5,108.5C 179.496,110.698 177.163,112.365 174.5,113.5C 175.185,111.586 175.685,109.586 176,107.5C 179.756,101.807 182.922,95.8073 185.5,89.5C 184.675,88.6143 183.675,88.281 182.5,88.5 Z"/></g>
<g><path style="opacity:1" fill="#8fabc7" d="M 80.5,95.5 C 77.9823,96.2638 75.649,97.2638 73.5,98.5C 73.1667,98.5 72.8333,98.5 72.5,98.5C 71.5084,98.6716 70.8417,98.3382 70.5,97.5C 72.153,97.3404 73.4863,96.6737 74.5,95.5C 76.6907,94.7093 78.6907,94.7093 80.5,95.5 Z"/></g>
<g><path style="opacity:1" fill="#458fcc" d="M 95.5,95.5 C 95.6716,96.4916 95.3382,97.1583 94.5,97.5C 87.6662,97.9456 80.9995,98.9456 74.5,100.5C 73.6618,100.158 73.3284,99.4916 73.5,98.5C 75.649,97.2638 77.9823,96.2638 80.5,95.5C 81.8333,95.5 83.1667,95.5 84.5,95.5C 84.6399,93.8762 83.9733,92.7096 82.5,92C 83.1667,91.8333 83.8333,91.6667 84.5,91.5C 88.1847,92.8388 91.8514,94.1721 95.5,95.5 Z"/></g>
<g><path style="opacity:1" fill="#5ca4d6" d="M 168.5,85.5 C 166.456,86.0312 164.789,87.1978 163.5,89C 166.036,89.1862 168.369,89.6862 170.5,90.5C 167.672,92.9936 166.339,96.1603 166.5,100C 166.905,105.348 167.572,110.514 168.5,115.5C 167.453,118.596 166.12,121.596 164.5,124.5C 165.651,125.731 166.817,125.731 168,124.5C 169.689,120.44 171.856,116.773 174.5,113.5C 174.421,114.93 174.754,116.264 175.5,117.5C 173.551,119.297 171.884,121.297 170.5,123.5C 169.89,124.391 169.557,125.391 169.5,126.5C 167.234,126.141 165.401,126.808 164,128.5C 163.601,128.272 163.435,127.938 163.5,127.5C 163.423,126.25 162.756,125.417 161.5,125C 157.68,124.765 154.013,123.932 150.5,122.5C 149.584,122.543 148.917,122.876 148.5,123.5C 146.656,121.721 145.99,119.388 146.5,116.5C 150.669,108.809 154.669,100.976 158.5,93C 157.423,92.5304 156.423,92.6971 155.5,93.5C 154.833,93.5 154.5,93.1667 154.5,92.5C 159.482,89.1925 164.482,85.8592 169.5,82.5C 169.833,82.8333 170.167,83.1667 170.5,83.5C 169.757,84.1818 169.091,84.8485 168.5,85.5 Z"/></g>
<g><path style="opacity:1" fill="#829ebb" d="M 131.5,98.5 C 130.796,96.6558 129.463,96.1558 127.5,97C 126.611,101.385 123.944,103.219 119.5,102.5C 117.36,102.444 115.694,101.777 114.5,100.5C 115.833,100.5 117.167,100.5 118.5,100.5C 120.167,100.5 121.833,100.5 123.5,100.5C 123.087,97.6798 124.087,95.6798 126.5,94.5C 128.768,94.6312 131.101,94.6312 133.5,94.5C 133.006,96.0255 132.339,97.3588 131.5,98.5 Z"/></g>
<g><path style="opacity:1" fill="#3f92d3" d="M 146.5,116.5 C 145.284,113.134 144.284,109.801 143.5,106.5C 143.603,103.781 143.269,101.115 142.5,98.5C 142.942,97.2613 143.609,96.2613 144.5,95.5C 146.591,95.3184 148.591,95.6518 150.5,96.5C 152.759,96.2155 154.426,95.2155 155.5,93.5C 156.423,92.6971 157.423,92.5304 158.5,93C 154.669,100.976 150.669,108.809 146.5,116.5 Z"/></g>
<g><path style="opacity:1" fill="#3e5e84" d="M 70.5,97.5 C 70.8417,98.3382 71.5084,98.6716 72.5,98.5C 70.7857,99.7384 68.7857,100.405 66.5,100.5C 66.1583,99.6618 65.4916,99.3284 64.5,99.5C 66.2143,98.2616 68.2143,97.595 70.5,97.5 Z"/></g>
<g><path style="opacity:1" fill="#3c87cc" d="M 170.5,90.5 C 176.448,90.4293 178.448,93.096 176.5,98.5C 174.872,104.743 172.205,110.41 168.5,115.5C 167.572,110.514 166.905,105.348 166.5,100C 166.339,96.1603 167.672,92.9936 170.5,90.5 Z"/></g>
<g><path style="opacity:1" fill="#4095d5" d="M 48.5,101.5 C 45.8872,100.565 43.2205,100.398 40.5,101C 40.9574,101.414 41.2907,101.914 41.5,102.5C 37.7642,106.105 33.4308,107.439 28.5,106.5C 27.0499,107.85 26.3832,109.516 26.5,111.5C 24.4086,111.682 22.4086,111.348 20.5,110.5C 18.5,111.167 16.5,111.833 14.5,112.5C 12.4272,111.531 10.2605,110.865 8,110.5C 5.65118,112.757 2.81784,114.09 -0.5,114.5C -0.5,106.833 -0.5,99.1667 -0.5,91.5C 5.31447,89.6924 11.1478,89.3591 17,90.5C 16.9813,88.8925 16.8146,87.2259 16.5,85.5C 19.7766,85.7839 22.9433,85.4505 26,84.5C 26.4828,85.448 26.6495,86.448 26.5,87.5C 33.1622,86.3315 39.8289,85.4981 46.5,85C 46.0829,90.5427 46.7495,96.0427 48.5,101.5 Z"/></g>
<g><path style="opacity:1" fill="#4c91cb" d="M 131.5,98.5 C 131.16,100.679 130.16,102.512 128.5,104C 128.728,104.399 129.062,104.565 129.5,104.5C 129.5,104.833 129.5,105.167 129.5,105.5C 119.14,105.296 108.806,105.629 98.5,106.5C 97.8333,106.5 97.5,106.167 97.5,105.5C 102.681,103.981 108.014,103.147 113.5,103C 107.6,102.79 101.934,101.956 96.5,100.5C 102.5,100.5 108.5,100.5 114.5,100.5C 115.694,101.777 117.36,102.444 119.5,102.5C 123.944,103.219 126.611,101.385 127.5,97C 129.463,96.1558 130.796,96.6558 131.5,98.5 Z"/></g>
<g><path style="opacity:1" fill="#3480c9" d="M 94.5,97.5 C 93.6971,98.4232 93.5304,99.4232 94,100.5C 94.7697,99.4019 95.603,99.4019 96.5,100.5C 101.934,101.956 107.6,102.79 113.5,103C 108.014,103.147 102.681,103.981 97.5,105.5C 90.0394,109.111 82.3728,111.111 74.5,111.5C 70.8835,111.101 67.5502,110.101 64.5,108.5C 65.8221,108.67 66.9887,108.337 68,107.5C 68.3333,108.167 68.6667,108.833 69,109.5C 71.0413,108.248 73.3746,107.581 76,107.5C 78.1667,107.667 80.3333,107.833 82.5,108C 83,108.5 83.5,109 84,109.5C 85.897,107.984 88.0637,107.317 90.5,107.5C 90.6399,105.876 89.9733,104.71 88.5,104C 83.4835,103.746 78.8168,102.579 74.5,100.5C 80.9995,98.9456 87.6662,97.9456 94.5,97.5 Z"/></g>
<g><path style="opacity:1" fill="#1f3f6c" d="M 64.5,99.5 C 65.4916,99.3284 66.1583,99.6618 66.5,100.5C 62.8733,101.321 59.54,102.654 56.5,104.5C 54.8632,105.218 53.1966,105.384 51.5,105C 55.7825,103.072 60.1159,101.238 64.5,99.5 Z"/></g>
<g><path style="opacity:1" fill="#4b84bc" d="M 144.5,95.5 C 143.609,96.2613 142.942,97.2613 142.5,98.5C 143.269,101.115 143.603,103.781 143.5,106.5C 142.532,108.607 142.198,110.941 142.5,113.5C 140.516,113.383 138.85,114.05 137.5,115.5C 135.974,113.377 134.308,111.377 132.5,109.5C 131.143,108.41 130.143,107.076 129.5,105.5C 129.5,105.167 129.5,104.833 129.5,104.5C 131.653,102.206 133.32,99.5396 134.5,96.5C 136.441,96.8693 138.275,97.536 140,98.5C 140.589,96.1367 142.089,95.1367 144.5,95.5 Z"/></g>
<g><path style="opacity:1" fill="#397ac4" d="M 72.5,98.5 C 72.8333,98.5 73.1667,98.5 73.5,98.5C 73.3284,99.4916 73.6618,100.158 74.5,100.5C 78.8168,102.579 83.4835,103.746 88.5,104C 89.9733,104.71 90.6399,105.876 90.5,107.5C 88.0637,107.317 85.897,107.984 84,109.5C 83.5,109 83,108.5 82.5,108C 80.3333,107.833 78.1667,107.667 76,107.5C 73.3746,107.581 71.0413,108.248 69,109.5C 68.6667,108.833 68.3333,108.167 68,107.5C 66.9887,108.337 65.8221,108.67 64.5,108.5C 62.4727,108.662 60.4727,108.495 58.5,108C 57.0267,107.29 56.3601,106.124 56.5,104.5C 59.54,102.654 62.8733,101.321 66.5,100.5C 68.7857,100.405 70.7857,99.7384 72.5,98.5 Z"/></g>
<g><path style="opacity:1" fill="#296cb2" d="M 129.5,105.5 C 130.143,107.076 131.143,108.41 132.5,109.5C 135.064,114.325 137.398,119.325 139.5,124.5C 136.907,122.287 134.574,119.787 132.5,117C 133.571,115.175 132.904,114.008 130.5,113.5C 130.06,114.698 129.727,115.865 129.5,117C 125.041,117.524 120.874,117.357 117,116.5C 116.517,117.448 116.351,118.448 116.5,119.5C 114.668,118.752 113.001,117.752 111.5,116.5C 110.5,115.833 109.5,115.167 108.5,114.5C 108.158,113.662 107.492,113.328 106.5,113.5C 104.882,111.684 102.882,110.351 100.5,109.5C 99.8333,108.5 99.1667,107.5 98.5,106.5C 108.806,105.629 119.14,105.296 129.5,105.5 Z"/></g>
<g><path style="opacity:1" fill="#3e7fbc" d="M 143.5,106.5 C 144.284,109.801 145.284,113.134 146.5,116.5C 145.99,119.388 146.656,121.721 148.5,123.5C 149.833,124.5 151.167,125.5 152.5,126.5C 151.209,126.263 150.209,126.596 149.5,127.5C 149.347,131.966 149.347,136.299 149.5,140.5C 146.353,135.071 143.019,129.738 139.5,124.5C 137.398,119.325 135.064,114.325 132.5,109.5C 134.308,111.377 135.974,113.377 137.5,115.5C 138.85,114.05 140.516,113.383 142.5,113.5C 142.198,110.941 142.532,108.607 143.5,106.5 Z"/></g>
<g><path style="opacity:1" fill="#3e93d3" d="M 255.5,109.5 C 255.5,114.833 255.5,120.167 255.5,125.5C 252.352,128.343 249.519,128.009 247,124.5C 246.275,125.059 245.442,125.392 244.5,125.5C 240.987,124.879 237.487,124.213 234,123.5C 228.879,124.136 223.712,124.136 218.5,123.5C 218.719,122.325 218.386,121.325 217.5,120.5C 215.528,119.695 214.028,118.361 213,116.5C 212.584,118.55 211.417,119.884 209.5,120.5C 210.5,117.167 211.5,113.833 212.5,110.5C 216.56,111.152 218.56,109.485 218.5,105.5C 217.127,105.657 215.793,105.49 214.5,105C 219.303,102.754 223.803,103.254 228,106.5C 229.726,105.424 231.559,105.257 233.5,106C 231.321,106.442 230.655,107.442 231.5,109C 239.587,109.154 247.587,109.321 255.5,109.5 Z"/></g>
<g><path style="opacity:1" fill="#3a90d3" d="M 74.5,95.5 C 73.4863,96.6737 72.153,97.3404 70.5,97.5C 68.2143,97.595 66.2143,98.2616 64.5,99.5C 60.1159,101.238 55.7825,103.072 51.5,105C 53.1966,105.384 54.8632,105.218 56.5,104.5C 56.3601,106.124 57.0267,107.29 58.5,108C 60.4727,108.495 62.4727,108.662 64.5,108.5C 67.5502,110.101 70.8835,111.101 74.5,111.5C 75.7373,113.097 77.404,114.263 79.5,115C 77.6447,115.422 75.8114,115.922 74,116.5C 64.8688,115.374 55.7021,115.207 46.5,116C 43.0684,116.116 40.0684,117.283 37.5,119.5C 33.2404,119.718 28.9071,119.384 24.5,118.5C 23.8333,118.833 23.1667,119.167 22.5,119.5C 24,119.833 25.5,120.167 27,120.5C 31.6266,120.58 35.9599,120.58 40,120.5C 40.5,121 41,121.5 41.5,122C 34.7117,123.186 27.8783,124.353 21,125.5C 18.7746,125.435 16.6079,125.102 14.5,124.5C 13.5224,124.977 12.6891,125.643 12,126.5C 11.2825,125.549 10.4491,125.383 9.5,126C 7.1708,129.59 3.83746,131.423 -0.5,131.5C -0.5,125.833 -0.5,120.167 -0.5,114.5C 2.81784,114.09 5.65118,112.757 8,110.5C 10.2605,110.865 12.4272,111.531 14.5,112.5C 16.5,111.833 18.5,111.167 20.5,110.5C 22.4086,111.348 24.4086,111.682 26.5,111.5C 26.3832,109.516 27.0499,107.85 28.5,106.5C 33.4308,107.439 37.7642,106.105 41.5,102.5C 41.2907,101.914 40.9574,101.414 40.5,101C 43.2205,100.398 45.8872,100.565 48.5,101.5C 48.7352,102.097 49.2352,102.43 50,102.5C 53.1497,102.053 55.983,101.053 58.5,99.5C 63.6735,97.5538 69.0069,96.2205 74.5,95.5 Z"/></g>
<g><path style="opacity:1" fill="#4398d6" d="M 255.5,98.5 C 255.5,102.167 255.5,105.833 255.5,109.5C 247.587,109.321 239.587,109.154 231.5,109C 230.655,107.442 231.321,106.442 233.5,106C 231.559,105.257 229.726,105.424 228,106.5C 223.803,103.254 219.303,102.754 214.5,105C 215.793,105.49 217.127,105.657 218.5,105.5C 218.56,109.485 216.56,111.152 212.5,110.5C 211.5,113.833 210.5,117.167 209.5,120.5C 208.5,120.833 207.833,121.5 207.5,122.5C 206.778,122.082 206.278,121.416 206,120.5C 205.727,122.329 204.893,123.829 203.5,125C 198.949,125.388 194.616,126.554 190.5,128.5C 185.868,127.685 181.201,127.352 176.5,127.5C 176.66,125.801 176.494,124.134 176,122.5C 174.301,123.406 172.467,123.739 170.5,123.5C 171.884,121.297 173.551,119.297 175.5,117.5C 174.754,116.264 174.421,114.93 174.5,113.5C 177.163,112.365 179.496,110.698 181.5,108.5C 182.386,109.325 182.719,110.325 182.5,111.5C 186.931,112.152 191.265,111.485 195.5,109.5C 195.5,108.5 195.5,107.5 195.5,106.5C 201.295,107.67 207.295,108.504 213.5,109C 209.975,106.302 206.642,103.469 203.5,100.5C 203.714,98.8561 203.38,97.3561 202.5,96C 203.167,95.6667 203.833,95.3333 204.5,95C 203.359,94.2588 203.359,93.4255 204.5,92.5C 205.628,91.7379 206.795,91.0712 208,90.5C 212.68,90.6334 216.513,92.4667 219.5,96C 222.89,96.2463 226.223,96.7463 229.5,97.5C 232.752,96.5658 235.919,95.5658 239,94.5C 244.298,96.7348 249.798,98.0681 255.5,98.5 Z"/></g>
<g><path style="opacity:1" fill="#358cd2" d="M 97.5,105.5 C 97.5,106.167 97.8333,106.5 98.5,106.5C 99.1667,107.5 99.8333,108.5 100.5,109.5C 92.8711,115.115 84.5377,119.448 75.5,122.5C 75.5,124.5 75.5,126.5 75.5,128.5C 74.7321,129.263 74.2321,130.263 74,131.5C 73.3333,128.833 72.6667,128.833 72,131.5C 71.3333,130.167 70.6667,130.167 70,131.5C 69.5172,130.552 69.3505,129.552 69.5,128.5C 67.8002,128.626 66.3002,129.293 65,130.5C 63.395,129.899 62.0616,128.899 61,127.5C 55.013,128.731 55.1797,129.565 61.5,130C 58.9973,130.129 56.9973,131.129 55.5,133C 53.1667,133.333 50.8333,133.667 48.5,134C 50.3839,134.216 52.0506,134.883 53.5,136C 49.6049,137.266 45.6049,137.766 41.5,137.5C 41.5,136.5 41.5,135.5 41.5,134.5C 43.1992,134.66 44.8659,134.494 46.5,134C 44.2729,133.879 42.4396,133.046 41,131.5C 38.2633,132.56 35.43,133.394 32.5,134C 31.3333,134.5 30.5,135.333 30,136.5C 28.4842,133.949 27.6509,134.282 27.5,137.5C 23.6249,137.085 19.9582,137.585 16.5,139C 19.5,139.333 22.5,139.667 25.5,140C 23.1093,140.287 20.7759,140.787 18.5,141.5C 16.7219,141.431 14.8886,141.097 13,140.5C 12.4862,143.028 11.3195,145.195 9.5,147C 12.1059,147.45 13.4392,148.95 13.5,151.5C 8.5329,152.038 3.86624,151.371 -0.5,149.5C -0.5,143.5 -0.5,137.5 -0.5,131.5C 3.83746,131.423 7.1708,129.59 9.5,126C 10.4491,125.383 11.2825,125.549 12,126.5C 12.6891,125.643 13.5224,124.977 14.5,124.5C 16.6079,125.102 18.7746,125.435 21,125.5C 27.8783,124.353 34.7117,123.186 41.5,122C 41,121.5 40.5,121 40,120.5C 35.9599,120.58 31.6266,120.58 27,120.5C 25.5,120.167 24,119.833 22.5,119.5C 23.1667,119.167 23.8333,118.833 24.5,118.5C 28.9071,119.384 33.2404,119.718 37.5,119.5C 40.0684,117.283 43.0684,116.116 46.5,116C 55.7021,115.207 64.8688,115.374 74,116.5C 75.8114,115.922 77.6447,115.422 79.5,115C 77.404,114.263 75.7373,113.097 74.5,111.5C 82.3728,111.111 90.0394,109.111 97.5,105.5 Z"/></g>
<g><path style="opacity:1" fill="#2366b1" d="M 139.5,124.5 C 143.019,129.738 146.353,135.071 149.5,140.5C 143.631,139.214 138.298,136.214 133.5,131.5C 127.62,127.733 121.954,123.733 116.5,119.5C 116.351,118.448 116.517,117.448 117,116.5C 120.874,117.357 125.041,117.524 129.5,117C 129.727,115.865 130.06,114.698 130.5,113.5C 132.904,114.008 133.571,115.175 132.5,117C 134.574,119.787 136.907,122.287 139.5,124.5 Z"/></g>
<g><path style="opacity:1" fill="#c8d8e4" d="M 182.5,88.5 C 183.675,88.281 184.675,88.6143 185.5,89.5C 182.922,95.8073 179.756,101.807 176,107.5C 175.685,109.586 175.185,111.586 174.5,113.5C 171.856,116.773 169.689,120.44 168,124.5C 166.817,125.731 165.651,125.731 164.5,124.5C 166.12,121.596 167.453,118.596 168.5,115.5C 172.205,110.41 174.872,104.743 176.5,98.5C 178.898,95.4288 180.898,92.0954 182.5,88.5 Z"/></g>
<g><path style="opacity:1" fill="#b9ccdd" d="M 108.5,114.5 C 109.5,115.167 110.5,115.833 111.5,116.5C 111.5,117.167 111.5,117.833 111.5,118.5C 111.041,120.602 111.041,123.269 111.5,126.5C 109.505,123.362 108.172,119.862 107.5,116C 107.57,115.235 107.903,114.735 108.5,114.5 Z"/></g>
<g><path style="opacity:1" fill="#92a9c1" d="M 111.5,118.5 C 113.326,120.147 114.66,122.147 115.5,124.5C 114.176,123.15 113.176,123.317 112.5,125C 114.043,127.33 114.543,129.83 114,132.5C 113.722,131.584 113.222,130.918 112.5,130.5C 111.766,129.292 111.433,127.959 111.5,126.5C 111.041,123.269 111.041,120.602 111.5,118.5 Z"/></g>
<g><path style="opacity:1" fill="#358dd3" d="M 255.5,125.5 C 255.5,134.167 255.5,142.833 255.5,151.5C 252.216,151.277 249.049,150.61 246,149.5C 245.086,150.654 244.253,150.487 243.5,149C 238.123,149.138 233.123,147.971 228.5,145.5C 227.914,145.709 227.414,146.043 227,146.5C 226.097,145.299 224.931,144.465 223.5,144C 220.167,143.667 216.833,143.333 213.5,143C 215.167,142.667 216.833,142.333 218.5,142C 217.007,140.632 215.507,140.465 214,141.5C 213.333,140.833 212.667,140.167 212,139.5C 211.275,141.158 210.108,141.658 208.5,141C 208.833,140.667 209.167,140.333 209.5,140C 207.22,139.788 205.22,138.955 203.5,137.5C 202.695,139.471 201.695,141.137 200.5,142.5C 200.44,136.699 202.774,135.366 207.5,138.5C 208.192,137.975 208.692,137.308 209,136.5C 210.268,136.616 211.602,136.949 213,137.5C 214.734,136.751 216.567,136.251 218.5,136C 217.271,135.219 215.938,134.719 214.5,134.5C 211.986,134.972 209.486,135.306 207,135.5C 205.566,135.07 204.399,134.236 203.5,133C 205.807,129.884 207.14,126.384 207.5,122.5C 207.833,121.5 208.5,120.833 209.5,120.5C 211.417,119.884 212.584,118.55 213,116.5C 214.028,118.361 215.528,119.695 217.5,120.5C 218.386,121.325 218.719,122.325 218.5,123.5C 223.712,124.136 228.879,124.136 234,123.5C 237.487,124.213 240.987,124.879 244.5,125.5C 245.442,125.392 246.275,125.059 247,124.5C 249.519,128.009 252.352,128.343 255.5,125.5 Z"/></g>
<g><path style="opacity:1" fill="#4d9ed5" d="M 100.5,109.5 C 102.882,110.351 104.882,111.684 106.5,113.5C 103.167,114.167 99.8333,114.833 96.5,115.5C 96.6198,118.205 95.6198,118.872 93.5,117.5C 90.3613,119.93 86.6947,121.097 82.5,121C 81.3279,121.419 80.3279,122.085 79.5,123C 81.338,124.84 83.338,126.507 85.5,128C 86.8333,128 88.1667,128 89.5,128C 91,130.167 92.8333,132 95,133.5C 94.3829,135.095 94.7163,136.428 96,137.5C 96.9138,136.346 97.7471,136.513 98.5,138C 101.854,138.455 105.187,138.955 108.5,139.5C 108.5,140.5 108.5,141.5 108.5,142.5C 108.318,144.591 108.652,146.591 109.5,148.5C 108.833,148.833 108.167,149.167 107.5,149.5C 105.364,148.985 103.197,148.651 101,148.5C 97.4768,149.646 93.8102,150.312 90,150.5C 88.1667,150.167 86.3333,149.833 84.5,149.5C 82.8368,146.344 81.6701,143.011 81,139.5C 80.2917,138.619 79.4584,137.953 78.5,137.5C 77.7724,134.921 77.2724,132.254 77,129.5C 76.6174,128.944 76.1174,128.611 75.5,128.5C 75.5,126.5 75.5,124.5 75.5,122.5C 84.5377,119.448 92.8711,115.115 100.5,109.5 Z"/></g>
<g><path style="opacity:1" fill="#aec3d9" d="M 163.5,127.5 C 161.5,127.5 159.5,127.5 157.5,127.5C 155.883,126.962 154.216,126.629 152.5,126.5C 151.167,125.5 149.833,124.5 148.5,123.5C 148.917,122.876 149.584,122.543 150.5,122.5C 154.013,123.932 157.68,124.765 161.5,125C 162.756,125.417 163.423,126.25 163.5,127.5 Z"/></g>
<g><path style="opacity:1" fill="#4080ba" d="M 169.5,126.5 C 171.73,127.775 173.063,129.775 173.5,132.5C 171.534,131.559 169.534,130.559 167.5,129.5C 166.702,129.957 166.369,130.624 166.5,131.5C 163.328,130.411 160.328,129.078 157.5,127.5C 159.5,127.5 161.5,127.5 163.5,127.5C 163.435,127.938 163.601,128.272 164,128.5C 165.401,126.808 167.234,126.141 169.5,126.5 Z"/></g>
<g><path style="opacity:1" fill="#58a3d7" d="M 106.5,113.5 C 107.492,113.328 108.158,113.662 108.5,114.5C 107.903,114.735 107.57,115.235 107.5,116C 108.172,119.862 109.505,123.362 111.5,126.5C 111.433,127.959 111.766,129.292 112.5,130.5C 113.825,134.809 115.158,139.143 116.5,143.5C 117.689,144.429 119.022,144.762 120.5,144.5C 120.5,144.833 120.5,145.167 120.5,145.5C 117.475,145.877 114.475,146.044 111.5,146C 112.032,143.995 111.032,142.829 108.5,142.5C 108.5,141.5 108.5,140.5 108.5,139.5C 105.187,138.955 101.854,138.455 98.5,138C 97.7471,136.513 96.9138,136.346 96,137.5C 94.7163,136.428 94.3829,135.095 95,133.5C 92.8333,132 91,130.167 89.5,128C 88.1667,128 86.8333,128 85.5,128C 83.338,126.507 81.338,124.84 79.5,123C 80.3279,122.085 81.3279,121.419 82.5,121C 86.6947,121.097 90.3613,119.93 93.5,117.5C 95.6198,118.872 96.6198,118.205 96.5,115.5C 99.8333,114.833 103.167,114.167 106.5,113.5 Z"/></g>
<g><path style="opacity:1" fill="#3f93d3" d="M 207.5,122.5 C 207.14,126.384 205.807,129.884 203.5,133C 204.399,134.236 205.566,135.07 207,135.5C 209.486,135.306 211.986,134.972 214.5,134.5C 215.938,134.719 217.271,135.219 218.5,136C 216.567,136.251 214.734,136.751 213,137.5C 211.602,136.949 210.268,136.616 209,136.5C 208.692,137.308 208.192,137.975 207.5,138.5C 202.774,135.366 200.44,136.699 200.5,142.5C 199.183,142.821 197.849,143.154 196.5,143.5C 193.963,141.733 191.297,140.233 188.5,139C 189.678,138.033 191.011,137.533 192.5,137.5C 190.647,136.24 188.814,136.24 187,137.5C 184.824,137.012 182.991,136.012 181.5,134.5C 179.604,133.534 177.604,133.201 175.5,133.5C 174.508,133.672 173.842,133.338 173.5,132.5C 173.063,129.775 171.73,127.775 169.5,126.5C 169.557,125.391 169.89,124.391 170.5,123.5C 172.467,123.739 174.301,123.406 176,122.5C 176.494,124.134 176.66,125.801 176.5,127.5C 181.201,127.352 185.868,127.685 190.5,128.5C 194.616,126.554 198.949,125.388 203.5,125C 204.893,123.829 205.727,122.329 206,120.5C 206.278,121.416 206.778,122.082 207.5,122.5 Z"/></g>
<g><path style="opacity:1" fill="#539bd2" d="M 111.5,116.5 C 113.001,117.752 114.668,118.752 116.5,119.5C 121.954,123.733 127.62,127.733 133.5,131.5C 133.606,134.108 134.772,136.108 137,137.5C 138.43,140.353 139.263,143.353 139.5,146.5C 137.097,146.552 134.764,146.219 132.5,145.5C 131.833,145.167 131.167,144.833 130.5,144.5C 130.397,141.364 129.397,138.698 127.5,136.5C 125.926,135.016 124.593,133.349 123.5,131.5C 120.459,129.638 117.792,127.305 115.5,124.5C 114.66,122.147 113.326,120.147 111.5,118.5C 111.5,117.833 111.5,117.167 111.5,116.5 Z"/></g>
<g><path style="opacity:1" fill="#b6c5d6" d="M 115.5,124.5 C 117.792,127.305 120.459,129.638 123.5,131.5C 121.46,130.481 119.46,130.481 117.5,131.5C 118.96,134.029 119.46,136.696 119,139.5C 118.667,138.833 118.333,138.167 118,137.5C 117.069,140.973 118.236,143.306 121.5,144.5C 121.167,144.5 120.833,144.5 120.5,144.5C 119.022,144.762 117.689,144.429 116.5,143.5C 115.158,139.143 113.825,134.809 112.5,130.5C 113.222,130.918 113.722,131.584 114,132.5C 114.543,129.83 114.043,127.33 112.5,125C 113.176,123.317 114.176,123.15 115.5,124.5 Z"/></g>
<g><path style="opacity:1" fill="#a2b5c8" d="M 173.5,132.5 C 173.842,133.338 174.508,133.672 175.5,133.5C 177.822,135.664 180.489,137.331 183.5,138.5C 185.629,140.95 188.296,142.617 191.5,143.5C 191.833,144.167 192.167,144.833 192.5,145.5C 183.833,140.833 175.167,136.167 166.5,131.5C 166.369,130.624 166.702,129.957 167.5,129.5C 169.534,130.559 171.534,131.559 173.5,132.5 Z"/></g>
<g><path style="opacity:1" fill="#3186cf" d="M 75.5,128.5 C 76.1174,128.611 76.6174,128.944 77,129.5C 77.2724,132.254 77.7724,134.921 78.5,137.5C 79.8027,144.921 81.4694,152.255 83.5,159.5C 81.1339,154.754 79.1339,149.754 77.5,144.5C 72.1689,143.367 66.8355,143.533 61.5,145C 63.6234,146.194 65.9568,146.86 68.5,147C 70.7843,148.363 70.951,149.863 69,151.5C 61.7639,152.027 54.4306,151.36 47,149.5C 43.9993,150.501 40.9993,151.501 38,152.5C 37.1268,152.265 36.2935,151.931 35.5,151.5C 28.7046,156.482 21.0379,159.149 12.5,159.5C 17.6702,160.238 22.8369,160.904 28,161.5C 29.7674,163.164 29.2674,164.331 26.5,165C 24.4325,165.687 22.4325,165.52 20.5,164.5C 18.3822,167.347 15.7156,168.013 12.5,166.5C 10.8192,162.08 8.15249,161.413 4.5,164.5C 3.83333,164.167 3.16667,163.833 2.5,163.5C 1.85892,164.993 0.85892,165.993 -0.5,166.5C -0.5,160.833 -0.5,155.167 -0.5,149.5C 3.86624,151.371 8.5329,152.038 13.5,151.5C 13.4392,148.95 12.1059,147.45 9.5,147C 11.3195,145.195 12.4862,143.028 13,140.5C 14.8886,141.097 16.7219,141.431 18.5,141.5C 20.7759,140.787 23.1093,140.287 25.5,140C 22.5,139.667 19.5,139.333 16.5,139C 19.9582,137.585 23.6249,137.085 27.5,137.5C 27.6509,134.282 28.4842,133.949 30,136.5C 30.5,135.333 31.3333,134.5 32.5,134C 35.43,133.394 38.2633,132.56 41,131.5C 42.4396,133.046 44.2729,133.879 46.5,134C 44.8659,134.494 43.1992,134.66 41.5,134.5C 41.5,135.5 41.5,136.5 41.5,137.5C 45.6049,137.766 49.6049,137.266 53.5,136C 52.0506,134.883 50.3839,134.216 48.5,134C 50.8333,133.667 53.1667,133.333 55.5,133C 56.9973,131.129 58.9973,130.129 61.5,130C 55.1797,129.565 55.013,128.731 61,127.5C 62.0616,128.899 63.395,129.899 65,130.5C 66.3002,129.293 67.8002,128.626 69.5,128.5C 69.3505,129.552 69.5172,130.552 70,131.5C 70.6667,130.167 71.3333,130.167 72,131.5C 72.6667,128.833 73.3333,128.833 74,131.5C 74.2321,130.263 74.7321,129.263 75.5,128.5 Z"/></g>
<g><path style="opacity:1" fill="#c7cdd5" d="M 123.5,131.5 C 124.593,133.349 125.926,135.016 127.5,136.5C 128.265,139.096 128.599,141.763 128.5,144.5C 126.167,144.5 123.833,144.5 121.5,144.5C 118.236,143.306 117.069,140.973 118,137.5C 118.333,138.167 118.667,138.833 119,139.5C 119.46,136.696 118.96,134.029 117.5,131.5C 119.46,130.481 121.46,130.481 123.5,131.5 Z"/></g>
<g><path style="opacity:1" fill="#317cc4" d="M 149.5,127.5 C 150.209,126.596 151.209,126.263 152.5,126.5C 154.216,126.629 155.883,126.962 157.5,127.5C 160.328,129.078 163.328,130.411 166.5,131.5C 175.167,136.167 183.833,140.833 192.5,145.5C 192.833,146.167 193.167,146.833 193.5,147.5C 185.941,145.151 178.274,142.984 170.5,141C 169.833,140.667 169.167,140.333 168.5,140C 169.711,139.107 169.711,138.274 168.5,137.5C 167.914,137.709 167.414,138.043 167,138.5C 161.19,134.685 155.357,131.018 149.5,127.5 Z"/></g>
<g><path style="opacity:1" fill="#2f82cf" d="M 255.5,167.5 C 255.5,170.167 255.5,172.833 255.5,175.5C 254.728,176.694 253.728,177.694 252.5,178.5C 250.087,178.341 247.587,178.341 245,178.5C 244,173.167 243,173.167 242,178.5C 240.266,177.751 238.433,177.251 236.5,177C 235.663,175.989 235.33,174.822 235.5,173.5C 229.816,173.257 224.149,172.757 218.5,172C 219.167,171.667 219.833,171.333 220.5,171C 216.511,169.669 212.511,168.335 208.5,167C 211.623,166.794 214.623,166.127 217.5,165C 217,164.833 216.5,164.667 216,164.5C 212.09,165.49 207.923,165.49 203.5,164.5C 203.649,163.448 203.483,162.448 203,161.5C 202.221,162.728 201.221,163.728 200,164.5C 196.742,164.194 193.909,163.027 191.5,161C 173.818,158 156.151,155 138.5,152C 142.356,151.823 146.023,151.323 149.5,150.5C 149.586,149.504 149.252,148.671 148.5,148C 146.19,147.503 143.857,147.337 141.5,147.5C 141.5,145.5 141.5,143.5 141.5,141.5C 144.239,141.707 146.573,142.707 148.5,144.5C 150.029,144.471 151.196,143.804 152,142.5C 153.399,143.227 154.899,143.727 156.5,144C 155.159,145.826 155.659,146.993 158,147.5C 161.368,146.902 161.868,145.735 159.5,144C 160,143.833 160.5,143.667 161,143.5C 164.057,143.543 167.224,144.21 170.5,145.5C 175.027,143.955 178.86,144.955 182,148.5C 184.835,147.539 187.668,147.706 190.5,149C 188.285,149.17 186.285,149.837 184.5,151C 185.667,151.167 186.833,151.333 188,151.5C 192.119,150.691 196.285,150.691 200.5,151.5C 202.964,151.41 205.13,150.743 207,149.5C 208.319,151.25 208.819,153.25 208.5,155.5C 212.514,155.334 216.514,155.501 220.5,156C 219.833,156.333 219.167,156.667 218.5,157C 222.584,157.231 226.584,157.898 230.5,159C 231.239,162.487 232.073,165.987 233,169.5C 237.375,167.252 242.042,165.919 247,165.5C 249.595,167.146 252.428,167.813 255.5,167.5 Z"/></g>
<g><path style="opacity:1" fill="#6e87a5" d="M 127.5,136.5 C 129.397,138.698 130.397,141.364 130.5,144.5C 127.272,145.414 123.939,145.747 120.5,145.5C 120.5,145.167 120.5,144.833 120.5,144.5C 120.833,144.5 121.167,144.5 121.5,144.5C 123.833,144.5 126.167,144.5 128.5,144.5C 128.599,141.763 128.265,139.096 127.5,136.5 Z"/></g>
<g><path style="opacity:1" fill="#3c77b0" d="M 130.5,144.5 C 131.167,144.833 131.833,145.167 132.5,145.5C 131.5,146.167 130.5,146.833 129.5,147.5C 128.167,147.5 126.833,147.5 125.5,147.5C 122.789,147.185 120.456,147.852 118.5,149.5C 118.265,148.903 117.765,148.57 117,148.5C 115.2,149.32 113.366,149.986 111.5,150.5C 111.5,149.5 111.5,148.5 111.5,147.5C 114.781,147.58 117.781,146.913 120.5,145.5C 123.939,145.747 127.272,145.414 130.5,144.5 Z"/></g>
<g><path style="opacity:1" fill="#3386ce" d="M 149.5,127.5 C 155.357,131.018 161.19,134.685 167,138.5C 167.414,138.043 167.914,137.709 168.5,137.5C 169.711,138.274 169.711,139.107 168.5,140C 169.167,140.333 169.833,140.667 170.5,141C 178.274,142.984 185.941,145.151 193.5,147.5C 195.698,147.591 196.031,146.925 194.5,145.5C 194.027,144.094 193.027,143.427 191.5,143.5C 189.371,141.05 186.704,139.383 183.5,138.5C 180.489,137.331 177.822,135.664 175.5,133.5C 177.604,133.201 179.604,133.534 181.5,134.5C 182.991,136.012 184.824,137.012 187,137.5C 188.814,136.24 190.647,136.24 192.5,137.5C 191.011,137.533 189.678,138.033 188.5,139C 191.297,140.233 193.963,141.733 196.5,143.5C 197.849,143.154 199.183,142.821 200.5,142.5C 201.695,141.137 202.695,139.471 203.5,137.5C 205.22,138.955 207.22,139.788 209.5,140C 209.167,140.333 208.833,140.667 208.5,141C 210.108,141.658 211.275,141.158 212,139.5C 212.667,140.167 213.333,140.833 214,141.5C 215.507,140.465 217.007,140.632 218.5,142C 216.833,142.333 215.167,142.667 213.5,143C 216.833,143.333 220.167,143.667 223.5,144C 224.931,144.465 226.097,145.299 227,146.5C 227.414,146.043 227.914,145.709 228.5,145.5C 233.123,147.971 238.123,149.138 243.5,149C 244.253,150.487 245.086,150.654 246,149.5C 249.049,150.61 252.216,151.277 255.5,151.5C 255.5,156.833 255.5,162.167 255.5,167.5C 252.428,167.813 249.595,167.146 247,165.5C 242.042,165.919 237.375,167.252 233,169.5C 232.073,165.987 231.239,162.487 230.5,159C 226.584,157.898 222.584,157.231 218.5,157C 219.167,156.667 219.833,156.333 220.5,156C 216.514,155.501 212.514,155.334 208.5,155.5C 208.819,153.25 208.319,151.25 207,149.5C 205.13,150.743 202.964,151.41 200.5,151.5C 196.285,150.691 192.119,150.691 188,151.5C 186.833,151.333 185.667,151.167 184.5,151C 186.285,149.837 188.285,149.17 190.5,149C 187.668,147.706 184.835,147.539 182,148.5C 178.86,144.955 175.027,143.955 170.5,145.5C 167.224,144.21 164.057,143.543 161,143.5C 160.5,143.667 160,143.833 159.5,144C 161.868,145.735 161.368,146.902 158,147.5C 155.659,146.993 155.159,145.826 156.5,144C 154.899,143.727 153.399,143.227 152,142.5C 151.196,143.804 150.029,144.471 148.5,144.5C 146.573,142.707 144.239,141.707 141.5,141.5C 141.5,143.5 141.5,145.5 141.5,147.5C 143.857,147.337 146.19,147.503 148.5,148C 149.252,148.671 149.586,149.504 149.5,150.5C 144.929,151.127 140.929,150.127 137.5,147.5C 134.833,147.5 132.167,147.5 129.5,147.5C 130.5,146.833 131.5,146.167 132.5,145.5C 134.764,146.219 137.097,146.552 139.5,146.5C 139.263,143.353 138.43,140.353 137,137.5C 134.772,136.108 133.606,134.108 133.5,131.5C 138.298,136.214 143.631,139.214 149.5,140.5C 149.347,136.299 149.347,131.966 149.5,127.5 Z"/></g>
<g><path style="opacity:1" fill="#92a3b7" d="M 192.5,145.5 C 193.167,145.5 193.833,145.5 194.5,145.5C 196.031,146.925 195.698,147.591 193.5,147.5C 193.167,146.833 192.833,146.167 192.5,145.5 Z"/></g>
<g><path style="opacity:1" fill="#2f4f71" d="M 191.5,143.5 C 193.027,143.427 194.027,144.094 194.5,145.5C 193.833,145.5 193.167,145.5 192.5,145.5C 192.167,144.833 191.833,144.167 191.5,143.5 Z"/></g>
<g><path style="opacity:1" fill="#375a7f" d="M 183.5,138.5 C 186.704,139.383 189.371,141.05 191.5,143.5C 188.296,142.617 185.629,140.95 183.5,138.5 Z"/></g>
<g><path style="opacity:1" fill="#34628f" d="M 111.5,150.5 C 109.819,152.008 107.819,153.008 105.5,153.5C 106.68,151.087 108.68,150.087 111.5,150.5 Z"/></g>
<g><path style="opacity:1" fill="#2c7dcb" d="M 137.5,147.5 C 140.929,150.127 144.929,151.127 149.5,150.5C 146.023,151.323 142.356,151.823 138.5,152C 156.151,155 173.818,158 191.5,161C 193.909,163.027 196.742,164.194 200,164.5C 201.221,163.728 202.221,162.728 203,161.5C 203.483,162.448 203.649,163.448 203.5,164.5C 207.923,165.49 212.09,165.49 216,164.5C 216.5,164.667 217,164.833 217.5,165C 214.623,166.127 211.623,166.794 208.5,167C 212.511,168.335 216.511,169.669 220.5,171C 219.833,171.333 219.167,171.667 218.5,172C 224.149,172.757 229.816,173.257 235.5,173.5C 235.33,174.822 235.663,175.989 236.5,177C 238.433,177.251 240.266,177.751 242,178.5C 243,173.167 244,173.167 245,178.5C 247.587,178.341 250.087,178.341 252.5,178.5C 251.833,179.5 251.167,180.5 250.5,181.5C 235.5,181.5 220.5,181.5 205.5,181.5C 205.013,180.527 204.513,179.527 204,178.5C 199.505,179.312 195.171,179.312 191,178.5C 190.333,177.167 189.667,175.833 189,174.5C 186.557,175.285 184.057,175.119 181.5,174C 178.458,172.757 175.625,171.257 173,169.5C 171.609,171.715 169.943,171.715 168,169.5C 167.275,170.059 166.442,170.392 165.5,170.5C 160.596,168.942 155.596,167.776 150.5,167C 149.258,163.643 148.424,163.81 148,167.5C 141.193,166.651 134.36,165.651 127.5,164.5C 125.307,164.326 123.473,164.993 122,166.5C 121.667,165.833 121.333,165.167 121,164.5C 118.209,167.593 115.043,168.093 111.5,166C 106.845,165.501 102.179,165.334 97.5,165.5C 97.5,166.5 97.5,167.5 97.5,168.5C 93.3301,168.667 89.3301,168 85.5,166.5C 85.6495,167.552 85.4828,168.552 85,169.5C 83.3066,168.816 81.8066,167.816 80.5,166.5C 79.2813,167.646 77.9479,168.646 76.5,169.5C 78.216,169.997 79.8827,170.331 81.5,170.5C 82.7112,171.274 82.7112,172.107 81.5,173C 78.1445,174.186 74.8112,174.353 71.5,173.5C 70.1667,176.167 68.8333,176.167 67.5,173.5C 66.7025,173.957 66.3691,174.624 66.5,175.5C 63.6062,175.958 61.1062,175.291 59,173.5C 57.5981,175.973 56.0981,175.973 54.5,173.5C 54.9767,172.522 55.6433,171.689 56.5,171C 61.5232,170.107 66.5232,169.107 71.5,168C 73.3333,167.5 74.5,166.333 75,164.5C 77.7114,165.926 80.2114,165.592 82.5,163.5C 83.2508,164.376 83.7508,165.376 84,166.5C 84.4643,165.906 84.631,165.239 84.5,164.5C 86.2837,165.72 87.9504,165.72 89.5,164.5C 94.1614,164.689 98.6614,164.022 103,162.5C 105.63,162.767 108.463,162.934 111.5,163C 118.632,159.85 125.632,156.517 132.5,153C 135.056,151.945 136.723,150.112 137.5,147.5 Z"/></g>
<g><path style="opacity:1" fill="#4597d5" d="M 78.5,137.5 C 79.4584,137.953 80.2917,138.619 81,139.5C 81.6701,143.011 82.8368,146.344 84.5,149.5C 86.3333,149.833 88.1667,150.167 90,150.5C 93.8102,150.312 97.4768,149.646 101,148.5C 103.197,148.651 105.364,148.985 107.5,149.5C 108.167,149.167 108.833,148.833 109.5,148.5C 108.652,146.591 108.318,144.591 108.5,142.5C 111.032,142.829 112.032,143.995 111.5,146C 114.475,146.044 117.475,145.877 120.5,145.5C 117.781,146.913 114.781,147.58 111.5,147.5C 111.5,148.5 111.5,149.5 111.5,150.5C 108.68,150.087 106.68,151.087 105.5,153.5C 102.368,153.784 99.3682,154.617 96.5,156C 94.9443,156.72 93.9443,157.887 93.5,159.5C 90.0749,160.212 86.7415,160.212 83.5,159.5C 81.4694,152.255 79.8027,144.921 78.5,137.5 Z"/></g>
<g><path style="opacity:1" fill="#9aa5b4" d="M 118.5,149.5 C 113.016,151.407 108.016,154.073 103.5,157.5C 98.5968,158.952 93.9301,160.952 89.5,163.5C 88.5768,164.303 87.5768,164.47 86.5,164C 88.8981,162.476 91.2314,160.976 93.5,159.5C 97.8178,158.008 101.818,156.008 105.5,153.5C 107.819,153.008 109.819,152.008 111.5,150.5C 113.366,149.986 115.2,149.32 117,148.5C 117.765,148.57 118.265,148.903 118.5,149.5 Z"/></g>
<g><path style="opacity:1" fill="#253d71" d="M 125.5,147.5 C 125.918,148.222 126.584,148.722 127.5,149C 124.086,149.297 120.753,149.964 117.5,151C 113.202,153.982 108.536,156.149 103.5,157.5C 108.016,154.073 113.016,151.407 118.5,149.5C 120.456,147.852 122.789,147.185 125.5,147.5 Z"/></g>
<g><path style="opacity:0.996" fill="#2e80cd" d="M 83.5,159.5 C 83.6287,161.216 83.962,162.883 84.5,164.5C 84.631,165.239 84.4643,165.906 84,166.5C 83.7508,165.376 83.2508,164.376 82.5,163.5C 80.2114,165.592 77.7114,165.926 75,164.5C 74.5,166.333 73.3333,167.5 71.5,168C 66.5232,169.107 61.5232,170.107 56.5,171C 55.6433,171.689 54.9767,172.522 54.5,173.5C 56.0981,175.973 57.5981,175.973 59,173.5C 61.1062,175.291 63.6062,175.958 66.5,175.5C 67.4734,175.987 68.4734,176.487 69.5,177C 66.3205,177.553 63.4872,178.719 61,180.5C 59.3066,179.816 57.8066,178.816 56.5,177.5C 54.9291,178.309 53.2624,178.643 51.5,178.5C 51.5,177.167 51.5,175.833 51.5,174.5C 49.8333,174.5 48.1667,174.5 46.5,174.5C 46.6567,175.873 46.49,177.207 46,178.5C 43.1507,176.031 40.484,176.364 38,179.5C 36,178.167 34,178.167 32,179.5C 31.2828,180.044 30.7828,180.711 30.5,181.5C 22.1667,181.5 13.8333,181.5 5.5,181.5C 3.52483,179.863 1.52483,178.196 -0.5,176.5C -0.5,173.167 -0.5,169.833 -0.5,166.5C 0.85892,165.993 1.85892,164.993 2.5,163.5C 3.16667,163.833 3.83333,164.167 4.5,164.5C 8.15249,161.413 10.8192,162.08 12.5,166.5C 15.7156,168.013 18.3822,167.347 20.5,164.5C 22.4325,165.52 24.4325,165.687 26.5,165C 29.2674,164.331 29.7674,163.164 28,161.5C 22.8369,160.904 17.6702,160.238 12.5,159.5C 21.0379,159.149 28.7046,156.482 35.5,151.5C 36.2935,151.931 37.1268,152.265 38,152.5C 40.9993,151.501 43.9993,150.501 47,149.5C 54.4306,151.36 61.7639,152.027 69,151.5C 70.951,149.863 70.7843,148.363 68.5,147C 65.9568,146.86 63.6234,146.194 61.5,145C 66.8355,143.533 72.1689,143.367 77.5,144.5C 79.1339,149.754 81.1339,154.754 83.5,159.5 Z"/></g>
<g><path style="opacity:1" fill="#33679b" d="M 105.5,153.5 C 101.818,156.008 97.8178,158.008 93.5,159.5C 93.9443,157.887 94.9443,156.72 96.5,156C 99.3682,154.617 102.368,153.784 105.5,153.5 Z"/></g>
<g><path style="opacity:1" fill="#326fbb" d="M 125.5,147.5 C 126.833,147.5 128.167,147.5 129.5,147.5C 132.167,147.5 134.833,147.5 137.5,147.5C 136.723,150.112 135.056,151.945 132.5,153C 125.632,156.517 118.632,159.85 111.5,163C 108.463,162.934 105.63,162.767 103,162.5C 98.6614,164.022 94.1614,164.689 89.5,164.5C 89.5,164.167 89.5,163.833 89.5,163.5C 93.9301,160.952 98.5968,158.952 103.5,157.5C 108.536,156.149 113.202,153.982 117.5,151C 120.753,149.964 124.086,149.297 127.5,149C 126.584,148.722 125.918,148.222 125.5,147.5 Z"/></g>
<g><path style="opacity:1" fill="#3976b1" d="M 83.5,159.5 C 86.7415,160.212 90.0749,160.212 93.5,159.5C 91.2314,160.976 88.8981,162.476 86.5,164C 87.5768,164.47 88.5768,164.303 89.5,163.5C 89.5,163.833 89.5,164.167 89.5,164.5C 87.9504,165.72 86.2837,165.72 84.5,164.5C 83.962,162.883 83.6287,161.216 83.5,159.5 Z"/></g>
<g><path style="opacity:1" fill="#2a7aca" d="M 205.5,181.5 C 147.167,181.5 88.8333,181.5 30.5,181.5C 30.7828,180.711 31.2828,180.044 32,179.5C 34,178.167 36,178.167 38,179.5C 40.484,176.364 43.1507,176.031 46,178.5C 46.49,177.207 46.6567,175.873 46.5,174.5C 48.1667,174.5 49.8333,174.5 51.5,174.5C 51.5,175.833 51.5,177.167 51.5,178.5C 53.2624,178.643 54.9291,178.309 56.5,177.5C 57.8066,178.816 59.3066,179.816 61,180.5C 63.4872,178.719 66.3205,177.553 69.5,177C 68.4734,176.487 67.4734,175.987 66.5,175.5C 66.3691,174.624 66.7025,173.957 67.5,173.5C 68.8333,176.167 70.1667,176.167 71.5,173.5C 74.8112,174.353 78.1445,174.186 81.5,173C 82.7112,172.107 82.7112,171.274 81.5,170.5C 79.8827,170.331 78.216,169.997 76.5,169.5C 77.9479,168.646 79.2813,167.646 80.5,166.5C 81.8066,167.816 83.3066,168.816 85,169.5C 85.4828,168.552 85.6495,167.552 85.5,166.5C 89.3301,168 93.3301,168.667 97.5,168.5C 97.5,167.5 97.5,166.5 97.5,165.5C 102.179,165.334 106.845,165.501 111.5,166C 115.043,168.093 118.209,167.593 121,164.5C 121.333,165.167 121.667,165.833 122,166.5C 123.473,164.993 125.307,164.326 127.5,164.5C 134.36,165.651 141.193,166.651 148,167.5C 148.424,163.81 149.258,163.643 150.5,167C 155.596,167.776 160.596,168.942 165.5,170.5C 166.442,170.392 167.275,170.059 168,169.5C 169.943,171.715 171.609,171.715 173,169.5C 175.625,171.257 178.458,172.757 181.5,174C 184.057,175.119 186.557,175.285 189,174.5C 189.667,175.833 190.333,177.167 191,178.5C 195.171,179.312 199.505,179.312 204,178.5C 204.513,179.527 205.013,180.527 205.5,181.5 Z"/></g>
</svg>
