<?xml version="1.0" encoding="UTF-8"?>
<!DOCTYPE svg PUBLIC "-//W3C//DTD SVG 1.1//EN" "http://www.w3.org/Graphics/SVG/1.1/DTD/svg11.dtd">
<svg xmlns="http://www.w3.org/2000/svg" version="1.1" width="256px" height="182px" style="shape-rendering:geometricPrecision; text-rendering:geometricPrecision; image-rendering:optimizeQuality; fill-rule:evenodd; clip-rule:evenodd" xmlns:xlink="http://www.w3.org/1999/xlink">
<g><path style="opacity:1" fill="#010102" d="M 4.5,-0.5 C 74.1667,-0.5 143.833,-0.5 213.5,-0.5C 213.675,1.6208 213.341,3.6208 212.5,5.5C 211.5,5.5 210.5,5.5 209.5,5.5C 209.5,7.5 209.5,9.5 209.5,11.5C 209.5,13.8333 209.5,16.1667 209.5,18.5C 209.201,20.604 209.534,22.604 210.5,24.5C 211.107,24.3764 211.44,24.0431 211.5,23.5C 211.5,21.8333 211.5,20.1667 211.5,18.5C 213.167,18.5 214.833,18.5 216.5,18.5C 216.5,20.5 216.5,22.5 216.5,24.5C 215.5,24.5 214.5,24.5 213.5,24.5C 213.5,26.8333 213.5,29.1667 213.5,31.5C 212.508,31.3284 211.842,31.6618 211.5,32.5C 209.756,38.9993 209.089,45.666 209.5,52.5C 210.833,52.5 212.167,52.5 213.5,52.5C 214.5,52.5 215.5,52.5 216.5,52.5C 216.5,53.5 216.5,54.5 216.5,55.5C 216.5,56.8333 216.5,58.1667 216.5,59.5C 214.833,59.5 213.167,59.5 211.5,59.5C 209.537,66.4238 208.87,73.7572 209.5,81.5C 209.5,83.8333 209.5,86.1667 209.5,88.5C 208.505,99.988 208.172,111.655 208.5,123.5C 203.786,123.827 199.12,123.493 194.5,122.5C 194.291,121.914 193.957,121.414 193.5,121C 192,120.833 190.5,120.667 189,120.5C 185.551,121.599 182.051,121.599 178.5,120.5C 176.059,120.536 174.059,121.369 172.5,123C 167.316,123.174 162.316,123.674 157.5,124.5C 155.176,125.656 152.843,126.656 150.5,127.5C 146.154,127.666 141.821,127.499 137.5,127C 142.237,126.063 146.904,124.896 151.5,123.5C 150.975,122.808 150.308,122.308 149.5,122C 143.057,121.231 136.723,121.731 130.5,123.5C 130.5,122.167 130.5,120.833 130.5,119.5C 134.821,109.521 139.154,99.5215 143.5,89.5C 142.635,88.4173 141.635,88.2506 140.5,89C 136.656,91.422 132.99,94.0887 129.5,97C 128.207,97.49 126.873,97.6567 125.5,97.5C 122.264,94.2029 118.597,91.3696 114.5,89C 113.365,88.2506 112.365,88.4173 111.5,89.5C 115.713,97.927 119.38,106.594 122.5,115.5C 122.33,116.822 122.663,117.989 123.5,119C 121.5,119.167 119.5,119.333 117.5,119.5C 99.7862,118.415 82.1196,118.415 64.5,119.5C 64.5105,118.559 64.0105,117.892 63,117.5C 57.5566,118.618 52.0566,119.285 46.5,119.5C 46.8016,116.941 46.4682,114.607 45.5,112.5C 45.5,109.5 45.5,106.5 45.5,103.5C 45.5,101.833 45.5,100.167 45.5,98.5C 46.1943,89.113 46.5277,79.7796 46.5,70.5C 41.8089,71.7848 41.4755,71.1182 45.5,68.5C 45.5,61.8333 45.5,55.1667 45.5,48.5C 43.7354,47.5386 41.7354,47.2053 39.5,47.5C 40.6429,43.2559 41.3096,38.9225 41.5,34.5C 46.8333,34.1667 46.8333,33.8333 41.5,33.5C 41.5,31.1667 41.5,28.8333 41.5,26.5C 42.8333,26.8333 44.1667,27.1667 45.5,27.5C 46.6517,22.0154 46.8184,16.3487 46,10.5C 45.7978,8.7444 45.2978,7.07774 44.5,5.5C 43.6143,6.32496 43.281,7.32496 43.5,8.5C 41.8333,8.5 40.1667,8.5 38.5,8.5C 38.5,6.83333 38.5,5.16667 38.5,3.5C 35.3902,2.07475 33.7235,3.24142 33.5,7C 33.9459,10.1751 34.4459,13.3418 35,16.5C 36.1127,17.305 37.2794,17.9717 38.5,18.5C 39.2653,21.0961 39.5987,23.7628 39.5,26.5C 38.5,26.5 37.5,26.5 36.5,26.5C 32.5541,26.5123 30.8874,24.5123 31.5,20.5C 30.1266,20.3433 28.7932,20.51 27.5,21C 29.6044,22.8356 29.9377,25.0023 28.5,27.5C 26.8849,28.154 25.2182,28.654 23.5,29C 25.7253,31.025 26.0586,33.3583 24.5,36C 26.3444,38.8037 27.0111,41.9703 26.5,45.5C 28.4023,42.6627 29.069,39.3293 28.5,35.5C 29.5,35.5 30.5,35.5 31.5,35.5C 31.1617,39.1507 32.8284,40.8174 36.5,40.5C 36.5,42.5 36.5,44.5 36.5,46.5C 36.5,47.5 36.5,48.5 36.5,49.5C 34.8333,49.5 33.1667,49.5 31.5,49.5C 30.8501,49.1961 30.1835,48.8627 29.5,48.5C 29.1667,49.8333 28.8333,51.1667 28.5,52.5C 28.5854,54.3328 29.2521,55.6661 30.5,56.5C 30.5,57.8333 29.8333,58.5 28.5,58.5C 26.8333,58.5 25.1667,58.5 23.5,58.5C 22.9965,54.6646 21.9965,54.6646 20.5,58.5C 19.2121,60.2985 19.2121,61.9652 20.5,63.5C 20.5,64.5 20.5,65.5 20.5,66.5C 20.5,67.1667 20.1667,67.5 19.5,67.5C 18.5,67.5 17.5,67.5 16.5,67.5C 16.8432,69.4832 16.1765,70.8166 14.5,71.5C 14.6309,70.6236 14.2975,69.9569 13.5,69.5C 12.5258,71.7427 12.1924,74.076 12.5,76.5C 10.8333,76.5 9.16667,76.5 7.5,76.5C 6.68618,74.369 6.18618,72.0356 6,69.5C 5.56263,73.4165 4.7293,77.2498 3.5,81C 3.66667,82.1667 3.83333,83.3333 4,84.5C 5.80195,77.9638 6.80195,78.2972 7,85.5C 7.49665,83.1902 7.66331,80.8568 7.5,78.5C 8.83333,78.5 10.1667,78.5 11.5,78.5C 13.3079,79.9179 13.9746,81.9179 13.5,84.5C 12.454,91.8878 12.454,93.2211 13.5,88.5C 15.5,88.5 17.5,88.5 19.5,88.5C 20.5676,89.4345 21.901,89.7678 23.5,89.5C 23.5,91.1667 23.5,92.8333 23.5,94.5C 24.209,95.404 25.209,95.7373 26.5,95.5C 26.5,97.1667 26.5,98.8333 26.5,100.5C 23.7387,101.92 20.7387,102.587 17.5,102.5C 17.5,100.833 17.5,99.1667 17.5,97.5C 14.8333,97.5 12.1667,97.5 9.5,97.5C 8.49297,99.3609 8.15963,102.028 8.5,105.5C 7.44787,107.256 5.78121,107.923 3.5,107.5C 3.26417,104.086 2.5975,100.753 1.5,97.5C 0.818153,98.2427 0.151487,98.9094 -0.5,99.5C -0.5,87.8333 -0.5,76.1667 -0.5,64.5C 1.83333,64.5 4.16667,64.5 6.5,64.5C 6.5,61.8333 6.5,59.1667 6.5,56.5C 4.16667,56.5 1.83333,56.5 -0.5,56.5C -0.5,39.5 -0.5,22.5 -0.5,5.5C 1.13696,3.52483 2.80363,1.52483 4.5,-0.5 Z"/></g>
<g><path style="opacity:1" fill="#34384d" d="M 219.5,-0.5 C 220.833,-0.5 222.167,-0.5 223.5,-0.5C 223.785,1.28801 223.452,2.95467 222.5,4.5C 221.473,5.79141 220.473,5.79141 219.5,4.5C 219.5,2.83333 219.5,1.16667 219.5,-0.5 Z"/></g>
<g><path style="opacity:1" fill="#4f5786" d="M 19.5,0.5 C 22.1667,0.5 24.8333,0.5 27.5,0.5C 27.5,2.16667 27.5,3.83333 27.5,5.5C 24.9512,5.38742 22.6179,6.05408 20.5,7.5C 19.5258,5.25731 19.1924,2.92397 19.5,0.5 Z"/></g>
<g><path style="opacity:1" fill="#363b6a" d="M 213.5,-0.5 C 215.5,-0.5 217.5,-0.5 219.5,-0.5C 219.5,1.16667 219.5,2.83333 219.5,4.5C 218.391,4.55688 217.391,4.89022 216.5,5.5C 215.167,5.5 213.833,5.5 212.5,5.5C 213.341,3.6208 213.675,1.6208 213.5,-0.5 Z"/></g>
<g><path style="opacity:1" fill="#1e2031" d="M 5.5,1.5 C 6.7479,2.3339 7.41456,3.66723 7.5,5.5C 7.16667,6.83333 6.83333,8.16667 6.5,9.5C 5.51998,6.91355 5.18665,4.24688 5.5,1.5 Z"/></g>
<g><path style="opacity:1" fill="#2d3154" d="M 38.5,3.5 C 37.8529,4.27388 37.5195,5.27388 37.5,6.5C 37.6399,8.02959 38.3065,9.02959 39.5,9.5C 38.6569,11.8445 38.9902,14.1779 40.5,16.5C 40.7674,18.9761 40.1007,19.6428 38.5,18.5C 37.2794,17.9717 36.1127,17.305 35,16.5C 34.4459,13.3418 33.9459,10.1751 33.5,7C 33.7235,3.24142 35.3902,2.07475 38.5,3.5 Z"/></g>
<g><path style="opacity:1" fill="#535885" d="M 212.5,5.5 C 213.833,5.5 215.167,5.5 216.5,5.5C 215.124,8.65796 214.458,11.9913 214.5,15.5C 215.5,15.5 216.5,15.5 217.5,15.5C 217.351,14.448 217.517,13.448 218,12.5C 218.494,14.1341 218.66,15.8008 218.5,17.5C 217.833,17.8333 217.167,18.1667 216.5,18.5C 215.791,17.596 214.791,17.2627 213.5,17.5C 213.808,15.076 213.474,12.7427 212.5,10.5C 211.583,11.1272 210.583,11.4606 209.5,11.5C 209.5,9.5 209.5,7.5 209.5,5.5C 210.5,5.5 211.5,5.5 212.5,5.5 Z"/></g>
<g><path style="opacity:1" fill="#0f101b" d="M 38.5,3.5 C 38.5,5.16667 38.5,6.83333 38.5,8.5C 40.1667,8.5 41.8333,8.5 43.5,8.5C 43.281,7.32496 43.6143,6.32496 44.5,5.5C 45.2978,7.07774 45.7978,8.7444 46,10.5C 46.8184,16.3487 46.6517,22.0154 45.5,27.5C 46.0894,23.0293 45.4228,19.0293 43.5,15.5C 42.6981,14.0484 42.1981,12.3817 42,10.5C 41.3292,9.74756 40.4959,9.41423 39.5,9.5C 38.3065,9.02959 37.6399,8.02959 37.5,6.5C 37.5195,5.27388 37.8529,4.27388 38.5,3.5 Z"/></g>
<g><path style="opacity:1" fill="#202442" d="M 216.5,18.5 C 214.833,18.5 213.167,18.5 211.5,18.5C 211.5,20.1667 211.5,21.8333 211.5,23.5C 210.833,21.8333 210.167,20.1667 209.5,18.5C 209.5,16.1667 209.5,13.8333 209.5,11.5C 210.583,11.4606 211.583,11.1272 212.5,10.5C 213.474,12.7427 213.808,15.076 213.5,17.5C 214.791,17.2627 215.791,17.596 216.5,18.5 Z"/></g>
<g><path style="opacity:1" fill="#282933" d="M 13.5,10.5 C 14.7251,11.1522 15.3917,12.3189 15.5,14C 15.1667,15.1667 14.8333,16.3333 14.5,17.5C 13.5258,15.2573 13.1924,12.924 13.5,10.5 Z"/></g>
<g><path style="opacity:1" fill="#898baa" d="M 209.5,18.5 C 210.167,20.1667 210.833,21.8333 211.5,23.5C 211.44,24.0431 211.107,24.3764 210.5,24.5C 209.534,22.604 209.201,20.604 209.5,18.5 Z"/></g>
<g><path style="opacity:1" fill="#5e669c" d="M 43.5,15.5 C 45.4228,19.0293 46.0894,23.0293 45.5,27.5C 44.1667,27.1667 42.8333,26.8333 41.5,26.5C 40.8529,25.7261 40.5195,24.7261 40.5,23.5C 42.4129,21.2272 43.4129,18.5605 43.5,15.5 Z"/></g>
<g><path style="opacity:1" fill="#323660" d="M 218.5,17.5 C 219.43,21.3998 219.763,25.3998 219.5,29.5C 218.5,29.5 217.5,29.5 216.5,29.5C 215.883,29.3893 215.383,29.056 215,28.5C 214.768,29.7375 214.268,30.7375 213.5,31.5C 213.5,29.1667 213.5,26.8333 213.5,24.5C 214.5,24.5 215.5,24.5 216.5,24.5C 216.5,22.5 216.5,20.5 216.5,18.5C 217.167,18.1667 217.833,17.8333 218.5,17.5 Z"/></g>
<g><path style="opacity:1" fill="#171925" d="M 36.5,26.5 C 35.6993,28.0418 35.366,29.7085 35.5,31.5C 36.791,31.2627 37.791,31.596 38.5,32.5C 38.7947,34.7354 38.4614,36.7354 37.5,38.5C 37.8064,41.3854 37.4731,44.0521 36.5,46.5C 36.5,44.5 36.5,42.5 36.5,40.5C 32.8284,40.8174 31.1617,39.1507 31.5,35.5C 30.5,35.5 29.5,35.5 28.5,35.5C 29.069,39.3293 28.4023,42.6627 26.5,45.5C 27.0111,41.9703 26.3444,38.8037 24.5,36C 26.0586,33.3583 25.7253,31.025 23.5,29C 25.2182,28.654 26.8849,28.154 28.5,27.5C 29.9377,25.0023 29.6044,22.8356 27.5,21C 28.7932,20.51 30.1266,20.3433 31.5,20.5C 30.8874,24.5123 32.5541,26.5123 36.5,26.5 Z"/></g>
<g><path style="opacity:1" fill="#2b2c3b" d="M 9.5,22.5 C 10.5507,26.0164 11.5507,29.6831 12.5,33.5C 12.3333,34.8333 12.1667,36.1667 12,37.5C 10.1067,32.6918 9.27337,27.6918 9.5,22.5 Z"/></g>
<g><path style="opacity:1" fill="#363b67" d="M 39.5,9.5 C 40.4959,9.41423 41.3292,9.74756 42,10.5C 42.1981,12.3817 42.6981,14.0484 43.5,15.5C 43.4129,18.5605 42.4129,21.2272 40.5,23.5C 40.5195,24.7261 40.8529,25.7261 41.5,26.5C 41.5,28.8333 41.5,31.1667 41.5,33.5C 46.8333,33.8333 46.8333,34.1667 41.5,34.5C 41.3096,38.9225 40.6429,43.2559 39.5,47.5C 41.7354,47.2053 43.7354,47.5386 45.5,48.5C 45.1667,48.5 44.8333,48.5 44.5,48.5C 42.5,48.5 40.5,48.5 38.5,48.5C 39.0596,42.9821 39.0596,37.6487 38.5,32.5C 37.791,31.596 36.791,31.2627 35.5,31.5C 35.366,29.7085 35.6993,28.0418 36.5,26.5C 37.5,26.5 38.5,26.5 39.5,26.5C 39.5987,23.7628 39.2653,21.0961 38.5,18.5C 40.1007,19.6428 40.7674,18.9761 40.5,16.5C 38.9902,14.1779 38.6569,11.8445 39.5,9.5 Z"/></g>
<g><path style="opacity:1" fill="#010104" d="M 37.5,38.5 C 35.8333,38.5 34.1667,38.5 32.5,38.5C 32.5,36.5 32.5,34.5 32.5,32.5C 34.1667,32.5 35.8333,32.5 37.5,32.5C 37.5,34.5 37.5,36.5 37.5,38.5 Z"/></g>
<g><path style="opacity:1" fill="#6269a2" d="M 211.5,32.5 C 212.309,34.2922 212.809,36.2922 213,38.5C 213.333,37.1667 213.667,35.8333 214,34.5C 214.788,40.582 214.621,46.582 213.5,52.5C 212.167,52.5 210.833,52.5 209.5,52.5C 209.089,45.666 209.756,38.9993 211.5,32.5 Z"/></g>
<g><path style="opacity:1" fill="#696d86" d="M 224.5,38.5 C 224.721,41.2788 224.388,43.9455 223.5,46.5C 222.844,45.3784 222.511,44.0451 222.5,42.5C 222.585,40.6672 223.252,39.3339 224.5,38.5 Z"/></g>
<g><path style="opacity:1" fill="#676a90" d="M 219.5,44.5 C 219.816,48.5246 219.983,52.5246 220,56.5C 219.617,55.944 219.117,55.6107 218.5,55.5C 218.086,53.1917 217.753,50.8583 217.5,48.5C 217.585,46.6672 218.252,45.3339 219.5,44.5 Z"/></g>
<g><path style="opacity:1" fill="#17191e" d="M 17.5,37.5 C 19.3079,38.9179 19.9746,40.9179 19.5,43.5C 23.1716,44.0447 22.8383,44.3781 18.5,44.5C 18.2317,47.1194 18.565,49.6194 19.5,52C 18.552,52.4828 17.552,52.6495 16.5,52.5C 16.5,53.8333 16.5,55.1667 16.5,56.5C 10.8341,54.7945 9.16746,51.1278 11.5,45.5C 12.9501,46.8498 13.6168,48.5165 13.5,50.5C 14.8333,50.5 16.1667,50.5 17.5,50.5C 17.5,46.1667 17.5,41.8333 17.5,37.5 Z"/></g>
<g><path style="opacity:1" fill="#5c5e69" d="M 26.5,45.5 C 26.0133,46.4734 25.5133,47.4734 25,48.5C 24.2748,46.8425 24.7748,45.8425 26.5,45.5 Z"/></g>
<g><path style="opacity:1" fill="#393d70" d="M 216.5,29.5 C 216.058,33.1545 215.724,36.8212 215.5,40.5C 216.568,41.4345 217.901,41.7678 219.5,41.5C 219.5,42.5 219.5,43.5 219.5,44.5C 218.252,45.3339 217.585,46.6672 217.5,48.5C 217.753,50.8583 218.086,53.1917 218.5,55.5C 218.167,55.5 217.833,55.5 217.5,55.5C 217.167,55.5 216.833,55.5 216.5,55.5C 216.5,54.5 216.5,53.5 216.5,52.5C 215.5,52.5 214.5,52.5 213.5,52.5C 214.621,46.582 214.788,40.582 214,34.5C 213.667,35.8333 213.333,37.1667 213,38.5C 212.809,36.2922 212.309,34.2922 211.5,32.5C 211.842,31.6618 212.508,31.3284 213.5,31.5C 214.268,30.7375 214.768,29.7375 215,28.5C 215.383,29.056 215.883,29.3893 216.5,29.5 Z"/></g>
<g><path style="opacity:1" fill="#4a5186" d="M 38.5,32.5 C 39.0596,37.6487 39.0596,42.9821 38.5,48.5C 40.5,48.5 42.5,48.5 44.5,48.5C 44.9758,52.3891 43.9758,55.7225 41.5,58.5C 40.8333,58.5 40.1667,58.5 39.5,58.5C 38.0652,55.9717 37.0652,53.305 36.5,50.5C 36.5,50.1667 36.5,49.8333 36.5,49.5C 36.5,48.5 36.5,47.5 36.5,46.5C 37.4731,44.0521 37.8064,41.3854 37.5,38.5C 38.4614,36.7354 38.7947,34.7354 38.5,32.5 Z"/></g>
<g><path style="opacity:1" fill="#313047" d="M 31.5,49.5 C 30.6314,51.717 30.298,54.0504 30.5,56.5C 29.2521,55.6661 28.5854,54.3328 28.5,52.5C 28.8333,51.1667 29.1667,49.8333 29.5,48.5C 30.1835,48.8627 30.8501,49.1961 31.5,49.5 Z"/></g>
<g><path style="opacity:1" fill="#0c0f1b" d="M 31.5,49.5 C 33.1667,49.5 34.8333,49.5 36.5,49.5C 36.5,49.8333 36.5,50.1667 36.5,50.5C 35.1301,50.8565 34.1301,51.6898 33.5,53C 34.8333,56 34.8333,59 33.5,62C 34.0556,63.0111 34.7222,63.8444 35.5,64.5C 33.9032,65.7373 32.7365,67.404 32,69.5C 31.5172,68.552 31.3505,67.552 31.5,66.5C 29.8333,66.5 28.1667,66.5 26.5,66.5C 27.6736,70.8474 27.6736,75.1808 26.5,79.5C 25.1667,79.5 24.5,78.8333 24.5,77.5C 24.244,73.7307 24.5773,70.0641 25.5,66.5C 25.8212,64.9519 26.8212,64.2852 28.5,64.5C 28.5,62.8333 28.5,61.1667 28.5,59.5C 28.5,59.1667 28.5,58.8333 28.5,58.5C 29.8333,58.5 30.5,57.8333 30.5,56.5C 30.298,54.0504 30.6314,51.717 31.5,49.5 Z"/></g>
<g><path style="opacity:1" fill="#1b2448" d="M -0.5,56.5 C 1.83333,56.5 4.16667,56.5 6.5,56.5C 6.5,59.1667 6.5,61.8333 6.5,64.5C 4.16667,64.5 1.83333,64.5 -0.5,64.5C -0.5,61.8333 -0.5,59.1667 -0.5,56.5 Z"/></g>
<g><path style="opacity:1" fill="#2d3043" d="M 28.5,58.5 C 28.5,58.8333 28.5,59.1667 28.5,59.5C 25.8333,59.5 23.1667,59.5 20.5,59.5C 20.5,60.8333 20.5,62.1667 20.5,63.5C 19.2121,61.9652 19.2121,60.2985 20.5,58.5C 21.9965,54.6646 22.9965,54.6646 23.5,58.5C 25.1667,58.5 26.8333,58.5 28.5,58.5 Z"/></g>
<g><path style="opacity:1" fill="#191d3b" d="M 36.5,50.5 C 37.0652,53.305 38.0652,55.9717 39.5,58.5C 38.5,58.5 37.5,58.5 36.5,58.5C 36.5,60.1667 36.5,61.8333 36.5,63.5C 37.675,63.281 38.675,63.6143 39.5,64.5C 39.1667,64.8333 38.8333,65.1667 38.5,65.5C 37.5832,64.8728 36.5832,64.5394 35.5,64.5C 34.7222,63.8444 34.0556,63.0111 33.5,62C 34.8333,59 34.8333,56 33.5,53C 34.1301,51.6898 35.1301,50.8565 36.5,50.5 Z"/></g>
<g><path style="opacity:1" fill="#464b7d" d="M 211.5,59.5 C 213.167,59.5 214.833,59.5 216.5,59.5C 216.5,60.5 216.5,61.5 216.5,62.5C 214.833,62.5 213.167,62.5 211.5,62.5C 212.833,61.5 212.833,60.5 211.5,59.5 Z"/></g>
<g><path style="opacity:1" fill="#141420" d="M 224.5,38.5 C 223.252,39.3339 222.585,40.6672 222.5,42.5C 222.511,44.0451 222.844,45.3784 223.5,46.5C 223.389,47.1174 223.056,47.6174 222.5,48C 223.303,53.1129 223.969,58.2795 224.5,63.5C 226.109,63.0941 227.443,63.0941 228.5,63.5C 226.488,65.3414 224.155,66.3414 221.5,66.5C 221.785,64.712 221.452,63.0453 220.5,61.5C 219.83,63.2914 219.163,64.9581 218.5,66.5C 217.886,62.8648 217.552,59.1981 217.5,55.5C 217.833,55.5 218.167,55.5 218.5,55.5C 219.117,55.6107 219.617,55.944 220,56.5C 219.983,52.5246 219.816,48.5246 219.5,44.5C 219.5,43.5 219.5,42.5 219.5,41.5C 217.901,41.7678 216.568,41.4345 215.5,40.5C 216.833,40.5 218.167,40.5 219.5,40.5C 219.284,38.3193 220.117,36.6526 222,35.5C 223.098,36.9675 224.598,37.8008 226.5,38C 225.906,38.4643 225.239,38.631 224.5,38.5 Z"/></g>
<g><path style="opacity:1" fill="#6e77ad" d="M 28.5,59.5 C 28.5,61.1667 28.5,62.8333 28.5,64.5C 26.8212,64.2852 25.8212,64.9519 25.5,66.5C 23.8333,66.5 22.1667,66.5 20.5,66.5C 20.5,65.5 20.5,64.5 20.5,63.5C 20.5,62.1667 20.5,60.8333 20.5,59.5C 23.1667,59.5 25.8333,59.5 28.5,59.5 Z"/></g>
<g><path style="opacity:1" fill="#1b2142" d="M 126.5,57.5 C 126.513,63.7611 125.513,69.7611 123.5,75.5C 124.32,77.1112 125.654,77.7778 127.5,77.5C 127.5,79.1667 127.5,80.8333 127.5,82.5C 127.5,85.1667 127.5,87.8333 127.5,90.5C 127.167,90.5 126.833,90.5 126.5,90.5C 126.605,86.4517 126.272,82.4517 125.5,78.5C 123.801,78.3398 122.134,78.5065 120.5,79C 117.279,80.104 114.612,81.9374 112.5,84.5C 111.341,81.7473 111.841,79.0806 114,76.5C 117.693,69.7589 121.86,63.4256 126.5,57.5 Z"/></g>
<g><path style="opacity:1" fill="#716f8c" d="M 216.5,55.5 C 216.833,55.5 217.167,55.5 217.5,55.5C 217.552,59.1981 217.886,62.8648 218.5,66.5C 217.612,69.0545 217.279,71.7212 217.5,74.5C 216.549,73.0813 216.216,71.4147 216.5,69.5C 216.5,67.1667 216.5,64.8333 216.5,62.5C 216.5,61.5 216.5,60.5 216.5,59.5C 216.5,58.1667 216.5,56.8333 216.5,55.5 Z"/></g>
<g><path style="opacity:1" fill="#656d9f" d="M 44.5,48.5 C 44.8333,48.5 45.1667,48.5 45.5,48.5C 45.5,55.1667 45.5,61.8333 45.5,68.5C 44.8333,68.5 44.1667,68.5 43.5,68.5C 43.8128,64.9581 43.4794,61.6248 42.5,58.5C 42.1667,58.5 41.8333,58.5 41.5,58.5C 43.9758,55.7225 44.9758,52.3891 44.5,48.5 Z"/></g>
<g><path style="opacity:1" fill="#090915" d="M 211.5,62.5 C 213.167,62.5 214.833,62.5 216.5,62.5C 216.5,64.8333 216.5,67.1667 216.5,69.5C 215.833,69.5 215.167,69.5 214.5,69.5C 213.5,69.5 212.5,69.5 211.5,69.5C 211.5,67.1667 211.5,64.8333 211.5,62.5 Z"/></g>
<g><path style="opacity:1" fill="#7378a1" d="M 211.5,59.5 C 212.833,60.5 212.833,61.5 211.5,62.5C 211.5,64.8333 211.5,67.1667 211.5,69.5C 212.5,69.5 213.5,69.5 214.5,69.5C 214.5,70.1667 214.5,70.8333 214.5,71.5C 213.5,71.5 212.5,71.5 211.5,71.5C 210.833,74.8333 210.167,78.1667 209.5,81.5C 208.87,73.7572 209.537,66.4238 211.5,59.5 Z"/></g>
<g><path style="opacity:1" fill="#333649" d="M 20.5,66.5 C 22.1667,66.5 23.8333,66.5 25.5,66.5C 24.5773,70.0641 24.244,73.7307 24.5,77.5C 22.4091,78.8654 20.0758,79.5321 17.5,79.5C 18.5676,78.5655 19.901,78.2322 21.5,78.5C 22.1587,75.5448 22.4921,72.5448 22.5,69.5C 21.1266,69.6567 19.7932,69.49 18.5,69C 19.056,68.6174 19.3893,68.1174 19.5,67.5C 20.1667,67.5 20.5,67.1667 20.5,66.5 Z"/></g>
<g><path style="opacity:1" fill="#120f21" d="M 128.5,57.5 C 128.765,61.8533 129.265,66.1866 130,70.5C 132.508,74.5663 135.675,77.8997 139.5,80.5C 135.959,79.241 132.292,78.241 128.5,77.5C 128.784,79.4147 128.451,81.0813 127.5,82.5C 127.5,80.8333 127.5,79.1667 127.5,77.5C 125.654,77.7778 124.32,77.1112 123.5,75.5C 125.513,69.7611 126.513,63.7611 126.5,57.5C 127.167,56.1667 127.833,56.1667 128.5,57.5 Z"/></g>
<g><path style="opacity:1" fill="#4a5076" d="M 42.5,58.5 C 43.4794,61.6248 43.8128,64.9581 43.5,68.5C 41.6921,69.9179 41.0254,71.9179 41.5,74.5C 40.5,74.5 39.5,74.5 38.5,74.5C 38.5,73.5 38.5,72.5 38.5,71.5C 36.5853,71.7845 34.9187,71.4511 33.5,70.5C 35.1667,70.5 36.8333,70.5 38.5,70.5C 38.5,69.5 38.5,68.5 38.5,67.5C 39.8333,67.5 41.1667,67.5 42.5,67.5C 42.5,64.5 42.5,61.5 42.5,58.5 Z"/></g>
<g><path style="opacity:1" fill="#050207" d="M 211.5,71.5 C 212.5,71.5 213.5,71.5 214.5,71.5C 214.5,73.5 214.5,75.5 214.5,77.5C 213.5,77.5 212.5,77.5 211.5,77.5C 211.5,75.5 211.5,73.5 211.5,71.5 Z"/></g>
<g><path style="opacity:1" fill="#231f3e" d="M 128.5,57.5 C 133.809,64.7649 138.642,72.4315 143,80.5C 143.877,82.6742 143.377,84.3409 141.5,85.5C 141.608,83.4862 140.942,81.8195 139.5,80.5C 135.675,77.8997 132.508,74.5663 130,70.5C 129.265,66.1866 128.765,61.8533 128.5,57.5 Z"/></g>
<g><path style="opacity:1" fill="#343460" d="M 214.5,69.5 C 215.167,69.5 215.833,69.5 216.5,69.5C 216.216,71.4147 216.549,73.0813 217.5,74.5C 218.5,74.5 219.5,74.5 220.5,74.5C 220.969,77.3933 219.969,79.3933 217.5,80.5C 216.9,79.1001 215.9,78.1001 214.5,77.5C 214.5,75.5 214.5,73.5 214.5,71.5C 214.5,70.8333 214.5,70.1667 214.5,69.5 Z"/></g>
<g><path style="opacity:1" fill="#141926" d="M 7.5,76.5 C 8.83333,77.1667 10.1667,77.8333 11.5,78.5C 10.1667,78.5 8.83333,78.5 7.5,78.5C 7.66331,80.8568 7.49665,83.1902 7,85.5C 6.80195,78.2972 5.80195,77.9638 4,84.5C 3.83333,83.3333 3.66667,82.1667 3.5,81C 4.7293,77.2498 5.56263,73.4165 6,69.5C 6.18618,72.0356 6.68618,74.369 7.5,76.5 Z"/></g>
<g><path style="opacity:1" fill="#15365b" d="M 126.5,90.5 C 124.45,90.0388 122.45,89.3721 120.5,88.5C 119.893,88.6236 119.56,88.9569 119.5,89.5C 116.865,88.1891 114.531,86.5224 112.5,84.5C 114.612,81.9374 117.279,80.104 120.5,79C 122.134,78.5065 123.801,78.3398 125.5,78.5C 126.272,82.4517 126.605,86.4517 126.5,90.5 Z"/></g>
<g><path style="opacity:1" fill="#2c2b42" d="M 211.5,71.5 C 211.5,73.5 211.5,75.5 211.5,77.5C 212.5,77.5 213.5,77.5 214.5,77.5C 215.9,78.1001 216.9,79.1001 217.5,80.5C 215.621,79.6586 213.621,79.3253 211.5,79.5C 211.5,81.5 211.5,83.5 211.5,85.5C 210.833,86.5 210.167,87.5 209.5,88.5C 209.5,86.1667 209.5,83.8333 209.5,81.5C 210.167,78.1667 210.833,74.8333 211.5,71.5 Z"/></g>
<g><path style="opacity:1" fill="#0a080d" d="M 223.5,-0.5 C 226.167,-0.5 228.833,-0.5 231.5,-0.5C 232.167,4.83333 232.833,4.83333 233.5,-0.5C 238.833,-0.5 244.167,-0.5 249.5,-0.5C 251.475,1.13696 253.475,2.80363 255.5,4.5C 255.5,56.8333 255.5,109.167 255.5,161.5C 254.834,157.979 254.167,154.313 253.5,150.5C 252.787,148.565 251.787,148.232 250.5,149.5C 250.5,144.833 250.5,140.167 250.5,135.5C 251.15,135.804 251.817,136.137 252.5,136.5C 253.452,134.955 253.785,133.288 253.5,131.5C 253.813,128.753 253.48,126.086 252.5,123.5C 251.893,123.624 251.56,123.957 251.5,124.5C 250.819,130.073 249.319,135.406 247,140.5C 246,137.833 245,135.167 244,132.5C 243.764,134.119 242.931,135.119 241.5,135.5C 241.843,132.347 241.51,130.013 240.5,128.5C 238.955,129.23 238.122,130.563 238,132.5C 235.546,130.987 233.879,131.654 233,134.5C 232.617,133.944 232.117,133.611 231.5,133.5C 231.624,127.931 230.957,122.598 229.5,117.5C 229.5,115.167 229.5,112.833 229.5,110.5C 230.5,110.5 231.5,110.5 232.5,110.5C 232.336,104.833 232.003,104.5 231.5,109.5C 226.758,109.842 225.425,111.675 227.5,115C 228.256,118.125 228.589,121.291 228.5,124.5C 228.5,125.833 228.5,127.167 228.5,128.5C 226.167,128.5 223.833,128.5 221.5,128.5C 221.5,126.5 221.5,124.5 221.5,122.5C 222.675,122.719 223.675,122.386 224.5,121.5C 222.257,120.526 219.924,120.192 217.5,120.5C 217.5,118.5 217.5,116.5 217.5,114.5C 218.5,114.5 219.5,114.5 220.5,114.5C 220.5,113.5 220.5,112.5 220.5,111.5C 221.649,111.209 222.316,110.376 222.5,109C 223.024,104.931 223.69,100.931 224.5,97C 223.095,95.7308 221.429,95.2308 219.5,95.5C 219.802,92.9407 219.468,90.6074 218.5,88.5C 216.771,86.2733 214.438,85.2733 211.5,85.5C 211.5,83.5 211.5,81.5 211.5,79.5C 213.621,79.3253 215.621,79.6586 217.5,80.5C 219.969,79.3933 220.969,77.3933 220.5,74.5C 219.5,74.5 218.5,74.5 217.5,74.5C 217.279,71.7212 217.612,69.0545 218.5,66.5C 219.163,64.9581 219.83,63.2914 220.5,61.5C 221.452,63.0453 221.785,64.712 221.5,66.5C 224.155,66.3414 226.488,65.3414 228.5,63.5C 227.443,63.0941 226.109,63.0941 224.5,63.5C 223.969,58.2795 223.303,53.1129 222.5,48C 223.056,47.6174 223.389,47.1174 223.5,46.5C 224.388,43.9455 224.721,41.2788 224.5,38.5C 225.239,38.631 225.906,38.4643 226.5,38C 224.598,37.8008 223.098,36.9675 222,35.5C 220.117,36.6526 219.284,38.3193 219.5,40.5C 218.167,40.5 216.833,40.5 215.5,40.5C 215.724,36.8212 216.058,33.1545 216.5,29.5C 217.5,29.5 218.5,29.5 219.5,29.5C 219.763,25.3998 219.43,21.3998 218.5,17.5C 218.66,15.8008 218.494,14.1341 218,12.5C 217.517,13.448 217.351,14.448 217.5,15.5C 216.5,15.5 215.5,15.5 214.5,15.5C 214.458,11.9913 215.124,8.65796 216.5,5.5C 217.391,4.89022 218.391,4.55688 219.5,4.5C 220.473,5.79141 221.473,5.79141 222.5,4.5C 223.452,2.95467 223.785,1.28801 223.5,-0.5 Z"/></g>
<g><path style="opacity:1" fill="#40444e" d="M 228.5,76.5 C 229.451,77.9187 229.784,79.5853 229.5,81.5C 230.5,81.5 231.5,81.5 232.5,81.5C 232.367,84.8957 231.367,85.2291 229.5,82.5C 228.534,80.604 228.201,78.604 228.5,76.5 Z"/></g>
<g><path style="opacity:1" fill="#2b2a40" d="M 250.5,76.5 C 251.794,78.0478 252.461,80.0478 252.5,82.5C 252.333,84.5 252.167,86.5 252,88.5C 251.358,84.5092 250.858,80.5092 250.5,76.5 Z"/></g>
<g><path style="opacity:1" fill="#2b2f3e" d="M 246.5,61.5 C 247.586,61.62 248.253,62.2867 248.5,63.5C 248.018,66.5414 247.351,69.5414 246.5,72.5C 245.54,68.8614 245.54,65.1947 246.5,61.5 Z"/></g>
<g><path style="opacity:1" fill="#4b4c5d" d="M 232.5,59.5 C 232.632,62.8895 232.799,66.2228 233,69.5C 231.955,66.5639 231.121,63.5639 230.5,60.5C 230.957,59.7025 231.624,59.3691 232.5,59.5 Z"/></g>
<g><path style="opacity:1" fill="#5a596a" d="M 232.5,59.5 C 232.5,57.8333 232.5,56.1667 232.5,54.5C 233.873,54.3433 235.207,54.51 236.5,55C 235.259,56.6985 233.926,58.1985 232.5,59.5 Z"/></g>
<g><path style="opacity:1" fill="#535372" d="M 244.5,42.5 C 245.649,42.7911 246.316,43.6244 246.5,45C 246.167,45.8333 245.833,46.6667 245.5,47.5C 244.548,45.9547 244.215,44.288 244.5,42.5 Z"/></g>
<g><path style="opacity:1" fill="#474858" d="M 237.5,42.5 C 239.199,42.3398 240.866,42.5065 242.5,43C 241.552,43.4828 240.552,43.6495 239.5,43.5C 239.808,45.924 239.474,48.2573 238.5,50.5C 237.52,47.9135 237.187,45.2469 237.5,42.5 Z"/></g>
<g><path style="opacity:1" fill="#2c2f40" d="M 238.5,24.5 C 239.748,25.3339 240.415,26.6672 240.5,28.5C 240.167,29.8333 239.833,31.1667 239.5,32.5C 238.52,29.9135 238.187,27.2469 238.5,24.5 Z"/></g>
<g><path style="opacity:1" fill="#404259" d="M 244.5,15.5 C 245.725,16.1522 246.392,17.3189 246.5,19C 246.546,20.728 246.046,22.228 245,23.5C 244.503,20.854 244.336,18.1873 244.5,15.5 Z"/></g>
<g><path style="opacity:1" fill="#56586f" d="M 234.5,15.5 C 235.649,15.7911 236.316,16.6244 236.5,18C 236.167,18.8333 235.833,19.6667 235.5,20.5C 234.548,18.9547 234.215,17.288 234.5,15.5 Z"/></g>
<g><path style="opacity:1" fill="#525565" d="M 228.5,9.5 C 229.649,9.79106 230.316,10.6244 230.5,12C 230.077,17.324 229.244,22.4906 228,27.5C 227.359,21.4717 227.526,15.4717 228.5,9.5 Z"/></g>
<g><path style="opacity:1" fill="#52576c" d="M 231.5,-0.5 C 232.167,-0.5 232.833,-0.5 233.5,-0.5C 232.833,4.83333 232.167,4.83333 231.5,-0.5 Z"/></g>
<g><path style="opacity:1" fill="#35374a" d="M 14.5,71.5 C 14.7394,73.4672 14.4061,75.3005 13.5,77C 15.6621,79.5219 15.9955,82.3553 14.5,85.5C 13.8933,85.3764 13.56,85.0431 13.5,84.5C 13.9746,81.9179 13.3079,79.9179 11.5,78.5C 10.1667,77.8333 8.83333,77.1667 7.5,76.5C 9.16667,76.5 10.8333,76.5 12.5,76.5C 12.1924,74.076 12.5258,71.7427 13.5,69.5C 14.2975,69.9569 14.6309,70.6236 14.5,71.5 Z"/></g>
<g><path style="opacity:1" fill="#521020" d="M 139.5,80.5 C 140.942,81.8195 141.608,83.4862 141.5,85.5C 139.5,86.8333 137.5,88.1667 135.5,89.5C 133.712,88.3775 131.712,88.2109 129.5,89C 128.015,90.7565 128.348,91.9232 130.5,92.5C 129.791,93.404 128.791,93.7373 127.5,93.5C 127.5,92.5 127.5,91.5 127.5,90.5C 127.5,87.8333 127.5,85.1667 127.5,82.5C 128.451,81.0813 128.784,79.4147 128.5,77.5C 132.292,78.241 135.959,79.241 139.5,80.5 Z"/></g>
<g><path style="opacity:1" fill="#4d90b4" d="M 119.5,89.5 C 119.56,88.9569 119.893,88.6236 120.5,88.5C 122.45,89.3721 124.45,90.0388 126.5,90.5C 126.833,90.5 127.167,90.5 127.5,90.5C 127.5,91.5 127.5,92.5 127.5,93.5C 124.605,92.6006 121.938,91.2672 119.5,89.5 Z"/></g>
<g><path style="opacity:1" fill="#585a64" d="M 23.5,94.5 C 23.5,92.8333 23.5,91.1667 23.5,89.5C 21.901,89.7678 20.5676,89.4345 19.5,88.5C 20.895,88.4382 22.395,88.4382 24,88.5C 24.7891,90.7116 24.6225,92.7116 23.5,94.5 Z"/></g>
<g><path style="opacity:1" fill="#a51d32" d="M 135.5,89.5 C 133.668,90.2485 132.001,91.2485 130.5,92.5C 128.348,91.9232 128.015,90.7565 129.5,89C 131.712,88.2109 133.712,88.3775 135.5,89.5 Z"/></g>
<g><path style="opacity:1" fill="#313656" d="M 26.5,100.5 C 26.5,98.8333 26.5,97.1667 26.5,95.5C 26.5,95.1667 26.5,94.8333 26.5,94.5C 25.9569,94.44 25.6236,94.1067 25.5,93.5C 28.0865,92.52 30.7531,92.1866 33.5,92.5C 33.5,93.5 33.5,94.5 33.5,95.5C 35.1667,95.5 36.8333,95.5 38.5,95.5C 38.5,96.8333 38.5,98.1667 38.5,99.5C 34.552,99.6855 30.7187,100.352 27,101.5C 26.6012,101.272 26.4346,100.938 26.5,100.5 Z"/></g>
<g><path style="opacity:1" fill="#1a2642" d="M 125.5,97.5 C 125.783,98.2891 126.283,98.9558 127,99.5C 127.171,107.344 127.671,115.011 128.5,122.5C 127.5,123.833 126.5,123.833 125.5,122.5C 125.065,119.843 124.065,117.509 122.5,115.5C 119.38,106.594 115.713,97.927 111.5,89.5C 112.365,88.4173 113.365,88.2506 114.5,89C 118.597,91.3696 122.264,94.2029 125.5,97.5 Z"/></g>
<g><path style="opacity:1" fill="#0c0914" d="M 211.5,92.5 C 212.5,92.5 213.5,92.5 214.5,92.5C 215.702,96.0483 216.369,99.715 216.5,103.5C 215.167,103.5 213.833,103.5 212.5,103.5C 212.5,102.167 212.5,100.833 212.5,99.5C 211.631,97.283 211.298,94.9496 211.5,92.5 Z"/></g>
<g><path style="opacity:1" fill="#646690" d="M 218.5,88.5 C 219.468,90.6074 219.802,92.9407 219.5,95.5C 219.5,95.8333 219.5,96.1667 219.5,96.5C 218.252,95.6661 217.585,94.3328 217.5,92.5C 217.511,90.9549 217.844,89.6216 218.5,88.5 Z"/></g>
<g><path style="opacity:1" fill="#41465f" d="M 211.5,92.5 C 211.298,94.9496 211.631,97.283 212.5,99.5C 211.275,98.8478 210.608,97.6811 210.5,96C 210.514,94.6153 210.848,93.4486 211.5,92.5 Z"/></g>
<g><path style="opacity:1" fill="#727bb7" d="M 26.5,94.5 C 28.2646,93.5386 30.2646,93.2053 32.5,93.5C 32.5,95.5 32.5,97.5 32.5,99.5C 30.8333,99.5 29.1667,99.5 27.5,99.5C 27.7845,97.5853 27.4511,95.9187 26.5,94.5 Z"/></g>
<g><path style="opacity:1" fill="#33345f" d="M 211.5,85.5 C 214.438,85.2733 216.771,86.2733 218.5,88.5C 217.844,89.6216 217.511,90.9549 217.5,92.5C 217.585,94.3328 218.252,95.6661 219.5,96.5C 219.599,99.2372 219.265,101.904 218.5,104.5C 218.167,104.5 217.833,104.5 217.5,104.5C 217.5,103.833 217.167,103.5 216.5,103.5C 216.369,99.715 215.702,96.0483 214.5,92.5C 213.5,92.5 212.5,92.5 211.5,92.5C 212.568,91.5655 213.901,91.2322 215.5,91.5C 215.803,88.4124 214.47,86.7458 211.5,86.5C 211.715,88.1788 211.048,89.1788 209.5,89.5C 209.5,89.1667 209.5,88.8333 209.5,88.5C 210.167,87.5 210.833,86.5 211.5,85.5 Z"/></g>
<g><path style="opacity:1" fill="#595a6b" d="M 237.5,94.5 C 238.803,97.3553 238.803,100.355 237.5,103.5C 236.259,100.463 236.259,97.463 237.5,94.5 Z"/></g>
<g><path style="opacity:1" fill="#696fa0" d="M 211.5,92.5 C 210.848,93.4486 210.514,94.6153 210.5,96C 210.608,97.6811 211.275,98.8478 212.5,99.5C 212.5,100.833 212.5,102.167 212.5,103.5C 213.833,103.5 215.167,103.5 216.5,103.5C 217.167,103.5 217.5,103.833 217.5,104.5C 217.5,105.167 217.167,105.5 216.5,105.5C 214.5,105.5 212.5,105.5 210.5,105.5C 210.5,107.833 210.5,110.167 210.5,112.5C 211.833,112.5 213.167,112.5 214.5,112.5C 214.5,112.833 214.5,113.167 214.5,113.5C 213.167,113.5 211.833,113.5 210.5,113.5C 210.06,117.179 210.727,120.512 212.5,123.5C 212.5,123.833 212.5,124.167 212.5,124.5C 212.5,125.5 212.5,126.5 212.5,127.5C 211.5,127.5 210.5,127.5 209.5,127.5C 209.5,114.833 209.5,102.167 209.5,89.5C 211.048,89.1788 211.715,88.1788 211.5,86.5C 214.47,86.7458 215.803,88.4124 215.5,91.5C 213.901,91.2322 212.568,91.5655 211.5,92.5 Z"/></g>
<g><path style="opacity:1" fill="#48455e" d="M 247.5,95.5 C 248.638,98.3035 248.805,101.304 248,104.5C 247.5,103.5 247,102.5 246.5,101.5C 247.348,99.5914 247.682,97.5914 247.5,95.5 Z"/></g>
<g><path style="opacity:1" fill="#56597f" d="M 45.5,98.5 C 45.5,100.167 45.5,101.833 45.5,103.5C 43.549,103.227 42.049,103.893 41,105.5C 40.51,104.207 40.3433,102.873 40.5,101.5C 41.8333,101.5 43.1667,101.5 44.5,101.5C 44.2627,100.209 44.596,99.209 45.5,98.5 Z"/></g>
<g><path style="opacity:1" fill="#331b2f" d="M 130.5,119.5 C 129.833,120.5 129.167,121.5 128.5,122.5C 127.671,115.011 127.171,107.344 127,99.5C 126.283,98.9558 125.783,98.2891 125.5,97.5C 126.873,97.6567 128.207,97.49 129.5,97C 132.99,94.0887 136.656,91.422 140.5,89C 141.635,88.2506 142.635,88.4173 143.5,89.5C 139.154,99.5215 134.821,109.521 130.5,119.5 Z"/></g>
<g><path style="opacity:1" fill="#2a263d" d="M 219.5,95.5 C 221.429,95.2308 223.095,95.7308 224.5,97C 223.69,100.931 223.024,104.931 222.5,109C 222.316,110.376 221.649,111.209 220.5,111.5C 218.656,109.721 217.99,107.388 218.5,104.5C 219.265,101.904 219.599,99.2372 219.5,96.5C 219.5,96.1667 219.5,95.8333 219.5,95.5 Z"/></g>
<g><path style="opacity:1" fill="#2a2f53" d="M 9.5,97.5 C 9.84171,98.3382 10.5084,98.6716 11.5,98.5C 11.5,100.833 11.5,103.167 11.5,105.5C 10.5,105.5 9.5,105.5 8.5,105.5C 8.15963,102.028 8.49297,99.3609 9.5,97.5 Z"/></g>
<g><path style="opacity:1" fill="#05030d" d="M 216.5,105.5 C 217.01,108.388 216.344,110.721 214.5,112.5C 213.167,112.5 211.833,112.5 210.5,112.5C 210.5,110.167 210.5,107.833 210.5,105.5C 212.5,105.5 214.5,105.5 216.5,105.5 Z"/></g>
<g><path style="opacity:1" fill="#545574" d="M 217.5,104.5 C 217.833,104.5 218.167,104.5 218.5,104.5C 217.99,107.388 218.656,109.721 220.5,111.5C 220.5,112.5 220.5,113.5 220.5,114.5C 219.5,114.5 218.5,114.5 217.5,114.5C 216.532,116.607 216.198,118.941 216.5,121.5C 215.833,118.833 215.167,116.167 214.5,113.5C 214.5,113.167 214.5,112.833 214.5,112.5C 216.344,110.721 217.01,108.388 216.5,105.5C 217.167,105.5 217.5,105.167 217.5,104.5 Z"/></g>
<g><path style="opacity:1" fill="#1f2548" d="M 31.5,112.5 C 32.5,112.5 33.5,112.5 34.5,112.5C 35.1667,112.5 35.8333,112.5 36.5,112.5C 37.3414,114.379 37.6747,116.379 37.5,118.5C 36.7321,120.715 36.0654,123.048 35.5,125.5C 33.4471,125.598 31.7804,124.931 30.5,123.5C 31.8333,123.5 33.1667,123.5 34.5,123.5C 34.8782,121.354 35.2115,119.187 35.5,117C 35.3917,115.319 34.7251,114.152 33.5,113.5C 32.5084,113.672 31.8417,113.338 31.5,112.5 Z"/></g>
<g><path style="opacity:1" fill="#080a12" d="M 39.5,58.5 C 40.1667,58.5 40.8333,58.5 41.5,58.5C 41.8333,58.5 42.1667,58.5 42.5,58.5C 42.5,61.5 42.5,64.5 42.5,67.5C 41.1667,67.5 39.8333,67.5 38.5,67.5C 38.5,68.5 38.5,69.5 38.5,70.5C 36.8333,70.5 35.1667,70.5 33.5,70.5C 32.5166,74.2984 32.1832,78.2984 32.5,82.5C 34.1667,82.5 35.8333,82.5 37.5,82.5C 37.2852,84.1788 37.9519,85.1788 39.5,85.5C 39.6216,81.9141 39.2883,78.2474 38.5,74.5C 39.5,74.5 40.5,74.5 41.5,74.5C 41.0254,71.9179 41.6921,69.9179 43.5,68.5C 44.1667,68.5 44.8333,68.5 45.5,68.5C 41.4755,71.1182 41.8089,71.7848 46.5,70.5C 46.5277,79.7796 46.1943,89.113 45.5,98.5C 44.596,99.209 44.2627,100.209 44.5,101.5C 43.1667,101.5 41.8333,101.5 40.5,101.5C 40.3433,102.873 40.51,104.207 41,105.5C 42.049,103.893 43.549,103.227 45.5,103.5C 45.5,106.5 45.5,109.5 45.5,112.5C 44.5,112.5 43.5,112.5 42.5,112.5C 40.3888,111.258 38.3888,111.258 36.5,112.5C 35.8333,112.5 35.1667,112.5 34.5,112.5C 33.4977,99.1852 32.4977,99.1852 31.5,112.5C 31.8417,113.338 32.5084,113.672 33.5,113.5C 33.6633,115.857 33.4966,118.19 33,120.5C 32.015,121.814 30.8484,122.814 29.5,123.5C 29.1667,123.5 28.8333,123.5 28.5,123.5C 26.9519,123.179 26.2852,122.179 26.5,120.5C 24.8333,120.5 23.1667,120.5 21.5,120.5C 21.5,122.167 21.5,123.833 21.5,125.5C 22.5676,126.434 23.901,126.768 25.5,126.5C 25.2289,128.821 25.8955,130.821 27.5,132.5C 27.1667,132.833 26.8333,133.167 26.5,133.5C 23.3847,131.369 20.0513,130.869 16.5,132C 16.2916,127.877 15.9582,123.71 15.5,119.5C 14.6858,121.766 14.1858,124.1 14,126.5C 13.2588,127.641 12.4255,127.641 11.5,126.5C 10.5481,128.045 10.2148,129.712 10.5,131.5C 11.791,131.263 12.791,131.596 13.5,132.5C 13.5,134.5 13.5,136.5 13.5,138.5C 11.8098,138.758 9.80984,138.758 7.5,138.5C 7.5,136.167 7.5,133.833 7.5,131.5C 4.83333,132.167 2.16667,132.833 -0.5,133.5C -0.5,122.167 -0.5,110.833 -0.5,99.5C 0.151487,98.9094 0.818153,98.2427 1.5,97.5C 2.5975,100.753 3.26417,104.086 3.5,107.5C 5.78121,107.923 7.44787,107.256 8.5,105.5C 9.5,105.5 10.5,105.5 11.5,105.5C 13.1667,105.5 14.8333,105.5 16.5,105.5C 16.5,103.167 16.5,100.833 16.5,98.5C 14.8333,98.5 13.1667,98.5 11.5,98.5C 10.5084,98.6716 9.84171,98.3382 9.5,97.5C 12.1667,97.5 14.8333,97.5 17.5,97.5C 17.5,99.1667 17.5,100.833 17.5,102.5C 20.7387,102.587 23.7387,101.92 26.5,100.5C 26.4346,100.938 26.6012,101.272 27,101.5C 30.7187,100.352 34.552,99.6855 38.5,99.5C 38.5,98.1667 38.5,96.8333 38.5,95.5C 36.8333,95.5 35.1667,95.5 33.5,95.5C 33.5,94.5 33.5,93.5 33.5,92.5C 30.7531,92.1866 28.0865,92.52 25.5,93.5C 25.6236,94.1067 25.9569,94.44 26.5,94.5C 26.5,94.8333 26.5,95.1667 26.5,95.5C 25.209,95.7373 24.209,95.404 23.5,94.5C 24.6225,92.7116 24.7891,90.7116 24,88.5C 22.395,88.4382 20.895,88.4382 19.5,88.5C 17.5,88.5 15.5,88.5 13.5,88.5C 12.454,93.2211 12.454,91.8878 13.5,84.5C 13.56,85.0431 13.8933,85.3764 14.5,85.5C 15.9955,82.3553 15.6621,79.5219 13.5,77C 14.4061,75.3005 14.7394,73.4672 14.5,71.5C 16.1765,70.8166 16.8432,69.4832 16.5,67.5C 17.5,67.5 18.5,67.5 19.5,67.5C 19.3893,68.1174 19.056,68.6174 18.5,69C 19.7932,69.49 21.1266,69.6567 22.5,69.5C 22.4921,72.5448 22.1587,75.5448 21.5,78.5C 19.901,78.2322 18.5676,78.5655 17.5,79.5C 16.5489,80.9187 16.2155,82.5853 16.5,84.5C 18.1667,84.5 19.8333,84.5 21.5,84.5C 21.5,83.1667 21.5,81.8333 21.5,80.5C 23.4147,80.7845 25.0813,80.4511 26.5,79.5C 27.6736,75.1808 27.6736,70.8474 26.5,66.5C 28.1667,66.5 29.8333,66.5 31.5,66.5C 31.3505,67.552 31.5172,68.552 32,69.5C 32.7365,67.404 33.9032,65.7373 35.5,64.5C 36.5832,64.5394 37.5832,64.8728 38.5,65.5C 38.8333,65.1667 39.1667,64.8333 39.5,64.5C 38.675,63.6143 37.675,63.281 36.5,63.5C 36.5,61.8333 36.5,60.1667 36.5,58.5C 37.5,58.5 38.5,58.5 39.5,58.5 Z"/></g>
<g><path style="opacity:1" fill="#515675" d="M 34.5,112.5 C 33.5,112.5 32.5,112.5 31.5,112.5C 32.4977,99.1852 33.4977,99.1852 34.5,112.5 Z"/></g>
<g><path style="opacity:1" fill="#495183" d="M 11.5,98.5 C 13.1667,98.5 14.8333,98.5 16.5,98.5C 16.5,100.833 16.5,103.167 16.5,105.5C 14.8333,105.5 13.1667,105.5 11.5,105.5C 11.5,103.167 11.5,100.833 11.5,98.5 Z"/></g>
<g><path style="opacity:1" fill="#363953" d="M 39.5,85.5 C 40.5862,85.62 41.2528,86.2867 41.5,87.5C 41.1667,88.1667 40.8333,88.8333 40.5,89.5C 39.5713,88.3112 39.238,86.9778 39.5,85.5 Z"/></g>
<g><path style="opacity:1" fill="#58618f" d="M 24.5,77.5 C 24.5,78.8333 25.1667,79.5 26.5,79.5C 25.0813,80.4511 23.4147,80.7845 21.5,80.5C 21.5,81.8333 21.5,83.1667 21.5,84.5C 19.8333,84.5 18.1667,84.5 16.5,84.5C 16.2155,82.5853 16.5489,80.9187 17.5,79.5C 20.0758,79.5321 22.4091,78.8654 24.5,77.5 Z"/></g>
<g><path style="opacity:1" fill="#2c3152" d="M 33.5,70.5 C 34.9187,71.4511 36.5853,71.7845 38.5,71.5C 38.5,72.5 38.5,73.5 38.5,74.5C 39.2883,78.2474 39.6216,81.9141 39.5,85.5C 37.9519,85.1788 37.2852,84.1788 37.5,82.5C 35.8333,82.5 34.1667,82.5 32.5,82.5C 32.1832,78.2984 32.5166,74.2984 33.5,70.5 Z"/></g>
<g><path style="opacity:1" fill="#1d1d2e" d="M 217.5,114.5 C 217.5,116.5 217.5,118.5 217.5,120.5C 219.924,120.192 222.257,120.526 224.5,121.5C 223.675,122.386 222.675,122.719 221.5,122.5C 221.44,121.957 221.107,121.624 220.5,121.5C 219.614,122.325 219.281,123.325 219.5,124.5C 217.167,124.5 214.833,124.5 212.5,124.5C 212.5,124.167 212.5,123.833 212.5,123.5C 214.288,123.785 215.955,123.452 217.5,122.5C 217.376,121.893 217.043,121.56 216.5,121.5C 216.198,118.941 216.532,116.607 217.5,114.5 Z"/></g>
<g><path style="opacity:1" fill="#3a4175" d="M 42.5,112.5 C 41.6586,114.379 41.3253,116.379 41.5,118.5C 40.1667,118.5 38.8333,118.5 37.5,118.5C 37.6747,116.379 37.3414,114.379 36.5,112.5C 38.3888,111.258 40.3888,111.258 42.5,112.5 Z"/></g>
<g><path style="opacity:1" fill="#3c3542" d="M 229.5,117.5 C 229.5,119.833 229.5,122.167 229.5,124.5C 229.167,124.5 228.833,124.5 228.5,124.5C 228.589,121.291 228.256,118.125 227.5,115C 225.425,111.675 226.758,109.842 231.5,109.5C 232.003,104.5 232.336,104.833 232.5,110.5C 231.5,110.5 230.5,110.5 229.5,110.5C 229.5,112.833 229.5,115.167 229.5,117.5 Z"/></g>
<g><path style="opacity:1" fill="#43475f" d="M 33.5,113.5 C 34.7251,114.152 35.3917,115.319 35.5,117C 35.2115,119.187 34.8782,121.354 34.5,123.5C 33.1667,123.5 31.8333,123.5 30.5,123.5C 30.1667,123.5 29.8333,123.5 29.5,123.5C 30.8484,122.814 32.015,121.814 33,120.5C 33.4966,118.19 33.6633,115.857 33.5,113.5 Z"/></g>
<g><path style="opacity:1" fill="#525b97" d="M 214.5,113.5 C 215.167,116.167 215.833,118.833 216.5,121.5C 217.043,121.56 217.376,121.893 217.5,122.5C 215.955,123.452 214.288,123.785 212.5,123.5C 210.727,120.512 210.06,117.179 210.5,113.5C 211.833,113.5 213.167,113.5 214.5,113.5 Z"/></g>
<g><path style="opacity:1" fill="#0c0d10" d="M 45.5,112.5 C 46.4682,114.607 46.8016,116.941 46.5,119.5C 52.0566,119.285 57.5566,118.618 63,117.5C 64.0105,117.892 64.5105,118.559 64.5,119.5C 82.1196,118.415 99.7862,118.415 117.5,119.5C 119.5,119.333 121.5,119.167 123.5,119C 122.663,117.989 122.33,116.822 122.5,115.5C 124.065,117.509 125.065,119.843 125.5,122.5C 118.792,121.003 112.125,121.17 105.5,123C 106.416,123.278 107.082,123.778 107.5,124.5C 95.1923,123.945 83.0257,124.945 71,127.5C 63.643,125.507 56.143,125.007 48.5,126C 49.5,126.333 50.5,126.667 51.5,127C 49.2922,127.191 47.2922,127.691 45.5,128.5C 44.5489,129.919 44.2155,131.585 44.5,133.5C 42.1667,133.5 39.8333,133.5 37.5,133.5C 37.5,131.5 37.5,129.5 37.5,127.5C 38.791,127.737 39.791,127.404 40.5,126.5C 42.143,126.52 43.4763,125.853 44.5,124.5C 45.4909,120.555 45.8242,116.555 45.5,112.5 Z"/></g>
<g><path style="opacity:1" fill="#170d06" d="M 208.5,123.5 C 208.5,124.833 208.5,126.167 208.5,127.5C 201.646,127.176 194.979,127.509 188.5,128.5C 187.5,128.5 186.5,128.5 185.5,128.5C 176.46,126.032 167.126,124.699 157.5,124.5C 162.316,123.674 167.316,123.174 172.5,123C 174.059,121.369 176.059,120.536 178.5,120.5C 182.051,121.599 185.551,121.599 189,120.5C 190.5,120.667 192,120.833 193.5,121C 193.957,121.414 194.291,121.914 194.5,122.5C 199.12,123.493 203.786,123.827 208.5,123.5 Z"/></g>
<g><path style="opacity:1" fill="#737086" d="M 233.5,121.5 C 235.465,121.948 235.798,122.948 234.5,124.5C 233.614,123.675 233.281,122.675 233.5,121.5 Z"/></g>
<g><path style="opacity:1" fill="#6d77ac" d="M 42.5,112.5 C 43.5,112.5 44.5,112.5 45.5,112.5C 45.8242,116.555 45.4909,120.555 44.5,124.5C 43.4763,125.853 42.143,126.52 40.5,126.5C 39.1667,126.5 37.8333,126.5 36.5,126.5C 36.7947,128.735 36.4614,130.735 35.5,132.5C 35.5,130.167 35.5,127.833 35.5,125.5C 36.0654,123.048 36.7321,120.715 37.5,118.5C 38.8333,118.5 40.1667,118.5 41.5,118.5C 41.3253,116.379 41.6586,114.379 42.5,112.5 Z"/></g>
<g><path style="opacity:1" fill="#727bab" d="M 28.5,123.5 C 28.477,125.927 27.977,128.26 27,130.5C 26.5065,128.866 26.3398,127.199 26.5,125.5C 24.8333,125.5 23.1667,125.5 21.5,125.5C 21.5,123.833 21.5,122.167 21.5,120.5C 23.1667,120.5 24.8333,120.5 26.5,120.5C 26.2852,122.179 26.9519,123.179 28.5,123.5 Z"/></g>
<g><path style="opacity:1" fill="#271a21" d="M 130.5,119.5 C 130.5,120.833 130.5,122.167 130.5,123.5C 136.723,121.731 143.057,121.231 149.5,122C 150.308,122.308 150.975,122.808 151.5,123.5C 146.904,124.896 142.237,126.063 137.5,127C 141.821,127.499 146.154,127.666 150.5,127.5C 150.5,127.833 150.5,128.167 150.5,128.5C 140.5,128.5 130.5,128.5 120.5,128.5C 120.38,127.414 119.713,126.747 118.5,126.5C 114.669,125.973 111.002,125.306 107.5,124.5C 107.082,123.778 106.416,123.278 105.5,123C 112.125,121.17 118.792,121.003 125.5,122.5C 126.5,123.833 127.5,123.833 128.5,122.5C 129.167,121.5 129.833,120.5 130.5,119.5 Z"/></g>
<g><path style="opacity:1" fill="#2f1f16" d="M 157.5,124.5 C 167.126,124.699 176.46,126.032 185.5,128.5C 173.833,128.5 162.167,128.5 150.5,128.5C 150.5,128.167 150.5,127.833 150.5,127.5C 152.843,126.656 155.176,125.656 157.5,124.5 Z"/></g>
<g><path style="opacity:1" fill="#524c62" d="M 221.5,122.5 C 221.5,124.5 221.5,126.5 221.5,128.5C 220.833,128.5 220.167,128.5 219.5,128.5C 219.5,127.167 219.5,125.833 219.5,124.5C 219.281,123.325 219.614,122.325 220.5,121.5C 221.107,121.624 221.44,121.957 221.5,122.5 Z"/></g>
<g><path style="opacity:1" fill="#332f4a" d="M 253.5,131.5 C 251.656,129.721 250.99,127.388 251.5,124.5C 251.56,123.957 251.893,123.624 252.5,123.5C 253.48,126.086 253.813,128.753 253.5,131.5 Z"/></g>
<g><path style="opacity:1" fill="#191d23" d="M 107.5,124.5 C 111.002,125.306 114.669,125.973 118.5,126.5C 119.713,126.747 120.38,127.414 120.5,128.5C 95.5,128.5 70.5,128.5 45.5,128.5C 47.2922,127.691 49.2922,127.191 51.5,127C 50.5,126.667 49.5,126.333 48.5,126C 56.143,125.007 63.643,125.507 71,127.5C 83.0257,124.945 95.1923,123.945 107.5,124.5 Z"/></g>
<g><path style="opacity:1" fill="#150f14" d="M 209.5,88.5 C 209.5,88.8333 209.5,89.1667 209.5,89.5C 209.5,102.167 209.5,114.833 209.5,127.5C 210.5,127.5 211.5,127.5 212.5,127.5C 212.5,126.5 212.5,125.5 212.5,124.5C 214.833,124.5 217.167,124.5 219.5,124.5C 219.5,125.833 219.5,127.167 219.5,128.5C 219.179,130.048 218.179,130.715 216.5,130.5C 216.5,131.5 216.5,132.5 216.5,133.5C 215.167,133.5 213.833,133.5 212.5,133.5C 211.1,132.9 210.1,131.9 209.5,130.5C 202.913,128.539 195.913,127.872 188.5,128.5C 194.979,127.509 201.646,127.176 208.5,127.5C 208.5,126.167 208.5,124.833 208.5,123.5C 208.172,111.655 208.505,99.988 209.5,88.5 Z"/></g>
<g><path style="opacity:1" fill="#1b152a" d="M 228.5,124.5 C 228.833,124.5 229.167,124.5 229.5,124.5C 229.5,126.167 229.5,127.833 229.5,129.5C 227.396,129.201 225.396,129.534 223.5,130.5C 224.602,131.176 225.602,131.842 226.5,132.5C 225.252,133.334 224.585,134.667 224.5,136.5C 224.787,138.486 225.453,140.32 226.5,142C 225.944,143.011 225.278,143.844 224.5,144.5C 223.737,146.368 222.737,148.035 221.5,149.5C 221.666,144.156 221.499,138.823 221,133.5C 220.29,132.027 219.124,131.36 217.5,131.5C 217.5,132.5 217.5,133.5 217.5,134.5C 215.585,134.784 213.919,134.451 212.5,133.5C 213.833,133.5 215.167,133.5 216.5,133.5C 216.5,132.5 216.5,131.5 216.5,130.5C 218.179,130.715 219.179,130.048 219.5,128.5C 220.167,128.5 220.833,128.5 221.5,128.5C 223.833,128.5 226.167,128.5 228.5,128.5C 228.5,127.167 228.5,125.833 228.5,124.5 Z"/></g>
<g><path style="opacity:1" fill="#6f6d88" d="M 229.5,117.5 C 230.957,122.598 231.624,127.931 231.5,133.5C 231.631,134.376 231.298,135.043 230.5,135.5C 229.534,133.604 229.201,131.604 229.5,129.5C 229.5,127.833 229.5,126.167 229.5,124.5C 229.5,122.167 229.5,119.833 229.5,117.5 Z"/></g>
<g><path style="opacity:1" fill="#443b50" d="M 241.5,135.5 C 240.414,135.38 239.747,134.713 239.5,133.5C 240.046,131.865 240.38,130.199 240.5,128.5C 241.51,130.013 241.843,132.347 241.5,135.5 Z"/></g>
<g><path style="opacity:1" fill="#abb3e1" d="M 45.5,128.5 C 70.5,128.5 95.5,128.5 120.5,128.5C 130.5,128.5 140.5,128.5 150.5,128.5C 162.167,128.5 173.833,128.5 185.5,128.5C 186.5,128.5 187.5,128.5 188.5,128.5C 195.913,127.872 202.913,128.539 209.5,130.5C 209.5,135.167 209.5,139.833 209.5,144.5C 209.5,147.5 209.5,150.5 209.5,153.5C 209.224,162.927 209.224,172.26 209.5,181.5C 186.167,181.5 162.833,181.5 139.5,181.5C 140.084,178.997 140.751,176.497 141.5,174C 140.225,169.955 140.225,165.955 141.5,162C 140.141,156.913 138.975,151.746 138,146.5C 137.329,145.748 136.496,145.414 135.5,145.5C 134.507,141.505 132.507,138.172 129.5,135.5C 128.609,134.89 127.609,134.557 126.5,134.5C 124.914,135.148 123.247,135.648 121.5,136C 122.739,138.118 122.405,139.951 120.5,141.5C 118.5,142.167 116.5,142.833 114.5,143.5C 114.492,147.829 114.159,151.995 113.5,156C 110.333,157.234 107.166,158.401 104,159.5C 101.085,158.623 98.0852,157.957 95,157.5C 89.6539,159.027 84.1539,160.194 78.5,161C 79.1667,161.667 79.8333,162.333 80.5,163C 83.6667,163.167 86.8333,163.333 90,163.5C 97.1525,162.557 104.319,161.89 111.5,161.5C 111.665,165.182 111.499,168.848 111,172.5C 110.727,174.329 109.893,175.829 108.5,177C 102.486,177.24 96.486,177.24 90.5,177C 88.6992,177.317 88.3659,177.984 89.5,179C 88.451,179.492 87.451,179.326 86.5,178.5C 84.8554,179.696 83.1887,180.696 81.5,181.5C 69.5,181.5 57.5,181.5 45.5,181.5C 45.5,166.167 45.5,150.833 45.5,135.5C 45.5,133.167 45.5,130.833 45.5,128.5 Z"/></g>
<g><path style="opacity:1" fill="#100914" d="M 251.5,124.5 C 250.99,127.388 251.656,129.721 253.5,131.5C 253.785,133.288 253.452,134.955 252.5,136.5C 251.817,136.137 251.15,135.804 250.5,135.5C 249.883,135.611 249.383,135.944 249,136.5C 248.503,139.146 248.336,141.813 248.5,144.5C 248.153,151.425 245.986,152.092 242,146.5C 241.727,144.899 241.227,143.399 240.5,142C 239.365,141.251 238.365,141.417 237.5,142.5C 238.394,145.958 238.394,149.625 237.5,153.5C 236.376,151.631 235.543,149.631 235,147.5C 233.989,146.663 232.822,146.33 231.5,146.5C 230.5,146.5 229.5,146.5 228.5,146.5C 228.665,142.818 228.499,139.152 228,135.5C 227.667,136.5 227.333,137.5 227,138.5C 226.505,136.527 226.338,134.527 226.5,132.5C 225.602,131.842 224.602,131.176 223.5,130.5C 225.396,129.534 227.396,129.201 229.5,129.5C 229.201,131.604 229.534,133.604 230.5,135.5C 231.298,135.043 231.631,134.376 231.5,133.5C 232.117,133.611 232.617,133.944 233,134.5C 233.879,131.654 235.546,130.987 238,132.5C 238.122,130.563 238.955,129.23 240.5,128.5C 240.38,130.199 240.046,131.865 239.5,133.5C 239.747,134.713 240.414,135.38 241.5,135.5C 242.931,135.119 243.764,134.119 244,132.5C 245,135.167 246,137.833 247,140.5C 249.319,135.406 250.819,130.073 251.5,124.5 Z"/></g>
<g><path style="opacity:1" fill="#302e58" d="M 209.5,130.5 C 210.1,131.9 211.1,132.9 212.5,133.5C 213.919,134.451 215.585,134.784 217.5,134.5C 217.5,133.5 217.5,132.5 217.5,131.5C 219.124,131.36 220.29,132.027 221,133.5C 221.499,138.823 221.666,144.156 221.5,149.5C 219.801,149.34 218.134,149.506 216.5,150C 217.973,150.71 218.64,151.876 218.5,153.5C 216.801,153.66 215.134,153.494 213.5,153C 214.167,152.667 214.833,152.333 215.5,152C 214.62,150.644 214.286,149.144 214.5,147.5C 214.5,146.167 214.5,144.833 214.5,143.5C 213.686,141.369 213.186,139.036 213,136.5C 212.824,139.882 212.324,143.215 211.5,146.5C 210.818,145.757 210.151,145.091 209.5,144.5C 209.5,139.833 209.5,135.167 209.5,130.5 Z"/></g>
<g><path style="opacity:1" fill="#433f59" d="M 226.5,132.5 C 226.338,134.527 226.505,136.527 227,138.5C 227.333,137.5 227.667,136.5 228,135.5C 228.499,139.152 228.665,142.818 228.5,146.5C 228.565,146.938 228.399,147.272 228,147.5C 227.28,145.944 226.113,144.944 224.5,144.5C 225.278,143.844 225.944,143.011 226.5,142C 225.453,140.32 224.787,138.486 224.5,136.5C 224.585,134.667 225.252,133.334 226.5,132.5 Z"/></g>
<g><path style="opacity:1" fill="#282f59" d="M 40.5,126.5 C 39.791,127.404 38.791,127.737 37.5,127.5C 37.5,129.5 37.5,131.5 37.5,133.5C 39.8333,133.5 42.1667,133.5 44.5,133.5C 44.2155,131.585 44.5489,129.919 45.5,128.5C 45.5,130.833 45.5,133.167 45.5,135.5C 44.1667,135.5 42.8333,135.5 41.5,135.5C 40.8501,135.804 40.1835,136.137 39.5,136.5C 38.5159,139.428 38.1826,142.428 38.5,145.5C 37.5,145.5 36.5,145.5 35.5,145.5C 35.1583,144.662 34.4916,144.328 33.5,144.5C 33.1505,140.258 33.8172,136.258 35.5,132.5C 36.4614,130.735 36.7947,128.735 36.5,126.5C 37.8333,126.5 39.1667,126.5 40.5,126.5 Z"/></g>
<g><path style="opacity:1" fill="#1c1733" d="M 214.5,143.5 C 214.5,141.167 214.5,138.833 214.5,136.5C 218.322,137.18 219.989,139.513 219.5,143.5C 217.833,143.5 216.167,143.5 214.5,143.5 Z"/></g>
<g><path style="opacity:1" fill="#0e1222" d="M 21.5,125.5 C 23.1667,125.5 24.8333,125.5 26.5,125.5C 26.3398,127.199 26.5065,128.866 27,130.5C 27.977,128.26 28.477,125.927 28.5,123.5C 28.8333,123.5 29.1667,123.5 29.5,123.5C 29.8333,123.5 30.1667,123.5 30.5,123.5C 31.7804,124.931 33.4471,125.598 35.5,125.5C 35.5,127.833 35.5,130.167 35.5,132.5C 33.8172,136.258 33.1505,140.258 33.5,144.5C 31.1432,144.337 28.8098,144.503 26.5,145C 25.6198,146.356 25.2865,147.856 25.5,149.5C 24.5,149.5 23.5,149.5 22.5,149.5C 23.1099,144.683 22.7765,142.683 21.5,143.5C 20.5,143.5 19.5,143.5 18.5,143.5C 18.9275,146.564 19.5942,149.564 20.5,152.5C 19.1667,152.5 17.8333,152.5 16.5,152.5C 15.5386,150.735 15.2053,148.735 15.5,146.5C 13.8466,145.201 12.3466,145.534 11,147.5C 10.501,151.821 10.3343,156.154 10.5,160.5C 11.8333,160.5 13.1667,160.5 14.5,160.5C 14.5,160.833 14.5,161.167 14.5,161.5C 10.489,161.489 6.489,161.489 2.5,161.5C 2.66459,155.638 2.33125,149.804 1.5,144C 1.75225,141.606 2.75225,139.606 4.5,138C 2.44336,135.919 0.776694,136.086 -0.5,138.5C -0.5,136.833 -0.5,135.167 -0.5,133.5C 2.16667,132.833 4.83333,132.167 7.5,131.5C 7.5,133.833 7.5,136.167 7.5,138.5C 9.80984,138.758 11.8098,138.758 13.5,138.5C 16.1667,136.5 16.1667,134.5 13.5,132.5C 12.791,131.596 11.791,131.263 10.5,131.5C 10.2148,129.712 10.5481,128.045 11.5,126.5C 12.4255,127.641 13.2588,127.641 14,126.5C 14.1858,124.1 14.6858,121.766 15.5,119.5C 15.9582,123.71 16.2916,127.877 16.5,132C 20.0513,130.869 23.3847,131.369 26.5,133.5C 26.8333,133.167 27.1667,132.833 27.5,132.5C 25.8955,130.821 25.2289,128.821 25.5,126.5C 23.901,126.768 22.5676,126.434 21.5,125.5 Z"/></g>
<g><path style="opacity:1" fill="#5e6582" d="M 13.5,132.5 C 16.1667,134.5 16.1667,136.5 13.5,138.5C 13.5,136.5 13.5,134.5 13.5,132.5 Z"/></g>
<g><path style="opacity:1" fill="#3d4781" d="M 41.5,135.5 C 43.3877,139.494 44.3877,143.827 44.5,148.5C 44.4892,150.045 44.1558,151.378 43.5,152.5C 37.7136,153.713 35.0469,151.38 35.5,145.5C 36.5,145.5 37.5,145.5 38.5,145.5C 38.1826,142.428 38.5159,139.428 39.5,136.5C 40.1835,136.137 40.8501,135.804 41.5,135.5 Z"/></g>
<g><path style="opacity:1" fill="#333457" d="M 250.5,135.5 C 250.5,140.167 250.5,144.833 250.5,149.5C 250.44,150.043 250.107,150.376 249.5,150.5C 248.534,148.604 248.201,146.604 248.5,144.5C 248.336,141.813 248.503,139.146 249,136.5C 249.383,135.944 249.883,135.611 250.5,135.5 Z"/></g>
<g><path style="opacity:1" fill="#4e518a" d="M 126.5,134.5 C 127.609,134.557 128.609,134.89 129.5,135.5C 129.493,138.645 130.493,141.311 132.5,143.5C 132.833,146.167 133.167,148.833 133.5,151.5C 131.265,151.205 129.265,151.539 127.5,152.5C 125.266,152.38 123.099,152.713 121,153.5C 119.941,153.37 119.108,152.87 118.5,152C 118.806,150.173 120.306,149.006 123,148.5C 123.595,147.101 123.428,145.768 122.5,144.5C 123.846,141.145 125.18,137.812 126.5,134.5 Z"/></g>
<g><path style="opacity:1" fill="#636ba6" d="M 214.5,143.5 C 214.5,144.833 214.5,146.167 214.5,147.5C 212.897,147.312 211.563,147.812 210.5,149C 212.072,151.038 213.072,153.371 213.5,156C 211.978,160.339 211.311,164.839 211.5,169.5C 210.833,164.167 210.167,158.833 209.5,153.5C 209.5,150.5 209.5,147.5 209.5,144.5C 210.151,145.091 210.818,145.757 211.5,146.5C 212.324,143.215 212.824,139.882 213,136.5C 213.186,139.036 213.686,141.369 214.5,143.5 Z"/></g>
<g><path style="opacity:1" fill="#8f96d0" d="M 135.5,145.5 C 136.496,145.414 137.329,145.748 138,146.5C 138.975,151.746 140.141,156.913 141.5,162C 140.225,165.955 140.225,169.955 141.5,174C 140.751,176.497 140.084,178.997 139.5,181.5C 138.833,181.5 138.167,181.5 137.5,181.5C 133.725,181.384 132.058,179.384 132.5,175.5C 133.5,175.5 134.5,175.5 135.5,175.5C 136.5,175.5 137.5,175.5 138.5,175.5C 138.664,172.813 138.497,170.146 138,167.5C 136.989,166.663 135.822,166.33 134.5,166.5C 134.178,164.278 134.845,162.444 136.5,161C 136.524,155.875 136.191,150.709 135.5,145.5 Z"/></g>
<g><path style="opacity:1" fill="#1f254d" d="M 15.5,146.5 C 14.2353,147.514 13.5687,149.014 13.5,151C 13.9008,154.167 14.2341,157.334 14.5,160.5C 13.1667,160.5 11.8333,160.5 10.5,160.5C 10.3343,156.154 10.501,151.821 11,147.5C 12.3466,145.534 13.8466,145.201 15.5,146.5 Z"/></g>
<g><path style="opacity:1" fill="#7870ad" d="M 132.5,143.5 C 133.94,144.946 134.607,146.779 134.5,149C 133.763,151.441 133.763,153.775 134.5,156C 133.922,158.641 132.922,161.308 131.5,164C 131.943,165.825 132.277,167.658 132.5,169.5C 134.989,169.241 136.656,170.241 137.5,172.5C 135.255,173.635 132.922,174.135 130.5,174C 129.138,171.966 128.138,169.799 127.5,167.5C 127.5,162.5 127.5,157.5 127.5,152.5C 129.265,151.539 131.265,151.205 133.5,151.5C 133.167,148.833 132.833,146.167 132.5,143.5 Z"/></g>
<g><path style="opacity:1" fill="#5862a1" d="M 33.5,144.5 C 34.4916,144.328 35.1583,144.662 35.5,145.5C 35.0469,151.38 37.7136,153.713 43.5,152.5C 43.4675,162.183 43.8008,171.849 44.5,181.5C 43.5,181.5 42.5,181.5 41.5,181.5C 41.7863,179.723 42.4529,178.056 43.5,176.5C 43.1822,175.353 42.5156,174.519 41.5,174C 41.8333,173.667 42.1667,173.333 42.5,173C 40.913,172.138 39.2464,171.471 37.5,171C 40.1667,170 40.1667,169 37.5,168C 40.1562,165.771 39.8229,163.938 36.5,162.5C 35.8333,164.167 35.1667,165.833 34.5,167.5C 33.5713,166.311 33.238,164.978 33.5,163.5C 34.2576,157.091 34.2576,150.757 33.5,144.5 Z"/></g>
<g><path style="opacity:1" fill="#737db9" d="M 41.5,135.5 C 42.8333,135.5 44.1667,135.5 45.5,135.5C 45.5,150.833 45.5,166.167 45.5,181.5C 45.1667,181.5 44.8333,181.5 44.5,181.5C 43.8008,171.849 43.4675,162.183 43.5,152.5C 44.1558,151.378 44.4892,150.045 44.5,148.5C 44.3877,143.827 43.3877,139.494 41.5,135.5 Z"/></g>
<g><path style="opacity:1" fill="#262952" d="M 224.5,144.5 C 226.113,144.944 227.28,145.944 228,147.5C 228.399,147.272 228.565,146.938 228.5,146.5C 229.5,146.5 230.5,146.5 231.5,146.5C 231.5,146.833 231.5,147.167 231.5,147.5C 229.587,150.335 228.587,153.668 228.5,157.5C 227.686,159.631 227.186,161.964 227,164.5C 225.172,165.752 223.339,165.752 221.5,164.5C 221.5,159.5 221.5,154.5 221.5,149.5C 222.737,148.035 223.737,146.368 224.5,144.5 Z"/></g>
<g><path style="opacity:1" fill="#8284c1" d="M 129.5,135.5 C 132.507,138.172 134.507,141.505 135.5,145.5C 136.191,150.709 136.524,155.875 136.5,161C 134.845,162.444 134.178,164.278 134.5,166.5C 135.822,166.33 136.989,166.663 138,167.5C 138.497,170.146 138.664,172.813 138.5,175.5C 137.5,175.5 136.5,175.5 135.5,175.5C 136.551,174.778 137.218,173.778 137.5,172.5C 136.656,170.241 134.989,169.241 132.5,169.5C 132.277,167.658 131.943,165.825 131.5,164C 132.922,161.308 133.922,158.641 134.5,156C 133.763,153.775 133.763,151.441 134.5,149C 134.607,146.779 133.94,144.946 132.5,143.5C 130.493,141.311 129.493,138.645 129.5,135.5 Z"/></g>
<g><path style="opacity:1" fill="#6f7bb8" d="M 126.5,134.5 C 125.18,137.812 123.846,141.145 122.5,144.5C 123.428,145.768 123.595,147.101 123,148.5C 120.306,149.006 118.806,150.173 118.5,152C 119.108,152.87 119.941,153.37 121,153.5C 123.099,152.713 125.266,152.38 127.5,152.5C 127.5,157.5 127.5,162.5 127.5,167.5C 123.615,165.984 119.948,166.318 116.5,168.5C 116.859,166.629 117.859,165.129 119.5,164C 118.833,163.667 118.167,163.333 117.5,163C 117.794,159.599 117.794,156.099 117.5,152.5C 117.97,148.65 118.97,144.983 120.5,141.5C 122.405,139.951 122.739,138.118 121.5,136C 123.247,135.648 124.914,135.148 126.5,134.5 Z"/></g>
<g><path style="opacity:1" fill="#070b17" d="M 14.5,161.5 C 14.5,162.167 14.5,162.833 14.5,163.5C 10.2935,163.441 7.96014,165.441 7.5,169.5C 4.63588,169.064 2.30255,169.897 0.5,172C 2.4727,172.495 4.4727,172.662 6.5,172.5C 6.59868,175.237 6.26535,177.904 5.5,180.5C 3.24595,179.585 1.24595,178.252 -0.5,176.5C -0.5,163.833 -0.5,151.167 -0.5,138.5C 0.776694,136.086 2.44336,135.919 4.5,138C 2.75225,139.606 1.75225,141.606 1.5,144C 2.33125,149.804 2.66459,155.638 2.5,161.5C 6.489,161.489 10.489,161.489 14.5,161.5 Z"/></g>
<g><path style="opacity:1" fill="#a3addf" d="M 120.5,141.5 C 118.97,144.983 117.97,148.65 117.5,152.5C 114.254,157.565 112.588,163.231 112.5,169.5C 113.459,173.73 114.792,177.73 116.5,181.5C 104.833,181.5 93.1667,181.5 81.5,181.5C 83.1887,180.696 84.8554,179.696 86.5,178.5C 87.451,179.326 88.451,179.492 89.5,179C 88.3659,177.984 88.6992,177.317 90.5,177C 96.486,177.24 102.486,177.24 108.5,177C 109.893,175.829 110.727,174.329 111,172.5C 111.499,168.848 111.665,165.182 111.5,161.5C 104.319,161.89 97.1525,162.557 90,163.5C 86.8333,163.333 83.6667,163.167 80.5,163C 79.8333,162.333 79.1667,161.667 78.5,161C 84.1539,160.194 89.6539,159.027 95,157.5C 98.0852,157.957 101.085,158.623 104,159.5C 107.166,158.401 110.333,157.234 113.5,156C 114.159,151.995 114.492,147.829 114.5,143.5C 116.5,142.833 118.5,142.167 120.5,141.5 Z"/></g>
<g><path style="opacity:1" fill="#6b73ae" d="M 231.5,147.5 C 231.5,149.833 231.5,152.167 231.5,154.5C 231.76,158.348 231.094,162.015 229.5,165.5C 228.52,162.914 228.187,160.247 228.5,157.5C 228.587,153.668 229.587,150.335 231.5,147.5 Z"/></g>
<g><path style="opacity:1" fill="#252b57" d="M 25.5,149.5 C 25.2865,147.856 25.6198,146.356 26.5,145C 28.8098,144.503 31.1432,144.337 33.5,144.5C 34.2576,150.757 34.2576,157.091 33.5,163.5C 32.0937,163.973 31.427,164.973 31.5,166.5C 30.7354,166.923 29.9021,167.257 29,167.5C 24.9116,165.605 20.7449,163.938 16.5,162.5C 16.5,159.167 16.5,155.833 16.5,152.5C 17.8333,152.5 19.1667,152.5 20.5,152.5C 19.5942,149.564 18.9275,146.564 18.5,143.5C 19.5,143.5 20.5,143.5 21.5,143.5C 22.7765,142.683 23.1099,144.683 22.5,149.5C 23.5,149.5 24.5,149.5 25.5,149.5 Z"/></g>
<g><path style="opacity:1" fill="#3f4881" d="M 25.5,149.5 C 27.3428,148.754 28.6761,147.421 29.5,145.5C 29.8333,146.5 30.1667,147.5 30.5,148.5C 29.9181,152.155 29.4181,155.822 29,159.5C 27.3884,162.479 24.8884,163.812 21.5,163.5C 21.5,159.833 21.5,156.167 21.5,152.5C 22.8333,152.5 24.1667,152.5 25.5,152.5C 25.5,151.5 25.5,150.5 25.5,149.5 Z"/></g>
<g><path style="opacity:1" fill="#828cc7" d="M 209.5,153.5 C 210.167,158.833 210.833,164.167 211.5,169.5C 211.5,173.5 211.5,177.5 211.5,181.5C 210.833,181.5 210.167,181.5 209.5,181.5C 209.224,172.26 209.224,162.927 209.5,153.5 Z"/></g>
<g><path style="opacity:1" fill="#434a85" d="M 214.5,147.5 C 214.286,149.144 214.62,150.644 215.5,152C 214.833,152.333 214.167,152.667 213.5,153C 215.134,153.494 216.801,153.66 218.5,153.5C 218.64,151.876 217.973,150.71 216.5,150C 218.134,149.506 219.801,149.34 221.5,149.5C 221.5,154.5 221.5,159.5 221.5,164.5C 223.022,170.047 223.688,175.714 223.5,181.5C 222.5,181.5 221.5,181.5 220.5,181.5C 218.295,177.892 217.629,174.059 218.5,170C 216.495,160.058 215.828,160.058 216.5,170C 214.893,169.981 213.226,169.815 211.5,169.5C 211.311,164.839 211.978,160.339 213.5,156C 213.072,153.371 212.072,151.038 210.5,149C 211.563,147.812 212.897,147.312 214.5,147.5 Z"/></g>
<g><path style="opacity:1" fill="#191833" d="M 248.5,144.5 C 248.201,146.604 248.534,148.604 249.5,150.5C 250.107,150.376 250.44,150.043 250.5,149.5C 251.787,148.232 252.787,148.565 253.5,150.5C 254.167,154.313 254.834,157.979 255.5,161.5C 255.5,166.167 255.5,170.833 255.5,175.5C 253.863,177.475 252.196,179.475 250.5,181.5C 247.167,181.5 243.833,181.5 240.5,181.5C 240.821,179.952 241.821,179.285 243.5,179.5C 245.011,169.084 244.511,158.75 242,148.5C 241.586,148.043 241.086,147.709 240.5,147.5C 240.167,149.5 239.833,151.5 239.5,153.5C 240.098,157.838 240.265,162.172 240,166.5C 235.636,168.544 234.136,167.544 235.5,163.5C 235.5,160.5 235.5,157.5 235.5,154.5C 234.167,154.5 232.833,154.5 231.5,154.5C 231.5,152.167 231.5,149.833 231.5,147.5C 231.5,147.167 231.5,146.833 231.5,146.5C 232.822,146.33 233.989,146.663 235,147.5C 235.543,149.631 236.376,151.631 237.5,153.5C 238.394,149.625 238.394,145.958 237.5,142.5C 238.365,141.417 239.365,141.251 240.5,142C 241.227,143.399 241.727,144.899 242,146.5C 245.986,152.092 248.153,151.425 248.5,144.5 Z"/></g>
<g><path style="opacity:1" fill="#434c88" d="M 41.5,181.5 C 40.8333,181.5 40.1667,181.5 39.5,181.5C 39.6633,179.143 39.4966,176.81 39,174.5C 37.6667,173.167 36.3333,173.167 35,174.5C 34.5034,176.81 34.3367,179.143 34.5,181.5C 31.8333,181.5 29.1667,181.5 26.5,181.5C 26.5943,178.932 27.9276,177.432 30.5,177C 30.1535,174.684 29.8201,172.351 29.5,170C 30.4295,168.923 31.0962,167.756 31.5,166.5C 31.427,164.973 32.0937,163.973 33.5,163.5C 33.238,164.978 33.5713,166.311 34.5,167.5C 35.1667,165.833 35.8333,164.167 36.5,162.5C 39.8229,163.938 40.1562,165.771 37.5,168C 40.1667,169 40.1667,170 37.5,171C 39.2464,171.471 40.913,172.138 42.5,173C 42.1667,173.333 41.8333,173.667 41.5,174C 42.5156,174.519 43.1822,175.353 43.5,176.5C 42.4529,178.056 41.7863,179.723 41.5,181.5 Z"/></g>
<g><path style="opacity:1" fill="#535c98" d="M 220.5,181.5 C 217.5,181.5 214.5,181.5 211.5,181.5C 211.5,177.5 211.5,173.5 211.5,169.5C 213.226,169.815 214.893,169.981 216.5,170C 215.828,160.058 216.495,160.058 218.5,170C 217.629,174.059 218.295,177.892 220.5,181.5 Z"/></g>
<g><path style="opacity:1" fill="#1f254e" d="M 14.5,165.5 C 13.8333,170.833 13.1667,176.167 12.5,181.5C 11.1667,181.5 9.83333,181.5 8.5,181.5C 8.5,177.833 8.5,174.167 8.5,170.5C 9.55198,170.649 10.552,170.483 11.5,170C 11.9147,167.974 12.9147,166.474 14.5,165.5 Z"/></g>
<g><path style="opacity:1" fill="#11162f" d="M 14.5,163.5 C 14.5,164.167 14.5,164.833 14.5,165.5C 12.9147,166.474 11.9147,167.974 11.5,170C 10.552,170.483 9.55198,170.649 8.5,170.5C 8.5,174.167 8.5,177.833 8.5,181.5C 7.5,181.5 6.5,181.5 5.5,181.5C 5.5,181.167 5.5,180.833 5.5,180.5C 6.26535,177.904 6.59868,175.237 6.5,172.5C 4.4727,172.662 2.4727,172.495 0.5,172C 2.30255,169.897 4.63588,169.064 7.5,169.5C 7.96014,165.441 10.2935,163.441 14.5,163.5 Z"/></g>
<g><path style="opacity:1" fill="#2f3669" d="M 15.5,146.5 C 15.2053,148.735 15.5386,150.735 16.5,152.5C 16.5,155.833 16.5,159.167 16.5,162.5C 20.7449,163.938 24.9116,165.605 29,167.5C 29.9021,167.257 30.7354,166.923 31.5,166.5C 31.0962,167.756 30.4295,168.923 29.5,170C 29.8201,172.351 30.1535,174.684 30.5,177C 27.9276,177.432 26.5943,178.932 26.5,181.5C 21.8333,181.5 17.1667,181.5 12.5,181.5C 13.1667,176.167 13.8333,170.833 14.5,165.5C 14.5,164.833 14.5,164.167 14.5,163.5C 14.5,162.833 14.5,162.167 14.5,161.5C 14.5,161.167 14.5,160.833 14.5,160.5C 14.2341,157.334 13.9008,154.167 13.5,151C 13.5687,149.014 14.2353,147.514 15.5,146.5 Z"/></g>
<g><path style="opacity:1" fill="#34376b" d="M 231.5,154.5 C 232.833,154.5 234.167,154.5 235.5,154.5C 235.5,157.5 235.5,160.5 235.5,163.5C 234.25,163.423 233.417,162.756 233,161.5C 233.829,168.158 233.662,174.825 232.5,181.5C 229.5,181.5 226.5,181.5 223.5,181.5C 223.688,175.714 223.022,170.047 221.5,164.5C 223.339,165.752 225.172,165.752 227,164.5C 227.186,161.964 227.686,159.631 228.5,157.5C 228.187,160.247 228.52,162.914 229.5,165.5C 231.094,162.015 231.76,158.348 231.5,154.5 Z"/></g>
<g><path style="opacity:1" fill="#24264f" d="M 240.5,181.5 C 237.833,181.5 235.167,181.5 232.5,181.5C 233.662,174.825 233.829,168.158 233,161.5C 233.417,162.756 234.25,163.423 235.5,163.5C 234.136,167.544 235.636,168.544 240,166.5C 240.265,162.172 240.098,157.838 239.5,153.5C 239.833,151.5 240.167,149.5 240.5,147.5C 241.086,147.709 241.586,148.043 242,148.5C 244.511,158.75 245.011,169.084 243.5,179.5C 241.821,179.285 240.821,179.952 240.5,181.5 Z"/></g>
<g><path style="opacity:1" fill="#50558e" d="M 127.5,167.5 C 128.138,169.799 129.138,171.966 130.5,174C 132.922,174.135 135.255,173.635 137.5,172.5C 137.218,173.778 136.551,174.778 135.5,175.5C 134.5,175.5 133.5,175.5 132.5,175.5C 130.283,176.369 127.95,176.702 125.5,176.5C 125.48,174.857 126.147,173.524 127.5,172.5C 124.553,171.679 121.553,171.179 118.5,171C 118.833,170.667 119.167,170.333 119.5,170C 118.263,169.768 117.263,169.268 116.5,168.5C 119.948,166.318 123.615,165.984 127.5,167.5 Z"/></g>
<g><path style="opacity:1" fill="#8d99d0" d="M 117.5,152.5 C 117.794,156.099 117.794,159.599 117.5,163C 118.167,163.333 118.833,163.667 119.5,164C 117.859,165.129 116.859,166.629 116.5,168.5C 115.522,168.811 114.855,169.478 114.5,170.5C 116.226,173.856 118.226,177.023 120.5,180C 119.944,180.383 119.611,180.883 119.5,181.5C 118.5,181.5 117.5,181.5 116.5,181.5C 114.792,177.73 113.459,173.73 112.5,169.5C 112.588,163.231 114.254,157.565 117.5,152.5 Z"/></g>
<g><path style="opacity:1" fill="#6f78b5" d="M 116.5,168.5 C 117.263,169.268 118.263,169.768 119.5,170C 119.167,170.333 118.833,170.667 118.5,171C 121.553,171.179 124.553,171.679 127.5,172.5C 126.147,173.524 125.48,174.857 125.5,176.5C 127.95,176.702 130.283,176.369 132.5,175.5C 132.058,179.384 133.725,181.384 137.5,181.5C 131.5,181.5 125.5,181.5 119.5,181.5C 119.611,180.883 119.944,180.383 120.5,180C 118.226,177.023 116.226,173.856 114.5,170.5C 114.855,169.478 115.522,168.811 116.5,168.5 Z"/></g>
<g><path style="opacity:1" fill="#252b5a" d="M 39.5,181.5 C 37.8333,181.5 36.1667,181.5 34.5,181.5C 34.3367,179.143 34.5034,176.81 35,174.5C 36.3333,173.167 37.6667,173.167 39,174.5C 39.4966,176.81 39.6633,179.143 39.5,181.5 Z"/></g>
</svg>
