<?xml version="1.0" encoding="UTF-8"?>
<!DOCTYPE svg PUBLIC "-//W3C//DTD SVG 1.1//EN" "http://www.w3.org/Graphics/SVG/1.1/DTD/svg11.dtd">
<svg xmlns="http://www.w3.org/2000/svg" version="1.1" width="256px" height="182px" style="shape-rendering:geometricPrecision; text-rendering:geometricPrecision; image-rendering:optimizeQuality; fill-rule:evenodd; clip-rule:evenodd" xmlns:xlink="http://www.w3.org/1999/xlink">
<g><path style="opacity:1" fill="#16d3cc" d="M 72.5,-0.5 C 88.5,-0.5 104.5,-0.5 120.5,-0.5C 120.389,0.117425 120.056,0.617425 119.5,1C 120.833,1.66667 122.167,2.33333 123.5,3C 122.62,4.35613 122.286,5.85613 122.5,7.5C 126.727,7.37882 131.06,7.04549 135.5,6.5C 135.192,5.69194 134.692,5.02527 134,4.5C 130.821,6.27607 127.654,5.77607 124.5,3C 125.416,2.62576 126.25,2.12576 127,1.5C 127.739,2.57425 128.739,3.24092 130,3.5C 131.956,3.33927 133.956,3.00594 136,2.5C 137.157,5.9029 138.657,9.06956 140.5,12C 137.795,15.7572 138.295,16.2572 142,13.5C 143.333,14.1667 144.333,15.1667 145,16.5C 145.5,15.3333 146.333,14.5 147.5,14C 145.226,13.5298 143.226,12.5298 141.5,11C 142.14,9.35281 142.14,7.51948 141.5,5.5C 143.264,0.350842 144.597,0.350842 145.5,5.5C 141.898,5.67796 141.898,6.67796 145.5,8.5C 144.975,9.19238 144.308,9.69238 143.5,10C 144.944,10.7805 146.277,10.6139 147.5,9.5C 148.004,4.50067 150.67,2.66734 155.5,4C 150.741,5.2759 150.574,6.44257 155,7.5C 157.637,7.34321 160.137,6.67654 162.5,5.5C 163.748,6.04022 164.915,6.70689 166,7.5C 167.32,5.41722 168.654,5.75055 170,8.5C 170.725,6.84202 171.892,6.34202 173.5,7C 171.875,7.85252 171.542,8.85252 172.5,10C 168.551,10.8068 168.551,11.3068 172.5,11.5C 172.357,14.0974 171.523,16.4308 170,18.5C 168.933,17.8095 167.766,17.3095 166.5,17C 165.253,15.0535 163.92,13.2202 162.5,11.5C 161.417,12.365 161.251,13.365 162,14.5C 162.333,14.1667 162.667,13.8333 163,13.5C 163.273,15.1012 163.773,16.6012 164.5,18C 157.629,18.1811 150.795,18.3477 144,18.5C 143.19,15.2095 141.69,15.2095 139.5,18.5C 143.997,19.2485 147.997,20.9151 151.5,23.5C 146.167,24.8333 140.833,24.8333 135.5,23.5C 148.597,21.5816 148.597,20.4149 135.5,20C 139.449,19.1932 139.449,18.6932 135.5,18.5C 136.052,16.6693 136.052,15.0026 135.5,13.5C 136.025,12.8076 136.692,12.3076 137.5,12C 134.997,11.9874 132.497,11.154 130,9.5C 127.51,9.98934 125.676,11.3227 124.5,13.5C 125.376,14.2508 126.376,14.7508 127.5,15C 127.307,16.6453 127.14,18.4787 127,20.5C 125.915,18.627 124.582,16.9603 123,15.5C 122.282,16.4506 121.449,16.6172 120.5,16C 119.883,13.2423 119.716,10.409 120,7.5C 119.683,9.30077 119.016,9.63411 118,8.5C 117.311,9.35668 116.478,10.0233 115.5,10.5C 114.167,9.16667 112.833,9.16667 111.5,10.5C 111.12,12.0207 110.954,13.6874 111,15.5C 109.233,14.1828 107.899,12.5161 107,10.5C 106.228,11.8491 105.061,12.6824 103.5,13C 104.833,13.3333 106.167,13.6667 107.5,14C 107.043,14.414 106.709,14.914 106.5,15.5C 107.274,16.7112 108.107,16.7112 109,15.5C 110.365,16.5929 110.699,17.9262 110,19.5C 108.522,19.2102 107.022,19.2102 105.5,19.5C 104.761,19.631 104.094,19.4643 103.5,19C 104.833,17.1598 104.666,16.6598 103,17.5C 101.915,15.3426 100.749,15.1759 99.5,17C 101.595,17.5556 101.762,18.0556 100,18.5C 97.6483,18.2654 95.1483,18.0988 92.5,18C 90.9391,17.6824 89.7724,16.8491 89,15.5C 88.3333,18.1667 87.6667,18.1667 87,15.5C 86.3333,18.1667 85.6667,18.1667 85,15.5C 84.6232,16.9423 83.7899,17.9423 82.5,18.5C 83.5986,15.1562 83.2652,11.8229 81.5,8.5C 81.1203,10.0207 80.9536,11.6874 81,13.5C 80.195,11.0989 79.3617,11.2656 78.5,14C 80.158,14.7253 80.658,15.892 80,17.5C 75.9637,16.2636 74.797,13.7636 76.5,10C 73.716,9.80019 71.216,10.6335 69,12.5C 68.0546,12.0946 67.3879,11.428 67,10.5C 65.4166,12.6987 65.2499,15.032 66.5,17.5C 72.2076,17.5076 72.5409,17.0076 67.5,16C 68.8333,15.6667 70.1667,15.3333 71.5,15C 70.3463,14.0862 70.513,13.2529 72,12.5C 72.5,13 73,13.5 73.5,14C 72.9491,15.3985 72.6158,16.7318 72.5,18C 74.9288,18.4512 75.0955,19.2845 73,20.5C 72,19.1667 71,19.1667 70,20.5C 67.5145,18.843 65.0145,17.1763 62.5,15.5C 61.3247,16.8549 60.3247,16.6883 59.5,15C 60.7932,14.51 62.1266,14.3433 63.5,14.5C 63.2965,12.6096 63.9632,11.1096 65.5,10C 64.6919,9.69238 64.0253,9.19238 63.5,8.5C 68.9776,7.95463 74.3109,7.1213 79.5,6C 76.0292,4.8118 72.6959,4.14513 69.5,4C 71.8333,3.66667 74.1667,3.33333 76.5,3C 74.6763,2.34001 73.343,1.17335 72.5,-0.5 Z"/></g>
<g><path style="opacity:1" fill="#12d4cc" d="M 120.5,-0.5 C 138.167,-0.5 155.833,-0.5 173.5,-0.5C 175.959,0.803736 177.293,2.63707 177.5,5C 178.5,5.33333 179.5,5.66667 180.5,6C 178.298,7.76796 175.965,8.93462 173.5,9.5C 174.867,9.50363 176.367,10.1703 178,11.5C 178.617,12.4491 178.451,13.2825 177.5,14C 179.569,14.3242 179.902,15.1575 178.5,16.5C 176.5,16.8333 174.5,17.1667 172.5,17.5C 176.072,18.7063 179.738,19.373 183.5,19.5C 183.5,20.5 183.5,21.5 183.5,22.5C 176.869,21.989 170.202,21.8223 163.5,22C 162.02,19.3544 160.687,19.1878 159.5,21.5C 161.042,22.0684 161.875,23.7351 162,26.5C 166.846,24.868 171.679,24.7013 176.5,26C 176.018,27.0084 175.852,28.175 176,29.5C 173.227,28.9285 170.394,27.9285 167.5,26.5C 167.5,28.8333 167.5,31.1667 167.5,33.5C 167.53,34.4972 167.03,35.1639 166,35.5C 158.914,34.107 158.747,34.9404 165.5,38C 163.5,38.3333 161.5,38.6667 159.5,39C 157.841,41.226 158.508,42.8927 161.5,44C 157.903,44.8643 158.07,46.0309 162,47.5C 162.333,47.1667 162.667,46.8333 163,46.5C 163.333,47.8333 163.667,49.1667 164,50.5C 165.396,46.3238 166.896,45.9905 168.5,49.5C 168.291,50.086 167.957,50.586 167.5,51C 171.285,51.2147 174.952,51.3814 178.5,51.5C 174.298,52.5576 170.298,53.8909 166.5,55.5C 165.265,55.7214 164.265,56.3881 163.5,57.5C 162.5,57 161.5,56.5 160.5,56C 160.833,55.6667 161.167,55.3333 161.5,55C 160.809,53.9326 160.309,52.7659 160,51.5C 159.228,52.8491 158.061,53.6824 156.5,54C 157.448,54.4828 158.448,54.6495 159.5,54.5C 159.5,56.1667 159.5,57.8333 159.5,59.5C 156.753,59.8134 154.086,59.48 151.5,58.5C 158.622,58.6746 158.955,57.008 152.5,53.5C 151.502,56.1391 149.836,58.1391 147.5,59.5C 147.36,57.8762 148.027,56.7096 149.5,56C 145.036,53.9849 140.036,53.1516 134.5,53.5C 134.508,59.2076 134.008,59.5409 133,54.5C 131.701,54.9662 130.201,54.9662 128.5,54.5C 128.785,52.712 128.452,51.0453 127.5,49.5C 121.805,49.1278 116.471,47.6278 111.5,45C 116.222,45.4763 119.555,43.643 121.5,39.5C 119.355,38.3175 119.355,36.8175 121.5,35C 119.312,35.2272 116.979,34.8939 114.5,34C 115.579,31.957 117.246,30.6237 119.5,30C 119.167,29.6667 118.833,29.3333 118.5,29C 120.23,27.1476 121.396,27.3143 122,29.5C 124.105,26.9894 123.938,24.6561 121.5,22.5C 119.873,24.6027 117.873,24.936 115.5,23.5C 112.621,24.7952 109.621,25.4618 106.5,25.5C 106.5,24.5 106.5,23.5 106.5,22.5C 105.448,22.6495 104.448,22.4828 103.5,22C 104.381,21.2917 105.047,20.4584 105.5,19.5C 107.022,19.2102 108.522,19.2102 110,19.5C 110.699,17.9262 110.365,16.5929 109,15.5C 108.107,16.7112 107.274,16.7112 106.5,15.5C 106.709,14.914 107.043,14.414 107.5,14C 106.167,13.6667 104.833,13.3333 103.5,13C 105.061,12.6824 106.228,11.8491 107,10.5C 107.899,12.5161 109.233,14.1828 111,15.5C 110.954,13.6874 111.12,12.0207 111.5,10.5C 112.833,9.16667 114.167,9.16667 115.5,10.5C 116.478,10.0233 117.311,9.35668 118,8.5C 119.016,9.63411 119.683,9.30077 120,7.5C 119.716,10.409 119.883,13.2423 120.5,16C 121.449,16.6172 122.282,16.4506 123,15.5C 124.582,16.9603 125.915,18.627 127,20.5C 127.14,18.4787 127.307,16.6453 127.5,15C 126.376,14.7508 125.376,14.2508 124.5,13.5C 125.676,11.3227 127.51,9.98934 130,9.5C 132.497,11.154 134.997,11.9874 137.5,12C 136.692,12.3076 136.025,12.8076 135.5,13.5C 136.052,15.0026 136.052,16.6693 135.5,18.5C 139.449,18.6932 139.449,19.1932 135.5,20C 148.597,20.4149 148.597,21.5816 135.5,23.5C 140.833,24.8333 146.167,24.8333 151.5,23.5C 147.997,20.9151 143.997,19.2485 139.5,18.5C 141.69,15.2095 143.19,15.2095 144,18.5C 150.795,18.3477 157.629,18.1811 164.5,18C 163.773,16.6012 163.273,15.1012 163,13.5C 162.667,13.8333 162.333,14.1667 162,14.5C 161.251,13.365 161.417,12.365 162.5,11.5C 163.92,13.2202 165.253,15.0535 166.5,17C 167.766,17.3095 168.933,17.8095 170,18.5C 171.523,16.4308 172.357,14.0974 172.5,11.5C 168.551,11.3068 168.551,10.8068 172.5,10C 171.542,8.85252 171.875,7.85252 173.5,7C 171.892,6.34202 170.725,6.84202 170,8.5C 168.654,5.75055 167.32,5.41722 166,7.5C 164.915,6.70689 163.748,6.04022 162.5,5.5C 160.137,6.67654 157.637,7.34321 155,7.5C 150.574,6.44257 150.741,5.2759 155.5,4C 150.67,2.66734 148.004,4.50067 147.5,9.5C 146.277,10.6139 144.944,10.7805 143.5,10C 144.308,9.69238 144.975,9.19238 145.5,8.5C 141.898,6.67796 141.898,5.67796 145.5,5.5C 144.597,0.350842 143.264,0.350842 141.5,5.5C 142.14,7.51948 142.14,9.35281 141.5,11C 143.226,12.5298 145.226,13.5298 147.5,14C 146.333,14.5 145.5,15.3333 145,16.5C 144.333,15.1667 143.333,14.1667 142,13.5C 138.295,16.2572 137.795,15.7572 140.5,12C 138.657,9.06956 137.157,5.9029 136,2.5C 133.956,3.00594 131.956,3.33927 130,3.5C 128.739,3.24092 127.739,2.57425 127,1.5C 126.25,2.12576 125.416,2.62576 124.5,3C 127.654,5.77607 130.821,6.27607 134,4.5C 134.692,5.02527 135.192,5.69194 135.5,6.5C 131.06,7.04549 126.727,7.37882 122.5,7.5C 122.286,5.85613 122.62,4.35613 123.5,3C 122.167,2.33333 120.833,1.66667 119.5,1C 120.056,0.617425 120.389,0.117425 120.5,-0.5 Z"/></g>
<g><path style="opacity:1" fill="#15d4cc" d="M 4.5,-0.5 C 27.1667,-0.5 49.8333,-0.5 72.5,-0.5C 73.343,1.17335 74.6763,2.34001 76.5,3C 74.1667,3.33333 71.8333,3.66667 69.5,4C 72.6959,4.14513 76.0292,4.8118 79.5,6C 74.3109,7.1213 68.9776,7.95463 63.5,8.5C 64.0253,9.19238 64.6919,9.69238 65.5,10C 63.9632,11.1096 63.2965,12.6096 63.5,14.5C 62.1266,14.3433 60.7932,14.51 59.5,15C 60.3247,16.6883 61.3247,16.8549 62.5,15.5C 65.0145,17.1763 67.5145,18.843 70,20.5C 71,19.1667 72,19.1667 73,20.5C 75.0955,19.2845 74.9288,18.4512 72.5,18C 72.6158,16.7318 72.9491,15.3985 73.5,14C 73,13.5 72.5,13 72,12.5C 70.513,13.2529 70.3463,14.0862 71.5,15C 70.1667,15.3333 68.8333,15.6667 67.5,16C 72.5409,17.0076 72.2076,17.5076 66.5,17.5C 65.2499,15.032 65.4166,12.6987 67,10.5C 67.3879,11.428 68.0546,12.0946 69,12.5C 71.216,10.6335 73.716,9.80019 76.5,10C 74.797,13.7636 75.9637,16.2636 80,17.5C 80.658,15.892 80.158,14.7253 78.5,14C 79.3617,11.2656 80.195,11.0989 81,13.5C 80.9536,11.6874 81.1203,10.0207 81.5,8.5C 83.2652,11.8229 83.5986,15.1562 82.5,18.5C 82.5,18.8333 82.5,19.1667 82.5,19.5C 81.1779,19.67 80.0113,19.3366 79,18.5C 78.1667,19.3333 77.3333,20.1667 76.5,21C 76.9437,22.5333 77.277,24.0333 77.5,25.5C 75.6531,26.8304 74.1531,26.497 73,24.5C 71.9916,24.9817 70.825,25.1484 69.5,25C 68.9647,27.1087 67.9647,27.6087 66.5,26.5C 66.6854,23.7812 65.8521,21.1146 64,18.5C 61.2595,19.2822 58.4262,19.7822 55.5,20C 58.1667,20.6667 58.1667,21.3333 55.5,22C 56.1079,22.8699 56.9412,23.3699 58,23.5C 59.7659,22.7665 61.5992,22.4332 63.5,22.5C 62.9648,25.2385 63.9648,27.0718 66.5,28C 64.1667,29.6667 61.8333,31.3333 59.5,33C 61.764,33.2362 63.9307,33.7362 66,34.5C 65.7374,33.0494 65.9041,31.7161 66.5,30.5C 67.938,32.7118 69.6046,34.7118 71.5,36.5C 68.9135,37.48 66.2469,37.8134 63.5,37.5C 63.5,36.5 63.5,35.5 63.5,34.5C 60.8333,35.1667 58.1667,35.8333 55.5,36.5C 56.497,38.931 56.497,41.0976 55.5,43C 51.4824,43.1447 47.4824,42.978 43.5,42.5C 40.1883,43.4376 36.855,44.2709 33.5,45C 32.6948,46.9717 31.3615,48.4717 29.5,49.5C 30.2624,49.9106 31.2624,50.0773 32.5,50C 29.3091,51.8116 25.9758,51.9783 22.5,50.5C 21.0562,48.3921 20.3896,46.0588 20.5,43.5C 22.4672,43.7394 24.3005,43.4061 26,42.5C 27.7913,44.5127 29.1247,44.5127 30,42.5C 30.2833,45.7423 31.1166,46.0756 32.5,43.5C 30.8333,41.8333 31.1667,40.8333 33.5,40.5C 38.7172,39.2359 43.8839,39.2359 49,40.5C 49.4922,39.451 49.3256,38.451 48.5,37.5C 44.7652,36.8473 41.0985,36.0139 37.5,35C 38.5,34.5 39.5,34 40.5,33.5C 42.1667,34.8333 43.8333,34.8333 45.5,33.5C 46.6956,33.8457 46.6956,34.3457 45.5,35C 46.1667,35.6667 46.8333,35.6667 47.5,35C 49.0374,32.6872 49.5374,30.1872 49,27.5C 47.5372,29.5697 45.5372,30.9031 43,31.5C 42.0546,31.0946 41.3879,30.428 41,29.5C 40.6667,29.8333 40.3333,30.1667 40,30.5C 39.5078,29.451 39.6744,28.451 40.5,27.5C 38.7408,26.246 37.2408,26.5794 36,28.5C 35.6924,27.6919 35.1924,27.0253 34.5,26.5C 29.7569,26.9307 25.2569,26.9307 21,26.5C 19.7147,26.9504 18.548,27.6171 17.5,28.5C 16.914,28.2907 16.414,27.9574 16,27.5C 15.6378,31.0484 17.1378,33.5484 20.5,35C 17.2152,35.8236 13.8818,36.3236 10.5,36.5C 7.44512,35.7861 4.44512,35.2861 1.5,35C 4.18876,37.766 3.5221,39.5993 -0.5,40.5C -0.5,28.8333 -0.5,17.1667 -0.5,5.5C 1.13696,3.52483 2.80363,1.52483 4.5,-0.5 Z"/></g>
<g><path style="opacity:1" fill="#16d3cb" d="M 173.5,-0.5 C 182.167,-0.5 190.833,-0.5 199.5,-0.5C 199.631,0.376442 199.298,1.04311 198.5,1.5C 197.393,0.978099 196.226,0.644766 195,0.5C 193,1.16667 191,1.83333 189,2.5C 186.932,1.32966 185.099,1.49633 183.5,3C 186.167,3.33333 188.833,3.66667 191.5,4C 192.715,6.09551 193.549,5.92884 194,3.5C 194.667,7.5 195.333,7.5 196,3.5C 196.667,4.83333 197.333,6.16667 198,7.5C 198.915,5.01975 200.415,4.35308 202.5,5.5C 203.328,4.58529 204.328,3.91862 205.5,3.5C 206.26,5.04962 207.427,6.38296 209,7.5C 209.333,7.16667 209.667,6.83333 210,6.5C 214.452,7.14094 218.952,7.80761 223.5,8.5C 222.167,9.16667 220.833,9.83333 219.5,10.5C 223.768,14.9908 222.934,18.3242 217,20.5C 216.333,19.1667 215.667,19.1667 215,20.5C 214.833,20 214.667,19.5 214.5,19C 217.904,18.1804 218.07,16.347 215,13.5C 214.213,14.7107 213.546,15.7107 213,16.5C 208.474,15.1558 203.974,14.6558 199.5,15C 202.028,14.3311 202.028,13.4978 199.5,12.5C 198.5,13 197.5,13.5 196.5,14C 197.826,16.1584 199.493,17.9918 201.5,19.5C 200.984,18.2418 201.65,17.2418 203.5,16.5C 204.711,17.2739 204.711,18.1072 203.5,19C 206.007,19.0929 208.174,19.9262 210,21.5C 210.333,21.1667 210.667,20.8333 211,20.5C 211.49,21.7932 211.657,23.1266 211.5,24.5C 206.087,24.2288 200.754,24.7288 195.5,26C 199.439,26.9774 200.439,29.3108 198.5,33C 201.029,34.062 203.696,34.8953 206.5,35.5C 212.167,36.1667 217.833,36.8333 223.5,37.5C 223.023,38.4776 222.357,39.3109 221.5,40C 221.728,40.3988 222.062,40.5654 222.5,40.5C 219.023,41.3227 215.356,41.8227 211.5,42C 212.793,42.49 214.127,42.6567 215.5,42.5C 215.704,45.5453 215.704,48.3787 215.5,51C 216.167,51.3333 216.833,51.6667 217.5,52C 216.382,53.0736 215.382,54.2402 214.5,55.5C 214.168,54.2114 213.834,52.5447 213.5,50.5C 212.5,50.5 211.5,50.5 210.5,50.5C 210.034,52.2012 210.034,53.7012 210.5,55C 208.125,57.4067 207.125,56.9067 207.5,53.5C 202.925,53.6242 198.592,53.9575 194.5,54.5C 191.083,53.7786 190.75,52.112 193.5,49.5C 192.48,47.5675 192.313,45.5675 193,43.5C 197.364,42.2943 197.531,42.7943 193.5,45C 194.766,45.3095 195.933,45.8095 197,46.5C 198.197,37.6358 199.697,37.3025 201.5,45.5C 202.654,43.1441 203.987,42.9774 205.5,45C 204.275,48.7978 201.608,50.9644 197.5,51.5C 197.667,51.8333 197.833,52.1667 198,52.5C 201.129,51.8702 204.296,51.2036 207.5,50.5C 207.519,48.8945 207.353,47.2278 207,45.5C 207.833,46.3333 208.667,47.1667 209.5,48C 208.209,51.0254 208.876,51.3587 211.5,49C 210.167,47.3333 210.167,45.6667 211.5,44C 209.687,44.0464 208.021,43.8797 206.5,43.5C 207.729,42.7189 209.062,42.2189 210.5,42C 208.485,41.5757 206.651,40.7424 205,39.5C 204.055,39.9054 203.388,40.572 203,41.5C 201.353,38.518 199.353,35.8513 197,33.5C 195.667,36.1667 194.333,38.8333 193,41.5C 190.031,41.4806 186.865,41.3139 183.5,41C 183.833,40.6667 184.167,40.3333 184.5,40C 183.584,39.6258 182.75,39.1258 182,38.5C 180,39.1667 178,39.8333 176,40.5C 175.735,38.8374 176.235,37.3374 177.5,36C 176.034,35.3645 174.7,34.5312 173.5,33.5C 171.468,34.819 169.468,34.819 167.5,33.5C 167.5,31.1667 167.5,28.8333 167.5,26.5C 170.394,27.9285 173.227,28.9285 176,29.5C 175.852,28.175 176.018,27.0084 176.5,26C 171.679,24.7013 166.846,24.868 162,26.5C 161.875,23.7351 161.042,22.0684 159.5,21.5C 160.687,19.1878 162.02,19.3544 163.5,22C 170.202,21.8223 176.869,21.989 183.5,22.5C 183.5,21.5 183.5,20.5 183.5,19.5C 179.738,19.373 176.072,18.7063 172.5,17.5C 174.5,17.1667 176.5,16.8333 178.5,16.5C 179.902,15.1575 179.569,14.3242 177.5,14C 178.451,13.2825 178.617,12.4491 178,11.5C 176.367,10.1703 174.867,9.50363 173.5,9.5C 175.965,8.93462 178.298,7.76796 180.5,6C 179.5,5.66667 178.5,5.33333 177.5,5C 177.293,2.63707 175.959,0.803736 173.5,-0.5 Z"/></g>
<g><path style="opacity:1" fill="#15d4cb" d="M 105.5,19.5 C 105.047,20.4584 104.381,21.2917 103.5,22C 104.448,22.4828 105.448,22.6495 106.5,22.5C 106.5,23.5 106.5,24.5 106.5,25.5C 109.621,25.4618 112.621,24.7952 115.5,23.5C 117.873,24.936 119.873,24.6027 121.5,22.5C 123.938,24.6561 124.105,26.9894 122,29.5C 121.396,27.3143 120.23,27.1476 118.5,29C 118.833,29.3333 119.167,29.6667 119.5,30C 117.246,30.6237 115.579,31.957 114.5,34C 116.979,34.8939 119.312,35.2272 121.5,35C 119.355,36.8175 119.355,38.3175 121.5,39.5C 119.555,43.643 116.222,45.4763 111.5,45C 116.471,47.6278 121.805,49.1278 127.5,49.5C 128.452,51.0453 128.785,52.712 128.5,54.5C 130.201,54.9662 131.701,54.9662 133,54.5C 134.008,59.5409 134.508,59.2076 134.5,53.5C 140.036,53.1516 145.036,53.9849 149.5,56C 148.027,56.7096 147.36,57.8762 147.5,59.5C 148.301,61.0418 148.634,62.7085 148.5,64.5C 142.359,61.0823 135.692,59.7489 128.5,60.5C 128.579,57.7294 128.079,55.0627 127,52.5C 126.583,51.244 125.75,50.5774 124.5,50.5C 122.372,49.3709 120.039,49.2042 117.5,50C 115.689,51.0407 115.355,52.2073 116.5,53.5C 116.927,56.3761 117.594,59.2094 118.5,62C 118.252,63.7491 117.252,64.5824 115.5,64.5C 115.795,54.9387 111.628,51.9387 103,55.5C 102.235,57.0657 102.402,58.3991 103.5,59.5C 104.628,62.8852 104.628,66.2186 103.5,69.5C 99.6873,70.1596 96.0207,71.3262 92.5,73C 91.1991,74.6155 91.1991,76.1155 92.5,77.5C 92.3284,78.4916 92.6618,79.1583 93.5,79.5C 96.2869,80.4767 99.2869,80.81 102.5,80.5C 104.243,83.4952 105.243,86.8285 105.5,90.5C 101.426,90.2182 97.426,89.5515 93.5,88.5C 92.4767,86.1542 91.4767,83.8209 90.5,81.5C 86.8333,81.5 83.1667,81.5 79.5,81.5C 80.3339,80.2521 81.6672,79.5854 83.5,79.5C 86.7234,81.2182 89.0568,80.5515 90.5,77.5C 90.1667,76.8333 89.8333,76.1667 89.5,75.5C 86.6169,75.8723 83.6169,75.8723 80.5,75.5C 80.6427,73.7376 80.3094,72.0709 79.5,70.5C 76.2329,69.9918 73.2329,69.8251 70.5,70C 71.1667,69.3333 71.8333,68.6667 72.5,68C 74.9005,67.8142 77.2338,67.3142 79.5,66.5C 78.7498,64.0698 78.4165,61.7365 78.5,59.5C 80.0565,57.2985 81.2232,57.2985 82,59.5C 82.1667,59 82.3333,58.5 82.5,58C 81.3095,56.1869 79.9762,55.3535 78.5,55.5C 81.7041,54.7964 84.8708,54.1298 88,53.5C 88.6667,54.1667 89.3333,54.8333 90,55.5C 91.425,54.7877 92.925,54.621 94.5,55C 97.7104,53.8185 98.2104,51.9852 96,49.5C 95.6667,49.8333 95.3333,50.1667 95,50.5C 93.4905,49.9103 91.9905,49.2436 90.5,48.5C 92.5224,42.316 96.8558,39.9827 103.5,41.5C 103.5,40.5 103.5,39.5 103.5,38.5C 105.288,38.7852 106.955,38.4519 108.5,37.5C 107.829,36.0542 106.662,35.3875 105,35.5C 100.808,36.0026 96.6413,36.6693 92.5,37.5C 97.9735,39.48 97.8068,40.8133 92,41.5C 90.6992,40.1068 89.1992,39.6068 87.5,40C 87.9437,41.5333 88.277,43.0333 88.5,44.5C 87.5022,47.0278 86.6689,47.0278 86,44.5C 85.3551,45.646 84.5217,46.646 83.5,47.5C 84.3256,48.451 84.4922,49.451 84,50.5C 83.1667,49.5 82.3333,48.5 81.5,47.5C 80.2507,49.4755 78.7507,49.8088 77,48.5C 76.0327,55.6315 71.866,59.6315 64.5,60.5C 62.8624,59.2954 62.5291,57.9621 63.5,56.5C 61.4244,55.9003 59.4244,55.567 57.5,55.5C 57.0604,56.698 56.727,57.8647 56.5,59C 58.8642,60.0118 60.1976,61.3451 60.5,63C 58.9751,64.0086 57.3084,64.5086 55.5,64.5C 55.5923,68.0714 53.9257,69.2381 50.5,68C 51.5,67.6667 52.5,67.3333 53.5,67C 52.0118,65.2828 50.1785,64.1161 48,63.5C 47.51,62.2068 47.3433,60.8734 47.5,59.5C 48.5,59.5 49.5,59.5 50.5,59.5C 50.2991,56.2352 51.4657,53.5685 54,51.5C 57.2046,53.181 60.7046,54.181 64.5,54.5C 67.0754,51.8002 66.742,50.4668 63.5,50.5C 64.2954,46.406 62.962,43.2393 59.5,41C 62.0941,41.0478 64.7607,41.2145 67.5,41.5C 70.0432,41.3603 72.3766,40.6937 74.5,39.5C 74.5117,42.2599 75.845,42.7599 78.5,41C 77.6634,39.9887 77.33,38.8221 77.5,37.5C 75.8008,37.6602 74.1341,37.4935 72.5,37C 75.5685,37.0481 77.9018,35.8814 79.5,33.5C 78.9747,32.8076 78.3081,32.3076 77.5,32C 79,31.1667 80.1667,30 81,28.5C 84.7636,30.203 87.2636,29.0363 88.5,25C 91.0432,24.8603 93.3766,24.1937 95.5,23C 90.5,22.3333 85.5,22.3333 80.5,23C 82.7148,23.1705 84.7148,23.8372 86.5,25C 84.1546,25.1699 81.8212,24.8365 79.5,24C 78.3595,23.2588 78.3595,22.4255 79.5,21.5C 85.1376,20.6701 90.8042,20.1701 96.5,20C 91.8452,19.5008 87.1785,19.3342 82.5,19.5C 82.5,19.1667 82.5,18.8333 82.5,18.5C 83.7899,17.9423 84.6232,16.9423 85,15.5C 85.6667,18.1667 86.3333,18.1667 87,15.5C 87.6667,18.1667 88.3333,18.1667 89,15.5C 89.7724,16.8491 90.9391,17.6824 92.5,18C 95.1483,18.0988 97.6483,18.2654 100,18.5C 101.762,18.0556 101.595,17.5556 99.5,17C 100.749,15.1759 101.915,15.3426 103,17.5C 104.666,16.6598 104.833,17.1598 103.5,19C 104.094,19.4643 104.761,19.631 105.5,19.5 Z"/></g>
<g><path style="opacity:1" fill="#15d4cc" d="M 199.5,-0.5 C 216.167,-0.5 232.833,-0.5 249.5,-0.5C 251.475,1.13696 253.475,2.80363 255.5,4.5C 255.5,22.1667 255.5,39.8333 255.5,57.5C 254.691,56.5313 253.691,55.6979 252.5,55C 253.167,54.6667 253.833,54.3333 254.5,54C 252.82,53.9657 251.32,53.799 250,53.5C 248.148,51.7703 248.314,50.6036 250.5,50C 249.5,49.6667 248.5,49.3333 247.5,49C 248.654,48.0862 248.487,47.2529 247,46.5C 245.255,47.9557 243.422,49.289 241.5,50.5C 241.833,50.8333 242.167,51.1667 242.5,51.5C 244.071,50.6906 245.738,50.3573 247.5,50.5C 247.703,52.3904 247.037,53.8904 245.5,55C 247.701,55.7768 247.701,56.9435 245.5,58.5C 243.522,57.8686 241.355,57.8686 239,58.5C 236.904,57.2845 237.071,56.4512 239.5,56C 237.731,54.9806 236.064,54.814 234.5,55.5C 230.237,53.328 226.07,53.328 222,55.5C 221.107,54.2888 220.274,54.2888 219.5,55.5C 220.025,56.1924 220.692,56.6924 221.5,57C 220.448,58.1192 219.281,58.6192 218,58.5C 218.148,57.175 217.982,56.0084 217.5,55C 219.037,53.8904 219.703,52.3904 219.5,50.5C 220.833,50.5 222.167,50.5 223.5,50.5C 223.62,47.2606 223.953,43.9272 224.5,40.5C 224.03,39.537 223.363,39.537 222.5,40.5C 222.062,40.5654 221.728,40.3988 221.5,40C 222.357,39.3109 223.023,38.4776 223.5,37.5C 217.833,36.8333 212.167,36.1667 206.5,35.5C 203.696,34.8953 201.029,34.062 198.5,33C 200.439,29.3108 199.439,26.9774 195.5,26C 200.754,24.7288 206.087,24.2288 211.5,24.5C 211.657,23.1266 211.49,21.7932 211,20.5C 210.667,20.8333 210.333,21.1667 210,21.5C 208.174,19.9262 206.007,19.0929 203.5,19C 204.711,18.1072 204.711,17.2739 203.5,16.5C 201.65,17.2418 200.984,18.2418 201.5,19.5C 199.493,17.9918 197.826,16.1584 196.5,14C 197.5,13.5 198.5,13 199.5,12.5C 202.028,13.4978 202.028,14.3311 199.5,15C 203.974,14.6558 208.474,15.1558 213,16.5C 213.546,15.7107 214.213,14.7107 215,13.5C 218.07,16.347 217.904,18.1804 214.5,19C 214.667,19.5 214.833,20 215,20.5C 215.667,19.1667 216.333,19.1667 217,20.5C 222.934,18.3242 223.768,14.9908 219.5,10.5C 220.833,9.83333 222.167,9.16667 223.5,8.5C 218.952,7.80761 214.452,7.14094 210,6.5C 209.667,6.83333 209.333,7.16667 209,7.5C 207.427,6.38296 206.26,5.04962 205.5,3.5C 204.328,3.91862 203.328,4.58529 202.5,5.5C 200.415,4.35308 198.915,5.01975 198,7.5C 197.333,6.16667 196.667,4.83333 196,3.5C 195.333,7.5 194.667,7.5 194,3.5C 193.549,5.92884 192.715,6.09551 191.5,4C 188.833,3.66667 186.167,3.33333 183.5,3C 185.099,1.49633 186.932,1.32966 189,2.5C 191,1.83333 193,1.16667 195,0.5C 196.226,0.644766 197.393,0.978099 198.5,1.5C 199.298,1.04311 199.631,0.376442 199.5,-0.5 Z"/></g>
<g><path style="opacity:1" fill="#16d3cb" d="M 82.5,19.5 C 87.1785,19.3342 91.8452,19.5008 96.5,20C 90.8042,20.1701 85.1376,20.6701 79.5,21.5C 78.3595,22.4255 78.3595,23.2588 79.5,24C 81.8212,24.8365 84.1546,25.1699 86.5,25C 84.7148,23.8372 82.7148,23.1705 80.5,23C 85.5,22.3333 90.5,22.3333 95.5,23C 93.3766,24.1937 91.0432,24.8603 88.5,25C 87.2636,29.0363 84.7636,30.203 81,28.5C 80.1667,30 79,31.1667 77.5,32C 78.3081,32.3076 78.9747,32.8076 79.5,33.5C 77.9018,35.8814 75.5685,37.0481 72.5,37C 74.1341,37.4935 75.8008,37.6602 77.5,37.5C 77.33,38.8221 77.6634,39.9887 78.5,41C 75.845,42.7599 74.5117,42.2599 74.5,39.5C 72.3766,40.6937 70.0432,41.3603 67.5,41.5C 64.7607,41.2145 62.0941,41.0478 59.5,41C 62.962,43.2393 64.2954,46.406 63.5,50.5C 66.742,50.4668 67.0754,51.8002 64.5,54.5C 60.7046,54.181 57.2046,53.181 54,51.5C 51.4657,53.5685 50.2991,56.2352 50.5,59.5C 49.5,59.5 48.5,59.5 47.5,59.5C 48.0668,57.9705 48.7334,56.4705 49.5,55C 48.6198,53.6439 48.2865,52.1439 48.5,50.5C 43.7984,50.9976 39.7984,49.6643 36.5,46.5C 35.5745,47.6405 34.7412,47.6405 34,46.5C 33.2506,47.635 33.4173,48.635 34.5,49.5C 35.451,48.6744 36.451,48.5078 37.5,49C 37.1667,49.3333 36.8333,49.6667 36.5,50C 38.6722,52.4927 39.5056,55.3261 39,58.5C 37.907,56.6508 36.5737,54.9842 35,53.5C 34.586,53.9574 34.086,54.2907 33.5,54.5C 29.5548,53.7315 25.5548,53.2315 21.5,53C 19.0634,49.918 16.3967,49.7513 13.5,52.5C 12.4104,51.6086 12.4104,50.6086 13.5,49.5C 11.0435,46.7777 10.3769,46.9443 11.5,50C 10.6721,50.9147 9.67209,51.5814 8.5,52C 10.25,53.7542 10.9167,55.9208 10.5,58.5C 9.44802,58.6495 8.44802,58.4828 7.5,58C 7.66506,56.8831 7.9984,55.7164 8.5,54.5C 5.57186,53.5159 2.57186,53.1826 -0.5,53.5C -0.5,49.1667 -0.5,44.8333 -0.5,40.5C 3.5221,39.5993 4.18876,37.766 1.5,35C 4.44512,35.2861 7.44512,35.7861 10.5,36.5C 13.8818,36.3236 17.2152,35.8236 20.5,35C 17.1378,33.5484 15.6378,31.0484 16,27.5C 16.414,27.9574 16.914,28.2907 17.5,28.5C 18.548,27.6171 19.7147,26.9504 21,26.5C 25.2569,26.9307 29.7569,26.9307 34.5,26.5C 35.1924,27.0253 35.6924,27.6919 36,28.5C 37.2408,26.5794 38.7408,26.246 40.5,27.5C 39.6744,28.451 39.5078,29.451 40,30.5C 40.3333,30.1667 40.6667,29.8333 41,29.5C 41.3879,30.428 42.0546,31.0946 43,31.5C 45.5372,30.9031 47.5372,29.5697 49,27.5C 49.5374,30.1872 49.0374,32.6872 47.5,35C 46.8333,35.6667 46.1667,35.6667 45.5,35C 46.6956,34.3457 46.6956,33.8457 45.5,33.5C 43.8333,34.8333 42.1667,34.8333 40.5,33.5C 39.5,34 38.5,34.5 37.5,35C 41.0985,36.0139 44.7652,36.8473 48.5,37.5C 49.3256,38.451 49.4922,39.451 49,40.5C 43.8839,39.2359 38.7172,39.2359 33.5,40.5C 31.1667,40.8333 30.8333,41.8333 32.5,43.5C 31.1166,46.0756 30.2833,45.7423 30,42.5C 29.1247,44.5127 27.7913,44.5127 26,42.5C 24.3005,43.4061 22.4672,43.7394 20.5,43.5C 20.3896,46.0588 21.0562,48.3921 22.5,50.5C 25.9758,51.9783 29.3091,51.8116 32.5,50C 31.2624,50.0773 30.2624,49.9106 29.5,49.5C 31.3615,48.4717 32.6948,46.9717 33.5,45C 36.855,44.2709 40.1883,43.4376 43.5,42.5C 47.4824,42.978 51.4824,43.1447 55.5,43C 56.497,41.0976 56.497,38.931 55.5,36.5C 58.1667,35.8333 60.8333,35.1667 63.5,34.5C 63.5,35.5 63.5,36.5 63.5,37.5C 66.2469,37.8134 68.9135,37.48 71.5,36.5C 69.6046,34.7118 67.938,32.7118 66.5,30.5C 65.9041,31.7161 65.7374,33.0494 66,34.5C 63.9307,33.7362 61.764,33.2362 59.5,33C 61.8333,31.3333 64.1667,29.6667 66.5,28C 63.9648,27.0718 62.9648,25.2385 63.5,22.5C 61.5992,22.4332 59.7659,22.7665 58,23.5C 56.9412,23.3699 56.1079,22.8699 55.5,22C 58.1667,21.3333 58.1667,20.6667 55.5,20C 58.4262,19.7822 61.2595,19.2822 64,18.5C 65.8521,21.1146 66.6854,23.7812 66.5,26.5C 67.9647,27.6087 68.9647,27.1087 69.5,25C 70.825,25.1484 71.9916,24.9817 73,24.5C 74.1531,26.497 75.6531,26.8304 77.5,25.5C 77.277,24.0333 76.9437,22.5333 76.5,21C 77.3333,20.1667 78.1667,19.3333 79,18.5C 80.0113,19.3366 81.1779,19.67 82.5,19.5 Z"/></g>
<g><path style="opacity:1" fill="#14d5cc" d="M 167.5,33.5 C 169.468,34.819 171.468,34.819 173.5,33.5C 174.7,34.5312 176.034,35.3645 177.5,36C 176.235,37.3374 175.735,38.8374 176,40.5C 178,39.8333 180,39.1667 182,38.5C 182.75,39.1258 183.584,39.6258 184.5,40C 184.167,40.3333 183.833,40.6667 183.5,41C 186.865,41.3139 190.031,41.4806 193,41.5C 194.333,38.8333 195.667,36.1667 197,33.5C 199.353,35.8513 201.353,38.518 203,41.5C 203.388,40.572 204.055,39.9054 205,39.5C 206.651,40.7424 208.485,41.5757 210.5,42C 209.062,42.2189 207.729,42.7189 206.5,43.5C 208.021,43.8797 209.687,44.0464 211.5,44C 210.167,45.6667 210.167,47.3333 211.5,49C 208.876,51.3587 208.209,51.0254 209.5,48C 208.667,47.1667 207.833,46.3333 207,45.5C 207.353,47.2278 207.519,48.8945 207.5,50.5C 204.296,51.2036 201.129,51.8702 198,52.5C 197.833,52.1667 197.667,51.8333 197.5,51.5C 201.608,50.9644 204.275,48.7978 205.5,45C 203.987,42.9774 202.654,43.1441 201.5,45.5C 199.697,37.3025 198.197,37.6358 197,46.5C 195.933,45.8095 194.766,45.3095 193.5,45C 197.531,42.7943 197.364,42.2943 193,43.5C 192.313,45.5675 192.48,47.5675 193.5,49.5C 190.75,52.112 191.083,53.7786 194.5,54.5C 198.592,53.9575 202.925,53.6242 207.5,53.5C 207.125,56.9067 208.125,57.4067 210.5,55C 210.034,53.7012 210.034,52.2012 210.5,50.5C 211.5,50.5 212.5,50.5 213.5,50.5C 213.834,52.5447 214.168,54.2114 214.5,55.5C 215.382,54.2402 216.382,53.0736 217.5,52C 216.833,51.6667 216.167,51.3333 215.5,51C 215.704,48.3787 215.704,45.5453 215.5,42.5C 214.127,42.6567 212.793,42.49 211.5,42C 215.356,41.8227 219.023,41.3227 222.5,40.5C 223.363,39.537 224.03,39.537 224.5,40.5C 223.953,43.9272 223.62,47.2606 223.5,50.5C 222.167,50.5 220.833,50.5 219.5,50.5C 219.703,52.3904 219.037,53.8904 217.5,55C 217.982,56.0084 218.148,57.175 218,58.5C 219.281,58.6192 220.448,58.1192 221.5,57C 220.692,56.6924 220.025,56.1924 219.5,55.5C 220.274,54.2888 221.107,54.2888 222,55.5C 226.07,53.328 230.237,53.328 234.5,55.5C 236.064,54.814 237.731,54.9806 239.5,56C 237.071,56.4512 236.904,57.2845 239,58.5C 241.355,57.8686 243.522,57.8686 245.5,58.5C 247.701,56.9435 247.701,55.7768 245.5,55C 247.037,53.8904 247.703,52.3904 247.5,50.5C 245.738,50.3573 244.071,50.6906 242.5,51.5C 242.167,51.1667 241.833,50.8333 241.5,50.5C 243.422,49.289 245.255,47.9557 247,46.5C 248.487,47.2529 248.654,48.0862 247.5,49C 248.5,49.3333 249.5,49.6667 250.5,50C 248.314,50.6036 248.148,51.7703 250,53.5C 251.32,53.799 252.82,53.9657 254.5,54C 253.833,54.3333 253.167,54.6667 252.5,55C 253.691,55.6979 254.691,56.5313 255.5,57.5C 255.5,64.8333 255.5,72.1667 255.5,79.5C 252.09,79.6162 250.756,77.9496 251.5,74.5C 250.178,74.33 249.011,74.6634 248,75.5C 247.333,74.5 247.333,73.5 248,72.5C 251.346,73.0891 251.346,72.4224 248,70.5C 246.149,72.7811 244.482,72.7811 243,70.5C 240.464,71.879 238.131,72.879 236,73.5C 235.333,71.8333 235.333,70.1667 236,68.5C 237.32,70.5828 238.654,70.2494 240,67.5C 243.047,68.245 246.047,68.5783 249,68.5C 250.985,66.7651 250.651,65.4317 248,64.5C 243.824,65.5694 239.824,64.9028 236,62.5C 234.923,60.4906 233.757,58.1573 232.5,55.5C 229.5,55.5 226.5,55.5 223.5,55.5C 223.762,56.9778 223.429,58.3112 222.5,59.5C 220.223,59.0145 218.056,59.6812 216,61.5C 215.374,59.0087 214.541,59.0087 213.5,61.5C 209.998,61.1177 206.998,59.7843 204.5,57.5C 204.467,58.989 203.967,60.3224 203,61.5C 201.927,60.7203 200.76,60.887 199.5,62C 201.513,62.8753 201.513,64.2087 199.5,66C 200.672,67.8684 200.505,69.7017 199,71.5C 197.27,63.2212 192.603,61.2212 185,65.5C 183.829,64.1068 182.329,63.2735 180.5,63C 183.613,61.3745 186.779,61.2078 190,62.5C 191.762,62.0556 191.595,61.5556 189.5,61C 190.167,60.6667 190.833,60.3333 191.5,60C 187.756,59.0715 184.256,59.5715 181,61.5C 179.301,60.5939 177.467,60.2606 175.5,60.5C 175.541,64.2434 174.874,64.4101 173.5,61C 176.167,58.7597 175.667,57.2597 172,56.5C 170.984,57.6341 170.317,57.3008 170,55.5C 168.933,57.2826 167.433,57.7826 165.5,57C 166.056,56.6174 166.389,56.1174 166.5,55.5C 170.298,53.8909 174.298,52.5576 178.5,51.5C 174.952,51.3814 171.285,51.2147 167.5,51C 167.957,50.586 168.291,50.086 168.5,49.5C 166.896,45.9905 165.396,46.3238 164,50.5C 163.667,49.1667 163.333,47.8333 163,46.5C 162.667,46.8333 162.333,47.1667 162,47.5C 158.07,46.0309 157.903,44.8643 161.5,44C 158.508,42.8927 157.841,41.226 159.5,39C 161.5,38.6667 163.5,38.3333 165.5,38C 158.747,34.9404 158.914,34.107 166,35.5C 167.03,35.1639 167.53,34.4972 167.5,33.5 Z"/></g>
<g><path style="opacity:1" fill="#e0ca9d" d="M 124.5,50.5 C 124.062,50.4346 123.728,50.6012 123.5,51C 124.227,53.124 124.894,55.2906 125.5,57.5C 125.043,58.2975 124.376,58.6309 123.5,58.5C 121.72,57.0101 121.054,55.0101 121.5,52.5C 119.585,52.2155 117.919,52.5489 116.5,53.5C 115.355,52.2073 115.689,51.0407 117.5,50C 120.039,49.2042 122.372,49.3709 124.5,50.5 Z"/></g>
<g><path style="opacity:1" fill="#dac298" d="M 115.5,64.5 C 113.894,63.6409 112.227,63.4742 110.5,64C 109.671,62.1839 108.837,60.3506 108,58.5C 106.89,56.9632 105.39,56.2965 103.5,56.5C 103.5,57.5 103.5,58.5 103.5,59.5C 102.402,58.3991 102.235,57.0657 103,55.5C 111.628,51.9387 115.795,54.9387 115.5,64.5 Z"/></g>
<g><path style="opacity:1" fill="#15d4cc" d="M 166.5,55.5 C 166.389,56.1174 166.056,56.6174 165.5,57C 167.433,57.7826 168.933,57.2826 170,55.5C 170.317,57.3008 170.984,57.6341 172,56.5C 175.667,57.2597 176.167,58.7597 173.5,61C 174.874,64.4101 175.541,64.2434 175.5,60.5C 177.467,60.2606 179.301,60.5939 181,61.5C 184.256,59.5715 187.756,59.0715 191.5,60C 190.833,60.3333 190.167,60.6667 189.5,61C 191.595,61.5556 191.762,62.0556 190,62.5C 186.779,61.2078 183.613,61.3745 180.5,63C 182.329,63.2735 183.829,64.1068 185,65.5C 192.603,61.2212 197.27,63.2212 199,71.5C 200.505,69.7017 200.672,67.8684 199.5,66C 201.513,64.2087 201.513,62.8753 199.5,62C 200.76,60.887 201.927,60.7203 203,61.5C 203.967,60.3224 204.467,58.989 204.5,57.5C 206.998,59.7843 209.998,61.1177 213.5,61.5C 214.541,59.0087 215.374,59.0087 216,61.5C 218.056,59.6812 220.223,59.0145 222.5,59.5C 223.429,58.3112 223.762,56.9778 223.5,55.5C 226.5,55.5 229.5,55.5 232.5,55.5C 233.757,58.1573 234.923,60.4906 236,62.5C 239.824,64.9028 243.824,65.5694 248,64.5C 250.651,65.4317 250.985,66.7651 249,68.5C 246.047,68.5783 243.047,68.245 240,67.5C 238.654,70.2494 237.32,70.5828 236,68.5C 235.333,70.1667 235.333,71.8333 236,73.5C 238.131,72.879 240.464,71.879 243,70.5C 244.482,72.7811 246.149,72.7811 248,70.5C 251.346,72.4224 251.346,73.0891 248,72.5C 247.333,73.5 247.333,74.5 248,75.5C 249.011,74.6634 250.178,74.33 251.5,74.5C 250.756,77.9496 252.09,79.6162 255.5,79.5C 255.5,89.8333 255.5,100.167 255.5,110.5C 251.568,110.74 248.734,109.073 247,105.5C 245.286,106.925 243.953,106.592 243,104.5C 241.377,106.628 239.211,107.961 236.5,108.5C 237.902,109.842 237.569,110.676 235.5,111C 231.113,111.226 226.779,111.726 222.5,112.5C 219.381,111.306 219.048,109.806 221.5,108C 226.09,108.543 230.757,108.543 235.5,108C 234.437,106.812 233.103,106.312 231.5,106.5C 231.986,104.193 231.986,102.027 231.5,100C 232,99.5 232.5,99 233,98.5C 234.518,98.0574 235.685,98.7241 236.5,100.5C 238.721,99.0475 241.054,97.8808 243.5,97C 239.26,96.8842 235.093,97.3842 231,98.5C 231.077,97.2624 230.911,96.2624 230.5,95.5C 229.614,96.325 229.281,97.325 229.5,98.5C 224.142,96.693 216.809,96.0263 207.5,96.5C 207.5,94.8333 207.5,93.1667 207.5,91.5C 210.448,91.2229 213.281,91.5562 216,92.5C 217.701,90.976 217.201,89.976 214.5,89.5C 213.914,89.7093 213.414,90.0426 213,90.5C 212.71,88.9559 212.044,87.6226 211,86.5C 210.316,87.7839 210.483,88.9505 211.5,90C 208.07,90.6378 206.737,89.1378 207.5,85.5C 209.288,85.7852 210.955,85.4519 212.5,84.5C 212.333,84.1667 212.167,83.8333 212,83.5C 209.724,84.645 207.557,84.3117 205.5,82.5C 201.058,83.8168 196.725,83.4834 192.5,81.5C 191.209,79.4098 191.876,78.0764 194.5,77.5C 195.216,78.311 196.05,78.9777 197,79.5C 200.536,79.8396 204.036,79.3396 207.5,78C 203.958,77.5732 200.792,76.4066 198,74.5C 196.482,74.0574 195.315,74.7241 194.5,76.5C 193.417,75.635 193.251,74.635 194,73.5C 197.081,72.0554 197.747,70.0554 196,67.5C 195.481,68.5156 194.647,69.1822 193.5,69.5C 190.868,68.5601 188.202,68.3934 185.5,69C 187.715,69.1705 189.715,69.8372 191.5,71C 188.447,71.1786 185.447,71.6786 182.5,72.5C 183.214,75.8031 182.047,75.8031 179,72.5C 177.951,73.5171 176.784,73.6838 175.5,73C 174.348,70.8513 172.848,69.018 171,67.5C 170.626,68.4162 170.126,69.2496 169.5,70C 173.462,72.6515 173.462,75.1515 169.5,77.5C 167.971,77.4712 166.804,76.8045 166,75.5C 163.358,77.4578 161.858,80.1245 161.5,83.5C 159.568,84.5202 157.568,84.6869 155.5,84C 157.303,83.3632 158.636,82.1965 159.5,80.5C 158.349,79.269 157.183,79.269 156,80.5C 155.667,79.8333 155.333,79.1667 155,78.5C 154.997,75.3479 154.83,72.0146 154.5,68.5C 157.249,68.2739 159.916,68.6072 162.5,69.5C 164.517,68.8257 166.183,67.6591 167.5,66C 162.045,65.2138 156.712,64.0471 151.5,62.5C 150.735,63.6119 149.735,64.2786 148.5,64.5C 148.634,62.7085 148.301,61.0418 147.5,59.5C 149.836,58.1391 151.502,56.1391 152.5,53.5C 158.955,57.008 158.622,58.6746 151.5,58.5C 154.086,59.48 156.753,59.8134 159.5,59.5C 159.5,57.8333 159.5,56.1667 159.5,54.5C 158.448,54.6495 157.448,54.4828 156.5,54C 158.061,53.6824 159.228,52.8491 160,51.5C 160.309,52.7659 160.809,53.9326 161.5,55C 161.167,55.3333 160.833,55.6667 160.5,56C 161.5,56.5 162.5,57 163.5,57.5C 164.265,56.3881 165.265,55.7214 166.5,55.5 Z"/></g>
<g><path style="opacity:1" fill="#e4b962" d="M 123.5,58.5 C 123.33,59.8221 123.663,60.9887 124.5,62C 129.167,62.3333 133.833,62.6667 138.5,63C 140.078,64.0945 141.745,64.9278 143.5,65.5C 144.15,67.4352 144.483,69.4352 144.5,71.5C 142.335,68.217 139.501,65.5504 136,63.5C 132.155,64.7889 128.322,64.7889 124.5,63.5C 123.206,62.7101 122.039,61.7101 121,60.5C 120.749,62.433 120.249,64.2663 119.5,66C 115.445,69.4678 111.612,69.3011 108,65.5C 107.252,67.751 105.752,69.0844 103.5,69.5C 104.628,66.2186 104.628,62.8852 103.5,59.5C 103.5,58.5 103.5,57.5 103.5,56.5C 105.39,56.2965 106.89,56.9632 108,58.5C 108.837,60.3506 109.671,62.1839 110.5,64C 112.227,63.4742 113.894,63.6409 115.5,64.5C 117.252,64.5824 118.252,63.7491 118.5,62C 117.594,59.2094 116.927,56.3761 116.5,53.5C 117.919,52.5489 119.585,52.2155 121.5,52.5C 121.054,55.0101 121.72,57.0101 123.5,58.5 Z"/></g>
<g><path style="opacity:1" fill="#deca91" d="M 124.5,50.5 C 125.75,50.5774 126.583,51.244 127,52.5C 128.079,55.0627 128.579,57.7294 128.5,60.5C 135.692,59.7489 142.359,61.0823 148.5,64.5C 150.358,66.8831 151.692,69.5498 152.5,72.5C 151.85,72.1961 151.183,71.8627 150.5,71.5C 149.833,72.8333 149.167,74.1667 148.5,75.5C 147.359,72.9382 146.526,70.2716 146,67.5C 145.292,66.6195 144.458,65.9528 143.5,65.5C 141.745,64.9278 140.078,64.0945 138.5,63C 133.833,62.6667 129.167,62.3333 124.5,62C 123.663,60.9887 123.33,59.8221 123.5,58.5C 124.376,58.6309 125.043,58.2975 125.5,57.5C 124.894,55.2906 124.227,53.124 123.5,51C 123.728,50.6012 124.062,50.4346 124.5,50.5 Z"/></g>
<g><path style="opacity:1" fill="#14d4cc" d="M 79.5,81.5 C 79.4827,83.0281 78.816,83.5281 77.5,83C 76.848,80.9095 76.6813,78.7429 77,76.5C 75.4126,77.727 74.0793,77.3937 73,75.5C 71.161,77.7106 71.3276,79.8773 73.5,82C 73,82.1667 72.5,82.3333 72,82.5C 70.6736,81.2011 69.3402,79.8678 68,78.5C 67.484,81.2506 66.3173,83.5839 64.5,85.5C 63.1072,84.1369 61.4405,83.3036 59.5,83C 59.8333,82.6667 60.1667,82.3333 60.5,82C 57.905,81.7744 55.405,81.2744 53,80.5C 50.695,81.9388 48.8616,81.4388 47.5,79C 48.1079,78.1301 48.9412,77.6301 50,77.5C 52.2951,78.1308 54.9618,78.7974 58,79.5C 60.0507,79.5771 61.884,79.0771 63.5,78C 62.5838,77.6258 61.7504,77.1258 61,76.5C 57.5575,77.0946 54.2242,77.0946 51,76.5C 48.683,74.8257 46.8496,73.159 45.5,71.5C 42.0817,71.5481 38.5817,72.2147 35,73.5C 34,73.1667 33,72.8333 32,72.5C 32.379,74.075 32.2123,75.575 31.5,77C 29.3823,78.1425 27.3823,78.6425 25.5,78.5C 27.686,79.2208 29.8526,79.8875 32,80.5C 33.1313,79.3961 33.9646,79.7295 34.5,81.5C 30.5,82.1667 26.5,82.8333 22.5,83.5C 23.7797,85.7016 23.7797,87.8683 22.5,90C 19.8206,89.8425 17.154,89.3425 14.5,88.5C 14.5,89.5 14.5,90.5 14.5,91.5C 17.1873,91.3359 19.854,91.5026 22.5,92C 18.1289,92.1725 13.7956,92.6725 9.5,93.5C 14.1667,94.1667 18.8333,94.8333 23.5,95.5C 21.2338,96.3142 18.9005,96.8142 16.5,97C 18.2244,97.4482 18.891,98.2815 18.5,99.5C 19.1924,98.9747 19.6924,98.3081 20,97.5C 20.8333,99 22,100.167 23.5,101C 21.5758,101.179 19.9091,101.346 18.5,101.5C 19.9023,102.842 19.5689,103.676 17.5,104C 19.1346,104.54 20.4679,104.04 21.5,102.5C 24.0452,103.549 24.0452,104.549 21.5,105.5C 18.013,106.356 14.6796,105.689 11.5,103.5C 10.8333,103.667 10.1667,103.833 9.5,104C 11.5,105 13.5,106 15.5,107C 6.38269,107.3 5.04936,104.634 11.5,99C 12.7839,98.3162 13.9505,98.4829 15,99.5C 15.6667,98.8333 15.6667,98.1667 15,97.5C 12.3333,96.1667 9.66667,96.1667 7,97.5C 6.37405,95.0087 5.54072,95.0087 4.5,97.5C 3.20543,96.9017 1.8721,96.4017 0.5,96C 1.16667,95.6667 1.83333,95.3333 2.5,95C 1.30943,94.3021 0.309426,93.4687 -0.5,92.5C -0.5,79.5 -0.5,66.5 -0.5,53.5C 2.57186,53.1826 5.57186,53.5159 8.5,54.5C 7.9984,55.7164 7.66506,56.8831 7.5,58C 8.44802,58.4828 9.44802,58.6495 10.5,58.5C 10.9167,55.9208 10.25,53.7542 8.5,52C 9.67209,51.5814 10.6721,50.9147 11.5,50C 10.3769,46.9443 11.0435,46.7777 13.5,49.5C 12.4104,50.6086 12.4104,51.6086 13.5,52.5C 16.3967,49.7513 19.0634,49.918 21.5,53C 25.5548,53.2315 29.5548,53.7315 33.5,54.5C 34.086,54.2907 34.586,53.9574 35,53.5C 36.5737,54.9842 37.907,56.6508 39,58.5C 39.5056,55.3261 38.6722,52.4927 36.5,50C 36.8333,49.6667 37.1667,49.3333 37.5,49C 36.451,48.5078 35.451,48.6744 34.5,49.5C 33.4173,48.635 33.2506,47.635 34,46.5C 34.7412,47.6405 35.5745,47.6405 36.5,46.5C 39.7984,49.6643 43.7984,50.9976 48.5,50.5C 48.2865,52.1439 48.6198,53.6439 49.5,55C 48.7334,56.4705 48.0668,57.9705 47.5,59.5C 47.3433,60.8734 47.51,62.2068 48,63.5C 50.1785,64.1161 52.0118,65.2828 53.5,67C 52.5,67.3333 51.5,67.6667 50.5,68C 53.9257,69.2381 55.5923,68.0714 55.5,64.5C 57.3084,64.5086 58.9751,64.0086 60.5,63C 60.1976,61.3451 58.8642,60.0118 56.5,59C 56.727,57.8647 57.0604,56.698 57.5,55.5C 59.4244,55.567 61.4244,55.9003 63.5,56.5C 62.5291,57.9621 62.8624,59.2954 64.5,60.5C 71.866,59.6315 76.0327,55.6315 77,48.5C 78.7507,49.8088 80.2507,49.4755 81.5,47.5C 82.3333,48.5 83.1667,49.5 84,50.5C 84.4922,49.451 84.3256,48.451 83.5,47.5C 84.5217,46.646 85.3551,45.646 86,44.5C 86.6689,47.0278 87.5022,47.0278 88.5,44.5C 88.277,43.0333 87.9437,41.5333 87.5,40C 89.1992,39.6068 90.6992,40.1068 92,41.5C 97.8068,40.8133 97.9735,39.48 92.5,37.5C 96.6413,36.6693 100.808,36.0026 105,35.5C 106.662,35.3875 107.829,36.0542 108.5,37.5C 106.955,38.4519 105.288,38.7852 103.5,38.5C 103.5,39.5 103.5,40.5 103.5,41.5C 96.8558,39.9827 92.5224,42.316 90.5,48.5C 91.9905,49.2436 93.4905,49.9103 95,50.5C 95.3333,50.1667 95.6667,49.8333 96,49.5C 98.2104,51.9852 97.7104,53.8185 94.5,55C 92.925,54.621 91.425,54.7877 90,55.5C 89.3333,54.8333 88.6667,54.1667 88,53.5C 84.8708,54.1298 81.7041,54.7964 78.5,55.5C 79.9762,55.3535 81.3095,56.1869 82.5,58C 82.3333,58.5 82.1667,59 82,59.5C 81.2232,57.2985 80.0565,57.2985 78.5,59.5C 78.4165,61.7365 78.7498,64.0698 79.5,66.5C 77.2338,67.3142 74.9005,67.8142 72.5,68C 71.8333,68.6667 71.1667,69.3333 70.5,70C 73.2329,69.8251 76.2329,69.9918 79.5,70.5C 80.3094,72.0709 80.6427,73.7376 80.5,75.5C 83.6169,75.8723 86.6169,75.8723 89.5,75.5C 89.8333,76.1667 90.1667,76.8333 90.5,77.5C 89.0568,80.5515 86.7234,81.2182 83.5,79.5C 81.6672,79.5854 80.3339,80.2521 79.5,81.5 Z"/></g>
<g><path style="opacity:1" fill="#dac381" d="M 130.5,70.5 C 131.708,71.2341 133.041,71.5674 134.5,71.5C 134.5,72.5 134.5,73.5 134.5,74.5C 129.61,72.0571 124.61,72.0571 119.5,74.5C 119.5,73.5 119.5,72.5 119.5,71.5C 123.119,70.7564 126.785,70.423 130.5,70.5 Z"/></g>
<g><path style="opacity:1" fill="#e9c57e" d="M 103.5,69.5 C 100.421,72.1935 97.0878,74.5269 93.5,76.5C 92.8333,76.5 92.5,76.8333 92.5,77.5C 91.1991,76.1155 91.1991,74.6155 92.5,73C 96.0207,71.3262 99.6873,70.1596 103.5,69.5 Z"/></g>
<g><path style="opacity:1" fill="#f1bd4d" d="M 124.5,63.5 C 125.234,64.7079 125.567,66.0413 125.5,67.5C 128.079,67.9167 130.246,67.25 132,65.5C 132.483,66.448 132.649,67.448 132.5,68.5C 131.5,68.8333 130.833,69.5 130.5,70.5C 126.785,70.423 123.119,70.7564 119.5,71.5C 114.422,70.7452 112.089,72.9118 112.5,78C 112.964,82.746 114.631,86.9127 117.5,90.5C 117.5,91.1667 117.5,91.8333 117.5,92.5C 118.263,93.2679 119.263,93.7679 120.5,94C 119.874,94.7504 119.374,95.5838 119,96.5C 118.501,100.486 118.334,104.486 118.5,108.5C 115.659,108.44 112.993,107.774 110.5,106.5C 109.549,105.081 109.216,103.415 109.5,101.5C 108.66,94.1203 107.493,86.787 106,79.5C 105.097,78.2986 103.931,77.4652 102.5,77C 99.5184,76.502 96.5184,76.3354 93.5,76.5C 97.0878,74.5269 100.421,72.1935 103.5,69.5C 105.752,69.0844 107.252,67.751 108,65.5C 111.612,69.3011 115.445,69.4678 119.5,66C 120.249,64.2663 120.749,62.433 121,60.5C 122.039,61.7101 123.206,62.7101 124.5,63.5 Z"/></g>
<g><path style="opacity:1" fill="#1fd1c6" d="M 134.5,74.5 C 135.734,77.4648 135.734,80.4648 134.5,83.5C 131.052,86.5576 127.052,88.5576 122.5,89.5C 121.657,84.4616 120.657,79.4616 119.5,74.5C 124.61,72.0571 129.61,72.0571 134.5,74.5 Z"/></g>
<g><path style="opacity:1" fill="#ecfbd1" d="M 102.5,80.5 C 99.2869,80.81 96.2869,80.4767 93.5,79.5C 95.4008,79.5668 97.2341,79.2335 99,78.5C 100.459,78.8082 101.626,79.4749 102.5,80.5 Z"/></g>
<g><path style="opacity:1" fill="#f7e465" d="M 93.5,76.5 C 96.5184,76.3354 99.5184,76.502 102.5,77C 103.931,77.4652 105.097,78.2986 106,79.5C 107.493,86.787 108.66,94.1203 109.5,101.5C 108.013,97.8835 106.68,94.2169 105.5,90.5C 105.243,86.8285 104.243,83.4952 102.5,80.5C 101.626,79.4749 100.459,78.8082 99,78.5C 97.2341,79.2335 95.4008,79.5668 93.5,79.5C 92.6618,79.1583 92.3284,78.4916 92.5,77.5C 92.5,76.8333 92.8333,76.5 93.5,76.5 Z"/></g>
<g><path style="opacity:1" fill="#0ed4cc" d="M 79.5,81.5 C 83.1667,81.5 86.8333,81.5 90.5,81.5C 91.4767,83.8209 92.4767,86.1542 93.5,88.5C 92.0048,88.9887 90.6715,89.6554 89.5,90.5C 89.1667,90.5 88.8333,90.5 88.5,90.5C 83.3384,90.6936 78.3384,90.6936 73.5,90.5C 69.5537,92.1623 65.5537,92.4956 61.5,91.5C 57.6499,92.6957 57.6499,93.8624 61.5,95C 62.6956,95.6543 62.6956,96.1543 61.5,96.5C 59.0671,95.977 57.0671,94.8104 55.5,93C 55.9054,92.0546 56.572,91.3879 57.5,91C 56.5,90.6667 55.5,90.3333 54.5,90C 55.4506,89.2825 55.6172,88.4491 55,87.5C 53.8333,88.6667 52.6667,89.8333 51.5,91C 54.3323,92.9076 53.999,93.741 50.5,93.5C 50.33,94.8221 50.6634,95.9887 51.5,97C 53.1667,97.3333 54.8333,97.6667 56.5,98C 55.1667,98.6667 55.1667,99.3333 56.5,100C 54.9391,100.318 53.7724,101.151 53,102.5C 49.8054,101.477 46.9721,99.8106 44.5,97.5C 45.8333,96.8333 47.1667,96.1667 48.5,95.5C 44.6984,94.6517 40.865,93.985 37,93.5C 29.697,94.8143 29.697,96.1476 37,97.5C 37.8732,97.2645 38.7065,96.9312 39.5,96.5C 40.3816,97.7598 41.3816,98.9264 42.5,100C 41.7734,101.399 41.2734,102.899 41,104.5C 39.8525,103.542 38.8525,103.875 38,105.5C 36.513,104.747 36.3463,103.914 37.5,103C 36.0692,102.535 34.9025,101.701 34,100.5C 33.5336,105.623 30.7003,107.79 25.5,107C 26.1667,107.333 26.8333,107.667 27.5,108C 24.8424,108.073 22.1757,107.74 19.5,107C 21.3427,106.841 22.0093,106.341 21.5,105.5C 24.0452,104.549 24.0452,103.549 21.5,102.5C 20.4679,104.04 19.1346,104.54 17.5,104C 19.5689,103.676 19.9023,102.842 18.5,101.5C 19.9091,101.346 21.5758,101.179 23.5,101C 22,100.167 20.8333,99 20,97.5C 19.6924,98.3081 19.1924,98.9747 18.5,99.5C 18.891,98.2815 18.2244,97.4482 16.5,97C 18.9005,96.8142 21.2338,96.3142 23.5,95.5C 18.8333,94.8333 14.1667,94.1667 9.5,93.5C 13.7956,92.6725 18.1289,92.1725 22.5,92C 19.854,91.5026 17.1873,91.3359 14.5,91.5C 14.5,90.5 14.5,89.5 14.5,88.5C 17.154,89.3425 19.8206,89.8425 22.5,90C 23.7797,87.8683 23.7797,85.7016 22.5,83.5C 26.5,82.8333 30.5,82.1667 34.5,81.5C 33.9646,79.7295 33.1313,79.3961 32,80.5C 29.8526,79.8875 27.686,79.2208 25.5,78.5C 27.3823,78.6425 29.3823,78.1425 31.5,77C 32.2123,75.575 32.379,74.075 32,72.5C 33,72.8333 34,73.1667 35,73.5C 38.5817,72.2147 42.0817,71.5481 45.5,71.5C 46.8496,73.159 48.683,74.8257 51,76.5C 54.2242,77.0946 57.5575,77.0946 61,76.5C 61.7504,77.1258 62.5838,77.6258 63.5,78C 61.884,79.0771 60.0507,79.5771 58,79.5C 54.9618,78.7974 52.2951,78.1308 50,77.5C 48.9412,77.6301 48.1079,78.1301 47.5,79C 48.8616,81.4388 50.695,81.9388 53,80.5C 55.405,81.2744 57.905,81.7744 60.5,82C 60.1667,82.3333 59.8333,82.6667 59.5,83C 61.4405,83.3036 63.1072,84.1369 64.5,85.5C 66.3173,83.5839 67.484,81.2506 68,78.5C 69.3402,79.8678 70.6736,81.2011 72,82.5C 72.5,82.3333 73,82.1667 73.5,82C 71.3276,79.8773 71.161,77.7106 73,75.5C 74.0793,77.3937 75.4126,77.727 77,76.5C 76.6813,78.7429 76.848,80.9095 77.5,83C 78.816,83.5281 79.4827,83.0281 79.5,81.5 Z"/></g>
<g><path style="opacity:1" fill="#dabe7b" d="M 143.5,65.5 C 144.458,65.9528 145.292,66.6195 146,67.5C 146.526,70.2716 147.359,72.9382 148.5,75.5C 149.167,74.1667 149.833,72.8333 150.5,71.5C 151.183,71.8627 151.85,72.1961 152.5,72.5C 152.459,76.6163 151.793,80.6163 150.5,84.5C 152.754,85.8653 154.42,87.8653 155.5,90.5C 146.16,88.8318 142.826,83.6651 145.5,75C 145.486,73.6153 145.152,72.4486 144.5,71.5C 144.483,69.4352 144.15,67.4352 143.5,65.5 Z"/></g>
<g><path style="opacity:1" fill="#13d4cb" d="M 255.5,110.5 C 255.5,112.167 255.5,113.833 255.5,115.5C 254.312,116.684 253.145,116.684 252,115.5C 250.203,118.096 248.869,117.763 248,114.5C 247.667,115.167 247.333,115.833 247,116.5C 245.776,112.44 243.942,111.94 241.5,115C 241.833,115.333 242.167,115.667 242.5,116C 241.175,115.852 240.008,116.018 239,116.5C 237.933,115.809 236.766,115.309 235.5,115C 236.938,114.781 238.271,114.281 239.5,113.5C 239.167,112.5 238.5,111.833 237.5,111.5C 234.517,112.746 231.683,113.746 229,114.5C 228.167,114.333 227.333,114.167 226.5,114C 227.833,113.667 229.167,113.333 230.5,113C 229.667,112.833 228.833,112.667 228,112.5C 226.059,113.34 224.059,114.007 222,114.5C 218.634,114.077 215.301,114.077 212,114.5C 211.691,113.234 211.191,112.067 210.5,111C 210.833,110.667 211.167,110.333 211.5,110C 210.167,109 208.833,108 207.5,107C 203.161,107.682 198.828,107.515 194.5,106.5C 192.599,107.935 192.266,109.602 193.5,111.5C 192.833,112.167 192.167,112.833 191.5,113.5C 192.59,114.609 192.59,115.609 191.5,116.5C 190.167,115.5 188.833,114.5 187.5,113.5C 190.33,113.006 191.663,111.339 191.5,108.5C 191.292,104.605 189.958,100.771 187.5,97C 189.562,96.4361 191.395,96.9361 193,98.5C 196.942,96.4985 197.109,94.4985 193.5,92.5C 190.885,91.7308 188.219,91.3975 185.5,91.5C 184.796,89.3222 184.463,87.3222 184.5,85.5C 187.028,84.1841 187.028,83.0174 184.5,82C 185.535,80.4931 185.368,78.9931 184,77.5C 177.833,78.4778 171.666,79.6445 165.5,81C 165.957,81.414 166.291,81.914 166.5,82.5C 165.153,85.1932 163.82,87.8599 162.5,90.5C 159.048,87.4405 155.048,85.4405 150.5,84.5C 151.793,80.6163 152.459,76.6163 152.5,72.5C 151.692,69.5498 150.358,66.8831 148.5,64.5C 149.735,64.2786 150.735,63.6119 151.5,62.5C 156.712,64.0471 162.045,65.2138 167.5,66C 166.183,67.6591 164.517,68.8257 162.5,69.5C 159.916,68.6072 157.249,68.2739 154.5,68.5C 154.83,72.0146 154.997,75.3479 155,78.5C 155.333,79.1667 155.667,79.8333 156,80.5C 157.183,79.269 158.349,79.269 159.5,80.5C 158.636,82.1965 157.303,83.3632 155.5,84C 157.568,84.6869 159.568,84.5202 161.5,83.5C 161.858,80.1245 163.358,77.4578 166,75.5C 166.804,76.8045 167.971,77.4712 169.5,77.5C 173.462,75.1515 173.462,72.6515 169.5,70C 170.126,69.2496 170.626,68.4162 171,67.5C 172.848,69.018 174.348,70.8513 175.5,73C 176.784,73.6838 177.951,73.5171 179,72.5C 182.047,75.8031 183.214,75.8031 182.5,72.5C 185.447,71.6786 188.447,71.1786 191.5,71C 189.715,69.8372 187.715,69.1705 185.5,69C 188.202,68.3934 190.868,68.5601 193.5,69.5C 194.647,69.1822 195.481,68.5156 196,67.5C 197.747,70.0554 197.081,72.0554 194,73.5C 193.251,74.635 193.417,75.635 194.5,76.5C 195.315,74.7241 196.482,74.0574 198,74.5C 200.792,76.4066 203.958,77.5732 207.5,78C 204.036,79.3396 200.536,79.8396 197,79.5C 196.05,78.9777 195.216,78.311 194.5,77.5C 191.876,78.0764 191.209,79.4098 192.5,81.5C 196.725,83.4834 201.058,83.8168 205.5,82.5C 207.557,84.3117 209.724,84.645 212,83.5C 212.167,83.8333 212.333,84.1667 212.5,84.5C 210.955,85.4519 209.288,85.7852 207.5,85.5C 206.737,89.1378 208.07,90.6378 211.5,90C 210.483,88.9505 210.316,87.7839 211,86.5C 212.044,87.6226 212.71,88.9559 213,90.5C 213.414,90.0426 213.914,89.7093 214.5,89.5C 217.201,89.976 217.701,90.976 216,92.5C 213.281,91.5562 210.448,91.2229 207.5,91.5C 207.5,93.1667 207.5,94.8333 207.5,96.5C 216.809,96.0263 224.142,96.693 229.5,98.5C 229.281,97.325 229.614,96.325 230.5,95.5C 230.911,96.2624 231.077,97.2624 231,98.5C 235.093,97.3842 239.26,96.8842 243.5,97C 241.054,97.8808 238.721,99.0475 236.5,100.5C 235.685,98.7241 234.518,98.0574 233,98.5C 232.5,99 232,99.5 231.5,100C 231.986,102.027 231.986,104.193 231.5,106.5C 233.103,106.312 234.437,106.812 235.5,108C 230.757,108.543 226.09,108.543 221.5,108C 219.048,109.806 219.381,111.306 222.5,112.5C 226.779,111.726 231.113,111.226 235.5,111C 237.569,110.676 237.902,109.842 236.5,108.5C 239.211,107.961 241.377,106.628 243,104.5C 243.953,106.592 245.286,106.925 247,105.5C 248.734,109.073 251.568,110.74 255.5,110.5 Z"/></g>
<g><path style="opacity:1" fill="#e6ba71" d="M 119.5,71.5 C 119.5,72.5 119.5,73.5 119.5,74.5C 120.657,79.4616 121.657,84.4616 122.5,89.5C 127.052,88.5576 131.052,86.5576 134.5,83.5C 134.5,84.1667 134.5,84.8333 134.5,85.5C 132.41,87.3902 130.077,89.0569 127.5,90.5C 127.709,91.086 128.043,91.586 128.5,92C 124.848,92.4986 121.182,92.6653 117.5,92.5C 117.5,91.8333 117.5,91.1667 117.5,90.5C 114.631,86.9127 112.964,82.746 112.5,78C 112.089,72.9118 114.422,70.7452 119.5,71.5 Z"/></g>
<g><path style="opacity:1" fill="#eacc9b" d="M 117.5,90.5 C 115.55,85.3166 114.216,79.9833 113.5,74.5C 114.5,74.5 115.5,74.5 116.5,74.5C 117.388,79.0043 118.388,83.5043 119.5,88C 119.316,89.3756 118.649,90.2089 117.5,90.5 Z"/></g>
<g><path style="opacity:1" fill="#e4bc5b" d="M 134.5,85.5 C 133.833,87.5 133.167,89.5 132.5,91.5C 134.401,91.5668 136.234,91.2335 138,90.5C 140.654,92.4926 143.488,94.1593 146.5,95.5C 147.052,97.0026 147.052,98.6693 146.5,100.5C 145.033,97.7102 142.7,96.0435 139.5,95.5C 135.019,94.3516 130.352,94.1849 125.5,95C 123.569,95.9022 121.903,97.0688 120.5,98.5C 120.059,104.78 121.059,110.78 123.5,116.5C 122.074,114.009 120.241,111.675 118,109.5C 117.072,111.335 115.906,111.668 114.5,110.5C 113.833,113.977 113.166,117.311 112.5,120.5C 112.702,118.05 112.369,115.717 111.5,113.5C 111.768,111.901 111.434,110.568 110.5,109.5C 110.5,108.5 110.5,107.5 110.5,106.5C 112.993,107.774 115.659,108.44 118.5,108.5C 118.334,104.486 118.501,100.486 119,96.5C 119.374,95.5838 119.874,94.7504 120.5,94C 119.263,93.7679 118.263,93.2679 117.5,92.5C 121.182,92.6653 124.848,92.4986 128.5,92C 128.043,91.586 127.709,91.086 127.5,90.5C 130.077,89.0569 132.41,87.3902 134.5,85.5 Z"/></g>
<g><path style="opacity:1" fill="#dccc91" d="M 150.5,84.5 C 155.048,85.4405 159.048,87.4405 162.5,90.5C 164.586,96.0971 164.919,101.764 163.5,107.5C 161.539,108.46 159.873,109.793 158.5,111.5C 159.521,105.87 159.687,100.204 159,94.5C 158.26,92.6813 157.093,91.3479 155.5,90.5C 154.42,87.8653 152.754,85.8653 150.5,84.5 Z"/></g>
<g><path style="opacity:1" fill="#deb745" d="M 146.5,100.5 C 147.052,98.6693 147.052,97.0026 146.5,95.5C 143.488,94.1593 140.654,92.4926 138,90.5C 136.234,91.2335 134.401,91.5668 132.5,91.5C 133.167,89.5 133.833,87.5 134.5,85.5C 134.5,84.8333 134.5,84.1667 134.5,83.5C 135.734,80.4648 135.734,77.4648 134.5,74.5C 134.5,73.5 134.5,72.5 134.5,71.5C 133.041,71.5674 131.708,71.2341 130.5,70.5C 130.833,69.5 131.5,68.8333 132.5,68.5C 134.529,66.5002 136.862,66.1668 139.5,67.5C 141.356,70.4086 143.023,73.4086 144.5,76.5C 143.329,78.1693 141.996,79.6693 140.5,81C 142.084,82.8352 143.417,84.8352 144.5,87C 144.167,87.3333 143.833,87.6667 143.5,88C 144.833,88.6667 145.833,89.6667 146.5,91C 149.509,90.84 151.675,92.0067 153,94.5C 153.215,97.8035 153.382,100.97 153.5,104C 153,104.5 152.5,105 152,105.5C 150.082,103.995 148.248,102.328 146.5,100.5 Z"/></g>
<g><path style="opacity:1" fill="#c5bf7d" d="M 139.5,95.5 C 135.288,95.0775 131.288,95.7442 127.5,97.5C 126.386,100.156 126.386,102.823 127.5,105.5C 126.883,105.389 126.383,105.056 126,104.5C 125.505,102.527 125.338,100.527 125.5,98.5C 124.5,98.5 123.5,98.5 122.5,98.5C 121.833,98.5 121.167,98.5 120.5,98.5C 121.903,97.0688 123.569,95.9022 125.5,95C 130.352,94.1849 135.019,94.3516 139.5,95.5 Z"/></g>
<g><path style="opacity:1" fill="#fcf6bc" d="M 93.5,88.5 C 97.426,89.5515 101.426,90.2182 105.5,90.5C 106.68,94.2169 108.013,97.8835 109.5,101.5C 109.216,103.415 109.549,105.081 110.5,106.5C 110.5,107.5 110.5,108.5 110.5,109.5C 108.824,110.183 108.157,111.517 108.5,113.5C 105.512,113.671 103.512,112.338 102.5,109.5C 101.228,110.046 99.8945,110.379 98.5,110.5C 94.611,109.136 90.611,108.302 86.5,108C 82.9262,105.49 80.9262,101.99 80.5,97.5C 82.7593,96.656 83.7593,94.9893 83.5,92.5C 86.0821,92.9746 88.0821,92.3079 89.5,90.5C 90.6715,89.6554 92.0048,88.9887 93.5,88.5 Z"/></g>
<g><path style="opacity:1" fill="#fbfcd6" d="M 94.5,93.5 C 98.2121,93.6584 101.712,93.6584 105,93.5C 105.691,100.754 102.524,103.088 95.5,100.5C 94.5258,98.2573 94.1924,95.924 94.5,93.5 Z"/></g>
<g><path style="opacity:1" fill="#1ad2c8" d="M 139.5,95.5 C 142.7,96.0435 145.033,97.7102 146.5,100.5C 146.552,102.903 146.219,105.236 145.5,107.5C 140.965,112.111 135.631,114.445 129.5,114.5C 129.244,111.402 128.578,108.402 127.5,105.5C 126.386,102.823 126.386,100.156 127.5,97.5C 131.288,95.7442 135.288,95.0775 139.5,95.5 Z"/></g>
<g><path style="opacity:1" fill="#dbb94f" d="M 124.5,63.5 C 128.322,64.7889 132.155,64.7889 136,63.5C 139.501,65.5504 142.335,68.217 144.5,71.5C 145.152,72.4486 145.486,73.6153 145.5,75C 142.826,83.6651 146.16,88.8318 155.5,90.5C 158.286,95.5714 158.952,100.905 157.5,106.5C 156.218,108.179 155.218,110.013 154.5,112C 150.294,115.532 145.794,118.698 141,121.5C 140.616,123.197 140.782,124.863 141.5,126.5C 139.708,126.366 138.042,126.699 136.5,127.5C 136.5,126.833 136.5,126.167 136.5,125.5C 135.666,124.252 134.333,123.585 132.5,123.5C 131.167,123.667 129.833,123.833 128.5,124C 125.938,125.365 123.938,127.199 122.5,129.5C 122.5,128.833 122.167,128.5 121.5,128.5C 120.223,127.102 118.557,126.436 116.5,126.5C 114.488,126.84 112.488,127.173 110.5,127.5C 110.259,125.102 110.926,123.102 112.5,121.5C 115.418,124.62 119.085,126.12 123.5,126C 122.692,125.692 122.025,125.192 121.5,124.5C 122.689,123.571 124.022,123.238 125.5,123.5C 125.439,121.408 124.439,119.908 122.5,119C 123.252,118.329 123.586,117.496 123.5,116.5C 128.086,118.923 132.752,118.756 137.5,116C 139.926,114.855 142.259,113.522 144.5,112C 144.167,111.667 143.833,111.333 143.5,111C 144.823,110.184 145.489,109.017 145.5,107.5C 146.219,105.236 146.552,102.903 146.5,100.5C 148.248,102.328 150.082,103.995 152,105.5C 152.5,105 153,104.5 153.5,104C 153.382,100.97 153.215,97.8035 153,94.5C 151.675,92.0067 149.509,90.84 146.5,91C 145.833,89.6667 144.833,88.6667 143.5,88C 143.833,87.6667 144.167,87.3333 144.5,87C 143.417,84.8352 142.084,82.8352 140.5,81C 141.996,79.6693 143.329,78.1693 144.5,76.5C 143.023,73.4086 141.356,70.4086 139.5,67.5C 136.862,66.1668 134.529,66.5002 132.5,68.5C 132.649,67.448 132.483,66.448 132,65.5C 130.246,67.25 128.079,67.9167 125.5,67.5C 125.567,66.0413 125.234,64.7079 124.5,63.5 Z"/></g>
<g><path style="opacity:1" fill="#ddb35e" d="M 122.5,98.5 C 123.5,98.5 124.5,98.5 125.5,98.5C 125.338,100.527 125.505,102.527 126,104.5C 126.383,105.056 126.883,105.389 127.5,105.5C 128.578,108.402 129.244,111.402 129.5,114.5C 128.811,115.774 127.977,115.774 127,114.5C 125.773,109.058 124.273,103.725 122.5,98.5 Z"/></g>
<g><path style="opacity:1" fill="#c4baab" d="M 62.5,104.5 C 61.9332,106.03 61.2666,107.53 60.5,109C 61.2266,110.399 61.7266,111.899 62,113.5C 65.7279,115.726 68.5613,118.726 70.5,122.5C 72.4595,123.519 74.4595,123.519 76.5,122.5C 80.8662,124.371 85.5329,125.038 90.5,124.5C 88.5,125.167 86.5,125.833 84.5,126.5C 84.1667,126.5 83.8333,126.5 83.5,126.5C 78.2657,125.269 73.2657,125.269 68.5,126.5C 66.0632,126.402 64.0632,125.402 62.5,123.5C 62.1593,118.609 60.826,113.776 58.5,109C 59.2781,106.901 60.6114,105.401 62.5,104.5 Z"/></g>
<g><path style="opacity:1" fill="#fbe9b9" d="M 80.5,97.5 C 80.9262,101.99 82.9262,105.49 86.5,108C 90.611,108.302 94.611,109.136 98.5,110.5C 99.8945,110.379 101.228,110.046 102.5,109.5C 103.512,112.338 105.512,113.671 108.5,113.5C 108.157,111.517 108.824,110.183 110.5,109.5C 111.434,110.568 111.768,111.901 111.5,113.5C 109.596,113.738 108.262,114.738 107.5,116.5C 106.178,116.67 105.011,116.337 104,115.5C 102.89,117.037 101.39,117.703 99.5,117.5C 99.9175,116.778 100.584,116.278 101.5,116C 101,115.833 100.5,115.667 100,115.5C 96.8792,116.536 93.7125,116.703 90.5,116C 87.6647,112.869 84.4981,110.036 81,107.5C 79.4245,104.074 79.2578,100.74 80.5,97.5 Z"/></g>
<g><path style="opacity:1" fill="#b3cda0" d="M 163.5,107.5 C 162.652,110.888 160.652,113.221 157.5,114.5C 157.557,113.391 157.89,112.391 158.5,111.5C 159.873,109.793 161.539,108.46 163.5,107.5 Z"/></g>
<g><path style="opacity:1" fill="#1cd4ca" d="M 88.5,90.5 C 84.8333,91.1667 81.1667,91.8333 77.5,92.5C 74.8527,92.9287 72.8527,94.2621 71.5,96.5C 70.1667,97.5 68.8333,98.5 67.5,99.5C 65.6583,99.2767 63.825,98.9434 62,98.5C 59.8171,98.5221 58.3171,99.5221 57.5,101.5C 56.596,102.209 56.2627,103.209 56.5,104.5C 54.8007,104.527 53.4674,105.194 52.5,106.5C 46.854,107.315 43.6873,110.649 43,116.5C 41.9586,118.585 40.4586,120.252 38.5,121.5C 37.3483,124.106 37.1816,126.773 38,129.5C 40.8981,127.928 43.0648,128.595 44.5,131.5C 42.4727,131.338 40.4727,131.505 38.5,132C 37.6634,133.011 37.33,134.178 37.5,135.5C 38.791,135.263 39.791,135.596 40.5,136.5C 38.6214,136.393 38.2881,136.893 39.5,138C 50.7939,139.293 62.1272,139.793 73.5,139.5C 75.5,139.5 77.5,139.5 79.5,139.5C 71.9032,141.467 63.9032,142.134 55.5,141.5C 36.8168,141.278 18.1502,141.611 -0.5,142.5C -0.5,125.833 -0.5,109.167 -0.5,92.5C 0.309426,93.4687 1.30943,94.3021 2.5,95C 1.83333,95.3333 1.16667,95.6667 0.5,96C 1.8721,96.4017 3.20543,96.9017 4.5,97.5C 5.54072,95.0087 6.37405,95.0087 7,97.5C 9.66667,96.1667 12.3333,96.1667 15,97.5C 15.6667,98.1667 15.6667,98.8333 15,99.5C 13.9505,98.4829 12.7839,98.3162 11.5,99C 5.04936,104.634 6.38269,107.3 15.5,107C 13.5,106 11.5,105 9.5,104C 10.1667,103.833 10.8333,103.667 11.5,103.5C 14.6796,105.689 18.013,106.356 21.5,105.5C 22.0093,106.341 21.3427,106.841 19.5,107C 22.1757,107.74 24.8424,108.073 27.5,108C 26.8333,107.667 26.1667,107.333 25.5,107C 30.7003,107.79 33.5336,105.623 34,100.5C 34.9025,101.701 36.0692,102.535 37.5,103C 36.3463,103.914 36.513,104.747 38,105.5C 38.8525,103.875 39.8525,103.542 41,104.5C 41.2734,102.899 41.7734,101.399 42.5,100C 41.3816,98.9264 40.3816,97.7598 39.5,96.5C 38.7065,96.9312 37.8732,97.2645 37,97.5C 29.697,96.1476 29.697,94.8143 37,93.5C 40.865,93.985 44.6984,94.6517 48.5,95.5C 47.1667,96.1667 45.8333,96.8333 44.5,97.5C 46.9721,99.8106 49.8054,101.477 53,102.5C 53.7724,101.151 54.9391,100.318 56.5,100C 55.1667,99.3333 55.1667,98.6667 56.5,98C 54.8333,97.6667 53.1667,97.3333 51.5,97C 50.6634,95.9887 50.33,94.8221 50.5,93.5C 53.999,93.741 54.3323,92.9076 51.5,91C 52.6667,89.8333 53.8333,88.6667 55,87.5C 55.6172,88.4491 55.4506,89.2825 54.5,90C 55.5,90.3333 56.5,90.6667 57.5,91C 56.572,91.3879 55.9054,92.0546 55.5,93C 57.0671,94.8104 59.0671,95.977 61.5,96.5C 62.6956,96.1543 62.6956,95.6543 61.5,95C 57.6499,93.8624 57.6499,92.6957 61.5,91.5C 65.5537,92.4956 69.5537,92.1623 73.5,90.5C 78.3384,90.6936 83.3384,90.6936 88.5,90.5 Z"/></g>
<g><path style="opacity:1" fill="#e6c884" d="M 120.5,98.5 C 121.167,98.5 121.833,98.5 122.5,98.5C 124.273,103.725 125.773,109.058 127,114.5C 127.977,115.774 128.811,115.774 129.5,114.5C 135.631,114.445 140.965,112.111 145.5,107.5C 145.489,109.017 144.823,110.184 143.5,111C 143.833,111.333 144.167,111.667 144.5,112C 142.259,113.522 139.926,114.855 137.5,116C 132.752,118.756 128.086,118.923 123.5,116.5C 121.059,110.78 120.059,104.78 120.5,98.5 Z"/></g>
<g><path style="opacity:1" fill="#11d3cb" d="M 255.5,115.5 C 255.5,122.167 255.5,128.833 255.5,135.5C 240.757,132.505 225.757,130.671 210.5,130C 209.328,129.581 208.328,128.915 207.5,128C 203.344,128.052 199.51,127.219 196,125.5C 188.224,125.625 180.39,125.959 172.5,126.5C 170.311,126.406 168.311,125.739 166.5,124.5C 165.261,124.942 164.261,125.609 163.5,126.5C 160.18,125.825 157.013,125.825 154,126.5C 152.359,124.289 150.525,123.123 148.5,123C 151.473,120.507 154.473,118.007 157.5,115.5C 157.5,115.167 157.5,114.833 157.5,114.5C 160.652,113.221 162.652,110.888 163.5,107.5C 164.919,101.764 164.586,96.0971 162.5,90.5C 163.82,87.8599 165.153,85.1932 166.5,82.5C 166.291,81.914 165.957,81.414 165.5,81C 171.666,79.6445 177.833,78.4778 184,77.5C 185.368,78.9931 185.535,80.4931 184.5,82C 187.028,83.0174 187.028,84.1841 184.5,85.5C 184.463,87.3222 184.796,89.3222 185.5,91.5C 188.219,91.3975 190.885,91.7308 193.5,92.5C 197.109,94.4985 196.942,96.4985 193,98.5C 191.395,96.9361 189.562,96.4361 187.5,97C 189.958,100.771 191.292,104.605 191.5,108.5C 191.663,111.339 190.33,113.006 187.5,113.5C 188.833,114.5 190.167,115.5 191.5,116.5C 192.59,115.609 192.59,114.609 191.5,113.5C 192.167,112.833 192.833,112.167 193.5,111.5C 192.266,109.602 192.599,107.935 194.5,106.5C 198.828,107.515 203.161,107.682 207.5,107C 208.833,108 210.167,109 211.5,110C 211.167,110.333 210.833,110.667 210.5,111C 211.191,112.067 211.691,113.234 212,114.5C 215.301,114.077 218.634,114.077 222,114.5C 224.059,114.007 226.059,113.34 228,112.5C 228.833,112.667 229.667,112.833 230.5,113C 229.167,113.333 227.833,113.667 226.5,114C 227.333,114.167 228.167,114.333 229,114.5C 231.683,113.746 234.517,112.746 237.5,111.5C 238.5,111.833 239.167,112.5 239.5,113.5C 238.271,114.281 236.938,114.781 235.5,115C 236.766,115.309 237.933,115.809 239,116.5C 240.008,116.018 241.175,115.852 242.5,116C 242.167,115.667 241.833,115.333 241.5,115C 243.942,111.94 245.776,112.44 247,116.5C 247.333,115.833 247.667,115.167 248,114.5C 248.869,117.763 250.203,118.096 252,115.5C 253.145,116.684 254.312,116.684 255.5,115.5 Z"/></g>
<g><path style="opacity:1" fill="#fbe0b7" d="M 88.5,90.5 C 88.8333,90.5 89.1667,90.5 89.5,90.5C 88.0821,92.3079 86.0821,92.9746 83.5,92.5C 83.7593,94.9893 82.7593,96.656 80.5,97.5C 79.2578,100.74 79.4245,104.074 81,107.5C 84.4981,110.036 87.6647,112.869 90.5,116C 93.7125,116.703 96.8792,116.536 100,115.5C 100.5,115.667 101,115.833 101.5,116C 100.584,116.278 99.9175,116.778 99.5,117.5C 98.3117,118.364 97.1451,119.364 96,120.5C 95.586,120.043 95.086,119.709 94.5,119.5C 90.7063,122.293 87.0397,122.126 83.5,119C 79.9077,115.254 76.5744,112.087 73.5,109.5C 74.3434,105.361 74.3434,101.361 73.5,97.5C 75.1128,96.5726 76.7795,95.7393 78.5,95C 78.1164,94.0494 77.7831,93.2161 77.5,92.5C 81.1667,91.8333 84.8333,91.1667 88.5,90.5 Z"/></g>
<g><path style="opacity:1" fill="#e5bd4a" d="M 123.5,116.5 C 123.586,117.496 123.252,118.329 122.5,119C 124.439,119.908 125.439,121.408 125.5,123.5C 124.022,123.238 122.689,123.571 121.5,124.5C 122.025,125.192 122.692,125.692 123.5,126C 119.085,126.12 115.418,124.62 112.5,121.5C 112.5,121.167 112.5,120.833 112.5,120.5C 113.166,117.311 113.833,113.977 114.5,110.5C 115.906,111.668 117.072,111.335 118,109.5C 120.241,111.675 122.074,114.009 123.5,116.5 Z"/></g>
<g><path style="opacity:1" fill="#d6c076" d="M 155.5,90.5 C 157.093,91.3479 158.26,92.6813 159,94.5C 159.687,100.204 159.521,105.87 158.5,111.5C 157.89,112.391 157.557,113.391 157.5,114.5C 157.5,114.833 157.5,115.167 157.5,115.5C 152.566,116.118 148.899,118.451 146.5,122.5C 143.412,123.243 142.745,124.91 144.5,127.5C 143.833,127.5 143.167,127.5 142.5,127.5C 142.5,126.833 142.167,126.5 141.5,126.5C 140.782,124.863 140.616,123.197 141,121.5C 145.794,118.698 150.294,115.532 154.5,112C 155.218,110.013 156.218,108.179 157.5,106.5C 158.952,100.905 158.286,95.5714 155.5,90.5 Z"/></g>
<g><path style="opacity:1" fill="#acb7ac" d="M 67.5,99.5 C 65.8333,101.167 64.1667,102.833 62.5,104.5C 60.6114,105.401 59.2781,106.901 58.5,109C 60.826,113.776 62.1593,118.609 62.5,123.5C 64.0632,125.402 66.0632,126.402 68.5,126.5C 73.2657,125.269 78.2657,125.269 83.5,126.5C 82.7375,127.268 81.7375,127.768 80.5,128C 76.8484,128.499 73.1817,128.665 69.5,128.5C 65.7016,127.517 61.7016,127.183 57.5,127.5C 57.5,126.5 57.5,125.5 57.5,124.5C 56.5,124.5 55.5,124.5 54.5,124.5C 53.7502,119.314 53.4169,114.148 53.5,109C 53.8178,106.625 55.1511,105.458 57.5,105.5C 57.5,104.167 57.5,102.833 57.5,101.5C 58.3171,99.5221 59.8171,98.5221 62,98.5C 63.825,98.9434 65.6583,99.2767 67.5,99.5 Z"/></g>
<g><path style="opacity:1" fill="#86b8af" d="M 57.5,101.5 C 57.5,102.833 57.5,104.167 57.5,105.5C 55.1511,105.458 53.8178,106.625 53.5,109C 53.4169,114.148 53.7502,119.314 54.5,124.5C 55.5,124.5 56.5,124.5 57.5,124.5C 57.5,125.5 57.5,126.5 57.5,127.5C 61.7016,127.183 65.7016,127.517 69.5,128.5C 68.0779,128.75 67.0779,129.583 66.5,131C 64.8659,131.494 63.1992,131.66 61.5,131.5C 58.3492,129.837 54.8492,128.503 51,127.5C 46.825,128.898 43.325,127.898 40.5,124.5C 42.5294,121.152 45.5294,119.485 49.5,119.5C 48.5785,116.874 47.5785,114.207 46.5,111.5C 47.9599,109.028 49.9599,107.361 52.5,106.5C 53.4674,105.194 54.8007,104.527 56.5,104.5C 56.2627,103.209 56.596,102.209 57.5,101.5 Z"/></g>
<g><path style="opacity:1" fill="#d2bbab" d="M 71.5,96.5 C 70.6267,98.8863 69.1267,100.886 67,102.5C 66.9657,104.18 66.799,105.68 66.5,107C 68.5644,108.018 68.8977,109.351 67.5,111C 68.385,115.553 71.0517,118.553 75.5,120C 76.2524,120.671 76.5858,121.504 76.5,122.5C 74.4595,123.519 72.4595,123.519 70.5,122.5C 68.5613,118.726 65.7279,115.726 62,113.5C 61.7266,111.899 61.2266,110.399 60.5,109C 61.2666,107.53 61.9332,106.03 62.5,104.5C 64.1667,102.833 65.8333,101.167 67.5,99.5C 68.8333,98.5 70.1667,97.5 71.5,96.5 Z"/></g>
<g><path style="opacity:1" fill="#edceb3" d="M 77.5,92.5 C 77.7831,93.2161 78.1164,94.0494 78.5,95C 76.7795,95.7393 75.1128,96.5726 73.5,97.5C 74.3434,101.361 74.3434,105.361 73.5,109.5C 76.5744,112.087 79.9077,115.254 83.5,119C 87.0397,122.126 90.7063,122.293 94.5,119.5C 95.086,119.709 95.586,120.043 96,120.5C 97.1451,119.364 98.3117,118.364 99.5,117.5C 101.39,117.703 102.89,117.037 104,115.5C 105.011,116.337 106.178,116.67 107.5,116.5C 102.066,119.54 96.3989,122.207 90.5,124.5C 85.5329,125.038 80.8662,124.371 76.5,122.5C 76.5858,121.504 76.2524,120.671 75.5,120C 71.0517,118.553 68.385,115.553 67.5,111C 68.8977,109.351 68.5644,108.018 66.5,107C 66.799,105.68 66.9657,104.18 67,102.5C 69.1267,100.886 70.6267,98.8863 71.5,96.5C 72.8527,94.2621 74.8527,92.9287 77.5,92.5 Z"/></g>
<g><path style="opacity:1" fill="#6dc0b7" d="M 52.5,106.5 C 49.9599,107.361 47.9599,109.028 46.5,111.5C 47.5785,114.207 48.5785,116.874 49.5,119.5C 45.5294,119.485 42.5294,121.152 40.5,124.5C 43.325,127.898 46.825,128.898 51,127.5C 54.8492,128.503 58.3492,129.837 61.5,131.5C 55.8333,131.5 50.1667,131.5 44.5,131.5C 43.0648,128.595 40.8981,127.928 38,129.5C 37.1816,126.773 37.3483,124.106 38.5,121.5C 40.4586,120.252 41.9586,118.585 43,116.5C 43.6873,110.649 46.854,107.315 52.5,106.5 Z"/></g>
<g><path style="opacity:1" fill="#ceb469" d="M 136.5,125.5 C 134.414,123.977 132.748,124.31 131.5,126.5C 131.674,128.861 132.007,131.194 132.5,133.5C 129.575,130.648 126.242,129.982 122.5,131.5C 122.5,130.833 122.5,130.167 122.5,129.5C 123.938,127.199 125.938,125.365 128.5,124C 129.833,123.833 131.167,123.667 132.5,123.5C 134.333,123.585 135.666,124.252 136.5,125.5 Z"/></g>
<g><path style="opacity:1" fill="#cab159" d="M 146.5,122.5 C 146.557,123.609 146.89,124.609 147.5,125.5C 147.833,126.167 148.167,126.833 148.5,127.5C 148.795,129.735 148.461,131.735 147.5,133.5C 147.025,131.216 146.025,129.216 144.5,127.5C 142.745,124.91 143.412,123.243 146.5,122.5 Z"/></g>
<g><path style="opacity:1" fill="#2ad0c6" d="M 111.5,113.5 C 112.369,115.717 112.702,118.05 112.5,120.5C 110.033,120.755 108.033,121.755 106.5,123.5C 105.566,124.568 105.232,125.901 105.5,127.5C 101.652,127.124 98.1523,126.791 95,126.5C 94.6924,127.308 94.1924,127.975 93.5,128.5C 92.1667,127.167 90.8333,127.167 89.5,128.5C 88.3044,128.154 88.3044,127.654 89.5,127C 87.8659,126.506 86.1992,126.34 84.5,126.5C 86.5,125.833 88.5,125.167 90.5,124.5C 96.3989,122.207 102.066,119.54 107.5,116.5C 108.262,114.738 109.596,113.738 111.5,113.5 Z"/></g>
<g><path style="opacity:1" fill="#d8c872" d="M 112.5,120.5 C 112.5,120.833 112.5,121.167 112.5,121.5C 110.926,123.102 110.259,125.102 110.5,127.5C 112.488,127.173 114.488,126.84 116.5,126.5C 118.557,126.436 120.223,127.102 121.5,128.5C 116.557,129.465 111.557,130.132 106.5,130.5C 106.5,128.167 106.5,125.833 106.5,123.5C 108.033,121.755 110.033,120.755 112.5,120.5 Z"/></g>
<g><path style="opacity:1" fill="#55c0a3" d="M 136.5,125.5 C 136.5,126.167 136.5,126.833 136.5,127.5C 136.265,128.097 135.765,128.43 135,128.5C 133.923,127.571 132.756,126.904 131.5,126.5C 132.748,124.31 134.414,123.977 136.5,125.5 Z"/></g>
<g><path style="opacity:1" fill="#34cfbb" d="M 83.5,126.5 C 83.8333,126.5 84.1667,126.5 84.5,126.5C 86.1992,126.34 87.8659,126.506 89.5,127C 88.3044,127.654 88.3044,128.154 89.5,128.5C 90.8333,127.167 92.1667,127.167 93.5,128.5C 94.1924,127.975 94.6924,127.308 95,126.5C 98.1523,126.791 101.652,127.124 105.5,127.5C 105.5,129.167 105.5,130.833 105.5,132.5C 99.8333,132.5 94.1667,132.5 88.5,132.5C 77.4456,131.271 66.4456,131.771 55.5,134C 58.6752,133.947 61.3419,134.78 63.5,136.5C 55.8333,136.5 48.1667,136.5 40.5,136.5C 39.791,135.596 38.791,135.263 37.5,135.5C 37.33,134.178 37.6634,133.011 38.5,132C 40.4727,131.505 42.4727,131.338 44.5,131.5C 50.1667,131.5 55.8333,131.5 61.5,131.5C 63.1992,131.66 64.8659,131.494 66.5,131C 67.0779,129.583 68.0779,128.75 69.5,128.5C 73.1817,128.665 76.8484,128.499 80.5,128C 81.7375,127.768 82.7375,127.268 83.5,126.5 Z"/></g>
<g><path style="opacity:1" fill="#a69f80" d="M 138.5,128.5 C 142.167,128.833 144.167,130.833 144.5,134.5C 142.442,133.067 140.108,132.4 137.5,132.5C 137.557,131.391 137.89,130.391 138.5,129.5C 138.5,129.167 138.5,128.833 138.5,128.5 Z"/></g>
<g><path style="opacity:1" fill="#65d9b7" d="M 106.5,123.5 C 106.5,125.833 106.5,128.167 106.5,130.5C 111.557,130.132 116.557,129.465 121.5,128.5C 122.167,128.5 122.5,128.833 122.5,129.5C 122.5,130.167 122.5,130.833 122.5,131.5C 121.026,132.436 120.026,133.77 119.5,135.5C 113.811,135.468 108.145,135.134 102.5,134.5C 97.8333,133.833 93.1667,133.167 88.5,132.5C 94.1667,132.5 99.8333,132.5 105.5,132.5C 105.5,130.833 105.5,129.167 105.5,127.5C 105.232,125.901 105.566,124.568 106.5,123.5 Z"/></g>
<g><path style="opacity:1" fill="#5f5433" d="M 131.5,126.5 C 132.756,126.904 133.923,127.571 135,128.5C 135.765,128.43 136.265,128.097 136.5,127.5C 138.042,126.699 139.708,126.366 141.5,126.5C 142.167,126.5 142.5,126.833 142.5,127.5C 140.901,127.232 139.568,127.566 138.5,128.5C 138.5,128.833 138.5,129.167 138.5,129.5C 135.303,130.112 133.969,132.112 134.5,135.5C 133.833,135.5 133.167,135.5 132.5,135.5C 132.5,134.833 132.5,134.167 132.5,133.5C 132.007,131.194 131.674,128.861 131.5,126.5 Z"/></g>
<g><path style="opacity:1" fill="#3ccaa5" d="M 88.5,132.5 C 93.1667,133.167 97.8333,133.833 102.5,134.5C 94.7921,134.358 87.1254,134.858 79.5,136C 82.6747,136.493 85.3414,137.66 87.5,139.5C 84.8333,139.5 82.1667,139.5 79.5,139.5C 77.5,139.5 75.5,139.5 73.5,139.5C 74.5981,138.603 74.5981,137.77 73.5,137C 70.1832,136.502 66.8499,136.335 63.5,136.5C 61.3419,134.78 58.6752,133.947 55.5,134C 66.4456,131.771 77.4456,131.271 88.5,132.5 Z"/></g>
<g><path style="opacity:1" fill="#3b5246" d="M 147.5,125.5 C 148.822,125.33 149.989,125.663 151,126.5C 152.252,129.014 152.752,131.68 152.5,134.5C 151.733,135.172 151.066,136.005 150.5,137C 148.155,137.236 146.155,138.07 144.5,139.5C 139.215,139.946 134.215,141.279 129.5,143.5C 127.302,143.591 126.969,142.925 128.5,141.5C 130.534,139.345 130.867,137.012 129.5,134.5C 127.412,132.98 125.078,131.98 122.5,131.5C 126.242,129.982 129.575,130.648 132.5,133.5C 132.5,134.167 132.5,134.833 132.5,135.5C 132.5,136.833 132.5,138.167 132.5,139.5C 133.791,139.737 134.791,139.404 135.5,138.5C 137.941,139.756 140.274,139.756 142.5,138.5C 143.167,137.167 143.833,135.833 144.5,134.5C 144.167,130.833 142.167,128.833 138.5,128.5C 139.568,127.566 140.901,127.232 142.5,127.5C 143.167,127.5 143.833,127.5 144.5,127.5C 146.025,129.216 147.025,131.216 147.5,133.5C 147.369,134.239 147.536,134.906 148,135.5C 151.042,132.861 151.209,130.194 148.5,127.5C 148.167,126.833 147.833,126.167 147.5,125.5 Z"/></g>
<g><path style="opacity:1" fill="#8fad93" d="M 137.5,132.5 C 140.108,132.4 142.442,133.067 144.5,134.5C 143.833,135.833 143.167,137.167 142.5,138.5C 141.022,138.762 139.689,138.429 138.5,137.5C 138.421,135.872 138.088,134.205 137.5,132.5 Z"/></g>
<g><path style="opacity:1" fill="#8cb78e" d="M 148.5,127.5 C 151.209,130.194 151.042,132.861 148,135.5C 147.536,134.906 147.369,134.239 147.5,133.5C 148.461,131.735 148.795,129.735 148.5,127.5 Z"/></g>
<g><path style="opacity:1" fill="#63ddc7" d="M 152.5,134.5 C 159.401,135.247 166.234,136.58 173,138.5C 174.82,137.516 176.32,137.683 177.5,139C 167.766,139.459 158.099,140.293 148.5,141.5C 147.833,141.5 147.167,141.5 146.5,141.5C 145.167,141.5 144.5,140.833 144.5,139.5C 146.155,138.07 148.155,137.236 150.5,137C 151.066,136.005 151.733,135.172 152.5,134.5 Z"/></g>
<g><path style="opacity:1" fill="#43dacb" d="M 157.5,115.5 C 154.473,118.007 151.473,120.507 148.5,123C 150.525,123.123 152.359,124.289 154,126.5C 157.013,125.825 160.18,125.825 163.5,126.5C 165.631,127.314 167.964,127.814 170.5,128C 166.833,128.333 163.167,128.667 159.5,129C 176.062,130.213 192.062,133.379 207.5,138.5C 203.407,139.815 199.407,141.315 195.5,143C 183.5,143.667 171.5,143.667 159.5,143C 155.644,142.823 151.977,142.323 148.5,141.5C 158.099,140.293 167.766,139.459 177.5,139C 176.32,137.683 174.82,137.516 173,138.5C 166.234,136.58 159.401,135.247 152.5,134.5C 152.752,131.68 152.252,129.014 151,126.5C 149.989,125.663 148.822,125.33 147.5,125.5C 146.89,124.609 146.557,123.609 146.5,122.5C 148.899,118.451 152.566,116.118 157.5,115.5 Z"/></g>
<g><path style="opacity:1" fill="#7ad882" d="M 119.5,136.5 C 119.5,137.167 119.5,137.833 119.5,138.5C 113.833,137.925 108.167,137.758 102.5,138C 103.252,138.671 103.586,139.504 103.5,140.5C 100.721,140.721 98.0545,140.388 95.5,139.5C 94.0131,138.196 92.3464,137.03 90.5,136C 100.171,135.637 109.838,135.804 119.5,136.5 Z"/></g>
<g><path style="opacity:1" fill="#99b38d" d="M 129.5,134.5 C 130.867,137.012 130.534,139.345 128.5,141.5C 126.139,141.326 123.806,140.993 121.5,140.5C 120.884,134.14 123.551,132.14 129.5,134.5 Z"/></g>
<g><path style="opacity:1" fill="#62d095" d="M 102.5,134.5 C 108.145,135.134 113.811,135.468 119.5,135.5C 119.5,135.833 119.5,136.167 119.5,136.5C 109.838,135.804 100.171,135.637 90.5,136C 92.3464,137.03 94.0131,138.196 95.5,139.5C 93.5,139.5 91.5,139.5 89.5,139.5C 88.8333,139.5 88.1667,139.5 87.5,139.5C 85.3414,137.66 82.6747,136.493 79.5,136C 87.1254,134.858 94.7921,134.358 102.5,134.5 Z"/></g>
<g><path style="opacity:1" fill="#73d364" d="M 119.5,138.5 C 120.434,139.568 120.768,140.901 120.5,142.5C 114.651,142.184 108.984,141.518 103.5,140.5C 103.586,139.504 103.252,138.671 102.5,138C 108.167,137.758 113.833,137.925 119.5,138.5 Z"/></g>
<g><path style="opacity:1" fill="#5c784d" d="M 132.5,135.5 C 133.167,135.5 133.833,135.5 134.5,135.5C 134.557,136.609 134.89,137.609 135.5,138.5C 134.791,139.404 133.791,139.737 132.5,139.5C 132.5,138.167 132.5,136.833 132.5,135.5 Z"/></g>
<g><path style="opacity:1" fill="#04ae9c" d="M 40.5,136.5 C 48.1667,136.5 55.8333,136.5 63.5,136.5C 66.8499,136.335 70.1832,136.502 73.5,137C 74.5981,137.77 74.5981,138.603 73.5,139.5C 62.1272,139.793 50.7939,139.293 39.5,138C 38.2881,136.893 38.6214,136.393 40.5,136.5 Z"/></g>
<g><path style="opacity:1" fill="#5d7065" d="M 138.5,129.5 C 137.89,130.391 137.557,131.391 137.5,132.5C 138.088,134.205 138.421,135.872 138.5,137.5C 139.689,138.429 141.022,138.762 142.5,138.5C 140.274,139.756 137.941,139.756 135.5,138.5C 134.89,137.609 134.557,136.609 134.5,135.5C 133.969,132.112 135.303,130.112 138.5,129.5 Z"/></g>
<g><path style="opacity:1" fill="#426951" d="M 122.5,131.5 C 125.078,131.98 127.412,132.98 129.5,134.5C 123.551,132.14 120.884,134.14 121.5,140.5C 123.806,140.993 126.139,141.326 128.5,141.5C 126.969,142.925 127.302,143.591 129.5,143.5C 129.5,143.833 129.5,144.167 129.5,144.5C 127.833,144.5 126.167,144.5 124.5,144.5C 123.005,144.011 121.671,143.345 120.5,142.5C 120.768,140.901 120.434,139.568 119.5,138.5C 119.5,137.833 119.5,137.167 119.5,136.5C 119.5,136.167 119.5,135.833 119.5,135.5C 120.026,133.77 121.026,132.436 122.5,131.5 Z"/></g>
<g><path style="opacity:1" fill="#18a184" d="M 144.5,139.5 C 144.5,140.833 145.167,141.5 146.5,141.5C 141.133,143.504 135.466,144.504 129.5,144.5C 129.5,144.167 129.5,143.833 129.5,143.5C 134.215,141.279 139.215,139.946 144.5,139.5 Z"/></g>
<g><path style="opacity:1" fill="#98edd0" d="M 92.5,141.5 C 95.4877,141.439 98.3211,142.105 101,143.5C 106.127,141.324 110.294,142.324 113.5,146.5C 111.577,147.308 109.577,147.808 107.5,148C 89.1225,148.932 70.7891,148.599 52.5,147C 52.1667,146.667 51.8333,146.333 51.5,146C 52.8333,145.667 54.1667,145.333 55.5,145C 65.3175,144.131 74.9841,143.298 84.5,142.5C 87.2788,142.721 89.9455,142.388 92.5,141.5 Z"/></g>
<g><path style="opacity:1" fill="#29d8cd" d="M 255.5,135.5 C 255.5,139.167 255.5,142.833 255.5,146.5C 252.734,147.753 250.067,149.253 247.5,151C 249.377,152.185 251.377,153.185 253.5,154C 251.899,154.273 250.399,154.773 249,155.5C 245.183,151.193 240.85,150.526 236,153.5C 234.513,152.747 234.346,151.914 235.5,151C 233.236,150.764 231.069,150.264 229,149.5C 225.638,149.583 222.138,149.75 218.5,150C 219.711,150.893 219.711,151.726 218.5,152.5C 217.571,151.311 217.238,149.978 217.5,148.5C 209.082,148.802 200.748,148.469 192.5,147.5C 177.994,146.716 163.494,145.716 149,144.5C 146.967,144.506 145.134,144.839 143.5,145.5C 140.5,145.5 137.5,145.5 134.5,145.5C 130.958,145.813 127.625,145.479 124.5,144.5C 126.167,144.5 127.833,144.5 129.5,144.5C 135.466,144.504 141.133,143.504 146.5,141.5C 147.167,141.5 147.833,141.5 148.5,141.5C 151.977,142.323 155.644,142.823 159.5,143C 171.5,143.667 183.5,143.667 195.5,143C 199.407,141.315 203.407,139.815 207.5,138.5C 192.062,133.379 176.062,130.213 159.5,129C 163.167,128.667 166.833,128.333 170.5,128C 167.964,127.814 165.631,127.314 163.5,126.5C 164.261,125.609 165.261,124.942 166.5,124.5C 168.311,125.739 170.311,126.406 172.5,126.5C 180.39,125.959 188.224,125.625 196,125.5C 199.51,127.219 203.344,128.052 207.5,128C 208.328,128.915 209.328,129.581 210.5,130C 225.757,130.671 240.757,132.505 255.5,135.5 Z"/></g>
<g><path style="opacity:0.999" fill="#35dad2" d="M 255.5,146.5 C 255.5,156.167 255.5,165.833 255.5,175.5C 253.863,177.475 252.196,179.475 250.5,181.5C 168.833,181.5 87.1667,181.5 5.5,181.5C 3.52483,179.863 1.52483,178.196 -0.5,176.5C -0.5,174.833 -0.5,173.167 -0.5,171.5C 0.734849,171.721 1.73485,172.388 2.5,173.5C 4.10557,172.923 5.77224,172.59 7.5,172.5C 13.3921,172.678 19.0588,173.678 24.5,175.5C 25.6956,175.154 25.6956,174.654 24.5,174C 27.4182,173.284 30.0849,173.784 32.5,175.5C 35.4863,174.533 38.3196,174.199 41,174.5C 41.6667,177.167 42.3333,177.167 43,174.5C 49.8687,174.713 56.8687,175.38 64,176.5C 64.6667,173.833 65.3333,173.833 66,176.5C 66.6667,173.833 67.3333,173.833 68,176.5C 76.489,175.237 85.3223,175.237 94.5,176.5C 96.8333,175.833 99.1667,175.167 101.5,174.5C 102.478,174.977 103.311,175.643 104,176.5C 106.184,177.108 108.184,176.441 110,174.5C 111,175.833 112,175.833 113,174.5C 113.519,175.516 114.353,176.182 115.5,176.5C 120.418,175.324 125.584,175.324 131,176.5C 131.667,173.833 132.333,173.833 133,176.5C 133.667,175.167 134.333,175.167 135,176.5C 136.816,174.559 138.816,173.892 141,174.5C 142.378,176.854 143.878,176.854 145.5,174.5C 146.442,174.608 147.275,174.941 148,175.5C 154.354,173.982 160.854,172.982 167.5,172.5C 168.025,171.808 168.692,171.308 169.5,171C 173.373,170.73 177.206,170.23 181,169.5C 182.646,171.141 183.646,170.807 184,168.5C 186.71,169.854 189.21,169.354 191.5,167C 194.513,166.498 197.513,165.998 200.5,165.5C 200.561,162.95 201.894,161.45 204.5,161C 203.833,160.333 203.167,159.667 202.5,159C 203.738,159.077 204.738,158.911 205.5,158.5C 203.02,157.585 202.353,156.085 203.5,154C 202.833,153.667 202.167,153.333 201.5,153C 202.833,152.333 202.833,151.667 201.5,151C 199.965,150.504 198.465,150.67 197,151.5C 195.025,150.535 193.525,149.201 192.5,147.5C 200.748,148.469 209.082,148.802 217.5,148.5C 217.238,149.978 217.571,151.311 218.5,152.5C 219.711,151.726 219.711,150.893 218.5,150C 222.138,149.75 225.638,149.583 229,149.5C 231.069,150.264 233.236,150.764 235.5,151C 234.346,151.914 234.513,152.747 236,153.5C 240.85,150.526 245.183,151.193 249,155.5C 250.399,154.773 251.899,154.273 253.5,154C 251.377,153.185 249.377,152.185 247.5,151C 250.067,149.253 252.734,147.753 255.5,146.5 Z"/></g>
<g><path style="opacity:1" fill="#58dfcf" d="M 55.5,141.5 C 39.5799,142.164 23.5799,143.498 7.5,145.5C 7.5,147.5 7.5,149.5 7.5,151.5C 13.2617,151.149 18.9284,151.649 24.5,153C 23.8333,153.333 23.1667,153.667 22.5,154C 61.2147,158.818 100.048,158.652 139,153.5C 140.388,154.554 141.888,154.72 143.5,154C 142.5,153.667 141.5,153.333 140.5,153C 143.621,152.274 146.287,150.774 148.5,148.5C 148.137,147.817 147.804,147.15 147.5,146.5C 155.389,145.595 162.722,147.095 169.5,151C 165.876,153.643 162.043,155.81 158,157.5C 144.952,158.917 131.619,160.584 118,162.5C 113.684,161.393 109.184,161.727 104.5,163.5C 88.9046,162.312 73.4046,162.312 58,163.5C 51.0442,162.799 44.0442,162.132 37,161.5C 36.228,161.645 35.5613,161.978 35,162.5C 23.4492,160.364 11.6159,158.364 -0.5,156.5C -0.5,151.833 -0.5,147.167 -0.5,142.5C 18.1502,141.611 36.8168,141.278 55.5,141.5 Z"/></g>
<g><path style="opacity:1" fill="#7ce6cd" d="M 89.5,139.5 C 91.5,139.5 93.5,139.5 95.5,139.5C 98.0545,140.388 100.721,140.721 103.5,140.5C 108.984,141.518 114.651,142.184 120.5,142.5C 121.671,143.345 123.005,144.011 124.5,144.5C 127.625,145.479 130.958,145.813 134.5,145.5C 135.749,147.829 135.082,149.662 132.5,151C 110.375,155.122 88.2083,155.622 66,152.5C 65.586,152.957 65.086,153.291 64.5,153.5C 60.8316,152.159 57.165,151.826 53.5,152.5C 48.53,151.771 43.53,151.271 38.5,151C 36.5,150 34.5,149 32.5,148C 33.3279,147.085 34.3279,146.419 35.5,146C 35.1667,145.667 34.8333,145.333 34.5,145C 51.1136,143.391 67.7803,142.558 84.5,142.5C 74.9841,143.298 65.3175,144.131 55.5,145C 54.1667,145.333 52.8333,145.667 51.5,146C 51.8333,146.333 52.1667,146.667 52.5,147C 70.7891,148.599 89.1225,148.932 107.5,148C 109.577,147.808 111.577,147.308 113.5,146.5C 110.294,142.324 106.127,141.324 101,143.5C 98.3211,142.105 95.4877,141.439 92.5,141.5C 91.5,140.833 90.5,140.167 89.5,139.5 Z"/></g>
<g><path style="opacity:1" fill="#6be2ce" d="M 79.5,139.5 C 82.1667,139.5 84.8333,139.5 87.5,139.5C 88.1667,139.5 88.8333,139.5 89.5,139.5C 90.5,140.167 91.5,140.833 92.5,141.5C 89.9455,142.388 87.2788,142.721 84.5,142.5C 67.7803,142.558 51.1136,143.391 34.5,145C 34.8333,145.333 35.1667,145.667 35.5,146C 34.3279,146.419 33.3279,147.085 32.5,148C 34.5,149 36.5,150 38.5,151C 43.53,151.271 48.53,151.771 53.5,152.5C 57.165,151.826 60.8316,152.159 64.5,153.5C 65.086,153.291 65.586,152.957 66,152.5C 88.2083,155.622 110.375,155.122 132.5,151C 135.082,149.662 135.749,147.829 134.5,145.5C 137.5,145.5 140.5,145.5 143.5,145.5C 144.568,146.434 145.901,146.768 147.5,146.5C 147.804,147.15 148.137,147.817 148.5,148.5C 146.287,150.774 143.621,152.274 140.5,153C 141.5,153.333 142.5,153.667 143.5,154C 141.888,154.72 140.388,154.554 139,153.5C 100.048,158.652 61.2147,158.818 22.5,154C 23.1667,153.667 23.8333,153.333 24.5,153C 18.9284,151.649 13.2617,151.149 7.5,151.5C 7.5,149.5 7.5,147.5 7.5,145.5C 23.5799,143.498 39.5799,142.164 55.5,141.5C 63.9032,142.134 71.9032,141.467 79.5,139.5 Z"/></g>
<g><path style="opacity:1" fill="#43ddd0" d="M 192.5,147.5 C 193.525,149.201 195.025,150.535 197,151.5C 198.465,150.67 199.965,150.504 201.5,151C 202.833,151.667 202.833,152.333 201.5,153C 202.167,153.333 202.833,153.667 203.5,154C 202.353,156.085 203.02,157.585 205.5,158.5C 204.738,158.911 203.738,159.077 202.5,159C 203.167,159.667 203.833,160.333 204.5,161C 201.894,161.45 200.561,162.95 200.5,165.5C 197.513,165.998 194.513,166.498 191.5,167C 189.21,169.354 186.71,169.854 184,168.5C 183.646,170.807 182.646,171.141 181,169.5C 177.206,170.23 173.373,170.73 169.5,171C 168.692,171.308 168.025,171.808 167.5,172.5C 160.854,172.982 154.354,173.982 148,175.5C 147.275,174.941 146.442,174.608 145.5,174.5C 143.878,176.854 142.378,176.854 141,174.5C 138.816,173.892 136.816,174.559 135,176.5C 134.333,175.167 133.667,175.167 133,176.5C 132.333,173.833 131.667,173.833 131,176.5C 125.584,175.324 120.418,175.324 115.5,176.5C 114.353,176.182 113.519,175.516 113,174.5C 112,175.833 111,175.833 110,174.5C 108.184,176.441 106.184,177.108 104,176.5C 103.311,175.643 102.478,174.977 101.5,174.5C 99.1667,175.167 96.8333,175.833 94.5,176.5C 85.3223,175.237 76.489,175.237 68,176.5C 67.3333,173.833 66.6667,173.833 66,176.5C 65.3333,173.833 64.6667,173.833 64,176.5C 56.8687,175.38 49.8687,174.713 43,174.5C 42.3333,177.167 41.6667,177.167 41,174.5C 38.3196,174.199 35.4863,174.533 32.5,175.5C 30.0849,173.784 27.4182,173.284 24.5,174C 25.6956,174.654 25.6956,175.154 24.5,175.5C 19.0588,173.678 13.3921,172.678 7.5,172.5C 5.77224,172.59 4.10557,172.923 2.5,173.5C 1.73485,172.388 0.734849,171.721 -0.5,171.5C -0.5,166.5 -0.5,161.5 -0.5,156.5C 11.6159,158.364 23.4492,160.364 35,162.5C 35.5613,161.978 36.228,161.645 37,161.5C 44.0442,162.132 51.0442,162.799 58,163.5C 73.4046,162.312 88.9046,162.312 104.5,163.5C 109.184,161.727 113.684,161.393 118,162.5C 131.619,160.584 144.952,158.917 158,157.5C 162.043,155.81 165.876,153.643 169.5,151C 162.722,147.095 155.389,145.595 147.5,146.5C 145.901,146.768 144.568,146.434 143.5,145.5C 145.134,144.839 146.967,144.506 149,144.5C 163.494,145.716 177.994,146.716 192.5,147.5 Z"/></g>
</svg>
