<?xml version="1.0" encoding="UTF-8"?>
<!DOCTYPE svg PUBLIC "-//W3C//DTD SVG 1.1//EN" "http://www.w3.org/Graphics/SVG/1.1/DTD/svg11.dtd">
<svg xmlns="http://www.w3.org/2000/svg" version="1.1" width="256px" height="182px" style="shape-rendering:geometricPrecision; text-rendering:geometricPrecision; image-rendering:optimizeQuality; fill-rule:evenodd; clip-rule:evenodd" xmlns:xlink="http://www.w3.org/1999/xlink">
<g><path style="opacity:0.999" fill="#020202" d="M 4.5,-0.5 C 86.1667,-0.5 167.833,-0.5 249.5,-0.5C 251.475,1.13696 253.475,2.80363 255.5,4.5C 255.5,61.5 255.5,118.5 255.5,175.5C 253.863,177.475 252.196,179.475 250.5,181.5C 168.833,181.5 87.1667,181.5 5.5,181.5C 3.52483,179.863 1.52483,178.196 -0.5,176.5C -0.5,119.5 -0.5,62.5 -0.5,5.5C 1.13696,3.52483 2.80363,1.52483 4.5,-0.5 Z"/></g>
<g><path style="opacity:1" fill="#56211f" d="M 177.5,27.5 C 177.631,28.3764 177.298,29.0431 176.5,29.5C 173.812,30.5134 171.146,31.5134 168.5,32.5C 166.274,31.2437 163.941,31.2437 161.5,32.5C 161.5,31.1667 160.833,30.5 159.5,30.5C 161.724,26.4124 165.057,24.2457 169.5,24C 166.924,24.7822 164.924,26.2822 163.5,28.5C 167.107,29.4892 170.774,29.8226 174.5,29.5C 174.822,27.2776 174.155,25.4443 172.5,24C 174.772,24.0768 176.438,25.2435 177.5,27.5 Z"/></g>
<g><path style="opacity:1" fill="#6b403f" d="M 212.5,29.5 C 212.167,30.1667 211.833,30.8333 211.5,31.5C 207.846,32.1638 204.18,32.8305 200.5,33.5C 199.274,33.4805 198.274,33.1471 197.5,32.5C 202.54,31.7093 207.54,30.7093 212.5,29.5 Z"/></g>
<g><path style="opacity:1" fill="#e2b8b2" d="M 168.5,32.5 C 164.275,34.061 160.275,36.061 156.5,38.5C 155.833,38.5 155.5,38.1667 155.5,37.5C 158.288,36.7735 160.288,35.1068 161.5,32.5C 163.941,31.2437 166.274,31.2437 168.5,32.5 Z"/></g>
<g><path style="opacity:1" fill="#871a18" d="M 159.5,30.5 C 160.833,30.5 161.5,31.1667 161.5,32.5C 160.288,35.1068 158.288,36.7735 155.5,37.5C 155.167,37.5 154.833,37.5 154.5,37.5C 155.786,34.883 157.453,32.5496 159.5,30.5 Z"/></g>
<g><path style="opacity:1" fill="#570d0e" d="M 212.5,29.5 C 214.527,29.3379 216.527,29.5045 218.5,30C 220.833,33.6667 223.833,36.6667 227.5,39C 225.243,38.5629 222.91,38.0629 220.5,37.5C 220.5,36.8333 220.167,36.5 219.5,36.5C 218.841,32.0061 216.175,30.3395 211.5,31.5C 211.833,30.8333 212.167,30.1667 212.5,29.5 Z"/></g>
<g><path style="opacity:1" fill="#785755" d="M 154.5,37.5 C 154.833,37.5 155.167,37.5 155.5,37.5C 155.5,38.1667 155.833,38.5 156.5,38.5C 150.5,39.8333 144.5,39.8333 138.5,38.5C 143.927,38.7825 149.26,38.4491 154.5,37.5 Z"/></g>
<g><path style="opacity:1" fill="#3f3c3c" d="M 218.5,43.5 C 218.167,44.1667 217.833,44.8333 217.5,45.5C 216.835,43.3021 216.168,40.9688 215.5,38.5C 210.28,42.0153 207.946,47.0153 208.5,53.5C 205.587,55.901 205.921,57.2343 209.5,57.5C 207.393,58.4682 205.059,58.8016 202.5,58.5C 205.452,54.7559 206.618,50.4226 206,45.5C 205.333,46.8333 204.667,48.1667 204,49.5C 203.734,46.0927 204.234,42.7594 205.5,39.5C 208.913,38.3624 212.246,37.0291 215.5,35.5C 216.086,35.7093 216.586,36.0426 217,36.5C 217.186,39.0356 217.686,41.369 218.5,43.5 Z"/></g>
<g><path style="opacity:1" fill="#545352" d="M 217.5,45.5 C 216.555,50.4999 217.222,50.4999 219.5,45.5C 221.513,47.4974 223.846,49.164 226.5,50.5C 227.478,50.0233 228.311,49.3567 229,48.5C 227.935,51.6064 225.935,54.273 223,56.5C 222.33,59.1739 221.163,61.5073 219.5,63.5C 218.671,62.6676 217.838,63.001 217,64.5C 216.209,65.745 215.709,67.0783 215.5,68.5C 213.806,69.5274 212.473,70.8608 211.5,72.5C 210.492,66.4001 213.159,62.5668 219.5,61C 220.126,60.2496 220.626,59.4162 221,58.5C 220.389,55.9671 219.889,53.3004 219.5,50.5C 218.209,50.2627 217.209,50.596 216.5,51.5C 215.011,54.4705 212.678,56.4705 209.5,57.5C 205.921,57.2343 205.587,55.901 208.5,53.5C 207.946,47.0153 210.28,42.0153 215.5,38.5C 216.168,40.9688 216.835,43.3021 217.5,45.5 Z"/></g>
<g><path style="opacity:1" fill="#b9a1a0" d="M 219.5,36.5 C 220.167,36.5 220.5,36.8333 220.5,37.5C 220.599,40.2372 220.265,42.9039 219.5,45.5C 217.222,50.4999 216.555,50.4999 217.5,45.5C 217.833,44.8333 218.167,44.1667 218.5,43.5C 218.448,41.0971 218.781,38.7638 219.5,36.5 Z"/></g>
<g><path style="opacity:1" fill="#0a0304" d="M 197.5,32.5 C 198.274,33.1471 199.274,33.4805 200.5,33.5C 204.18,32.8305 207.846,32.1638 211.5,31.5C 216.175,30.3395 218.841,32.0061 219.5,36.5C 218.781,38.7638 218.448,41.0971 218.5,43.5C 217.686,41.369 217.186,39.0356 217,36.5C 216.586,36.0426 216.086,35.7093 215.5,35.5C 212.246,37.0291 208.913,38.3624 205.5,39.5C 204.234,42.7594 203.734,46.0927 204,49.5C 204.667,48.1667 205.333,46.8333 206,45.5C 206.618,50.4226 205.452,54.7559 202.5,58.5C 204.148,59.9265 206.148,60.7599 208.5,61C 205.859,63.6614 203.193,66.3281 200.5,69C 199.552,69.4828 198.552,69.6495 197.5,69.5C 196.609,68.8902 195.609,68.5569 194.5,68.5C 192.9,64.1911 194.233,61.0244 198.5,59C 196.888,58.2797 195.388,58.4464 194,59.5C 192.694,62.6123 191.528,65.7789 190.5,69C 190.639,70.301 191.305,71.1344 192.5,71.5C 192.5,72.1667 192.833,72.5 193.5,72.5C 193.923,73.2646 194.257,74.0979 194.5,75C 193.685,76.6434 192.685,78.1434 191.5,79.5C 190.448,79.6495 189.448,79.4828 188.5,79C 187.588,76.7951 186.255,74.9618 184.5,73.5C 184.573,71.9731 183.906,70.9731 182.5,70.5C 181.203,68.6287 180.203,66.6287 179.5,64.5C 179.565,64.0618 179.399,63.7284 179,63.5C 176.91,65.7724 177.076,67.7724 179.5,69.5C 179.66,71.153 180.326,72.4863 181.5,73.5C 182.167,73.5 182.5,73.8333 182.5,74.5C 183.684,77.8486 186.017,80.0153 189.5,81C 196.173,81.1201 202.839,81.1201 209.5,81C 211.887,81.5637 213.887,82.7304 215.5,84.5C 215.903,87.4855 216.903,90.1522 218.5,92.5C 220.438,97.3844 222.105,102.384 223.5,107.5C 223.308,109.577 222.808,111.577 222,113.5C 219.91,116.022 218.076,118.688 216.5,121.5C 215.728,122.694 214.728,123.694 213.5,124.5C 213.655,120.612 212.655,117.112 210.5,114C 205.811,110.327 200.478,108.493 194.5,108.5C 193.167,108.5 191.833,108.5 190.5,108.5C 190.687,101.349 187.353,96.6821 180.5,94.5C 174.562,90.8684 170.895,85.5351 169.5,78.5C 169.664,75.8127 169.497,73.146 169,70.5C 168.282,69.5494 167.449,69.3828 166.5,70C 163.979,73.8427 163.979,77.676 166.5,81.5C 166.678,84.2165 167.178,86.8832 168,89.5C 173.207,94.8482 178.707,99.8482 184.5,104.5C 184.5,105.5 184.5,106.5 184.5,107.5C 183.883,107.611 183.383,107.944 183,108.5C 171.342,95.9608 165.842,98.2942 166.5,115.5C 165.167,116.167 164.167,117.167 163.5,118.5C 162.833,118.5 162.167,118.5 161.5,118.5C 158.189,116.198 154.856,113.865 151.5,111.5C 144.312,113.18 136.979,114.013 129.5,114C 131.155,115.444 131.822,117.278 131.5,119.5C 128.203,119.671 127.869,119.005 130.5,117.5C 128.291,114.434 125.457,113.768 122,115.5C 122.266,113.536 123.433,112.036 125.5,111C 124.748,110.329 124.414,109.496 124.5,108.5C 125.911,109.908 127.577,110.908 129.5,111.5C 130.647,111.182 131.481,110.516 132,109.5C 137.599,110.825 143.099,110.825 148.5,109.5C 149.609,109.443 150.609,109.11 151.5,108.5C 153.044,108.297 154.378,107.63 155.5,106.5C 156.316,108.287 157.316,109.954 158.5,111.5C 159.942,105.795 159.275,100.462 156.5,95.5C 155.381,90.6446 153.215,86.3113 150,82.5C 149.15,77.0167 149.65,71.6834 151.5,66.5C 156.134,62.8444 161.134,59.6777 166.5,57C 170.988,56.4399 175.321,56.7732 179.5,58C 182.593,53.8001 181.76,50.6335 177,48.5C 174.066,49.84 171.899,52.0066 170.5,55C 164.693,56.2368 159.359,58.5701 154.5,62C 152.959,63.3712 151.625,64.8712 150.5,66.5C 147.015,71.533 145.681,77.1997 146.5,83.5C 147.008,85.8654 147.675,88.1987 148.5,90.5C 147.352,93.5369 148.352,95.5369 151.5,96.5C 151.552,98.9029 151.219,101.236 150.5,103.5C 149.167,105.5 147.833,107.5 146.5,109.5C 142.486,109.666 138.486,109.499 134.5,109C 129.931,106.459 128.431,102.625 130,97.5C 133.485,95.1796 136.651,92.5129 139.5,89.5C 132.027,90.9709 127.361,95.6375 125.5,103.5C 124.859,102.007 123.859,101.007 122.5,100.5C 121.414,100.38 120.747,99.7133 120.5,98.5C 121.84,97.0104 122.84,95.3437 123.5,93.5C 125.483,92.0978 127.149,90.2645 128.5,88C 131.5,86.3333 134.5,84.6667 137.5,83C 132.374,83.886 127.374,85.386 122.5,87.5C 122.715,85.8212 122.048,84.8212 120.5,84.5C 120.557,83.391 120.89,82.391 121.5,81.5C 123.194,79.1394 125.194,77.1394 127.5,75.5C 128.675,75.719 129.675,75.3857 130.5,74.5C 128.637,73.3112 126.97,71.9779 125.5,70.5C 125.369,69.7611 125.536,69.0944 126,68.5C 128.795,66.7068 131.295,64.5402 133.5,62C 129.063,62.0403 125.063,63.5403 121.5,66.5C 120.5,66.5 119.5,66.5 118.5,66.5C 118.737,65.209 118.404,64.209 117.5,63.5C 120.687,57.4709 125.187,52.4709 131,48.5C 131.27,45.7759 131.77,43.1092 132.5,40.5C 134.173,38.9137 136.173,38.2471 138.5,38.5C 144.5,39.8333 150.5,39.8333 156.5,38.5C 160.275,36.061 164.275,34.061 168.5,32.5C 171.146,31.5134 173.812,30.5134 176.5,29.5C 177.298,29.0431 177.631,28.3764 177.5,27.5C 179.086,26.5868 180.586,26.5868 182,27.5C 182.689,26.6433 183.522,25.9767 184.5,25.5C 187.218,30.6943 191.551,33.0277 197.5,32.5 Z"/></g>
<g><path style="opacity:1" fill="#2e2e2f" d="M 133.5,48.5 C 136.519,47.2555 139.686,47.2555 143,48.5C 146.398,51.4496 146.231,54.2829 142.5,57C 140.471,57.6811 138.471,58.0144 136.5,58C 134.567,55.3241 133.4,52.4908 133,49.5C 133.333,50.1667 133.667,50.8333 134,51.5C 134.74,50.2506 134.573,49.2506 133.5,48.5 Z"/></g>
<g><path style="opacity:1" fill="#3c0f11" d="M 200.5,45.5 C 201.748,46.3339 202.415,47.6672 202.5,49.5C 202.167,50.8333 201.833,52.1667 201.5,53.5C 200.52,50.9135 200.187,48.2469 200.5,45.5 Z"/></g>
<g><path style="opacity:1" fill="#3e1012" d="M 151.5,66.5 C 151.167,66.5 150.833,66.5 150.5,66.5C 151.625,64.8712 152.959,63.3712 154.5,62C 159.359,58.5701 164.693,56.2368 170.5,55C 171.899,52.0066 174.066,49.84 177,48.5C 181.76,50.6335 182.593,53.8001 179.5,58C 175.321,56.7732 170.988,56.4399 166.5,57C 161.134,59.6777 156.134,62.8444 151.5,66.5 Z"/></g>
<g><path style="opacity:1" fill="#0c0101" d="M 175.5,50.5 C 179.225,50.5372 180.558,52.2038 179.5,55.5C 173.984,56.8856 172.651,55.219 175.5,50.5 Z"/></g>
<g><path style="opacity:1" fill="#6c4745" d="M 194.5,68.5 C 192.952,68.8212 192.285,69.8212 192.5,71.5C 191.305,71.1344 190.639,70.301 190.5,69C 191.528,65.7789 192.694,62.6123 194,59.5C 195.388,58.4464 196.888,58.2797 198.5,59C 194.233,61.0244 192.9,64.1911 194.5,68.5 Z"/></g>
<g><path style="opacity:1" fill="#0c0607" d="M 211.5,72.5 C 210.5,74.5 209.5,76.5 208.5,78.5C 205.385,80.1774 202.718,79.8441 200.5,77.5C 202.13,75.9739 202.963,73.9739 203,71.5C 207.747,69.3505 210.581,65.6838 211.5,60.5C 215.694,61.9076 217.694,60.2409 217.5,55.5C 217.377,54.0755 217.043,52.7421 216.5,51.5C 217.209,50.596 218.209,50.2627 219.5,50.5C 219.889,53.3004 220.389,55.9671 221,58.5C 220.626,59.4162 220.126,60.2496 219.5,61C 213.159,62.5668 210.492,66.4001 211.5,72.5 Z"/></g>
<g><path style="opacity:1" fill="#a49896" d="M 219.5,63.5 C 218.833,64.8333 218.167,66.1667 217.5,67.5C 216.833,67.8333 216.167,68.1667 215.5,68.5C 215.709,67.0783 216.209,65.745 217,64.5C 217.838,63.001 218.671,62.6676 219.5,63.5 Z"/></g>
<g><path style="opacity:1" fill="#6e312f" d="M 117.5,63.5 C 118.404,64.209 118.737,65.209 118.5,66.5C 119.5,66.5 120.5,66.5 121.5,66.5C 120.713,68.1042 119.38,68.7709 117.5,68.5C 117.662,70.5273 117.495,72.5273 117,74.5C 116.617,75.056 116.117,75.3893 115.5,75.5C 116.259,71.5233 116.925,67.5233 117.5,63.5 Z"/></g>
<g><path style="opacity:1" fill="#71605f" d="M 179.5,64.5 C 179.5,66.1667 179.5,67.8333 179.5,69.5C 177.076,67.7724 176.91,65.7724 179,63.5C 179.399,63.7284 179.565,64.0618 179.5,64.5 Z"/></g>
<g><path style="opacity:1" fill="#9a0f0c" d="M 125.5,70.5 C 122.642,73.0862 119.642,75.4195 116.5,77.5C 115.662,77.1583 115.328,76.4916 115.5,75.5C 116.117,75.3893 116.617,75.056 117,74.5C 117.495,72.5273 117.662,70.5273 117.5,68.5C 119.38,68.7709 120.713,68.1042 121.5,66.5C 125.063,63.5403 129.063,62.0403 133.5,62C 131.295,64.5402 128.795,66.7068 126,68.5C 125.536,69.0944 125.369,69.7611 125.5,70.5 Z"/></g>
<g><path style="opacity:1" fill="#591e1e" d="M 179.5,64.5 C 180.203,66.6287 181.203,68.6287 182.5,70.5C 181.89,71.391 181.557,72.391 181.5,73.5C 180.326,72.4863 179.66,71.153 179.5,69.5C 179.5,67.8333 179.5,66.1667 179.5,64.5 Z"/></g>
<g><path style="opacity:1" fill="#76100f" d="M 194.5,68.5 C 195.609,68.5569 196.609,68.8902 197.5,69.5C 198.64,70.8014 199.973,71.9681 201.5,73C 198.881,72.9167 196.214,72.75 193.5,72.5C 192.833,72.5 192.5,72.1667 192.5,71.5C 192.285,69.8212 192.952,68.8212 194.5,68.5 Z"/></g>
<g><path style="opacity:1" fill="#9f3936" d="M 217.5,67.5 C 217.784,69.4147 217.451,71.0813 216.5,72.5C 215.637,73.463 214.97,73.463 214.5,72.5C 215.246,71.2638 215.579,69.9305 215.5,68.5C 216.167,68.1667 216.833,67.8333 217.5,67.5 Z"/></g>
<g><path style="opacity:1" fill="#520809" d="M 125.5,70.5 C 126.97,71.9779 128.637,73.3112 130.5,74.5C 129.675,75.3857 128.675,75.719 127.5,75.5C 124.898,74.0313 122.731,74.698 121,77.5C 120.235,79.0657 120.402,80.3991 121.5,81.5C 120.89,82.391 120.557,83.391 120.5,84.5C 119.422,88.2698 118.755,88.2698 118.5,84.5C 118.997,82.1817 119.33,79.8484 119.5,77.5C 118.5,77.5 117.5,77.5 116.5,77.5C 119.642,75.4195 122.642,73.0862 125.5,70.5 Z"/></g>
<g><path style="opacity:1" fill="#dacfcf" d="M 169.5,78.5 C 168.842,77.6016 168.176,76.6016 167.5,75.5C 166.534,77.396 166.201,79.396 166.5,81.5C 163.979,77.676 163.979,73.8427 166.5,70C 167.449,69.3828 168.282,69.5494 169,70.5C 169.497,73.146 169.664,75.8127 169.5,78.5 Z"/></g>
<g><path style="opacity:1" fill="#c4a39c" d="M 182.5,70.5 C 183.906,70.9731 184.573,71.9731 184.5,73.5C 184.158,74.3382 183.492,74.6716 182.5,74.5C 182.5,73.8333 182.167,73.5 181.5,73.5C 181.557,72.391 181.89,71.391 182.5,70.5 Z"/></g>
<g><path style="opacity:1" fill="#e1cccb" d="M 215.5,68.5 C 215.579,69.9305 215.246,71.2638 214.5,72.5C 214.97,73.463 215.637,73.463 216.5,72.5C 216.5,74.5 216.5,76.5 216.5,78.5C 213.503,77.482 210.837,77.482 208.5,78.5C 209.5,76.5 210.5,74.5 211.5,72.5C 212.473,70.8608 213.806,69.5274 215.5,68.5 Z"/></g>
<g><path style="opacity:1" fill="#200e0d" d="M 216.5,51.5 C 217.043,52.7421 217.377,54.0755 217.5,55.5C 217.694,60.2409 215.694,61.9076 211.5,60.5C 210.581,65.6838 207.747,69.3505 203,71.5C 202.963,73.9739 202.13,75.9739 200.5,77.5C 200.565,77.0618 200.399,76.7284 200,76.5C 197.678,79.3974 194.845,80.3974 191.5,79.5C 192.685,78.1434 193.685,76.6434 194.5,75C 194.257,74.0979 193.923,73.2646 193.5,72.5C 196.214,72.75 198.881,72.9167 201.5,73C 199.973,71.9681 198.64,70.8014 197.5,69.5C 198.552,69.6495 199.552,69.4828 200.5,69C 203.193,66.3281 205.859,63.6614 208.5,61C 206.148,60.7599 204.148,59.9265 202.5,58.5C 205.059,58.8016 207.393,58.4682 209.5,57.5C 212.678,56.4705 215.011,54.4705 216.5,51.5 Z"/></g>
<g><path style="opacity:1" fill="#8c1210" d="M 127.5,75.5 C 125.194,77.1394 123.194,79.1394 121.5,81.5C 120.402,80.3991 120.235,79.0657 121,77.5C 122.731,74.698 124.898,74.0313 127.5,75.5 Z"/></g>
<g><path style="opacity:1" fill="#4f1a18" d="M 184.5,73.5 C 186.255,74.9618 187.588,76.7951 188.5,79C 189.448,79.4828 190.448,79.6495 191.5,79.5C 194.845,80.3974 197.678,79.3974 200,76.5C 200.399,76.7284 200.565,77.0618 200.5,77.5C 202.718,79.8441 205.385,80.1774 208.5,78.5C 210.837,77.482 213.503,77.482 216.5,78.5C 215.048,79.3019 213.382,79.8019 211.5,80C 213.66,80.9959 215.327,82.4959 216.5,84.5C 216.167,84.5 215.833,84.5 215.5,84.5C 213.887,82.7304 211.887,81.5637 209.5,81C 202.839,81.1201 196.173,81.1201 189.5,81C 186.017,80.0153 183.684,77.8486 182.5,74.5C 183.492,74.6716 184.158,74.3382 184.5,73.5 Z"/></g>
<g><path style="opacity:1" fill="#531f1f" d="M 115.5,75.5 C 115.328,76.4916 115.662,77.1583 116.5,77.5C 113.979,79.701 111.479,82.0343 109,84.5C 108.333,83.8333 108.333,83.1667 109,82.5C 111.343,80.2641 113.51,77.9308 115.5,75.5 Z"/></g>
<g><path style="opacity:1" fill="#73221f" d="M 150.5,66.5 C 150.833,66.5 151.167,66.5 151.5,66.5C 149.65,71.6834 149.15,77.0167 150,82.5C 153.215,86.3113 155.381,90.6446 156.5,95.5C 156.5,96.5 156.5,97.5 156.5,98.5C 155.768,97.1917 154.934,95.8584 154,94.5C 152.784,96.962 152.118,99.6287 152,102.5C 151.617,103.056 151.117,103.389 150.5,103.5C 151.219,101.236 151.552,98.9029 151.5,96.5C 151.274,92.7076 150.44,89.0409 149,85.5C 148.292,84.6195 147.458,83.9528 146.5,83.5C 145.681,77.1997 147.015,71.533 150.5,66.5 Z"/></g>
<g><path style="opacity:1" fill="#8fadc1" d="M 31.5,84.5 C 35.1351,84.6556 35.4685,85.8223 32.5,88C 29.1432,87.7407 25.8099,87.5741 22.5,87.5C 25.5046,86.1823 28.5046,85.1823 31.5,84.5 Z"/></g>
<g><path style="opacity:1" fill="#837675" d="M 215.5,84.5 C 215.833,84.5 216.167,84.5 216.5,84.5C 217.768,86.9052 218.435,89.5718 218.5,92.5C 216.903,90.1522 215.903,87.4855 215.5,84.5 Z"/></g>
<g><path style="opacity:1" fill="#383333" d="M 123.5,93.5 C 122.85,91.5648 122.517,89.5648 122.5,87.5C 127.374,85.386 132.374,83.886 137.5,83C 134.5,84.6667 131.5,86.3333 128.5,88C 127.149,90.2645 125.483,92.0978 123.5,93.5 Z"/></g>
<g><path style="opacity:1" fill="#543f3d" d="M 146.5,83.5 C 147.458,83.9528 148.292,84.6195 149,85.5C 150.44,89.0409 151.274,92.7076 151.5,96.5C 148.352,95.5369 147.352,93.5369 148.5,90.5C 147.675,88.1987 147.008,85.8654 146.5,83.5 Z"/></g>
<g><path style="opacity:1" fill="#9a120e" d="M 169.5,78.5 C 170.895,85.5351 174.562,90.8684 180.5,94.5C 182.894,96.8906 184.894,99.5573 186.5,102.5C 186.253,103.713 185.586,104.38 184.5,104.5C 178.707,99.8482 173.207,94.8482 168,89.5C 167.178,86.8832 166.678,84.2165 166.5,81.5C 166.201,79.396 166.534,77.396 167.5,75.5C 168.176,76.6016 168.842,77.6016 169.5,78.5 Z"/></g>
<g><path style="opacity:1" fill="#2e84ae" d="M 36.5,98.5 C 42.8975,99.1018 42.8975,100.435 36.5,102.5C 35.7084,101.3 35.7084,99.9669 36.5,98.5 Z"/></g>
<g><path style="opacity:1" fill="#978988" d="M 218.5,92.5 C 219.892,94.2726 221.059,96.2726 222,98.5C 224.109,99.0353 224.609,100.035 223.5,101.5C 226.152,105.913 225.985,110.247 223,114.5C 221.248,116.351 219.748,118.351 218.5,120.5C 218.158,121.338 217.492,121.672 216.5,121.5C 218.076,118.688 219.91,116.022 222,113.5C 222.808,111.577 223.308,109.577 223.5,107.5C 222.105,102.384 220.438,97.3844 218.5,92.5 Z"/></g>
<g><path style="opacity:1" fill="#635b5b" d="M 244.5,97.5 C 246.066,101.635 244.399,103.635 239.5,103.5C 238.5,103.167 237.5,102.833 236.5,102.5C 238.933,100.946 241.6,100.28 244.5,100.5C 244.5,99.5 244.5,98.5 244.5,97.5 Z"/></g>
<g><path style="opacity:1" fill="#140606" d="M 40.5,74.5 C 43.1656,74.933 45.8323,75.433 48.5,76C 54.0803,82.7366 56.4136,90.4032 55.5,99C 55.9903,100.982 56.9903,102.649 58.5,104C 58,104.5 57.5,105 57,105.5C 55.9887,104.663 54.8221,104.33 53.5,104.5C 53.5391,106.359 52.7058,107.692 51,108.5C 48.2393,107.472 45.4059,107.472 42.5,108.5C 35.0412,107.482 34.8746,105.149 42,101.5C 42.813,99.5643 43.313,97.5643 43.5,95.5C 41.139,95.3259 38.8056,94.9926 36.5,94.5C 36.0217,91.7224 37.0217,89.7224 39.5,88.5C 38.0413,86.417 36.7079,84.2503 35.5,82C 37.0163,80.103 37.683,77.9363 37.5,75.5C 38.791,75.7373 39.791,75.404 40.5,74.5 Z"/></g>
<g><path style="opacity:1" fill="#2a0907" d="M 180.5,94.5 C 187.353,96.6821 190.687,101.349 190.5,108.5C 188.565,107.85 186.565,107.517 184.5,107.5C 184.5,106.5 184.5,105.5 184.5,104.5C 185.586,104.38 186.253,103.713 186.5,102.5C 184.894,99.5573 182.894,96.8906 180.5,94.5 Z"/></g>
<g><path style="opacity:1" fill="#a8140f" d="M 156.5,98.5 C 156.66,100.199 156.494,101.866 156,103.5C 154.293,105.037 152.793,106.704 151.5,108.5C 150.609,109.11 149.609,109.443 148.5,109.5C 147.833,109.5 147.167,109.5 146.5,109.5C 147.833,107.5 149.167,105.5 150.5,103.5C 151.117,103.389 151.617,103.056 152,102.5C 152.118,99.6287 152.784,96.962 154,94.5C 154.934,95.8584 155.768,97.1917 156.5,98.5 Z"/></g>
<g><path style="opacity:1" fill="#480504" d="M 156.5,95.5 C 159.275,100.462 159.942,105.795 158.5,111.5C 157.316,109.954 156.316,108.287 155.5,106.5C 154.378,107.63 153.044,108.297 151.5,108.5C 152.793,106.704 154.293,105.037 156,103.5C 156.494,101.866 156.66,100.199 156.5,98.5C 156.5,97.5 156.5,96.5 156.5,95.5 Z"/></g>
<g><path style="opacity:1" fill="#520d0c" d="M 146.5,109.5 C 147.167,109.5 147.833,109.5 148.5,109.5C 143.099,110.825 137.599,110.825 132,109.5C 131.481,110.516 130.647,111.182 129.5,111.5C 127.577,110.908 125.911,109.908 124.5,108.5C 122.949,106.087 122.283,103.421 122.5,100.5C 123.859,101.007 124.859,102.007 125.5,103.5C 127.361,95.6375 132.027,90.9709 139.5,89.5C 136.651,92.5129 133.485,95.1796 130,97.5C 128.431,102.625 129.931,106.459 134.5,109C 138.486,109.499 142.486,109.666 146.5,109.5 Z"/></g>
<g><path style="opacity:1" fill="#6996ac" d="M 46.5,109.5 C 45.8333,110.833 44.8333,111.833 43.5,112.5C 39.2879,112.078 35.2879,112.744 31.5,114.5C 31.1667,114.167 30.8333,113.833 30.5,113.5C 35.575,111.142 40.9083,109.808 46.5,109.5 Z"/></g>
<g><path style="opacity:1" fill="#6f6c6c" d="M 210.5,124.5 C 211.5,124.5 212.5,124.5 213.5,124.5C 213.027,128.638 210.693,130.638 206.5,130.5C 206.5,130.167 206.5,129.833 206.5,129.5C 204.293,126.289 201.293,124.289 197.5,123.5C 196.578,120.874 195.578,118.207 194.5,115.5C 193.675,114.614 192.675,114.281 191.5,114.5C 191.5,113.167 191.5,111.833 191.5,110.5C 187.78,110.564 184.114,111.064 180.5,112C 173.891,115.709 167.557,119.875 161.5,124.5C 161.971,122.421 162.637,120.421 163.5,118.5C 164.167,117.167 165.167,116.167 166.5,115.5C 171.947,115.52 176.614,113.687 180.5,110C 184.833,109.333 189.167,109.333 193.5,110C 196.722,112.888 200.222,115.388 204,117.5C 204.375,120 205.208,122.333 206.5,124.5C 207.958,125.782 209.292,125.782 210.5,124.5 Z"/></g>
<g><path style="opacity:1" fill="#2a2d32" d="M 46.5,109.5 C 49.4678,109.626 51.4678,111.126 52.5,114C 50.2199,114.233 48.2199,115.066 46.5,116.5C 45.4756,115.148 44.4756,113.815 43.5,112.5C 44.8333,111.833 45.8333,110.833 46.5,109.5 Z"/></g>
<g><path style="opacity:1" fill="#2f2f2f" d="M 194.5,108.5 C 200.478,108.493 205.811,110.327 210.5,114C 212.655,117.112 213.655,120.612 213.5,124.5C 212.5,124.5 211.5,124.5 210.5,124.5C 207.645,123.126 206.145,120.793 206,117.5C 202.817,113.462 198.984,110.462 194.5,108.5 Z"/></g>
<g><path style="opacity:1" fill="#6e5757" d="M 111.5,121.5 C 111.5,121.833 111.5,122.167 111.5,122.5C 107.648,120.652 105.315,117.652 104.5,113.5C 105.15,108.851 105.65,104.184 106,99.5C 106.883,107.083 108.716,114.416 111.5,121.5 Z"/></g>
<g><path style="opacity:1" fill="#4a494a" d="M 184.5,107.5 C 186.565,107.517 188.565,107.85 190.5,108.5C 191.833,108.5 193.167,108.5 194.5,108.5C 198.984,110.462 202.817,113.462 206,117.5C 206.145,120.793 207.645,123.126 210.5,124.5C 209.292,125.782 207.958,125.782 206.5,124.5C 205.208,122.333 204.375,120 204,117.5C 200.222,115.388 196.722,112.888 193.5,110C 189.167,109.333 184.833,109.333 180.5,110C 176.614,113.687 171.947,115.52 166.5,115.5C 165.842,98.2942 171.342,95.9608 183,108.5C 183.383,107.944 183.883,107.611 184.5,107.5 Z"/></g>
<g><path style="opacity:1" fill="#797979" d="M 197.5,138.5 C 197.579,139.93 197.246,141.264 196.5,142.5C 190.821,144.162 187.821,147.829 187.5,153.5C 186.255,149.254 183.588,146.254 179.5,144.5C 179.53,143.503 179.03,142.836 178,142.5C 171.5,142.672 166.167,140.339 162,135.5C 161.349,131.523 162.182,127.857 164.5,124.5C 170.802,121.435 177.302,118.768 184,116.5C 194.091,116.994 198.091,121.994 196,131.5C 193.466,133.569 192.299,136.235 192.5,139.5C 194.292,139.634 195.958,139.301 197.5,138.5 Z"/></g>
<g><path style="opacity:1" fill="#4098c1" d="M 52.5,124.5 C 50.9184,125.876 49.0851,126.876 47,127.5C 46.2352,127.43 45.7352,127.097 45.5,126.5C 47.2197,123.558 49.553,122.891 52.5,124.5 Z"/></g>
<g><path style="opacity:1" fill="#3a3837" d="M 161.5,118.5 C 162.167,118.5 162.833,118.5 163.5,118.5C 162.637,120.421 161.971,122.421 161.5,124.5C 159.605,125.973 157.939,127.64 156.5,129.5C 157.594,125.541 159.261,121.875 161.5,118.5 Z"/></g>
<g><path style="opacity:1" fill="#8f8180" d="M 206.5,129.5 C 204.236,128.781 201.903,128.448 199.5,128.5C 199.5,129.833 199.5,131.167 199.5,132.5C 198.27,134.297 197.604,136.297 197.5,138.5C 195.958,139.301 194.292,139.634 192.5,139.5C 192.299,136.235 193.466,133.569 196,131.5C 198.091,121.994 194.091,116.994 184,116.5C 177.302,118.768 170.802,121.435 164.5,124.5C 162.182,127.857 161.349,131.523 162,135.5C 166.167,140.339 171.5,142.672 178,142.5C 179.03,142.836 179.53,143.503 179.5,144.5C 170.46,144.143 162.794,140.809 156.5,134.5C 155.89,133.609 155.557,132.609 155.5,131.5C 155.328,130.508 155.662,129.842 156.5,129.5C 157.939,127.64 159.605,125.973 161.5,124.5C 167.557,119.875 173.891,115.709 180.5,112C 184.114,111.064 187.78,110.564 191.5,110.5C 191.5,111.833 191.5,113.167 191.5,114.5C 192.675,114.281 193.675,114.614 194.5,115.5C 195.578,118.207 196.578,120.874 197.5,123.5C 201.293,124.289 204.293,126.289 206.5,129.5 Z"/></g>
<g><path style="opacity:1" fill="#6b6c6d" d="M 178.5,119.5 C 182.351,118.971 185.851,119.638 189,121.5C 189.808,123.579 189.641,125.579 188.5,127.5C 186.422,129.39 185.089,131.724 184.5,134.5C 180.843,136.041 177.01,137.041 173,137.5C 168.268,138.026 165.102,135.86 163.5,131C 167.817,126.182 172.817,122.348 178.5,119.5 Z"/></g>
<g><path style="opacity:1" fill="#a6615e" d="M 206.5,129.5 C 206.5,129.833 206.5,130.167 206.5,130.5C 205.542,130.953 204.708,131.619 204,132.5C 203.601,132.272 203.435,131.938 203.5,131.5C 203.631,130.624 203.298,129.957 202.5,129.5C 201.712,130.77 200.712,131.77 199.5,132.5C 199.5,131.167 199.5,129.833 199.5,128.5C 201.903,128.448 204.236,128.781 206.5,129.5 Z"/></g>
<g><path style="opacity:1" fill="#45191a" d="M 218.5,120.5 C 220.199,120.34 221.866,120.506 223.5,121C 220.844,122.582 218.177,124.249 215.5,126C 217.675,125.951 219.842,125.451 222,124.5C 222.5,124.833 223,125.167 223.5,125.5C 216.106,129.197 208.773,132.864 201.5,136.5C 201.402,134.447 202.069,132.78 203.5,131.5C 203.435,131.938 203.601,132.272 204,132.5C 204.708,131.619 205.542,130.953 206.5,130.5C 210.693,130.638 213.027,128.638 213.5,124.5C 214.728,123.694 215.728,122.694 216.5,121.5C 217.492,121.672 218.158,121.338 218.5,120.5 Z"/></g>
<g><path style="opacity:1" fill="#98221f" d="M 203.5,131.5 C 202.069,132.78 201.402,134.447 201.5,136.5C 201.027,137.906 200.027,138.573 198.5,138.5C 198.167,138.5 197.833,138.5 197.5,138.5C 197.604,136.297 198.27,134.297 199.5,132.5C 200.712,131.77 201.712,130.77 202.5,129.5C 203.298,129.957 203.631,130.624 203.5,131.5 Z"/></g>
<g><path style="opacity:1" fill="#3a2e2e" d="M 52.5,124.5 C 52.3433,125.873 52.51,127.207 53,128.5C 55.9063,131.037 59.073,133.204 62.5,135C 59.6672,136.488 57.0006,138.155 54.5,140C 57.3711,145.311 58.7044,150.811 58.5,156.5C 56.5,156.5 54.5,156.5 52.5,156.5C 50.7253,151.668 49.2253,146.668 48,141.5C 46.6667,140.833 45.3333,140.167 44,139.5C 43.3064,135.446 43.4731,131.446 44.5,127.5C 44.5,126.833 44.8333,126.5 45.5,126.5C 45.7352,127.097 46.2352,127.43 47,127.5C 49.0851,126.876 50.9184,125.876 52.5,124.5 Z"/></g>
<g><path style="opacity:1" fill="#524b4b" d="M 155.5,131.5 C 155.557,132.609 155.89,133.609 156.5,134.5C 150.702,138.041 144.702,138.374 138.5,135.5C 137.201,136.09 136.368,137.09 136,138.5C 131.895,134.202 128.895,134.868 127,140.5C 125.73,136.23 122.896,133.73 118.5,133C 114.781,130.388 112.448,126.888 111.5,122.5C 111.5,122.167 111.5,121.833 111.5,121.5C 113.808,120.963 116.141,121.463 118.5,123C 121.167,125.667 123.833,128.333 126.5,131C 133.328,132.164 140.162,133.331 147,134.5C 150.323,134.749 153.157,133.749 155.5,131.5 Z"/></g>
<g><path style="opacity:1" fill="#28272c" d="M 44.5,127.5 C 43.4731,131.446 43.3064,135.446 44,139.5C 45.3333,140.167 46.6667,140.833 48,141.5C 49.2253,146.668 50.7253,151.668 52.5,156.5C 54.5,156.5 56.5,156.5 58.5,156.5C 53.4816,158.344 48.4816,160.344 43.5,162.5C 43.9817,161.584 44.315,160.584 44.5,159.5C 42.6401,155.256 40.9734,150.922 39.5,146.5C 40.0461,140.933 39.3794,135.6 37.5,130.5C 39.6415,129.048 41.9748,128.048 44.5,127.5 Z"/></g>
<g><path style="opacity:1" fill="#333334" d="M 230.5,135.5 C 223.599,135.314 216.932,136.48 210.5,139C 207.933,141.396 205.6,143.896 203.5,146.5C 204.051,143.733 205.384,141.4 207.5,139.5C 213.563,134.305 220.563,132.472 228.5,134C 229.416,134.278 230.082,134.778 230.5,135.5 Z"/></g>
<g><path style="opacity:1" fill="#3590b4" d="M 13.5,139.5 C 15.1992,139.34 16.8659,139.506 18.5,140C 15.6078,142.78 12.2744,144.446 8.5,145C 11.079,143.924 12.7457,142.091 13.5,139.5 Z"/></g>
<g><path style="opacity:1" fill="#706a69" d="M 230.5,135.5 C 232.255,136.072 233.922,136.906 235.5,138C 223.808,138.397 213.141,141.897 203.5,148.5C 203.5,147.833 203.5,147.167 203.5,146.5C 205.6,143.896 207.933,141.396 210.5,139C 216.932,136.48 223.599,135.314 230.5,135.5 Z"/></g>
<g><path style="opacity:1" fill="#06080d" d="M 41.5,143.5 C 43.7224,143.178 45.5557,143.845 47,145.5C 47.7319,148.529 48.5652,151.529 49.5,154.5C 48.6578,157.01 47.1578,157.677 45,156.5C 43.6731,152.191 42.5065,147.858 41.5,143.5 Z"/></g>
<g><path style="opacity:1" fill="#4c4a4a" d="M 197.5,138.5 C 197.833,138.5 198.167,138.5 198.5,138.5C 198.274,141.249 198.607,143.916 199.5,146.5C 200.808,147.626 202.142,147.626 203.5,146.5C 203.5,147.167 203.5,147.833 203.5,148.5C 200.794,153.386 197.461,157.886 193.5,162C 192.056,162.781 190.723,162.614 189.5,161.5C 188.831,158.803 188.164,156.137 187.5,153.5C 187.821,147.829 190.821,144.162 196.5,142.5C 197.246,141.264 197.579,139.93 197.5,138.5 Z"/></g>
<g><path style="opacity:1" fill="#473d3e" d="M 130.5,140.5 C 131.458,140.953 132.292,141.619 133,142.5C 133.333,142.167 133.667,141.833 134,141.5C 135.082,145.674 136.749,149.674 139,153.5C 139.967,157.933 139.134,158.433 136.5,155C 131.601,153.875 127.101,154.709 123,157.5C 122.167,156.5 121.333,155.5 120.5,154.5C 119.604,155.506 118.938,155.506 118.5,154.5C 122.081,152.427 125.248,149.76 128,146.5C 129.669,144.831 130.502,142.831 130.5,140.5 Z"/></g>
<g><path style="opacity:1" fill="#446271" d="M 14.5,151.5 C 15.8734,151.343 17.2068,151.51 18.5,152C 15.5119,154.144 12.5119,154.477 9.5,153C 11.3817,152.802 13.0484,152.302 14.5,151.5 Z"/></g>
<g><path style="opacity:1" fill="#251818" d="M 39.5,146.5 C 40.9734,150.922 42.6401,155.256 44.5,159.5C 44.315,160.584 43.9817,161.584 43.5,162.5C 40.7974,164.068 37.7974,165.068 34.5,165.5C 32.7139,165.304 31.3805,164.471 30.5,163C 33.5,162.667 36.5,162.333 39.5,162C 36.3085,157.045 35.3085,151.711 36.5,146C 37.5768,145.53 38.5768,145.697 39.5,146.5 Z"/></g>
<g><path style="opacity:1" fill="#484647" d="M 135.5,160.5 C 130.872,161.985 126.538,164.319 122.5,167.5C 121.185,166.846 120.185,166.846 119.5,167.5C 117.926,165.898 117.259,163.898 117.5,161.5C 123.545,161.697 129.545,161.363 135.5,160.5 Z"/></g>
<g><path style="opacity:1" fill="#706c6c" d="M 119.5,167.5 C 120.185,166.846 121.185,166.846 122.5,167.5C 126.538,164.319 130.872,161.985 135.5,160.5C 137.374,158.905 138.207,159.239 138,161.5C 134.386,168.223 128.886,171.056 121.5,170C 120.619,169.292 119.953,168.458 119.5,167.5 Z"/></g>
</svg>
