<?xml version="1.0" encoding="UTF-8"?>
<!DOCTYPE svg PUBLIC "-//W3C//DTD SVG 1.1//EN" "http://www.w3.org/Graphics/SVG/1.1/DTD/svg11.dtd">
<svg xmlns="http://www.w3.org/2000/svg" version="1.1" width="256px" height="182px" style="shape-rendering:geometricPrecision; text-rendering:geometricPrecision; image-rendering:optimizeQuality; fill-rule:evenodd; clip-rule:evenodd" xmlns:xlink="http://www.w3.org/1999/xlink">
<g><path style="opacity:0.999" fill="#020203" d="M 4.5,-0.5 C 13.8333,-0.5 23.1667,-0.5 32.5,-0.5C 37.0552,9.21517 43.5552,10.8818 52,4.5C 52.6077,2.84552 53.1077,1.17885 53.5,-0.5C 75.5,-0.5 97.5,-0.5 119.5,-0.5C 119.5,15.1667 119.5,30.8333 119.5,46.5C 116.512,51.8061 113.512,57.1394 110.5,62.5C 108.738,61.7377 107.738,60.4044 107.5,58.5C 106.674,55.5152 105.341,52.8485 103.5,50.5C 103.597,47.6864 102.431,45.6864 100,44.5C 97.5358,46.709 95.7025,49.3757 94.5,52.5C 93.8165,52.1373 93.1499,51.8039 92.5,51.5C 91.8404,47.6873 90.6738,44.0207 89,40.5C 87.9887,39.6634 86.8221,39.33 85.5,39.5C 85.5,40.5 85.5,41.5 85.5,42.5C 83.049,45.7403 81.3824,49.4069 80.5,53.5C 78.5714,57.2858 77.2381,61.2858 76.5,65.5C 78.0988,70.6235 80.0988,75.6235 82.5,80.5C 82.3764,81.1067 82.0431,81.44 81.5,81.5C 79.6754,85.5654 78.3421,89.8987 77.5,94.5C 79.3423,103.822 82.0089,112.822 85.5,121.5C 85.5,122.833 85.5,124.167 85.5,125.5C 76.6526,125.569 67.8193,125.236 59,124.5C 51.6186,126.004 44.1186,126.671 36.5,126.5C 35.1667,126.5 33.8333,126.5 32.5,126.5C 31.8333,126.5 31.1667,126.5 30.5,126.5C 36.825,125.22 43.1583,123.72 49.5,122C 38.9234,121.821 28.4234,121.321 18,120.5C 11.9581,121.921 5.79142,122.588 -0.5,122.5C -0.5,116.833 -0.5,111.167 -0.5,105.5C 10.9078,114.654 20.0745,112.654 27,99.5C 29.6448,83.1544 22.8114,75.3211 6.5,76C 4.13838,77.5106 1.80505,79.0106 -0.5,80.5C -0.5,55.5 -0.5,30.5 -0.5,5.5C 1.13696,3.52483 2.80363,1.52483 4.5,-0.5 Z"/></g>
<g><path style="opacity:1" fill="#f7c7db" d="M 32.5,-0.5 C 39.5,-0.5 46.5,-0.5 53.5,-0.5C 53.1077,1.17885 52.6077,2.84552 52,4.5C 43.5552,10.8818 37.0552,9.21517 32.5,-0.5 Z"/></g>
<g><path style="opacity:1" fill="#efeeef" d="M 119.5,-0.5 C 124.833,-0.5 130.167,-0.5 135.5,-0.5C 135.5,14.8333 135.5,30.1667 135.5,45.5C 134.5,44.8333 133.5,44.1667 132.5,43.5C 132.25,41.326 131.25,39.6594 129.5,38.5C 128.167,34.5 126.833,34.5 125.5,38.5C 123.75,39.6594 122.75,41.326 122.5,43.5C 121.272,44.3065 120.272,45.3065 119.5,46.5C 119.5,30.8333 119.5,15.1667 119.5,-0.5 Z"/></g>
<g><path style="opacity:0.999" fill="#020203" d="M 135.5,-0.5 C 157.5,-0.5 179.5,-0.5 201.5,-0.5C 203.741,8.63069 209.075,10.964 217.5,6.5C 219.58,4.42676 221.246,2.09343 222.5,-0.5C 231.5,-0.5 240.5,-0.5 249.5,-0.5C 251.475,1.13696 253.475,2.80363 255.5,4.5C 255.5,29.8333 255.5,55.1667 255.5,80.5C 244.05,72.1899 234.884,74.1899 228,86.5C 225.286,96.8844 228.453,104.718 237.5,110C 244.508,112.497 250.508,110.997 255.5,105.5C 255.5,110.833 255.5,116.167 255.5,121.5C 237.476,121.212 219.476,121.712 201.5,123C 209.791,123.658 217.791,125.492 225.5,128.5C 224.388,129.265 223.721,130.265 223.5,131.5C 222.833,131.5 222.167,131.5 221.5,131.5C 218.213,130.839 214.88,130.339 211.5,130C 214.167,129.333 214.167,128.667 211.5,128C 209.19,127.503 206.857,127.337 204.5,127.5C 194.334,125.964 184.001,125.631 173.5,126.5C 172.167,126.167 170.833,125.833 169.5,125.5C 170.363,124.274 170.363,122.94 169.5,121.5C 171.243,118.505 172.243,115.171 172.5,111.5C 174.272,105.638 175.272,99.6382 175.5,93.5C 176.139,92.9032 176.472,92.0698 176.5,91C 176.178,87.4913 175.178,84.3246 173.5,81.5C 172.957,81.44 172.624,81.1067 172.5,80.5C 174.605,74.8202 176.605,69.1536 178.5,63.5C 178.66,61.6455 177.993,60.3121 176.5,59.5C 176.405,57.2143 175.738,55.2143 174.5,53.5C 173.618,49.4069 171.951,45.7403 169.5,42.5C 168.878,41.3734 168.045,40.3734 167,39.5C 165.278,42.2791 164.111,45.2791 163.5,48.5C 162.463,49.9303 161.796,51.597 161.5,53.5C 159.59,52.0254 158.424,50.0254 158,47.5C 156.981,46.3128 155.814,45.3128 154.5,44.5C 153.893,44.6236 153.56,44.9569 153.5,45.5C 153.598,47.5529 152.931,49.2196 151.5,50.5C 149.659,52.8485 148.326,55.5152 147.5,58.5C 146.974,60.2303 145.974,61.5637 144.5,62.5C 141.023,57.0398 138.023,51.3732 135.5,45.5C 135.5,30.1667 135.5,14.8333 135.5,-0.5 Z"/></g>
<g><path style="opacity:1" fill="#f5c6da" d="M 201.5,-0.5 C 208.5,-0.5 215.5,-0.5 222.5,-0.5C 221.246,2.09343 219.58,4.42676 217.5,6.5C 209.075,10.964 203.741,8.63069 201.5,-0.5 Z"/></g>
<g><path style="opacity:1" fill="#91e6f8" d="M 35.5,29.5 C 47.6014,28.1057 55.7681,33.1057 60,44.5C 62.3792,54.3043 60.2125,62.8043 53.5,70C 38.8814,76.2774 29.048,71.7774 24,56.5C 21.3608,44.5464 25.1941,35.5464 35.5,29.5 Z"/></g>
<g><path style="opacity:1" fill="#91e6f8" d="M 208.5,29.5 C 223.264,28.4327 230.931,35.2661 231.5,50C 230.455,67.396 221.455,74.7293 204.5,72C 197.048,67.2606 193.714,60.4272 194.5,51.5C 194.771,41.2542 199.437,33.9209 208.5,29.5 Z"/></g>
<g><path style="opacity:1" fill="#6f3f5a" d="M 92.5,51.5 C 91.5863,54.728 91.2529,58.0613 91.5,61.5C 89.8948,56.0568 88.7281,50.3902 88,44.5C 87.5831,43.244 86.7498,42.5774 85.5,42.5C 85.5,41.5 85.5,40.5 85.5,39.5C 86.8221,39.33 87.9887,39.6634 89,40.5C 90.6738,44.0207 91.8404,47.6873 92.5,51.5 Z"/></g>
<g><path style="opacity:1" fill="#78465d" d="M 169.5,42.5 C 168.25,42.5774 167.417,43.244 167,44.5C 166.814,47.0356 166.314,49.369 165.5,51.5C 164.449,50.7777 163.782,49.7777 163.5,48.5C 164.111,45.2791 165.278,42.2791 167,39.5C 168.045,40.3734 168.878,41.3734 169.5,42.5 Z"/></g>
<g><path style="opacity:1" fill="#6a2f5e" d="M 85.5,42.5 C 85.4162,45.3274 84.7496,47.994 83.5,50.5C 82.5987,51.2905 81.9321,52.2905 81.5,53.5C 81.1667,53.5 80.8333,53.5 80.5,53.5C 81.3824,49.4069 83.049,45.7403 85.5,42.5 Z"/></g>
<g><path style="opacity:1" fill="#692e5d" d="M 169.5,42.5 C 171.951,45.7403 173.618,49.4069 174.5,53.5C 174.167,53.5 173.833,53.5 173.5,53.5C 172.737,51.6316 171.737,49.9649 170.5,48.5C 169.85,46.5648 169.517,44.5648 169.5,42.5 Z"/></g>
<g><path style="opacity:1" fill="#b34c83" d="M 129.5,38.5 C 131.25,39.6594 132.25,41.326 132.5,43.5C 131.188,45.7432 130.522,48.4098 130.5,51.5C 130.833,54.1667 131.167,56.8333 131.5,59.5C 133.213,61.5385 134.879,63.5385 136.5,65.5C 133.669,64.9213 131.336,63.588 129.5,61.5C 128.188,53.7347 128.188,46.0681 129.5,38.5 Z"/></g>
<g><path style="opacity:1" fill="#5c295e" d="M 129.5,38.5 C 128.188,46.0681 128.188,53.7347 129.5,61.5C 128.662,61.8417 128.328,62.5084 128.5,63.5C 127.504,63.5858 126.671,63.2524 126,62.5C 123.692,63.9913 121.192,64.9913 118.5,65.5C 118.973,64.0937 119.973,63.427 121.5,63.5C 123.229,62.8825 124.729,61.8825 126,60.5C 126.822,52.9882 126.655,45.6549 125.5,38.5C 126.833,34.5 128.167,34.5 129.5,38.5 Z"/></g>
<g><path style="opacity:1" fill="#d6679d" d="M 85.5,42.5 C 86.7498,42.5774 87.5831,43.244 88,44.5C 88.7281,50.3902 89.8948,56.0568 91.5,61.5C 91.5,62.5 91.5,63.5 91.5,64.5C 90.2314,60.7055 87.898,57.5388 84.5,55C 83.8524,53.5603 83.5191,52.0603 83.5,50.5C 84.7496,47.994 85.4162,45.3274 85.5,42.5 Z"/></g>
<g><path style="opacity:1" fill="#5b3b64" d="M 163.5,48.5 C 163.782,49.7777 164.449,50.7777 165.5,51.5C 165.167,54.1667 164.833,56.8333 164.5,59.5C 164.672,60.4916 164.338,61.1583 163.5,61.5C 163.435,58.5718 162.768,55.9052 161.5,53.5C 161.796,51.597 162.463,49.9303 163.5,48.5 Z"/></g>
<g><path style="opacity:1" fill="#212b66" d="M 103.5,50.5 C 105.341,52.8485 106.674,55.5152 107.5,58.5C 105.797,57.3398 105.131,58.0065 105.5,60.5C 103.989,57.4557 103.322,54.1224 103.5,50.5 Z"/></g>
<g><path style="opacity:1" fill="#e883ac" d="M 121.5,60.5 C 117.381,61.8641 113.381,63.5307 109.5,65.5C 109.557,64.391 109.89,63.391 110.5,62.5C 113.512,57.1394 116.512,51.8061 119.5,46.5C 120.272,45.3065 121.272,44.3065 122.5,43.5C 123.117,43.3893 123.617,43.056 124,42.5C 124.83,48.1959 124.663,53.8625 123.5,59.5C 122.817,59.8627 122.15,60.1961 121.5,60.5 Z"/></g>
<g><path style="opacity:1" fill="#b74c82" d="M 125.5,38.5 C 126.655,45.6549 126.822,52.9882 126,60.5C 124.729,61.8825 123.229,62.8825 121.5,63.5C 121.5,62.5 121.5,61.5 121.5,60.5C 122.15,60.1961 122.817,59.8627 123.5,59.5C 124.663,53.8625 124.83,48.1959 124,42.5C 123.617,43.056 123.117,43.3893 122.5,43.5C 122.75,41.326 123.75,39.6594 125.5,38.5 Z"/></g>
<g><path style="opacity:1" fill="#1f2a66" d="M 151.5,50.5 C 151.785,53.8291 151.118,56.8291 149.5,59.5C 149.591,57.3023 148.925,56.9689 147.5,58.5C 148.326,55.5152 149.659,52.8485 151.5,50.5 Z"/></g>
<g><path style="opacity:1" fill="#de71a3" d="M 169.5,42.5 C 169.517,44.5648 169.85,46.5648 170.5,48.5C 171.023,53.6983 169.023,57.3649 164.5,59.5C 164.833,56.8333 165.167,54.1667 165.5,51.5C 166.314,49.369 166.814,47.0356 167,44.5C 167.417,43.244 168.25,42.5774 169.5,42.5 Z"/></g>
<g><path style="opacity:1" fill="#413f59" d="M 153.5,45.5 C 154.641,48.6399 154.808,51.9733 154,55.5C 152.619,59.4033 151.452,63.4033 150.5,67.5C 149.637,66.537 148.97,66.537 148.5,67.5C 149.309,69.0709 149.643,70.7376 149.5,72.5C 148.833,72.1667 148.167,71.8333 147.5,71.5C 148.506,70.6043 148.506,69.9377 147.5,69.5C 147.5,68.5 147.5,67.5 147.5,66.5C 148.933,64.4418 149.6,62.1085 149.5,59.5C 151.118,56.8291 151.785,53.8291 151.5,50.5C 152.931,49.2196 153.598,47.5529 153.5,45.5 Z"/></g>
<g><path style="opacity:1" fill="#2e2342" d="M 153.5,45.5 C 153.56,44.9569 153.893,44.6236 154.5,44.5C 155.814,45.3128 156.981,46.3128 158,47.5C 158.424,50.0254 159.59,52.0254 161.5,53.5C 160.108,56.0067 159.108,58.6733 158.5,61.5C 157.343,64.0259 157.343,66.6926 158.5,69.5C 158.5,70.1667 158.5,70.8333 158.5,71.5C 155.515,70.6743 152.849,69.341 150.5,67.5C 151.452,63.4033 152.619,59.4033 154,55.5C 154.808,51.9733 154.641,48.6399 153.5,45.5 Z"/></g>
<g><path style="opacity:1" fill="#bd59a8" d="M 170.5,48.5 C 171.737,49.9649 172.737,51.6316 173.5,53.5C 172.318,59.0197 168.985,62.6864 163.5,64.5C 163.5,63.5 163.5,62.5 163.5,61.5C 164.338,61.1583 164.672,60.4916 164.5,59.5C 169.023,57.3649 171.023,53.6983 170.5,48.5 Z"/></g>
<g><path style="opacity:1" fill="#ba59aa" d="M 83.5,50.5 C 83.5191,52.0603 83.8524,53.5603 84.5,55C 87.898,57.5388 90.2314,60.7055 91.5,64.5C 91.5,65.1667 91.8333,65.5 92.5,65.5C 92.5,66.8333 92.5,68.1667 92.5,69.5C 91.8333,68.8333 91.1667,68.1667 90.5,67.5C 88.2162,63.7149 85.3828,60.3815 82,57.5C 81.51,56.2068 81.3433,54.8734 81.5,53.5C 81.9321,52.2905 82.5987,51.2905 83.5,50.5 Z"/></g>
<g><path style="opacity:1" fill="#df72a5" d="M 132.5,43.5 C 133.682,48.5227 135.182,53.5227 137,58.5C 138.583,60.055 140.416,61.2217 142.5,62C 141.766,64.0932 142.433,64.5932 144.5,63.5C 145.728,64.3065 146.728,65.3065 147.5,66.5C 147.5,67.5 147.5,68.5 147.5,69.5C 143.621,68.5424 139.955,67.2091 136.5,65.5C 134.879,63.5385 133.213,61.5385 131.5,59.5C 131.167,56.8333 130.833,54.1667 130.5,51.5C 130.522,48.4098 131.188,45.7432 132.5,43.5 Z"/></g>
<g><path style="opacity:1" fill="#e58cb0" d="M 132.5,43.5 C 133.5,44.1667 134.5,44.8333 135.5,45.5C 138.023,51.3732 141.023,57.0398 144.5,62.5C 144.5,62.8333 144.5,63.1667 144.5,63.5C 142.433,64.5932 141.766,64.0932 142.5,62C 140.416,61.2217 138.583,60.055 137,58.5C 135.182,53.5227 133.682,48.5227 132.5,43.5 Z"/></g>
<g><path style="opacity:1" fill="#475ba7" d="M 161.5,53.5 C 162.768,55.9052 163.435,58.5718 163.5,61.5C 163.5,62.5 163.5,63.5 163.5,64.5C 162.962,66.1172 162.629,67.7839 162.5,69.5C 162.5,70.1667 162.5,70.8333 162.5,71.5C 161.662,71.1583 161.328,70.4916 161.5,69.5C 161.833,66.8333 162.167,64.1667 162.5,61.5C 161.167,61.5 159.833,61.5 158.5,61.5C 159.108,58.6733 160.108,56.0067 161.5,53.5 Z"/></g>
<g><path style="opacity:1" fill="#474289" d="M 80.5,53.5 C 80.0371,56.4824 79.7038,59.4824 79.5,62.5C 78.0937,62.9731 77.427,63.9731 77.5,65.5C 77.1667,65.5 76.8333,65.5 76.5,65.5C 77.2381,61.2858 78.5714,57.2858 80.5,53.5 Z"/></g>
<g><path style="opacity:1" fill="#302848" d="M 103.5,50.5 C 103.322,54.1224 103.989,57.4557 105.5,60.5C 105.604,62.7028 106.27,64.7028 107.5,66.5C 107.371,68.2161 107.038,69.8828 106.5,71.5C 106.5,72.1667 106.167,72.5 105.5,72.5C 105.698,70.4247 105.865,68.4247 106,66.5C 102.885,68.3068 99.7188,69.9735 96.5,71.5C 96.1667,71.5 95.8333,71.5 95.5,71.5C 96.7496,68.994 97.4162,66.3274 97.5,63.5C 96.9335,60.6971 95.6002,58.3637 93.5,56.5C 92.5481,58.0453 92.2148,59.712 92.5,61.5C 92.5,62.8333 92.5,64.1667 92.5,65.5C 91.8333,65.5 91.5,65.1667 91.5,64.5C 91.5,63.5 91.5,62.5 91.5,61.5C 91.2529,58.0613 91.5863,54.728 92.5,51.5C 93.1499,51.8039 93.8165,52.1373 94.5,52.5C 95.7025,49.3757 97.5358,46.709 100,44.5C 102.431,45.6864 103.597,47.6864 103.5,50.5 Z"/></g>
<g><path style="opacity:1" fill="#375dab" d="M 107.5,58.5 C 107.738,60.4044 108.738,61.7377 110.5,62.5C 109.89,63.391 109.557,64.391 109.5,65.5C 108.833,65.8333 108.167,66.1667 107.5,66.5C 106.27,64.7028 105.604,62.7028 105.5,60.5C 105.131,58.0065 105.797,57.3398 107.5,58.5 Z"/></g>
<g><path style="opacity:1" fill="#d06ba7" d="M 121.5,60.5 C 121.5,61.5 121.5,62.5 121.5,63.5C 119.973,63.427 118.973,64.0937 118.5,65.5C 114.217,66.9751 110.217,68.9751 106.5,71.5C 107.038,69.8828 107.371,68.2161 107.5,66.5C 108.167,66.1667 108.833,65.8333 109.5,65.5C 113.381,63.5307 117.381,61.8641 121.5,60.5 Z"/></g>
<g><path style="opacity:1" fill="#9456ba" d="M 80.5,53.5 C 80.8333,53.5 81.1667,53.5 81.5,53.5C 81.3433,54.8734 81.51,56.2068 82,57.5C 85.3828,60.3815 88.2162,63.7149 90.5,67.5C 86.8366,65.8393 83.1699,64.1726 79.5,62.5C 79.7038,59.4824 80.0371,56.4824 80.5,53.5 Z"/></g>
<g><path style="opacity:1" fill="#4382d5" d="M 97.5,63.5 C 95.4458,63.6347 93.7791,62.968 92.5,61.5C 92.2148,59.712 92.5481,58.0453 93.5,56.5C 95.6002,58.3637 96.9335,60.6971 97.5,63.5 Z"/></g>
<g><path style="opacity:1" fill="#375fad" d="M 149.5,59.5 C 149.6,62.1085 148.933,64.4418 147.5,66.5C 146.728,65.3065 145.728,64.3065 144.5,63.5C 144.5,63.1667 144.5,62.8333 144.5,62.5C 145.974,61.5637 146.974,60.2303 147.5,58.5C 148.925,56.9689 149.591,57.3023 149.5,59.5 Z"/></g>
<g><path style="opacity:1" fill="#3a3472" d="M 129.5,61.5 C 131.336,63.588 133.669,64.9213 136.5,65.5C 139.955,67.2091 143.621,68.5424 147.5,69.5C 148.506,69.9377 148.506,70.6043 147.5,71.5C 140.696,69.7925 134.363,67.1258 128.5,63.5C 128.328,62.5084 128.662,61.8417 129.5,61.5 Z"/></g>
<g><path style="opacity:1" fill="#65afea" d="M 158.5,61.5 C 159.833,61.5 161.167,61.5 162.5,61.5C 162.167,64.1667 161.833,66.8333 161.5,69.5C 160.778,69.9175 160.278,70.5842 160,71.5C 159.722,70.5842 159.222,69.9175 158.5,69.5C 157.343,66.6926 157.343,64.0259 158.5,61.5 Z"/></g>
<g><path style="opacity:1" fill="#925dbd" d="M 173.5,53.5 C 173.833,53.5 174.167,53.5 174.5,53.5C 175.738,55.2143 176.405,57.2143 176.5,59.5C 177.038,61.1172 177.371,62.7839 177.5,64.5C 177.167,64.5 176.833,64.5 176.5,64.5C 176.157,62.7748 175.157,62.2748 173.5,63C 169.76,64.1979 166.76,66.3645 164.5,69.5C 163.833,69.5 163.167,69.5 162.5,69.5C 162.629,67.7839 162.962,66.1172 163.5,64.5C 168.985,62.6864 172.318,59.0197 173.5,53.5 Z"/></g>
<g><path style="opacity:1" fill="#7876d7" d="M 176.5,64.5 C 172.764,66.6983 168.764,68.365 164.5,69.5C 166.76,66.3645 169.76,64.1979 173.5,63C 175.157,62.2748 176.157,62.7748 176.5,64.5 Z"/></g>
<g><path style="opacity:1" fill="#837ad8" d="M 79.5,62.5 C 83.1699,64.1726 86.8366,65.8393 90.5,67.5C 91.1667,68.1667 91.8333,68.8333 92.5,69.5C 92.5,70.1667 92.5,70.8333 92.5,71.5C 87.8464,68.6746 82.8464,66.6746 77.5,65.5C 77.427,63.9731 78.0937,62.9731 79.5,62.5 Z"/></g>
<g><path style="opacity:1" fill="#6fb7ea" d="M 92.5,61.5 C 93.7791,62.968 95.4458,63.6347 97.5,63.5C 97.4162,66.3274 96.7496,68.994 95.5,71.5C 94.2028,69.6287 93.2028,67.6287 92.5,65.5C 92.5,64.1667 92.5,62.8333 92.5,61.5 Z"/></g>
<g><path style="opacity:1" fill="#7ab0e7" d="M 176.5,64.5 C 176.833,64.5 177.167,64.5 177.5,64.5C 173.194,67.6571 168.528,70.3238 163.5,72.5C 162.833,72.5 162.5,72.1667 162.5,71.5C 162.5,70.8333 162.5,70.1667 162.5,69.5C 163.167,69.5 163.833,69.5 164.5,69.5C 168.764,68.365 172.764,66.6983 176.5,64.5 Z"/></g>
<g><path style="opacity:1" fill="#73aadd" d="M 77.5,65.5 C 82.8464,66.6746 87.8464,68.6746 92.5,71.5C 92.5,72.1667 92.1667,72.5 91.5,72.5C 86.4843,70.6589 81.8177,68.3256 77.5,65.5 Z"/></g>
<g><path style="opacity:1" fill="#687891" d="M 158.5,69.5 C 159.222,69.9175 159.722,70.5842 160,71.5C 160.278,70.5842 160.778,69.9175 161.5,69.5C 161.328,70.4916 161.662,71.1583 162.5,71.5C 162.5,72.1667 162.833,72.5 163.5,72.5C 162.833,73.5 162.167,74.5 161.5,75.5C 160.512,74.205 159.512,72.8717 158.5,71.5C 158.5,70.8333 158.5,70.1667 158.5,69.5 Z"/></g>
<g><path style="opacity:1" fill="#161c2f" d="M 76.5,65.5 C 76.8333,65.5 77.1667,65.5 77.5,65.5C 81.8177,68.3256 86.4843,70.6589 91.5,72.5C 92.1667,73.5 92.8333,74.5 93.5,75.5C 92.3702,77.3146 91.7036,79.3146 91.5,81.5C 91.5,81.8333 91.5,82.1667 91.5,82.5C 91.1667,83.1667 90.8333,83.8333 90.5,84.5C 87.8908,85.4431 85.8908,87.1097 84.5,89.5C 82.4152,87.3155 81.4152,84.6489 81.5,81.5C 82.0431,81.44 82.3764,81.1067 82.5,80.5C 80.0988,75.6235 78.0988,70.6235 76.5,65.5 Z"/></g>
<g><path style="opacity:1" fill="#707b95" d="M 92.5,65.5 C 93.2028,67.6287 94.2028,69.6287 95.5,71.5C 95.8333,71.5 96.1667,71.5 96.5,71.5C 95.4884,72.8717 94.4884,74.205 93.5,75.5C 92.8333,74.5 92.1667,73.5 91.5,72.5C 92.1667,72.5 92.5,72.1667 92.5,71.5C 92.5,70.8333 92.5,70.1667 92.5,69.5C 92.5,68.1667 92.5,66.8333 92.5,65.5 Z"/></g>
<g><path style="opacity:1" fill="#b1b2b3" d="M 150.5,67.5 C 152.849,69.341 155.515,70.6743 158.5,71.5C 159.512,72.8717 160.512,74.205 161.5,75.5C 162.73,77.2972 163.396,79.2972 163.5,81.5C 161.019,81.774 159.353,83.1073 158.5,85.5C 157.573,87.4759 156.24,87.8092 154.5,86.5C 153.759,82.277 152.426,78.277 150.5,74.5C 150.167,73.8333 149.833,73.1667 149.5,72.5C 149.643,70.7376 149.309,69.0709 148.5,67.5C 148.97,66.537 149.637,66.537 150.5,67.5 Z"/></g>
<g><path style="opacity:1" fill="#f3f8c3" d="M -0.5,105.5 C -0.5,97.1667 -0.5,88.8333 -0.5,80.5C 1.80505,79.0106 4.13838,77.5106 6.5,76C 22.8114,75.3211 29.6448,83.1544 27,99.5C 20.0745,112.654 10.9078,114.654 -0.5,105.5 Z"/></g>
<g><path style="opacity:1" fill="#131a3b" d="M 128.5,63.5 C 134.363,67.1258 140.696,69.7925 147.5,71.5C 148.167,71.8333 148.833,72.1667 149.5,72.5C 149.833,73.1667 150.167,73.8333 150.5,74.5C 147.003,77.083 143.336,79.4164 139.5,81.5C 138.791,80.596 137.791,80.2627 136.5,80.5C 133.794,80.5751 131.127,80.9084 128.5,81.5C 128.827,76.7863 128.493,72.1196 127.5,67.5C 126.914,67.7093 126.414,68.0426 126,68.5C 125.501,72.4862 125.334,76.4862 125.5,80.5C 120.516,79.7516 115.683,78.4183 111,76.5C 109.97,76.8361 109.47,77.5028 109.5,78.5C 108.167,77.1667 106.833,75.8333 105.5,74.5C 105.5,73.8333 105.5,73.1667 105.5,72.5C 106.167,72.5 106.5,72.1667 106.5,71.5C 110.217,68.9751 114.217,66.9751 118.5,65.5C 121.192,64.9913 123.692,63.9913 126,62.5C 126.671,63.2524 127.504,63.5858 128.5,63.5 Z"/></g>
<g><path style="opacity:1" fill="#151c2f" d="M 176.5,59.5 C 177.993,60.3121 178.66,61.6455 178.5,63.5C 176.605,69.1536 174.605,74.8202 172.5,80.5C 172.624,81.1067 172.957,81.44 173.5,81.5C 173.565,84.4715 172.731,87.1382 171,89.5C 169.961,88.2899 168.794,87.2899 167.5,86.5C 165.833,85.5 164.5,84.1667 163.5,82.5C 163.5,82.1667 163.5,81.8333 163.5,81.5C 163.396,79.2972 162.73,77.2972 161.5,75.5C 162.167,74.5 162.833,73.5 163.5,72.5C 168.528,70.3238 173.194,67.6571 177.5,64.5C 177.371,62.7839 177.038,61.1172 176.5,59.5 Z"/></g>
<g><path style="opacity:1" fill="#f2f7c3" d="M 255.5,80.5 C 255.5,88.8333 255.5,97.1667 255.5,105.5C 250.508,110.997 244.508,112.497 237.5,110C 228.453,104.718 225.286,96.8844 228,86.5C 234.884,74.1899 244.05,72.1899 255.5,80.5 Z"/></g>
<g><path style="opacity:1" fill="#b3b4b6" d="M 105.5,72.5 C 105.5,73.1667 105.5,73.8333 105.5,74.5C 103.021,77.72 101.188,81.3867 100,85.5C 98.7083,86.7911 97.5417,86.7911 96.5,85.5C 95.1938,84.5326 94.5271,83.1993 94.5,81.5C 93.5,81.5 92.5,81.5 91.5,81.5C 91.7036,79.3146 92.3702,77.3146 93.5,75.5C 94.4884,74.205 95.4884,72.8717 96.5,71.5C 99.7188,69.9735 102.885,68.3068 106,66.5C 105.865,68.4247 105.698,70.4247 105.5,72.5 Z"/></g>
<g><path style="opacity:1" fill="#162256" d="M 136.5,80.5 C 129.976,83.0612 123.31,83.0612 116.5,80.5C 115.893,80.6236 115.56,80.9569 115.5,81.5C 113.5,80.5 111.5,79.5 109.5,78.5C 109.47,77.5028 109.97,76.8361 111,76.5C 115.683,78.4183 120.516,79.7516 125.5,80.5C 125.334,76.4862 125.501,72.4862 126,68.5C 126.414,68.0426 126.914,67.7093 127.5,67.5C 128.493,72.1196 128.827,76.7863 128.5,81.5C 131.127,80.9084 133.794,80.5751 136.5,80.5 Z"/></g>
<g><path style="opacity:1" fill="#393d5e" d="M 173.5,81.5 C 175.178,84.3246 176.178,87.4913 176.5,91C 176.472,92.0698 176.139,92.9032 175.5,93.5C 174.5,92.8333 173.5,92.1667 172.5,91.5C 170.668,90.7515 169.001,89.7515 167.5,88.5C 167.5,87.8333 167.5,87.1667 167.5,86.5C 168.794,87.2899 169.961,88.2899 171,89.5C 172.731,87.1382 173.565,84.4715 173.5,81.5 Z"/></g>
<g><path style="opacity:1" fill="#4e2244" d="M 105.5,94.5 C 104.508,94.3284 103.842,94.6618 103.5,95.5C 102.354,93.525 100.687,92.025 98.5,91C 101.353,89.5699 104.353,88.7366 107.5,88.5C 107.296,90.6854 106.63,92.6854 105.5,94.5 Z"/></g>
<g><path style="opacity:1" fill="#89994a" d="M 163.5,82.5 C 164.5,84.1667 165.833,85.5 167.5,86.5C 167.5,87.1667 167.5,87.8333 167.5,88.5C 170.139,94.8804 169.972,101.214 167,107.5C 166.617,106.944 166.117,106.611 165.5,106.5C 164.761,99.8043 163.761,93.1376 162.5,86.5C 162.511,84.9549 162.844,83.6216 163.5,82.5 Z"/></g>
<g><path style="opacity:1" fill="#2d3157" d="M 81.5,81.5 C 81.4152,84.6489 82.4152,87.3155 84.5,89.5C 84.1667,90.1667 83.8333,90.8333 83.5,91.5C 81.5,92.5 79.5,93.5 77.5,94.5C 78.3421,89.8987 79.6754,85.5654 81.5,81.5 Z"/></g>
<g><path style="opacity:1" fill="#8e9e4b" d="M 91.5,82.5 C 92.1524,83.4486 92.4857,84.6153 92.5,86C 91.0659,91.407 90.3992,96.907 90.5,102.5C 89.596,103.209 89.2627,104.209 89.5,105.5C 89.5,106.167 89.5,106.833 89.5,107.5C 86.586,104.979 85.2527,101.646 85.5,97.5C 85.098,93.3044 86.598,89.971 90,87.5C 90.4828,86.552 90.6495,85.552 90.5,84.5C 90.8333,83.8333 91.1667,83.1667 91.5,82.5 Z"/></g>
<g><path style="opacity:1" fill="#171822" d="M 150.5,74.5 C 152.426,78.277 153.759,82.277 154.5,86.5C 156.24,87.8092 157.573,87.4759 158.5,85.5C 158.772,89.2773 158.772,93.2773 158.5,97.5C 158.366,101.302 159.033,104.968 160.5,108.5C 160.276,111.08 159.609,113.414 158.5,115.5C 158.875,112.603 158.375,109.937 157,107.5C 156.952,111 156.118,113.5 154.5,115C 156.476,118.963 155.643,122.13 152,124.5C 151.235,124.43 150.735,124.097 150.5,123.5C 151.833,123.5 152.5,122.833 152.5,121.5C 153.158,120.207 153.492,118.707 153.5,117C 152.545,109.484 151.545,101.984 150.5,94.5C 151.343,92.8267 152.676,91.66 154.5,91C 152.423,89.295 150.09,88.1283 147.5,87.5C 147.557,86.391 147.89,85.391 148.5,84.5C 149.249,83.469 149.915,82.3024 150.5,81C 150,80.8333 149.5,80.6667 149,80.5C 146.524,82.4871 143.69,83.4871 140.5,83.5C 140.723,86.1142 139.556,87.7809 137,88.5C 136.506,86.8659 136.34,85.1992 136.5,83.5C 137.5,82.8333 138.5,82.1667 139.5,81.5C 143.336,79.4164 147.003,77.083 150.5,74.5 Z"/></g>
<g><path style="opacity:1" fill="#414859" d="M 118.5,84.5 C 118.833,84.5 119.167,84.5 119.5,84.5C 119.338,86.5273 119.505,88.5273 120,90.5C 122.414,92.2907 124.914,93.9574 127.5,95.5C 130.086,93.9574 132.586,92.2907 135,90.5C 135.495,88.5273 135.662,86.5273 135.5,84.5C 135.5,83.8333 135.833,83.5 136.5,83.5C 136.34,85.1992 136.506,86.8659 137,88.5C 139.556,87.7809 140.723,86.1142 140.5,83.5C 143.69,83.4871 146.524,82.4871 149,80.5C 149.5,80.6667 150,80.8333 150.5,81C 149.915,82.3024 149.249,83.469 148.5,84.5C 148.103,83.475 147.437,83.3083 146.5,84C 144.76,85.517 143.094,87.017 141.5,88.5C 136.834,90.1728 133.501,93.1728 131.5,97.5C 130.837,99.4726 130.504,101.639 130.5,104C 130.928,109.207 131.595,114.374 132.5,119.5C 132.34,121.153 131.674,122.486 130.5,123.5C 130.073,119.176 129.739,114.842 129.5,110.5C 129.666,105.821 129.499,101.155 129,96.5C 128.676,98.5689 127.842,98.9023 126.5,97.5C 125.506,102.456 125.173,107.456 125.5,112.5C 124.838,116.466 124.505,120.466 124.5,124.5C 122.833,121.167 121.167,117.833 119.5,114.5C 118.89,113.609 118.557,112.609 118.5,111.5C 120.262,111.643 121.929,111.309 123.5,110.5C 127.085,100.216 124.085,92.8823 114.5,88.5C 111.482,86.4742 108.482,84.4742 105.5,82.5C 104.15,81.3501 104.316,80.6834 106,80.5C 108.289,81.6193 110.455,82.9527 112.5,84.5C 114.102,83.45 114.935,84.1167 115,86.5C 117.946,89.5429 119.112,88.8762 118.5,84.5 Z"/></g>
<g><path style="opacity:1" fill="#e6e5eb" d="M 119.5,84.5 C 121.928,86.2485 124.594,87.5819 127.5,88.5C 130.406,87.5819 133.072,86.2485 135.5,84.5C 135.662,86.5273 135.495,88.5273 135,90.5C 132.586,92.2907 130.086,93.9574 127.5,95.5C 124.914,93.9574 122.414,92.2907 120,90.5C 119.505,88.5273 119.338,86.5273 119.5,84.5 Z"/></g>
<g><path style="opacity:1" fill="#354998" d="M 115.5,81.5 C 115.56,80.9569 115.893,80.6236 116.5,80.5C 123.31,83.0612 129.976,83.0612 136.5,80.5C 137.791,80.2627 138.791,80.596 139.5,81.5C 138.5,82.1667 137.5,82.8333 136.5,83.5C 135.833,83.5 135.5,83.8333 135.5,84.5C 133.072,86.2485 130.406,87.5819 127.5,88.5C 124.594,87.5819 121.928,86.2485 119.5,84.5C 119.167,84.5 118.833,84.5 118.5,84.5C 117.5,83.5 116.5,82.5 115.5,81.5 Z"/></g>
<g><path style="opacity:1" fill="#3c1b38" d="M 147.5,87.5 C 150.09,88.1283 152.423,89.295 154.5,91C 152.676,91.66 151.343,92.8267 150.5,94.5C 149.391,94.4431 148.391,94.1098 147.5,93.5C 146.258,91.3888 146.258,89.3888 147.5,87.5 Z"/></g>
<g><path style="opacity:1" fill="#83935b" d="M 148.5,84.5 C 147.89,85.391 147.557,86.391 147.5,87.5C 146.258,89.3888 146.258,91.3888 147.5,93.5C 146.671,94.3324 145.838,93.999 145,92.5C 144.487,93.5266 143.987,94.5266 143.5,95.5C 142.441,98.6179 141.108,101.618 139.5,104.5C 138.275,103.848 137.608,102.681 137.5,101C 138.251,98.5806 138.251,96.2472 137.5,94C 139.413,92.5874 140.746,90.7541 141.5,88.5C 143.094,87.017 144.76,85.517 146.5,84C 147.437,83.3083 148.103,83.475 148.5,84.5 Z"/></g>
<g><path style="opacity:1" fill="#768657" d="M 105.5,82.5 C 108.482,84.4742 111.482,86.4742 114.5,88.5C 116.832,90.6922 118.665,93.3589 120,96.5C 120.667,99.8333 120.667,103.167 120,106.5C 118.989,107.337 117.822,107.67 116.5,107.5C 114.836,103.504 113.169,99.5044 111.5,95.5C 110.167,94.8333 108.833,94.1667 107.5,93.5C 108.018,92.4226 108.352,91.2559 108.5,90C 107.891,87.2915 106.891,84.7915 105.5,82.5 Z"/></g>
<g><path style="opacity:1" fill="#495246" d="M 163.5,81.5 C 163.5,81.8333 163.5,82.1667 163.5,82.5C 162.844,83.6216 162.511,84.9549 162.5,86.5C 163.761,93.1376 164.761,99.8043 165.5,106.5C 165.833,109.167 166.167,111.833 166.5,114.5C 166.415,115.995 167.081,116.995 168.5,117.5C 169.358,115.099 170.691,113.099 172.5,111.5C 172.243,115.171 171.243,118.505 169.5,121.5C 167.908,122.602 167.075,121.935 167,119.5C 166.51,120.793 166.343,122.127 166.5,123.5C 165.463,122.07 164.796,120.403 164.5,118.5C 165.273,112.533 164.606,106.533 162.5,100.5C 161.571,101.689 161.238,103.022 161.5,104.5C 160.349,102.221 159.349,99.8876 158.5,97.5C 158.772,93.2773 158.772,89.2773 158.5,85.5C 159.353,83.1073 161.019,81.774 163.5,81.5 Z"/></g>
<g><path style="opacity:1" fill="#030506" d="M 111.5,95.5 C 113.169,99.5044 114.836,103.504 116.5,107.5C 117.167,108.833 117.833,110.167 118.5,111.5C 118.557,112.609 118.89,113.609 119.5,114.5C 118.675,118.647 118.175,122.981 118,127.5C 108.632,125.743 99.1323,125.076 89.5,125.5C 89.448,123.097 89.7814,120.764 90.5,118.5C 91.8084,114.6 92.8084,110.6 93.5,106.5C 93.8333,106.5 94.1667,106.5 94.5,106.5C 94.6104,111.947 96.1104,116.947 99,121.5C 100.423,116.379 101.423,116.379 102,121.5C 102.791,120.255 103.291,118.922 103.5,117.5C 104.347,113.777 105.347,110.111 106.5,106.5C 107.909,102.684 109.576,99.0171 111.5,95.5 Z"/></g>
<g><path style="opacity:1" fill="#232e3a" d="M 129.5,110.5 C 127.801,110.527 126.467,111.194 125.5,112.5C 125.173,107.456 125.506,102.456 126.5,97.5C 127.842,98.9023 128.676,98.5689 129,96.5C 129.499,101.155 129.666,105.821 129.5,110.5 Z"/></g>
<g><path style="opacity:1" fill="#040503" d="M 143.5,95.5 C 145.424,99.0171 147.091,102.684 148.5,106.5C 149.653,110.111 150.653,113.777 151.5,117.5C 152.234,118.708 152.567,120.041 152.5,121.5C 152.5,122.833 151.833,123.5 150.5,123.5C 145.93,122.559 141.263,122.226 136.5,122.5C 136.205,118.654 136.205,114.988 136.5,111.5C 137.773,109.287 138.773,106.954 139.5,104.5C 141.108,101.618 142.441,98.6179 143.5,95.5 Z"/></g>
<g><path style="opacity:1" fill="#171822" d="M 105.5,74.5 C 106.833,75.8333 108.167,77.1667 109.5,78.5C 111.5,79.5 113.5,80.5 115.5,81.5C 116.5,82.5 117.5,83.5 118.5,84.5C 119.112,88.8762 117.946,89.5429 115,86.5C 114.935,84.1167 114.102,83.45 112.5,84.5C 110.455,82.9527 108.289,81.6193 106,80.5C 104.316,80.6834 104.15,81.3501 105.5,82.5C 106.891,84.7915 107.891,87.2915 108.5,90C 108.352,91.2559 108.018,92.4226 107.5,93.5C 106.833,93.8333 106.167,94.1667 105.5,94.5C 106.63,92.6854 107.296,90.6854 107.5,88.5C 104.353,88.7366 101.353,89.5699 98.5,91C 100.687,92.025 102.354,93.525 103.5,95.5C 103.086,100.364 103.086,105.031 103.5,109.5C 102.742,112.352 102.742,115.019 103.5,117.5C 103.291,118.922 102.791,120.255 102,121.5C 101.423,116.379 100.423,116.379 99,121.5C 96.1104,116.947 94.6104,111.947 94.5,106.5C 96.074,99.3669 96.7406,92.3669 96.5,85.5C 97.5417,86.7911 98.7083,86.7911 100,85.5C 101.188,81.3867 103.021,77.72 105.5,74.5 Z"/></g>
<g><path style="opacity:1" fill="#59694c" d="M 141.5,88.5 C 140.746,90.7541 139.413,92.5874 137.5,94C 138.251,96.2472 138.251,98.5806 137.5,101C 137.608,102.681 138.275,103.848 139.5,104.5C 138.773,106.954 137.773,109.287 136.5,111.5C 135,110.412 133.667,109.079 132.5,107.5C 131.513,104.232 131.18,100.898 131.5,97.5C 133.501,93.1728 136.834,90.1728 141.5,88.5 Z"/></g>
<g><path style="opacity:1" fill="#353d35" d="M 147.5,93.5 C 148.391,94.1098 149.391,94.4431 150.5,94.5C 151.545,101.984 152.545,109.484 153.5,117C 153.492,118.707 153.158,120.207 152.5,121.5C 152.567,120.041 152.234,118.708 151.5,117.5C 152.124,117.083 152.457,116.416 152.5,115.5C 151.925,111.378 150.925,107.378 149.5,103.5C 148.614,104.325 148.281,105.325 148.5,106.5C 147.091,102.684 145.424,99.0171 143.5,95.5C 143.987,94.5266 144.487,93.5266 145,92.5C 145.838,93.999 146.671,94.3324 147.5,93.5 Z"/></g>
<g><path style="opacity:1" fill="#67783c" d="M 90.5,84.5 C 90.6495,85.552 90.4828,86.552 90,87.5C 86.598,89.971 85.098,93.3044 85.5,97.5C 85.2527,101.646 86.586,104.979 89.5,107.5C 89.0074,109.806 88.6741,112.139 88.5,114.5C 87.8826,114.611 87.3826,114.944 87,115.5C 84.7262,110.5 82.5595,105.5 80.5,100.5C 79.9238,96.8875 80.9238,93.8875 83.5,91.5C 83.8333,90.8333 84.1667,90.1667 84.5,89.5C 85.8908,87.1097 87.8908,85.4431 90.5,84.5 Z"/></g>
<g><path style="opacity:1" fill="#4e5c35" d="M 172.5,91.5 C 173.5,92.1667 174.5,92.8333 175.5,93.5C 175.272,99.6382 174.272,105.638 172.5,111.5C 170.691,113.099 169.358,115.099 168.5,117.5C 167.081,116.995 166.415,115.995 166.5,114.5C 168.129,113.375 169.629,112.041 171,110.5C 172.188,104.222 172.688,97.8885 172.5,91.5 Z"/></g>
<g><path style="opacity:1" fill="#46503f" d="M 91.5,82.5 C 91.5,82.1667 91.5,81.8333 91.5,81.5C 92.5,81.5 93.5,81.5 94.5,81.5C 94.5271,83.1993 95.1938,84.5326 96.5,85.5C 96.7406,92.3669 96.074,99.3669 94.5,106.5C 94.1667,106.5 93.8333,106.5 93.5,106.5C 93.7989,104.396 93.4656,102.396 92.5,100.5C 91.8182,101.243 91.1515,101.909 90.5,102.5C 90.3992,96.907 91.0659,91.407 92.5,86C 92.4857,84.6153 92.1524,83.4486 91.5,82.5 Z"/></g>
<g><path style="opacity:1" fill="#373f38" d="M 107.5,93.5 C 108.833,94.1667 110.167,94.8333 111.5,95.5C 109.576,99.0171 107.909,102.684 106.5,106.5C 106.719,105.325 106.386,104.325 105.5,103.5C 104.523,105.411 103.857,107.411 103.5,109.5C 103.086,105.031 103.086,100.364 103.5,95.5C 103.842,94.6618 104.508,94.3284 105.5,94.5C 106.167,94.1667 106.833,93.8333 107.5,93.5 Z"/></g>
<g><path style="opacity:1" fill="#4e5d4c" d="M 114.5,88.5 C 124.085,92.8823 127.085,100.216 123.5,110.5C 121.929,111.309 120.262,111.643 118.5,111.5C 117.833,110.167 117.167,108.833 116.5,107.5C 117.822,107.67 118.989,107.337 120,106.5C 120.667,103.167 120.667,99.8333 120,96.5C 118.665,93.3589 116.832,90.6922 114.5,88.5 Z"/></g>
<g><path style="opacity:1" fill="#4b5753" d="M 131.5,97.5 C 131.18,100.898 131.513,104.232 132.5,107.5C 133.667,109.079 135,110.412 136.5,111.5C 136.205,114.988 136.205,118.654 136.5,122.5C 136.5,127.167 136.5,131.833 136.5,136.5C 136.167,136.5 135.833,136.5 135.5,136.5C 135.5,134.833 135.5,133.167 135.5,131.5C 135.666,126.156 135.499,120.823 135,115.5C 134.392,117.066 133.558,118.4 132.5,119.5C 131.595,114.374 130.928,109.207 130.5,104C 130.504,101.639 130.837,99.4726 131.5,97.5 Z"/></g>
<g><path style="opacity:1" fill="#4b5a3a" d="M 80.5,100.5 C 82.5595,105.5 84.7262,110.5 87,115.5C 87.3826,114.944 87.8826,114.611 88.5,114.5C 88.5,115.5 88.5,116.5 88.5,117.5C 87.1779,117.67 86.0113,117.337 85,116.5C 83.0542,111.259 81.5542,105.925 80.5,100.5 Z"/></g>
<g><path style="opacity:1" fill="#6b7b3d" d="M 167.5,88.5 C 169.001,89.7515 170.668,90.7515 172.5,91.5C 172.688,97.8885 172.188,104.222 171,110.5C 169.629,112.041 168.129,113.375 166.5,114.5C 166.167,111.833 165.833,109.167 165.5,106.5C 166.117,106.611 166.617,106.944 167,107.5C 169.972,101.214 170.139,94.8804 167.5,88.5 Z"/></g>
<g><path style="opacity:1" fill="#5b663c" d="M 106.5,106.5 C 105.347,110.111 104.347,113.777 103.5,117.5C 102.742,115.019 102.742,112.352 103.5,109.5C 103.857,107.411 104.523,105.411 105.5,103.5C 106.386,104.325 106.719,105.325 106.5,106.5 Z"/></g>
<g><path style="opacity:1" fill="#616c40" d="M 151.5,117.5 C 150.653,113.777 149.653,110.111 148.5,106.5C 148.281,105.325 148.614,104.325 149.5,103.5C 150.925,107.378 151.925,111.378 152.5,115.5C 152.457,116.416 152.124,117.083 151.5,117.5 Z"/></g>
<g><path style="opacity:1" fill="#7b8856" d="M 164.5,118.5 C 162.873,113.988 161.873,109.321 161.5,104.5C 161.238,103.022 161.571,101.689 162.5,100.5C 164.606,106.533 165.273,112.533 164.5,118.5 Z"/></g>
<g><path style="opacity:1" fill="#717e53" d="M 93.5,106.5 C 92.8084,110.6 91.8084,114.6 90.5,118.5C 90.259,114.17 89.9257,109.837 89.5,105.5C 89.2627,104.209 89.596,103.209 90.5,102.5C 91.1515,101.909 91.8182,101.243 92.5,100.5C 93.4656,102.396 93.7989,104.396 93.5,106.5 Z"/></g>
<g><path style="opacity:1" fill="#3b443c" d="M 83.5,91.5 C 80.9238,93.8875 79.9238,96.8875 80.5,100.5C 81.5542,105.925 83.0542,111.259 85,116.5C 86.0113,117.337 87.1779,117.67 88.5,117.5C 88.5,116.5 88.5,115.5 88.5,114.5C 88.6741,112.139 89.0074,109.806 89.5,107.5C 89.5,106.833 89.5,106.167 89.5,105.5C 89.9257,109.837 90.259,114.17 90.5,118.5C 89.7814,120.764 89.448,123.097 89.5,125.5C 88.71,124.391 88.21,123.058 88,121.5C 87.2303,120.402 86.397,120.402 85.5,121.5C 82.0089,112.822 79.3423,103.822 77.5,94.5C 79.5,93.5 81.5,92.5 83.5,91.5 Z"/></g>
<g><path style="opacity:1" fill="#121705" d="M 30.5,126.5 C 29.1667,126.5 27.8333,126.5 26.5,126.5C 26.5,126.167 26.5,125.833 26.5,125.5C 28.9599,125.301 31.2933,124.635 33.5,123.5C 26.0102,122.181 18.6769,122.181 11.5,123.5C 8.5,123.5 5.5,123.5 2.5,123.5C 1.5,123.5 0.5,123.5 -0.5,123.5C -0.5,123.167 -0.5,122.833 -0.5,122.5C 5.79142,122.588 11.9581,121.921 18,120.5C 28.4234,121.321 38.9234,121.821 49.5,122C 43.1583,123.72 36.825,125.22 30.5,126.5 Z"/></g>
<g><path style="opacity:1" fill="#1e2c5a" d="M 129.5,110.5 C 129.739,114.842 130.073,119.176 130.5,123.5C 129.12,130.885 127.12,131.218 124.5,124.5C 124.505,120.466 124.838,116.466 125.5,112.5C 126.467,111.194 127.801,110.527 129.5,110.5 Z"/></g>
<g><path style="opacity:1" fill="#101406" d="M 255.5,121.5 C 255.5,122.167 255.5,122.833 255.5,123.5C 246.584,122.529 237.584,122.196 228.5,122.5C 225.15,122.335 221.817,122.502 218.5,123C 220.973,125.437 223.973,126.604 227.5,126.5C 227.833,126.5 228.167,126.5 228.5,126.5C 228.634,128.292 228.301,129.958 227.5,131.5C 226.833,131.5 226.167,131.5 225.5,131.5C 224.833,131.5 224.167,131.5 223.5,131.5C 223.721,130.265 224.388,129.265 225.5,128.5C 217.791,125.492 209.791,123.658 201.5,123C 219.476,121.712 237.476,121.212 255.5,121.5 Z"/></g>
<g><path style="opacity:1" fill="#59661f" d="M 228.5,122.5 C 237.584,122.196 246.584,122.529 255.5,123.5C 255.5,124.167 255.5,124.833 255.5,125.5C 254.167,125.5 252.833,125.5 251.5,125.5C 243.648,125.175 235.982,125.508 228.5,126.5C 228.167,126.5 227.833,126.5 227.5,126.5C 227.433,125.041 227.766,123.708 228.5,122.5 Z"/></g>
<g><path style="opacity:1" fill="#3b4613" d="M 11.5,123.5 C 18.6769,122.181 26.0102,122.181 33.5,123.5C 31.2933,124.635 28.9599,125.301 26.5,125.5C 26.5,124.833 26.1667,124.5 25.5,124.5C 21.03,123.514 16.3633,123.181 11.5,123.5 Z"/></g>
<g><path style="opacity:1" fill="#06080f" d="M 158.5,97.5 C 159.349,99.8876 160.349,102.221 161.5,104.5C 161.873,109.321 162.873,113.988 164.5,118.5C 164.796,120.403 165.463,122.07 166.5,123.5C 166.859,125.766 166.192,127.599 164.5,129C 161.924,129.606 159.59,129.106 157.5,127.5C 156.558,127.608 155.725,127.941 155,128.5C 155.992,124.206 157.158,119.873 158.5,115.5C 159.609,113.414 160.276,111.08 160.5,108.5C 159.033,104.968 158.366,101.302 158.5,97.5 Z"/></g>
<g><path style="opacity:1" fill="#262e11" d="M 228.5,122.5 C 227.766,123.708 227.433,125.041 227.5,126.5C 223.973,126.604 220.973,125.437 218.5,123C 221.817,122.502 225.15,122.335 228.5,122.5 Z"/></g>
<g><path style="opacity:1" fill="#515d1a" d="M -0.5,123.5 C 0.5,123.5 1.5,123.5 2.5,123.5C 2.36007,125.124 3.02674,126.29 4.5,127C 3.94404,127.383 3.61071,127.883 3.5,128.5C 2.16667,128.5 0.833333,128.5 -0.5,128.5C -0.5,126.833 -0.5,125.167 -0.5,123.5 Z"/></g>
<g><path style="opacity:1" fill="#819035" d="M 2.5,123.5 C 5.5,123.5 8.5,123.5 11.5,123.5C 16.3633,123.181 21.03,123.514 25.5,124.5C 21.0329,124.133 16.6996,124.633 12.5,126C 12.8333,126.333 13.1667,126.667 13.5,127C 11.2922,127.191 9.29221,127.691 7.5,128.5C 6.16667,128.5 4.83333,128.5 3.5,128.5C 3.61071,127.883 3.94404,127.383 4.5,127C 3.02674,126.29 2.36007,125.124 2.5,123.5 Z"/></g>
<g><path style="opacity:1" fill="#e7e9ed" d="M 119.5,114.5 C 121.167,117.833 122.833,121.167 124.5,124.5C 127.12,131.218 129.12,130.885 130.5,123.5C 131.674,122.486 132.34,121.153 132.5,119.5C 133.558,118.4 134.392,117.066 135,115.5C 135.499,120.823 135.666,126.156 135.5,131.5C 130.073,131.218 124.74,131.551 119.5,132.5C 119.5,126.5 119.5,120.5 119.5,114.5 Z"/></g>
<g><path style="opacity:1" fill="#acbb59" d="M 228.5,126.5 C 235.982,125.508 243.648,125.175 251.5,125.5C 254.174,127.001 254.007,128.001 251,128.5C 246.205,127.642 241.372,127.309 236.5,127.5C 233.794,127.425 231.127,127.092 228.5,126.5 Z"/></g>
<g><path style="opacity:1" fill="#acbb5b" d="M 25.5,124.5 C 26.1667,124.5 26.5,124.833 26.5,125.5C 26.5,125.833 26.5,126.167 26.5,126.5C 26.8417,127.338 27.5084,127.672 28.5,127.5C 28.5987,130.237 28.2653,132.904 27.5,135.5C 27.1667,135.5 26.8333,135.5 26.5,135.5C 26.1712,133.009 25.1712,130.843 23.5,129C 18.1771,128.501 12.8437,128.334 7.5,128.5C 9.29221,127.691 11.2922,127.191 13.5,127C 13.1667,126.667 12.8333,126.333 12.5,126C 16.6996,124.633 21.0329,124.133 25.5,124.5 Z"/></g>
<g><path style="opacity:1" fill="#445017" d="M 228.5,126.5 C 231.127,127.092 233.794,127.425 236.5,127.5C 234.833,128.167 233.167,128.833 231.5,129.5C 230.761,129.369 230.094,129.536 229.5,130C 230.5,130.333 231.5,130.667 232.5,131C 230.866,131.494 229.199,131.66 227.5,131.5C 228.301,129.958 228.634,128.292 228.5,126.5 Z"/></g>
<g><path style="opacity:1" fill="#839138" d="M 251.5,125.5 C 252.833,125.5 254.167,125.5 255.5,125.5C 255.5,126.833 255.5,128.167 255.5,129.5C 252.752,129.402 252.086,130.402 253.5,132.5C 252.5,132.5 251.5,132.5 250.5,132.5C 250.5,131.5 250.5,130.5 250.5,129.5C 244.167,129.5 237.833,129.5 231.5,129.5C 233.167,128.833 234.833,128.167 236.5,127.5C 241.372,127.309 246.205,127.642 251,128.5C 254.007,128.001 254.174,127.001 251.5,125.5 Z"/></g>
<g><path style="opacity:1" fill="#222c3a" d="M 32.5,126.5 C 33.8333,126.5 35.1667,126.5 36.5,126.5C 36.5,126.833 36.5,127.167 36.5,127.5C 36.9303,128.421 38.2636,128.921 40.5,129C 37.0861,129.354 35.0861,131.188 34.5,134.5C 33.5,134.5 32.5,134.5 31.5,134.5C 30.0726,131.871 30.7392,129.705 33.5,128C 32.944,127.617 32.6107,127.117 32.5,126.5 Z"/></g>
<g><path style="opacity:1" fill="#0d1121" d="M 119.5,114.5 C 119.5,120.5 119.5,126.5 119.5,132.5C 119.5,132.833 119.5,133.167 119.5,133.5C 118.662,133.842 118.328,134.508 118.5,135.5C 118.167,135.5 117.833,135.5 117.5,135.5C 113.833,135.5 110.167,135.5 106.5,135.5C 105.656,133.241 103.989,132.241 101.5,132.5C 101.5,134.833 101.5,137.167 101.5,139.5C 99.9102,139.372 98.5769,138.705 97.5,137.5C 98.0522,135.997 98.0522,134.331 97.5,132.5C 91.1982,131.407 82.8648,131.407 72.5,132.5C 72.3505,131.448 72.5172,130.448 73,129.5C 74.7337,128.751 76.567,128.251 78.5,128C 78.1667,127.667 77.8333,127.333 77.5,127C 70.6551,126.645 63.8217,126.145 57,125.5C 50.2582,127.114 43.4248,127.78 36.5,127.5C 36.5,127.167 36.5,126.833 36.5,126.5C 44.1186,126.671 51.6186,126.004 59,124.5C 67.8193,125.236 76.6526,125.569 85.5,125.5C 85.5,124.167 85.5,122.833 85.5,121.5C 86.397,120.402 87.2303,120.402 88,121.5C 88.21,123.058 88.71,124.391 89.5,125.5C 99.1323,125.076 108.632,125.743 118,127.5C 118.175,122.981 118.675,118.647 119.5,114.5 Z"/></g>
<g><path style="opacity:1" fill="#101c50" d="M 204.5,127.5 C 206.857,127.337 209.19,127.503 211.5,128C 214.167,128.667 214.167,129.333 211.5,130C 214.88,130.339 218.213,130.839 221.5,131.5C 222.64,134.025 223.307,136.692 223.5,139.5C 221.833,139.5 220.167,139.5 218.5,139.5C 210.783,139.295 203.116,138.628 195.5,137.5C 192.167,137.5 188.833,137.5 185.5,137.5C 187.189,136.696 188.855,135.696 190.5,134.5C 187.014,133.719 183.68,132.553 180.5,131C 181.756,130.583 182.423,129.75 182.5,128.5C 189.804,127.698 197.138,127.365 204.5,127.5 Z"/></g>
<g><path style="opacity:1" fill="#d7e287" d="M -0.5,128.5 C 0.833333,128.5 2.16667,128.5 3.5,128.5C 4.83333,128.5 6.16667,128.5 7.5,128.5C 12.8437,128.334 18.1771,128.501 23.5,129C 25.1712,130.843 26.1712,133.009 26.5,135.5C 23.5892,137.008 21.2559,136.175 19.5,133C 16.1177,132.176 12.7844,132.343 9.5,133.5C 5.72306,135.372 2.38972,137.706 -0.5,140.5C -0.5,136.5 -0.5,132.5 -0.5,128.5 Z"/></g>
<g><path style="opacity:1" fill="#0c132e" d="M 101.5,139.5 C 101.5,140.5 101.5,141.5 101.5,142.5C 100.551,143.923 99.5515,145.423 98.5,147C 98.9054,147.945 99.572,148.612 100.5,149C 99.2341,149.309 98.0674,149.809 97,150.5C 96.6264,148.509 95.793,146.842 94.5,145.5C 93.6893,139.689 90.356,136.689 84.5,136.5C 84.5,137.5 84.5,138.5 84.5,139.5C 82.8008,139.34 81.1341,139.506 79.5,140C 78.2089,141.292 78.2089,142.458 79.5,143.5C 76.6965,144.638 73.6965,144.805 70.5,144C 71.3366,142.989 71.67,141.822 71.5,140.5C 70.1667,140.5 68.8333,140.5 67.5,140.5C 68.5,139.833 69.5,139.167 70.5,138.5C 73.9783,138.816 77.3117,138.316 80.5,137C 77.8344,133.039 74.6678,132.539 71,135.5C 68.8649,134.873 66.6982,134.373 64.5,134C 66.1341,133.506 67.8008,133.34 69.5,133.5C 69.6399,131.876 68.9733,130.71 67.5,130C 58.5635,128.047 49.7301,128.213 41,130.5C 40.8333,130.833 40.6667,131.167 40.5,131.5C 43.3056,132.168 45.9723,132.834 48.5,133.5C 43.9296,134.441 39.263,134.774 34.5,134.5C 35.0861,131.188 37.0861,129.354 40.5,129C 38.2636,128.921 36.9303,128.421 36.5,127.5C 43.4248,127.78 50.2582,127.114 57,125.5C 63.8217,126.145 70.6551,126.645 77.5,127C 77.8333,127.333 78.1667,127.667 78.5,128C 76.567,128.251 74.7337,128.751 73,129.5C 72.5172,130.448 72.3505,131.448 72.5,132.5C 82.8648,131.407 91.1982,131.407 97.5,132.5C 98.0522,134.331 98.0522,135.997 97.5,137.5C 98.5769,138.705 99.9102,139.372 101.5,139.5 Z"/></g>
<g><path style="opacity:1" fill="#0d1745" d="M 70.5,138.5 C 68.0977,137.007 65.431,136.007 62.5,135.5C 61.7375,134.732 60.7375,134.232 59.5,134C 55.8484,133.501 52.1817,133.335 48.5,133.5C 45.9723,132.834 43.3056,132.168 40.5,131.5C 40.6667,131.167 40.8333,130.833 41,130.5C 49.7301,128.213 58.5635,128.047 67.5,130C 68.9733,130.71 69.6399,131.876 69.5,133.5C 67.8008,133.34 66.1341,133.506 64.5,134C 66.6982,134.373 68.8649,134.873 71,135.5C 74.6678,132.539 77.8344,133.039 80.5,137C 77.3117,138.316 73.9783,138.816 70.5,138.5 Z"/></g>
<g><path style="opacity:1" fill="#d3d3d4" d="M 135.5,131.5 C 135.5,133.167 135.5,134.833 135.5,136.5C 135.354,140.519 135.021,144.519 134.5,148.5C 133.5,148.5 132.5,148.5 131.5,148.5C 131.007,146.194 130.674,143.861 130.5,141.5C 126.108,141.526 124.108,143.859 124.5,148.5C 122.833,148.5 121.167,148.5 119.5,148.5C 119.5,143.5 119.5,138.5 119.5,133.5C 119.5,133.167 119.5,132.833 119.5,132.5C 124.74,131.551 130.073,131.218 135.5,131.5 Z"/></g>
<g><path style="opacity:1" fill="#0d1122" d="M 158.5,115.5 C 157.158,119.873 155.992,124.206 155,128.5C 155.725,127.941 156.558,127.608 157.5,127.5C 159.59,129.106 161.924,129.606 164.5,129C 166.192,127.599 166.859,125.766 166.5,123.5C 166.343,122.127 166.51,120.793 167,119.5C 167.075,121.935 167.908,122.602 169.5,121.5C 170.363,122.94 170.363,124.274 169.5,125.5C 170.833,125.833 172.167,126.167 173.5,126.5C 184.001,125.631 194.334,125.964 204.5,127.5C 197.138,127.365 189.804,127.698 182.5,128.5C 180.396,128.201 178.396,128.534 176.5,129.5C 176.709,130.086 177.043,130.586 177.5,131C 172.78,131.221 168.113,131.721 163.5,132.5C 163.167,132.833 162.833,133.167 162.5,133.5C 166.033,134.066 168.7,135.066 170.5,136.5C 168.265,136.205 166.265,136.539 164.5,137.5C 164.152,139.713 163.319,141.713 162,143.5C 161.503,145.81 161.337,148.143 161.5,150.5C 161.167,150.5 160.833,150.5 160.5,150.5C 158.419,151.99 156.086,152.99 153.5,153.5C 152.515,149.366 152.182,145.032 152.5,140.5C 153.8,137.976 153.8,135.309 152.5,132.5C 150.244,133.421 149.244,135.088 149.5,137.5C 147.883,138.589 147.05,140.256 147,142.5C 146.329,143.252 145.496,143.586 144.5,143.5C 143.127,143.657 141.793,143.49 140.5,143C 140.085,140.974 139.085,139.474 137.5,138.5C 137.672,137.508 137.338,136.842 136.5,136.5C 136.5,131.833 136.5,127.167 136.5,122.5C 141.263,122.226 145.93,122.559 150.5,123.5C 150.735,124.097 151.235,124.43 152,124.5C 155.643,122.13 156.476,118.963 154.5,115C 156.118,113.5 156.952,111 157,107.5C 158.375,109.937 158.875,112.603 158.5,115.5 Z"/></g>
<g><path style="opacity:1" fill="#3d4715" d="M 255.5,129.5 C 255.5,130.5 255.5,131.5 255.5,132.5C 254.833,132.5 254.167,132.5 253.5,132.5C 252.086,130.402 252.752,129.402 255.5,129.5 Z"/></g>
<g><path style="opacity:1" fill="#0c1134" d="M 182.5,128.5 C 182.423,129.75 181.756,130.583 180.5,131C 183.68,132.553 187.014,133.719 190.5,134.5C 188.855,135.696 187.189,136.696 185.5,137.5C 180.678,137.561 180.345,138.727 184.5,141C 183.022,143.039 181.022,143.872 178.5,143.5C 176.896,142.713 176.229,141.38 176.5,139.5C 173.911,139.539 171.911,138.539 170.5,136.5C 168.7,135.066 166.033,134.066 162.5,133.5C 162.833,133.167 163.167,132.833 163.5,132.5C 168.113,131.721 172.78,131.221 177.5,131C 177.043,130.586 176.709,130.086 176.5,129.5C 178.396,128.534 180.396,128.201 182.5,128.5 Z"/></g>
<g><path style="opacity:1" fill="#505f55" d="M 221.5,131.5 C 222.167,131.5 222.833,131.5 223.5,131.5C 224.167,131.5 224.833,131.5 225.5,131.5C 224.167,134.167 224.167,136.833 225.5,139.5C 225.167,139.5 224.833,139.5 224.5,139.5C 224.167,139.5 223.833,139.5 223.5,139.5C 223.307,136.692 222.64,134.025 221.5,131.5 Z"/></g>
<g><path style="opacity:1" fill="#152767" d="M 48.5,133.5 C 52.1817,133.335 55.8484,133.501 59.5,134C 60.7375,134.232 61.7375,134.732 62.5,135.5C 54.6472,135.107 46.9805,136.107 39.5,138.5C 49.8437,139.734 60.1771,139.734 70.5,138.5C 69.5,139.167 68.5,139.833 67.5,140.5C 63.1328,140.987 58.7995,141.653 54.5,142.5C 47.1573,140.798 39.4906,139.798 31.5,139.5C 31.5,137.833 31.5,136.167 31.5,134.5C 32.5,134.5 33.5,134.5 34.5,134.5C 39.263,134.774 43.9296,134.441 48.5,133.5 Z"/></g>
<g><path style="opacity:1" fill="#152a75" d="M 197.5,131.5 C 202.866,131.323 208.2,131.656 213.5,132.5C 215.188,133.096 216.854,133.929 218.5,135C 210.5,135.667 202.5,135.667 194.5,135C 196.5,134.667 198.5,134.333 200.5,134C 198.881,133.764 197.881,132.931 197.5,131.5 Z"/></g>
<g><path style="opacity:1" fill="#323c32" d="M 106.5,135.5 C 106.5,136.167 106.5,136.833 106.5,137.5C 105.735,136.34 104.735,135.34 103.5,134.5C 102.203,136.973 102.203,139.307 103.5,141.5C 103.5,149.167 103.5,156.833 103.5,164.5C 102.293,157.361 101.626,150.028 101.5,142.5C 101.5,141.5 101.5,140.5 101.5,139.5C 101.5,137.167 101.5,134.833 101.5,132.5C 103.989,132.241 105.656,133.241 106.5,135.5 Z"/></g>
<g><path style="opacity:1" fill="#8e9e72" d="M 225.5,131.5 C 226.167,131.5 226.833,131.5 227.5,131.5C 226.597,134.391 226.264,137.391 226.5,140.5C 225.833,140.5 225.5,140.167 225.5,139.5C 224.167,136.833 224.167,134.167 225.5,131.5 Z"/></g>
<g><path style="opacity:1" fill="#5c6b5c" d="M 26.5,126.5 C 27.8333,126.5 29.1667,126.5 30.5,126.5C 31.1667,126.5 31.8333,126.5 32.5,126.5C 32.6107,127.117 32.944,127.617 33.5,128C 30.7392,129.705 30.0726,131.871 31.5,134.5C 31.5,136.167 31.5,137.833 31.5,139.5C 31.5,140.833 30.8333,141.5 29.5,141.5C 29.8195,136.637 29.4861,131.97 28.5,127.5C 27.5084,127.672 26.8417,127.338 26.5,126.5 Z"/></g>
<g><path style="opacity:1" fill="#214cb0" d="M 62.5,135.5 C 65.431,136.007 68.0977,137.007 70.5,138.5C 60.1771,139.734 49.8437,139.734 39.5,138.5C 46.9805,136.107 54.6472,135.107 62.5,135.5 Z"/></g>
<g><path style="opacity:1" fill="#394436" d="M 152.5,140.5 C 152.785,138.712 152.452,137.045 151.5,135.5C 150.818,136.243 150.151,136.909 149.5,137.5C 149.244,135.088 150.244,133.421 152.5,132.5C 153.8,135.309 153.8,137.976 152.5,140.5 Z"/></g>
<g><path style="opacity:1" fill="#4c5946" d="M 164.5,137.5 C 167.01,137.054 169.01,137.72 170.5,139.5C 168.533,139.261 166.699,139.594 165,140.5C 163.514,143.85 162.347,147.184 161.5,150.5C 161.337,148.143 161.503,145.81 162,143.5C 163.319,141.713 164.152,139.713 164.5,137.5 Z"/></g>
<g><path style="opacity:1" fill="#15266f" d="M 185.5,137.5 C 188.833,137.5 192.167,137.5 195.5,137.5C 194.602,138.158 193.602,138.824 192.5,139.5C 195,140.359 197.333,141.359 199.5,142.5C 197.167,142.5 194.833,142.5 192.5,142.5C 190.473,142.338 188.473,142.505 186.5,143C 187.552,144.716 186.886,145.716 184.5,146C 185.71,147.039 186.71,148.206 187.5,149.5C 185.938,149.267 184.605,148.6 183.5,147.5C 182.167,147.5 180.833,147.5 179.5,147.5C 179.567,146.041 179.234,144.708 178.5,143.5C 181.022,143.872 183.022,143.039 184.5,141C 180.345,138.727 180.678,137.561 185.5,137.5 Z"/></g>
<g><path style="opacity:1" fill="#5e6d56" d="M 106.5,137.5 C 107.434,138.568 107.768,139.901 107.5,141.5C 106.167,141.5 104.833,141.5 103.5,141.5C 102.203,139.307 102.203,136.973 103.5,134.5C 104.735,135.34 105.735,136.34 106.5,137.5 Z"/></g>
<g><path style="opacity:1" fill="#232941" d="M 106.5,135.5 C 110.167,135.5 113.833,135.5 117.5,135.5C 117.5,139.167 117.5,142.833 117.5,146.5C 115.126,147.686 112.792,147.686 110.5,146.5C 110.047,144.435 109.047,142.768 107.5,141.5C 107.768,139.901 107.434,138.568 106.5,137.5C 106.5,136.833 106.5,136.167 106.5,135.5 Z"/></g>
<g><path style="opacity:1" fill="#1a44a6" d="M 195.5,137.5 C 203.116,138.628 210.783,139.295 218.5,139.5C 219.263,140.268 220.263,140.768 221.5,141C 216.325,141.467 211.158,141.3 206,140.5C 204.167,140.667 202.333,140.833 200.5,141C 204.226,142.043 203.893,142.543 199.5,142.5C 197.333,141.359 195,140.359 192.5,139.5C 193.602,138.824 194.602,138.158 195.5,137.5 Z"/></g>
<g><path style="opacity:1" fill="#081135" d="M 31.5,139.5 C 39.4906,139.798 47.1573,140.798 54.5,142.5C 55.2492,145.095 56.9159,146.262 59.5,146C 58.2888,145.107 58.2888,144.274 59.5,143.5C 65.695,147.049 72.3617,149.049 79.5,149.5C 79.5,150.5 79.5,151.5 79.5,152.5C 76.5701,153.299 73.5701,153.632 70.5,153.5C 70.5,154.5 70.5,155.5 70.5,156.5C 73.2788,156.721 75.9455,156.388 78.5,155.5C 78.6716,156.492 78.3382,157.158 77.5,157.5C 75.7231,157.786 74.0564,158.453 72.5,159.5C 71.1331,158.775 69.7997,158.108 68.5,157.5C 63.5496,157.007 63.5496,155.673 68.5,153.5C 69.3857,152.675 69.719,151.675 69.5,150.5C 66.3588,150.59 63.6922,149.59 61.5,147.5C 55.5,147.5 49.5,147.5 43.5,147.5C 41.1432,147.663 38.8098,147.497 36.5,147C 39.0356,146.814 41.369,146.314 43.5,145.5C 53.8907,143.462 53.8907,142.462 43.5,142.5C 39.1434,142.586 34.81,142.92 30.5,143.5C 30.1667,143.5 29.8333,143.5 29.5,143.5C 29.5,142.833 29.5,142.167 29.5,141.5C 30.8333,141.5 31.5,140.833 31.5,139.5 Z"/></g>
<g><path style="opacity:1" fill="#d3dea1" d="M 227.5,140.5 C 230.85,140.335 234.183,140.502 237.5,141C 238.167,142 238.833,143 239.5,144C 236.719,146.04 233.719,147.707 230.5,149C 229.663,150.011 229.33,151.178 229.5,152.5C 232.365,152.055 234.865,152.722 237,154.5C 237.536,156.615 236.703,157.948 234.5,158.5C 234.5,156.833 234.5,155.167 234.5,153.5C 232.167,153.5 229.833,153.5 227.5,153.5C 227.806,150.615 227.473,147.948 226.5,145.5C 227.038,143.883 227.371,142.216 227.5,140.5 Z"/></g>
<g><path style="opacity:1" fill="#404b47" d="M 94.5,145.5 C 94.5,146.5 94.5,147.5 94.5,148.5C 92.9817,145.552 91.315,142.552 89.5,139.5C 86.7582,138.5 84.7582,139.5 83.5,142.5C 84.8413,146.633 84.1746,150.466 81.5,154C 82.4138,155.406 83.0805,156.906 83.5,158.5C 82.8333,158.167 82.1667,157.833 81.5,157.5C 80.8333,157.5 80.1667,157.5 79.5,157.5C 79.5,156.833 79.5,156.167 79.5,155.5C 79.5,154.5 79.5,153.5 79.5,152.5C 79.5,151.5 79.5,150.5 79.5,149.5C 81.539,148.089 82.539,146.089 82.5,143.5C 81.5,143.5 80.5,143.5 79.5,143.5C 78.2089,142.458 78.2089,141.292 79.5,140C 81.1341,139.506 82.8008,139.34 84.5,139.5C 84.5,138.5 84.5,137.5 84.5,136.5C 90.356,136.689 93.6893,139.689 94.5,145.5 Z"/></g>
<g><path style="opacity:1" fill="#2e70d3" d="M 218.5,139.5 C 220.167,139.5 221.833,139.5 223.5,139.5C 223.5,142.167 223.5,144.833 223.5,147.5C 214.327,148.583 204.993,148.583 195.5,147.5C 195.69,145.041 194.69,143.374 192.5,142.5C 194.833,142.5 197.167,142.5 199.5,142.5C 203.893,142.543 204.226,142.043 200.5,141C 202.333,140.833 204.167,140.667 206,140.5C 211.158,141.3 216.325,141.467 221.5,141C 220.263,140.768 219.263,140.268 218.5,139.5 Z"/></g>
<g><path style="opacity:1" fill="#9baeac" d="M 224.5,139.5 C 224.833,139.5 225.167,139.5 225.5,139.5C 225.5,140.167 225.833,140.5 226.5,140.5C 226.833,140.5 227.167,140.5 227.5,140.5C 227.371,142.216 227.038,143.883 226.5,145.5C 224.692,144.082 224.025,142.082 224.5,139.5 Z"/></g>
<g><path style="opacity:1" fill="#a9b876" d="M 28.5,127.5 C 29.4861,131.97 29.8195,136.637 29.5,141.5C 29.5,142.167 29.5,142.833 29.5,143.5C 29.1667,144.833 28.8333,146.167 28.5,147.5C 28.1667,147.5 27.8333,147.5 27.5,147.5C 27.5,143.5 27.5,139.5 27.5,135.5C 28.2653,132.904 28.5987,130.237 28.5,127.5 Z"/></g>
<g><path style="opacity:1" fill="#19409f" d="M 43.5,142.5 C 53.8907,142.462 53.8907,143.462 43.5,145.5C 41.076,145.808 38.7427,145.474 36.5,144.5C 38.9688,143.832 41.3021,143.165 43.5,142.5 Z"/></g>
<g><path style="opacity:1" fill="#6d6f76" d="M 136.5,136.5 C 137.338,136.842 137.672,137.508 137.5,138.5C 137.636,141.35 137.969,144.183 138.5,147C 138.392,148.681 137.725,149.848 136.5,150.5C 136.5,145.833 136.5,141.167 136.5,136.5 Z"/></g>
<g><path style="opacity:1" fill="#283243" d="M 164.5,137.5 C 166.265,136.539 168.265,136.205 170.5,136.5C 171.911,138.539 173.911,139.539 176.5,139.5C 176.229,141.38 176.896,142.713 178.5,143.5C 179.234,144.708 179.567,146.041 179.5,147.5C 178.761,147.369 178.094,147.536 177.5,148C 181.711,151.031 181.378,152.031 176.5,151C 177.267,152.47 177.933,153.97 178.5,155.5C 177.532,157.607 177.198,159.941 177.5,162.5C 178.791,162.263 179.791,162.596 180.5,163.5C 179.167,163.5 177.833,163.5 176.5,163.5C 176.22,158.792 175.22,154.458 173.5,150.5C 172.957,150.44 172.624,150.107 172.5,149.5C 175.953,148.521 176.286,147.021 173.5,145C 174.354,143.215 173.687,142.049 171.5,141.5C 171.167,140.833 170.833,140.167 170.5,139.5C 169.01,137.72 167.01,137.054 164.5,137.5 Z"/></g>
<g><path style="opacity:1" fill="#0e225b" d="M 43.5,142.5 C 41.3021,143.165 38.9688,143.832 36.5,144.5C 38.7427,145.474 41.076,145.808 43.5,145.5C 41.369,146.314 39.0356,146.814 36.5,147C 38.8098,147.497 41.1432,147.663 43.5,147.5C 43.5,147.833 43.5,148.167 43.5,148.5C 39.1018,148.706 34.7685,148.373 30.5,147.5C 30.5,146.167 30.5,144.833 30.5,143.5C 34.81,142.92 39.1434,142.586 43.5,142.5 Z"/></g>
<g><path style="opacity:1" fill="#050818" d="M 67.5,140.5 C 68.8333,140.5 70.1667,140.5 71.5,140.5C 71.67,141.822 71.3366,142.989 70.5,144C 73.6965,144.805 76.6965,144.638 79.5,143.5C 80.5,143.5 81.5,143.5 82.5,143.5C 82.539,146.089 81.539,148.089 79.5,149.5C 72.3617,149.049 65.695,147.049 59.5,143.5C 58.2888,144.274 58.2888,145.107 59.5,146C 56.9159,146.262 55.2492,145.095 54.5,142.5C 58.7995,141.653 63.1328,140.987 67.5,140.5 Z"/></g>
<g><path style="opacity:1" fill="#2e3640" d="M 137.5,138.5 C 139.085,139.474 140.085,140.974 140.5,143C 141.793,143.49 143.127,143.657 144.5,143.5C 144.5,144.833 144.5,146.167 144.5,147.5C 142.787,148.635 142.12,150.302 142.5,152.5C 141.167,152.5 139.833,152.5 138.5,152.5C 137.833,152.167 137.167,151.833 136.5,151.5C 136.5,151.167 136.5,150.833 136.5,150.5C 137.725,149.848 138.392,148.681 138.5,147C 137.969,144.183 137.636,141.35 137.5,138.5 Z"/></g>
<g><path style="opacity:1" fill="#708046" d="M 152.5,140.5 C 151.515,144.634 151.182,148.968 151.5,153.5C 146.069,154.906 143.735,152.906 144.5,147.5C 144.5,146.167 144.5,144.833 144.5,143.5C 145.496,143.586 146.329,143.252 147,142.5C 147.05,140.256 147.883,138.589 149.5,137.5C 150.151,136.909 150.818,136.243 151.5,135.5C 152.452,137.045 152.785,138.712 152.5,140.5 Z"/></g>
<g><path style="opacity:1" fill="#6c7c51" d="M 170.5,139.5 C 170.833,140.167 171.167,140.833 171.5,141.5C 169.073,142.279 169.073,143.446 171.5,145C 170.718,147.74 170.218,150.574 170,153.5C 167.281,154.444 164.448,154.777 161.5,154.5C 161.5,153.167 161.5,151.833 161.5,150.5C 162.347,147.184 163.514,143.85 165,140.5C 166.699,139.594 168.533,139.261 170.5,139.5 Z"/></g>
<g><path style="opacity:1" fill="#e3ec99" d="M 26.5,135.5 C 26.8333,135.5 27.1667,135.5 27.5,135.5C 27.5,139.5 27.5,143.5 27.5,147.5C 23.8183,147.335 20.1516,147.501 16.5,148C 17.5156,148.519 18.1822,149.353 18.5,150.5C 17.7794,153.564 16.4461,156.23 14.5,158.5C 13.448,158.649 12.448,158.483 11.5,158C 12.8333,157.333 12.8333,156.667 11.5,156C 7.58174,154.844 3.58174,154.344 -0.5,154.5C -0.5,149.833 -0.5,145.167 -0.5,140.5C 2.38972,137.706 5.72306,135.372 9.5,133.5C 12.7844,132.343 16.1177,132.176 19.5,133C 21.2559,136.175 23.5892,137.008 26.5,135.5 Z"/></g>
<g><path style="opacity:1" fill="#9bab53" d="M 147.5,145.5 C 148.5,145.5 149.5,145.5 150.5,145.5C 150.5,147.833 150.5,150.167 150.5,152.5C 149.167,152.5 147.833,152.5 146.5,152.5C 146.298,150.05 146.631,147.717 147.5,145.5 Z"/></g>
<g><path style="opacity:1" fill="#1b4caf" d="M 43.5,147.5 C 49.5,147.5 55.5,147.5 61.5,147.5C 61.6261,149.2 62.2927,150.7 63.5,152C 62.5909,153.789 62.4242,155.623 63,157.5C 65.1785,158.116 67.0118,159.283 68.5,161C 67.944,161.383 67.6107,161.883 67.5,162.5C 65.2554,163.828 64.9221,165.661 66.5,168C 63.854,168.497 61.1873,168.664 58.5,168.5C 59.4756,167.185 60.4756,165.852 61.5,164.5C 61.0798,162.674 61.0798,160.674 61.5,158.5C 57.8333,158.5 54.1667,158.5 50.5,158.5C 54.1904,158.001 57.5237,156.667 60.5,154.5C 60.264,152.027 58.9307,150.36 56.5,149.5C 52.0189,148.968 47.6856,148.634 43.5,148.5C 43.5,148.167 43.5,147.833 43.5,147.5 Z"/></g>
<g><path style="opacity:1" fill="#9a9c9d" d="M 119.5,133.5 C 119.5,138.5 119.5,143.5 119.5,148.5C 121.167,148.5 122.833,148.5 124.5,148.5C 124.108,143.859 126.108,141.526 130.5,141.5C 130.674,143.861 131.007,146.194 131.5,148.5C 132.5,148.5 133.5,148.5 134.5,148.5C 135.021,144.519 135.354,140.519 135.5,136.5C 135.833,136.5 136.167,136.5 136.5,136.5C 136.5,141.167 136.5,145.833 136.5,150.5C 136.5,150.833 136.5,151.167 136.5,151.5C 136.5,153.5 136.5,155.5 136.5,157.5C 134.019,157.677 132.186,156.677 131,154.5C 129.957,151.243 129.457,147.91 129.5,144.5C 128.325,144.281 127.325,144.614 126.5,145.5C 125.613,149.186 124.113,152.519 122,155.5C 120.989,156.337 119.822,156.67 118.5,156.5C 118.5,149.5 118.5,142.5 118.5,135.5C 118.328,134.508 118.662,133.842 119.5,133.5 Z"/></g>
<g><path style="opacity:1" fill="#7690af" d="M 29.5,143.5 C 29.8333,143.5 30.1667,143.5 30.5,143.5C 30.5,144.833 30.5,146.167 30.5,147.5C 29.3126,150.946 28.6459,154.613 28.5,158.5C 27.6586,160.379 27.3253,162.379 27.5,164.5C 27.1667,164.5 26.8333,164.5 26.5,164.5C 25.8333,164.5 25.1667,164.5 24.5,164.5C 24.5,163.833 24.5,163.167 24.5,162.5C 26.273,157.857 27.6064,152.857 28.5,147.5C 28.8333,146.167 29.1667,144.833 29.5,143.5 Z"/></g>
<g><path style="opacity:1" fill="#16368f" d="M 192.5,142.5 C 194.69,143.374 195.69,145.041 195.5,147.5C 204.993,148.583 214.327,148.583 223.5,147.5C 225.163,149.438 225.829,151.772 225.5,154.5C 224.374,153.286 223.041,152.286 221.5,151.5C 220.311,151.756 219.144,152.089 218,152.5C 209.123,149.604 200.623,150.437 192.5,155C 193.167,155.667 193.833,156.333 194.5,157C 192.074,158.145 189.741,159.478 187.5,161C 189.236,162.939 190.236,165.272 190.5,168C 189.43,169.709 188.097,171.209 186.5,172.5C 188.282,173.984 190.282,174.984 192.5,175.5C 189.123,175.932 186.123,175.265 183.5,173.5C 183.082,172.778 182.416,172.278 181.5,172C 183.441,170.097 185.774,169.264 188.5,169.5C 186.663,166.716 184.996,163.716 183.5,160.5C 186.152,159.99 188.152,158.657 189.5,156.5C 188.83,154.137 188.163,151.804 187.5,149.5C 186.71,148.206 185.71,147.039 184.5,146C 186.886,145.716 187.552,144.716 186.5,143C 188.473,142.505 190.473,142.338 192.5,142.5 Z"/></g>
<g><path style="opacity:1" fill="#dee895" d="M 231.5,129.5 C 237.833,129.5 244.167,129.5 250.5,129.5C 250.5,130.5 250.5,131.5 250.5,132.5C 251.5,132.5 252.5,132.5 253.5,132.5C 254.167,132.5 254.833,132.5 255.5,132.5C 255.5,138.5 255.5,144.5 255.5,150.5C 252.157,151.224 248.824,152.057 245.5,153C 244.061,153.991 243.061,155.324 242.5,157C 239.691,158.093 237.024,159.26 234.5,160.5C 233.833,160.5 233.167,160.5 232.5,160.5C 232.833,159.5 233.5,158.833 234.5,158.5C 236.703,157.948 237.536,156.615 237,154.5C 234.865,152.722 232.365,152.055 229.5,152.5C 229.33,151.178 229.663,150.011 230.5,149C 233.719,147.707 236.719,146.04 239.5,144C 238.833,143 238.167,142 237.5,141C 234.183,140.502 230.85,140.335 227.5,140.5C 227.167,140.5 226.833,140.5 226.5,140.5C 226.264,137.391 226.597,134.391 227.5,131.5C 229.199,131.66 230.866,131.494 232.5,131C 231.5,130.667 230.5,130.333 229.5,130C 230.094,129.536 230.761,129.369 231.5,129.5 Z"/></g>
<g><path style="opacity:1" fill="#4c95eb" d="M 30.5,147.5 C 30.5,149.5 30.5,151.5 30.5,153.5C 34.1817,153.665 37.8484,153.499 41.5,153C 38.2105,152.118 34.8772,151.452 31.5,151C 39.4931,150.5 47.4931,150.334 55.5,150.5C 55.4208,151.93 55.7542,153.264 56.5,154.5C 48.6176,155.121 40.9509,156.454 33.5,158.5C 31.8333,158.5 30.1667,158.5 28.5,158.5C 28.6459,154.613 29.3126,150.946 30.5,147.5 Z"/></g>
<g><path style="opacity:1" fill="#060a11" d="M 79.5,152.5 C 79.5,153.5 79.5,154.5 79.5,155.5C 79.1667,155.5 78.8333,155.5 78.5,155.5C 75.9455,156.388 73.2788,156.721 70.5,156.5C 70.5,155.5 70.5,154.5 70.5,153.5C 73.5701,153.632 76.5701,153.299 79.5,152.5 Z"/></g>
<g><path style="opacity:1" fill="#0b1334" d="M 179.5,147.5 C 180.833,147.5 182.167,147.5 183.5,147.5C 183.586,148.496 183.252,149.329 182.5,150C 185.668,150.582 186.001,151.582 183.5,153C 184.833,154.667 186.167,156.333 187.5,158C 185.833,158.667 184.167,158.667 182.5,158C 181.529,156.519 180.196,155.685 178.5,155.5C 177.933,153.97 177.267,152.47 176.5,151C 181.378,152.031 181.711,151.031 177.5,148C 178.094,147.536 178.761,147.369 179.5,147.5 Z"/></g>
<g><path style="opacity:1" fill="#cad795" d="M 27.5,147.5 C 27.5,148.167 27.1667,148.5 26.5,148.5C 22.7429,148.286 22.0762,149.286 24.5,151.5C 23.91,152.799 22.91,153.632 21.5,154C 22.6457,156.557 21.6457,157.89 18.5,158C 19.3079,159.706 20.6412,160.539 22.5,160.5C 22.5,161.833 22.5,163.167 22.5,164.5C 19.9039,163.735 17.2372,163.401 14.5,163.5C 12.4892,161.409 12.4892,159.742 14.5,158.5C 16.4461,156.23 17.7794,153.564 18.5,150.5C 18.1822,149.353 17.5156,148.519 16.5,148C 20.1516,147.501 23.8183,147.335 27.5,147.5 Z"/></g>
<g><path style="opacity:1" fill="#4f5c40" d="M 152.5,140.5 C 152.182,145.032 152.515,149.366 153.5,153.5C 152.316,154.688 152.316,155.855 153.5,157C 152.584,157.278 151.918,157.778 151.5,158.5C 151.843,160.483 151.176,161.817 149.5,162.5C 149.119,163.931 148.119,164.764 146.5,165C 147.448,165.483 148.448,165.649 149.5,165.5C 149.567,166.959 149.234,168.292 148.5,169.5C 146.396,169.201 144.396,169.534 142.5,170.5C 144.045,171.452 145.712,171.785 147.5,171.5C 147.5,172.5 147.5,173.5 147.5,174.5C 145.5,174.5 143.5,174.5 141.5,174.5C 141.923,172.219 141.256,170.552 139.5,169.5C 139.616,163.597 140.616,157.93 142.5,152.5C 142.12,150.302 142.787,148.635 144.5,147.5C 143.735,152.906 146.069,154.906 151.5,153.5C 151.182,148.968 151.515,144.634 152.5,140.5 Z"/></g>
<g><path style="opacity:1" fill="#3c464c" d="M 160.5,150.5 C 159.709,153.115 159.043,155.782 158.5,158.5C 156.167,158.5 153.833,158.5 151.5,158.5C 151.918,157.778 152.584,157.278 153.5,157C 152.316,155.855 152.316,154.688 153.5,153.5C 156.086,152.99 158.419,151.99 160.5,150.5 Z"/></g>
<g><path style="opacity:1" fill="#59685f" d="M 171.5,141.5 C 173.687,142.049 174.354,143.215 173.5,145C 176.286,147.021 175.953,148.521 172.5,149.5C 172.624,150.107 172.957,150.44 173.5,150.5C 173.756,152.912 172.756,154.579 170.5,155.5C 171.325,156.386 172.325,156.719 173.5,156.5C 173.5,158.5 173.5,160.5 173.5,162.5C 171.027,162.264 169.36,160.931 168.5,158.5C 165.126,157.249 161.793,157.249 158.5,158.5C 159.043,155.782 159.709,153.115 160.5,150.5C 160.833,150.5 161.167,150.5 161.5,150.5C 161.5,151.833 161.5,153.167 161.5,154.5C 164.448,154.777 167.281,154.444 170,153.5C 170.218,150.574 170.718,147.74 171.5,145C 169.073,143.446 169.073,142.279 171.5,141.5 Z"/></g>
<g><path style="opacity:1" fill="#a6bcc5" d="M 27.5,147.5 C 27.8333,147.5 28.1667,147.5 28.5,147.5C 27.6064,152.857 26.273,157.857 24.5,162.5C 24.2969,160.956 23.6302,159.622 22.5,158.5C 24.4351,155.352 25.7684,152.019 26.5,148.5C 27.1667,148.5 27.5,148.167 27.5,147.5 Z"/></g>
<g><path style="opacity:1" fill="#475240" d="M 94.5,148.5 C 97.2104,156.027 97.8771,163.693 96.5,171.5C 95.6718,163.851 95.0051,156.185 94.5,148.5 Z"/></g>
<g><path style="opacity:1" fill="#2666cb" d="M 225.5,154.5 C 225.5,156.167 225.5,157.833 225.5,159.5C 220.25,159.302 215.25,159.969 210.5,161.5C 207.797,161.045 205.13,160.378 202.5,159.5C 200.547,160.156 198.547,160.489 196.5,160.5C 196.884,164.908 196.217,169.075 194.5,173C 194.528,174.07 194.861,174.903 195.5,175.5C 195.5,176.167 195.5,176.833 195.5,177.5C 195.167,178.833 194.833,180.167 194.5,181.5C 193.5,181.5 192.5,181.5 191.5,181.5C 193.475,179.638 193.808,177.638 192.5,175.5C 190.282,174.984 188.282,173.984 186.5,172.5C 188.097,171.209 189.43,169.709 190.5,168C 190.236,165.272 189.236,162.939 187.5,161C 189.741,159.478 192.074,158.145 194.5,157C 193.833,156.333 193.167,155.667 192.5,155C 200.623,150.437 209.123,149.604 218,152.5C 219.144,152.089 220.311,151.756 221.5,151.5C 223.041,152.286 224.374,153.286 225.5,154.5 Z"/></g>
<g><path style="opacity:1" fill="#3185e2" d="M 206.5,152.5 C 209.157,152.162 211.49,152.829 213.5,154.5C 208.416,155.89 203.416,155.723 198.5,154C 201.365,153.817 204.031,153.317 206.5,152.5 Z"/></g>
<g><path style="opacity:1" fill="#c6d373" d="M -0.5,154.5 C 3.58174,154.344 7.58174,154.844 11.5,156C 12.8333,156.667 12.8333,157.333 11.5,158C 12.448,158.483 13.448,158.649 14.5,158.5C 12.4892,159.742 12.4892,161.409 14.5,163.5C 14.5,164.167 14.1667,164.5 13.5,164.5C 12.8333,164.5 12.1667,164.5 11.5,164.5C 7.27191,164.256 3.27191,163.256 -0.5,161.5C -0.5,159.167 -0.5,156.833 -0.5,154.5 Z"/></g>
<g><path style="opacity:1" fill="#b8c7ae" d="M 26.5,148.5 C 25.7684,152.019 24.4351,155.352 22.5,158.5C 23.6302,159.622 24.2969,160.956 24.5,162.5C 24.5,163.167 24.5,163.833 24.5,164.5C 24.1667,164.5 23.8333,164.5 23.5,164.5C 23.1667,164.5 22.8333,164.5 22.5,164.5C 22.5,163.167 22.5,161.833 22.5,160.5C 20.6412,160.539 19.3079,159.706 18.5,158C 21.6457,157.89 22.6457,156.557 21.5,154C 22.91,153.632 23.91,152.799 24.5,151.5C 22.0762,149.286 22.7429,148.286 26.5,148.5 Z"/></g>
<g><path style="opacity:1" fill="#142c7f" d="M 61.5,147.5 C 63.6922,149.59 66.3588,150.59 69.5,150.5C 69.719,151.675 69.3857,152.675 68.5,153.5C 63.5496,155.673 63.5496,157.007 68.5,157.5C 68.5106,159.017 69.1772,160.184 70.5,161C 69.944,161.383 69.6107,161.883 69.5,162.5C 68.8333,162.5 68.1667,162.5 67.5,162.5C 67.6107,161.883 67.944,161.383 68.5,161C 67.0118,159.283 65.1785,158.116 63,157.5C 62.4242,155.623 62.5909,153.789 63.5,152C 62.2927,150.7 61.6261,149.2 61.5,147.5 Z"/></g>
<g><path style="opacity:1" fill="#495765" d="M 173.5,150.5 C 175.22,154.458 176.22,158.792 176.5,163.5C 175.391,163.443 174.391,163.11 173.5,162.5C 173.5,160.5 173.5,158.5 173.5,156.5C 172.325,156.719 171.325,156.386 170.5,155.5C 172.756,154.579 173.756,152.912 173.5,150.5 Z"/></g>
<g><path style="opacity:1" fill="#131c4c" d="M 183.5,147.5 C 184.605,148.6 185.938,149.267 187.5,149.5C 188.163,151.804 188.83,154.137 189.5,156.5C 188.152,158.657 186.152,159.99 183.5,160.5C 184.996,163.716 186.663,166.716 188.5,169.5C 185.774,169.264 183.441,170.097 181.5,172C 182.416,172.278 183.082,172.778 183.5,173.5C 180.833,173.5 178.167,173.5 175.5,173.5C 176.551,172.778 177.218,171.778 177.5,170.5C 180.363,170.071 183.029,169.071 185.5,167.5C 184.64,165.069 182.973,163.736 180.5,163.5C 179.791,162.596 178.791,162.263 177.5,162.5C 177.198,159.941 177.532,157.607 178.5,155.5C 180.196,155.685 181.529,156.519 182.5,158C 184.167,158.667 185.833,158.667 187.5,158C 186.167,156.333 184.833,154.667 183.5,153C 186.001,151.582 185.668,150.582 182.5,150C 183.252,149.329 183.586,148.496 183.5,147.5 Z"/></g>
<g><path style="opacity:1" fill="#7693ba" d="M 223.5,139.5 C 223.833,139.5 224.167,139.5 224.5,139.5C 224.025,142.082 224.692,144.082 226.5,145.5C 225.84,150.401 227.174,154.567 230.5,158C 229.584,158.278 228.918,158.778 228.5,159.5C 227.5,159.5 226.5,159.5 225.5,159.5C 225.5,157.833 225.5,156.167 225.5,154.5C 225.829,151.772 225.163,149.438 223.5,147.5C 223.5,144.833 223.5,142.167 223.5,139.5 Z"/></g>
<g><path style="opacity:1" fill="#2574d6" d="M 30.5,147.5 C 34.7685,148.373 39.1018,148.706 43.5,148.5C 47.6856,148.634 52.0189,148.968 56.5,149.5C 58.9307,150.36 60.264,152.027 60.5,154.5C 57.5237,156.667 54.1904,158.001 50.5,158.5C 47.3712,159.913 44.0378,161.08 40.5,162C 43.6752,161.947 46.3419,162.78 48.5,164.5C 47.1667,165.167 45.8333,165.833 44.5,166.5C 43.7611,166.631 43.0944,166.464 42.5,166C 43.6721,165.581 44.6721,164.915 45.5,164C 45,163.833 44.5,163.667 44,163.5C 42.5936,164.414 41.0936,165.08 39.5,165.5C 39.6107,164.883 39.944,164.383 40.5,164C 38.1667,163.667 35.8333,163.333 33.5,163C 34.5,162.667 35.5,162.333 36.5,162C 34.9371,161.241 33.9371,160.074 33.5,158.5C 40.9509,156.454 48.6176,155.121 56.5,154.5C 55.7542,153.264 55.4208,151.93 55.5,150.5C 47.4931,150.334 39.4931,150.5 31.5,151C 34.8772,151.452 38.2105,152.118 41.5,153C 37.8484,153.499 34.1817,153.665 30.5,153.5C 30.5,151.5 30.5,149.5 30.5,147.5 Z"/></g>
<g><path style="opacity:1" fill="#c9d675" d="M 255.5,150.5 C 255.5,151.833 255.5,153.167 255.5,154.5C 251.044,154.896 250.71,155.896 254.5,157.5C 253.91,158.799 252.91,159.632 251.5,160C 245.843,160.499 240.176,160.666 234.5,160.5C 237.024,159.26 239.691,158.093 242.5,157C 243.061,155.324 244.061,153.991 245.5,153C 248.824,152.057 252.157,151.224 255.5,150.5 Z"/></g>
<g><path style="opacity:1" fill="#3b92e9" d="M 210.5,161.5 C 213.385,161.194 216.052,161.527 218.5,162.5C 211.833,162.5 205.167,162.5 198.5,162.5C 197.423,165.526 197.423,168.526 198.5,171.5C 196.712,172.283 195.712,173.616 195.5,175.5C 194.861,174.903 194.528,174.07 194.5,173C 196.217,169.075 196.884,164.908 196.5,160.5C 198.547,160.489 200.547,160.156 202.5,159.5C 205.13,160.378 207.797,161.045 210.5,161.5 Z"/></g>
<g><path style="opacity:1" fill="#122761" d="M 225.5,159.5 C 226.5,159.5 227.5,159.5 228.5,159.5C 228.5,159.833 228.5,160.167 228.5,160.5C 227.375,161.348 227.375,162.348 228.5,163.5C 228.167,163.5 227.833,163.5 227.5,163.5C 224.57,162.701 221.57,162.368 218.5,162.5C 216.052,161.527 213.385,161.194 210.5,161.5C 215.25,159.969 220.25,159.302 225.5,159.5 Z"/></g>
<g><path style="opacity:1" fill="#b3c264" d="M 255.5,154.5 C 255.5,158.5 255.5,162.5 255.5,166.5C 252.451,167.378 250.117,169.212 248.5,172C 250.167,172.333 251.833,172.667 253.5,173C 250.854,173.497 248.187,173.664 245.5,173.5C 244.685,172.163 243.518,171.163 242,170.5C 240.562,165.234 237.395,161.9 232.5,160.5C 233.167,160.5 233.833,160.5 234.5,160.5C 240.176,160.666 245.843,160.499 251.5,160C 252.91,159.632 253.91,158.799 254.5,157.5C 250.71,155.896 251.044,154.896 255.5,154.5 Z"/></g>
<g><path style="opacity:1" fill="#3084e3" d="M 50.5,158.5 C 54.1667,158.5 57.8333,158.5 61.5,158.5C 61.0798,160.674 61.0798,162.674 61.5,164.5C 60.4756,165.852 59.4756,167.185 58.5,168.5C 57.5,168.5 56.5,168.5 55.5,168.5C 55.0825,167.778 54.4158,167.278 53.5,167C 54.938,166.781 56.2713,166.281 57.5,165.5C 54.5719,164.516 51.5719,164.183 48.5,164.5C 46.3419,162.78 43.6752,161.947 40.5,162C 44.0378,161.08 47.3712,159.913 50.5,158.5 Z"/></g>
<g><path style="opacity:1" fill="#65686b" d="M 117.5,135.5 C 117.833,135.5 118.167,135.5 118.5,135.5C 118.5,142.5 118.5,149.5 118.5,156.5C 119.822,156.67 120.989,156.337 122,155.5C 124.113,152.519 125.613,149.186 126.5,145.5C 127.325,144.614 128.325,144.281 129.5,144.5C 129.457,147.91 129.957,151.243 131,154.5C 132.186,156.677 134.019,157.677 136.5,157.5C 136.5,155.5 136.5,153.5 136.5,151.5C 137.167,151.833 137.833,152.167 138.5,152.5C 138.663,154.857 138.497,157.19 138,159.5C 137.25,160.126 136.416,160.626 135.5,161C 136.337,162.011 136.67,163.178 136.5,164.5C 132.298,164.183 128.298,164.517 124.5,165.5C 122.5,165.5 120.5,165.5 118.5,165.5C 117.79,160.298 117.124,154.965 116.5,149.5C 117.127,148.583 117.461,147.583 117.5,146.5C 117.5,142.833 117.5,139.167 117.5,135.5 Z"/></g>
<g><path style="opacity:1" fill="#869752" d="M 149.5,162.5 C 146.755,163.084 144.422,164.418 142.5,166.5C 142.124,163.627 142.124,160.627 142.5,157.5C 144.833,157.5 147.167,157.5 149.5,157.5C 149.5,159.167 149.5,160.833 149.5,162.5 Z"/></g>
<g><path style="opacity:1" fill="#283833" d="M 228.5,160.5 C 230.048,160.821 230.715,161.821 230.5,163.5C 229.833,163.5 229.167,163.5 228.5,163.5C 227.375,162.348 227.375,161.348 228.5,160.5 Z"/></g>
<g><path style="opacity:1" fill="#1f2329" d="M 101.5,142.5 C 101.626,150.028 102.293,157.361 103.5,164.5C 103.5,164.833 103.5,165.167 103.5,165.5C 104.833,168.5 104.833,171.5 103.5,174.5C 101.05,174.702 98.717,174.369 96.5,173.5C 96.5,172.833 96.5,172.167 96.5,171.5C 97.8771,163.693 97.2104,156.027 94.5,148.5C 94.5,147.5 94.5,146.5 94.5,145.5C 95.793,146.842 96.6264,148.509 97,150.5C 98.0674,149.809 99.2341,149.309 100.5,149C 99.572,148.612 98.9054,147.945 98.5,147C 99.5515,145.423 100.551,143.923 101.5,142.5 Z"/></g>
<g><path style="opacity:1" fill="#2653ac" d="M 28.5,158.5 C 30.1667,158.5 31.8333,158.5 33.5,158.5C 33.9371,160.074 34.9371,161.241 36.5,162C 35.5,162.333 34.5,162.667 33.5,163C 35.8333,163.333 38.1667,163.667 40.5,164C 39.944,164.383 39.6107,164.883 39.5,165.5C 38.5,165.5 37.5,165.5 36.5,165.5C 36.1667,165.5 35.8333,165.5 35.5,165.5C 32.9455,164.612 30.2788,164.279 27.5,164.5C 27.3253,162.379 27.6586,160.379 28.5,158.5 Z"/></g>
<g><path style="opacity:1" fill="#1b2253" d="M 68.5,157.5 C 69.7997,158.108 71.1331,158.775 72.5,159.5C 74.0564,158.453 75.7231,157.786 77.5,157.5C 77.5,161.167 77.5,164.833 77.5,168.5C 77.5,170.167 77.5,171.833 77.5,173.5C 74.6146,173.806 71.9479,173.473 69.5,172.5C 71.5,172.5 73.5,172.5 75.5,172.5C 75.4208,171.07 75.7542,169.736 76.5,168.5C 73.1763,167.841 71.8429,165.841 72.5,162.5C 71.5,162.5 70.5,162.5 69.5,162.5C 69.6107,161.883 69.944,161.383 70.5,161C 69.1772,160.184 68.5106,159.017 68.5,157.5 Z"/></g>
<g><path style="opacity:1" fill="#5f6e41" d="M 103.5,141.5 C 104.833,141.5 106.167,141.5 107.5,141.5C 108.578,144.402 109.244,147.402 109.5,150.5C 108.167,150.5 106.833,150.5 105.5,150.5C 105.335,153.85 105.502,157.183 106,160.5C 107.699,161.406 109.533,161.739 111.5,161.5C 111.276,157.821 110.942,154.154 110.5,150.5C 111.766,152.895 112.432,155.562 112.5,158.5C 111.979,163.083 111.979,167.75 112.5,172.5C 110.396,172.799 108.396,172.466 106.5,171.5C 106.92,169.674 106.92,167.674 106.5,165.5C 105.5,165.5 104.5,165.5 103.5,165.5C 103.5,165.167 103.5,164.833 103.5,164.5C 103.5,156.833 103.5,149.167 103.5,141.5 Z"/></g>
<g><path style="opacity:1" fill="#8b9b4e" d="M 109.5,150.5 C 109.833,150.5 110.167,150.5 110.5,150.5C 110.942,154.154 111.276,157.821 111.5,161.5C 109.533,161.739 107.699,161.406 106,160.5C 105.502,157.183 105.335,153.85 105.5,150.5C 106.833,150.5 108.167,150.5 109.5,150.5 Z"/></g>
<g><path style="opacity:1" fill="#4f5c45" d="M 107.5,141.5 C 109.047,142.768 110.047,144.435 110.5,146.5C 113.102,152.508 114.435,158.841 114.5,165.5C 114.471,168.269 113.805,170.603 112.5,172.5C 111.979,167.75 111.979,163.083 112.5,158.5C 112.432,155.562 111.766,152.895 110.5,150.5C 110.167,150.5 109.833,150.5 109.5,150.5C 109.244,147.402 108.578,144.402 107.5,141.5 Z"/></g>
<g><path style="opacity:1" fill="#92a151" d="M 158.5,168.5 C 158.5,167.167 158.5,165.833 158.5,164.5C 159.339,163.359 160.006,162.026 160.5,160.5C 161.325,159.614 162.325,159.281 163.5,159.5C 163.452,162.313 162.785,164.979 161.5,167.5C 160.675,168.386 159.675,168.719 158.5,168.5 Z"/></g>
<g><path style="opacity:1" fill="#667463" d="M 81.5,157.5 C 82.1667,157.833 82.8333,158.167 83.5,158.5C 84.6266,159.122 85.6266,159.955 86.5,161C 86.8104,165.776 86.8104,170.609 86.5,175.5C 89.5,175.5 92.5,175.5 95.5,175.5C 92.0381,176.482 88.3714,176.815 84.5,176.5C 84.1443,170.056 83.1443,163.723 81.5,157.5 Z"/></g>
<g><path style="opacity:1" fill="#0a0b17" d="M 176.5,163.5 C 177.833,163.5 179.167,163.5 180.5,163.5C 182.973,163.736 184.64,165.069 185.5,167.5C 183.029,169.071 180.363,170.071 177.5,170.5C 177.5,169.167 177.5,167.833 177.5,166.5C 176.89,165.609 176.557,164.609 176.5,163.5 Z"/></g>
<g><path style="opacity:1" fill="#2f363b" d="M 118.5,165.5 C 120.5,165.5 122.5,165.5 124.5,165.5C 126.344,167.279 127.01,169.612 126.5,172.5C 123.873,171.908 121.206,171.575 118.5,171.5C 118.067,174.285 116.734,176.619 114.5,178.5C 115.993,179.141 116.993,180.141 117.5,181.5C 115.833,181.5 114.167,181.5 112.5,181.5C 112.269,178.215 113.603,175.715 116.5,174C 114.776,170.464 115.443,167.631 118.5,165.5 Z"/></g>
<g><path style="opacity:1" fill="#637244" d="M 173.5,162.5 C 174.391,163.11 175.391,163.443 176.5,163.5C 176.557,164.609 176.89,165.609 177.5,166.5C 175.5,167.167 174.167,168.5 173.5,170.5C 172.143,171.59 171.143,172.924 170.5,174.5C 169.556,171.92 167.889,169.92 165.5,168.5C 163.611,172.608 162.611,176.941 162.5,181.5C 161.5,181.5 160.5,181.5 159.5,181.5C 159.706,177.102 159.373,172.768 158.5,168.5C 159.675,168.719 160.675,168.386 161.5,167.5C 162.785,164.979 163.452,162.313 163.5,159.5C 162.325,159.281 161.325,159.614 160.5,160.5C 160.006,162.026 159.339,163.359 158.5,164.5C 158.5,162.5 158.5,160.5 158.5,158.5C 161.793,157.249 165.126,157.249 168.5,158.5C 169.36,160.931 171.027,162.264 173.5,162.5 Z"/></g>
<g><path style="opacity:1" fill="#060a0a" d="M 23.5,164.5 C 23.8333,164.5 24.1667,164.5 24.5,164.5C 25.1667,164.5 25.8333,164.5 26.5,164.5C 27.7175,165.161 29.0508,165.828 30.5,166.5C 30.1373,167.183 29.8039,167.85 29.5,168.5C 27.7839,168.629 26.1172,168.962 24.5,169.5C 23.8333,169.5 23.1667,169.5 22.5,169.5C 13.4871,168.099 13.4871,166.932 22.5,166C 23.056,165.617 23.3893,165.117 23.5,164.5 Z"/></g>
<g><path style="opacity:1" fill="#060f2f" d="M 26.5,164.5 C 26.8333,164.5 27.1667,164.5 27.5,164.5C 30.2788,164.279 32.9455,164.612 35.5,165.5C 34.216,167.614 32.216,168.614 29.5,168.5C 29.8039,167.85 30.1373,167.183 30.5,166.5C 29.0508,165.828 27.7175,165.161 26.5,164.5 Z"/></g>
<g><path style="opacity:1" fill="#42a8f1" d="M 48.5,164.5 C 51.5719,164.183 54.5719,164.516 57.5,165.5C 56.2713,166.281 54.938,166.781 53.5,167C 54.4158,167.278 55.0825,167.778 55.5,168.5C 54.5,168.833 53.8333,169.5 53.5,170.5C 50.7718,168.88 47.7718,167.88 44.5,167.5C 44.5,167.167 44.5,166.833 44.5,166.5C 45.8333,165.833 47.1667,165.167 48.5,164.5 Z"/></g>
<g><path style="opacity:1" fill="#171a19" d="M 151.5,158.5 C 153.833,158.5 156.167,158.5 158.5,158.5C 158.5,160.5 158.5,162.5 158.5,164.5C 158.5,165.833 158.5,167.167 158.5,168.5C 159.373,172.768 159.706,177.102 159.5,181.5C 156.167,181.5 152.833,181.5 149.5,181.5C 149.416,177.523 149.083,173.523 148.5,169.5C 149.234,168.292 149.567,166.959 149.5,165.5C 148.448,165.649 147.448,165.483 146.5,165C 148.119,164.764 149.119,163.931 149.5,162.5C 151.176,161.817 151.843,160.483 151.5,158.5 Z"/></g>
<g><path style="opacity:1" fill="#abbb95" d="M 226.5,145.5 C 227.473,147.948 227.806,150.615 227.5,153.5C 229.833,153.5 232.167,153.5 234.5,153.5C 234.5,155.167 234.5,156.833 234.5,158.5C 233.5,158.833 232.833,159.5 232.5,160.5C 237.395,161.9 240.562,165.234 242,170.5C 243.518,171.163 244.685,172.163 245.5,173.5C 244.817,175.176 243.483,175.843 241.5,175.5C 241.675,177.621 241.341,179.621 240.5,181.5C 239.833,181.5 239.167,181.5 238.5,181.5C 239.368,175.234 238.035,169.4 234.5,164C 233.207,163.51 231.873,163.343 230.5,163.5C 230.715,161.821 230.048,160.821 228.5,160.5C 228.5,160.167 228.5,159.833 228.5,159.5C 228.918,158.778 229.584,158.278 230.5,158C 227.174,154.567 225.84,150.401 226.5,145.5 Z"/></g>
<g><path style="opacity:1" fill="#a7b654" d="M -0.5,161.5 C 3.27191,163.256 7.27191,164.256 11.5,164.5C 12.0889,166.352 12.7556,168.185 13.5,170C 8.8452,170.499 4.17853,170.666 -0.5,170.5C -0.5,167.5 -0.5,164.5 -0.5,161.5 Z"/></g>
<g><path style="opacity:1" fill="#0a2160" d="M 35.5,165.5 C 35.8333,165.5 36.1667,165.5 36.5,165.5C 36.4142,166.496 36.7476,167.329 37.5,168C 33.2464,169.314 28.913,170.147 24.5,170.5C 24.5,170.167 24.5,169.833 24.5,169.5C 26.1172,168.962 27.7839,168.629 29.5,168.5C 32.216,168.614 34.216,167.614 35.5,165.5 Z"/></g>
<g><path style="opacity:1" fill="#404943" d="M 138.5,152.5 C 139.833,152.5 141.167,152.5 142.5,152.5C 140.616,157.93 139.616,163.597 139.5,169.5C 138.609,168.739 137.942,167.739 137.5,166.5C 134.572,165.516 131.572,165.183 128.5,165.5C 128.5,167.5 128.5,169.5 128.5,171.5C 128.158,172.338 127.492,172.672 126.5,172.5C 127.01,169.612 126.344,167.279 124.5,165.5C 128.298,164.517 132.298,164.183 136.5,164.5C 136.67,163.178 136.337,162.011 135.5,161C 136.416,160.626 137.25,160.126 138,159.5C 138.497,157.19 138.663,154.857 138.5,152.5 Z"/></g>
<g><path style="opacity:1" fill="#92acdb" d="M 227.5,163.5 C 227.833,163.5 228.167,163.5 228.5,163.5C 229.167,163.5 229.833,163.5 230.5,163.5C 230.944,165.113 231.944,166.28 233.5,167C 232.009,169.022 232.342,170.688 234.5,172C 233.941,172.725 233.608,173.558 233.5,174.5C 234.467,176.762 235.134,179.095 235.5,181.5C 234.5,181.5 233.5,181.5 232.5,181.5C 230.519,177.315 228.853,172.981 227.5,168.5C 228.535,166.872 228.535,165.205 227.5,163.5 Z"/></g>
<g><path style="opacity:1" fill="#384321" d="M 14.5,163.5 C 17.2372,163.401 19.9039,163.735 22.5,164.5C 22.8333,164.5 23.1667,164.5 23.5,164.5C 23.3893,165.117 23.056,165.617 22.5,166C 13.4871,166.932 13.4871,168.099 22.5,169.5C 22.5,170.167 22.1667,170.5 21.5,170.5C 20.8333,170.5 20.1667,170.5 19.5,170.5C 18.0813,169.549 16.4147,169.216 14.5,169.5C 14.634,167.708 14.3007,166.042 13.5,164.5C 14.1667,164.5 14.5,164.167 14.5,163.5 Z"/></g>
<g><path style="opacity:1" fill="#091231" d="M 67.5,162.5 C 68.1667,162.5 68.8333,162.5 69.5,162.5C 70.5,162.5 71.5,162.5 72.5,162.5C 71.8429,165.841 73.1763,167.841 76.5,168.5C 75.7542,169.736 75.4208,171.07 75.5,172.5C 73.5,172.5 71.5,172.5 69.5,172.5C 66.5739,171.539 63.5739,170.873 60.5,170.5C 58.5,170.5 56.5,170.5 54.5,170.5C 54.1667,170.5 53.8333,170.5 53.5,170.5C 53.8333,169.5 54.5,168.833 55.5,168.5C 56.5,168.5 57.5,168.5 58.5,168.5C 61.1873,168.664 63.854,168.497 66.5,168C 64.9221,165.661 65.2554,163.828 67.5,162.5 Z"/></g>
<g><path style="opacity:1" fill="#377dcf" d="M 44.5,166.5 C 44.5,166.833 44.5,167.167 44.5,167.5C 42.3146,167.704 40.3146,168.37 38.5,169.5C 34.5714,170.785 30.5714,172.118 26.5,173.5C 25.8333,173.167 25.1667,172.833 24.5,172.5C 23.4502,171.571 23.4502,170.905 24.5,170.5C 28.913,170.147 33.2464,169.314 37.5,168C 36.7476,167.329 36.4142,166.496 36.5,165.5C 37.5,165.5 38.5,165.5 39.5,165.5C 41.0936,165.08 42.5936,164.414 44,163.5C 44.5,163.667 45,163.833 45.5,164C 44.6721,164.915 43.6721,165.581 42.5,166C 43.0944,166.464 43.7611,166.631 44.5,166.5 Z"/></g>
<g><path style="opacity:1" fill="#61cbfb" d="M 44.5,167.5 C 47.7718,167.88 50.7718,168.88 53.5,170.5C 51.0849,171.814 48.2515,172.481 45,172.5C 42.1667,172.333 39.3333,172.167 36.5,172C 37.3805,171.292 38.0472,170.458 38.5,169.5C 40.3146,168.37 42.3146,167.704 44.5,167.5 Z"/></g>
<g><path style="opacity:1" fill="#68c0f9" d="M 228.5,181.5 C 217.167,181.5 205.833,181.5 194.5,181.5C 194.833,180.167 195.167,178.833 195.5,177.5C 196.399,174.705 198.399,173.372 201.5,173.5C 203.905,174.738 206.405,175.738 209,176.5C 209.833,176.167 210.667,175.833 211.5,175.5C 210.5,174.667 209.5,173.833 208.5,173C 210.8,172.342 213.133,171.842 215.5,171.5C 218.684,173.257 222.018,174.757 225.5,176C 223.968,176.7 222.968,177.866 222.5,179.5C 224.631,180.169 226.631,180.835 228.5,181.5 Z"/></g>
<g><path style="opacity:1" fill="#9db0c0" d="M 230.5,163.5 C 231.873,163.343 233.207,163.51 234.5,164C 238.035,169.4 239.368,175.234 238.5,181.5C 237.5,181.5 236.5,181.5 235.5,181.5C 235.134,179.095 234.467,176.762 233.5,174.5C 233.608,173.558 233.941,172.725 234.5,172C 232.342,170.688 232.009,169.022 233.5,167C 231.944,166.28 230.944,165.113 230.5,163.5 Z"/></g>
<g><path style="opacity:1" fill="#728255" d="M 94.5,148.5 C 95.0051,156.185 95.6718,163.851 96.5,171.5C 95.5655,172.568 95.2322,173.901 95.5,175.5C 92.5,175.5 89.5,175.5 86.5,175.5C 86.8104,170.609 86.8104,165.776 86.5,161C 85.6266,159.955 84.6266,159.122 83.5,158.5C 83.0805,156.906 82.4138,155.406 81.5,154C 84.1746,150.466 84.8413,146.633 83.5,142.5C 84.7582,139.5 86.7582,138.5 89.5,139.5C 91.315,142.552 92.9817,145.552 94.5,148.5 Z"/></g>
<g><path style="opacity:1" fill="#585b63" d="M 126.5,172.5 C 127.492,172.672 128.158,172.338 128.5,171.5C 131.167,171.5 133.833,171.5 136.5,171.5C 136.46,174.881 136.793,178.214 137.5,181.5C 136.5,181.5 135.5,181.5 134.5,181.5C 134.846,179.662 134.846,177.662 134.5,175.5C 129.98,173.886 125.314,173.22 120.5,173.5C 120.425,176.206 120.092,178.873 119.5,181.5C 118.833,181.5 118.167,181.5 117.5,181.5C 116.993,180.141 115.993,179.141 114.5,178.5C 116.734,176.619 118.067,174.285 118.5,171.5C 121.206,171.575 123.873,171.908 126.5,172.5 Z"/></g>
<g><path style="opacity:1" fill="#32393e" d="M 139.5,169.5 C 141.256,170.552 141.923,172.219 141.5,174.5C 141.5,176.833 141.5,179.167 141.5,181.5C 140.167,181.5 138.833,181.5 137.5,181.5C 136.793,178.214 136.46,174.881 136.5,171.5C 133.833,171.5 131.167,171.5 128.5,171.5C 128.5,169.5 128.5,167.5 128.5,165.5C 131.572,165.183 134.572,165.516 137.5,166.5C 137.942,167.739 138.609,168.739 139.5,169.5 Z"/></g>
<g><path style="opacity:1" fill="#363770" d="M 177.5,166.5 C 177.5,167.833 177.5,169.167 177.5,170.5C 177.218,171.778 176.551,172.778 175.5,173.5C 175.5,175.167 175.5,176.833 175.5,178.5C 176.833,178.5 178.167,178.5 179.5,178.5C 179.443,179.609 179.11,180.609 178.5,181.5C 176.5,181.5 174.5,181.5 172.5,181.5C 172.323,177.766 172.656,174.099 173.5,170.5C 174.167,168.5 175.5,167.167 177.5,166.5 Z"/></g>
<g><path style="opacity:1" fill="#69adf2" d="M 218.5,162.5 C 221.57,162.368 224.57,162.701 227.5,163.5C 228.535,165.205 228.535,166.872 227.5,168.5C 228.853,172.981 230.519,177.315 232.5,181.5C 231.167,181.5 229.833,181.5 228.5,181.5C 226.631,180.835 224.631,180.169 222.5,179.5C 222.968,177.866 223.968,176.7 225.5,176C 222.018,174.757 218.684,173.257 215.5,171.5C 213.133,171.842 210.8,172.342 208.5,173C 209.5,173.833 210.5,174.667 211.5,175.5C 210.667,175.833 209.833,176.167 209,176.5C 206.405,175.738 203.905,174.738 201.5,173.5C 198.399,173.372 196.399,174.705 195.5,177.5C 195.5,176.833 195.5,176.167 195.5,175.5C 195.712,173.616 196.712,172.283 198.5,171.5C 197.423,168.526 197.423,165.526 198.5,162.5C 205.167,162.5 211.833,162.5 218.5,162.5 Z"/></g>
<g><path style="opacity:1" fill="#3b413c" d="M 110.5,146.5 C 112.792,147.686 115.126,147.686 117.5,146.5C 117.461,147.583 117.127,148.583 116.5,149.5C 117.124,154.965 117.79,160.298 118.5,165.5C 115.443,167.631 114.776,170.464 116.5,174C 113.603,175.715 112.269,178.215 112.5,181.5C 107.167,181.5 101.833,181.5 96.5,181.5C 96.0312,179.005 96.0312,176.339 96.5,173.5C 98.717,174.369 101.05,174.702 103.5,174.5C 104.833,171.5 104.833,168.5 103.5,165.5C 104.5,165.5 105.5,165.5 106.5,165.5C 106.92,167.674 106.92,169.674 106.5,171.5C 108.396,172.466 110.396,172.799 112.5,172.5C 113.805,170.603 114.471,168.269 114.5,165.5C 114.435,158.841 113.102,152.508 110.5,146.5 Z"/></g>
<g><path style="opacity:1" fill="#98a859" d="M 170.5,174.5 C 168.641,176.626 166.975,178.959 165.5,181.5C 164.5,181.5 163.5,181.5 162.5,181.5C 162.611,176.941 163.611,172.608 165.5,168.5C 167.889,169.92 169.556,171.92 170.5,174.5 Z"/></g>
<g><path style="opacity:0.979" fill="#90a061" d="M 11.5,164.5 C 12.1667,164.5 12.8333,164.5 13.5,164.5C 14.3007,166.042 14.634,167.708 14.5,169.5C 16.4147,169.216 18.0813,169.549 19.5,170.5C 13.9754,171.598 8.64205,173.265 3.5,175.5C 7.16667,176.167 10.8333,176.833 14.5,177.5C 15.8069,178.865 15.8069,180.198 14.5,181.5C 11.5,181.5 8.5,181.5 5.5,181.5C 3.52483,179.863 1.52483,178.196 -0.5,176.5C -0.5,174.5 -0.5,172.5 -0.5,170.5C 4.17853,170.666 8.8452,170.499 13.5,170C 12.7556,168.185 12.0889,166.352 11.5,164.5 Z"/></g>
<g><path style="opacity:1" fill="#96a68f" d="M 19.5,170.5 C 20.1667,170.5 20.8333,170.5 21.5,170.5C 21.5,170.833 21.5,171.167 21.5,171.5C 20.1147,172.614 18.6147,173.614 17,174.5C 17.0643,176.956 16.8977,179.289 16.5,181.5C 15.8333,181.5 15.1667,181.5 14.5,181.5C 15.8069,180.198 15.8069,178.865 14.5,177.5C 10.8333,176.833 7.16667,176.167 3.5,175.5C 8.64205,173.265 13.9754,171.598 19.5,170.5 Z"/></g>
<g><path style="opacity:1" fill="#4154bd" d="M 60.5,171.5 C 64.7316,173.113 69.0649,174.446 73.5,175.5C 71.585,177.071 70.585,179.071 70.5,181.5C 67.5,181.5 64.5,181.5 61.5,181.5C 61.3573,179.738 61.6906,178.071 62.5,176.5C 61.8256,174.805 61.1589,173.138 60.5,171.5 Z"/></g>
<g><path style="opacity:1" fill="#404975" d="M 78.5,155.5 C 78.8333,155.5 79.1667,155.5 79.5,155.5C 79.5,156.167 79.5,156.833 79.5,157.5C 81.4764,165.384 82.8097,173.384 83.5,181.5C 82.8333,181.5 82.1667,181.5 81.5,181.5C 81.2311,176.736 79.8978,172.403 77.5,168.5C 77.5,164.833 77.5,161.167 77.5,157.5C 78.3382,157.158 78.6716,156.492 78.5,155.5 Z"/></g>
<g><path style="opacity:1" fill="#90a4ad" d="M 21.5,171.5 C 22.0431,171.56 22.3764,171.893 22.5,172.5C 21.0171,175.428 19.6838,178.428 18.5,181.5C 17.8333,181.5 17.1667,181.5 16.5,181.5C 16.8977,179.289 17.0643,176.956 17,174.5C 18.6147,173.614 20.1147,172.614 21.5,171.5 Z"/></g>
<g><path style="opacity:1" fill="#70b2f0" d="M 22.5,169.5 C 23.1667,169.5 23.8333,169.5 24.5,169.5C 24.5,169.833 24.5,170.167 24.5,170.5C 23.4502,170.905 23.4502,171.571 24.5,172.5C 25.1667,172.833 25.8333,173.167 26.5,173.5C 30.5714,172.118 34.5714,170.785 38.5,169.5C 38.0472,170.458 37.3805,171.292 36.5,172C 39.3333,172.167 42.1667,172.333 45,172.5C 48.2515,172.481 51.0849,171.814 53.5,170.5C 53.8333,170.5 54.1667,170.5 54.5,170.5C 55.5676,171.434 56.901,171.768 58.5,171.5C 58.5,172.833 58.5,174.167 58.5,175.5C 57.1266,175.343 55.7932,175.51 54.5,176C 52.5817,177.657 50.915,179.49 49.5,181.5C 39.1667,181.5 28.8333,181.5 18.5,181.5C 19.6838,178.428 21.0171,175.428 22.5,172.5C 22.3764,171.893 22.0431,171.56 21.5,171.5C 21.5,171.167 21.5,170.833 21.5,170.5C 22.1667,170.5 22.5,170.167 22.5,169.5 Z"/></g>
<g><path style="opacity:1" fill="#5f95ea" d="M 54.5,170.5 C 56.5,170.5 58.5,170.5 60.5,170.5C 60.5,170.833 60.5,171.167 60.5,171.5C 61.1589,173.138 61.8256,174.805 62.5,176.5C 61.6906,178.071 61.3573,179.738 61.5,181.5C 57.5,181.5 53.5,181.5 49.5,181.5C 50.915,179.49 52.5817,177.657 54.5,176C 55.7932,175.51 57.1266,175.343 58.5,175.5C 58.5,174.167 58.5,172.833 58.5,171.5C 56.901,171.768 55.5676,171.434 54.5,170.5 Z"/></g>
<g><path style="opacity:1" fill="#282c74" d="M 77.5,168.5 C 79.8978,172.403 81.2311,176.736 81.5,181.5C 77.8333,181.5 74.1667,181.5 70.5,181.5C 70.585,179.071 71.585,177.071 73.5,175.5C 69.0649,174.446 64.7316,173.113 60.5,171.5C 60.5,171.167 60.5,170.833 60.5,170.5C 63.5739,170.873 66.5739,171.539 69.5,172.5C 71.9479,173.473 74.6146,173.806 77.5,173.5C 77.5,171.833 77.5,170.167 77.5,168.5 Z"/></g>
<g><path style="opacity:1" fill="#69775d" d="M 170.5,174.5 C 170.552,176.903 170.219,179.236 169.5,181.5C 168.167,181.5 166.833,181.5 165.5,181.5C 166.975,178.959 168.641,176.626 170.5,174.5 Z"/></g>
<g><path style="opacity:1" fill="#040415" d="M 175.5,173.5 C 178.167,173.5 180.833,173.5 183.5,173.5C 186.123,175.265 189.123,175.932 192.5,175.5C 192.5,176.5 192.5,177.5 192.5,178.5C 190.535,179.129 188.535,179.796 186.5,180.5C 184.159,179.818 181.826,179.151 179.5,178.5C 178.167,178.5 176.833,178.5 175.5,178.5C 175.5,176.833 175.5,175.167 175.5,173.5 Z"/></g>
<g><path style="opacity:0.565" fill="#93a453" d="M 255.5,166.5 C 255.5,169.5 255.5,172.5 255.5,175.5C 253.863,177.475 252.196,179.475 250.5,181.5C 247.167,181.5 243.833,181.5 240.5,181.5C 241.341,179.621 241.675,177.621 241.5,175.5C 243.483,175.843 244.817,175.176 245.5,173.5C 248.187,173.664 250.854,173.497 253.5,173C 251.833,172.667 250.167,172.333 248.5,172C 250.117,169.212 252.451,167.378 255.5,166.5 Z"/></g>
<g><path style="opacity:1" fill="#596063" d="M 79.5,157.5 C 80.1667,157.5 80.8333,157.5 81.5,157.5C 83.1443,163.723 84.1443,170.056 84.5,176.5C 88.3714,176.815 92.0381,176.482 95.5,175.5C 95.2322,173.901 95.5655,172.568 96.5,171.5C 96.5,172.167 96.5,172.833 96.5,173.5C 96.0312,176.339 96.0312,179.005 96.5,181.5C 92.1667,181.5 87.8333,181.5 83.5,181.5C 82.8097,173.384 81.4764,165.384 79.5,157.5 Z"/></g>
<g><path style="opacity:1" fill="#8b8b92" d="M 134.5,181.5 C 129.5,181.5 124.5,181.5 119.5,181.5C 120.092,178.873 120.425,176.206 120.5,173.5C 125.314,173.22 129.98,173.886 134.5,175.5C 134.846,177.662 134.846,179.662 134.5,181.5 Z"/></g>
<g><path style="opacity:1" fill="#3c4635" d="M 148.5,169.5 C 149.083,173.523 149.416,177.523 149.5,181.5C 146.833,181.5 144.167,181.5 141.5,181.5C 141.5,179.167 141.5,176.833 141.5,174.5C 143.5,174.5 145.5,174.5 147.5,174.5C 147.5,173.5 147.5,172.5 147.5,171.5C 145.712,171.785 144.045,171.452 142.5,170.5C 144.396,169.534 146.396,169.201 148.5,169.5 Z"/></g>
<g><path style="opacity:1" fill="#49565a" d="M 173.5,170.5 C 172.656,174.099 172.323,177.766 172.5,181.5C 171.5,181.5 170.5,181.5 169.5,181.5C 170.219,179.236 170.552,176.903 170.5,174.5C 171.143,172.924 172.143,171.59 173.5,170.5 Z"/></g>
<g><path style="opacity:1" fill="#091131" d="M 192.5,175.5 C 193.808,177.638 193.475,179.638 191.5,181.5C 187.167,181.5 182.833,181.5 178.5,181.5C 179.11,180.609 179.443,179.609 179.5,178.5C 181.826,179.151 184.159,179.818 186.5,180.5C 188.535,179.796 190.535,179.129 192.5,178.5C 192.5,177.5 192.5,176.5 192.5,175.5 Z"/></g>
</svg>
