<?xml version="1.0" encoding="UTF-8"?>
<!DOCTYPE svg PUBLIC "-//W3C//DTD SVG 1.1//EN" "http://www.w3.org/Graphics/SVG/1.1/DTD/svg11.dtd">
<svg xmlns="http://www.w3.org/2000/svg" version="1.1" width="256px" height="182px" style="shape-rendering:geometricPrecision; text-rendering:geometricPrecision; image-rendering:optimizeQuality; fill-rule:evenodd; clip-rule:evenodd" xmlns:xlink="http://www.w3.org/1999/xlink">
<g><path style="opacity:1" fill="#1b2a2b" d="M 29.5,-0.5 C 33.1667,-0.5 36.8333,-0.5 40.5,-0.5C 41.5311,9.34104 42.8644,19.0077 44.5,28.5C 44.5,28.8333 44.5,29.1667 44.5,29.5C 41.8665,32.1819 39.5331,32.0153 37.5,29C 35.6285,21.3364 33.1285,13.8364 30,6.5C 29.5034,4.19018 29.3367,1.85684 29.5,-0.5 Z"/></g>
<g><path style="opacity:1" fill="#08090a" d="M 62.5,-0.5 C 67.5,-0.5 72.5,-0.5 77.5,-0.5C 77.5,4.16667 77.5,8.83333 77.5,13.5C 77.5,17.1667 77.5,20.8333 77.5,24.5C 74.7952,24.3802 74.1285,25.3802 75.5,27.5C 74.7573,28.1818 74.0906,28.8485 73.5,29.5C 64.3811,31.7618 55.3811,34.4285 46.5,37.5C 44.631,35.3647 43.9644,32.6981 44.5,29.5C 44.5,29.1667 44.5,28.8333 44.5,28.5C 50.7615,18.9731 56.7615,9.30643 62.5,-0.5 Z"/></g>
<g><path style="opacity:1" fill="#1b1c20" d="M 78.5,-0.5 C 87.5,-0.5 96.5,-0.5 105.5,-0.5C 105.5,12.5 105.5,25.5 105.5,38.5C 105.167,38.5 104.833,38.5 104.5,38.5C 96.6976,35.431 89.0309,32.0977 81.5,28.5C 80.7189,27.2713 80.2189,25.938 80,24.5C 79.389,16.1691 78.889,7.83574 78.5,-0.5 Z"/></g>
<g><path style="opacity:1" fill="#070b0c" d="M 105.5,-0.5 C 106.167,-0.5 106.833,-0.5 107.5,-0.5C 108.006,11.5026 108.673,23.5026 109.5,35.5C 110.183,35.1373 110.85,34.8039 111.5,34.5C 115.397,33.0901 119.397,32.0901 123.5,31.5C 123.5,20.8333 123.5,10.1667 123.5,-0.5C 127.833,-0.5 132.167,-0.5 136.5,-0.5C 136.5,9.16667 136.5,18.8333 136.5,28.5C 136.5,28.8333 136.5,29.1667 136.5,29.5C 125.98,31.8961 115.647,34.8961 105.5,38.5C 105.5,25.5 105.5,12.5 105.5,-0.5 Z"/></g>
<g><path style="opacity:1" fill="#1e1d20" d="M 138.5,-0.5 C 148.5,-0.5 158.5,-0.5 168.5,-0.5C 168.5,12.5107 168.166,25.5107 167.5,38.5C 166.5,38.5 165.5,38.5 164.5,38.5C 157.315,36.2178 150.315,33.5511 143.5,30.5C 142.656,28.2407 140.989,27.2407 138.5,27.5C 138.5,18.1667 138.5,8.83333 138.5,-0.5 Z"/></g>
<g><path style="opacity:1" fill="#201f22" d="M 198.5,-0.5 C 210.5,-0.5 222.5,-0.5 234.5,-0.5C 233.115,10.9787 231.782,22.4787 230.5,34C 230.547,36.2953 231.213,38.1286 232.5,39.5C 231.432,40.4345 230.099,40.7678 228.5,40.5C 220.041,37.6819 211.708,34.6819 203.5,31.5C 204.014,29.3016 205.014,27.3016 206.5,25.5C 203.966,24.2234 201.466,24.2234 199,25.5C 198.501,20.8452 198.334,16.1785 198.5,11.5C 198.5,7.5 198.5,3.5 198.5,-0.5 Z"/></g>
<g><path style="opacity:0.992" fill="#0b3a43" d="M 242.5,-0.5 C 244.833,-0.5 247.167,-0.5 249.5,-0.5C 250.694,0.271873 251.694,1.27187 252.5,2.5C 251.39,11.9394 249.723,21.2727 247.5,30.5C 244.573,31.801 241.573,32.801 238.5,33.5C 239.833,22.1667 241.167,10.8333 242.5,-0.5 Z"/></g>
<g><path style="opacity:1" fill="#0d4d55" d="M 107.5,-0.5 C 112.5,-0.5 117.5,-0.5 122.5,-0.5C 121.685,8.99586 120.851,18.3292 120,27.5C 119.667,26.8333 119.333,26.1667 119,25.5C 118.325,29.8981 115.825,31.8981 111.5,31.5C 111.5,32.5 111.5,33.5 111.5,34.5C 110.85,34.8039 110.183,35.1373 109.5,35.5C 108.673,23.5026 108.006,11.5026 107.5,-0.5 Z"/></g>
<g><path style="opacity:1" fill="#06090b" d="M 234.5,-0.5 C 237.167,-0.5 239.833,-0.5 242.5,-0.5C 241.167,10.8333 239.833,22.1667 238.5,33.5C 241.573,32.801 244.573,31.801 247.5,30.5C 249.723,21.2727 251.39,11.9394 252.5,2.5C 253.5,3.16667 254.5,3.83333 255.5,4.5C 255.5,11.5 255.5,18.5 255.5,25.5C 254.776,27.2184 254.109,29.0517 253.5,31C 246.625,34.1254 239.625,36.9587 232.5,39.5C 231.213,38.1286 230.547,36.2953 230.5,34C 231.782,22.4787 233.115,10.9787 234.5,-0.5 Z"/></g>
<g><path style="opacity:1" fill="#0e3a39" d="M 4.5,-0.5 C 6.83333,-0.5 9.16667,-0.5 11.5,-0.5C 9.85082,5.53163 9.01749,11.5316 9,17.5C 7.40746,21.8873 4.24079,24.2207 -0.5,24.5C -0.5,18.1667 -0.5,11.8333 -0.5,5.5C 1.13696,3.52483 2.80363,1.52483 4.5,-0.5 Z"/></g>
<g><path style="opacity:1" fill="#0b0708" d="M 168.5,-0.5 C 170.167,-0.5 171.833,-0.5 173.5,-0.5C 172.639,11.1436 172.305,22.8103 172.5,34.5C 176.615,33.9051 180.615,32.9051 184.5,31.5C 185.15,20.8456 185.484,10.179 185.5,-0.5C 189.5,-0.5 193.5,-0.5 197.5,-0.5C 196.421,7.79778 195.755,16.1311 195.5,24.5C 194.539,26.2646 194.205,28.2646 194.5,30.5C 185.593,33.581 176.593,36.2476 167.5,38.5C 168.166,25.5107 168.5,12.5107 168.5,-0.5 Z"/></g>
<g><path style="opacity:1" fill="#4b0c0d" d="M 173.5,-0.5 C 177.5,-0.5 181.5,-0.5 185.5,-0.5C 185.484,10.179 185.15,20.8456 184.5,31.5C 180.615,32.9051 176.615,33.9051 172.5,34.5C 172.305,22.8103 172.639,11.1436 173.5,-0.5 Z"/></g>
<g><path style="opacity:1" fill="#14605e" d="M 40.5,-0.5 C 47.8333,-0.5 55.1667,-0.5 62.5,-0.5C 56.7615,9.30643 50.7615,18.9731 44.5,28.5C 42.8644,19.0077 41.5311,9.34104 40.5,-0.5 Z"/></g>
<g><path style="opacity:1" fill="#582a2b" d="M 136.5,-0.5 C 137.167,-0.5 137.833,-0.5 138.5,-0.5C 138.5,8.83333 138.5,18.1667 138.5,27.5C 140.989,27.2407 142.656,28.2407 143.5,30.5C 141.442,29.0669 139.108,28.4003 136.5,28.5C 136.5,18.8333 136.5,9.16667 136.5,-0.5 Z"/></g>
<g><path style="opacity:1" fill="#112929" d="M 11.5,-0.5 C 13.8333,-0.5 16.1667,-0.5 18.5,-0.5C 19.0422,6.33898 19.7089,13.1723 20.5,20C 20.3157,22.865 19.9823,25.6984 19.5,28.5C 12.8502,29.9633 6.18349,31.2966 -0.5,32.5C -0.5,29.8333 -0.5,27.1667 -0.5,24.5C 4.24079,24.2207 7.40746,21.8873 9,17.5C 9.01749,11.5316 9.85082,5.53163 11.5,-0.5 Z"/></g>
<g><path style="opacity:1" fill="#0d4049" d="M 122.5,-0.5 C 122.833,-0.5 123.167,-0.5 123.5,-0.5C 123.5,10.1667 123.5,20.8333 123.5,31.5C 119.397,32.0901 115.397,33.0901 111.5,34.5C 111.5,33.5 111.5,32.5 111.5,31.5C 115.825,31.8981 118.325,29.8981 119,25.5C 119.333,26.1667 119.667,26.8333 120,27.5C 120.851,18.3292 121.685,8.99586 122.5,-0.5 Z"/></g>
<g><path style="opacity:1" fill="#192123" d="M 19.5,-0.5 C 22.8333,-0.5 26.1667,-0.5 29.5,-0.5C 29.3367,1.85684 29.5034,4.19018 30,6.5C 33.1285,13.8364 35.6285,21.3364 37.5,29C 39.5331,32.0153 41.8665,32.1819 44.5,29.5C 43.9644,32.6981 44.631,35.3647 46.5,37.5C 46.5,37.8333 46.5,38.1667 46.5,38.5C 42.2769,37.3891 38.2769,35.7224 34.5,33.5C 30.767,31.7969 27.1003,29.7969 23.5,27.5C 22.0357,18.1799 20.7023,8.84658 19.5,-0.5 Z"/></g>
<g><path style="opacity:1" fill="#260c0b" d="M 77.5,13.5 C 78.1638,15.8097 78.4971,18.3097 78.5,21C 78.3885,24.1051 77.7219,26.9384 76.5,29.5C 75.5,29.5 74.5,29.5 73.5,29.5C 74.0906,28.8485 74.7573,28.1818 75.5,27.5C 74.1285,25.3802 74.7952,24.3802 77.5,24.5C 77.5,20.8333 77.5,17.1667 77.5,13.5 Z"/></g>
<g><path style="opacity:1" fill="#2b1618" d="M 198.5,11.5 C 198.334,16.1785 198.501,20.8452 199,25.5C 201.466,24.2234 203.966,24.2234 206.5,25.5C 205.014,27.3016 204.014,29.3016 203.5,31.5C 201.284,30.7974 199.451,29.4641 198,27.5C 197.183,21.9836 197.349,16.6503 198.5,11.5 Z"/></g>
<g><path style="opacity:1" fill="#5d4748" d="M 18.5,-0.5 C 18.8333,-0.5 19.1667,-0.5 19.5,-0.5C 20.7023,8.84658 22.0357,18.1799 23.5,27.5C 27.1003,29.7969 30.767,31.7969 34.5,33.5C 33.8333,33.5 33.5,33.8333 33.5,34.5C 29.6147,32.6403 25.7814,30.6403 22,28.5C 14.6612,31.0433 7.16124,33.0433 -0.5,34.5C -0.5,33.8333 -0.5,33.1667 -0.5,32.5C 6.18349,31.2966 12.8502,29.9633 19.5,28.5C 19.9823,25.6984 20.3157,22.865 20.5,20C 19.7089,13.1723 19.0422,6.33898 18.5,-0.5 Z"/></g>
<g><path style="opacity:1" fill="#602d2f" d="M 73.5,29.5 C 74.5,29.5 75.5,29.5 76.5,29.5C 66.6805,33.1277 56.6805,36.4611 46.5,39.5C 46.5,39.1667 46.5,38.8333 46.5,38.5C 46.5,38.1667 46.5,37.8333 46.5,37.5C 55.3811,34.4285 64.3811,31.7618 73.5,29.5 Z"/></g>
<g><path style="opacity:1" fill="#0b1515" d="M 33.5,34.5 C 35.8754,35.9017 38.2088,37.235 40.5,38.5C 40.1667,38.5 39.8333,38.5 39.5,38.5C 36.2375,37.3603 33.0708,37.6936 30,39.5C 29,38.8333 28,38.1667 27,37.5C 18.5531,38.5236 10.0531,39.5236 1.5,40.5C 1.14451,41.5223 0.477842,42.189 -0.5,42.5C -0.5,39.8333 -0.5,37.1667 -0.5,34.5C 7.16124,33.0433 14.6612,31.0433 22,28.5C 25.7814,30.6403 29.6147,32.6403 33.5,34.5 Z"/></g>
<g><path style="opacity:1" fill="#3b191a" d="M 255.5,25.5 C 255.5,27.8333 255.5,30.1667 255.5,32.5C 247.238,34.69 239.572,38.0233 232.5,42.5C 231.833,42.8333 231.167,43.1667 230.5,43.5C 230.218,42.2223 229.551,41.2223 228.5,40.5C 230.099,40.7678 231.432,40.4345 232.5,39.5C 239.625,36.9587 246.625,34.1254 253.5,31C 254.109,29.0517 254.776,27.2184 255.5,25.5 Z"/></g>
<g><path style="opacity:1" fill="#5e2426" d="M 197.5,-0.5 C 197.833,-0.5 198.167,-0.5 198.5,-0.5C 198.5,3.5 198.5,7.5 198.5,11.5C 197.349,16.6503 197.183,21.9836 198,27.5C 199.451,29.4641 201.284,30.7974 203.5,31.5C 211.708,34.6819 220.041,37.6819 228.5,40.5C 229.551,41.2223 230.218,42.2223 230.5,43.5C 230.784,49.4173 230.117,55.084 228.5,60.5C 229.293,55.3273 229.293,50.3273 228.5,45.5C 228.67,44.1779 228.337,43.0113 227.5,42C 217.311,38.7718 207.311,35.2718 197.5,31.5C 195.852,29.5441 195.185,27.2108 195.5,24.5C 195.755,16.1311 196.421,7.79778 197.5,-0.5 Z"/></g>
<g><path style="opacity:1" fill="#6f2c2f" d="M 136.5,29.5 C 136.5,29.1667 136.5,28.8333 136.5,28.5C 139.108,28.4003 141.442,29.0669 143.5,30.5C 150.315,33.5511 157.315,36.2178 164.5,38.5C 167.171,40.3473 168.171,43.014 167.5,46.5C 167.334,56.8387 167.5,67.172 168,77.5C 168.513,78.5266 169.013,79.5266 169.5,80.5C 168.504,80.5858 167.671,80.2524 167,79.5C 166.829,71.9885 166.329,64.6552 165.5,57.5C 165.5,51.8333 165.5,46.1667 165.5,40.5C 155.996,37.7756 146.663,34.4422 137.5,30.5C 137.5,29.8333 137.167,29.5 136.5,29.5 Z"/></g>
<g><path style="opacity:1" fill="#08080d" d="M 89.5,34.5 C 94.1452,36.4877 98.8119,38.4877 103.5,40.5C 104.2,47.5548 104.867,54.5548 105.5,61.5C 101.176,61.0728 96.8422,60.7395 92.5,60.5C 92.5,58.1667 92.5,55.8333 92.5,53.5C 90.5,53.5 88.5,53.5 86.5,53.5C 86.2627,54.791 86.596,55.791 87.5,56.5C 87.5,57.5 87.5,58.5 87.5,59.5C 86.1667,59.5 84.8333,59.5 83.5,59.5C 82.7814,56.9275 81.7814,54.4275 80.5,52C 80.7284,51.6012 81.0618,51.4346 81.5,51.5C 83.8418,51.2252 83.8418,50.3919 81.5,49C 86.6247,47.1836 91.6247,45.1836 96.5,43C 95.376,42.7508 94.376,42.2508 93.5,41.5C 94.2624,41.0894 95.2624,40.9227 96.5,41C 94.4465,39.9197 92.2798,39.0864 90,38.5C 89.6667,38.8333 89.3333,39.1667 89,39.5C 88.6905,38.2341 88.1905,37.0674 87.5,36C 88.4158,35.7216 89.0825,35.2216 89.5,34.5 Z"/></g>
<g><path style="opacity:1" fill="#0b0809" d="M 197.5,31.5 C 207.311,35.2718 217.311,38.7718 227.5,42C 228.337,43.0113 228.67,44.1779 228.5,45.5C 226.592,57.0952 225.259,68.7619 224.5,80.5C 222.703,81.7298 220.703,82.3964 218.5,82.5C 218.972,70.4461 219.972,58.4461 221.5,46.5C 217.077,46.3621 213.244,47.6954 210,50.5C 208.559,62.796 207.725,75.1293 207.5,87.5C 207.5,88.1667 207.167,88.5 206.5,88.5C 206.299,80.0667 205.966,71.7333 205.5,63.5C 206.81,58.7914 207.81,54.2914 208.5,50C 206.285,49.3097 204.118,48.4764 202,47.5C 200.893,47.5852 199.893,47.9186 199,48.5C 197.039,46.5261 194.705,45.1928 192,44.5C 191.055,44.9054 190.388,45.572 190,46.5C 189.347,44.4356 188.18,42.7689 186.5,41.5C 190.968,37.4689 195.968,35.4689 201.5,35.5C 200.148,34.1038 198.481,33.4371 196.5,33.5C 192.523,35.2153 188.689,37.2153 185,39.5C 184.05,38.9777 183.216,38.311 182.5,37.5C 181.12,39.6655 179.453,39.9988 177.5,38.5C 183.699,35.0783 190.366,32.7449 197.5,31.5 Z"/></g>
<g><path style="opacity:1" fill="#714344" d="M 33.5,34.5 C 33.5,33.8333 33.8333,33.5 34.5,33.5C 38.2769,35.7224 42.2769,37.3891 46.5,38.5C 46.5,38.8333 46.5,39.1667 46.5,39.5C 46.5,39.8333 46.5,40.1667 46.5,40.5C 46.5,43.8333 46.5,47.1667 46.5,50.5C 45.5318,52.6074 45.1984,54.9407 45.5,57.5C 44.5104,51.69 44.1771,45.69 44.5,39.5C 43.0413,39.5674 41.7079,39.2341 40.5,38.5C 38.2088,37.235 35.8754,35.9017 33.5,34.5 Z"/></g>
<g><path style="opacity:1" fill="#090a0c" d="M 137.5,30.5 C 146.663,34.4422 155.996,37.7756 165.5,40.5C 165.5,46.1667 165.5,51.8333 165.5,57.5C 164.882,64.8174 164.549,72.1507 164.5,79.5C 162.579,80.3627 160.579,81.0293 158.5,81.5C 158.449,69.1534 158.783,56.8201 159.5,44.5C 154.949,45.4323 150.449,46.7656 146,48.5C 145.501,52.8206 145.334,57.1539 145.5,61.5C 144.507,69.9839 144.174,78.6506 144.5,87.5C 141.947,89.5837 138.947,90.917 135.5,91.5C 135.5,78.5 135.5,65.5 135.5,52.5C 125.885,49.0221 116.551,45.0221 107.5,40.5C 117.204,36.5985 127.204,33.2652 137.5,30.5 Z"/></g>
<g><path style="opacity:1" fill="#401d1f" d="M 195.5,24.5 C 195.185,27.2108 195.852,29.5441 197.5,31.5C 190.366,32.7449 183.699,35.0783 177.5,38.5C 174.779,38.9628 172.112,39.6295 169.5,40.5C 168.833,42.5 168.167,44.5 167.5,46.5C 168.171,43.014 167.171,40.3473 164.5,38.5C 165.5,38.5 166.5,38.5 167.5,38.5C 176.593,36.2476 185.593,33.581 194.5,30.5C 194.205,28.2646 194.539,26.2646 195.5,24.5 Z"/></g>
<g><path style="opacity:1" fill="#0a0a0c" d="M 255.5,32.5 C 255.5,38.5 255.5,44.5 255.5,50.5C 248.272,47.8593 240.939,45.5259 233.5,43.5C 233.5,42.8333 233.167,42.5 232.5,42.5C 239.572,38.0233 247.238,34.69 255.5,32.5 Z"/></g>
<g><path style="opacity:1" fill="#0b1c1e" d="M 39.5,38.5 C 37.5968,39.9473 35.9301,41.614 34.5,43.5C 34.0831,42.8761 33.4164,42.5427 32.5,42.5C 23.8925,45.3783 15.2259,48.0449 6.5,50.5C 4.0202,49.758 1.68686,48.758 -0.5,47.5C -0.5,45.8333 -0.5,44.1667 -0.5,42.5C 0.477842,42.189 1.14451,41.5223 1.5,40.5C 10.0531,39.5236 18.5531,38.5236 27,37.5C 28,38.1667 29,38.8333 30,39.5C 33.0708,37.6936 36.2375,37.3603 39.5,38.5 Z"/></g>
<g><path style="opacity:1" fill="#0b0b0d" d="M 76.5,29.5 C 81.1439,30.3205 85.4773,31.9872 89.5,34.5C 89.0825,35.2216 88.4158,35.7216 87.5,36C 88.1905,37.0674 88.6905,38.2341 89,39.5C 89.3333,39.1667 89.6667,38.8333 90,38.5C 92.2798,39.0864 94.4465,39.9197 96.5,41C 95.2624,40.9227 94.2624,41.0894 93.5,41.5C 94.376,42.2508 95.376,42.7508 96.5,43C 91.6247,45.1836 86.6247,47.1836 81.5,49C 83.8418,50.3919 83.8418,51.2252 81.5,51.5C 80.828,50.7326 79.9947,50.0659 79,49.5C 72.6633,50.3935 70.1633,54.0602 71.5,60.5C 70.834,57.6417 70.1674,54.6417 69.5,51.5C 61.9331,47.5492 54.2664,43.8826 46.5,40.5C 46.5,40.1667 46.5,39.8333 46.5,39.5C 56.6805,36.4611 66.6805,33.1277 76.5,29.5 Z"/></g>
<g><path style="opacity:1" fill="#5b282b" d="M 136.5,29.5 C 137.167,29.5 137.5,29.8333 137.5,30.5C 127.204,33.2652 117.204,36.5985 107.5,40.5C 107.167,40.5 106.833,40.5 106.5,40.5C 105.833,39.8333 105.167,39.1667 104.5,38.5C 104.833,38.5 105.167,38.5 105.5,38.5C 115.647,34.8961 125.98,31.8961 136.5,29.5 Z"/></g>
<g><path style="opacity:1" fill="#0b090b" d="M 39.5,38.5 C 39.8333,38.5 40.1667,38.5 40.5,38.5C 41.7079,39.2341 43.0413,39.5674 44.5,39.5C 44.1771,45.69 44.5104,51.69 45.5,57.5C 46.2757,64.1373 46.609,70.8039 46.5,77.5C 40.5149,79.2671 34.8483,81.6004 29.5,84.5C 23.3799,85.7627 17.3799,87.4293 11.5,89.5C 11.4249,86.7938 11.0916,84.1272 10.5,81.5C 18.5,68.8333 26.5,56.1667 34.5,43.5C 35.9301,41.614 37.5968,39.9473 39.5,38.5 Z"/></g>
<g><path style="opacity:1" fill="#1a1c1f" d="M 46.5,40.5 C 54.2664,43.8826 61.9331,47.5492 69.5,51.5C 70.1674,54.6417 70.834,57.6417 71.5,60.5C 71.5007,70.5138 71.8341,80.5138 72.5,90.5C 72.1667,90.5 71.8333,90.5 71.5,90.5C 64.2011,86.2214 56.8678,81.8881 49.5,77.5C 48.3195,68.513 47.3195,59.513 46.5,50.5C 46.5,47.1667 46.5,43.8333 46.5,40.5 Z"/></g>
<g><path style="opacity:1" fill="#1d1e22" d="M 170.5,42.5 C 180.245,45.8689 189.912,49.5356 199.5,53.5C 199.113,66.6301 199.113,79.6301 199.5,92.5C 197.32,93.7944 195.32,93.4611 193.5,91.5C 192.439,89.4676 190.772,88.1342 188.5,87.5C 187.359,86.5745 187.359,85.7412 188.5,85C 186.167,84.6667 183.833,84.3333 181.5,84C 182.815,82.6054 182.481,81.6054 180.5,81C 181.622,77.5915 181.789,74.0915 181,70.5C 180.138,72.087 179.471,73.7536 179,75.5C 178.028,73.6951 176.861,72.0284 175.5,70.5C 175.241,60.8668 173.574,51.5335 170.5,42.5 Z"/></g>
<g><path style="opacity:1" fill="#1c191b" d="M 169.5,40.5 C 169.328,41.4916 169.662,42.1583 170.5,42.5C 173.574,51.5335 175.241,60.8668 175.5,70.5C 176.861,72.0284 178.028,73.6951 179,75.5C 179.471,73.7536 180.138,72.087 181,70.5C 181.789,74.0915 181.622,77.5915 180.5,81C 182.481,81.6054 182.815,82.6054 181.5,84C 183.833,84.3333 186.167,84.6667 188.5,85C 187.359,85.7412 187.359,86.5745 188.5,87.5C 190.772,88.1342 192.439,89.4676 193.5,91.5C 185.692,87.5382 177.692,83.8715 169.5,80.5C 169.013,79.5266 168.513,78.5266 168,77.5C 167.5,67.172 167.334,56.8387 167.5,46.5C 168.167,44.5 168.833,42.5 169.5,40.5 Z"/></g>
<g><path style="opacity:1" fill="#1c1b1e" d="M 232.5,42.5 C 233.167,42.5 233.5,42.8333 233.5,43.5C 232.475,43.8966 232.308,44.5632 233,45.5C 233.333,45.1667 233.667,44.8333 234,44.5C 234.908,46.4386 236.408,47.4386 238.5,47.5C 239.491,53.6094 241.491,59.4427 244.5,65C 243.542,68.7575 243.542,72.2575 244.5,75.5C 246.796,75.6532 249.129,75.9865 251.5,76.5C 252.368,74.2038 253.702,73.5371 255.5,74.5C 255.5,80.5 255.5,86.5 255.5,92.5C 248.554,89.3485 241.554,86.3485 234.5,83.5C 233.757,79.6636 231.424,77.9969 227.5,78.5C 227.5,76.8333 227.5,75.1667 227.5,73.5C 227.927,69.1756 228.261,64.8422 228.5,60.5C 230.117,55.084 230.784,49.4173 230.5,43.5C 231.167,43.1667 231.833,42.8333 232.5,42.5 Z"/></g>
<g><path style="opacity:1" fill="#783a3d" d="M 77.5,-0.5 C 77.8333,-0.5 78.1667,-0.5 78.5,-0.5C 78.889,7.83574 79.389,16.1691 80,24.5C 80.2189,25.938 80.7189,27.2713 81.5,28.5C 89.0309,32.0977 96.6976,35.431 104.5,38.5C 105.167,39.1667 105.833,39.8333 106.5,40.5C 106.5,47.5 106.5,54.5 106.5,61.5C 106.167,61.5 105.833,61.5 105.5,61.5C 104.867,54.5548 104.2,47.5548 103.5,40.5C 98.8119,38.4877 94.1452,36.4877 89.5,34.5C 85.4773,31.9872 81.1439,30.3205 76.5,29.5C 77.7219,26.9384 78.3885,24.1051 78.5,21C 78.4971,18.3097 78.1638,15.8097 77.5,13.5C 77.5,8.83333 77.5,4.16667 77.5,-0.5 Z"/></g>
<g><path style="opacity:1" fill="#1a2729" d="M -0.5,47.5 C 1.68686,48.758 4.0202,49.758 6.5,50.5C 6.01834,51.4163 5.68501,52.4163 5.5,53.5C 6.7768,63.0365 8.44347,72.3699 10.5,81.5C 11.0916,84.1272 11.4249,86.7938 11.5,89.5C 11.1667,89.5 10.8333,89.5 10.5,89.5C 6.97437,86.9062 3.3077,84.5729 -0.5,82.5C -0.5,70.8333 -0.5,59.1667 -0.5,47.5 Z"/></g>
<g><path style="opacity:1" fill="#1b1c20" d="M 107.5,40.5 C 116.551,45.0221 125.885,49.0221 135.5,52.5C 135.5,65.5 135.5,78.5 135.5,91.5C 134.833,91.5 134.167,91.5 133.5,91.5C 131.847,91.3404 130.514,90.6737 129.5,89.5C 129.056,87.8868 128.056,86.7202 126.5,86C 128.044,85.7104 129.377,85.0437 130.5,84C 128.775,84.4087 127.108,84.2421 125.5,83.5C 126.489,82.5318 127.156,81.3651 127.5,80C 127.164,70.4896 124.164,61.9896 118.5,54.5C 111.458,52.4332 107.792,47.7665 107.5,40.5 Z"/></g>
<g><path style="opacity:1" fill="#145f5e" d="M 34.5,43.5 C 26.5,56.1667 18.5,68.8333 10.5,81.5C 8.44347,72.3699 6.7768,63.0365 5.5,53.5C 5.68501,52.4163 6.01834,51.4163 6.5,50.5C 15.2259,48.0449 23.8925,45.3783 32.5,42.5C 33.4164,42.5427 34.0831,42.8761 34.5,43.5 Z"/></g>
<g><path style="opacity:1" fill="#08090c" d="M 81.5,51.5 C 81.0618,51.4346 80.7284,51.6012 80.5,52C 81.7814,54.4275 82.7814,56.9275 83.5,59.5C 82.596,60.209 82.2627,61.209 82.5,62.5C 84.5,62.5 86.5,62.5 88.5,62.5C 88.161,67.9302 88.661,73.2636 90,78.5C 92.5645,80.1793 95.3979,80.846 98.5,80.5C 97.8333,81.1667 97.1667,81.8333 96.5,82.5C 93.8026,80.9546 91.8026,81.6213 90.5,84.5C 84.3753,86.3193 78.3753,88.3193 72.5,90.5C 71.8341,80.5138 71.5007,70.5138 71.5,60.5C 70.1633,54.0602 72.6633,50.3935 79,49.5C 79.9947,50.0659 80.828,50.7326 81.5,51.5 Z"/></g>
<g><path style="opacity:1" fill="#151418" d="M 106.5,40.5 C 106.833,40.5 107.167,40.5 107.5,40.5C 107.792,47.7665 111.458,52.4332 118.5,54.5C 124.164,61.9896 127.164,70.4896 127.5,80C 127.156,81.3651 126.489,82.5318 125.5,83.5C 127.108,84.2421 128.775,84.4087 130.5,84C 129.377,85.0437 128.044,85.7104 126.5,86C 128.056,86.7202 129.056,87.8868 129.5,89.5C 123.91,87.3716 118.577,84.7049 113.5,81.5C 112.702,81.9569 112.369,82.6236 112.5,83.5C 112.5,84.1667 112.167,84.5 111.5,84.5C 110.668,80.499 109.001,76.8323 106.5,73.5C 107.833,71.8333 107.833,70.1667 106.5,68.5C 108.385,66.9468 109.385,64.9468 109.5,62.5C 108.791,61.596 107.791,61.2627 106.5,61.5C 106.5,54.5 106.5,47.5 106.5,40.5 Z"/></g>
<g><path style="opacity:1" fill="#0c3f48" d="M 158.5,81.5 C 154.937,84.0238 150.937,85.6905 146.5,86.5C 145.507,78.3501 145.174,70.0168 145.5,61.5C 145.334,57.1539 145.501,52.8206 146,48.5C 150.449,46.7656 154.949,45.4323 159.5,44.5C 158.783,56.8201 158.449,69.1534 158.5,81.5 Z"/></g>
<g><path style="opacity:1" fill="#202124" d="M 233.5,43.5 C 240.939,45.5259 248.272,47.8593 255.5,50.5C 255.5,58.5 255.5,66.5 255.5,74.5C 253.702,73.5371 252.368,74.2038 251.5,76.5C 249.129,75.9865 246.796,75.6532 244.5,75.5C 243.542,72.2575 243.542,68.7575 244.5,65C 241.491,59.4427 239.491,53.6094 238.5,47.5C 236.408,47.4386 234.908,46.4386 234,44.5C 233.667,44.8333 233.333,45.1667 233,45.5C 232.308,44.5632 232.475,43.8966 233.5,43.5 Z"/></g>
<g><path style="opacity:1" fill="#192e6c" d="M 105.5,61.5 C 105.833,61.5 106.167,61.5 106.5,61.5C 107.791,61.2627 108.791,61.596 109.5,62.5C 103.484,62.4075 97.4836,62.0742 91.5,61.5C 91.5,59.1667 91.5,56.8333 91.5,54.5C 89.5168,54.1568 88.1834,54.8235 87.5,56.5C 86.596,55.791 86.2627,54.791 86.5,53.5C 88.5,53.5 90.5,53.5 92.5,53.5C 92.5,55.8333 92.5,58.1667 92.5,60.5C 96.8422,60.7395 101.176,61.0728 105.5,61.5 Z"/></g>
<g><path style="opacity:1" fill="#062227" d="M 145.5,61.5 C 145.174,70.0168 145.507,78.3501 146.5,86.5C 146.158,87.3382 145.492,87.6716 144.5,87.5C 144.174,78.6506 144.507,69.9839 145.5,61.5 Z"/></g>
<g><path style="opacity:1" fill="#214693" d="M 109.5,62.5 C 109.385,64.9468 108.385,66.9468 106.5,68.5C 106.167,68.5 105.833,68.5 105.5,68.5C 101.835,70.374 101.835,71.7073 105.5,72.5C 105.5,73.1667 105.833,73.5 106.5,73.5C 109.001,76.8323 110.668,80.499 111.5,84.5C 110.371,89.691 107.037,92.0243 101.5,91.5C 96.4935,91.7367 92.8268,89.7367 90.5,85.5C 90.5,85.1667 90.5,84.8333 90.5,84.5C 91.8026,81.6213 93.8026,80.9546 96.5,82.5C 96.5,82.8333 96.5,83.1667 96.5,83.5C 96.5,84.8333 96.5,86.1667 96.5,87.5C 99.6037,88.8643 102.604,88.6976 105.5,87C 107.1,84.3599 106.766,82.1933 104.5,80.5C 104.5,79.8333 104.167,79.5 103.5,79.5C 101.847,76.8565 99.5133,74.8565 96.5,73.5C 97.7736,69.8938 100.107,67.2272 103.5,65.5C 101.257,64.5258 98.924,64.1924 96.5,64.5C 95.4324,63.5655 94.099,63.2322 92.5,63.5C 92.185,67.3714 92.5184,71.0381 93.5,74.5C 93.5,75.5 93.5,76.5 93.5,77.5C 95.1667,77.5 96.8333,77.5 98.5,77.5C 98.5,78.5 98.5,79.5 98.5,80.5C 95.3979,80.846 92.5645,80.1793 90,78.5C 88.661,73.2636 88.161,67.9302 88.5,62.5C 86.5,62.5 84.5,62.5 82.5,62.5C 82.2627,61.209 82.596,60.209 83.5,59.5C 84.8333,59.5 86.1667,59.5 87.5,59.5C 87.5,58.5 87.5,57.5 87.5,56.5C 88.1834,54.8235 89.5168,54.1568 91.5,54.5C 91.5,56.8333 91.5,59.1667 91.5,61.5C 97.4836,62.0742 103.484,62.4075 109.5,62.5 Z"/></g>
<g><path style="opacity:1" fill="#18204c" d="M 96.5,64.5 C 95.5,64.5 94.5,64.5 93.5,64.5C 93.5,67.8333 93.5,71.1667 93.5,74.5C 92.5184,71.0381 92.185,67.3714 92.5,63.5C 94.099,63.2322 95.4324,63.5655 96.5,64.5 Z"/></g>
<g><path style="opacity:1" fill="#090a14" d="M 96.5,64.5 C 98.924,64.1924 101.257,64.5258 103.5,65.5C 100.107,67.2272 97.7736,69.8938 96.5,73.5C 99.5133,74.8565 101.847,76.8565 103.5,79.5C 101.883,80.038 100.216,80.3713 98.5,80.5C 98.5,79.5 98.5,78.5 98.5,77.5C 96.8333,77.5 95.1667,77.5 93.5,77.5C 93.5,76.5 93.5,75.5 93.5,74.5C 93.5,71.1667 93.5,67.8333 93.5,64.5C 94.5,64.5 95.5,64.5 96.5,64.5 Z"/></g>
<g><path style="opacity:1" fill="#460c0d" d="M 224.5,80.5 C 225.167,81.1667 225.833,81.8333 226.5,82.5C 223.257,82.9143 220.257,83.9143 217.5,85.5C 217.44,84.9569 217.107,84.6236 216.5,84.5C 213.766,86.3706 210.766,87.3706 207.5,87.5C 207.725,75.1293 208.559,62.796 210,50.5C 213.244,47.6954 217.077,46.3621 221.5,46.5C 219.972,58.4461 218.972,70.4461 218.5,82.5C 220.703,82.3964 222.703,81.7298 224.5,80.5 Z"/></g>
<g><path style="opacity:1" fill="#6d1d21" d="M 228.5,45.5 C 229.293,50.3273 229.293,55.3273 228.5,60.5C 228.261,64.8422 227.927,69.1756 227.5,73.5C 226.371,75.6282 226.204,77.9615 227,80.5C 229.45,81.6422 231.95,82.6422 234.5,83.5C 241.554,86.3485 248.554,89.3485 255.5,92.5C 255.5,93.1667 255.5,93.8333 255.5,94.5C 245.715,90.7735 236.048,86.7735 226.5,82.5C 225.833,81.8333 225.167,81.1667 224.5,80.5C 225.259,68.7619 226.592,57.0952 228.5,45.5 Z"/></g>
<g><path style="opacity:1" fill="#1d0f22" d="M 105.5,68.5 C 105.5,69.8333 105.5,71.1667 105.5,72.5C 101.835,71.7073 101.835,70.374 105.5,68.5 Z"/></g>
<g><path style="opacity:1" fill="#7b3135" d="M 105.5,68.5 C 105.833,68.5 106.167,68.5 106.5,68.5C 107.833,70.1667 107.833,71.8333 106.5,73.5C 105.833,73.5 105.5,73.1667 105.5,72.5C 105.5,71.1667 105.5,69.8333 105.5,68.5 Z"/></g>
<g><path style="opacity:1" fill="#723a3e" d="M 46.5,77.5 C 47.5,78.1667 48.5,78.8333 49.5,79.5C 42.727,80.758 36.0603,82.4247 29.5,84.5C 34.8483,81.6004 40.5149,79.2671 46.5,77.5 Z"/></g>
<g><path style="opacity:1" fill="#9e4e58" d="M 46.5,50.5 C 47.3195,59.513 48.3195,68.513 49.5,77.5C 56.8678,81.8881 64.2011,86.2214 71.5,90.5C 72.1667,91.1667 72.8333,91.8333 73.5,92.5C 74.1852,100.816 74.5185,109.149 74.5,117.5C 73.8333,117.167 73.1667,116.833 72.5,116.5C 72.4833,108.299 71.8167,100.299 70.5,92.5C 63.7036,87.9302 56.7036,83.5969 49.5,79.5C 48.5,78.8333 47.5,78.1667 46.5,77.5C 46.609,70.8039 46.2757,64.1373 45.5,57.5C 45.1984,54.9407 45.5318,52.6074 46.5,50.5 Z"/></g>
<g><path style="opacity:1" fill="#341316" d="M 227.5,73.5 C 227.5,75.1667 227.5,76.8333 227.5,78.5C 231.424,77.9969 233.757,79.6636 234.5,83.5C 231.95,82.6422 229.45,81.6422 227,80.5C 226.204,77.9615 226.371,75.6282 227.5,73.5 Z"/></g>
<g><path style="opacity:1" fill="#7d3841" d="M 103.5,79.5 C 104.167,79.5 104.5,79.8333 104.5,80.5C 101.838,81.4986 99.1716,82.4986 96.5,83.5C 96.5,83.1667 96.5,82.8333 96.5,82.5C 97.1667,81.8333 97.8333,81.1667 98.5,80.5C 100.216,80.3713 101.883,80.038 103.5,79.5 Z"/></g>
<g><path style="opacity:1" fill="#08090b" d="M 206.5,88.5 C 204.465,90.1947 202.132,91.528 199.5,92.5C 199.113,79.6301 199.113,66.6301 199.5,53.5C 189.912,49.5356 180.245,45.8689 170.5,42.5C 169.662,42.1583 169.328,41.4916 169.5,40.5C 172.112,39.6295 174.779,38.9628 177.5,38.5C 179.453,39.9988 181.12,39.6655 182.5,37.5C 183.216,38.311 184.05,38.9777 185,39.5C 188.689,37.2153 192.523,35.2153 196.5,33.5C 198.481,33.4371 200.148,34.1038 201.5,35.5C 195.968,35.4689 190.968,37.4689 186.5,41.5C 188.18,42.7689 189.347,44.4356 190,46.5C 190.388,45.572 191.055,44.9054 192,44.5C 194.705,45.1928 197.039,46.5261 199,48.5C 199.893,47.9186 200.893,47.5852 202,47.5C 204.118,48.4764 206.285,49.3097 208.5,50C 207.81,54.2914 206.81,58.7914 205.5,63.5C 205.966,71.7333 206.299,80.0667 206.5,88.5 Z"/></g>
<g><path style="opacity:1" fill="#0c0b0d" d="M 49.5,79.5 C 56.7036,83.5969 63.7036,87.9302 70.5,92.5C 67.9512,92.3874 65.6179,93.0541 63.5,94.5C 62.2638,93.7542 60.9305,93.4208 59.5,93.5C 59.4802,95.143 60.1468,96.4763 61.5,97.5C 53.9172,100.794 46.2505,103.794 38.5,106.5C 36.7397,109.212 36.073,112.212 36.5,115.5C 35.6829,113.031 35.1829,110.365 35,107.5C 28.5882,102.711 22.0882,98.0441 15.5,93.5C 14.6143,92.675 14.281,91.675 14.5,90.5C 19.7353,88.871 24.7353,86.871 29.5,84.5C 36.0603,82.4247 42.727,80.758 49.5,79.5 Z"/></g>
<g><path style="opacity:1" fill="#080914" d="M 104.5,80.5 C 106.766,82.1933 107.1,84.3599 105.5,87C 102.604,88.6976 99.6037,88.8643 96.5,87.5C 96.5,86.1667 96.5,84.8333 96.5,83.5C 99.1716,82.4986 101.838,81.4986 104.5,80.5 Z"/></g>
<g><path style="opacity:1" fill="#09090a" d="M 226.5,82.5 C 236.048,86.7735 245.715,90.7735 255.5,94.5C 255.5,96.5 255.5,98.5 255.5,100.5C 252.67,100.694 250.004,101.361 247.5,102.5C 245.616,115.138 243.949,127.805 242.5,140.5C 239.5,142.5 236.5,144.5 233.5,146.5C 234.664,138.522 235.664,130.522 236.5,122.5C 237.796,118.069 239.129,113.569 240.5,109C 240.06,105.773 240.06,102.606 240.5,99.5C 241.325,98.6143 242.325,98.281 243.5,98.5C 243.5,97.1667 243.5,95.8333 243.5,94.5C 238.965,92.2659 235.965,93.5992 234.5,98.5C 232.167,98.8333 229.833,99.1667 227.5,99.5C 222.65,99.4483 217.983,98.615 213.5,97C 214.308,96.6924 214.975,96.1924 215.5,95.5C 213.862,94.0416 212.195,93.7083 210.5,94.5C 210.002,93.3966 209.669,92.3966 209.5,91.5C 207.55,92.3721 205.55,93.0388 203.5,93.5C 207.838,90.3289 212.504,87.6623 217.5,85.5C 220.257,83.9143 223.257,82.9143 226.5,82.5 Z"/></g>
<g><path style="opacity:1" fill="#734647" d="M 29.5,84.5 C 24.7353,86.871 19.7353,88.871 14.5,90.5C 13.8333,90.8333 13.1667,91.1667 12.5,91.5C 11.8333,90.8333 11.1667,90.1667 10.5,89.5C 10.8333,89.5 11.1667,89.5 11.5,89.5C 17.3799,87.4293 23.3799,85.7627 29.5,84.5 Z"/></g>
<g><path style="opacity:1" fill="#6d3039" d="M 164.5,79.5 C 165.167,80.1667 165.833,80.8333 166.5,81.5C 156.063,84.5316 146.063,88.5316 136.5,93.5C 135.5,92.8333 134.5,92.1667 133.5,91.5C 134.167,91.5 134.833,91.5 135.5,91.5C 138.947,90.917 141.947,89.5837 144.5,87.5C 145.492,87.6716 146.158,87.3382 146.5,86.5C 150.937,85.6905 154.937,84.0238 158.5,81.5C 160.579,81.0293 162.579,80.3627 164.5,79.5 Z"/></g>
<g><path style="opacity:1" fill="#0a0b0e" d="M 112.5,83.5 C 118.165,85.9969 123.498,88.9969 128.5,92.5C 127.761,92.369 127.094,92.5357 126.5,93C 127.728,93.779 128.728,94.779 129.5,96C 129.164,97.0299 128.497,97.5299 127.5,97.5C 119.426,100.451 111.593,104.118 104,108.5C 103.667,108.167 103.333,107.833 103,107.5C 101.621,112.036 101.121,116.703 101.5,121.5C 100.675,117.353 100.175,113.019 100,108.5C 91.5271,103.351 83.0271,98.3509 74.5,93.5C 74.5,93.1667 74.5,92.8333 74.5,92.5C 79.9053,90.1496 85.2386,87.8163 90.5,85.5C 92.8268,89.7367 96.4935,91.7367 101.5,91.5C 107.037,92.0243 110.371,89.691 111.5,84.5C 112.167,84.5 112.5,84.1667 112.5,83.5 Z"/></g>
<g><path style="opacity:1" fill="#0a0b0d" d="M 166.5,81.5 C 175.804,85.827 185.137,90.1603 194.5,94.5C 195.487,97.7683 195.82,101.102 195.5,104.5C 195.5,106.5 195.5,108.5 195.5,110.5C 194.286,117.307 193.453,124.307 193,131.5C 191.385,132.386 189.885,133.386 188.5,134.5C 189.279,122.487 190.279,110.487 191.5,98.5C 188.101,98.6085 185.434,99.9418 183.5,102.5C 181.983,102.511 180.816,103.177 180,104.5C 179.586,104.043 179.086,103.709 178.5,103.5C 176.135,106.35 173.135,108.184 169.5,109C 168.033,111.378 167.033,113.878 166.5,116.5C 166.808,114.076 166.474,111.743 165.5,109.5C 155.937,104.219 146.27,99.219 136.5,94.5C 136.5,94.1667 136.5,93.8333 136.5,93.5C 146.063,88.5316 156.063,84.5316 166.5,81.5 Z"/></g>
<g><path style="opacity:1" fill="#793a42" d="M 90.5,84.5 C 90.5,84.8333 90.5,85.1667 90.5,85.5C 85.2386,87.8163 79.9053,90.1496 74.5,92.5C 74.1667,92.5 73.8333,92.5 73.5,92.5C 72.8333,91.8333 72.1667,91.1667 71.5,90.5C 71.8333,90.5 72.1667,90.5 72.5,90.5C 78.3753,88.3193 84.3753,86.3193 90.5,84.5 Z"/></g>
<g><path style="opacity:1" fill="#80282f" d="M 165.5,57.5 C 166.329,64.6552 166.829,71.9885 167,79.5C 167.671,80.2524 168.504,80.5858 169.5,80.5C 177.692,83.8715 185.692,87.5382 193.5,91.5C 195.32,93.4611 197.32,93.7944 199.5,92.5C 202.132,91.528 204.465,90.1947 206.5,88.5C 207.167,88.5 207.5,88.1667 207.5,87.5C 210.766,87.3706 213.766,86.3706 216.5,84.5C 217.107,84.6236 217.44,84.9569 217.5,85.5C 212.504,87.6623 207.838,90.3289 203.5,93.5C 203.167,93.5 202.833,93.5 202.5,93.5C 201.167,93.8333 199.833,94.1667 198.5,94.5C 196.881,97.5479 195.881,100.881 195.5,104.5C 195.82,101.102 195.487,97.7683 194.5,94.5C 185.137,90.1603 175.804,85.827 166.5,81.5C 165.833,80.8333 165.167,80.1667 164.5,79.5C 164.549,72.1507 164.882,64.8174 165.5,57.5 Z"/></g>
<g><path style="opacity:1" fill="#0a0a0c" d="M -0.5,84.5 C 2.94704,86.3967 6.28038,88.5633 9.5,91C 10.3802,92.3561 10.7135,93.8561 10.5,95.5C 10.3025,100.75 10.9692,105.75 12.5,110.5C 13.404,111.209 13.7373,112.209 13.5,113.5C 14.2295,118.13 14.5628,122.797 14.5,127.5C 9.53376,129.491 4.53376,131.491 -0.5,133.5C -0.5,117.167 -0.5,100.833 -0.5,84.5 Z"/></g>
<g><path style="opacity:1" fill="#0a0d0f" d="M 236.5,122.5 C 237.162,118.534 237.495,114.534 237.5,110.5C 236.167,110.5 234.833,110.5 233.5,110.5C 225.047,107.293 216.713,103.793 208.5,100C 206.007,98.5814 203.674,97.0814 201.5,95.5C 201.833,94.8333 202.167,94.1667 202.5,93.5C 202.833,93.5 203.167,93.5 203.5,93.5C 205.55,93.0388 207.55,92.3721 209.5,91.5C 209.669,92.3966 210.002,93.3966 210.5,94.5C 212.195,93.7083 213.862,94.0416 215.5,95.5C 214.975,96.1924 214.308,96.6924 213.5,97C 217.983,98.615 222.65,99.4483 227.5,99.5C 229.833,99.1667 232.167,98.8333 234.5,98.5C 235.965,93.5992 238.965,92.2659 243.5,94.5C 243.5,95.8333 243.5,97.1667 243.5,98.5C 242.325,98.281 241.325,98.6143 240.5,99.5C 240.06,102.606 240.06,105.773 240.5,109C 239.129,113.569 237.796,118.069 236.5,122.5 Z"/></g>
<g><path style="opacity:1" fill="#a74a57" d="M 129.5,89.5 C 130.514,90.6737 131.847,91.3404 133.5,91.5C 134.5,92.1667 135.5,92.8333 136.5,93.5C 135.514,97.97 135.181,102.637 135.5,107.5C 134.833,107.833 134.167,108.167 133.5,108.5C 133.827,103.456 133.494,98.456 132.5,93.5C 131.264,92.7542 129.93,92.4208 128.5,92.5C 123.498,88.9969 118.165,85.9969 112.5,83.5C 112.369,82.6236 112.702,81.9569 113.5,81.5C 118.577,84.7049 123.91,87.3716 129.5,89.5 Z"/></g>
<g><path style="opacity:1" fill="#07080a" d="M 127.5,97.5 C 125.034,98.9373 123.034,100.937 121.5,103.5C 121.608,104.442 121.941,105.275 122.5,106C 120.951,107.214 119.785,108.714 119,110.5C 118.416,114.095 117.582,117.595 116.5,121C 116.957,121.414 117.291,121.914 117.5,122.5C 116.5,123.167 115.5,123.833 114.5,124.5C 114.98,126.949 115.98,129.115 117.5,131C 114.648,131.269 111.982,132.103 109.5,133.5C 108.708,136.973 107.708,140.306 106.5,143.5C 104.95,144.441 103.284,145.107 101.5,145.5C 101.5,145.167 101.5,144.833 101.5,144.5C 101.5,136.833 101.5,129.167 101.5,121.5C 101.121,116.703 101.621,112.036 103,107.5C 103.333,107.833 103.667,108.167 104,108.5C 111.593,104.118 119.426,100.451 127.5,97.5 Z"/></g>
<g><path style="opacity:1" fill="#1a181c" d="M 202.5,93.5 C 202.167,94.1667 201.833,94.8333 201.5,95.5C 200.624,95.3691 199.957,95.7025 199.5,96.5C 200.5,97.3333 201.5,98.1667 202.5,99C 202.167,99.3333 201.833,99.6667 201.5,100C 203.446,102.675 205.113,105.508 206.5,108.5C 205.71,116.315 207.71,123.482 212.5,130C 214.891,130.287 217.224,130.787 219.5,131.5C 220.041,135.754 220.041,139.754 219.5,143.5C 220.873,143.343 222.207,143.51 223.5,144C 222.944,144.383 222.611,144.883 222.5,145.5C 219.352,144.424 216.352,143.091 213.5,141.5C 208.334,138.752 203.334,135.752 198.5,132.5C 197.536,125.254 197.203,117.92 197.5,110.5C 197.472,105.138 197.806,99.8049 198.5,94.5C 199.833,94.1667 201.167,93.8333 202.5,93.5 Z"/></g>
<g><path style="opacity:1" fill="#09090a" d="M 70.5,92.5 C 71.8167,100.299 72.4833,108.299 72.5,116.5C 68.5369,115.56 64.5369,115.393 60.5,116C 59.944,116.383 59.6107,116.883 59.5,117.5C 56.909,118.254 55.0757,119.921 54,122.5C 53.1183,127.353 53.6183,132.019 55.5,136.5C 50.9258,139.619 45.9258,141.952 40.5,143.5C 39.1999,141.777 38.5332,139.61 38.5,137C 37.375,129.875 36.7084,122.709 36.5,115.5C 36.073,112.212 36.7397,109.212 38.5,106.5C 46.2505,103.794 53.9172,100.794 61.5,97.5C 60.1468,96.4763 59.4802,95.143 59.5,93.5C 60.9305,93.4208 62.2638,93.7542 63.5,94.5C 65.6179,93.0541 67.9512,92.3874 70.5,92.5 Z"/></g>
<g><path style="opacity:1" fill="#a6353f" d="M 198.5,94.5 C 197.806,99.8049 197.472,105.138 197.5,110.5C 197.167,110.5 196.833,110.5 196.5,110.5C 196.167,110.5 195.833,110.5 195.5,110.5C 195.5,108.5 195.5,106.5 195.5,104.5C 195.881,100.881 196.881,97.5479 198.5,94.5 Z"/></g>
<g><path style="opacity:1" fill="#1c1e21" d="M 201.5,95.5 C 203.674,97.0814 206.007,98.5814 208.5,100C 216.713,103.793 225.047,107.293 233.5,110.5C 231.839,122.11 230.505,133.776 229.5,145.5C 229.52,146.726 229.853,147.726 230.5,148.5C 229.749,149.573 228.749,149.74 227.5,149C 226.045,147.374 224.378,146.208 222.5,145.5C 222.611,144.883 222.944,144.383 223.5,144C 222.207,143.51 220.873,143.343 219.5,143.5C 220.041,139.754 220.041,135.754 219.5,131.5C 217.224,130.787 214.891,130.287 212.5,130C 207.71,123.482 205.71,116.315 206.5,108.5C 205.113,105.508 203.446,102.675 201.5,100C 201.833,99.6667 202.167,99.3333 202.5,99C 201.5,98.1667 200.5,97.3333 199.5,96.5C 199.957,95.7025 200.624,95.3691 201.5,95.5 Z"/></g>
<g><path style="opacity:1" fill="#a96469" d="M -0.5,82.5 C 3.3077,84.5729 6.97437,86.9062 10.5,89.5C 11.1667,90.1667 11.8333,90.8333 12.5,91.5C 13.0575,98.5112 13.7241,105.511 14.5,112.5C 14.5,113.167 14.1667,113.5 13.5,113.5C 13.7373,112.209 13.404,111.209 12.5,110.5C 12.8112,105.234 12.1446,100.234 10.5,95.5C 10.7135,93.8561 10.3802,92.3561 9.5,91C 6.28038,88.5633 2.94704,86.3967 -0.5,84.5C -0.5,83.8333 -0.5,83.1667 -0.5,82.5 Z"/></g>
<g><path style="opacity:1" fill="#080709" d="M 128.5,92.5 C 129.93,92.4208 131.264,92.7542 132.5,93.5C 133.494,98.456 133.827,103.456 133.5,108.5C 131.031,114.103 128.031,119.436 124.5,124.5C 126.316,126.817 128.316,128.984 130.5,131C 129.464,132.617 128.297,132.784 127,131.5C 126.536,132.094 126.369,132.761 126.5,133.5C 119.833,136.833 113.167,140.167 106.5,143.5C 107.708,140.306 108.708,136.973 109.5,133.5C 111.982,132.103 114.648,131.269 117.5,131C 115.98,129.115 114.98,126.949 114.5,124.5C 115.5,123.833 116.5,123.167 117.5,122.5C 117.291,121.914 116.957,121.414 116.5,121C 117.582,117.595 118.416,114.095 119,110.5C 119.785,108.714 120.951,107.214 122.5,106C 121.941,105.275 121.608,104.442 121.5,103.5C 123.034,100.937 125.034,98.9373 127.5,97.5C 128.497,97.5299 129.164,97.0299 129.5,96C 128.728,94.779 127.728,93.779 126.5,93C 127.094,92.5357 127.761,92.369 128.5,92.5 Z"/></g>
<g><path style="opacity:1" fill="#191c1f" d="M 14.5,90.5 C 14.281,91.675 14.6143,92.675 15.5,93.5C 22.0882,98.0441 28.5882,102.711 35,107.5C 35.1829,110.365 35.6829,113.031 36.5,115.5C 36.7084,122.709 37.375,129.875 38.5,137C 38.5332,139.61 39.1999,141.777 40.5,143.5C 39.7494,144.573 38.7494,144.74 37.5,144C 30.5737,138.285 23.7403,132.452 17,126.5C 16.477,121.638 15.6437,116.972 14.5,112.5C 13.7241,105.511 13.0575,98.5112 12.5,91.5C 13.1667,91.1667 13.8333,90.8333 14.5,90.5 Z"/></g>
<g><path style="opacity:1" fill="#1a161a" d="M 73.5,92.5 C 73.8333,92.5 74.1667,92.5 74.5,92.5C 74.5,92.8333 74.5,93.1667 74.5,93.5C 74.3433,94.8734 74.51,96.2068 75,97.5C 75.5354,95.7295 76.3687,95.3961 77.5,96.5C 75.5208,103.151 78.1875,107.151 85.5,108.5C 95.759,116.102 100.092,126.269 98.5,139C 99.6059,140.858 100.606,142.692 101.5,144.5C 101.5,144.833 101.5,145.167 101.5,145.5C 101.167,145.5 100.833,145.5 100.5,145.5C 97.437,143.975 94.7703,141.975 92.5,139.5C 95.2584,139.024 96.925,137.357 97.5,134.5C 97.7205,127.155 95.3872,120.822 90.5,115.5C 89.3147,114.147 87.9814,112.98 86.5,112C 84.4132,112.218 82.4132,112.051 80.5,111.5C 79.1514,109.83 77.9848,108.164 77,106.5C 75.8924,110.086 75.3924,113.753 75.5,117.5C 75.1667,117.5 74.8333,117.5 74.5,117.5C 74.5185,109.149 74.1852,100.816 73.5,92.5 Z"/></g>
<g><path style="opacity:1" fill="#2d0f12" d="M 10.5,95.5 C 12.1446,100.234 12.8112,105.234 12.5,110.5C 10.9692,105.75 10.3025,100.75 10.5,95.5 Z"/></g>
<g><path style="opacity:1" fill="#191c1f" d="M 74.5,93.5 C 83.0271,98.3509 91.5271,103.351 100,108.5C 100.175,113.019 100.675,117.353 101.5,121.5C 101.5,129.167 101.5,136.833 101.5,144.5C 100.606,142.692 99.6059,140.858 98.5,139C 100.092,126.269 95.759,116.102 85.5,108.5C 78.1875,107.151 75.5208,103.151 77.5,96.5C 76.3687,95.3961 75.5354,95.7295 75,97.5C 74.51,96.2068 74.3433,94.8734 74.5,93.5 Z"/></g>
<g><path style="opacity:1" fill="#07080a" d="M 183.5,102.5 C 182.867,114.169 182.2,125.836 181.5,137.5C 177.5,140.167 173.5,142.833 169.5,145.5C 168.609,146.11 167.609,146.443 166.5,146.5C 165.566,145.432 165.232,144.099 165.5,142.5C 165.521,133.818 165.854,125.152 166.5,116.5C 167.033,113.878 168.033,111.378 169.5,109C 173.135,108.184 176.135,106.35 178.5,103.5C 179.086,103.709 179.586,104.043 180,104.5C 180.816,103.177 181.983,102.511 183.5,102.5 Z"/></g>
<g><path style="opacity:1" fill="#1b1d20" d="M 136.5,94.5 C 146.27,99.219 155.937,104.219 165.5,109.5C 166.474,111.743 166.808,114.076 166.5,116.5C 165.854,125.152 165.521,133.818 165.5,142.5C 160.64,142.151 157.306,139.651 155.5,135C 156.167,134 156.833,133 157.5,132C 156.205,126.377 156.205,120.71 157.5,115C 157.435,110.619 155.435,107.619 151.5,106C 151.833,105.667 152.167,105.333 152.5,105C 147.834,101.664 142.834,98.8311 137.5,96.5C 136.702,96.0431 136.369,95.3764 136.5,94.5 Z"/></g>
<g><path style="opacity:1" fill="#171619" d="M 136.5,93.5 C 136.5,93.8333 136.5,94.1667 136.5,94.5C 136.369,95.3764 136.702,96.0431 137.5,96.5C 142.834,98.8311 147.834,101.664 152.5,105C 152.167,105.333 151.833,105.667 151.5,106C 155.435,107.619 157.435,110.619 157.5,115C 156.205,120.71 156.205,126.377 157.5,132C 156.833,133 156.167,134 155.5,135C 157.306,139.651 160.64,142.151 165.5,142.5C 165.232,144.099 165.566,145.432 166.5,146.5C 165.399,147.598 164.066,147.765 162.5,147C 154.805,142.156 147.139,137.323 139.5,132.5C 141.294,130.203 143.294,128.037 145.5,126C 142.303,119.999 138.97,114.165 135.5,108.5C 135.5,108.167 135.5,107.833 135.5,107.5C 135.181,102.637 135.514,97.97 136.5,93.5 Z"/></g>
<g><path style="opacity:1" fill="#56350d" d="M 72.5,116.5 C 73.1667,116.833 73.8333,117.167 74.5,117.5C 74.8333,117.5 75.1667,117.5 75.5,117.5C 78.5431,119.543 80.8764,122.21 82.5,125.5C 76.2702,118.545 68.6035,115.879 59.5,117.5C 59.6107,116.883 59.944,116.383 60.5,116C 64.5369,115.393 68.5369,115.56 72.5,116.5 Z"/></g>
<g><path style="opacity:1" fill="#0e0e10" d="M 92.5,139.5 C 89.8333,138.167 87.1667,136.833 84.5,135.5C 84.8893,132.447 84.2227,129.78 82.5,127.5C 82.5,126.833 82.5,126.167 82.5,125.5C 80.8764,122.21 78.5431,119.543 75.5,117.5C 75.3924,113.753 75.8924,110.086 77,106.5C 77.9848,108.164 79.1514,109.83 80.5,111.5C 82.4132,112.051 84.4132,112.218 86.5,112C 87.9814,112.98 89.3147,114.147 90.5,115.5C 95.3872,120.822 97.7205,127.155 97.5,134.5C 96.925,137.357 95.2584,139.024 92.5,139.5 Z"/></g>
<g><path style="opacity:1" fill="#0d383f" d="M 188.5,134.5 C 186.287,135.773 183.954,136.773 181.5,137.5C 182.2,125.836 182.867,114.169 183.5,102.5C 185.434,99.9418 188.101,98.6085 191.5,98.5C 190.279,110.487 189.279,122.487 188.5,134.5 Z"/></g>
<g><path style="opacity:1" fill="#3c3c3c" d="M 135.5,108.5 C 138.97,114.165 142.303,119.999 145.5,126C 143.294,128.037 141.294,130.203 139.5,132.5C 138.508,132.328 137.842,132.662 137.5,133.5C 135.927,135.836 134.594,135.836 133.5,133.5C 134.194,125.266 134.861,116.933 135.5,108.5 Z"/></g>
<g><path style="opacity:1" fill="#100503" d="M 255.5,115.5 C 255.5,120.167 255.5,124.833 255.5,129.5C 254.655,130.671 253.989,132.005 253.5,133.5C 252.453,127.375 253.119,121.375 255.5,115.5 Z"/></g>
<g><path style="opacity:1" fill="#a26f1d" d="M 82.5,125.5 C 82.5,126.167 82.5,126.833 82.5,127.5C 83.2265,131.253 81.8932,133.919 78.5,135.5C 79.5575,135.906 80.8908,135.906 82.5,135.5C 82.5,136.833 82.5,138.167 82.5,139.5C 80.2966,141.793 76.9632,143.46 72.5,144.5C 69.8236,144.163 67.157,143.83 64.5,143.5C 61.5999,142.557 59.2666,140.89 57.5,138.5C 57.1667,137.5 56.5,136.833 55.5,136.5C 53.6183,132.019 53.1183,127.353 54,122.5C 55.0757,119.921 56.909,118.254 59.5,117.5C 68.6035,115.879 76.2702,118.545 82.5,125.5 Z"/></g>
<g><path style="opacity:1" fill="#472c0e" d="M 73.5,127.5 C 73.6309,128.376 73.2975,129.043 72.5,129.5C 71.452,128.617 70.2853,127.95 69,127.5C 67.9701,127.836 67.4701,128.503 67.5,129.5C 66.3143,128.295 66.3143,126.961 67.5,125.5C 69.795,123.584 71.795,124.251 73.5,127.5 Z"/></g>
<g><path style="opacity:1" fill="#110801" d="M 67.5,125.5 C 66.3143,126.961 66.3143,128.295 67.5,129.5C 67.5,130.167 67.5,130.833 67.5,131.5C 65.4642,129.794 64.4642,127.461 64.5,124.5C 64.56,123.957 64.8933,123.624 65.5,123.5C 66.1818,124.243 66.8485,124.909 67.5,125.5 Z"/></g>
<g><path style="opacity:1" fill="#2c1212" d="M 196.5,110.5 C 196.833,110.5 197.167,110.5 197.5,110.5C 197.203,117.92 197.536,125.254 198.5,132.5C 196.05,132.126 195.05,130.626 195.5,128C 196.331,122.196 196.665,116.362 196.5,110.5 Z"/></g>
<g><path style="opacity:1" fill="#a05059" d="M 14.5,112.5 C 15.6437,116.972 16.477,121.638 17,126.5C 23.7403,132.452 30.5737,138.285 37.5,144C 38.7494,144.74 39.7494,144.573 40.5,143.5C 45.9258,141.952 50.9258,139.619 55.5,136.5C 56.5,136.833 57.1667,137.5 57.5,138.5C 51.8641,140.322 46.5307,142.655 41.5,145.5C 40.3509,145.791 39.6842,146.624 39.5,148C 40.391,154.661 41.391,161.161 42.5,167.5C 42.352,172.322 43.0187,176.988 44.5,181.5C 42.8333,181.5 41.1667,181.5 39.5,181.5C 40.6089,180.121 41.2755,178.455 41.5,176.5C 40.6474,168.999 39.6474,161.666 38.5,154.5C 38.6641,151.813 38.4974,149.146 38,146.5C 31.2066,141.375 24.7066,135.875 18.5,130C 17.255,129.209 15.9217,128.709 14.5,128.5C 14.5,128.167 14.5,127.833 14.5,127.5C 14.5628,122.797 14.2295,118.13 13.5,113.5C 14.1667,113.5 14.5,113.167 14.5,112.5 Z"/></g>
<g><path style="opacity:1" fill="#3c2113" d="M 64.5,124.5 C 64.4642,127.461 65.4642,129.794 67.5,131.5C 67.2865,133.144 67.6198,134.644 68.5,136C 67.6477,137.728 66.6477,137.895 65.5,136.5C 64.6236,136.631 63.9569,136.298 63.5,135.5C 64.8643,131.848 64.5309,128.348 62.5,125C 63.0944,124.536 63.7611,124.369 64.5,124.5 Z"/></g>
<g><path style="opacity:1" fill="#78484d" d="M 14.5,127.5 C 14.5,127.833 14.5,128.167 14.5,128.5C 9.68487,131.072 4.68487,133.406 -0.5,135.5C -0.5,134.833 -0.5,134.167 -0.5,133.5C 4.53376,131.491 9.53376,129.491 14.5,127.5 Z"/></g>
<g><path style="opacity:1" fill="#8f343f" d="M 195.5,110.5 C 195.833,110.5 196.167,110.5 196.5,110.5C 196.665,116.362 196.331,122.196 195.5,128C 195.05,130.626 196.05,132.126 198.5,132.5C 203.334,135.752 208.334,138.752 213.5,141.5C 212.5,141.5 211.5,141.5 210.5,141.5C 205.057,138.695 199.557,136.028 194,133.5C 186.236,137.965 178.403,142.299 170.5,146.5C 170.5,145.833 170.167,145.5 169.5,145.5C 173.5,142.833 177.5,140.167 181.5,137.5C 183.954,136.773 186.287,135.773 188.5,134.5C 189.885,133.386 191.385,132.386 193,131.5C 193.453,124.307 194.286,117.307 195.5,110.5 Z"/></g>
<g><path style="opacity:1" fill="#430b0d" d="M 255.5,100.5 C 255.5,105.5 255.5,110.5 255.5,115.5C 253.119,121.375 252.453,127.375 253.5,133.5C 250.072,136.057 246.405,138.39 242.5,140.5C 243.949,127.805 245.616,115.138 247.5,102.5C 250.004,101.361 252.67,100.694 255.5,100.5 Z"/></g>
<g><path style="opacity:1" fill="#92661f" d="M 82.5,127.5 C 84.2227,129.78 84.8893,132.447 84.5,135.5C 84.5,136.167 84.5,136.833 84.5,137.5C 79.8421,145.718 73.1755,147.718 64.5,143.5C 67.157,143.83 69.8236,144.163 72.5,144.5C 76.9632,143.46 80.2966,141.793 82.5,139.5C 82.5,138.167 82.5,136.833 82.5,135.5C 80.8908,135.906 79.5575,135.906 78.5,135.5C 81.8932,133.919 83.2265,131.253 82.5,127.5 Z"/></g>
<g><path style="opacity:1" fill="#885920" d="M 73.5,127.5 C 74.8333,128.5 74.8333,129.5 73.5,130.5C 72.7109,130.783 72.0442,131.283 71.5,132C 72.3366,133.011 72.67,134.178 72.5,135.5C 71.325,135.281 70.325,135.614 69.5,136.5C 69.8333,136.833 70.1667,137.167 70.5,137.5C 72.0709,136.691 73.7376,136.357 75.5,136.5C 75.5,135.5 75.5,134.5 75.5,133.5C 76.4345,134.568 76.7678,135.901 76.5,137.5C 74.2133,137.724 72.0466,138.391 70,139.5C 67.8155,139.302 66.3155,138.302 65.5,136.5C 66.6477,137.895 67.6477,137.728 68.5,136C 67.6198,134.644 67.2865,133.144 67.5,131.5C 67.5,130.833 67.5,130.167 67.5,129.5C 67.4701,128.503 67.9701,127.836 69,127.5C 70.2853,127.95 71.452,128.617 72.5,129.5C 73.2975,129.043 73.6309,128.376 73.5,127.5 Z"/></g>
<g><path style="opacity:1" fill="#371406" d="M 73.5,130.5 C 73.9321,131.71 74.5987,132.71 75.5,133.5C 75.5,134.5 75.5,135.5 75.5,136.5C 73.7376,136.357 72.0709,136.691 70.5,137.5C 70.1667,137.167 69.8333,136.833 69.5,136.5C 70.325,135.614 71.325,135.281 72.5,135.5C 72.67,134.178 72.3366,133.011 71.5,132C 72.0442,131.283 72.7109,130.783 73.5,130.5 Z"/></g>
<g><path style="opacity:1" fill="#1b0f0f" d="M 133.5,133.5 C 134.594,135.836 135.927,135.836 137.5,133.5C 138.167,133.833 138.833,134.167 139.5,134.5C 138.166,135.652 136.666,136.652 135,137.5C 133.594,136.586 132.094,135.92 130.5,135.5C 129.65,132.739 130.65,132.072 133.5,133.5 Z"/></g>
<g><path style="opacity:1" fill="#353433" d="M 139.5,134.5 C 140.833,134.5 141.5,135.167 141.5,136.5C 139.889,140.051 137.556,143.051 134.5,145.5C 133.893,145.376 133.56,145.043 133.5,144.5C 134.598,143.399 134.765,142.066 134,140.5C 133.003,138.677 131.836,137.01 130.5,135.5C 132.094,135.92 133.594,136.586 135,137.5C 136.666,136.652 138.166,135.652 139.5,134.5 Z"/></g>
<g><path style="opacity:1" fill="#8e5260" d="M 126.5,133.5 C 127.506,133.938 127.506,134.604 126.5,135.5C 118.641,139.261 110.975,143.261 103.5,147.5C 103.167,147.5 102.833,147.5 102.5,147.5C 101.833,146.833 101.167,146.167 100.5,145.5C 100.833,145.5 101.167,145.5 101.5,145.5C 103.284,145.107 104.95,144.441 106.5,143.5C 113.167,140.167 119.833,136.833 126.5,133.5 Z"/></g>
<g><path style="opacity:1" fill="#113c44" d="M 233.5,110.5 C 234.833,110.5 236.167,110.5 237.5,110.5C 237.495,114.534 237.162,118.534 236.5,122.5C 235.664,130.522 234.664,138.522 233.5,146.5C 232.5,147.167 231.5,147.833 230.5,148.5C 229.853,147.726 229.52,146.726 229.5,145.5C 230.505,133.776 231.839,122.11 233.5,110.5 Z"/></g>
<g><path style="opacity:1" fill="#0f0c0d" d="M 14.5,128.5 C 15.9217,128.709 17.255,129.209 18.5,130C 24.7066,135.875 31.2066,141.375 38,146.5C 38.4974,149.146 38.6641,151.813 38.5,154.5C 37.5386,152.735 37.2053,150.735 37.5,148.5C 34.6424,147.821 32.1424,146.488 30,144.5C 29.2195,145.944 29.3861,147.277 30.5,148.5C 32.1333,147.256 33.1333,147.756 33.5,150C 32.5988,154.102 31.7655,154.269 31,150.5C 30.3333,154.5 29.6667,154.5 29,150.5C 27.951,152.107 26.451,152.773 24.5,152.5C 22.5853,152.216 20.9187,152.549 19.5,153.5C 14.7368,156.243 9.73679,158.577 4.5,160.5C 4.40027,163.108 5.06694,165.442 6.5,167.5C 6.66861,172.181 7.00195,176.848 7.5,181.5C 6.83333,181.5 6.16667,181.5 5.5,181.5C 3.52483,179.863 1.52483,178.196 -0.5,176.5C -0.5,162.833 -0.5,149.167 -0.5,135.5C 4.68487,133.406 9.68487,131.072 14.5,128.5 Z"/></g>
<g><path style="opacity:1" fill="#0c0b0d" d="M 126.5,135.5 C 127.496,135.414 128.329,135.748 129,136.5C 130.259,139.356 131.759,142.023 133.5,144.5C 133.56,145.043 133.893,145.376 134.5,145.5C 137.556,143.051 139.889,140.051 141.5,136.5C 149.011,140.085 156.011,144.418 162.5,149.5C 160.712,149.215 159.045,149.548 157.5,150.5C 158.668,151.906 158.335,153.072 156.5,154C 148.448,158.444 140.615,163.278 133,168.5C 132.501,172.821 132.334,177.154 132.5,181.5C 132.167,181.5 131.833,181.5 131.5,181.5C 131.666,176.821 131.499,172.155 131,167.5C 122.211,160.53 113.044,154.197 103.5,148.5C 103.5,148.167 103.5,147.833 103.5,147.5C 110.975,143.261 118.641,139.261 126.5,135.5 Z"/></g>
<g><path style="opacity:1" fill="#4d4a4a" d="M 135.5,107.5 C 135.5,107.833 135.5,108.167 135.5,108.5C 134.861,116.933 134.194,125.266 133.5,133.5C 130.65,132.072 129.65,132.739 130.5,135.5C 131.836,137.01 133.003,138.677 134,140.5C 134.765,142.066 134.598,143.399 133.5,144.5C 131.759,142.023 130.259,139.356 129,136.5C 128.329,135.748 127.496,135.414 126.5,135.5C 127.506,134.604 127.506,133.938 126.5,133.5C 126.369,132.761 126.536,132.094 127,131.5C 128.297,132.784 129.464,132.617 130.5,131C 128.316,128.984 126.316,126.817 124.5,124.5C 128.031,119.436 131.031,114.103 133.5,108.5C 134.167,108.167 134.833,107.833 135.5,107.5 Z"/></g>
<g><path style="opacity:1" fill="#0b0c0e" d="M 210.5,141.5 C 215.771,144.473 221.104,147.473 226.5,150.5C 227.575,152.811 227.575,155.144 226.5,157.5C 225.504,157.586 224.671,157.252 224,156.5C 222.908,159.044 222.241,161.711 222,164.5C 221.793,160.911 221.293,157.411 220.5,154C 213.408,150.914 206.241,148.414 199,146.5C 198.5,146.667 198,146.833 197.5,147C 198.743,148.154 199.743,149.488 200.5,151C 201.784,151.684 202.951,151.517 204,150.5C 204.494,152.134 204.66,153.801 204.5,155.5C 209.468,157.419 214.135,158.086 218.5,157.5C 212.651,161.352 206.817,165.352 201,169.5C 200.501,173.486 200.334,177.486 200.5,181.5C 199.833,181.5 199.167,181.5 198.5,181.5C 198.675,177.459 198.842,173.459 199,169.5C 189.584,163.541 180.084,157.708 170.5,152C 168.937,151.241 167.937,150.074 167.5,148.5C 168.5,147.833 169.5,147.167 170.5,146.5C 178.403,142.299 186.236,137.965 194,133.5C 199.557,136.028 205.057,138.695 210.5,141.5 Z"/></g>
<g><path style="opacity:1" fill="#0e0c0d" d="M 84.5,137.5 C 89.6148,140.565 94.6148,143.898 99.5,147.5C 100.877,156.447 101.544,165.447 101.5,174.5C 97.9601,174.247 94.6267,173.581 91.5,172.5C 94.1194,172.232 96.6194,172.565 99,173.5C 99.658,171.892 99.158,170.725 97.5,170C 98.1258,169.25 98.6258,168.416 99,167.5C 99.4995,161.175 99.6662,154.842 99.5,148.5C 88.77,154.216 77.4367,160.216 65.5,166.5C 57.2079,160.21 49.2079,153.543 41.5,146.5C 41.5,146.167 41.5,145.833 41.5,145.5C 46.5307,142.655 51.8641,140.322 57.5,138.5C 59.2666,140.89 61.5999,142.557 64.5,143.5C 73.1755,147.718 79.8421,145.718 84.5,137.5 Z"/></g>
<g><path style="opacity:1" fill="#a84b5c" d="M 137.5,133.5 C 137.842,132.662 138.508,132.328 139.5,132.5C 147.139,137.323 154.805,142.156 162.5,147C 164.066,147.765 165.399,147.598 166.5,146.5C 167.609,146.443 168.609,146.11 169.5,145.5C 170.167,145.5 170.5,145.833 170.5,146.5C 169.5,147.167 168.5,147.833 167.5,148.5C 166.883,148.611 166.383,148.944 166,149.5C 165.066,157.476 164.566,165.476 164.5,173.5C 163.518,170.038 163.185,166.371 163.5,162.5C 163.818,157.968 163.485,153.634 162.5,149.5C 156.011,144.418 149.011,140.085 141.5,136.5C 141.5,135.167 140.833,134.5 139.5,134.5C 138.833,134.167 138.167,133.833 137.5,133.5 Z"/></g>
<g><path style="opacity:1" fill="#7f242c" d="M 255.5,129.5 C 255.5,131.167 255.5,132.833 255.5,134.5C 248.13,139.513 240.796,144.513 233.5,149.5C 232.391,149.557 231.391,149.89 230.5,150.5C 229.022,156.962 228.022,163.628 227.5,170.5C 227.276,174.179 226.942,177.846 226.5,181.5C 225.833,181.5 225.167,181.5 224.5,181.5C 225.073,173.492 225.739,165.492 226.5,157.5C 227.575,155.144 227.575,152.811 226.5,150.5C 221.104,147.473 215.771,144.473 210.5,141.5C 211.5,141.5 212.5,141.5 213.5,141.5C 216.352,143.091 219.352,144.424 222.5,145.5C 224.378,146.208 226.045,147.374 227.5,149C 228.749,149.74 229.749,149.573 230.5,148.5C 231.5,147.833 232.5,147.167 233.5,146.5C 236.5,144.5 239.5,142.5 242.5,140.5C 246.405,138.39 250.072,136.057 253.5,133.5C 253.989,132.005 254.655,130.671 255.5,129.5 Z"/></g>
<g><path style="opacity:1" fill="#3b191f" d="M 41.5,145.5 C 41.5,145.833 41.5,146.167 41.5,146.5C 40.9033,146.735 40.5699,147.235 40.5,148C 41.8591,154.424 42.5258,160.924 42.5,167.5C 41.391,161.161 40.391,154.661 39.5,148C 39.6842,146.624 40.3509,145.791 41.5,145.5 Z"/></g>
<g><path style="opacity:1" fill="#0b0d0f" d="M 255.5,134.5 C 255.5,144.167 255.5,153.833 255.5,163.5C 247.633,160.233 239.966,156.4 232.5,152C 233.252,151.329 233.586,150.496 233.5,149.5C 240.796,144.513 248.13,139.513 255.5,134.5 Z"/></g>
<g><path style="opacity:1" fill="#171b1e" d="M 41.5,146.5 C 49.2079,153.543 57.2079,160.21 65.5,166.5C 65.5,171.5 65.5,176.5 65.5,181.5C 58.5,181.5 51.5,181.5 44.5,181.5C 43.0187,176.988 42.352,172.322 42.5,167.5C 42.5258,160.924 41.8591,154.424 40.5,148C 40.5699,147.235 40.9033,146.735 41.5,146.5 Z"/></g>
<g><path style="opacity:1" fill="#07080a" d="M 91.5,172.5 C 89.8561,172.286 88.3561,172.62 87,173.5C 86.5026,176.146 86.3359,178.813 86.5,181.5C 79.5,181.5 72.5,181.5 65.5,181.5C 65.5,176.5 65.5,171.5 65.5,166.5C 77.4367,160.216 88.77,154.216 99.5,148.5C 99.6662,154.842 99.4995,161.175 99,167.5C 98.6258,168.416 98.1258,169.25 97.5,170C 99.158,170.725 99.658,171.892 99,173.5C 96.6194,172.565 94.1194,172.232 91.5,172.5 Z"/></g>
<g><path style="opacity:1" fill="#0a0809" d="M 38.5,154.5 C 39.6474,161.666 40.6474,168.999 41.5,176.5C 41.2755,178.455 40.6089,180.121 39.5,181.5C 35.1667,181.5 30.8333,181.5 26.5,181.5C 26.0318,171.819 25.3652,162.152 24.5,152.5C 26.451,152.773 27.951,152.107 29,150.5C 29.6667,154.5 30.3333,154.5 31,150.5C 31.7655,154.269 32.5988,154.102 33.5,150C 33.1333,147.756 32.1333,147.256 30.5,148.5C 29.3861,147.277 29.2195,145.944 30,144.5C 32.1424,146.488 34.6424,147.821 37.5,148.5C 37.2053,150.735 37.5386,152.735 38.5,154.5 Z"/></g>
<g><path style="opacity:1" fill="#070708" d="M 162.5,149.5 C 163.485,153.634 163.818,157.968 163.5,162.5C 162.51,168.645 162.177,174.978 162.5,181.5C 152.5,181.5 142.5,181.5 132.5,181.5C 132.334,177.154 132.501,172.821 133,168.5C 140.615,163.278 148.448,158.444 156.5,154C 158.335,153.072 158.668,151.906 157.5,150.5C 159.045,149.548 160.712,149.215 162.5,149.5 Z"/></g>
<g><path style="opacity:1" fill="#1b1b1f" d="M 167.5,148.5 C 167.937,150.074 168.937,151.241 170.5,152C 180.084,157.708 189.584,163.541 199,169.5C 198.842,173.459 198.675,177.459 198.5,181.5C 187.167,181.5 175.833,181.5 164.5,181.5C 164.5,178.833 164.5,176.167 164.5,173.5C 164.566,165.476 165.066,157.476 166,149.5C 166.383,148.944 166.883,148.611 167.5,148.5 Z"/></g>
<g><path style="opacity:1" fill="#060709" d="M 226.5,157.5 C 225.739,165.492 225.073,173.492 224.5,181.5C 216.5,181.5 208.5,181.5 200.5,181.5C 200.334,177.486 200.501,173.486 201,169.5C 206.817,165.352 212.651,161.352 218.5,157.5C 214.135,158.086 209.468,157.419 204.5,155.5C 204.66,153.801 204.494,152.134 204,150.5C 202.951,151.517 201.784,151.684 200.5,151C 199.743,149.488 198.743,148.154 197.5,147C 198,146.833 198.5,146.667 199,146.5C 206.241,148.414 213.408,150.914 220.5,154C 221.293,157.411 221.793,160.911 222,164.5C 222.241,161.711 222.908,159.044 224,156.5C 224.671,157.252 225.504,157.586 226.5,157.5 Z"/></g>
<g><path style="opacity:0.984" fill="#1a1b1f" d="M 233.5,149.5 C 233.586,150.496 233.252,151.329 232.5,152C 239.966,156.4 247.633,160.233 255.5,163.5C 255.5,167.5 255.5,171.5 255.5,175.5C 253.863,177.475 252.196,179.475 250.5,181.5C 242.5,181.5 234.5,181.5 226.5,181.5C 226.942,177.846 227.276,174.179 227.5,170.5C 229.601,164.132 230.601,157.465 230.5,150.5C 231.391,149.89 232.391,149.557 233.5,149.5 Z"/></g>
<g><path style="opacity:1" fill="#361115" d="M 230.5,150.5 C 230.601,157.465 229.601,164.132 227.5,170.5C 228.022,163.628 229.022,156.962 230.5,150.5 Z"/></g>
<g><path style="opacity:1" fill="#1a1d20" d="M 103.5,148.5 C 113.044,154.197 122.211,160.53 131,167.5C 131.499,172.155 131.666,176.821 131.5,181.5C 129.5,181.5 127.5,181.5 125.5,181.5C 123.07,172.311 117.57,165.645 109,161.5C 108.798,159.744 108.298,158.078 107.5,156.5C 106.808,157.025 106.308,157.692 106,158.5C 105.243,156.685 104.41,155.019 103.5,153.5C 103.5,151.833 103.5,150.167 103.5,148.5 Z"/></g>
<g><path style="opacity:1" fill="#3d171c" d="M 102.5,147.5 C 102.833,147.5 103.167,147.5 103.5,147.5C 103.5,147.833 103.5,148.167 103.5,148.5C 103.5,150.167 103.5,151.833 103.5,153.5C 103.5,160.833 103.5,168.167 103.5,175.5C 102.508,175.672 101.842,175.338 101.5,174.5C 102.493,165.682 102.827,156.682 102.5,147.5 Z"/></g>
<g><path style="opacity:1" fill="#3c0c0e" d="M 19.5,153.5 C 20.8333,153.5 22.1667,153.5 23.5,153.5C 22.8429,159.456 22.8429,165.123 23.5,170.5C 20.6862,172.105 17.6862,173.105 14.5,173.5C 14.5,174.5 14.5,175.5 14.5,176.5C 12.4727,176.662 10.4727,176.495 8.5,176C 9.57622,174.274 9.74289,172.441 9,170.5C 8.66667,170.833 8.33333,171.167 8,171.5C 7.78997,169.942 7.28997,168.609 6.5,167.5C 5.06694,165.442 4.40027,163.108 4.5,160.5C 9.73679,158.577 14.7368,156.243 19.5,153.5 Z"/></g>
<g><path style="opacity:1" fill="#af5a69" d="M 84.5,135.5 C 87.1667,136.833 89.8333,138.167 92.5,139.5C 94.7703,141.975 97.437,143.975 100.5,145.5C 101.167,146.167 101.833,146.833 102.5,147.5C 102.827,156.682 102.493,165.682 101.5,174.5C 101.544,165.447 100.877,156.447 99.5,147.5C 94.6148,143.898 89.6148,140.565 84.5,137.5C 84.5,136.833 84.5,136.167 84.5,135.5 Z"/></g>
<g><path style="opacity:1" fill="#121215" d="M 103.5,153.5 C 104.41,155.019 105.243,156.685 106,158.5C 106.308,157.692 106.808,157.025 107.5,156.5C 108.298,158.078 108.798,159.744 109,161.5C 117.57,165.645 123.07,172.311 125.5,181.5C 119.5,181.5 113.5,181.5 107.5,181.5C 107.167,180.833 106.833,180.167 106.5,179.5C 106.532,177.381 105.532,176.048 103.5,175.5C 103.5,168.167 103.5,160.833 103.5,153.5 Z"/></g>
<g><path style="opacity:1" fill="#340b0c" d="M 19.5,153.5 C 20.9187,152.549 22.5853,152.216 24.5,152.5C 25.3652,162.152 26.0318,171.819 26.5,181.5C 20.1667,181.5 13.8333,181.5 7.5,181.5C 7.00195,176.848 6.66861,172.181 6.5,167.5C 7.28997,168.609 7.78997,169.942 8,171.5C 8.33333,171.167 8.66667,170.833 9,170.5C 9.74289,172.441 9.57622,174.274 8.5,176C 10.4727,176.495 12.4727,176.662 14.5,176.5C 14.5,175.5 14.5,174.5 14.5,173.5C 17.6862,173.105 20.6862,172.105 23.5,170.5C 22.8429,165.123 22.8429,159.456 23.5,153.5C 22.1667,153.5 20.8333,153.5 19.5,153.5 Z"/></g>
<g><path style="opacity:1" fill="#574b14" d="M 91.5,172.5 C 94.6267,173.581 97.9601,174.247 101.5,174.5C 101.842,175.338 102.508,175.672 103.5,175.5C 105.532,176.048 106.532,177.381 106.5,179.5C 100.49,176.995 94.1562,175.662 87.5,175.5C 87.5,177.5 87.5,179.5 87.5,181.5C 87.1667,181.5 86.8333,181.5 86.5,181.5C 86.3359,178.813 86.5026,176.146 87,173.5C 88.3561,172.62 89.8561,172.286 91.5,172.5 Z"/></g>
<g><path style="opacity:1" fill="#802c38" d="M 163.5,162.5 C 163.185,166.371 163.518,170.038 164.5,173.5C 164.5,176.167 164.5,178.833 164.5,181.5C 163.833,181.5 163.167,181.5 162.5,181.5C 162.177,174.978 162.51,168.645 163.5,162.5 Z"/></g>
<g><path style="opacity:1" fill="#7c6e22" d="M 106.5,179.5 C 106.833,180.167 107.167,180.833 107.5,181.5C 100.833,181.5 94.1667,181.5 87.5,181.5C 87.5,179.5 87.5,177.5 87.5,175.5C 94.1562,175.662 100.49,176.995 106.5,179.5 Z"/></g>
</svg>
