<?xml version="1.0" encoding="UTF-8"?>
<!DOCTYPE svg PUBLIC "-//W3C//DTD SVG 1.1//EN" "http://www.w3.org/Graphics/SVG/1.1/DTD/svg11.dtd">
<svg xmlns="http://www.w3.org/2000/svg" version="1.1" width="25px" height="24px" style="shape-rendering:geometricPrecision; text-rendering:geometricPrecision; image-rendering:optimizeQuality; fill-rule:evenodd; clip-rule:evenodd" xmlns:xlink="http://www.w3.org/1999/xlink">
<g><path style="opacity:0.412" fill="#fefffe" d="M 6.5,0.5 C 11.536,0.0615929 16.3693,0.72826 21,2.5C 22.0653,5.37542 22.5653,8.37542 22.5,11.5C 23.9385,19.8946 20.4385,23.5613 12,22.5C 8.2043,22.8615 4.87096,21.8615 2,19.5C 1.33333,14.1667 1.33333,8.83333 2,3.5C 3.40875,2.21886 4.90875,1.21886 6.5,0.5 Z M 18.5,4.5 C 20.9497,8.9544 21.1164,13.6211 19,18.5C 14.2183,19.8023 9.38498,19.8023 4.5,18.5C 3.38974,13.8887 3.22307,9.22199 4,4.5C 8.93294,3.17637 13.7663,3.17637 18.5,4.5 Z M 9.5,8.5 C 14.1585,8.01463 15.4919,9.84796 13.5,14C 8.72816,14.8104 7.39483,12.9771 9.5,8.5 Z"/></g>
<g><path style="opacity:0.304" fill="#fefffe" d="M 18.5,4.5 C 18.7148,6.17876 18.0481,7.17876 16.5,7.5C 16.5,6.83333 16.1667,6.5 15.5,6.5C 15.9731,5.09368 16.9731,4.42702 18.5,4.5 Z"/></g>
<g><path style="opacity:0.418" fill="#fefffe" d="M 15.5,6.5 C 16.1667,6.5 16.5,6.83333 16.5,7.5C 18.6104,15.1798 15.9437,18.0131 8.5,16C 5.08682,10.9844 6.25348,7.48445 12,5.5C 13.1385,5.98913 14.3052,6.32246 15.5,6.5 Z M 9.5,8.5 C 7.39483,12.9771 8.72816,14.8104 13.5,14C 15.4919,9.84796 14.1585,8.01463 9.5,8.5 Z"/></g>
</svg>
