<?xml version="1.0" encoding="UTF-8"?>
<!DOCTYPE svg PUBLIC "-//W3C//DTD SVG 1.1//EN" "http://www.w3.org/Graphics/SVG/1.1/DTD/svg11.dtd">
<svg xmlns="http://www.w3.org/2000/svg" version="1.1" width="25px" height="24px" style="shape-rendering:geometricPrecision; text-rendering:geometricPrecision; image-rendering:optimizeQuality; fill-rule:evenodd; clip-rule:evenodd" xmlns:xlink="http://www.w3.org/1999/xlink">
<g><path style="opacity:0.434" fill="#fefffe" d="M 4.5,5.5 C 7.17946,5.67258 9.51279,6.67258 11.5,8.5C 13.5717,5.26614 15.905,4.93281 18.5,7.5C 19.2575,6.18861 20.2575,5.68861 21.5,6C 22.6219,9.40851 22.7886,12.9085 22,16.5C 20.5944,17.6682 19.4277,17.3348 18.5,15.5C 15.905,18.0672 13.5717,17.7339 11.5,14.5C 6.53323,18.8947 2.86657,18.0614 0.5,12C 0.722473,9.03787 2.05581,6.8712 4.5,5.5 Z M 4.5,8.5 C 9.15854,8.01463 10.4919,9.84796 8.5,14C 3.22092,14.5848 1.88758,12.7514 4.5,8.5 Z M 14.5,8.5 C 16.9238,10.2276 17.0904,12.2276 15,14.5C 13.2041,12.5983 13.0374,10.5983 14.5,8.5 Z"/></g>
</svg>
