<?xml version="1.0" encoding="UTF-8"?>
<!DOCTYPE svg PUBLIC "-//W3C//DTD SVG 1.1//EN" "http://www.w3.org/Graphics/SVG/1.1/DTD/svg11.dtd">
<svg xmlns="http://www.w3.org/2000/svg" version="1.1" width="25px" height="24px" style="shape-rendering:geometricPrecision; text-rendering:geometricPrecision; image-rendering:optimizeQuality; fill-rule:evenodd; clip-rule:evenodd" xmlns:xlink="http://www.w3.org/1999/xlink">
<g><path style="opacity:0.417" fill="#fefffe" d="M 1.5,1.5 C 3.85684,1.33669 6.19018,1.50335 8.5,2C 10.2929,3.77991 11.9596,5.61324 13.5,7.5C 15.8333,5.5 18.1667,3.5 20.5,1.5C 21.5827,2.36495 21.7494,3.36495 21,4.5C 18.9824,6.35009 17.1491,8.35009 15.5,10.5C 18.3067,13.784 20.3067,17.4507 21.5,21.5C 19.1432,21.6633 16.8098,21.4966 14.5,21C 13.3783,18.8762 11.8783,17.0429 10,15.5C 8.16667,17.3333 6.33333,19.1667 4.5,21C 3.36495,21.7494 2.36495,21.5827 1.5,20.5C 3.64988,17.8494 5.98321,15.3494 8.5,13C 5.91413,9.26364 3.58079,5.43031 1.5,1.5 Z M 5.5,4.5 C 6.07683,3.22671 6.7435,3.22671 7.5,4.5C 10.8025,9.60265 14.4691,14.436 18.5,19C 17.0039,19.5074 15.8373,19.0074 15,17.5C 11.9701,12.9845 8.80344,8.65117 5.5,4.5 Z"/></g>
</svg>
