<?xml version="1.0" encoding="UTF-8"?>
<!DOCTYPE svg PUBLIC "-//W3C//DTD SVG 1.1//EN" "http://www.w3.org/Graphics/SVG/1.1/DTD/svg11.dtd">
<svg xmlns="http://www.w3.org/2000/svg" version="1.1" width="53px" height="53px" style="shape-rendering:geometricPrecision; text-rendering:geometricPrecision; image-rendering:optimizeQuality; fill-rule:evenodd; clip-rule:evenodd" xmlns:xlink="http://www.w3.org/1999/xlink">
<g><path style="opacity:0.974" fill="#e8bd1d" d="M 18.5,-0.5 C 23.5,-0.5 28.5,-0.5 33.5,-0.5C 42.8333,2.83333 49.1667,9.16667 52.5,18.5C 52.5,22.5 52.5,26.5 52.5,30.5C 48.8455,28.9886 45.1788,28.6553 41.5,29.5C 40.6745,25.0181 40.1745,20.3514 40,15.5C 39.3918,13.9336 38.5585,12.6002 37.5,11.5C 37.6716,10.5084 37.3382,9.84171 36.5,9.5C 35.2056,6.26439 32.7056,4.93106 29,5.5C 25.4552,5.03856 22.7885,6.37189 21,9.5C 18.0914,18.0785 14.4247,26.4118 10,34.5C 8.84613,38.104 8.0128,41.7707 7.5,45.5C 3.82891,42.1544 1.16224,38.1544 -0.5,33.5C -0.5,28.5 -0.5,23.5 -0.5,18.5C 2.83333,9.16667 9.16667,2.83333 18.5,-0.5 Z"/></g>
<g><path style="opacity:1" fill="#49837f" d="M 36.5,9.5 C 34.1323,7.90008 31.4656,6.90008 28.5,6.5C 25.5935,7.89741 23.0935,9.89741 21,12.5C 18.3476,19.4415 15.8476,26.4415 13.5,33.5C 12.5416,33.9528 11.7083,34.6195 11,35.5C 9.84613,39.104 9.0128,42.7707 8.5,46.5C 7.83333,46.5 7.5,46.1667 7.5,45.5C 8.0128,41.7707 8.84613,38.104 10,34.5C 14.4247,26.4118 18.0914,18.0785 21,9.5C 22.7885,6.37189 25.4552,5.03856 29,5.5C 32.7056,4.93106 35.2056,6.26439 36.5,9.5 Z"/></g>
<g><path style="opacity:1" fill="#d47d6b" d="M 30.5,18.5 C 29.3065,18.9704 28.6399,19.9704 28.5,21.5C 29.7941,23.5931 30.4608,25.5931 30.5,27.5C 29.91,28.7989 28.91,29.6322 27.5,30C 28.0253,30.6924 28.6919,31.1924 29.5,31.5C 30.8518,30.4756 32.1851,29.4756 33.5,28.5C 33.765,32.7291 32.5984,36.3958 30,39.5C 28.2478,34.5992 25.9145,29.9325 23,25.5C 22.5065,23.8659 22.3398,22.1992 22.5,20.5C 26.9707,20.3276 27.3041,19.4943 23.5,18C 25,17.5 26.5,17 28,16.5C 29.301,16.6387 30.1344,17.3054 30.5,18.5 Z"/></g>
<g><path style="opacity:1" fill="#f1a895" d="M 34.5,27.5 C 34.5,28.1667 34.1667,28.5 33.5,28.5C 32.1851,29.4756 30.8518,30.4756 29.5,31.5C 28.6919,31.1924 28.0253,30.6924 27.5,30C 28.91,29.6322 29.91,28.7989 30.5,27.5C 30.4608,25.5931 29.7941,23.5931 28.5,21.5C 28.6399,19.9704 29.3065,18.9704 30.5,18.5C 33.8948,17.0227 34.5615,17.356 32.5,19.5C 33.325,20.3857 34.325,20.719 35.5,20.5C 35.702,22.9496 35.3686,25.283 34.5,27.5 Z"/></g>
<g><path style="opacity:1" fill="#4b3221" d="M 37.5,11.5 C 38.5585,12.6002 39.3918,13.9336 40,15.5C 40.1745,20.3514 40.6745,25.0181 41.5,29.5C 40.1516,30.1859 38.985,31.1859 38,32.5C 37.6258,31.5838 37.1258,30.7504 36.5,30C 38.4206,28.7592 38.754,27.2592 37.5,25.5C 36.7348,26.6119 35.7348,27.2786 34.5,27.5C 35.3686,25.283 35.702,22.9496 35.5,20.5C 34.325,20.719 33.325,20.3857 32.5,19.5C 34.5615,17.356 33.8948,17.0227 30.5,18.5C 30.1344,17.3054 29.301,16.6387 28,16.5C 26.5,17 25,17.5 23.5,18C 27.3041,19.4943 26.9707,20.3276 22.5,20.5C 20.8158,16.5702 21.6491,13.2369 25,10.5C 27.9113,12.1235 31.078,13.2902 34.5,14C 35.5604,16.7367 36.3937,19.57 37,22.5C 37.5,21.5 38,20.5 38.5,19.5C 36.5576,16.8519 36.2243,14.1852 37.5,11.5 Z"/></g>
<g><path style="opacity:0.807" fill="#040302" d="M 52.5,32.5 C 52.5,32.8333 52.5,33.1667 52.5,33.5C 51.2564,36.9823 49.2564,39.9823 46.5,42.5C 45.9332,40.9705 45.2666,39.4705 44.5,38C 46.5203,34.9939 49.1869,33.1606 52.5,32.5 Z"/></g>
<g><path style="opacity:1" fill="#3e291a" d="M 17.5,51.5 C 14.0434,50.6062 11.0434,48.9395 8.5,46.5C 9.0128,42.7707 9.84613,39.104 11,35.5C 11.7083,34.6195 12.5416,33.9528 13.5,33.5C 14.2216,33.0825 14.7216,32.4158 15,31.5C 16.092,34.0444 16.7586,36.7111 17,39.5C 18.016,40.6341 18.6827,40.3008 19,38.5C 19.1397,41.0432 19.8063,43.3766 21,45.5C 21.3333,44.8333 21.6667,44.1667 22,43.5C 23.128,45.3453 23.628,47.3453 23.5,49.5C 21.8561,49.7135 20.3561,49.3802 19,48.5C 17.9614,49.2438 17.4614,50.2438 17.5,51.5 Z"/></g>
<g><path style="opacity:1" fill="#3c2718" d="M 52.5,31.5 C 52.5,31.8333 52.5,32.1667 52.5,32.5C 49.1869,33.1606 46.5203,34.9939 44.5,38C 45.2666,39.4705 45.9332,40.9705 46.5,42.5C 46.6716,43.4916 46.3382,44.1583 45.5,44.5C 45.3146,42.8042 44.4813,41.4709 43,40.5C 42.6667,41.1667 42.3333,41.8333 42,42.5C 40.896,34.6148 39.2294,34.6148 37,42.5C 36.5026,45.146 36.3359,47.8127 36.5,50.5C 35.5,51.1667 34.5,51.8333 33.5,52.5C 32.8333,52.5 32.1667,52.5 31.5,52.5C 31.5792,51.0695 31.2458,49.7362 30.5,48.5C 32.7787,45.8531 34.2787,42.1864 35,37.5C 35.3333,38.5 35.6667,39.5 36,40.5C 36.3333,38.1667 36.6667,35.8333 37,33.5C 37.6667,36.1667 38.3333,36.1667 39,33.5C 40.3333,34.8333 41.6667,36.1667 43,37.5C 43.6172,36.5509 43.4506,35.7175 42.5,35C 43.3081,34.6924 43.9747,34.1924 44.5,33.5C 37.956,32.5912 38.1227,31.5912 45,30.5C 47.4339,31.3223 49.9339,31.6556 52.5,31.5 Z"/></g>
<g><path style="opacity:1" fill="#1f160f" d="M 45.5,44.5 C 43.0495,47.2768 40.0495,49.2768 36.5,50.5C 36.3359,47.8127 36.5026,45.146 37,42.5C 39.2294,34.6148 40.896,34.6148 42,42.5C 42.3333,41.8333 42.6667,41.1667 43,40.5C 44.4813,41.4709 45.3146,42.8042 45.5,44.5 Z"/></g>
<g><path style="opacity:1" fill="#1d150f" d="M 36.5,9.5 C 37.3382,9.84171 37.6716,10.5084 37.5,11.5C 36.2243,14.1852 36.5576,16.8519 38.5,19.5C 38,20.5 37.5,21.5 37,22.5C 36.3937,19.57 35.5604,16.7367 34.5,14C 31.078,13.2902 27.9113,12.1235 25,10.5C 21.6491,13.2369 20.8158,16.5702 22.5,20.5C 22.3398,22.1992 22.5065,23.8659 23,25.5C 25.9145,29.9325 28.2478,34.5992 30,39.5C 32.5984,36.3958 33.765,32.7291 33.5,28.5C 34.1667,28.5 34.5,28.1667 34.5,27.5C 35.7348,27.2786 36.7348,26.6119 37.5,25.5C 38.754,27.2592 38.4206,28.7592 36.5,30C 37.1258,30.7504 37.6258,31.5838 38,32.5C 38.985,31.1859 40.1516,30.1859 41.5,29.5C 45.1788,28.6553 48.8455,28.9886 52.5,30.5C 52.5,30.8333 52.5,31.1667 52.5,31.5C 49.9339,31.6556 47.4339,31.3223 45,30.5C 38.1227,31.5912 37.956,32.5912 44.5,33.5C 43.9747,34.1924 43.3081,34.6924 42.5,35C 43.4506,35.7175 43.6172,36.5509 43,37.5C 41.6667,36.1667 40.3333,34.8333 39,33.5C 38.3333,36.1667 37.6667,36.1667 37,33.5C 36.6667,35.8333 36.3333,38.1667 36,40.5C 35.6667,39.5 35.3333,38.5 35,37.5C 34.2787,42.1864 32.7787,45.8531 30.5,48.5C 31.2458,49.7362 31.5792,51.0695 31.5,52.5C 27.1667,52.5 22.8333,52.5 18.5,52.5C 18.5,51.8333 18.1667,51.5 17.5,51.5C 17.4614,50.2438 17.9614,49.2438 19,48.5C 20.3561,49.3802 21.8561,49.7135 23.5,49.5C 23.628,47.3453 23.128,45.3453 22,43.5C 21.6667,44.1667 21.3333,44.8333 21,45.5C 19.8063,43.3766 19.1397,41.0432 19,38.5C 18.6827,40.3008 18.016,40.6341 17,39.5C 16.7586,36.7111 16.092,34.0444 15,31.5C 14.7216,32.4158 14.2216,33.0825 13.5,33.5C 15.8476,26.4415 18.3476,19.4415 21,12.5C 23.0935,9.89741 25.5935,7.89741 28.5,6.5C 31.4656,6.90008 34.1323,7.90008 36.5,9.5 Z"/></g>
</svg>
