<?xml version="1.0" encoding="UTF-8"?>
<!DOCTYPE svg PUBLIC "-//W3C//DTD SVG 1.1//EN" "http://www.w3.org/Graphics/SVG/1.1/DTD/svg11.dtd">
<svg xmlns="http://www.w3.org/2000/svg" version="1.1" width="25px" height="24px" style="shape-rendering:geometricPrecision; text-rendering:geometricPrecision; image-rendering:optimizeQuality; fill-rule:evenodd; clip-rule:evenodd" xmlns:xlink="http://www.w3.org/1999/xlink">
<g><path style="opacity:0.421" fill="#fefffe" d="M 17.5,1.5 C 19.1667,1.5 20.8333,1.5 22.5,1.5C 22.3796,6.93695 21.5463,12.2703 20,17.5C 19.8817,19.5733 18.8817,20.9067 17,21.5C 15.0561,20.5606 13.3894,19.2273 12,17.5C 8.26355,20.5227 6.09688,19.5227 5.5,14.5C 3.35422,13.4441 1.68755,11.9441 0.5,10C 5.92111,6.62278 11.5878,3.78944 17.5,1.5 Z M 19.5,3.5 C 20.0967,3.7352 20.4301,4.2352 20.5,5C 19.333,9.5025 18.1663,14.0025 17,18.5C 15.5,17 14,15.5 12.5,14C 14.2134,12.6218 15.5467,10.9552 16.5,9C 13.7202,8.73084 11.5536,9.89751 10,12.5C 10.6171,14.0948 10.2837,15.4281 9,16.5C 8.45918,13.791 6.95918,11.791 4.5,10.5C 9.48268,7.95892 14.4827,5.62559 19.5,3.5 Z"/></g>
</svg>
