<?xml version="1.0" encoding="UTF-8"?>
<!DOCTYPE svg PUBLIC "-//W3C//DTD SVG 1.1//EN" "http://www.w3.org/Graphics/SVG/1.1/DTD/svg11.dtd">
<svg xmlns="http://www.w3.org/2000/svg" version="1.1" width="18px" height="18px" style="shape-rendering:geometricPrecision; text-rendering:geometricPrecision; image-rendering:optimizeQuality; fill-rule:evenodd; clip-rule:evenodd" xmlns:xlink="http://www.w3.org/1999/xlink">
<g><path style="opacity:0.4" fill="#fefffe" d="M 7.5,-0.5 C 8.16667,-0.5 8.83333,-0.5 9.5,-0.5C 12.4256,1.08377 15.0922,3.08377 17.5,5.5C 17.5,6.83333 17.5,8.16667 17.5,9.5C 17.0146,12.5692 15.6813,15.2359 13.5,17.5C 10.1667,17.5 6.83333,17.5 3.5,17.5C 1.31873,15.2359 -0.0146018,12.5692 -0.5,9.5C -0.5,8.16667 -0.5,6.83333 -0.5,5.5C 1.90777,3.08377 4.57444,1.08377 7.5,-0.5 Z M 6.5,2.5 C 12.8437,2.92738 15.3437,6.26072 14,12.5C 13.2747,14.158 12.108,14.658 10.5,14C 10.9574,13.586 11.2907,13.086 11.5,12.5C 9.5,11.1667 7.5,11.1667 5.5,12.5C 6.02527,13.1924 6.69194,13.6924 7.5,14C 5.56652,14.7826 4.06652,14.2826 3,12.5C 2.18591,10.0982 2.35258,7.76488 3.5,5.5C 4.85493,4.81181 5.85493,3.81181 6.5,2.5 Z"/></g>
</svg>
