<?xml version="1.0" encoding="UTF-8"?>
<!DOCTYPE svg PUBLIC "-//W3C//DTD SVG 1.1//EN" "http://www.w3.org/Graphics/SVG/1.1/DTD/svg11.dtd">
<svg xmlns="http://www.w3.org/2000/svg" version="1.1" width="89px" height="58px" style="shape-rendering:geometricPrecision; text-rendering:geometricPrecision; image-rendering:optimizeQuality; fill-rule:evenodd; clip-rule:evenodd" xmlns:xlink="http://www.w3.org/1999/xlink">
<g><path style="opacity:0.997" fill="#0b0c09" d="M 1.5,-0.5 C 29.8333,-0.5 58.1667,-0.5 86.5,-0.5C 86.8333,0.5 87.5,1.16667 88.5,1.5C 88.5,9.5 88.5,17.5 88.5,25.5C 82.3168,23.0373 75.9835,21.0373 69.5,19.5C 60.9832,19.1739 52.6499,19.5073 44.5,20.5C 42.5,20.8333 40.5,21.1667 38.5,21.5C 34.062,22.5749 32.062,20.9083 32.5,16.5C 30.1944,16.0074 27.861,15.6741 25.5,15.5C 24.8333,15.5 24.1667,15.5 23.5,15.5C 20.0848,12.6105 16.9181,12.9438 14,16.5C 13.5008,21.1548 13.3342,25.8215 13.5,30.5C 14.0694,34.2447 14.4028,37.9114 14.5,41.5C 20.5746,42.5715 26.908,43.5715 33.5,44.5C 34.2625,45.2679 35.2625,45.7679 36.5,46C 33.0569,46.2213 32.7236,47.2213 35.5,49C 34.5509,49.6172 33.7175,49.4506 33,48.5C 31.8419,48.9981 31.0085,49.8315 30.5,51C 31.3914,53.2789 32.3914,55.4456 33.5,57.5C 22.8333,57.5 12.1667,57.5 1.5,57.5C 1.16667,56.5 0.5,55.8333 -0.5,55.5C -0.5,37.5 -0.5,19.5 -0.5,1.5C 0.5,1.16667 1.16667,0.5 1.5,-0.5 Z"/></g>
<g><path style="opacity:1" fill="#38300a" d="M 23.5,15.5 C 15.6636,14.3398 12.6636,17.6732 14.5,25.5C 14.5,27.1667 14.5,28.8333 14.5,30.5C 14.1667,30.5 13.8333,30.5 13.5,30.5C 13.3342,25.8215 13.5008,21.1548 14,16.5C 16.9181,12.9438 20.0848,12.6105 23.5,15.5 Z"/></g>
<g><path style="opacity:1" fill="#957c09" d="M 24.5,17.5 C 24.5,18.1667 24.5,18.8333 24.5,19.5C 24.1667,19.5 23.8333,19.5 23.5,19.5C 21.3888,18.2584 19.3888,18.2584 17.5,19.5C 16.5386,21.2646 16.2053,23.2646 16.5,25.5C 16.1667,25.5 15.8333,25.5 15.5,25.5C 14.2067,17.7878 17.2067,15.1211 24.5,17.5 Z"/></g>
<g><path style="opacity:1" fill="#3e350b" d="M 23.5,15.5 C 24.1667,15.5 24.8333,15.5 25.5,15.5C 25.8333,16.1667 26.1667,16.8333 26.5,17.5C 25.8333,17.5 25.1667,17.5 24.5,17.5C 24.1667,16.8333 23.8333,16.1667 23.5,15.5 Z"/></g>
<g><path style="opacity:1" fill="#1c1909" d="M 25.5,15.5 C 27.861,15.6741 30.1944,16.0074 32.5,16.5C 32.062,20.9083 34.062,22.5749 38.5,21.5C 38.5,21.8333 38.5,22.1667 38.5,22.5C 36.4727,22.6621 34.4727,22.4955 32.5,22C 31.5291,20.5187 30.1958,19.6854 28.5,19.5C 28.5,18.1667 27.8333,17.5 26.5,17.5C 26.1667,16.8333 25.8333,16.1667 25.5,15.5 Z"/></g>
<g><path style="opacity:1" fill="#735f09" d="M 24.5,17.5 C 25.1667,17.5 25.8333,17.5 26.5,17.5C 26.5,18.1667 26.5,18.8333 26.5,19.5C 26.1667,19.5 25.8333,19.5 25.5,19.5C 25.1667,19.5 24.8333,19.5 24.5,19.5C 24.5,18.8333 24.5,18.1667 24.5,17.5 Z"/></g>
<g><path style="opacity:1" fill="#483c0b" d="M 26.5,17.5 C 27.8333,17.5 28.5,18.1667 28.5,19.5C 28.1667,19.5 27.8333,19.5 27.5,19.5C 27.1667,19.5 26.8333,19.5 26.5,19.5C 26.5,18.8333 26.5,18.1667 26.5,17.5 Z"/></g>
<g><path style="opacity:1" fill="#1b190a" d="M 44.5,20.5 C 52.6499,19.5073 60.9832,19.1739 69.5,19.5C 75.1968,22.4623 81.1968,24.9623 87.5,27C 84.6235,29.437 81.2902,30.7703 77.5,31C 67.8338,31.9169 58.1671,32.7502 48.5,33.5C 58.9833,31.683 69.65,30.183 80.5,29C 84.3041,27.5057 83.9707,26.6724 79.5,26.5C 78.5,26.5 77.5,26.5 76.5,26.5C 75.4324,25.5655 74.099,25.2322 72.5,25.5C 67.0775,22.2548 61.0775,20.5881 54.5,20.5C 51.1667,20.5 47.8333,20.5 44.5,20.5 Z"/></g>
<g><path style="opacity:1" fill="#605009" d="M 23.5,15.5 C 23.8333,16.1667 24.1667,16.8333 24.5,17.5C 17.2067,15.1211 14.2067,17.7878 15.5,25.5C 15.1667,25.5 14.8333,25.5 14.5,25.5C 12.6636,17.6732 15.6636,14.3398 23.5,15.5 Z"/></g>
<g><path style="opacity:1" fill="#e0bd0a" d="M 23.5,19.5 C 23.5,20.5 23.5,21.5 23.5,22.5C 21.5,22.5 19.5,22.5 17.5,22.5C 17.5,21.5 17.5,20.5 17.5,19.5C 19.3888,18.2584 21.3888,18.2584 23.5,19.5 Z"/></g>
<g><path style="opacity:1" fill="#5c4c09" d="M 27.5,19.5 C 27.8333,19.5 28.1667,19.5 28.5,19.5C 30.1958,19.6854 31.5291,20.5187 32.5,22C 34.4727,22.4955 36.4727,22.6621 38.5,22.5C 48.4402,22.7485 58.1069,24.0819 67.5,26.5C 64.1667,26.5 60.8333,26.5 57.5,26.5C 55.3926,25.5318 53.0593,25.1984 50.5,25.5C 46.8171,23.7501 42.8171,23.0834 38.5,23.5C 35.4816,23.6646 32.4816,23.498 29.5,23C 28.1772,22.1841 27.5106,21.0174 27.5,19.5 Z"/></g>
<g><path style="opacity:1" fill="#c59f09" d="M 17.5,19.5 C 17.5,20.5 17.5,21.5 17.5,22.5C 19.5,22.5 21.5,22.5 23.5,22.5C 23.5,21.5 23.5,20.5 23.5,19.5C 23.8333,19.5 24.1667,19.5 24.5,19.5C 24.8333,19.5 25.1667,19.5 25.5,19.5C 25.2865,21.1439 25.6198,22.6439 26.5,24C 31.0148,24.6145 35.3481,25.4478 39.5,26.5C 38.1667,26.5 36.8333,26.5 35.5,26.5C 33.8333,26.5 32.1667,26.5 30.5,26.5C 25.9955,24.6697 21.3288,24.3364 16.5,25.5C 16.2053,23.2646 16.5386,21.2646 17.5,19.5 Z"/></g>
<g><path style="opacity:1" fill="#3c3309" d="M 44.5,20.5 C 47.8333,20.5 51.1667,20.5 54.5,20.5C 60.142,23.0799 66.142,24.7466 72.5,25.5C 74.099,25.2322 75.4324,25.5655 76.5,26.5C 75.8333,26.5 75.1667,26.5 74.5,26.5C 72.8333,26.5 71.1667,26.5 69.5,26.5C 68.8333,26.5 68.1667,26.5 67.5,26.5C 58.1069,24.0819 48.4402,22.7485 38.5,22.5C 38.5,22.1667 38.5,21.8333 38.5,21.5C 40.5,21.1667 42.5,20.8333 44.5,20.5 Z"/></g>
<g><path style="opacity:1" fill="#2b2509" d="M 54.5,20.5 C 61.0775,20.5881 67.0775,22.2548 72.5,25.5C 66.142,24.7466 60.142,23.0799 54.5,20.5 Z"/></g>
<g><path style="opacity:1" fill="#725f09" d="M 38.5,23.5 C 42.8171,23.0834 46.8171,23.7501 50.5,25.5C 46.1829,25.9166 42.1829,25.2499 38.5,23.5 Z"/></g>
<g><path style="opacity:1" fill="#debc0b" d="M 30.5,26.5 C 25.7863,26.1734 21.1196,26.5067 16.5,27.5C 22.4632,28.4959 28.4632,28.8293 34.5,28.5C 33.4324,29.4345 32.099,29.7678 30.5,29.5C 25.8696,30.2295 21.2029,30.5628 16.5,30.5C 15.5489,29.0813 15.2155,27.4147 15.5,25.5C 15.8333,25.5 16.1667,25.5 16.5,25.5C 21.3288,24.3364 25.9955,24.6697 30.5,26.5 Z"/></g>
<g><path style="opacity:1" fill="#967b08" d="M 25.5,19.5 C 25.8333,19.5 26.1667,19.5 26.5,19.5C 26.8333,19.5 27.1667,19.5 27.5,19.5C 27.5106,21.0174 28.1772,22.1841 29.5,23C 32.4816,23.498 35.4816,23.6646 38.5,23.5C 42.1829,25.2499 46.1829,25.9166 50.5,25.5C 53.0593,25.1984 55.3926,25.5318 57.5,26.5C 56.1667,26.5 54.8333,26.5 53.5,26.5C 48.8333,26.5 44.1667,26.5 39.5,26.5C 35.3481,25.4478 31.0148,24.6145 26.5,24C 25.6198,22.6439 25.2865,21.1439 25.5,19.5 Z"/></g>
<g><path style="opacity:1" fill="#eddc19" d="M 30.5,26.5 C 32.1667,26.5 33.8333,26.5 35.5,26.5C 36.5,27.1667 37.5,27.8333 38.5,28.5C 37.1667,28.5 35.8333,28.5 34.5,28.5C 28.4632,28.8293 22.4632,28.4959 16.5,27.5C 21.1196,26.5067 25.7863,26.1734 30.5,26.5 Z"/></g>
<g><path style="opacity:1" fill="#dcba0c" d="M 35.5,26.5 C 36.8333,26.5 38.1667,26.5 39.5,26.5C 44.1667,26.5 48.8333,26.5 53.5,26.5C 53.8333,27.1667 54.1667,27.8333 54.5,28.5C 54.1667,28.5 53.8333,28.5 53.5,28.5C 50.5,28.5 47.5,28.5 44.5,28.5C 42.5,28.5 40.5,28.5 38.5,28.5C 37.5,27.8333 36.5,27.1667 35.5,26.5 Z"/></g>
<g><path style="opacity:1" fill="#b1890c" d="M 53.5,26.5 C 54.8333,26.5 56.1667,26.5 57.5,26.5C 60.8333,26.5 64.1667,26.5 67.5,26.5C 68.1667,26.5 68.8333,26.5 69.5,26.5C 69.5,27.1667 69.5,27.8333 69.5,28.5C 66.8333,28.5 64.1667,28.5 61.5,28.5C 59.1667,28.5 56.8333,28.5 54.5,28.5C 54.1667,27.8333 53.8333,27.1667 53.5,26.5 Z"/></g>
<g><path style="opacity:1" fill="#7b5c0b" d="M 69.5,26.5 C 71.1667,26.5 72.8333,26.5 74.5,26.5C 74.1667,27.1667 73.8333,27.8333 73.5,28.5C 72.8333,28.5 72.1667,28.5 71.5,28.5C 70.8333,28.5 70.1667,28.5 69.5,28.5C 69.5,27.8333 69.5,27.1667 69.5,26.5 Z"/></g>
<g><path style="opacity:1" fill="#5a420b" d="M 74.5,26.5 C 75.1667,26.5 75.8333,26.5 76.5,26.5C 77.5,26.5 78.5,26.5 79.5,26.5C 78.0101,28.2798 76.0101,28.9465 73.5,28.5C 73.8333,27.8333 74.1667,27.1667 74.5,26.5 Z"/></g>
<g><path style="opacity:1" fill="#856e0a" d="M 14.5,25.5 C 14.8333,25.5 15.1667,25.5 15.5,25.5C 15.2155,27.4147 15.5489,29.0813 16.5,30.5C 16.5,31.1667 16.5,31.8333 16.5,32.5C 16.1667,32.5 15.8333,32.5 15.5,32.5C 14.6618,32.1583 14.3284,31.4916 14.5,30.5C 14.5,28.8333 14.5,27.1667 14.5,25.5 Z"/></g>
<g><path style="opacity:1" fill="#2e270a" d="M 79.5,26.5 C 83.9707,26.6724 84.3041,27.5057 80.5,29C 69.65,30.183 58.9833,31.683 48.5,33.5C 47.1667,33.5 45.8333,33.5 44.5,33.5C 47.0204,32.0818 49.6871,31.0818 52.5,30.5C 53.5,30.5 54.5,30.5 55.5,30.5C 61.0506,30.473 66.3839,29.8063 71.5,28.5C 72.1667,28.5 72.8333,28.5 73.5,28.5C 76.0101,28.9465 78.0101,28.2798 79.5,26.5 Z"/></g>
<g><path style="opacity:1" fill="#11110a" d="M 69.5,19.5 C 75.9835,21.0373 82.3168,23.0373 88.5,25.5C 88.5,26.8333 88.5,28.1667 88.5,29.5C 76.6903,32.8438 65.0236,34.8438 53.5,35.5C 48.772,37.5237 44.4387,40.0237 40.5,43C 37.8039,43.6738 35.4706,44.1738 33.5,44.5C 26.908,43.5715 20.5746,42.5715 14.5,41.5C 14.4028,37.9114 14.0694,34.2447 13.5,30.5C 13.8333,30.5 14.1667,30.5 14.5,30.5C 14.3284,31.4916 14.6618,32.1583 15.5,32.5C 16.1667,36.5 18.5,38.8333 22.5,39.5C 22.5,40.1667 22.8333,40.5 23.5,40.5C 25.9664,41.6341 28.633,41.8007 31.5,41C 37.1347,38.0713 42.8013,35.5713 48.5,33.5C 58.1671,32.7502 67.8338,31.9169 77.5,31C 81.2902,30.7703 84.6235,29.437 87.5,27C 81.1968,24.9623 75.1968,22.4623 69.5,19.5 Z"/></g>
<g><path style="opacity:1" fill="#8a7209" d="M 44.5,28.5 C 47.5,28.5 50.5,28.5 53.5,28.5C 50.8333,29.1667 48.1667,29.8333 45.5,30.5C 43.8333,30.5 42.1667,30.5 40.5,30.5C 39.1667,30.5 37.8333,30.5 36.5,30.5C 39.1667,29.8333 41.8333,29.1667 44.5,28.5 Z"/></g>
<g><path style="opacity:1" fill="#675609" d="M 53.5,28.5 C 53.8333,28.5 54.1667,28.5 54.5,28.5C 56.8333,28.5 59.1667,28.5 61.5,28.5C 59.5,29.1667 57.5,29.8333 55.5,30.5C 54.5,30.5 53.5,30.5 52.5,30.5C 50.1667,30.5 47.8333,30.5 45.5,30.5C 48.1667,29.8333 50.8333,29.1667 53.5,28.5 Z"/></g>
<g><path style="opacity:1" fill="#493d09" d="M 61.5,28.5 C 64.1667,28.5 66.8333,28.5 69.5,28.5C 70.1667,28.5 70.8333,28.5 71.5,28.5C 66.3839,29.8063 61.0506,30.473 55.5,30.5C 57.5,29.8333 59.5,29.1667 61.5,28.5 Z"/></g>
<g><path style="opacity:1" fill="#ad8b09" d="M 34.5,28.5 C 35.8333,28.5 37.1667,28.5 38.5,28.5C 40.5,28.5 42.5,28.5 44.5,28.5C 41.8333,29.1667 39.1667,29.8333 36.5,30.5C 36.1667,30.5 35.8333,30.5 35.5,30.5C 33.139,30.6741 30.8056,31.0074 28.5,31.5C 28.1667,31.5 27.8333,31.5 27.5,31.5C 28.5,30.8333 29.5,30.1667 30.5,29.5C 32.099,29.7678 33.4324,29.4345 34.5,28.5 Z"/></g>
<g><path style="opacity:1" fill="#d39e09" d="M 30.5,29.5 C 29.5,30.1667 28.5,30.8333 27.5,31.5C 23.8815,32.2436 20.2148,32.577 16.5,32.5C 16.5,31.8333 16.5,31.1667 16.5,30.5C 21.2029,30.5628 25.8696,30.2295 30.5,29.5 Z"/></g>
<g><path style="opacity:1" fill="#946f09" d="M 35.5,30.5 C 33.6287,31.7972 31.6287,32.7972 29.5,33.5C 27.8828,34.038 26.2161,34.3713 24.5,34.5C 25.5903,33.1429 26.9236,32.1429 28.5,31.5C 30.8056,31.0074 33.139,30.6741 35.5,30.5 Z"/></g>
<g><path style="opacity:1" fill="#775d09" d="M 35.5,30.5 C 35.8333,30.5 36.1667,30.5 36.5,30.5C 37.8333,30.5 39.1667,30.5 40.5,30.5C 37.8539,32.2525 34.8539,33.2525 31.5,33.5C 30.8333,33.5 30.1667,33.5 29.5,33.5C 31.6287,32.7972 33.6287,31.7972 35.5,30.5 Z"/></g>
<g><path style="opacity:1" fill="#ac780a" d="M 27.5,31.5 C 27.8333,31.5 28.1667,31.5 28.5,31.5C 26.9236,32.1429 25.5903,33.1429 24.5,34.5C 22.7354,35.4614 20.7354,35.7947 18.5,35.5C 17.8333,34.5 17.1667,33.5 16.5,32.5C 20.2148,32.577 23.8815,32.2436 27.5,31.5 Z"/></g>
<g><path style="opacity:0.998" fill="#0a0c09" d="M 88.5,29.5 C 88.5,38.1667 88.5,46.8333 88.5,55.5C 87.5,55.8333 86.8333,56.5 86.5,57.5C 68.8333,57.5 51.1667,57.5 33.5,57.5C 32.3914,55.4456 31.3914,53.2789 30.5,51C 31.0085,49.8315 31.8419,48.9981 33,48.5C 33.7175,49.4506 34.5509,49.6172 35.5,49C 32.7236,47.2213 33.0569,46.2213 36.5,46C 35.2625,45.7679 34.2625,45.2679 33.5,44.5C 35.4706,44.1738 37.8039,43.6738 40.5,43C 44.4387,40.0237 48.772,37.5237 53.5,35.5C 65.0236,34.8438 76.6903,32.8438 88.5,29.5 Z"/></g>
<g><path style="opacity:1" fill="#594409" d="M 40.5,30.5 C 42.1667,30.5 43.8333,30.5 45.5,30.5C 47.8333,30.5 50.1667,30.5 52.5,30.5C 49.6871,31.0818 47.0204,32.0818 44.5,33.5C 44.1667,33.5 43.8333,33.5 43.5,33.5C 41.8333,33.5 40.1667,33.5 38.5,33.5C 34.2571,34.2476 30.2571,35.5809 26.5,37.5C 27.6718,35.461 29.3384,34.1276 31.5,33.5C 34.8539,33.2525 37.8539,32.2525 40.5,30.5 Z"/></g>
<g><path style="opacity:1" fill="#382909" d="M 38.5,33.5 C 40.1667,33.5 41.8333,33.5 43.5,33.5C 38.9057,34.9863 34.5724,37.153 30.5,40C 28.1902,40.4966 25.8568,40.6633 23.5,40.5C 22.8333,40.5 22.5,40.1667 22.5,39.5C 28.4133,38.8887 33.7467,36.8887 38.5,33.5 Z"/></g>
<g><path style="opacity:1" fill="#241d09" d="M 43.5,33.5 C 43.8333,33.5 44.1667,33.5 44.5,33.5C 45.8333,33.5 47.1667,33.5 48.5,33.5C 42.8013,35.5713 37.1347,38.0713 31.5,41C 28.633,41.8007 25.9664,41.6341 23.5,40.5C 25.8568,40.6633 28.1902,40.4966 30.5,40C 34.5724,37.153 38.9057,34.9863 43.5,33.5 Z"/></g>
<g><path style="opacity:1" fill="#48360a" d="M 15.5,32.5 C 15.8333,32.5 16.1667,32.5 16.5,32.5C 17.1667,33.5 17.8333,34.5 18.5,35.5C 18.6107,36.1174 18.944,36.6174 19.5,37C 21.8098,37.4966 24.1432,37.6633 26.5,37.5C 30.2571,35.5809 34.2571,34.2476 38.5,33.5C 33.7467,36.8887 28.4133,38.8887 22.5,39.5C 18.5,38.8333 16.1667,36.5 15.5,32.5 Z"/></g>
<g><path style="opacity:1" fill="#754d0a" d="M 29.5,33.5 C 30.1667,33.5 30.8333,33.5 31.5,33.5C 29.3384,34.1276 27.6718,35.461 26.5,37.5C 24.1432,37.6633 21.8098,37.4966 19.5,37C 18.944,36.6174 18.6107,36.1174 18.5,35.5C 20.7354,35.7947 22.7354,35.4614 24.5,34.5C 26.2161,34.3713 27.8828,34.038 29.5,33.5 Z"/></g>
</svg>
