<?xml version="1.0" encoding="UTF-8"?>
<!DOCTYPE svg PUBLIC "-//W3C//DTD SVG 1.1//EN" "http://www.w3.org/Graphics/SVG/1.1/DTD/svg11.dtd">
<svg xmlns="http://www.w3.org/2000/svg" version="1.1" width="89px" height="58px" style="shape-rendering:geometricPrecision; text-rendering:geometricPrecision; image-rendering:optimizeQuality; fill-rule:evenodd; clip-rule:evenodd" xmlns:xlink="http://www.w3.org/1999/xlink">
<g><path style="opacity:1" fill="#2216ae" d="M 42.5,-0.5 C 45.1667,-0.5 47.8333,-0.5 50.5,-0.5C 50.6107,0.117425 50.944,0.617425 51.5,1C 50.405,3.19527 49.405,5.36194 48.5,7.5C 49.6682,8.9056 49.3348,10.0723 47.5,11C 48.1667,11.3333 48.8333,11.6667 49.5,12C 48.1927,14.3237 46.1927,15.657 43.5,16C 44.2524,16.6708 44.5858,17.5041 44.5,18.5C 40.5832,21.3631 37.9166,25.0298 36.5,29.5C 36.5,28.1667 36.5,26.8333 36.5,25.5C 36.9506,21.5211 38.1173,18.5211 40,16.5C 40.3333,12.8333 40.6667,9.16667 41,5.5C 43.8262,4.08256 43.9928,2.58256 41.5,1C 42.056,0.617425 42.3893,0.117425 42.5,-0.5 Z"/></g>
<g><path style="opacity:1" fill="#7121db" d="M 20.5,-0.5 C 21.8333,-0.5 23.1667,-0.5 24.5,-0.5C 23.2821,4.29317 21.9488,8.95984 20.5,13.5C 20.1667,13.5 19.8333,13.5 19.5,13.5C 20.1266,8.85921 20.4599,4.19254 20.5,-0.5 Z"/></g>
<g><path style="opacity:1" fill="#1d15a5" d="M 50.5,-0.5 C 52.5,-0.5 54.5,-0.5 56.5,-0.5C 57.9644,5.44774 55.9644,10.1144 50.5,13.5C 49.6143,14.325 49.281,15.325 49.5,16.5C 47.4862,16.3915 45.8195,17.0582 44.5,18.5C 44.5858,17.5041 44.2524,16.6708 43.5,16C 46.1927,15.657 48.1927,14.3237 49.5,12C 48.8333,11.6667 48.1667,11.3333 47.5,11C 49.3348,10.0723 49.6682,8.9056 48.5,7.5C 49.405,5.36194 50.405,3.19527 51.5,1C 50.944,0.617425 50.6107,0.117425 50.5,-0.5 Z"/></g>
<g><path style="opacity:1" fill="#8b3de3" d="M 15.5,-0.5 C 16.1667,-0.5 16.8333,-0.5 17.5,-0.5C 17.3903,5.28938 17.3903,11.2894 17.5,17.5C 17.5,18.1667 17.5,18.8333 17.5,19.5C 17.1667,19.5 16.8333,19.5 16.5,19.5C 16.3241,14.2767 15.6575,9.11007 14.5,4C 14.7728,2.46718 15.1062,0.967177 15.5,-0.5 Z"/></g>
<g><path style="opacity:1" fill="#191294" d="M 67.5,-0.5 C 71.1667,-0.5 74.8333,-0.5 78.5,-0.5C 77.3862,0.885333 76.3862,2.38533 75.5,4C 72.319,5.63278 68.9857,6.96611 65.5,8C 64.6195,8.7083 63.9528,9.54163 63.5,10.5C 63.5,10.8333 63.5,11.1667 63.5,11.5C 61.4352,11.5172 59.4352,11.8505 57.5,12.5C 57.281,11.325 57.6143,10.325 58.5,9.5C 60.3334,8.94787 62.0001,8.11453 63.5,7C 62.2889,5.88686 62.2889,4.7202 63.5,3.5C 65.188,2.4787 66.5213,1.14537 67.5,-0.5 Z"/></g>
<g><path style="opacity:1" fill="#0b093b" d="M 87.5,1.5 C 86.3406,3.25027 84.674,4.25027 82.5,4.5C 82.5,4.16667 82.5,3.83333 82.5,3.5C 83.9303,2.46253 85.597,1.79586 87.5,1.5 Z"/></g>
<g><path style="opacity:1" fill="#1c139d" d="M 56.5,-0.5 C 60.1667,-0.5 63.8333,-0.5 67.5,-0.5C 66.5213,1.14537 65.188,2.4787 63.5,3.5C 62.2889,4.7202 62.2889,5.88686 63.5,7C 62.0001,8.11453 60.3334,8.94787 58.5,9.5C 57.6143,10.325 57.281,11.325 57.5,12.5C 56.1266,12.3433 54.7932,12.51 53.5,13C 52.2949,14.3756 50.9616,15.5423 49.5,16.5C 49.281,15.325 49.6143,14.325 50.5,13.5C 55.9644,10.1144 57.9644,5.44774 56.5,-0.5 Z"/></g>
<g><path style="opacity:1" fill="#030117" d="M 88.5,3.5 C 88.5,13.8333 88.5,24.1667 88.5,34.5C 87.7784,34.0825 87.2784,33.4158 87,32.5C 86.4646,34.2705 85.6313,34.6039 84.5,33.5C 84.9767,32.5224 85.6433,31.6891 86.5,31C 83.9613,29.9008 83.2946,28.2342 84.5,26C 83.552,25.5172 82.552,25.3505 81.5,25.5C 81.5432,21.1074 81.0432,20.7741 80,24.5C 79.3076,23.9747 78.8076,23.3081 78.5,22.5C 79.1005,19.3928 79.2671,16.3928 79,13.5C 77.4947,15.2983 77.3281,17.1316 78.5,19C 77,20.8333 75.5,22.6667 74,24.5C 73.2496,23.8742 72.4162,23.3742 71.5,23C 72.8333,22.3333 74.1667,21.6667 75.5,21C 74.6919,20.6924 74.0253,20.1924 73.5,19.5C 76.0128,17.0904 75.6795,14.9238 72.5,13C 73.3805,12.2917 74.0472,11.4584 74.5,10.5C 74.5,9.83333 74.5,9.16667 74.5,8.5C 76.8205,9.62488 79.1538,9.79155 81.5,9C 82.1258,9.75044 82.6258,10.5838 83,11.5C 83.1705,9.2852 83.8372,7.2852 85,5.5C 85.3333,6.16667 85.6667,6.83333 86,7.5C 86.2902,5.88931 87.1235,4.55598 88.5,3.5 Z"/></g>
<g><path style="opacity:1" fill="#9c59e8" d="M 8.5,-0.5 C 9.5,-0.5 10.5,-0.5 11.5,-0.5C 13.1205,7.71953 14.1205,16.0529 14.5,24.5C 14.1667,25.8333 13.8333,27.1667 13.5,28.5C 13.5,29.1667 13.1667,29.5 12.5,29.5C 13.1217,22.5047 12.1217,15.838 9.5,9.5C 8.51298,6.23171 8.17964,2.89838 8.5,-0.5 Z"/></g>
<g><path style="opacity:1" fill="#944ae6" d="M 11.5,-0.5 C 12.8333,-0.5 14.1667,-0.5 15.5,-0.5C 15.1062,0.967177 14.7728,2.46718 14.5,4C 15.6575,9.11007 16.3241,14.2767 16.5,19.5C 15.962,21.1172 15.6287,22.7839 15.5,24.5C 15.1667,24.5 14.8333,24.5 14.5,24.5C 14.1205,16.0529 13.1205,7.71953 11.5,-0.5 Z"/></g>
<g><path style="opacity:1" fill="#4b1ac6" d="M 26.5,-0.5 C 27.5,-0.5 28.5,-0.5 29.5,-0.5C 27.4063,1.55114 27.073,3.88447 28.5,6.5C 27.4241,11.0496 26.7574,15.383 26.5,19.5C 25.8333,18.8333 25.1667,18.1667 24.5,17.5C 25.5285,16.2126 25.1952,15.0459 23.5,14C 24.6516,8.9048 25.6516,4.07146 26.5,-0.5 Z"/></g>
<g><path style="opacity:1" fill="#0e0a4a" d="M 82.5,3.5 C 82.5,3.83333 82.5,4.16667 82.5,4.5C 80.4418,5.93306 78.1085,6.59973 75.5,6.5C 77.4261,4.70732 79.7594,3.70732 82.5,3.5 Z"/></g>
<g><path style="opacity:1" fill="#06031d" d="M 87.5,1.5 C 87.8333,1.5 88.1667,1.5 88.5,1.5C 88.5,2.16667 88.5,2.83333 88.5,3.5C 87.1235,4.55598 86.2902,5.88931 86,7.5C 85.6667,6.83333 85.3333,6.16667 85,5.5C 83.8372,7.2852 83.1705,9.2852 83,11.5C 82.6258,10.5838 82.1258,9.75044 81.5,9C 79.1538,9.79155 76.8205,9.62488 74.5,8.5C 74.8333,7.83333 75.1667,7.16667 75.5,6.5C 78.1085,6.59973 80.4418,5.93306 82.5,4.5C 84.674,4.25027 86.3406,3.25027 87.5,1.5 Z"/></g>
<g><path style="opacity:1" fill="#c090f0" d="M 1.5,-0.5 C 2.16667,-0.5 2.83333,-0.5 3.5,-0.5C 3.02134,2.06438 2.35468,4.56438 1.5,7C 2.44379,9.71914 2.77712,12.5525 2.5,15.5C 2.19607,16.1499 1.86273,16.8165 1.5,17.5C 2.41122,21.788 3.07789,26.1214 3.5,30.5C 1.25673,25.3775 -0.0766026,20.0442 -0.5,14.5C -0.5,10.1667 -0.5,5.83333 -0.5,1.5C 0.5,1.16667 1.16667,0.5 1.5,-0.5 Z"/></g>
<g><path style="opacity:1" fill="#2d17b4" d="M 36.5,-0.5 C 38.5,-0.5 40.5,-0.5 42.5,-0.5C 42.3893,0.117425 42.056,0.617425 41.5,1C 43.9928,2.58256 43.8262,4.08256 41,5.5C 40.6667,9.16667 40.3333,12.8333 40,16.5C 38.1173,18.5211 36.9506,21.5211 36.5,25.5C 35.6043,26.5063 34.9377,26.5063 34.5,25.5C 35.7525,23.6612 35.7525,21.8278 34.5,20C 35.1667,19.3333 35.8333,18.6667 36.5,18C 35.5241,15.5372 34.1907,12.8705 32.5,10C 34.4144,7.11764 34.7477,4.11764 33.5,1C 34.7375,0.76791 35.7375,0.26791 36.5,-0.5 Z"/></g>
<g><path style="opacity:1" fill="#b37ced" d="M 3.5,-0.5 C 3.83333,-0.5 4.16667,-0.5 4.5,-0.5C 2.82682,8.89131 4.66015,17.8913 10,26.5C 10.498,29.4816 10.6646,32.4816 10.5,35.5C 10.5,36.8333 10.5,38.1667 10.5,39.5C 10.1667,39.5 9.83333,39.5 9.5,39.5C 8.86324,35.3303 8.19658,31.1636 7.5,27C 7.83333,26.6667 8.16667,26.3333 8.5,26C 6.90952,24.9542 5.40952,23.7875 4,22.5C 3.81382,19.9644 3.31382,17.631 2.5,15.5C 2.77712,12.5525 2.44379,9.71914 1.5,7C 2.35468,4.56438 3.02134,2.06438 3.5,-0.5 Z"/></g>
<g><path style="opacity:1" fill="#150f7d" d="M 78.5,-0.5 C 81.1667,-0.5 83.8333,-0.5 86.5,-0.5C 86.8333,0.166667 87.1667,0.833333 87.5,1.5C 85.597,1.79586 83.9303,2.46253 82.5,3.5C 79.7594,3.70732 77.4261,4.70732 75.5,6.5C 71.5738,8.03096 67.5738,9.3643 63.5,10.5C 63.9528,9.54163 64.6195,8.7083 65.5,8C 68.9857,6.96611 72.319,5.63278 75.5,4C 76.3862,2.38533 77.3862,0.885333 78.5,-0.5 Z"/></g>
<g><path style="opacity:1" fill="#8030e1" d="M 17.5,-0.5 C 18.5,-0.5 19.5,-0.5 20.5,-0.5C 20.4599,4.19254 20.1266,8.85921 19.5,13.5C 18.5655,14.5676 18.2322,15.901 18.5,17.5C 18.1667,17.5 17.8333,17.5 17.5,17.5C 17.3903,11.2894 17.3903,5.28938 17.5,-0.5 Z"/></g>
<g><path style="opacity:1" fill="#100c51" d="M 75.5,6.5 C 75.1667,7.16667 74.8333,7.83333 74.5,8.5C 71.8284,9.50143 69.1618,10.5014 66.5,11.5C 65.5,11.5 64.5,11.5 63.5,11.5C 63.5,11.1667 63.5,10.8333 63.5,10.5C 67.5738,9.3643 71.5738,8.03096 75.5,6.5 Z"/></g>
<g><path style="opacity:1" fill="#05031a" d="M 74.5,10.5 C 74.0472,11.4584 73.3805,12.2917 72.5,13C 75.6795,14.9238 76.0128,17.0904 73.5,19.5C 74.0253,20.1924 74.6919,20.6924 75.5,21C 74.1667,21.6667 72.8333,22.3333 71.5,23C 72.4162,23.3742 73.2496,23.8742 74,24.5C 75.5,22.6667 77,20.8333 78.5,19C 77.3281,17.1316 77.4947,15.2983 79,13.5C 79.2671,16.3928 79.1005,19.3928 78.5,22.5C 78.8076,23.3081 79.3076,23.9747 80,24.5C 81.0432,20.7741 81.5432,21.1074 81.5,25.5C 82.552,25.3505 83.552,25.5172 84.5,26C 83.2946,28.2342 83.9613,29.9008 86.5,31C 85.6433,31.6891 84.9767,32.5224 84.5,33.5C 85.6313,34.6039 86.4646,34.2705 87,32.5C 87.2784,33.4158 87.7784,34.0825 88.5,34.5C 88.5,38.8333 88.5,43.1667 88.5,47.5C 87.1751,48.9526 86.3418,48.6192 86,46.5C 84.0924,49.3323 83.259,48.999 83.5,45.5C 80.1406,45.0027 78.6406,43.3361 79,40.5C 77.6667,39.8333 76.3333,39.1667 75,38.5C 74.3162,37.2161 74.4829,36.0495 75.5,35C 74.1667,34.3333 72.8333,34.3333 71.5,35C 72.6537,35.9138 72.487,36.7471 71,37.5C 69.573,35.2947 69.073,33.1281 69.5,31C 70.5,30.6667 71.5,30.3333 72.5,30C 71.4911,27.8282 69.8244,26.6615 67.5,26.5C 67.6679,22.5418 67.6679,18.8751 67.5,15.5C 69.0119,12.6509 71.3452,10.9842 74.5,10.5 Z"/></g>
<g><path style="opacity:0.994" fill="#08061c" d="M 74.5,8.5 C 74.5,9.16667 74.5,9.83333 74.5,10.5C 71.3452,10.9842 69.0119,12.6509 67.5,15.5C 67.6679,18.8751 67.6679,22.5418 67.5,26.5C 69.8244,26.6615 71.4911,27.8282 72.5,30C 71.5,30.3333 70.5,30.6667 69.5,31C 69.073,33.1281 69.573,35.2947 71,37.5C 72.487,36.7471 72.6537,35.9138 71.5,35C 72.8333,34.3333 74.1667,34.3333 75.5,35C 74.4829,36.0495 74.3162,37.2161 75,38.5C 76.3333,39.1667 77.6667,39.8333 79,40.5C 78.6406,43.3361 80.1406,45.0027 83.5,45.5C 83.259,48.999 84.0924,49.3323 86,46.5C 86.3418,48.6192 87.1751,48.9526 88.5,47.5C 88.5,50.1667 88.5,52.8333 88.5,55.5C 87.5,55.8333 86.8333,56.5 86.5,57.5C 81.8333,57.5 77.1667,57.5 72.5,57.5C 70.4083,56.1056 68.7416,54.2723 67.5,52C 67.6667,51.5 67.8333,51 68,50.5C 72.5154,52.5532 73.182,51.5532 70,47.5C 69.6667,48.1667 69.3333,48.8333 69,49.5C 67.5778,49.4057 66.0778,49.0724 64.5,48.5C 63.2532,46.9579 63.2532,45.4579 64.5,44C 62.415,41.3178 60.7483,38.4845 59.5,35.5C 58.7611,35.631 58.0944,35.4643 57.5,35C 58.3444,32.3 59.3444,29.6333 60.5,27C 60.2645,26.1268 59.9312,25.2935 59.5,24.5C 61.1399,21.2576 62.4732,17.9242 63.5,14.5C 64.3065,13.2719 65.3065,12.2719 66.5,11.5C 69.1618,10.5014 71.8284,9.50143 74.5,8.5 Z"/></g>
<g><path style="opacity:1" fill="#ac71ea" d="M 4.5,-0.5 C 5.5,-0.5 6.5,-0.5 7.5,-0.5C 7.8724,5.73221 7.8724,11.5655 7.5,17C 10.6249,22.0013 11.9583,27.5013 11.5,33.5C 11.5,34.1667 11.5,34.8333 11.5,35.5C 11.1667,35.5 10.8333,35.5 10.5,35.5C 10.6646,32.4816 10.498,29.4816 10,26.5C 4.66015,17.8913 2.82682,8.89131 4.5,-0.5 Z"/></g>
<g><path style="opacity:1" fill="#191285" d="M 57.5,12.5 C 54.2416,14.0875 51.5749,16.4209 49.5,19.5C 47.3043,20.8381 45.3043,22.5047 43.5,24.5C 44.5416,21.0699 46.5416,18.4033 49.5,16.5C 50.9616,15.5423 52.2949,14.3756 53.5,13C 54.7932,12.51 56.1266,12.3433 57.5,12.5 Z"/></g>
<g><path style="opacity:1" fill="#c398ef" d="M -0.5,14.5 C -0.0766026,20.0442 1.25673,25.3775 3.5,30.5C 4.87891,34.7248 5.87891,39.0582 6.5,43.5C 4.33412,37.7701 2.00079,31.7701 -0.5,25.5C -0.5,21.8333 -0.5,18.1667 -0.5,14.5 Z"/></g>
<g><path style="opacity:1" fill="#110d56" d="M 58.5,14.5 C 57.4923,16.3386 55.9923,17.6719 54,18.5C 52.7336,23.3358 51.2336,28.0025 49.5,32.5C 48.5418,34.3024 47.8751,36.3024 47.5,38.5C 46.9033,38.2648 46.5699,37.7648 46.5,37C 47.4062,34.2094 48.0728,31.3761 48.5,28.5C 48.3167,21.592 51.65,16.9253 58.5,14.5 Z"/></g>
<g><path style="opacity:1" fill="#0e0b35" d="M 59.5,16.5 C 58.1066,20.035 56.9399,23.7017 56,27.5C 55.2109,29.7116 55.3775,31.7116 56.5,33.5C 54.7798,39.3606 55.4465,44.8606 58.5,50C 57.4831,52.8396 58.1498,55.3396 60.5,57.5C 59.5,57.5 58.5,57.5 57.5,57.5C 55.1847,52.082 53.8514,46.7487 53.5,41.5C 54.1452,37.6467 54.1452,34.3133 53.5,31.5C 54.8388,27.6459 55.6722,23.6459 56,19.5C 57.3588,18.635 58.5255,17.635 59.5,16.5 Z"/></g>
<g><path style="opacity:1" fill="#a263e8" d="M 7.5,-0.5 C 7.83333,-0.5 8.16667,-0.5 8.5,-0.5C 8.17964,2.89838 8.51298,6.23171 9.5,9.5C 12.1217,15.838 13.1217,22.5047 12.5,29.5C 12.5,30.8333 12.5,32.1667 12.5,33.5C 12.1667,33.5 11.8333,33.5 11.5,33.5C 11.9583,27.5013 10.6249,22.0013 7.5,17C 7.8724,11.5655 7.8724,5.73221 7.5,-0.5 Z"/></g>
<g><path style="opacity:1" fill="#5c1ecc" d="M 24.5,-0.5 C 25.1667,-0.5 25.8333,-0.5 26.5,-0.5C 25.6516,4.07146 24.6516,8.9048 23.5,14C 25.1952,15.0459 25.5285,16.2126 24.5,17.5C 24.5,20.1667 24.5,22.8333 24.5,25.5C 23.5,25.5 22.5,25.5 21.5,25.5C 20.8672,21.4557 20.5339,17.4557 20.5,13.5C 21.9488,8.95984 23.2821,4.29317 24.5,-0.5 Z"/></g>
<g><path style="opacity:1" fill="#551ec4" d="M 24.5,17.5 C 25.1667,18.1667 25.8333,18.8333 26.5,19.5C 25.4179,21.8232 25.5846,24.1565 27,26.5C 27.6543,25.3044 28.1543,25.3044 28.5,26.5C 27.9984,27.7164 27.6651,28.8831 27.5,30C 29.0368,31.1096 29.7035,32.6096 29.5,34.5C 29.7471,37.9387 29.4137,41.272 28.5,44.5C 27.9348,42.58 26.9348,40.9133 25.5,39.5C 25.1667,34.8333 24.8333,30.1667 24.5,25.5C 24.5,22.8333 24.5,20.1667 24.5,17.5 Z"/></g>
<g><path style="opacity:1" fill="#6523cb" d="M 19.5,13.5 C 19.8333,13.5 20.1667,13.5 20.5,13.5C 20.5339,17.4557 20.8672,21.4557 21.5,25.5C 22.5,25.5 23.5,25.5 24.5,25.5C 24.8333,30.1667 25.1667,34.8333 25.5,39.5C 25.6495,40.552 25.4828,41.552 25,42.5C 23.743,37.7642 21.743,33.4309 19,29.5C 18.5012,25.5138 18.3345,21.5138 18.5,17.5C 18.2322,15.901 18.5655,14.5676 19.5,13.5 Z"/></g>
<g><path style="opacity:1" fill="#421bbe" d="M 29.5,-0.5 C 31.8333,-0.5 34.1667,-0.5 36.5,-0.5C 35.7375,0.26791 34.7375,0.76791 33.5,1C 34.7477,4.11764 34.4144,7.11764 32.5,10C 34.1907,12.8705 35.5241,15.5372 36.5,18C 35.8333,18.6667 35.1667,19.3333 34.5,20C 35.7525,21.8278 35.7525,23.6612 34.5,25.5C 33.4036,27.1032 32.0703,28.6032 30.5,30C 30.8333,30.3333 31.1667,30.6667 31.5,31C 30.9152,32.3024 30.2485,33.469 29.5,34.5C 29.7035,32.6096 29.0368,31.1096 27.5,30C 27.6651,28.8831 27.9984,27.7164 28.5,26.5C 28.1543,25.3044 27.6543,25.3044 27,26.5C 25.5846,24.1565 25.4179,21.8232 26.5,19.5C 26.7574,15.383 27.4241,11.0496 28.5,6.5C 27.073,3.88447 27.4063,1.55114 29.5,-0.5 Z"/></g>
<g><path style="opacity:1" fill="#2618a4" d="M 44.5,18.5 C 41.4468,23.3545 38.7801,28.3545 36.5,33.5C 35.0167,36.4328 33.6834,39.4328 32.5,42.5C 32.5,41.1667 32.5,39.8333 32.5,38.5C 33.4617,35.2609 34.7951,32.2609 36.5,29.5C 37.9166,25.0298 40.5832,21.3631 44.5,18.5 Z"/></g>
<g><path style="opacity:1" fill="#0c082c" d="M 61.5,15.5 C 58.5403,21.3816 56.8736,27.3816 56.5,33.5C 55.3775,31.7116 55.2109,29.7116 56,27.5C 56.9399,23.7017 58.1066,20.035 59.5,16.5C 60.1667,16.1667 60.8333,15.8333 61.5,15.5 Z"/></g>
<g><path style="opacity:1" fill="#1c1593" d="M 49.5,16.5 C 46.5416,18.4033 44.5416,21.0699 43.5,24.5C 42.962,26.1172 42.6287,27.7839 42.5,29.5C 41.5041,29.4142 40.6708,29.7476 40,30.5C 38.9066,33.3093 37.7399,35.976 36.5,38.5C 36.5,36.8333 36.5,35.1667 36.5,33.5C 38.7801,28.3545 41.4468,23.3545 44.5,18.5C 45.8195,17.0582 47.4862,16.3915 49.5,16.5 Z"/></g>
<g><path style="opacity:1" fill="#181276" d="M 49.5,19.5 C 45.4892,25.3421 43.4892,31.6754 43.5,38.5C 42.4805,40.604 41.4805,42.604 40.5,44.5C 40.5,41.5 40.5,38.5 40.5,35.5C 41.7384,33.7857 42.405,31.7857 42.5,29.5C 42.6287,27.7839 42.962,26.1172 43.5,24.5C 45.3043,22.5047 47.3043,20.8381 49.5,19.5 Z"/></g>
<g><path style="opacity:1" fill="#161169" d="M 63.5,11.5 C 62.0351,12.7368 60.3684,13.7368 58.5,14.5C 51.65,16.9253 48.3167,21.592 48.5,28.5C 47.2101,29.0577 46.3768,30.0577 46,31.5C 43.6301,40.3905 42.4635,49.0572 42.5,57.5C 41.8333,57.5 41.1667,57.5 40.5,57.5C 40.5,53.1667 40.5,48.8333 40.5,44.5C 41.4805,42.604 42.4805,40.604 43.5,38.5C 43.4892,31.6754 45.4892,25.3421 49.5,19.5C 51.5749,16.4209 54.2416,14.0875 57.5,12.5C 59.4352,11.8505 61.4352,11.5172 63.5,11.5 Z"/></g>
<g><path style="opacity:1" fill="#14105e" d="M 48.5,28.5 C 48.0728,31.3761 47.4062,34.2094 46.5,37C 46.5699,37.7648 46.9033,38.2648 47.5,38.5C 46.8401,40.8157 46.1734,43.149 45.5,45.5C 46.3619,49.4526 46.6952,53.4526 46.5,57.5C 45.1667,57.5 43.8333,57.5 42.5,57.5C 42.4635,49.0572 43.6301,40.3905 46,31.5C 46.3768,30.0577 47.2101,29.0577 48.5,28.5 Z"/></g>
<g><path style="opacity:1" fill="#b684ec" d="M 2.5,15.5 C 3.31382,17.631 3.81382,19.9644 4,22.5C 5.40952,23.7875 6.90952,24.9542 8.5,26C 8.16667,26.3333 7.83333,26.6667 7.5,27C 8.19658,31.1636 8.86324,35.3303 9.5,39.5C 9.59121,41.6977 8.92454,42.0311 7.5,40.5C 7.22995,36.6424 5.89661,33.309 3.5,30.5C 3.07789,26.1214 2.41122,21.788 1.5,17.5C 1.86273,16.8165 2.19607,16.1499 2.5,15.5 Z"/></g>
<g><path style="opacity:1" fill="#421db7" d="M 34.5,25.5 C 34.9377,26.5063 35.6043,26.5063 36.5,25.5C 36.5,26.8333 36.5,28.1667 36.5,29.5C 34.7951,32.2609 33.4617,35.2609 32.5,38.5C 31.0131,42.1165 29.6798,45.7831 28.5,49.5C 28.5,48.8333 28.5,48.1667 28.5,47.5C 28.5,46.5 28.5,45.5 28.5,44.5C 29.4137,41.272 29.7471,37.9387 29.5,34.5C 30.2485,33.469 30.9152,32.3024 31.5,31C 31.1667,30.6667 30.8333,30.3333 30.5,30C 32.0703,28.6032 33.4036,27.1032 34.5,25.5 Z"/></g>
<g><path style="opacity:1" fill="#0b0822" d="M 59.5,35.5 C 60.7483,38.4845 62.415,41.3178 64.5,44C 63.2532,45.4579 63.2532,46.9579 64.5,48.5C 66.0778,49.0724 67.5778,49.4057 69,49.5C 69.3333,48.8333 69.6667,48.1667 70,47.5C 73.182,51.5532 72.5154,52.5532 68,50.5C 67.8333,51 67.6667,51.5 67.5,52C 68.7416,54.2723 70.4083,56.1056 72.5,57.5C 69.8333,57.5 67.1667,57.5 64.5,57.5C 63.6982,53.6057 62.1982,49.939 60,46.5C 60.606,43.0305 60.106,39.8639 58.5,37C 59.056,36.6174 59.3893,36.1174 59.5,35.5 Z"/></g>
<g><path style="opacity:1" fill="#6b2ecb" d="M 17.5,17.5 C 17.8333,17.5 18.1667,17.5 18.5,17.5C 18.3345,21.5138 18.5012,25.5138 19,29.5C 21.743,33.4309 23.743,37.7642 25,42.5C 25.4828,41.552 25.6495,40.552 25.5,39.5C 26.9348,40.9133 27.9348,42.58 28.5,44.5C 28.5,45.5 28.5,46.5 28.5,47.5C 27.4415,46.3998 26.6082,45.0664 26,43.5C 25.5065,45.1341 25.3398,46.8008 25.5,48.5C 24.2564,46.4072 22.7564,44.4072 21,42.5C 19.9922,38.1579 18.4922,33.9912 16.5,30C 17.3822,26.5592 17.7155,23.0592 17.5,19.5C 17.5,18.8333 17.5,18.1667 17.5,17.5 Z"/></g>
<g><path style="opacity:1" fill="#9063d9" d="M 11.5,33.5 C 11.8333,33.5 12.1667,33.5 12.5,33.5C 12.7076,42.3544 15.3743,50.3544 20.5,57.5C 19.5,57.5 18.5,57.5 17.5,57.5C 16.5731,52.9794 14.5731,48.9794 11.5,45.5C 11.7121,42.348 11.7121,39.0147 11.5,35.5C 11.5,34.8333 11.5,34.1667 11.5,33.5 Z"/></g>
<g><path style="opacity:1" fill="#8a59d7" d="M 13.5,28.5 C 13.6458,31.9556 13.8124,35.6223 14,39.5C 15.9521,42.8914 17.2855,46.558 18,50.5C 20.1444,52.4662 21.6444,54.7995 22.5,57.5C 21.8333,57.5 21.1667,57.5 20.5,57.5C 15.3743,50.3544 12.7076,42.3544 12.5,33.5C 12.5,32.1667 12.5,30.8333 12.5,29.5C 13.1667,29.5 13.5,29.1667 13.5,28.5 Z"/></g>
<g><path style="opacity:1" fill="#c3a0ed" d="M -0.5,25.5 C 2.00079,31.7701 4.33412,37.7701 6.5,43.5C 7.07414,48.2858 8.07414,52.9525 9.5,57.5C 8.83333,57.5 8.16667,57.5 7.5,57.5C 6.08823,50.1661 3.42156,43.4994 -0.5,37.5C -0.5,33.5 -0.5,29.5 -0.5,25.5 Z"/></g>
<g><path style="opacity:1" fill="#733bcd" d="M 16.5,19.5 C 16.8333,19.5 17.1667,19.5 17.5,19.5C 17.7155,23.0592 17.3822,26.5592 16.5,30C 18.4922,33.9912 19.9922,38.1579 21,42.5C 22.7564,44.4072 24.2564,46.4072 25.5,48.5C 25.4054,51.6967 26.0721,54.6967 27.5,57.5C 26.8333,57.5 26.1667,57.5 25.5,57.5C 24.8359,54.8632 24.1693,52.1965 23.5,49.5C 21.467,45.3589 18.8003,41.5255 15.5,38C 15.6791,33.6513 15.6791,29.1513 15.5,24.5C 15.6287,22.7839 15.962,21.1172 16.5,19.5 Z"/></g>
<g><path style="opacity:1" fill="#401fac" d="M 32.5,38.5 C 32.5,39.8333 32.5,41.1667 32.5,42.5C 31.8333,47.5 31.1667,52.5 30.5,57.5C 29.8333,57.5 29.1667,57.5 28.5,57.5C 28.5,54.8333 28.5,52.1667 28.5,49.5C 29.6798,45.7831 31.0131,42.1165 32.5,38.5 Z"/></g>
<g><path style="opacity:1" fill="#b28ee7" d="M 3.5,30.5 C 5.89661,33.309 7.22995,36.6424 7.5,40.5C 7.79608,46.6988 9.46274,52.3655 12.5,57.5C 11.5,57.5 10.5,57.5 9.5,57.5C 8.07414,52.9525 7.07414,48.2858 6.5,43.5C 5.87891,39.0582 4.87891,34.7248 3.5,30.5 Z"/></g>
<g><path style="opacity:1" fill="#7f4ad2" d="M 14.5,24.5 C 14.8333,24.5 15.1667,24.5 15.5,24.5C 15.6791,29.1513 15.6791,33.6513 15.5,38C 18.8003,41.5255 21.467,45.3589 23.5,49.5C 24.1693,52.1965 24.8359,54.8632 25.5,57.5C 24.5,57.5 23.5,57.5 22.5,57.5C 21.6444,54.7995 20.1444,52.4662 18,50.5C 17.2855,46.558 15.9521,42.8914 14,39.5C 13.8124,35.6223 13.6458,31.9556 13.5,28.5C 13.8333,27.1667 14.1667,25.8333 14.5,24.5 Z"/></g>
<g><path style="opacity:1" fill="#a17ddf" d="M 9.5,39.5 C 9.83333,39.5 10.1667,39.5 10.5,39.5C 10.4089,45.9856 12.0756,51.9856 15.5,57.5C 14.5,57.5 13.5,57.5 12.5,57.5C 9.46274,52.3655 7.79608,46.6988 7.5,40.5C 8.92454,42.0311 9.59121,41.6977 9.5,39.5 Z"/></g>
<g><path style="opacity:1" fill="#1c1680" d="M 40.5,35.5 C 40.5,38.5 40.5,41.5 40.5,44.5C 37.9645,48.3548 36.9645,52.6882 37.5,57.5C 36.5,57.5 35.5,57.5 34.5,57.5C 35.5883,49.8038 37.5883,42.4705 40.5,35.5 Z"/></g>
<g><path style="opacity:1" fill="#100d44" d="M 63.5,11.5 C 64.5,11.5 65.5,11.5 66.5,11.5C 65.3065,12.2719 64.3065,13.2719 63.5,14.5C 62.5084,14.3284 61.8417,14.6618 61.5,15.5C 60.8333,15.8333 60.1667,16.1667 59.5,16.5C 58.5255,17.635 57.3588,18.635 56,19.5C 55.6722,23.6459 54.8388,27.6459 53.5,31.5C 51.3544,36.5227 51.0211,41.3561 52.5,46C 51.8333,46.6667 51.1667,47.3333 50.5,48C 51.8664,50.9973 52.533,54.164 52.5,57.5C 51.8333,57.5 51.1667,57.5 50.5,57.5C 49.8632,53.3303 49.1966,49.1636 48.5,45C 49.4637,40.9341 49.797,36.7675 49.5,32.5C 51.2336,28.0025 52.7336,23.3358 54,18.5C 55.9923,17.6719 57.4923,16.3386 58.5,14.5C 60.3684,13.7368 62.0351,12.7368 63.5,11.5 Z"/></g>
<g><path style="opacity:1" fill="#2c1b9b" d="M 36.5,33.5 C 36.5,35.1667 36.5,36.8333 36.5,38.5C 34.6593,44.7023 33.326,51.0356 32.5,57.5C 31.8333,57.5 31.1667,57.5 30.5,57.5C 31.1667,52.5 31.8333,47.5 32.5,42.5C 33.6834,39.4328 35.0167,36.4328 36.5,33.5 Z"/></g>
<g><path style="opacity:1" fill="#21198d" d="M 42.5,29.5 C 42.405,31.7857 41.7384,33.7857 40.5,35.5C 37.5883,42.4705 35.5883,49.8038 34.5,57.5C 33.8333,57.5 33.1667,57.5 32.5,57.5C 33.326,51.0356 34.6593,44.7023 36.5,38.5C 37.7399,35.976 38.9066,33.3093 40,30.5C 40.6708,29.7476 41.5041,29.4142 42.5,29.5 Z"/></g>
<g><path style="opacity:1" fill="#100c3c" d="M 53.5,31.5 C 54.1452,34.3133 54.1452,37.6467 53.5,41.5C 53.8514,46.7487 55.1847,52.082 57.5,57.5C 55.8333,57.5 54.1667,57.5 52.5,57.5C 52.533,54.164 51.8664,50.9973 50.5,48C 51.1667,47.3333 51.8333,46.6667 52.5,46C 51.0211,41.3561 51.3544,36.5227 53.5,31.5 Z"/></g>
<g><path style="opacity:1" fill="#c7aaee" d="M -0.5,37.5 C 3.42156,43.4994 6.08823,50.1661 7.5,57.5C 6.5,57.5 5.5,57.5 4.5,57.5C 4.747,51.6169 3.08033,46.6169 -0.5,42.5C -0.5,40.8333 -0.5,39.1667 -0.5,37.5 Z"/></g>
<g><path style="opacity:1" fill="#d8c3f3" d="M -0.5,47.5 C 2.14225,50.1918 3.14225,53.5251 2.5,57.5C 2.16667,57.5 1.83333,57.5 1.5,57.5C 1.16667,56.5 0.5,55.8333 -0.5,55.5C -0.5,52.8333 -0.5,50.1667 -0.5,47.5 Z"/></g>
<g><path style="opacity:1" fill="#d0b7f1" d="M -0.5,42.5 C 3.08033,46.6169 4.747,51.6169 4.5,57.5C 3.83333,57.5 3.16667,57.5 2.5,57.5C 3.14225,53.5251 2.14225,50.1918 -0.5,47.5C -0.5,45.8333 -0.5,44.1667 -0.5,42.5 Z"/></g>
<g><path style="opacity:1" fill="#1b1678" d="M 40.5,44.5 C 40.5,48.8333 40.5,53.1667 40.5,57.5C 39.5,57.5 38.5,57.5 37.5,57.5C 36.9645,52.6882 37.9645,48.3548 40.5,44.5 Z"/></g>
<g><path style="opacity:1" fill="#976fda" d="M 10.5,35.5 C 10.8333,35.5 11.1667,35.5 11.5,35.5C 11.7121,39.0147 11.7121,42.348 11.5,45.5C 14.5731,48.9794 16.5731,52.9794 17.5,57.5C 16.8333,57.5 16.1667,57.5 15.5,57.5C 12.0756,51.9856 10.4089,45.9856 10.5,39.5C 10.5,38.1667 10.5,36.8333 10.5,35.5 Z"/></g>
<g><path style="opacity:1" fill="#5d2cbc" d="M 28.5,47.5 C 28.5,48.1667 28.5,48.8333 28.5,49.5C 28.5,52.1667 28.5,54.8333 28.5,57.5C 28.1667,57.5 27.8333,57.5 27.5,57.5C 26.0721,54.6967 25.4054,51.6967 25.5,48.5C 25.3398,46.8008 25.5065,45.1341 26,43.5C 26.6082,45.0664 27.4415,46.3998 28.5,47.5 Z"/></g>
<g><path style="opacity:1" fill="#120e4f" d="M 49.5,32.5 C 49.797,36.7675 49.4637,40.9341 48.5,45C 49.1966,49.1636 49.8632,53.3303 50.5,57.5C 49.1667,57.5 47.8333,57.5 46.5,57.5C 46.6952,53.4526 46.3619,49.4526 45.5,45.5C 46.1734,43.149 46.8401,40.8157 47.5,38.5C 47.8751,36.3024 48.5418,34.3024 49.5,32.5 Z"/></g>
<g><path style="opacity:1" fill="#0d092a" d="M 63.5,14.5 C 62.4732,17.9242 61.1399,21.2576 59.5,24.5C 59.9312,25.2935 60.2645,26.1268 60.5,27C 59.3444,29.6333 58.3444,32.3 57.5,35C 58.0944,35.4643 58.7611,35.631 59.5,35.5C 59.3893,36.1174 59.056,36.6174 58.5,37C 60.106,39.8639 60.606,43.0305 60,46.5C 62.1982,49.939 63.6982,53.6057 64.5,57.5C 63.1667,57.5 61.8333,57.5 60.5,57.5C 58.1498,55.3396 57.4831,52.8396 58.5,50C 55.4465,44.8606 54.7798,39.3606 56.5,33.5C 56.8736,27.3816 58.5403,21.3816 61.5,15.5C 61.8417,14.6618 62.5084,14.3284 63.5,14.5 Z"/></g>
</svg>
