<?xml version="1.0" encoding="UTF-8"?>
<!DOCTYPE svg PUBLIC "-//W3C//DTD SVG 1.1//EN" "http://www.w3.org/Graphics/SVG/1.1/DTD/svg11.dtd">
<svg xmlns="http://www.w3.org/2000/svg" version="1.1" width="18px" height="18px" style="shape-rendering:geometricPrecision; text-rendering:geometricPrecision; image-rendering:optimizeQuality; fill-rule:evenodd; clip-rule:evenodd" xmlns:xlink="http://www.w3.org/1999/xlink">
<g><path style="opacity:0.375" fill="#fefffe" d="M 8.5,13.5 C 8.16667,12.5 7.5,11.8333 6.5,11.5C 6.5,10.8333 6.16667,10.5 5.5,10.5C 5.16667,9.5 4.5,8.83333 3.5,8.5C 2.26212,5.21596 3.59546,3.71596 7.5,4C 9.71928,0.955274 12.7193,-0.211392 16.5,0.5C 16.6602,2.19919 16.4935,3.86586 16,5.5C 13.7773,7.7225 12.444,10.3892 12,13.5C 10.8545,14.6843 9.68787,14.6843 8.5,13.5 Z M 11.5,3.5 C 12.209,2.59603 13.209,2.26269 14.5,2.5C 14.7373,3.79105 14.404,4.79105 13.5,5.5C 13.5,4.16667 12.8333,3.5 11.5,3.5 Z M 11.5,3.5 C 12.8333,3.5 13.5,4.16667 13.5,5.5C 11.7304,7.11327 10.5637,9.11327 10,11.5C 8.5,10 7,8.5 5.5,7C 7.88673,6.43625 9.88673,5.26958 11.5,3.5 Z"/></g>
<g><path style="opacity:0.304" fill="#fefffe" d="M 11.5,3.5 C 12.8333,3.5 13.5,4.16667 13.5,5.5C 12.1667,5.5 11.5,4.83333 11.5,3.5 Z"/></g>
<g><path style="opacity:0.248" fill="#fefffe" d="M 3.5,8.5 C 3.5,9.5 3.5,10.5 3.5,11.5C 2.83333,11.5 2.5,11.8333 2.5,12.5C 1.50278,12.5299 0.836112,12.0299 0.5,11C 0.748308,9.25089 1.74831,8.41755 3.5,8.5 Z"/></g>
<g><path style="opacity:0.349" fill="#fefffe" d="M 5.5,10.5 C 6.16667,10.5 6.5,10.8333 6.5,11.5C 6.16667,12.1667 5.83333,12.8333 5.5,13.5C 4.18514,14.4756 2.85181,15.4756 1.5,16.5C 1.16667,16.1667 0.833333,15.8333 0.5,15.5C 1.19251,14.4822 1.85917,13.4822 2.5,12.5C 3.16667,12.5 3.5,12.1667 3.5,11.5C 4.16667,11.1667 4.83333,10.8333 5.5,10.5 Z"/></g>
<g><path style="opacity:0.275" fill="#fefffe" d="M 5.5,13.5 C 6.5,13.5 7.5,13.5 8.5,13.5C 8.27825,16.0764 6.94491,16.9098 4.5,16C 5.25244,15.3292 5.58577,14.4959 5.5,13.5 Z"/></g>
</svg>
