<?xml version="1.0" encoding="UTF-8"?>
<!DOCTYPE svg PUBLIC "-//W3C//DTD SVG 1.1//EN" "http://www.w3.org/Graphics/SVG/1.1/DTD/svg11.dtd">
<svg xmlns="http://www.w3.org/2000/svg" version="1.1" width="18px" height="18px" style="shape-rendering:geometricPrecision; text-rendering:geometricPrecision; image-rendering:optimizeQuality; fill-rule:evenodd; clip-rule:evenodd" xmlns:xlink="http://www.w3.org/1999/xlink">
<g><path style="opacity:0.372" fill="#fefffe" d="M 3.5,0.5 C 7.10636,0.210828 10.6064,0.544161 14,1.5C 15.0758,3.06717 15.9091,4.73384 16.5,6.5C 16.52,9.60746 16.1867,12.7741 15.5,16C 12.6529,16.9439 10.1529,16.4439 8,14.5C 3.56219,15.0904 1.06219,12.9237 0.5,8C 1.09301,5.31734 2.09301,2.81734 3.5,0.5 Z M 14.5,7.5 C 12.6412,7.53909 11.3079,6.70576 10.5,5C 7.72218,4.07722 5.72218,4.91055 4.5,7.5C 4.87929,9.2131 5.87929,10.2131 7.5,10.5C 7.72797,12.3547 7.0613,13.1881 5.5,13C 1.33487,9.22176 1.50154,5.72176 6,2.5C 10.4617,1.2486 13.295,2.91527 14.5,7.5 Z M 7.5,10.5 C 5.96634,8.6579 6.29967,7.32457 8.5,6.5C 9.42117,8.03141 9.08783,9.36474 7.5,10.5 Z M 10.5,9.5 C 14.2762,9.46925 14.4429,10.1359 11,11.5C 9.31643,11.3166 9.14976,10.6499 10.5,9.5 Z M 13.5,12.5 C 14.7733,13.0768 14.7733,13.7435 13.5,14.5C 12.537,14.0302 12.537,13.3635 13.5,12.5 Z"/></g>
</svg>
