<?xml version="1.0" encoding="UTF-8"?>
<!DOCTYPE svg PUBLIC "-//W3C//DTD SVG 1.1//EN" "http://www.w3.org/Graphics/SVG/1.1/DTD/svg11.dtd">
<svg xmlns="http://www.w3.org/2000/svg" version="1.1" width="18px" height="18px" style="shape-rendering:geometricPrecision; text-rendering:geometricPrecision; image-rendering:optimizeQuality; fill-rule:evenodd; clip-rule:evenodd" xmlns:xlink="http://www.w3.org/1999/xlink">
<g><path style="opacity:0.366" fill="#fefffe" d="M 4.5,0.5 C 6.72157,1.38624 8.88824,1.38624 11,0.5C 14.2052,1.79825 15.2052,4.13158 14,7.5C 12.3333,8.83333 10.6667,8.83333 9,7.5C 8.5,8 8,8.5 7.5,9C 10.0026,10.22 12.6692,10.5533 15.5,10C 16.8333,12 16.8333,14 15.5,16C 10.7715,16.5723 5.93814,16.4057 1,15.5C -0.356604,11.8571 0.810062,9.69041 4.5,9C 1.8987,6.17047 1.8987,3.33713 4.5,0.5 Z M 5.5,2.5 C 6.99525,2.41483 7.99525,3.08149 8.5,4.5C 7.67975,6.11118 6.34642,6.77784 4.5,6.5C 4.43255,5.04125 4.76589,3.70792 5.5,2.5 Z M 9.5,3.5 C 10.1894,2.22641 11.0228,2.22641 12,3.5C 12.7494,4.63505 12.5827,5.63505 11.5,6.5C 10.8243,5.39836 10.1577,4.39836 9.5,3.5 Z M 5.5,10.5 C 7.64487,10.7377 9.31153,11.7377 10.5,13.5C 7.91355,14.48 5.24688,14.8134 2.5,14.5C 2.5,13.5 2.5,12.5 2.5,11.5C 3.79105,11.7373 4.79105,11.404 5.5,10.5 Z M 12.5,11.5 C 14.4646,11.9483 14.7979,12.9483 13.5,14.5C 12.6143,13.675 12.281,12.675 12.5,11.5 Z"/></g>
</svg>
